<svg width="25" height="25" viewBox="0 0 25 25" fill="none" xmlns="http://www.w3.org/2000/svg">
<path fill-rule="evenodd" clip-rule="evenodd" d="M3.28125 9.37508C3.28125 6.58489 5.54314 4.323 8.33333 4.323H16.6667C19.4569 4.323 21.7187 6.58489 21.7187 9.37508V15.6251C21.7187 18.4153 19.4569 20.6772 16.6667 20.6772H8.33333C5.54314 20.6772 3.28125 18.4153 3.28125 15.6251V9.37508ZM8.33333 6.09383C6.52115 6.09383 5.05208 7.5629 5.05208 9.37508V15.6251C5.05208 17.4373 6.52115 18.9063 8.33333 18.9063H16.6667C18.4788 18.9063 19.9479 17.4373 19.9479 15.6251V9.37508C19.9479 7.5629 18.4788 6.09383 16.6667 6.09383H8.33333Z" fill="#343739"/>
<path d="M18.75 12.5002C18.75 13.0755 18.2836 13.5418 17.7083 13.5418C17.133 13.5418 16.6667 13.0755 16.6667 12.5002C16.6667 11.9249 17.133 11.4585 17.7083 11.4585C18.2836 11.4585 18.75 11.9249 18.75 12.5002Z" fill="#343739"/>
<path fill-rule="evenodd" clip-rule="evenodd" d="M13.6979 11.4585C13.6979 9.8189 15.0271 8.48975 16.6667 8.48975H20.8333C21.3223 8.48975 21.7187 8.88616 21.7187 9.37516V15.6252C21.7187 16.1142 21.3223 16.5106 20.8333 16.5106H16.6667C15.0271 16.5106 13.6979 15.1814 13.6979 13.5418V11.4585ZM16.6667 10.2606C16.0051 10.2606 15.4687 10.7969 15.4687 11.4585V13.5418C15.4687 14.2034 16.0051 14.7397 16.6667 14.7397H19.9479V10.2606H16.6667Z" fill="#343739"/>
</svg>
