<svg width="44" height="44" viewBox="0 0 44 44" fill="none" xmlns="http://www.w3.org/2000/svg">
<rect x="0.400024" y="0.200195" width="43.6" height="43.6" rx="21.8" fill="#F9F5FE"/>
<mask id="mask0_102_984" style="mask-type:alpha" maskUnits="userSpaceOnUse" x="10" y="10" width="24" height="24">
<rect x="10.4615" y="10.2617" width="23.4769" height="23.4769" fill="#D9D9D9"/>
</mask>
<g mask="url(#mask0_102_984)">
<path d="M22.2 28.8477C21.9228 28.8477 21.6905 28.754 21.503 28.5665C21.3155 28.379 21.2218 28.1467 21.2218 27.8695V22.9785H16.3307C16.0536 22.9785 15.8213 22.8847 15.6338 22.6972C15.4463 22.5097 15.3525 22.2774 15.3525 22.0003C15.3525 21.7231 15.4463 21.4908 15.6338 21.3033C15.8213 21.1158 16.0536 21.0221 16.3307 21.0221H21.2218V16.131C21.2218 15.8539 21.3155 15.6216 21.503 15.4341C21.6905 15.2466 21.9228 15.1528 22.2 15.1528C22.4771 15.1528 22.7095 15.2466 22.8969 15.4341C23.0844 15.6216 23.1782 15.8539 23.1782 16.131V21.0221H28.0692C28.3464 21.0221 28.5787 21.1158 28.7662 21.3033C28.9537 21.4908 29.0474 21.7231 29.0474 22.0003C29.0474 22.2774 28.9537 22.5097 28.7662 22.6972C28.5787 22.8847 28.3464 22.9785 28.0692 22.9785H23.1782V27.8695C23.1782 28.1467 23.0844 28.379 22.8969 28.5665C22.7095 28.754 22.4771 28.8477 22.2 28.8477Z" fill="#49B6F4"/>
</g>
</svg>
