<svg width="88" height="88" viewBox="0 0 88 88" fill="none" xmlns="http://www.w3.org/2000/svg">
<g filter="url(#filter0_d_731_4915)">
<path fill-rule="evenodd" clip-rule="evenodd" d="M43.6415 65.283C46.0701 65.283 48.0391 67.252 48.0391 69.6806C48.0391 72.1092 46.0701 74.0782 43.6415 74.0782C41.2127 74.0782 39.2439 72.1092 39.2439 69.6806C39.2437 67.2518 41.2127 65.283 43.6415 65.283ZM51.8684 47.7658C49.4732 49.307 47.5678 50.533 47.6253 56.7212C47.6427 58.9389 45.8592 60.7506 43.6415 60.7682C41.4238 60.7855 39.6118 59.002 39.5945 56.7843C39.4957 46.1595 43.0519 43.8713 47.5224 40.9946C48.5722 40.3192 49.6968 39.5954 50.7189 38.6527C52.1756 37.3084 53.2099 35.8764 53.8677 34.4381C54.5442 32.9591 54.8331 31.4619 54.7829 30.0469C54.6724 26.9321 52.822 24.5866 50.2801 23.2633C48.8078 22.4967 47.1319 22.0542 45.42 21.9749C43.6801 21.8943 41.9005 22.1784 40.2514 22.8664C36.8711 24.2769 34.0132 27.4962 33.1598 32.9167C32.8207 35.1082 30.769 36.6099 28.5775 36.2708C26.3859 35.9317 24.8842 33.88 25.2233 31.6886C26.5799 23.0724 31.4083 17.8358 37.165 15.4341C39.9188 14.2851 42.8797 13.8104 45.7665 13.9441C48.6814 14.0793 51.5192 14.8248 53.9964 16.1143C58.966 18.7017 62.5883 23.4079 62.8138 29.7634C62.9068 32.3852 62.3892 35.1199 61.1741 37.7764C60.0801 40.1682 58.4315 42.4841 56.1672 44.5736C54.6392 45.9828 53.2061 46.9049 51.8684 47.7658Z" fill="#3F9ED3"/>
</g>
<defs>
<filter id="filter0_d_731_4915" x="21.1755" y="13.9221" width="45.6489" height="68.156" filterUnits="userSpaceOnUse" color-interpolation-filters="sRGB">
<feFlood flood-opacity="0" result="BackgroundImageFix"/>
<feColorMatrix in="SourceAlpha" type="matrix" values="0 0 0 0 0 0 0 0 0 0 0 0 0 0 0 0 0 0 127 0" result="hardAlpha"/>
<feOffset dy="4"/>
<feGaussianBlur stdDeviation="2"/>
<feComposite in2="hardAlpha" operator="out"/>
<feColorMatrix type="matrix" values="0 0 0 0 0 0 0 0 0 0 0 0 0 0 0 0 0 0 0.25 0"/>
<feBlend mode="normal" in2="BackgroundImageFix" result="effect1_dropShadow_731_4915"/>
<feBlend mode="normal" in="SourceGraphic" in2="effect1_dropShadow_731_4915" result="shape"/>
</filter>
</defs>
</svg>
