<svg width="20" height="20" viewBox="0 0 20 20" fill="none" xmlns="http://www.w3.org/2000/svg">
<path d="M17.75 10.0002C17.75 14.2804 14.2802 17.7502 10 17.7502C5.71979 17.7502 2.25 14.2804 2.25 10.0002C2.25 5.72004 5.71979 2.25024 10 2.25024C14.2802 2.25024 17.75 5.72004 17.75 10.0002ZM11.25 7.00024C11.25 6.30989 10.6904 5.75024 10 5.75024C9.30964 5.75024 8.75 6.30989 8.75 7.00024L8.75 9.98248L7.88388 9.11636C7.39573 8.6282 6.60427 8.6282 6.11612 9.11636C5.62796 9.60452 5.62796 10.396 6.11612 10.8841L9.11612 13.8841C9.60427 14.3723 10.3957 14.3723 10.8839 13.8841L13.8839 10.8841C14.372 10.396 14.372 9.60451 13.8839 9.11636C13.3957 8.6282 12.6043 8.6282 12.1161 9.11636L11.25 9.98248V7.00024Z" stroke="black" stroke-width="0.5"/>
</svg>
