<svg width="38" height="39" viewBox="0 0 38 39" fill="none" xmlns="http://www.w3.org/2000/svg">
<path fill-rule="evenodd" clip-rule="evenodd" d="M19.1152 34.2679C27.408 34.2679 34.1305 27.5454 34.1305 19.2526C34.1305 10.9599 27.408 4.2373 19.1152 4.2373C10.8225 4.2373 4.09991 10.9599 4.09991 19.2526C4.09991 27.5454 10.8225 34.2679 19.1152 34.2679ZM20.9921 13.6219C20.9921 12.5853 20.1518 11.745 19.1152 11.745C18.0786 11.745 17.2383 12.5853 17.2383 13.6219L17.2383 20.3521L14.8117 17.9254C14.0787 17.1925 12.8903 17.1925 12.1573 17.9254C11.4243 18.6584 11.4243 19.8468 12.1573 20.5798L17.7881 26.2105C18.521 26.9435 19.7094 26.9435 20.4424 26.2105L26.0732 20.5798C26.8061 19.8468 26.8061 18.6584 26.0732 17.9254C25.3402 17.1925 24.1518 17.1925 23.4188 17.9254L20.9921 20.3521V13.6219Z" fill="white"/>
</svg>
