<svg width="26" height="27" viewBox="0 0 26 27" fill="none" xmlns="http://www.w3.org/2000/svg">
<path fill-rule="evenodd" clip-rule="evenodd" d="M13.0163 0.945366C19.9269 0.945366 25.5291 6.62027 25.5291 13.6206C25.5291 20.621 19.9269 26.2959 13.0163 26.2959C6.10569 26.2959 0.50354 20.621 0.50354 13.6206C0.50354 6.62027 6.10569 0.945366 13.0163 0.945366ZM14.5804 18.3739C14.5804 19.2489 13.8801 19.9583 13.0163 19.9583C12.1525 19.9583 11.4522 19.2489 11.4522 18.3739L11.4522 12.6925L9.43 14.741C8.81918 15.3597 7.82885 15.3597 7.21803 14.741C6.60722 14.1222 6.60722 13.119 7.21803 12.5003L11.9103 7.74706C12.5211 7.12831 13.5115 7.12831 14.1223 7.74706L18.8146 12.5003C19.4254 13.119 19.4254 14.1222 18.8146 14.741C18.2038 15.3597 17.2134 15.3597 16.6026 14.741L14.5804 12.6925V18.3739Z" fill="white"/>
</svg>
