<svg width="141" height="24" viewBox="0 0 141 24" fill="none" xmlns="http://www.w3.org/2000/svg">
<path d="M15 7L10 12L15 17" stroke="#0C192C" stroke-width="1.5" stroke-miterlimit="10" stroke-linecap="round" stroke-linejoin="round"/>
<path d="M40.154 18L43.822 7.57H45.866L49.534 18H47.77L46.972 15.662H42.73L41.918 18H40.154ZM43.206 14.192H46.468L44.62 8.732H45.082L43.206 14.192ZM53.1826 18.168C52.6133 18.168 52.114 18.042 51.6846 17.79C51.2553 17.5287 50.9193 17.1693 50.6766 16.712C50.4433 16.2453 50.3266 15.7087 50.3266 15.102V10.426H51.9086V14.962C51.9086 15.3073 51.9786 15.6107 52.1186 15.872C52.2586 16.1333 52.4546 16.3387 52.7066 16.488C52.9586 16.628 53.248 16.698 53.5746 16.698C53.9106 16.698 54.2046 16.6233 54.4566 16.474C54.7086 16.3247 54.9046 16.1147 55.0446 15.844C55.194 15.5733 55.2686 15.256 55.2686 14.892V10.426H56.8366V18H55.3386V16.516L55.5066 16.712C55.3293 17.1787 55.0353 17.538 54.6246 17.79C54.214 18.042 53.7333 18.168 53.1826 18.168ZM61.9598 18.084C61.1664 18.084 60.5504 17.86 60.1118 17.412C59.6731 16.964 59.4538 16.334 59.4538 15.522V11.854H58.1238V10.426H58.3338C58.6884 10.426 58.9638 10.3233 59.1598 10.118C59.3558 9.91267 59.4538 9.63267 59.4538 9.278V8.69H61.0358V10.426H62.7578V11.854H61.0358V15.452C61.0358 15.7133 61.0778 15.9373 61.1618 16.124C61.2458 16.3013 61.3811 16.4413 61.5678 16.544C61.7544 16.6373 61.9971 16.684 62.2958 16.684C62.3704 16.684 62.4544 16.6793 62.5478 16.67C62.6411 16.6607 62.7298 16.6513 62.8138 16.642V18C62.6831 18.0187 62.5384 18.0373 62.3798 18.056C62.2211 18.0747 62.0811 18.084 61.9598 18.084ZM64.3576 18V7.402H65.9396V11.91L65.6876 11.714C65.8743 11.238 66.1729 10.8787 66.5836 10.636C66.9943 10.384 67.4703 10.258 68.0116 10.258C68.5716 10.258 69.0663 10.3793 69.4956 10.622C69.9249 10.8647 70.2609 11.2007 70.5036 11.63C70.7463 12.0593 70.8676 12.5493 70.8676 13.1V18H69.2996V13.534C69.2996 13.1513 69.2249 12.8293 69.0756 12.568C68.9356 12.2973 68.7396 12.092 68.4876 11.952C68.2356 11.8027 67.9463 11.728 67.6196 11.728C67.3023 11.728 67.0129 11.8027 66.7516 11.952C66.4996 12.092 66.2989 12.2973 66.1496 12.568C66.0096 12.8387 65.9396 13.1607 65.9396 13.534V18H64.3576ZM76.1167 18.168C75.3607 18.168 74.6887 17.9953 74.1007 17.65C73.5221 17.2953 73.0694 16.8193 72.7427 16.222C72.4161 15.6153 72.2527 14.9387 72.2527 14.192C72.2527 13.4267 72.4161 12.75 72.7427 12.162C73.0787 11.574 73.5267 11.112 74.0867 10.776C74.6467 10.4307 75.2814 10.258 75.9907 10.258C76.5601 10.258 77.0687 10.356 77.5167 10.552C77.9647 10.748 78.3427 11.0187 78.6507 11.364C78.9587 11.7 79.1921 12.0873 79.3507 12.526C79.5187 12.9647 79.6027 13.4313 79.6027 13.926C79.6027 14.0473 79.5981 14.1733 79.5887 14.304C79.5794 14.4347 79.5607 14.556 79.5327 14.668H73.4987V13.408H78.6367L77.8807 13.982C77.9741 13.5247 77.9414 13.1187 77.7827 12.764C77.6334 12.4 77.4001 12.1153 77.0827 11.91C76.7747 11.6953 76.4107 11.588 75.9907 11.588C75.5707 11.588 75.1974 11.6953 74.8707 11.91C74.5441 12.1153 74.2921 12.414 74.1147 12.806C73.9374 13.1887 73.8674 13.6553 73.9047 14.206C73.8581 14.7193 73.9281 15.1673 74.1147 15.55C74.3107 15.9327 74.5814 16.2313 74.9267 16.446C75.2814 16.6607 75.6827 16.768 76.1307 16.768C76.5881 16.768 76.9754 16.6653 77.2927 16.46C77.6194 16.2547 77.8761 15.9887 78.0627 15.662L79.3507 16.292C79.2014 16.6467 78.9681 16.9687 78.6507 17.258C78.3427 17.538 77.9694 17.762 77.5307 17.93C77.1014 18.0887 76.6301 18.168 76.1167 18.168ZM81.1467 18V10.426H82.6587V11.91L82.4767 11.714C82.6633 11.238 82.962 10.8787 83.3727 10.636C83.7833 10.384 84.2593 10.258 84.8007 10.258C85.3607 10.258 85.8553 10.3793 86.2847 10.622C86.714 10.8647 87.05 11.2007 87.2927 11.63C87.5353 12.0593 87.6567 12.554 87.6567 13.114V18H86.0887V13.534C86.0887 13.1513 86.0187 12.8293 85.8787 12.568C85.7387 12.2973 85.538 12.092 85.2767 11.952C85.0247 11.8027 84.7353 11.728 84.4087 11.728C84.082 11.728 83.788 11.8027 83.5267 11.952C83.2747 12.092 83.0787 12.2973 82.9387 12.568C82.7987 12.8387 82.7287 13.1607 82.7287 13.534V18H81.1467ZM92.6258 18.084C91.8324 18.084 91.2164 17.86 90.7778 17.412C90.3391 16.964 90.1198 16.334 90.1198 15.522V11.854H88.7898V10.426H88.9998C89.3544 10.426 89.6298 10.3233 89.8258 10.118C90.0218 9.91267 90.1198 9.63267 90.1198 9.278V8.69H91.7018V10.426H93.4238V11.854H91.7018V15.452C91.7018 15.7133 91.7438 15.9373 91.8278 16.124C91.9118 16.3013 92.0471 16.4413 92.2338 16.544C92.4204 16.6373 92.6631 16.684 92.9618 16.684C93.0364 16.684 93.1204 16.6793 93.2138 16.67C93.3071 16.6607 93.3958 16.6513 93.4798 16.642V18C93.3491 18.0187 93.2044 18.0373 93.0458 18.056C92.8871 18.0747 92.7471 18.084 92.6258 18.084ZM95.0236 18V10.426H96.6056V18H95.0236ZM95.0236 9.39V7.57H96.6056V9.39H95.0236ZM102.053 18.168C101.297 18.168 100.625 17.9953 100.037 17.65C99.4586 17.2953 98.9966 16.8193 98.6513 16.222C98.3153 15.6247 98.1473 14.948 98.1473 14.192C98.1473 13.4453 98.3153 12.7733 98.6513 12.176C98.9873 11.5787 99.4493 11.112 100.037 10.776C100.625 10.4307 101.297 10.258 102.053 10.258C102.567 10.258 103.047 10.3513 103.495 10.538C103.943 10.7153 104.331 10.9627 104.657 11.28C104.993 11.5973 105.241 11.966 105.399 12.386L104.013 13.03C103.855 12.638 103.598 12.3253 103.243 12.092C102.898 11.8493 102.501 11.728 102.053 11.728C101.624 11.728 101.237 11.8353 100.891 12.05C100.555 12.2553 100.289 12.5493 100.093 12.932C99.8973 13.3053 99.7993 13.73 99.7993 14.206C99.7993 14.682 99.8973 15.1113 100.093 15.494C100.289 15.8673 100.555 16.1613 100.891 16.376C101.237 16.5907 101.624 16.698 102.053 16.698C102.511 16.698 102.907 16.5813 103.243 16.348C103.589 16.1053 103.845 15.7833 104.013 15.382L105.399 16.04C105.25 16.4413 105.007 16.8053 104.671 17.132C104.345 17.4493 103.957 17.7013 103.509 17.888C103.061 18.0747 102.576 18.168 102.053 18.168ZM109.145 18.168C108.632 18.168 108.179 18.0793 107.787 17.902C107.404 17.7153 107.106 17.4633 106.891 17.146C106.676 16.8193 106.569 16.4367 106.569 15.998C106.569 15.5873 106.658 15.2187 106.835 14.892C107.022 14.5653 107.306 14.29 107.689 14.066C108.072 13.842 108.552 13.6833 109.131 13.59L111.763 13.156V14.402L109.439 14.808C109.019 14.8827 108.711 15.018 108.515 15.214C108.319 15.4007 108.221 15.6433 108.221 15.942C108.221 16.2313 108.328 16.4693 108.543 16.656C108.767 16.8333 109.052 16.922 109.397 16.922C109.826 16.922 110.2 16.8287 110.517 16.642C110.844 16.4553 111.096 16.208 111.273 15.9C111.45 15.5827 111.539 15.2327 111.539 14.85V12.904C111.539 12.5307 111.399 12.2273 111.119 11.994C110.848 11.7513 110.484 11.63 110.027 11.63C109.607 11.63 109.238 11.742 108.921 11.966C108.613 12.1807 108.384 12.4607 108.235 12.806L106.919 12.148C107.059 11.7747 107.288 11.448 107.605 11.168C107.922 10.8787 108.291 10.6547 108.711 10.496C109.14 10.3373 109.593 10.258 110.069 10.258C110.666 10.258 111.194 10.37 111.651 10.594C112.118 10.818 112.477 11.1307 112.729 11.532C112.99 11.924 113.121 12.3813 113.121 12.904V18H111.609V16.628L111.931 16.67C111.754 16.978 111.525 17.244 111.245 17.468C110.974 17.692 110.662 17.8647 110.307 17.986C109.962 18.1073 109.574 18.168 109.145 18.168ZM118.11 18.084C117.317 18.084 116.701 17.86 116.262 17.412C115.823 16.964 115.604 16.334 115.604 15.522V11.854H114.274V10.426H114.484C114.839 10.426 115.114 10.3233 115.31 10.118C115.506 9.91267 115.604 9.63267 115.604 9.278V8.69H117.186V10.426H118.908V11.854H117.186V15.452C117.186 15.7133 117.228 15.9373 117.312 16.124C117.396 16.3013 117.531 16.4413 117.718 16.544C117.905 16.6373 118.147 16.684 118.446 16.684C118.521 16.684 118.605 16.6793 118.698 16.67C118.791 16.6607 118.88 16.6513 118.964 16.642V18C118.833 18.0187 118.689 18.0373 118.53 18.056C118.371 18.0747 118.231 18.084 118.11 18.084ZM120.508 18V10.426H122.09V18H120.508ZM120.508 9.39V7.57H122.09V9.39H120.508ZM127.594 18.168C126.866 18.168 126.198 17.9953 125.592 17.65C124.994 17.3047 124.518 16.8333 124.164 16.236C123.809 15.6387 123.632 14.962 123.632 14.206C123.632 13.4407 123.809 12.764 124.164 12.176C124.518 11.5787 124.994 11.112 125.592 10.776C126.189 10.4307 126.856 10.258 127.594 10.258C128.34 10.258 129.008 10.4307 129.596 10.776C130.193 11.112 130.664 11.5787 131.01 12.176C131.364 12.764 131.542 13.4407 131.542 14.206C131.542 14.9713 131.364 15.6527 131.01 16.25C130.655 16.8473 130.179 17.3187 129.582 17.664C128.984 18 128.322 18.168 127.594 18.168ZM127.594 16.698C128.042 16.698 128.438 16.5907 128.784 16.376C129.129 16.1613 129.4 15.8673 129.596 15.494C129.801 15.1113 129.904 14.682 129.904 14.206C129.904 13.73 129.801 13.3053 129.596 12.932C129.4 12.5587 129.129 12.2647 128.784 12.05C128.438 11.8353 128.042 11.728 127.594 11.728C127.155 11.728 126.758 11.8353 126.404 12.05C126.058 12.2647 125.783 12.5587 125.578 12.932C125.382 13.3053 125.284 13.73 125.284 14.206C125.284 14.682 125.382 15.1113 125.578 15.494C125.783 15.8673 126.058 16.1613 126.404 16.376C126.758 16.5907 127.155 16.698 127.594 16.698ZM133.086 18V10.426H134.598V11.91L134.416 11.714C134.603 11.238 134.901 10.8787 135.312 10.636C135.723 10.384 136.199 10.258 136.74 10.258C137.3 10.258 137.795 10.3793 138.224 10.622C138.653 10.8647 138.989 11.2007 139.232 11.63C139.475 12.0593 139.596 12.554 139.596 13.114V18H138.028V13.534C138.028 13.1513 137.958 12.8293 137.818 12.568C137.678 12.2973 137.477 12.092 137.216 11.952C136.964 11.8027 136.675 11.728 136.348 11.728C136.021 11.728 135.727 11.8027 135.466 11.952C135.214 12.092 135.018 12.2973 134.878 12.568C134.738 12.8387 134.668 13.1607 134.668 13.534V18H133.086Z" fill="#0C192C"/>
</svg>
