<svg width="26" height="20" viewBox="0 0 26 20" fill="none" xmlns="http://www.w3.org/2000/svg">
<path d="M25.38 19.0789C25.38 19.2978 25.293 19.5077 25.1383 19.6625C24.9835 19.8173 24.7736 19.9042 24.5547 19.9042H1.44533C1.22644 19.9042 1.01651 19.8173 0.86173 19.6625C0.70695 19.5077 0.619995 19.2978 0.619995 19.0789C0.619995 18.86 0.70695 18.6501 0.86173 18.4953C1.01651 18.3405 1.22644 18.2536 1.44533 18.2536H24.5547C24.7736 18.2536 24.9835 18.3405 25.1383 18.4953C25.293 18.6501 25.38 18.86 25.38 19.0789ZM1.47628 7.74913C1.42719 7.57604 1.436 7.39166 1.50137 7.22405C1.56674 7.05644 1.68508 6.91477 1.83839 6.82062L12.5677 0.217958C12.6977 0.138023 12.8474 0.0957031 13 0.0957031C13.1526 0.0957031 13.3022 0.138023 13.4323 0.217958L24.1616 6.82062C24.315 6.91466 24.4334 7.05622 24.4989 7.22376C24.5644 7.39131 24.5733 7.57566 24.5244 7.74876C24.4754 7.92187 24.3713 8.07424 24.2278 8.18269C24.0842 8.29115 23.9092 8.34974 23.7293 8.34955H21.2533V14.9522H22.904C23.1229 14.9522 23.3328 15.0392 23.4876 15.194C23.6424 15.3487 23.7293 15.5587 23.7293 15.7776C23.7293 15.9964 23.6424 16.2064 23.4876 16.3612C23.3328 16.5159 23.1229 16.6029 22.904 16.6029H3.096C2.8771 16.6029 2.66718 16.5159 2.5124 16.3612C2.35762 16.2064 2.27066 15.9964 2.27066 15.7776C2.27066 15.5587 2.35762 15.3487 2.5124 15.194C2.66718 15.0392 2.8771 14.9522 3.096 14.9522H4.74666V8.34955H2.27066C2.09093 8.34962 1.9161 8.29101 1.77272 8.18264C1.62934 8.07426 1.52525 7.92205 1.47628 7.74913ZM14.6507 14.1269C14.6507 14.3458 14.7376 14.5557 14.8924 14.7105C15.0472 14.8653 15.2571 14.9522 15.476 14.9522C15.6949 14.9522 15.9048 14.8653 16.0596 14.7105C16.2144 14.5557 16.3013 14.3458 16.3013 14.1269V9.17489C16.3013 8.956 16.2144 8.74607 16.0596 8.59129C15.9048 8.43651 15.6949 8.34955 15.476 8.34955C15.2571 8.34955 15.0472 8.43651 14.8924 8.59129C14.7376 8.74607 14.6507 8.956 14.6507 9.17489V14.1269ZM9.69866 14.1269C9.69866 14.3458 9.78562 14.5557 9.9404 14.7105C10.0952 14.8653 10.3051 14.9522 10.524 14.9522C10.7429 14.9522 10.9528 14.8653 11.1076 14.7105C11.2624 14.5557 11.3493 14.3458 11.3493 14.1269V9.17489C11.3493 8.956 11.2624 8.74607 11.1076 8.59129C10.9528 8.43651 10.7429 8.34955 10.524 8.34955C10.3051 8.34955 10.0952 8.43651 9.9404 8.59129C9.78562 8.74607 9.69866 8.956 9.69866 9.17489V14.1269Z" fill="#49B6F4"/>
</svg>
