<svg width="88" height="93" viewBox="0 0 88 93" fill="none" xmlns="http://www.w3.org/2000/svg">
<g filter="url(#filter0_d_157_1490)">
<rect x="20" y="3" width="48" height="48" rx="24" fill="#FCFCE3"/>
</g>
<g filter="url(#filter1_d_157_1490)">
<rect x="20" y="3" width="48" height="48" rx="12" fill="#FDF4E8"/>
</g>
<path d="M30 38.6685H58V41.0018H30V38.6685ZM58 22.229V24.6685H54.5V34.0018H56.8333V36.3351H31.1667V34.0018H33.5V24.6685H30V22.229C29.9999 21.6002 30.1692 20.983 30.49 20.4422C30.8109 19.9015 31.2715 19.4571 31.8235 19.156L42.3235 13.4288C42.8375 13.1475 43.414 13 44 13C44.586 13 45.1625 13.1475 45.6765 13.4288L56.1765 19.156C56.7285 19.4571 57.1891 19.9015 57.51 20.4422C57.8308 20.983 58.0001 21.6002 58 22.229ZM35.8333 34.0018H39.3333V24.6685H35.8333V34.0018ZM41.6667 24.6685V34.0018H46.3333V24.6685H41.6667ZM52.1667 24.6685H48.6667V34.0018H52.1667V24.6685ZM55.6667 22.229C55.6667 22.0194 55.6103 21.8136 55.5033 21.6334C55.3964 21.4531 55.2428 21.305 55.0588 21.2046L44.5588 15.4775C44.3874 15.3839 44.1953 15.3349 44 15.3349C43.8047 15.3349 43.6126 15.3839 43.4412 15.4775L32.9412 21.2046C32.7572 21.305 32.6036 21.4531 32.4967 21.6334C32.3897 21.8136 32.3333 22.0194 32.3333 22.229V22.3351H55.6667V22.229Z" fill="#F1A43F"/>
<path d="M16.1444 74V65.06H19.9004C20.4364 65.06 20.8964 65.156 21.2804 65.348C21.6724 65.54 21.9724 65.812 22.1804 66.164C22.3964 66.508 22.5044 66.92 22.5044 67.4C22.5044 67.84 22.3884 68.24 22.1564 68.6C21.9324 68.952 21.6004 69.228 21.1604 69.428L21.1484 68.984C21.5324 69.128 21.8484 69.32 22.0964 69.56C22.3524 69.792 22.5444 70.064 22.6724 70.376C22.8004 70.68 22.8644 71.004 22.8644 71.348C22.8644 72.172 22.6004 72.82 22.0724 73.292C21.5444 73.764 20.8244 74 19.9124 74H16.1444ZM17.3204 72.92H19.9604C20.4804 72.92 20.8964 72.78 21.2084 72.5C21.5204 72.22 21.6764 71.84 21.6764 71.36C21.6764 70.88 21.5204 70.5 21.2084 70.22C20.8964 69.932 20.4804 69.788 19.9604 69.788H17.3204V72.92ZM17.3204 68.732H19.8764C20.3084 68.732 20.6564 68.608 20.9204 68.36C21.1844 68.104 21.3164 67.78 21.3164 67.388C21.3164 66.98 21.1844 66.668 20.9204 66.452C20.6564 66.236 20.3084 66.128 19.8764 66.128H17.3204V68.732ZM26.217 74.144C25.793 74.144 25.417 74.068 25.089 73.916C24.769 73.756 24.517 73.54 24.333 73.268C24.149 72.988 24.057 72.668 24.057 72.308C24.057 71.964 24.129 71.656 24.273 71.384C24.425 71.104 24.657 70.868 24.969 70.676C25.289 70.484 25.689 70.348 26.169 70.268L28.569 69.872V70.808L26.421 71.168C26.005 71.24 25.701 71.372 25.509 71.564C25.325 71.756 25.233 71.992 25.233 72.272C25.233 72.536 25.337 72.756 25.545 72.932C25.761 73.108 26.029 73.196 26.349 73.196C26.757 73.196 27.109 73.112 27.405 72.944C27.709 72.768 27.945 72.532 28.113 72.236C28.289 71.94 28.377 71.612 28.377 71.252V69.608C28.377 69.256 28.245 68.972 27.981 68.756C27.725 68.532 27.385 68.42 26.961 68.42C26.593 68.42 26.265 68.516 25.977 68.708C25.697 68.892 25.489 69.14 25.353 69.452L24.381 68.948C24.501 68.652 24.693 68.388 24.957 68.156C25.221 67.916 25.529 67.728 25.881 67.592C26.233 67.456 26.601 67.388 26.985 67.388C27.481 67.388 27.917 67.484 28.293 67.676C28.669 67.86 28.961 68.12 29.169 68.456C29.385 68.784 29.493 69.168 29.493 69.608V74H28.401V72.776L28.605 72.848C28.469 73.104 28.285 73.328 28.053 73.52C27.821 73.712 27.549 73.864 27.237 73.976C26.925 74.088 26.585 74.144 26.217 74.144ZM31.2234 74V67.532H32.3154V68.792L32.1354 68.684C32.2954 68.276 32.5514 67.96 32.9034 67.736C33.2634 67.504 33.6834 67.388 34.1634 67.388C34.6274 67.388 35.0394 67.492 35.3994 67.7C35.7674 67.908 36.0554 68.196 36.2634 68.564C36.4794 68.932 36.5874 69.348 36.5874 69.812V74H35.4594V70.172C35.4594 69.812 35.3954 69.508 35.2674 69.26C35.1394 69.012 34.9554 68.82 34.7154 68.684C34.4834 68.54 34.2154 68.468 33.9114 68.468C33.6074 68.468 33.3354 68.54 33.0954 68.684C32.8634 68.82 32.6794 69.016 32.5434 69.272C32.4074 69.52 32.3394 69.82 32.3394 70.172V74H31.2234ZM38.1843 74V64.916H39.3003V71.144L38.8443 71.036L42.2763 67.532H43.7043L41.2203 70.136L43.8723 74H42.5523L40.1283 70.496L40.8243 70.46L38.9403 72.428L39.3003 71.612V74H38.1843ZM44.8757 74V67.532H45.9917V74H44.8757ZM44.8757 66.5V65.06H45.9917V66.5H44.8757ZM47.7234 74V67.532H48.8154V68.792L48.6354 68.684C48.7954 68.276 49.0514 67.96 49.4034 67.736C49.7634 67.504 50.1834 67.388 50.6634 67.388C51.1274 67.388 51.5394 67.492 51.8994 67.7C52.2674 67.908 52.5554 68.196 52.7634 68.564C52.9794 68.932 53.0874 69.348 53.0874 69.812V74H51.9594V70.172C51.9594 69.812 51.8954 69.508 51.7674 69.26C51.6394 69.012 51.4554 68.82 51.2154 68.684C50.9834 68.54 50.7154 68.468 50.4114 68.468C50.1074 68.468 49.8354 68.54 49.5954 68.684C49.3634 68.82 49.1794 69.016 49.0434 69.272C48.9074 69.52 48.8394 69.82 48.8394 70.172V74H47.7234ZM57.7683 76.64C57.3123 76.64 56.8883 76.568 56.4963 76.424C56.1123 76.28 55.7803 76.08 55.5003 75.824C55.2283 75.576 55.0203 75.284 54.8763 74.948L55.9203 74.468C56.0323 74.772 56.2443 75.028 56.5563 75.236C56.8763 75.452 57.2763 75.56 57.7563 75.56C58.1243 75.56 58.4563 75.488 58.7523 75.344C59.0563 75.208 59.2963 75 59.4723 74.72C59.6483 74.448 59.7363 74.116 59.7363 73.724V72.272L59.9403 72.488C59.7163 72.928 59.3923 73.264 58.9683 73.496C58.5523 73.728 58.0923 73.844 57.5883 73.844C56.9803 73.844 56.4363 73.704 55.9563 73.424C55.4763 73.136 55.1003 72.748 54.8283 72.26C54.5563 71.764 54.4203 71.216 54.4203 70.616C54.4203 70.008 54.5563 69.46 54.8283 68.972C55.1003 68.484 55.4723 68.1 55.9443 67.82C56.4243 67.532 56.9683 67.388 57.5763 67.388C58.0803 67.388 58.5363 67.504 58.9443 67.736C59.3603 67.96 59.6923 68.272 59.9403 68.672L59.7723 68.972V67.532H60.8643V73.724C60.8643 74.284 60.7323 74.784 60.4683 75.224C60.2043 75.664 59.8363 76.008 59.3643 76.256C58.9003 76.512 58.3683 76.64 57.7683 76.64ZM57.6843 72.764C58.0683 72.764 58.4123 72.668 58.7163 72.476C59.0283 72.284 59.2763 72.028 59.4603 71.708C59.6443 71.38 59.7363 71.016 59.7363 70.616C59.7363 70.224 59.6443 69.864 59.4603 69.536C59.2763 69.208 59.0283 68.948 58.7163 68.756C58.4123 68.564 58.0683 68.468 57.6843 68.468C57.2923 68.468 56.9363 68.564 56.6163 68.756C56.2963 68.948 56.0443 69.208 55.8603 69.536C55.6843 69.856 55.5963 70.216 55.5963 70.616C55.5963 71.016 55.6843 71.38 55.8603 71.708C56.0443 72.028 56.2923 72.284 56.6043 72.476C56.9243 72.668 57.2843 72.764 57.6843 72.764ZM67.1527 74.144C66.6487 74.144 66.2007 74.052 65.8087 73.868C65.4167 73.676 65.1087 73.408 64.8847 73.064C64.6687 72.712 64.5607 72.308 64.5607 71.852C64.5607 71.46 64.6327 71.116 64.7767 70.82C64.9207 70.516 65.0967 70.256 65.3047 70.04C65.5207 69.824 65.7367 69.644 65.9527 69.5C66.1767 69.348 66.3607 69.228 66.5047 69.14L67.1887 68.744C67.4207 68.608 67.6447 68.46 67.8607 68.3C68.0767 68.14 68.2567 67.956 68.4007 67.748C68.5447 67.532 68.6167 67.292 68.6167 67.028C68.6167 66.716 68.5127 66.456 68.3047 66.248C68.0967 66.04 67.8367 65.936 67.5247 65.936C67.2127 65.936 66.9527 66.04 66.7447 66.248C66.5367 66.456 66.4327 66.72 66.4327 67.04C66.4327 67.256 66.4847 67.468 66.5887 67.676C66.6927 67.884 66.8207 68.084 66.9727 68.276C67.1247 68.46 67.2767 68.632 67.4287 68.792L72.2887 74H70.8127L66.5527 69.512C66.3607 69.312 66.1687 69.092 65.9767 68.852C65.7847 68.612 65.6207 68.348 65.4847 68.06C65.3567 67.764 65.2927 67.44 65.2927 67.088C65.2927 66.656 65.3927 66.28 65.5927 65.96C65.8007 65.632 66.0727 65.376 66.4087 65.192C66.7447 65.008 67.1167 64.916 67.5247 64.916C67.9247 64.916 68.2887 65.008 68.6167 65.192C68.9527 65.368 69.2207 65.616 69.4207 65.936C69.6207 66.256 69.7207 66.624 69.7207 67.04C69.7207 67.464 69.6207 67.836 69.4207 68.156C69.2207 68.468 68.9807 68.736 68.7007 68.96C68.4207 69.176 68.1567 69.356 67.9087 69.5L67.2367 69.908C67.0367 70.036 66.8247 70.188 66.6007 70.364C66.3767 70.532 66.1847 70.736 66.0247 70.976C65.8647 71.208 65.7847 71.492 65.7847 71.828C65.7847 72.228 65.9127 72.54 66.1687 72.764C66.4327 72.988 66.7727 73.1 67.1887 73.1C67.4527 73.1 67.6887 73.056 67.8967 72.968C68.1047 72.88 68.2887 72.764 68.4487 72.62C68.6167 72.476 68.7647 72.32 68.8927 72.152C69.0207 71.976 69.1407 71.804 69.2527 71.636L70.6327 69.584H71.9167L70.2967 72.056C70.1767 72.256 70.0247 72.476 69.8407 72.716C69.6567 72.956 69.4407 73.184 69.1927 73.4C68.9447 73.616 68.6527 73.796 68.3167 73.94C67.9887 74.076 67.6007 74.144 67.1527 74.144ZM22.3612 90V81.06H28.0252V82.14H23.5372V85.032H27.6052V86.112H23.5372V90H22.3612ZM29.2253 90V83.532H30.3413V90H29.2253ZM29.2253 82.5V81.06H30.3413V82.5H29.2253ZM32.073 90V83.532H33.165V84.792L32.985 84.684C33.145 84.276 33.401 83.96 33.753 83.736C34.113 83.504 34.533 83.388 35.013 83.388C35.477 83.388 35.889 83.492 36.249 83.7C36.617 83.908 36.905 84.196 37.113 84.564C37.329 84.932 37.437 85.348 37.437 85.812V90H36.309V86.172C36.309 85.812 36.245 85.508 36.117 85.26C35.989 85.012 35.805 84.82 35.565 84.684C35.333 84.54 35.065 84.468 34.761 84.468C34.457 84.468 34.185 84.54 33.945 84.684C33.713 84.82 33.529 85.016 33.393 85.272C33.257 85.52 33.189 85.82 33.189 86.172V90H32.073ZM40.9299 90.144C40.5059 90.144 40.1299 90.068 39.8019 89.916C39.4819 89.756 39.2299 89.54 39.0459 89.268C38.8619 88.988 38.7699 88.668 38.7699 88.308C38.7699 87.964 38.8419 87.656 38.9859 87.384C39.1379 87.104 39.3699 86.868 39.6819 86.676C40.0019 86.484 40.4019 86.348 40.8819 86.268L43.2819 85.872V86.808L41.1339 87.168C40.7179 87.24 40.4139 87.372 40.2219 87.564C40.0379 87.756 39.9459 87.992 39.9459 88.272C39.9459 88.536 40.0499 88.756 40.2579 88.932C40.4739 89.108 40.7419 89.196 41.0619 89.196C41.4699 89.196 41.8219 89.112 42.1179 88.944C42.4219 88.768 42.6579 88.532 42.8259 88.236C43.0019 87.94 43.0899 87.612 43.0899 87.252V85.608C43.0899 85.256 42.9579 84.972 42.6939 84.756C42.4379 84.532 42.0979 84.42 41.6739 84.42C41.3059 84.42 40.9779 84.516 40.6899 84.708C40.4099 84.892 40.2019 85.14 40.0659 85.452L39.0939 84.948C39.2139 84.652 39.4059 84.388 39.6699 84.156C39.9339 83.916 40.2419 83.728 40.5939 83.592C40.9459 83.456 41.3139 83.388 41.6979 83.388C42.1939 83.388 42.6299 83.484 43.0059 83.676C43.3819 83.86 43.6739 84.12 43.8819 84.456C44.0979 84.784 44.2059 85.168 44.2059 85.608V90H43.1139V88.776L43.3179 88.848C43.1819 89.104 42.9979 89.328 42.7659 89.52C42.5339 89.712 42.2619 89.864 41.9499 89.976C41.6379 90.088 41.2979 90.144 40.9299 90.144ZM45.9363 90V83.532H47.0283V84.792L46.8483 84.684C47.0083 84.276 47.2643 83.96 47.6163 83.736C47.9763 83.504 48.3963 83.388 48.8763 83.388C49.3403 83.388 49.7523 83.492 50.1123 83.7C50.4803 83.908 50.7683 84.196 50.9763 84.564C51.1923 84.932 51.3003 85.348 51.3003 85.812V90H50.1723V86.172C50.1723 85.812 50.1083 85.508 49.9803 85.26C49.8523 85.012 49.6683 84.82 49.4283 84.684C49.1963 84.54 48.9283 84.468 48.6243 84.468C48.3203 84.468 48.0483 84.54 47.8083 84.684C47.5763 84.82 47.3923 85.016 47.2563 85.272C47.1203 85.52 47.0523 85.82 47.0523 86.172V90H45.9363ZM55.8972 90.144C55.2652 90.144 54.7012 89.996 54.2052 89.7C53.7172 89.404 53.3332 89 53.0532 88.488C52.7732 87.976 52.6332 87.4 52.6332 86.76C52.6332 86.112 52.7732 85.536 53.0532 85.032C53.3332 84.528 53.7172 84.128 54.2052 83.832C54.7012 83.536 55.2652 83.388 55.8972 83.388C56.3212 83.388 56.7172 83.464 57.0852 83.616C57.4532 83.768 57.7772 83.972 58.0572 84.228C58.3372 84.484 58.5412 84.784 58.6692 85.128L57.6732 85.608C57.5212 85.272 57.2892 85 56.9772 84.792C56.6652 84.576 56.3052 84.468 55.8972 84.468C55.5052 84.468 55.1492 84.568 54.8292 84.768C54.5172 84.968 54.2692 85.24 54.0852 85.584C53.9012 85.928 53.8092 86.324 53.8092 86.772C53.8092 87.204 53.9012 87.596 54.0852 87.948C54.2692 88.292 54.5172 88.564 54.8292 88.764C55.1492 88.964 55.5052 89.064 55.8972 89.064C56.3052 89.064 56.6652 88.96 56.9772 88.752C57.2892 88.536 57.5212 88.252 57.6732 87.9L58.6692 88.404C58.5412 88.74 58.3372 89.04 58.0572 89.304C57.7772 89.56 57.4532 89.764 57.0852 89.916C56.7172 90.068 56.3212 90.144 55.8972 90.144ZM63.1037 90.144C62.4797 90.144 61.9237 89.996 61.4357 89.7C60.9477 89.404 60.5637 89 60.2837 88.488C60.0037 87.968 59.8637 87.388 59.8637 86.748C59.8637 86.1 59.9997 85.524 60.2717 85.02C60.5517 84.516 60.9277 84.12 61.3997 83.832C61.8797 83.536 62.4157 83.388 63.0077 83.388C63.4877 83.388 63.9117 83.476 64.2797 83.652C64.6557 83.82 64.9717 84.052 65.2277 84.348C65.4917 84.636 65.6917 84.968 65.8277 85.344C65.9717 85.712 66.0437 86.096 66.0437 86.496C66.0437 86.584 66.0357 86.684 66.0197 86.796C66.0117 86.9 65.9997 87 65.9837 87.096H60.6797V86.136H65.3357L64.8077 86.568C64.8797 86.152 64.8397 85.78 64.6877 85.452C64.5357 85.124 64.3117 84.864 64.0157 84.672C63.7197 84.48 63.3837 84.384 63.0077 84.384C62.6317 84.384 62.2877 84.48 61.9757 84.672C61.6637 84.864 61.4197 85.14 61.2437 85.5C61.0757 85.852 61.0077 86.272 61.0397 86.76C61.0077 87.232 61.0797 87.648 61.2557 88.008C61.4397 88.36 61.6957 88.636 62.0237 88.836C62.3597 89.028 62.7237 89.124 63.1157 89.124C63.5477 89.124 63.9117 89.024 64.2077 88.824C64.5037 88.624 64.7437 88.368 64.9277 88.056L65.8637 88.536C65.7357 88.832 65.5357 89.104 65.2637 89.352C64.9997 89.592 64.6837 89.784 64.3157 89.928C63.9557 90.072 63.5517 90.144 63.1037 90.144Z" fill="#0C192C"/>
<defs>
<filter id="filter0_d_157_1490" x="15" y="0" width="58" height="58" filterUnits="userSpaceOnUse" color-interpolation-filters="sRGB">
<feFlood flood-opacity="0" result="BackgroundImageFix"/>
<feColorMatrix in="SourceAlpha" type="matrix" values="0 0 0 0 0 0 0 0 0 0 0 0 0 0 0 0 0 0 127 0" result="hardAlpha"/>
<feOffset dy="2"/>
<feGaussianBlur stdDeviation="2.5"/>
<feComposite in2="hardAlpha" operator="out"/>
<feColorMatrix type="matrix" values="0 0 0 0 0 0 0 0 0 0 0 0 0 0 0 0 0 0 0.05 0"/>
<feBlend mode="normal" in2="BackgroundImageFix" result="effect1_dropShadow_157_1490"/>
<feBlend mode="normal" in="SourceGraphic" in2="effect1_dropShadow_157_1490" result="shape"/>
</filter>
<filter id="filter1_d_157_1490" x="15" y="0" width="58" height="58" filterUnits="userSpaceOnUse" color-interpolation-filters="sRGB">
<feFlood flood-opacity="0" result="BackgroundImageFix"/>
<feColorMatrix in="SourceAlpha" type="matrix" values="0 0 0 0 0 0 0 0 0 0 0 0 0 0 0 0 0 0 127 0" result="hardAlpha"/>
<feOffset dy="2"/>
<feGaussianBlur stdDeviation="2.5"/>
<feComposite in2="hardAlpha" operator="out"/>
<feColorMatrix type="matrix" values="0 0 0 0 0 0 0 0 0 0 0 0 0 0 0 0 0 0 0.05 0"/>
<feBlend mode="normal" in2="BackgroundImageFix" result="effect1_dropShadow_157_1490"/>
<feBlend mode="normal" in="SourceGraphic" in2="effect1_dropShadow_157_1490" result="shape"/>
</filter>
</defs>
</svg>
