<svg width="172" height="173" viewBox="0 0 172 173" fill="none" xmlns="http://www.w3.org/2000/svg">
<g clip-path="url(#clip0_291_31)">
<path d="M160.129 123.359C151.332 109.059 148.411 91.8896 152.697 75.6782C154.503 68.8519 154.691 61.3047 152.932 53.2276C149.055 35.4202 135.026 21.382 117.135 17.4398C98.9111 13.4242 81.9111 19.7317 70.9086 31.6141C64.181 38.8799 54.7564 43.0838 44.8234 43.032C44.672 43.0313 44.5203 43.0316 44.3682 43.033C27.2701 43.1855 13.328 57.1742 13.3224 74.1746C13.3207 79.0558 14.0986 83.6748 15.659 87.7881C19.9813 99.1805 18.6387 111.849 12.0185 122.093C9.30979 126.284 8 130.208 8 133.579C8 157.337 42.8183 161.231 85.8965 161.231C128.974 161.231 164 160.544 164 134.267C164 131.253 162.655 127.467 160.129 123.359Z" fill="#8DC1FF" fill-opacity="0.28"/>
<path d="M146.028 151.935C146.028 150.668 145.002 149.641 143.735 149.641C143.143 149.641 142.606 149.867 142.199 150.235C141.781 149.668 141.111 149.297 140.352 149.297C140.107 149.297 139.871 149.337 139.649 149.408C139.528 148.032 138.554 146.904 137.26 146.549C137.546 146.08 137.715 145.53 137.715 144.94C137.715 143.826 137.124 142.852 136.241 142.307C136.413 141.86 136.511 141.376 136.511 140.869C136.511 138.653 134.714 136.856 132.498 136.856C131.319 136.856 130.262 137.367 129.528 138.176C129.25 136.232 127.582 134.735 125.56 134.735C125.232 134.735 124.915 134.778 124.611 134.852C124.082 133.253 122.578 132.097 120.802 132.097C118.745 132.097 117.054 133.644 116.819 135.636C116.639 135.612 116.458 135.595 116.272 135.595C115.27 135.595 114.357 135.964 113.653 136.571C113.072 136.243 112.401 136.053 111.686 136.053C109.469 136.053 107.672 137.85 107.672 140.067C107.672 140.244 107.688 140.417 107.71 140.588C107.678 140.587 107.647 140.583 107.615 140.583C105.958 140.583 104.608 141.886 104.527 143.523C104.013 143.188 103.401 142.991 102.742 142.991C101.174 142.991 99.8657 144.095 99.5482 145.568C99.326 145.496 99.089 145.456 98.8427 145.456C97.7529 145.456 96.8426 146.217 96.6091 147.236C96.5891 147.236 96.5698 147.233 96.5495 147.233C95.2826 147.233 94.2561 148.26 94.2561 149.527C94.2561 150.346 94.6864 151.062 95.3314 151.468L94.4855 155.604C94.4855 155.604 143.104 155.719 143.563 155.604C143.774 155.551 143.985 154.887 144.152 154.188C145.219 153.992 146.028 153.059 146.028 151.935Z" fill="#1BB267"/>
<path d="M141.246 153.831C141.246 152.824 140.425 152.008 139.412 152.008C138.939 152.008 138.51 152.187 138.184 152.48C137.85 152.028 137.315 151.734 136.708 151.734C136.512 151.734 136.324 151.766 136.146 151.822C136.049 150.728 135.271 149.831 134.236 149.549C134.465 149.176 134.599 148.739 134.599 148.269C134.599 147.383 134.127 146.609 133.421 146.176C133.559 145.82 133.637 145.436 133.637 145.032C133.637 143.27 132.201 141.841 130.428 141.841C129.486 141.841 128.642 142.248 128.055 142.891C127.832 141.345 126.498 140.155 124.882 140.155C124.62 140.155 124.367 140.19 124.123 140.248C123.701 138.977 122.498 138.058 121.078 138.058C119.435 138.058 118.082 139.287 117.894 140.872C117.751 140.852 117.606 140.839 117.457 140.839C116.657 140.839 115.926 141.133 115.364 141.615C114.899 141.354 114.362 141.203 113.791 141.203C112.019 141.203 110.582 142.632 110.582 144.395C110.582 144.535 110.595 144.673 110.612 144.809C110.587 144.808 110.562 144.805 110.537 144.805C109.211 144.805 108.133 145.842 108.068 147.143C107.657 146.876 107.167 146.72 106.64 146.72C105.387 146.72 104.341 147.598 104.087 148.769C103.909 148.712 103.72 148.68 103.523 148.68C102.652 148.68 101.924 149.285 101.738 150.095C101.722 150.095 101.706 150.093 101.69 150.093C100.677 150.093 99.8567 150.909 99.8567 151.917C99.8567 152.568 100.201 153.137 100.716 153.46L100.04 156.749C100.04 156.749 138.909 156.84 139.275 156.749C139.444 156.707 139.613 156.179 139.746 155.623C140.599 155.467 141.246 154.725 141.246 153.831Z" fill="#12936E"/>
<path d="M159.791 85.1964C160.891 83.2762 161.535 80.9566 161.535 78.4581C161.535 74.3776 159.819 70.7756 157.198 68.6115C157.46 67.1137 157.602 65.532 157.602 63.8938C157.602 56.836 155.002 50.7967 151.317 48.2927C151.487 47.0653 151.58 45.7884 151.58 44.4743C151.58 35.175 147.068 27.6362 141.501 27.6362C137.018 27.6362 133.22 32.53 131.912 39.294C128.372 40.8248 125.759 44.6463 125.339 49.2518C122.498 51.3709 120.607 55.1256 120.607 59.4077C120.607 61.201 120.942 62.901 121.535 64.4284C118.828 66.577 117.043 70.2413 117.043 74.4023C117.043 78.046 118.413 81.3081 120.572 83.5056C116.546 87.5689 114.094 92.6086 114.094 97.2625C114.094 107.275 125.429 115.391 139.412 115.391C153.396 115.391 164.731 107.275 164.731 97.2625C164.73 93.235 162.894 88.9188 159.791 85.1964Z" fill="#1BB267"/>
<path d="M153.655 93.6168C154.397 92.2326 154.831 90.559 154.831 88.7575C154.831 85.8145 153.674 83.217 151.905 81.6563C152.082 80.5761 152.178 79.4358 152.178 78.2541C152.178 73.1646 150.423 68.8092 147.937 67.0036C148.051 66.1185 148.114 65.1979 148.114 64.2499C148.114 57.5439 145.069 52.1074 141.313 52.1074C138.288 52.1074 135.725 55.6365 134.843 60.5144C132.454 61.6179 130.691 64.3744 130.407 67.695C128.49 69.2231 127.215 71.931 127.215 75.0188C127.215 76.3122 127.44 77.5379 127.84 78.6394C126.013 80.1891 124.809 82.8314 124.809 85.8317C124.809 88.4592 125.734 90.8118 127.191 92.397C124.474 95.3268 122.819 98.9615 122.819 102.318C122.819 109.538 130.468 115.391 139.904 115.391C149.339 115.391 156.988 109.538 156.988 102.318C156.988 99.4139 155.749 96.301 153.655 93.6168Z" fill="#12936E"/>
<path d="M130.532 92.5611C130.58 92.5432 130.762 92.86 131.047 93.4448C131.188 93.7379 131.356 94.0977 131.579 94.5019C131.794 94.9089 132.023 95.3795 132.325 95.8721C132.892 96.8776 133.649 98.0283 134.632 99.1772C135.131 99.7431 135.676 100.321 136.307 100.837C136.931 101.352 137.63 101.85 138.39 102.183L138.489 102.223C138.489 102.223 138.485 102.224 138.502 102.22L138.813 102.157C139.022 102.114 139.229 102.072 139.435 102.03C139.839 101.908 140.243 101.807 140.63 101.67C141.402 101.395 142.135 101.088 142.808 100.741C144.163 100.059 145.315 99.3004 146.254 98.6272C148.13 97.2704 149.168 96.2649 149.245 96.3403C149.317 96.4046 148.402 97.5535 146.573 99.0444C145.657 99.7847 144.509 100.608 143.124 101.349C142.435 101.725 141.677 102.059 140.871 102.357C140.467 102.506 140.041 102.616 139.616 102.747C139.397 102.793 139.178 102.838 138.955 102.885L138.619 102.954L138.469 102.984C138.414 103.005 138.363 102.958 138.311 102.95L138.1 102.867C137.226 102.483 136.5 101.95 135.838 101.393C135.175 100.837 134.615 100.221 134.109 99.6186C133.114 98.3964 132.383 97.1807 131.864 96.1218C131.584 95.601 131.385 95.1063 131.202 94.6763C131.012 94.2491 130.882 93.8679 130.781 93.5549C130.574 92.9312 130.484 92.5793 130.532 92.5611Z" fill="#06404F"/>
<path d="M130.993 74.0945C131.124 74.0632 131.504 75.8664 132.661 78.5651C133.26 79.9036 134.063 81.4581 135.138 83.0663C135.686 83.8616 136.279 84.6869 136.963 85.485C137.303 85.8847 137.659 86.2817 138.034 86.6714C138.224 86.8627 138.415 87.0571 138.614 87.2421L138.692 87.3151L138.779 87.247C140.552 85.8998 142.069 84.3918 143.354 82.9397C144.637 81.485 145.69 80.0818 146.536 78.8771C148.223 76.4612 149.089 74.8464 149.183 74.8939C149.274 74.9349 148.568 76.6483 146.973 79.1681C146.174 80.4247 145.15 81.8809 143.871 83.3876C142.592 84.8912 141.055 86.4513 139.227 87.8393L138.979 88.033C138.872 88.1114 138.758 88.216 138.649 88.2686L138.344 87.9996L138.195 87.8668L138.105 87.7836C137.896 87.5879 137.698 87.3856 137.502 87.1857C137.116 86.7805 136.751 86.368 136.404 85.9532C135.709 85.1255 135.113 84.27 134.566 83.443C133.495 81.7736 132.723 80.1571 132.175 78.7663C131.654 77.3635 131.328 76.1984 131.163 75.3807C131.005 74.5606 130.943 74.1055 130.993 74.0945Z" fill="#06404F"/>
<path d="M133.881 52.3406C133.966 52.3055 134.196 53.8029 134.715 55.9901C135.236 58.1769 136.071 61.0466 137.104 63.7893C138.135 66.5316 138.764 67.8973 139.044 68.6149C139.332 69.3297 139.295 69.3882 139.227 69.424C139.163 69.4577 139.078 69.458 138.698 68.7797C138.327 68.0982 137.636 66.7439 136.597 63.9778C135.556 61.2124 134.762 58.3286 134.326 56.1191C133.891 53.9086 133.792 52.3853 133.881 52.3406Z" fill="#06404F"/>
<path d="M152.133 78.5193C152.179 78.5661 151.746 78.9782 150.974 79.4151C150.206 79.852 149.099 80.2816 147.97 80.5138C146.842 80.7447 146.246 80.7474 145.943 80.723C145.638 80.6931 145.62 80.6212 145.619 80.5475C145.618 80.4715 145.629 80.4082 145.917 80.3405C146.203 80.2679 146.77 80.206 147.858 79.9837C148.946 79.7591 150.006 79.3931 150.779 79.0556C151.553 78.7199 152.053 78.4306 152.133 78.5193Z" fill="#06404F"/>
<path d="M131.546 58.4242C131.604 58.3675 131.953 58.7101 132.499 59.1759C133.046 59.6396 133.799 60.2192 134.589 60.7139C135.377 61.21 135.799 61.4353 135.998 61.5856C136.199 61.7325 136.183 61.7958 136.155 61.8656C136.128 61.9341 136.087 61.995 135.836 61.9327C135.586 61.8663 135.117 61.6867 134.298 61.1714C133.478 60.6575 132.725 60.0214 132.225 59.4786C131.724 58.933 131.473 58.4958 131.546 58.4242Z" fill="#06404F"/>
<path d="M140.43 55.5652C139.417 69.3614 139.03 83.2046 138.93 97.0444C138.838 110.885 139 124.729 139.396 138.566C139.491 141.937 139.549 144.99 139.557 147.202C139.565 149.414 139.523 150.783 139.412 150.789C139.301 150.794 139.141 149.431 138.987 147.223C138.833 145.016 138.686 141.963 138.589 138.589C138.194 124.744 138.032 110.891 138.124 97.0389C138.223 83.1871 138.61 69.3304 139.626 55.5054C139.757 53.8219 139.869 52.2167 140.023 50.7616C140.189 49.3065 140.349 47.9979 140.495 46.9006C140.786 44.7052 141.022 43.3557 141.133 43.368C141.243 43.3811 141.208 44.7523 141.062 46.958C140.989 48.0609 140.888 49.3719 140.764 50.826C140.661 52.2831 140.548 53.8841 140.43 55.5652Z" fill="#06404F"/>
<path d="M139.043 36.6084C139.043 35.9975 139.539 35.5025 140.15 35.5025C140.76 35.5025 141.255 35.9975 141.255 36.6084C141.255 37.2194 140.76 37.7144 140.15 37.7144C139.539 37.7144 139.043 37.2194 139.043 36.6084Z" fill="#06404F"/>
<path d="M134.004 45.2119C134.004 44.6687 134.444 44.2284 134.987 44.2284C135.53 44.2284 135.97 44.6687 135.97 45.2119C135.97 45.7551 135.53 46.195 134.987 46.195C134.444 46.195 134.004 45.7551 134.004 45.2119Z" fill="#06404F"/>
<path d="M144.82 42.7536C144.82 42.3464 145.15 42.0161 145.557 42.0161C145.964 42.0161 146.295 42.3464 146.295 42.7536C146.295 43.1606 145.964 43.4912 145.557 43.4912C145.15 43.4908 144.82 43.1606 144.82 42.7536Z" fill="#06404F"/>
<path d="M146.295 58.1167C146.295 57.7098 146.625 57.3795 147.032 57.3795C147.439 57.3795 147.769 57.7098 147.769 58.1167C147.769 58.524 147.439 58.8542 147.032 58.8542C146.625 58.8546 146.295 58.524 146.295 58.1167Z" fill="#06404F"/>
<path d="M151.334 59.3458C151.334 59.0066 151.609 58.7311 151.948 58.7311C152.288 58.7311 152.563 59.0066 152.563 59.3458C152.563 59.685 152.288 59.9605 151.948 59.9605C151.609 59.9605 151.334 59.685 151.334 59.3458Z" fill="#06404F"/>
<path d="M149.982 65.3686C149.982 64.8254 150.422 64.3851 150.965 64.3851C151.508 64.3851 151.948 64.8254 151.948 65.3686C151.948 65.9117 151.509 66.3517 150.965 66.3517C150.422 66.3517 149.982 65.9114 149.982 65.3686Z" fill="#06404F"/>
<path d="M134.373 75.4467C134.373 75.0398 134.703 74.7092 135.111 74.7092C135.518 74.7092 135.848 75.0394 135.848 75.4467C135.848 75.8537 135.518 76.1839 135.111 76.1839C134.703 76.1839 134.373 75.8537 134.373 75.4467Z" fill="#06404F"/>
<path d="M156.373 94.1283C156.373 93.5174 156.868 93.022 157.479 93.022C158.09 93.022 158.585 93.5171 158.585 94.1283C158.585 94.7396 158.09 95.2346 157.479 95.2346C156.869 95.2346 156.373 94.7393 156.373 94.1283Z" fill="#06404F"/>
<path d="M151.211 102.363C151.211 102.024 151.486 101.749 151.825 101.749C152.165 101.749 152.44 102.024 152.44 102.363C152.44 102.703 152.165 102.978 151.825 102.978C151.486 102.978 151.211 102.703 151.211 102.363Z" fill="#06404F"/>
<path d="M155.882 102.978C155.882 102.367 156.377 101.871 156.988 101.871C157.599 101.871 158.094 102.366 158.094 102.978C158.094 103.589 157.599 104.084 156.988 104.084C156.377 104.084 155.882 103.589 155.882 102.978Z" fill="#06404F"/>
<path d="M132.898 108.017C132.898 107.677 133.173 107.402 133.512 107.402C133.852 107.402 134.127 107.677 134.127 108.017C134.127 108.356 133.852 108.631 133.512 108.631C133.173 108.631 132.898 108.356 132.898 108.017Z" fill="#06404F"/>
<path d="M157.144 142.751H131.236V147.254H157.144V142.751Z" fill="#E29F0A"/>
<path d="M154.362 142.751H152.189V147.254H154.362V142.751Z" fill="#FFD939"/>
<path d="M149.537 142.751H147.364V147.254H149.537V142.751Z" fill="#FFD939"/>
<path d="M159.057 147.087H133.149V151.591H159.057V147.087Z" fill="#C4810A"/>
<path d="M157.144 134.077H131.236V138.581H157.144V134.077Z" fill="#E29F0A"/>
<path d="M154.362 134.077H152.189V138.581H154.362V134.077Z" fill="#FFD939"/>
<path d="M149.537 134.077H147.364V138.581H149.537V134.077Z" fill="#FFD939"/>
<path d="M159.057 138.414H133.149V142.917H159.057V138.414Z" fill="#C4810A"/>
<path d="M157.144 125.404H131.236V129.907H157.144V125.404Z" fill="#E29F0A"/>
<path d="M154.362 125.404H152.189V129.907H154.362V125.404Z" fill="#FFD939"/>
<path d="M149.537 125.404H147.364V129.907H149.537V125.404Z" fill="#FFD939"/>
<path d="M159.057 129.74H133.149V134.244H159.057V129.74Z" fill="#C4810A"/>
<path d="M76.034 39.2177H18.2224V158.241H76.034V39.2177Z" fill="#47ABE3"/>
<path d="M76.1959 48.7348H17.5439V112.719H76.1959V48.7348Z" fill="#F0F1F2"/>
<path d="M76.1959 56.8188H71.0934H71.0931H61.4039H51.7145H42.3694H32.6803H22.9908H17.5439V64.8429C17.7961 64.8791 18.0534 64.9028 18.3179 64.9028C20.8986 64.9028 22.9908 63.0985 22.9908 60.8732C22.9908 63.0985 25.083 64.9028 27.6634 64.9028H28.0074C30.5877 64.9028 32.6793 63.0992 32.6803 60.8745C32.6813 63.0992 34.7728 64.9028 37.3528 64.9028H37.6968C40.2768 64.9028 42.3687 63.0992 42.3697 60.8745C42.3704 63.0992 44.4623 64.9028 47.0419 64.9028C49.6226 64.9028 51.7148 63.0985 51.7148 60.8732C51.7148 63.0985 53.8071 64.9028 56.3874 64.9028H56.7314C59.3117 64.9028 61.4033 63.0992 61.4043 60.8745C61.4053 63.0992 63.4968 64.9028 66.0768 64.9028H66.4208C69.0012 64.9028 71.0927 63.0992 71.0937 60.8745C71.0944 63.0992 73.1863 64.9028 75.7659 64.9028C75.9111 64.9028 76.0542 64.8952 76.1963 64.8839V56.8188H76.1959Z" fill="#C5CCD8"/>
<path d="M72.9006 36.6432H21.3556C18.4007 36.6432 15.9961 39.0443 15.9961 41.9993V155.457C15.9961 156.885 16.5568 158.182 17.4684 159.142C18.4454 160.174 19.8283 160.817 21.3556 160.817H72.9006C74.1424 160.817 75.2845 160.394 76.1927 159.681C77.4517 158.701 78.2601 157.17 78.2601 155.457V41.9993C78.2601 39.0443 75.8555 36.6432 72.9006 36.6432ZM74.8201 155.457C74.8201 156.163 74.4383 156.778 73.8707 157.112C73.5886 157.281 73.2549 157.377 72.9006 157.377H21.3556C20.2961 157.377 19.4361 156.517 19.4361 155.458V41.9993C19.4361 40.9432 20.2961 40.0832 21.3556 40.0832H72.9006C73.9601 40.0832 74.8201 40.9432 74.8201 41.9993V155.457Z" fill="#1F3644"/>
<path d="M73.2291 76.3408H66.6931V83.0509H73.2291V76.3408Z" fill="#C5CCD8"/>
<path d="M66.693 76.3408H60.071V83.0509H66.693V76.3408Z" fill="#F0F1F2"/>
<path d="M73.2291 83.0508H66.6931V89.6708H73.2291V83.0508Z" fill="#F0F1F2"/>
<path d="M66.693 83.0508H60.071V89.6708H66.693V83.0508Z" fill="#C5CCD8"/>
<path d="M57.6201 75.9968H36.8081V112.719H57.6201V75.9968Z" fill="#314251"/>
<path d="M57.6201 108.419H36.8081V112.719H57.6201V108.419Z" fill="#1F3644"/>
<path d="M80.4385 54.1528H71.093L69.373 48.3908H78.3745L80.4385 54.1528Z" fill="#C5CCD8"/>
<path d="M71.0933 54.1528H61.4038L60.3718 48.3908H69.3733L71.0933 54.1528Z" fill="#0E8C65"/>
<path d="M61.4041 54.1528H51.7146L51.3706 48.3908H60.3721L61.4041 54.1528Z" fill="#C5CCD8"/>
<path d="M51.7146 54.1528H42.3691L42.7131 48.3908H51.3706L51.7146 54.1528Z" fill="#0E8C65"/>
<path d="M42.3691 54.1528H32.6797L33.7117 48.3908H42.7131L42.3691 54.1528Z" fill="#C5CCD8"/>
<path d="M32.6802 54.1528H22.9907L24.7107 48.3908H33.7122L32.6802 54.1528Z" fill="#0E8C65"/>
<path d="M22.991 54.1528H13.6455L15.7095 48.3908H24.711L22.991 54.1528Z" fill="#C5CCD8"/>
<path d="M71.0933 54.0668V58.1212C71.0933 60.3465 73.1855 62.1508 75.7658 62.1508C78.3465 62.1508 80.4387 60.3465 80.4387 58.1212V54.0668H71.0933Z" fill="#F0F1F2"/>
<path d="M61.4041 54.0668V58.1212C61.4041 60.3465 63.4963 62.1508 66.0766 62.1508H66.4206C69.0013 62.1508 71.0935 60.3465 71.0935 58.1212V54.0668H61.4041Z" fill="#1BB267"/>
<path d="M51.7146 54.0668V58.1212C51.7146 60.3465 53.8068 62.1508 56.3872 62.1508H56.7312C59.3118 62.1508 61.404 60.3465 61.404 58.1212V54.0668H51.7146Z" fill="#F0F1F2"/>
<path d="M42.3691 54.0668V58.1212C42.3691 60.3465 44.4613 62.1508 47.0417 62.1508C49.6224 62.1508 51.7146 60.3465 51.7146 58.1212V54.0668H42.3691Z" fill="#1BB267"/>
<path d="M32.6802 54.0668V58.1212C32.6802 60.3465 34.7724 62.1508 37.3527 62.1508H37.6967C40.2774 62.1508 42.3696 60.3465 42.3696 58.1212V54.0668H32.6802Z" fill="#F0F1F2"/>
<path d="M22.991 54.0668V58.1212C22.991 60.3465 25.0832 62.1508 27.6635 62.1508H28.0075C30.5882 62.1508 32.6804 60.3465 32.6804 58.1212V54.0668H22.991Z" fill="#1BB267"/>
<path d="M13.6455 54.0668V58.1212C13.6455 60.3465 15.7377 62.1508 18.3181 62.1508C20.8987 62.1508 22.991 60.3465 22.991 58.1212V54.0668H13.6455Z" fill="#F0F1F2"/>
<path d="M34.357 76.3408H27.821V83.0509H34.357V76.3408Z" fill="#C5CCD8"/>
<path d="M27.821 76.3408H21.199V83.0509H27.821V76.3408Z" fill="#F0F1F2"/>
<path d="M34.357 83.0508H27.821V89.6708H34.357V83.0508Z" fill="#F0F1F2"/>
<path d="M27.821 83.0508H21.199V89.6708H27.821V83.0508Z" fill="#C5CCD8"/>
<path d="M34.357 75.9968H21.199V76.8998H34.357V75.9968Z" fill="#1F3644"/>
<path d="M34.357 82.6694H21.199V83.5724H34.357V82.6694Z" fill="#1F3644"/>
<path d="M34.357 88.8108H21.199V89.7138H34.357V88.8108Z" fill="#1F3644"/>
<path d="M34.6366 75.9968H33.7336V89.7138H34.6366V75.9968Z" fill="#1F3644"/>
<path d="M27.964 75.9968H27.061V89.7138H27.964V75.9968Z" fill="#1F3644"/>
<path d="M21.8227 75.9968H20.9197V89.7138H21.8227V75.9968Z" fill="#1F3644"/>
<path d="M73.272 75.9968H60.114V76.8998H73.272V75.9968Z" fill="#1F3644"/>
<path d="M73.272 82.6694H60.114V83.5724H73.272V82.6694Z" fill="#1F3644"/>
<path d="M73.272 88.8108H60.114V89.7138H73.272V88.8108Z" fill="#1F3644"/>
<path d="M73.5517 75.9968H72.6487V89.7138H73.5517V75.9968Z" fill="#1F3644"/>
<path d="M66.8791 75.9968H65.9761V89.7138H66.8791V75.9968Z" fill="#1F3644"/>
<path d="M60.7377 75.9968H59.8347V89.7138H60.7377V75.9968Z" fill="#1F3644"/>
<g filter="url(#filter0_d_291_31)">
<path d="M131.096 7.11972C132.016 7.11972 132.877 7.32061 133.622 7.66668C133.389 7.06537 133.257 6.41624 133.257 5.73477C133.257 2.69485 135.789 0.230774 138.913 0.230774C142.036 0.230774 144.569 2.69485 144.569 5.73477C144.569 5.7561 144.565 5.77571 144.565 5.79635C145.444 4.84278 146.739 4.23665 148.186 4.23665C150.833 4.23665 152.978 6.25318 152.978 8.73996C152.978 8.92985 152.961 9.11561 152.937 9.29896C153.331 9.19679 153.752 9.139 154.19 9.139C156.39 9.139 158.174 10.5387 158.174 12.2663C158.174 13.9932 156.39 15.3929 154.19 15.3929H131.096C128.282 15.3929 126 13.5408 126 11.2563C126 8.97182 128.282 7.11972 131.096 7.11972Z" fill="#EFF1F2"/>
</g>
<g filter="url(#filter1_d_291_31)">
<path d="M117.022 38.0298C115.983 38.0298 115.011 38.2775 114.17 38.7044C114.432 37.9624 114.582 37.1626 114.582 36.3233C114.582 32.5754 111.724 29.5372 108.198 29.5372C104.671 29.5372 101.813 32.5754 101.813 36.3233C101.813 36.3491 101.816 36.3735 101.816 36.3989C100.824 35.2231 99.3627 34.4763 97.7283 34.4763C94.7407 34.4763 92.3193 36.9617 92.3193 40.0278C92.3193 40.2614 92.3378 40.4905 92.3654 40.7168C91.9202 40.5902 91.4455 40.5197 90.9515 40.5197C88.4675 40.5197 86.4534 42.2456 86.4534 44.3742C86.4534 46.5033 88.4675 48.2291 90.9515 48.2291H117.022C120.198 48.2291 122.774 45.9456 122.774 43.1293C122.774 40.313 120.198 38.0298 117.022 38.0298Z" fill="#F9FBFC"/>
</g>
<g filter="url(#filter2_d_291_31)">
<path d="M53.108 15.4562C52.2398 15.4562 51.4276 15.6636 50.7245 16.02C50.9436 15.3998 51.0691 14.7314 51.0691 14.03C51.0691 10.8968 48.6797 8.35709 45.732 8.35709C42.7846 8.35709 40.3952 10.8968 40.3952 14.03C40.3952 14.0513 40.3979 14.0713 40.3983 14.0929C39.5689 13.1101 38.3473 12.4854 36.981 12.4854C34.4842 12.4854 32.4594 14.5632 32.4594 17.126C32.4594 17.3217 32.4753 17.513 32.498 17.7025C32.1261 17.5966 31.7288 17.5374 31.3153 17.5374C29.2392 17.5374 27.5564 18.9802 27.5564 20.7597C27.5564 22.5399 29.2392 23.9823 31.3153 23.9823H53.108C55.7634 23.9823 57.9165 22.0737 57.9165 19.7194C57.9165 17.3647 55.7634 15.4562 53.108 15.4562Z" fill="#EFF1F2"/>
</g>
<path d="M140.438 152.669C140.438 153.166 136.773 153.569 132.253 153.569C127.732 153.569 124.067 153.166 124.067 152.669C124.067 152.173 127.732 151.77 132.253 151.77C136.773 151.77 140.438 152.172 140.438 152.669Z" fill="#1F3644"/>
<path d="M117.132 136.799C117.132 128.344 123.986 121.491 132.44 121.491C140.895 121.491 147.748 128.344 147.748 136.799C147.748 145.253 140.895 152.107 132.44 152.107C123.986 152.107 117.132 145.253 117.132 136.799Z" fill="#FFD939"/>
<path d="M132.44 121.491C132.151 121.491 131.865 121.5 131.58 121.516C139.634 121.962 146.028 128.633 146.028 136.799C146.028 144.965 139.634 151.635 131.58 152.081C131.865 152.097 132.151 152.107 132.44 152.107C140.895 152.107 147.748 145.253 147.748 136.799C147.748 128.344 140.895 121.491 132.44 121.491Z" fill="#FFEB97"/>
<path d="M120.744 136.799C120.744 130.339 125.981 125.103 132.44 125.103C138.899 125.103 144.136 130.339 144.136 136.799C144.136 143.258 138.899 148.495 132.44 148.495C125.981 148.495 120.744 143.258 120.744 136.799Z" fill="#E29F0A"/>
<path d="M132.724 142.341C131.751 142.341 130.7 141.98 129.703 141.283C129.318 141.015 129.224 140.486 129.492 140.102C129.76 139.718 130.288 139.624 130.674 139.892C131.646 140.57 132.663 140.809 133.39 140.527C133.667 140.422 134.02 140.193 134.134 139.705C134.228 139.301 134.32 138.524 133.877 137.868C133.504 137.317 132.826 136.961 131.861 136.813C129.977 136.523 129.099 134.958 129.205 133.562C129.307 132.248 130.287 130.832 132.203 130.832C135.572 130.832 136.04 133.123 136.059 133.22C136.146 133.68 135.842 134.124 135.382 134.21C134.922 134.295 134.49 134.001 134.395 133.553C134.363 133.434 134.063 132.528 132.203 132.528C131.306 132.528 130.94 133.13 130.897 133.692C130.853 134.265 131.148 134.987 132.12 135.136C133.927 135.414 134.837 136.258 135.283 136.918C135.879 137.8 136.058 138.927 135.786 140.092C135.569 141.023 134.917 141.759 133.998 142.112C133.598 142.265 133.169 142.341 132.724 142.341Z" fill="#FFD939"/>
<path d="M132.795 132.332C132.438 132.332 132.149 131.987 132.149 131.561V129.199C132.149 128.773 132.438 128.429 132.795 128.429C133.151 128.429 133.44 128.773 133.44 129.199V131.561C133.44 131.987 133.151 132.332 132.795 132.332Z" fill="#FFD939"/>
<path d="M132.512 145.448C132.156 145.448 131.867 145.103 131.867 144.677V141.496C131.867 141.07 132.156 140.725 132.512 140.725C132.869 140.725 133.158 141.07 133.158 141.496V144.677C133.158 145.103 132.869 145.448 132.512 145.448Z" fill="#FFD939"/>
<path d="M144.875 164.244C144.875 165.81 134.94 167.079 122.686 167.079C110.431 167.079 100.497 165.81 100.497 164.244C100.497 162.679 110.431 161.41 122.686 161.41C134.94 161.41 144.875 162.679 144.875 164.244Z" fill="#DBDFE1"/>
<path d="M119.82 158.823C119.82 158.823 119.849 163.869 119.791 164.041C119.734 164.213 114.832 164.958 111.335 164.815C107.837 164.671 107.149 164.499 107.121 163.582C107.092 162.665 109.615 161.518 111.105 161.145C112.596 160.773 115.09 160.314 115.147 160.199C115.205 160.085 115.291 159.339 115.291 159.339L119.82 158.823Z" fill="#BC1B49"/>
<path d="M119.82 158.823L115.291 159.339C115.291 159.339 115.205 160.085 115.148 160.199C115.128 160.238 114.83 160.316 114.39 160.416C114.428 160.741 114.828 161.114 116.294 161.289C118.008 161.492 119.165 161.434 119.827 161.324C119.827 160.056 119.82 158.823 119.82 158.823Z" fill="#F2C3A2"/>
<path d="M119.791 164.041C119.806 163.997 119.815 163.633 119.82 163.118C117.872 163.558 113.9 164.112 109.815 163.811C108.504 163.714 107.665 163.58 107.141 163.431C107.128 163.482 107.119 163.532 107.121 163.582C107.149 164.499 107.837 164.671 111.335 164.815C114.832 164.958 119.734 164.213 119.791 164.041Z" fill="#F9FBFC"/>
<path d="M126.305 158.823C126.305 158.823 126.277 163.869 126.333 164.041C126.389 164.213 131.144 164.958 134.537 164.815C137.93 164.671 138.597 164.499 138.625 163.582C138.653 162.665 136.206 161.518 134.76 161.145C133.314 160.773 130.894 160.314 130.839 160.199C130.783 160.085 130.699 159.339 130.699 159.339L126.305 158.823Z" fill="#BC1B49"/>
<path d="M126.305 158.823L130.699 159.339C130.699 159.339 130.783 160.085 130.838 160.199C130.857 160.238 131.146 160.316 131.573 160.416C131.537 160.741 131.149 161.114 129.726 161.289C128.064 161.492 126.941 161.434 126.298 161.324C126.298 160.056 126.305 158.823 126.305 158.823Z" fill="#F2C3A2"/>
<path d="M126.333 164.041C126.319 163.997 126.311 163.633 126.305 163.118C128.196 163.558 132.048 164.112 136.011 163.811C137.283 163.714 138.097 163.58 138.605 163.431C138.618 163.482 138.627 163.532 138.625 163.582C138.598 164.499 137.93 164.671 134.537 164.815C131.144 164.958 126.389 164.213 126.333 164.041Z" fill="#F9FBFC"/>
<path d="M115.348 118.919H131L131.086 160.113C131.086 160.113 128.105 160.859 126.213 159.941L125.066 126.803H120.995L119.963 160.199C119.963 160.199 117.985 160.744 114.975 160.085V121.901L115.348 118.919Z" fill="#1F3644"/>
<path d="M130.398 74.7726C130.398 74.7726 129.337 70.1286 121.11 71.476C112.883 72.8231 110.274 80.2191 113.714 82.3406L113.456 87.128C113.456 87.128 111.564 88.2171 111.593 91.0551C111.621 93.8931 113.599 94.4091 113.599 94.4091C113.599 94.4091 112.768 98.6231 118.014 98.7091C118.014 98.7091 121.139 101.404 125.697 98.48C125.697 98.48 132.863 98.824 133.207 94.1222C133.207 94.1222 137.364 90.7111 133.695 86.784C133.695 86.784 134.125 81.5951 133.752 79.1011C133.379 76.6071 132.147 75.088 130.398 74.7726Z" fill="#1F3644"/>
<path d="M122.905 75.7984C122.732 75.8269 122.624 75.6481 122.738 75.5111C123.031 75.1572 123.187 74.8032 122.585 74.8692C122.282 74.9026 121.983 74.9694 121.691 75.0557C121.223 75.1947 120.723 75.3419 120.309 75.6088C120.219 75.6666 120.078 75.613 120.056 75.506C119.542 72.9807 116.543 75.443 115.585 76.3846C115.55 76.419 115.511 76.4313 115.473 76.432C115.419 76.6353 115.438 76.8314 115.564 77.0082C116.201 77.9033 118.054 76.6949 118.8 76.441C118.976 76.3815 119.073 76.6078 118.968 76.7282C118.748 76.9804 118.445 77.2876 118.374 77.6271C118.061 79.1173 119.582 78.4486 119.914 78.2229C120.227 78.0107 120.522 77.775 120.823 77.5476C120.928 77.4685 121.086 77.5755 121.082 77.6962C121.027 79.2133 124.562 77.3626 125.12 77.053C125.673 76.7465 126.618 76.2807 126.735 75.5793C126.982 74.097 123.411 75.7158 122.905 75.7984Z" fill="#314251"/>
<path d="M130.69 77.3818C130.618 77.4978 130.467 77.4871 130.393 77.3818C130.139 77.0206 129.604 76.0468 129.027 76.9804C128.945 77.1142 128.764 77.0767 128.713 76.9391C128.659 76.9498 128.606 76.9601 128.552 76.9708C128.575 77.2921 128.631 77.6113 128.703 77.9016C128.775 78.1951 128.848 78.5246 129.018 78.7799C129.317 79.2288 129.565 78.419 129.63 78.2236C129.688 78.0516 129.898 78.0691 129.962 78.2236C130.169 78.7258 130.35 79.2756 130.682 79.7128C131.511 80.8019 131.421 78.8194 131.459 78.3839C131.478 78.1637 131.789 78.161 131.803 78.3839C131.889 78.5483 131.975 78.7128 132.062 78.8772C132.316 77.9051 131.436 76.1833 130.69 77.3818Z" fill="#314251"/>
<path d="M129.194 96.674C129.939 96.76 131.229 97.0462 133.695 99.8842C136.16 102.722 139.915 107.481 140.689 109C141.463 110.52 141.377 111.982 139.887 113.214C138.396 114.447 132.777 117.83 132.777 117.83L132.29 113.759L136.59 110.52L128.735 100.945L129.194 96.674Z" fill="#BC1B49"/>
<path d="M117.785 104.185C117.785 104.185 113.055 112.269 112.08 113.329C111.106 114.39 109.644 114.763 106.318 112.355C102.993 109.947 99.553 106.421 99.553 106.421L101.56 103.497C101.56 103.497 108.898 108.8 109.386 108.886C109.386 108.886 115.033 97.19 116.868 97.018C118.702 96.846 117.785 104.185 117.785 104.185Z" fill="#BC1B49"/>
<path d="M126.586 96.588C126.586 96.588 123.002 96.5591 119.734 96.6451L116.868 97.018L115.979 121.556H130.226L129.481 97.3902L126.586 96.588Z" fill="#F9FBFC"/>
<path d="M131.373 101.318C131.373 101.318 131.143 109.087 131.143 110.147C131.143 111.208 131.688 124.624 131.688 124.624H125.983L126.585 96.5877C126.585 96.5877 128.047 96.6162 129.194 96.6737C130.341 96.7311 131.344 98.5946 131.373 101.318Z" fill="#ED3252"/>
<path d="M119.734 96.6451L119.677 124.653L114.201 124.624C114.201 124.624 115.233 110.663 115.061 109.775C114.889 108.886 114.287 105.905 114.402 105.389C114.517 104.873 115.721 101.691 115.835 100.917C115.95 100.143 116.609 97.2471 116.867 97.0177C117.125 96.7886 118.645 96.6737 119.734 96.6451Z" fill="#ED3252"/>
<path d="M125.477 96.5832C124.361 96.5818 122.547 96.5866 120.711 96.6224C120.756 97.4797 121.078 99.37 123.002 100.113C123.002 100.113 125.145 98.8316 125.477 96.5832Z" fill="#E2A491"/>
<path d="M124.55 94.7246H121.77V97.4191H124.55V94.7246Z" fill="#E2A491"/>
<path d="M116.007 81.2511C116.007 81.2511 115.362 87.6151 115.491 90.6681C115.62 93.7211 117.813 95.6561 121.855 95.6131C125.897 95.5701 128.606 94.4521 129.552 88.9051C129.552 88.9051 128.907 85.7231 129.681 82.0251C129.681 82.0251 126.8 80.2621 127.187 77.4671C127.187 77.4671 121.468 81.8531 116.007 81.2511Z" fill="#F2C3A2"/>
<path d="M120.873 81.4496C122.34 81.1094 123.628 80.5146 124.991 79.9099C125.89 79.5115 126.34 79.635 126.819 80.5081C127.359 81.4923 128.473 82.2339 129.62 82.3557C129.641 82.2453 129.658 82.1362 129.682 82.0251C129.682 82.0251 126.801 80.2621 127.188 77.4671C127.188 77.4671 121.469 81.8531 116.008 81.2511C116.008 81.2511 115.982 81.5067 115.942 81.9357C117.594 81.9192 119.26 81.8239 120.873 81.4496Z" fill="#E2A491"/>
<path d="M128.994 85.6801C128.994 85.6801 129.338 83.7021 131.101 83.5731C132.864 83.4441 133.294 86.7551 131.746 88.1741C130.198 89.5931 128.951 88.5611 128.951 88.5611C128.951 88.5611 128.349 87.7871 128.994 85.6801Z" fill="#F2C3A2"/>
<path d="M131.509 84.9168C131.512 84.9354 131.401 84.9416 131.221 84.9959C131.043 85.0496 130.789 85.159 130.582 85.3932C130.372 85.6223 130.231 85.9787 130.19 86.3671C130.169 86.5608 130.177 86.7658 130.23 86.9471C130.257 87.0341 130.302 87.116 130.35 87.1459C130.38 87.1731 130.482 87.1734 130.557 87.15C130.71 87.1008 130.788 86.9591 130.803 86.8263C130.82 86.698 130.786 86.5525 130.744 86.482C130.654 86.3313 130.48 86.3217 130.383 86.3124C130.174 86.3072 130.154 86.299 130.144 86.2604C130.136 86.2326 130.131 86.1782 130.376 86.1339C130.438 86.1266 130.517 86.1204 130.619 86.1414C130.718 86.1614 130.853 86.2219 130.942 86.3588C131.027 86.5002 131.064 86.6512 131.049 86.8549C131.035 87.0468 130.907 87.3038 130.634 87.3908C130.569 87.4101 130.5 87.4214 130.435 87.4194C130.38 87.4225 130.271 87.4046 130.212 87.3564C130.079 87.2632 130.03 87.1346 129.992 87.0203C129.928 86.7868 129.927 86.5594 129.954 86.3444C130.008 85.9168 130.18 85.525 130.435 85.2718C130.688 85.0159 130.984 84.9178 131.183 84.8896C131.386 84.8614 131.506 84.8924 131.509 84.9168Z" fill="#2D1916"/>
<path d="M126.79 82.9605C126.75 82.9959 126.525 82.7954 126.209 82.5879C126.055 82.4858 125.866 82.385 125.703 82.3595C125.572 82.3382 125.402 82.4269 125.27 82.5257C125.004 82.7324 124.88 82.8889 124.792 82.944C124.706 83.0052 124.662 82.9883 124.618 82.9605C124.574 82.933 124.539 82.8965 124.575 82.7868C124.618 82.6812 124.71 82.483 125.045 82.2209C125.212 82.1025 125.458 81.9539 125.769 82.0169C126.035 82.0878 126.223 82.2388 126.375 82.3777C126.675 82.6612 126.828 82.9281 126.79 82.9605Z" fill="#2D1916"/>
<path d="M117.437 83.0358C117.398 83.0066 117.532 82.7289 117.834 82.4427C117.987 82.3058 118.185 82.1497 118.467 82.1122C118.764 82.0867 118.995 82.2222 119.162 82.3351C119.495 82.5779 119.605 82.7589 119.656 82.8597C119.702 82.9642 119.671 83.0038 119.63 83.0358C119.589 83.0681 119.548 83.0898 119.455 83.0368C119.362 82.989 119.224 82.8473 118.946 82.646C118.808 82.5483 118.638 82.4568 118.494 82.4596C118.338 82.461 118.151 82.5549 117.999 82.6533C117.69 82.8562 117.479 83.0699 117.437 83.0358Z" fill="#2D1916"/>
<path d="M117.05 87.5398C117.016 87.5061 117.113 87.3516 117.268 87.1944C117.422 87.0369 117.575 86.9364 117.609 86.9701C117.644 87.0035 117.546 87.1583 117.391 87.3155C117.237 87.4731 117.085 87.5735 117.05 87.5398Z" fill="#E2A491"/>
<path d="M117.71 87.5687C117.675 87.535 117.773 87.3805 117.927 87.223C118.081 87.0658 118.234 86.9653 118.269 86.999C118.303 87.0324 118.205 87.1872 118.051 87.3444C117.896 87.502 117.744 87.6021 117.71 87.5687Z" fill="#E2A491"/>
<path d="M126.338 87.2963C126.304 87.2629 126.401 87.1081 126.556 86.9509C126.71 86.7933 126.863 86.6932 126.897 86.7266C126.932 86.76 126.834 86.9148 126.679 87.0723C126.525 87.2295 126.373 87.33 126.338 87.2963Z" fill="#E2A491"/>
<path d="M126.998 87.3248C126.963 87.2911 127.061 87.1366 127.215 86.9794C127.369 86.8219 127.523 86.7214 127.557 86.7551C127.591 86.7885 127.493 86.9433 127.339 87.1005C127.184 87.2581 127.032 87.3585 126.998 87.3248Z" fill="#E2A491"/>
<path d="M121.884 89.192C121.864 89.2216 121.733 89.1741 121.541 89.0616C121.446 89.0049 121.335 88.9326 121.218 88.8391C121.16 88.7906 121.099 88.741 121.039 88.6736C121.008 88.6365 120.98 88.6117 120.949 88.5425C120.914 88.4693 120.921 88.3785 120.962 88.3145C121.078 88.1359 121.195 88.0458 121.306 87.9426C121.417 87.8459 121.521 87.7661 121.612 87.7025C121.793 87.5763 121.919 87.5157 121.941 87.5436C121.964 87.5714 121.88 87.6812 121.733 87.8411C121.653 87.9247 121.566 88.0166 121.471 88.116C121.379 88.2147 121.255 88.3379 121.19 88.4404C121.185 88.4466 121.187 88.4431 121.187 88.4431C121.187 88.4483 121.213 88.4854 121.232 88.5075C121.274 88.5597 121.328 88.6107 121.376 88.6588C121.476 88.751 121.568 88.8367 121.651 88.9141C121.81 89.0613 121.904 89.1621 121.884 89.192Z" fill="#2D1916"/>
<path d="M120.199 91.17H124.176C124.374 91.17 124.523 91.3462 124.492 91.5416C124.393 92.1504 123.974 93.2905 122.227 93.2481C120.105 93.1972 119.842 92.3018 119.881 91.4679C119.889 91.2997 120.032 91.17 120.199 91.17Z" fill="#7A0F2B"/>
<path d="M124.212 92.3259C123.861 92.0259 123.257 91.7459 122.257 91.8721C121.266 91.9967 120.727 92.4225 120.439 92.8119C120.791 93.0589 121.348 93.2268 122.228 93.2481C123.346 93.275 123.918 92.8185 124.212 92.3259Z" fill="#ED3252"/>
<path d="M117.986 84.9323C118.021 84.3633 118.152 83.9085 118.478 83.9285C118.804 83.9481 118.879 84.4156 118.845 84.9846C118.81 85.5535 118.678 86.0083 118.353 85.9884C118.027 85.9687 117.952 85.5013 117.986 84.9323Z" fill="#2D1916"/>
<path d="M117.746 83.9123C117.813 83.8924 117.952 84.1414 118.163 84.277C118.374 84.4094 118.375 84.4331 118.356 84.5095C118.347 84.5676 118.299 84.6595 118.017 84.4827C117.881 84.3877 117.777 84.2488 117.735 84.1328C117.692 84.0155 117.701 83.9288 117.746 83.9123Z" fill="#2D1916"/>
<path d="M126.083 84.9364C126.116 84.3674 126.039 83.9003 125.714 83.8814C125.388 83.8624 125.258 84.3179 125.225 84.8869C125.192 85.4559 125.269 85.9234 125.595 85.9419C125.921 85.9608 126.051 85.5054 126.083 84.9364Z" fill="#2D1916"/>
<path d="M126.441 83.9522C126.472 83.965 126.471 84.0503 126.419 84.1638C126.367 84.2752 126.253 84.4084 126.106 84.4868C125.805 84.6289 125.768 84.5322 125.766 84.473C125.757 84.3953 125.76 84.3719 125.985 84.2649C126.213 84.1511 126.347 83.9151 126.441 83.9522Z" fill="#2D1916"/>
<path d="M133.552 115.279C133.523 113.358 133.093 112.154 131.631 112.154C130.169 112.154 128.85 111.896 128.592 112.527C128.334 113.157 128.85 113.587 129.28 113.587C129.71 113.587 131.23 114.304 131.029 115.823C130.828 117.343 131 118.66 131.688 118.604C132.907 118.504 133.603 118.72 133.552 115.279Z" fill="#F2C3A2"/>
<path d="M131.588 113.645C131.588 113.645 130.312 113.544 129.237 113.587C128.162 113.63 128.219 115.178 129.165 115.193C130.111 115.207 131.702 115.307 131.702 115.307L131.588 113.645Z" fill="#F2C3A2"/>
<path d="M101.559 104.815C101.559 104.815 102.462 104.751 102.398 103.138C102.333 101.525 101.989 99.6981 100.549 99.5475C99.1088 99.3968 97.8828 99.6765 97.7968 100.343C97.7108 101.01 97.6468 103.138 98.2488 104.106C98.8508 105.073 100.484 105.374 101.559 104.815Z" fill="#F2C3A2"/>
<path d="M131.76 115.25C131.76 115.25 130.484 115.144 129.409 115.189C128.334 115.235 128.391 116.866 129.337 116.881C130.283 116.896 131.874 117.002 131.874 117.002L131.76 115.25Z" fill="#F2C3A2"/>
<path d="M131.917 116.99C131.917 116.99 130.642 116.897 129.567 116.937C128.492 116.976 128.549 118.399 129.495 118.413C130.441 118.426 132.032 118.518 132.032 118.518L131.917 116.99Z" fill="#F2C3A2"/>
<path d="M100.151 100.434L102.19 96.5591C100.929 94.7531 97.718 95.298 97.718 95.298H95.9409C92.8734 94.7531 91.9849 96.416 91.9849 96.416L93.1129 99.2416C93.9182 101.258 93.5298 103.59 92.0248 105.155C89.5979 107.679 88 111.722 88 115.25C88 120.87 92.0558 123.047 97.0589 123.047C102.062 123.047 106.117 120.87 106.117 115.25C106.117 111.205 103.939 106.22 100.843 103.382C99.6465 102.285 99.4814 101.708 100.151 100.434Z" fill="#E9ECF2"/>
<path d="M100.843 103.382C99.6464 102.285 99.4813 101.708 100.151 100.434L102.19 96.5591C100.929 94.7531 97.718 95.298 97.718 95.298H95.9409C92.8734 94.7531 91.9849 96.416 91.9849 96.416L93.1128 99.2416C93.6282 100.532 93.6522 101.951 93.2102 103.217C93.8497 103.459 94.5539 103.587 95.0853 103.671C96.5525 103.901 98.1108 103.814 99.502 104.401C102.178 105.531 103.427 108.882 103.967 111.537C104.494 114.131 104.564 117.078 103.381 119.514C102.581 121.16 101.293 122.247 99.7324 122.813C103.43 122.118 106.117 119.824 106.117 115.25C106.117 111.205 103.939 106.22 100.843 103.382Z" fill="#CED2D8"/>
<path d="M96.1129 101.863C96.1129 101.863 93.8769 94.4666 93.9629 94.2946C94.0489 94.1226 97.976 93.6066 99.5529 94.1226C99.5529 94.1226 98.6069 101.433 98.406 101.834C98.2054 102.235 96.1129 101.863 96.1129 101.863Z" fill="#E9ECF2"/>
<path d="M97.1591 102.622C95.1722 102.622 93.6507 102.346 93.5616 102.336C93.2561 102.301 93.1656 102.091 93.2093 101.852C93.253 101.612 93.3135 101.413 93.619 101.447C93.6476 101.45 96.7353 101.798 99.5523 101.569C99.8626 101.542 99.9225 101.607 99.9541 101.848C99.9861 102.088 100.098 102.392 99.897 102.435C99.1089 102.605 97.8994 102.622 97.1591 102.622Z" fill="#84133E"/>
<path d="M97.188 101.734C95.2007 101.734 93.5502 101.486 93.4611 101.476C93.1556 101.441 93.1367 101.231 93.1804 100.992C93.2241 100.752 93.2564 100.51 93.5615 100.544C93.5901 100.547 96.9076 100.959 99.725 100.73C100.035 100.703 100.024 100.881 99.9685 101.117C99.9111 101.361 99.9462 101.555 99.639 101.58C98.8357 101.645 97.9283 101.734 97.188 101.734Z" fill="#BC1B49"/>
<path d="M102.398 103.138C102.334 101.526 101.99 99.6981 100.549 99.5475C99.1082 99.3968 97.821 99.6713 97.7972 100.343C97.7752 100.945 98.7642 101.44 100.205 101.332C100.205 101.332 99.9042 103.418 102.398 103.138Z" fill="#F2C3A2"/>
<path d="M92.8304 103.375C92.1854 103.074 91.7984 103.074 91.6474 103.633C91.4974 104.192 92.3144 104.88 93.0664 104.794C93.8194 104.708 93.7334 103.762 93.4754 103.611C93.2174 103.46 92.8304 103.375 92.8304 103.375Z" fill="#F2C3A2"/>
<path d="M93.2093 101.852C93.1532 101.88 92.1535 101.708 91.9598 102.364C91.7662 103.02 92.5519 103.605 93.1962 103.643C94.1098 103.697 94.3358 102.934 93.9272 102.504C93.5185 102.074 93.2093 101.852 93.2093 101.852Z" fill="#F2C3A2"/>
<path d="M93.4324 100.601C93.4324 100.601 92.5074 100.243 92.1961 100.947C91.8844 101.651 92.9484 102.315 93.5614 102.416C94.1741 102.516 94.5721 102.215 94.5828 101.681C94.5934 101.148 94.0668 100.812 93.4324 100.601Z" fill="#F2C3A2"/>
<path d="M93.8329 99.3125C92.7651 98.8973 92.5082 99.2905 92.4971 99.8639C92.4861 100.438 93.6784 101.266 94.5061 100.979C95.3338 100.692 95.0249 99.7762 93.8329 99.3125Z" fill="#F2C3A2"/>
<path d="M93.0168 113.071C93.0168 110.459 94.9484 108.341 97.331 108.341C99.7138 108.341 101.645 110.459 101.645 113.071C101.645 115.683 99.7138 117.801 97.331 117.801C94.9484 117.801 93.0168 115.683 93.0168 113.071Z" fill="#CED2D8"/>
<path d="M97.5996 114.986C97.2054 114.986 96.7792 114.84 96.3743 114.557C96.2185 114.449 96.1806 114.234 96.289 114.078C96.3973 113.923 96.6117 113.884 96.7682 113.993C97.1624 114.268 97.5749 114.365 97.8697 114.25C97.9818 114.208 98.1253 114.115 98.1714 113.917C98.2095 113.753 98.247 113.438 98.0671 113.172C97.9161 112.949 97.6412 112.805 97.2498 112.744C96.4854 112.627 96.1294 111.992 96.1727 111.426C96.2137 110.893 96.6113 110.319 97.3881 110.319C98.7544 110.319 98.944 111.248 98.9515 111.287C98.987 111.474 98.8638 111.654 98.677 111.689C98.4906 111.723 98.3155 111.604 98.277 111.422C98.2642 111.374 98.1421 111.007 97.3881 111.007C97.0241 111.007 96.8762 111.251 96.8586 111.479C96.8408 111.711 96.9601 112.003 97.3544 112.064C98.0871 112.177 98.4562 112.519 98.6371 112.787C98.879 113.144 98.9512 113.601 98.8411 114.074C98.7534 114.451 98.4889 114.75 98.1163 114.893C97.9543 114.956 97.7802 114.986 97.5996 114.986Z" fill="#2D1916"/>
<path d="M97.6282 110.928C97.4838 110.928 97.3665 110.788 97.3665 110.615V109.657C97.3665 109.485 97.4838 109.345 97.6282 109.345C97.7731 109.345 97.89 109.485 97.89 109.657V110.615C97.89 110.788 97.7731 110.928 97.6282 110.928Z" fill="#2D1916"/>
<path d="M97.514 116.246C97.3692 116.246 97.2522 116.106 97.2522 115.933V114.643C97.2522 114.471 97.3692 114.331 97.514 114.331C97.6585 114.331 97.7758 114.471 97.7758 114.643V115.933C97.7758 116.106 97.6585 116.246 97.514 116.246Z" fill="#2D1916"/>
<path d="M76 164.231C76 165.335 67.7173 166.231 57.5 166.231C47.2827 166.231 39 165.335 39 164.231C39 163.126 47.2827 162.231 57.5 162.231C67.7173 162.231 76 163.126 76 164.231Z" fill="#1F3644" fill-opacity="0.16"/>
<path d="M39.7895 128.428H12.9575V155.031H39.7895V128.428Z" fill="#D18654"/>
<path d="M29.5265 128.428H23.22V132.556H29.5265V128.428Z" fill="#A35824"/>
<path d="M62.092 133.416H35.948V156.407H62.092V133.416Z" fill="#E0B882"/>
<path d="M52.0926 133.416H45.9478V138.519H52.0926V133.416Z" fill="#A35824"/>
<path d="M90.6441 137.315H68.1121V155.375H90.6441V137.315Z" fill="#E8A070"/>
<path d="M82.0262 137.315H76.73V141.323H82.0262V137.315Z" fill="#A35824"/>
<path d="M60.5017 156.505C60.5017 156.505 60.3713 162.68 60.3713 162.898C60.3713 163.115 64.8502 164.245 68.9813 164.202C73.1128 164.159 73.1128 163.593 73.0257 162.506C72.9387 161.419 71.2861 160.462 69.3294 159.94C67.3724 159.418 65.0676 158.81 65.0243 158.592C64.9809 158.375 64.6328 156.505 64.6328 156.505H60.5017Z" fill="#0E8C65"/>
<path d="M67.1988 160.962L65.8723 160.658C65.9126 160.034 66.121 159.504 66.3329 159.114C66.7901 159.251 67.3285 159.402 67.8926 159.555C67.3632 160.055 67.1988 160.962 67.1988 160.962Z" fill="#CED2D8"/>
<path d="M67.1987 160.962L66.4443 160.789C66.4485 160.237 66.7333 159.721 67.0494 159.322C67.3188 159.398 67.6019 159.476 67.8926 159.555C67.3632 160.055 67.1987 160.962 67.1987 160.962Z" fill="#E9ECF2"/>
<path d="M60.3713 162.898C60.3713 162.843 60.3796 162.42 60.3916 161.815C61.6421 162.426 64.189 163.172 68.6772 163.245C71.0419 163.284 72.3405 163.012 73.036 162.645C73.1048 163.641 72.9322 164.16 68.9817 164.202C64.8506 164.245 60.3713 163.115 60.3713 162.898Z" fill="#E9ECF2"/>
<path d="M53.4044 156.591C53.4044 156.591 53.5334 162.697 53.5334 162.912C53.5334 163.127 49.1044 164.245 45.0194 164.202C40.9344 164.159 40.9344 163.6 41.0204 162.525C41.1064 161.45 42.7404 160.504 44.6754 159.988C46.6104 159.472 48.8894 158.87 48.9324 158.655C48.9754 158.44 49.3194 156.591 49.3194 156.591H53.4044Z" fill="#0E8C65"/>
<path d="M48.4595 118.063L48.5025 158.741C48.5025 158.741 50.9105 159.687 53.6625 158.741L54.6515 124.384H59.4245L60.2845 158.698C60.2845 158.698 62.0045 159.558 65.5305 158.698L65.4875 117.719L48.4595 118.063Z" fill="#1B2C35"/>
<path d="M63.667 92.6071C64.699 92.6071 67.3075 94.2411 67.5944 97.1651C67.881 100.089 68.5115 106.654 68.5115 106.654L64.8995 106.74L63.667 92.6071Z" fill="#0E8C65"/>
<path d="M64.8996 106.74L68.5116 106.654C68.5116 106.654 68.4689 106.211 68.4015 105.507H64.7922L64.8996 106.74Z" fill="#2D1916"/>
<path d="M65.8169 97.7096C65.8169 97.7096 66.0749 119.181 66.0174 119.64C65.9603 120.099 47.6709 120.213 47.7854 119.669C47.9003 119.124 47.9003 95.6171 47.8714 94.4991C47.8429 93.3811 48.7603 92.4636 50.3083 92.4636C51.8563 92.4636 62.8069 92.4922 63.6669 92.6071C64.5269 92.7216 65.8169 94.2696 65.8169 97.7096Z" fill="#E9ECF2"/>
<path d="M61.5879 112.553C58.6206 113.015 54.9938 112.987 52.6886 110.746C51.3426 109.437 50.9335 107.76 50.9831 105.921C51.0464 103.583 51.4045 101.266 51.4045 98.9236C51.4045 96.9618 51.4285 94.7677 50.4285 93.0168C50.3625 92.9008 50.2466 92.7051 50.0969 92.4712C48.6783 92.5517 47.8448 93.4334 47.8719 94.4991C47.9008 95.6171 47.9008 119.124 47.7859 119.669C47.6714 120.213 65.9608 120.099 66.0179 119.64C66.0413 119.452 66.0121 115.741 65.9691 111.424C64.5343 111.94 63.0558 112.324 61.5879 112.553Z" fill="#CED2D8"/>
<path d="M54.9095 95.8107L56.2211 93.8111L57.3605 93.7894L58.9301 95.8964C58.9301 95.8964 60.2201 95.0577 60.3921 93.1657C60.5638 91.2737 60.2201 89.7691 56.9948 89.5321C53.7698 89.2957 53.1681 91.1447 52.9101 92.6711C52.6521 94.1974 53.9418 95.6171 54.9095 95.8107Z" fill="#0E8C65"/>
<path d="M54.4794 92.3491H59.0591C59.0591 92.3491 58.4571 94.1668 57.3821 94.3935C56.9012 94.4956 56.5689 94.4582 56.0917 94.2906C55.2943 94.0103 54.4581 93.1138 54.4794 92.3491Z" fill="#E2A491"/>
<path d="M58.0267 88.9734H55.3394V93.0371H58.0267V88.9734Z" fill="#E2A491"/>
<path d="M55.6833 93.6391L56.8175 95.8537L58.0697 93.7037L55.6833 93.6391Z" fill="#E2A491"/>
<path d="M63.9824 75.3211C63.9824 75.3211 64.3264 84.3081 64.0684 86.8021C63.8104 89.2961 61.4884 91.7471 56.9734 91.3601C52.4584 90.9731 50.3944 88.4791 50.1364 84.3941C49.8784 80.3091 49.5344 74.4611 49.5344 74.4611C49.5344 74.4611 59.7254 72.0531 63.9824 75.3211Z" fill="#F2C3A2"/>
<path d="M50.4178 79.1615C50.7498 78.384 51.2778 77.5609 51.7756 76.877C51.993 76.578 52.1997 76.395 52.574 76.3428C53.4743 76.2165 54.4512 76.3245 55.358 76.3245H64.0175C63.9969 75.7029 63.9824 75.3211 63.9824 75.3211C59.7254 72.0531 49.5344 74.4611 49.5344 74.4611C49.5344 74.4611 49.7026 77.3214 49.8922 80.4388C50.3081 80.6789 50.2974 79.4439 50.4178 79.1615Z" fill="#E2A491"/>
<path d="M49.133 83.2331C49.133 83.2331 45.607 80.8251 45.607 80.3665C45.607 79.9076 46.381 79.3631 46.209 79.0191C46.037 78.6751 45.2916 78.3311 45.4636 77.9296C45.6356 77.5285 47.0116 75.6651 47.0116 75.6651L49.7636 74.0596C49.7636 74.0596 52.0285 73.9736 51.541 75.9516C51.0536 77.9296 50.1365 78.3025 50.1365 78.3025C50.1365 78.3025 50.7956 81.9431 49.133 83.2331Z" fill="#2D1916"/>
<path d="M55.4394 66.234C50.8694 66.3183 48.416 68.9285 47.2409 70.964C46.0654 72.9994 46.6389 76.21 46.6389 76.21C46.6389 76.21 54.436 73.7445 63.982 75.3214C63.982 75.3214 66.3329 66.0334 55.4394 66.234Z" fill="#1BB267"/>
<path d="M51.0249 68.7565C51.3507 67.8357 51.8728 67.1748 52.4738 66.7001C49.7552 67.5546 48.1305 69.4229 47.2409 70.964C46.0654 72.9991 46.6389 76.21 46.6389 76.21C46.6389 76.21 48.1016 75.7483 50.5326 75.352C50.3221 74.1243 50.0617 71.4796 51.0249 68.7565Z" fill="#0E8C65"/>
<path d="M63.9824 75.3211C63.9824 75.3211 56.777 74.2935 50.5327 75.352C50.5327 75.352 54.207 72.0816 60.8579 71.7665C67.5084 71.4511 68.225 72.8271 67.4799 74.4325C66.7344 76.0376 64.011 76.5536 64.011 76.5536L63.9824 75.3211Z" fill="#0E8C65"/>
<path d="M50.4229 82.5165C50.3654 81.4845 50.2509 79.2485 48.1009 79.478C45.9509 79.7071 46.4094 83.3765 47.9574 84.552C49.5054 85.7271 50.4803 84.2365 50.4803 84.2365L50.4229 82.5165Z" fill="#F2C3A2"/>
<path d="M53.3469 78.2165C53.3159 78.1759 53.5165 77.9578 53.8433 77.7363C54.0105 77.6297 54.2004 77.5124 54.4467 77.4563C54.7126 77.3964 54.9668 77.4811 55.146 77.5729C55.5082 77.77 55.628 77.9458 55.6851 78.0408C55.737 78.1412 55.7078 78.1825 55.6689 78.2165C55.629 78.2513 55.5894 78.275 55.4972 78.231C55.4033 78.1931 55.2609 78.0648 54.974 77.9097C54.8309 77.8364 54.6627 77.7772 54.5072 77.7996C54.3352 77.8199 54.1395 77.9004 53.9719 77.9709C53.6338 78.1199 53.3785 78.2592 53.3469 78.2165Z" fill="#2D1916"/>
<path d="M62.6924 78.274C62.6525 78.3108 62.4389 78.1137 62.1286 77.9534C61.9741 77.8742 61.798 77.8185 61.6508 77.8505C61.486 77.8811 61.3047 77.964 61.152 78.0387C60.5417 78.3651 60.4781 78.3545 60.4134 78.2595C60.3597 78.1839 60.3181 78.0559 60.9858 77.6992C61.1575 77.6166 61.3604 77.5285 61.6102 77.5041C61.883 77.48 62.1155 77.608 62.272 77.7274C62.5916 77.9781 62.7299 78.2434 62.6924 78.274Z" fill="#2D1916"/>
<path d="M58.6214 84.552C58.6008 84.5207 58.7562 84.3913 58.9706 84.1605C59.0755 84.0453 59.1983 83.9011 59.2781 83.7288C59.3703 83.5547 59.3507 83.3844 59.2623 83.154C59.0937 82.7116 58.8687 82.3197 58.7253 82.0325C58.577 81.7449 58.4914 81.5623 58.5209 81.542C58.5505 81.5217 58.6912 81.6706 58.8822 81.9365C59.0686 82.2062 59.3211 82.5812 59.5069 83.0655C59.5526 83.1859 59.588 83.3153 59.5939 83.4563C59.5987 83.6039 59.5474 83.7308 59.4924 83.8361C59.3765 84.0477 59.2258 84.187 59.0965 84.2943C58.8343 84.5048 58.6393 84.5809 58.6214 84.552Z" fill="#2D1916"/>
<path d="M54.3215 80.3091C54.3215 79.7153 54.4278 79.2341 54.7515 79.2341C55.0752 79.2341 55.1815 79.7153 55.1815 80.3091C55.1815 80.9028 55.0752 81.3841 54.7515 81.3841C54.4282 81.3841 54.3215 80.9028 54.3215 80.3091Z" fill="#2D1916"/>
<path d="M61.3594 80.3091C61.3594 79.7153 61.4657 79.2341 61.7894 79.2341C62.1131 79.2341 62.2194 79.7153 62.2194 80.3091C62.2194 80.9028 62.1131 81.3841 61.7894 81.3841C61.4657 81.3841 61.3594 80.9028 61.3594 80.3091Z" fill="#2D1916"/>
<path d="M52.8166 82.5451C52.7777 82.5176 52.839 82.3634 52.9539 82.2011C53.0684 82.039 53.1933 81.9297 53.2322 81.9575C53.2714 81.985 53.2102 82.1388 53.0953 82.3015C52.9807 82.4635 52.8558 82.5726 52.8166 82.5451Z" fill="#E2A491"/>
<path d="M53.3755 82.6527C53.3366 82.6252 53.3978 82.4711 53.5127 82.3087C53.6273 82.1467 53.7521 82.0373 53.791 82.0652C53.8302 82.0927 53.769 82.2465 53.6541 82.4092C53.5395 82.5712 53.4147 82.6803 53.3755 82.6527Z" fill="#E2A491"/>
<path d="M62.1692 82.5451C62.1303 82.5176 62.1915 82.3634 62.3064 82.2011C62.421 82.039 62.5458 81.9297 62.5847 81.9575C62.6239 81.985 62.5627 82.1388 62.4478 82.3015C62.3329 82.4635 62.2084 82.5726 62.1692 82.5451Z" fill="#E2A491"/>
<path d="M62.7282 82.6527C62.6894 82.6252 62.7506 82.4711 62.8655 82.3087C62.98 82.1467 63.1049 82.0373 63.1438 82.0652C63.183 82.0927 63.1218 82.2465 63.0069 82.4092C62.892 82.5712 62.7675 82.6803 62.7282 82.6527Z" fill="#E2A491"/>
<path d="M47.671 80.9541C47.6634 80.9489 47.6799 80.9248 47.7188 80.8832C47.7597 80.8443 47.811 80.7731 47.9156 80.7267C47.9641 80.6964 48.0208 80.6703 48.0938 80.6648C48.1643 80.6438 48.2403 80.6596 48.3232 80.6772C48.4773 80.7308 48.6328 80.845 48.7408 80.9995C48.9727 81.3022 49.1264 81.7095 49.231 82.1522C49.2792 82.3769 49.3256 82.6032 49.3091 82.8643C49.2954 83.1313 49.1117 83.4199 48.8165 83.4935C48.6731 83.5313 48.5124 83.5055 48.3979 83.4188C48.2799 83.3339 48.2272 83.2062 48.2076 83.1013C48.1729 82.8843 48.2083 82.7185 48.2658 82.5716C48.3263 82.4254 48.434 82.3215 48.5348 82.2699C48.6366 82.2159 48.7264 82.2052 48.7948 82.2018C49.0697 82.2083 49.068 82.2768 49.0614 82.3015C49.0542 82.3428 49.0322 82.3428 48.8168 82.3793C48.7147 82.4037 48.5588 82.4529 48.4818 82.6596C48.4457 82.7597 48.4233 82.9118 48.4498 83.0494C48.4722 83.1908 48.5853 83.2878 48.7549 83.2482C48.9231 83.2062 49.0484 83.0339 49.0611 82.843C49.0779 82.6424 49.0404 82.4133 48.9999 82.2066C48.9142 81.7883 48.778 81.3992 48.595 81.122C48.5055 80.9792 48.3934 80.8853 48.2857 80.8265C48.1743 80.7893 48.0618 80.7814 47.9737 80.823C47.8805 80.8471 47.8151 80.8963 47.7652 80.9228C47.715 80.9496 47.6823 80.9613 47.671 80.9541Z" fill="#2D1916"/>
<path d="M55.8244 86.401H59.7887C60.0288 86.401 60.228 86.5943 60.2242 86.8344C60.2139 87.465 59.9094 88.5634 57.9194 88.594C55.7264 88.6277 55.3955 87.532 55.3889 86.8437C55.3869 86.6001 55.5809 86.401 55.8244 86.401Z" fill="#7A0F2B"/>
<path d="M57.9194 88.594C58.744 88.5813 59.2762 88.3838 59.6209 88.1138C59.313 87.7429 58.7392 87.348 57.6759 87.2754C56.7485 87.2118 56.1619 87.5486 55.7925 87.9428C56.1416 88.3215 56.7763 88.6115 57.9194 88.594Z" fill="#ED3252"/>
<path d="M56.3713 98.0251C56.3713 97.7637 56.5832 97.5521 56.8443 97.5521C57.1054 97.5521 57.3173 97.7637 57.3173 98.0251C57.3173 98.2865 57.1054 98.4981 56.8443 98.4981C56.5832 98.4981 56.3713 98.2865 56.3713 98.0251Z" fill="#1BB267"/>
<path d="M56.4143 101.25C56.4143 100.989 56.6262 100.777 56.8873 100.777C57.1484 100.777 57.3603 100.989 57.3603 101.25C57.3603 101.512 57.1484 101.723 56.8873 101.723C56.6262 101.723 56.4143 101.512 56.4143 101.25Z" fill="#1BB267"/>
<path d="M46.7824 160.999L48.094 160.698C48.0541 160.08 47.8481 159.557 47.6386 159.172C47.1866 159.307 46.6541 159.456 46.0964 159.608C46.6197 160.101 46.7824 160.999 46.7824 160.999Z" fill="#CED2D8"/>
<path d="M46.7824 160.999L47.5282 160.827C47.524 160.282 47.2423 159.772 46.9299 159.377C46.6637 159.452 46.3837 159.529 46.0964 159.607C46.6197 160.101 46.7824 160.999 46.7824 160.999Z" fill="#E9ECF2"/>
<path d="M53.5335 162.912C53.5335 162.859 53.5256 162.44 53.5136 161.842C52.2772 162.446 49.7585 163.183 45.3205 163.256C42.9824 163.294 41.6982 163.025 41.0102 162.663C40.9424 163.648 41.1134 164.161 45.0195 164.202C49.1045 164.245 53.5335 163.127 53.5335 162.912Z" fill="#E9ECF2"/>
<path d="M80.265 104.991H62.7495V118.637H80.265V104.991Z" fill="#D18654"/>
<path d="M56.0129 115.541L62.7495 118.637V104.991L56.0129 101.895V115.541Z" fill="#B55C3E"/>
<path d="M56.0129 101.895L62.7495 104.991H80.2649L73.0984 101.953L56.0129 101.895Z" fill="#E8A070"/>
<path d="M43.6291 104.103C43.6291 104.103 42.5111 107.428 42.3965 109.033C42.2816 110.639 42.6831 111.47 44.9765 112.015C47.2696 112.559 56.5576 112.989 57.1311 113.276C57.7045 113.563 58.1631 113.849 59.2236 113.964C60.2845 114.079 60.7431 113.563 61.3165 113.792C61.8896 114.021 63.6385 114.881 64.0971 114.279C64.5556 113.677 63.8965 113.305 62.9791 112.903C62.0616 112.502 61.5456 112.158 61.5171 112.072C61.4885 111.986 61.3165 108.632 61.5171 108.546C61.7176 108.46 64.6131 107.743 65.1865 107.256C65.7596 106.769 65.3585 106.138 63.8105 106.339C62.2625 106.539 61.1156 106.941 60.8005 106.998C60.4851 107.055 58.8511 107.457 57.5325 108.861L46.8971 107.801L47.9576 103.587L43.6291 104.103Z" fill="#F2C3A2"/>
<path d="M47.231 106.474L47.9575 103.587L43.6289 104.103C43.6289 104.103 43.3524 104.925 43.0603 105.949C44.4397 106.205 45.8278 106.386 47.231 106.474Z" fill="#E2A491"/>
<path d="M50.3083 92.464C48.9323 92.464 47.2409 92.3202 45.7789 95.99C44.3169 99.6594 43.1989 104.074 43.0843 104.36C42.9698 104.647 44.6609 105.708 47.7283 105.765C47.7283 105.765 49.4769 99.086 49.8783 97.4234C50.2798 95.7602 50.9103 92.5211 50.3083 92.464Z" fill="#0E8C65"/>
<path d="M43.4256 103.172C43.2374 103.839 43.1177 104.277 43.0844 104.361C42.9695 104.647 44.6609 105.708 47.7284 105.765C47.7284 105.765 47.8443 105.322 48.0228 104.638C47.4267 104.576 46.6399 104.437 45.6069 104.16C44.4232 103.843 43.7744 103.491 43.4256 103.172Z" fill="#1BB267"/>
<path d="M61.345 108.546C61.345 108.546 63.538 108.666 64.8136 108.8C66.0895 108.934 66.204 110.327 64.8855 110.407C63.5666 110.487 61.2305 110.581 61.2305 110.581C61.2305 110.581 60.915 108.84 61.345 108.546Z" fill="#F2C3A2"/>
<path d="M61.1875 110.151C61.1875 110.151 63.3805 110.272 64.6561 110.405C65.932 110.539 66.0465 111.932 64.728 112.012C63.4091 112.093 61.073 112.187 61.073 112.187C61.073 112.187 60.7575 110.446 61.1875 110.151Z" fill="#F2C3A2"/>
<path d="M81.1394 109.377C81.5508 109.577 82.0854 108.403 81.1968 107.672C80.3079 106.941 79.4768 106.984 79.2188 107.485C78.9071 108.091 79.7204 108.689 81.1394 109.377Z" fill="#F2C3A2"/>
<path d="M80.525 110.538C81.5814 110.538 81.6399 110.081 81.6547 109.718C81.6695 109.355 81.4018 109.099 80.3316 109.032C79.2615 108.965 78.8604 109.288 78.8604 109.678C78.8604 110.067 79.1872 110.538 80.525 110.538Z" fill="#F2C3A2"/>
<path d="M80.667 112.06C81.722 112.009 81.7571 111.511 81.7533 111.116C81.7492 110.722 81.4692 110.458 80.3966 110.436C79.324 110.414 78.9398 110.782 78.9597 111.205C78.9804 111.628 79.3309 112.123 80.667 112.06Z" fill="#F2C3A2"/>
<path d="M81.8559 113.147C81.8927 112.6 81.4974 111.9 80.3223 111.986C79.1469 112.072 78.8889 112.402 78.9319 112.875C78.9749 113.348 80.2649 113.333 80.2649 113.333L80.2793 114.853C80.2793 114.853 81.7554 114.638 81.8559 113.147Z" fill="#F2C3A2"/>
</g>
<defs>
<filter id="filter0_d_291_31" x="122" y="-2.76923" width="40.1741" height="23.1621" filterUnits="userSpaceOnUse" color-interpolation-filters="sRGB">
<feFlood flood-opacity="0" result="BackgroundImageFix"/>
<feColorMatrix in="SourceAlpha" type="matrix" values="0 0 0 0 0 0 0 0 0 0 0 0 0 0 0 0 0 0 127 0" result="hardAlpha"/>
<feOffset dy="1"/>
<feGaussianBlur stdDeviation="2"/>
<feComposite in2="hardAlpha" operator="out"/>
<feColorMatrix type="matrix" values="0 0 0 0 0 0 0 0 0 0 0 0 0 0 0 0 0 0 0.25 0"/>
<feBlend mode="normal" in2="BackgroundImageFix" result="effect1_dropShadow_291_31"/>
<feBlend mode="normal" in="SourceGraphic" in2="effect1_dropShadow_291_31" result="shape"/>
</filter>
<filter id="filter1_d_291_31" x="82.4534" y="26.5372" width="44.3203" height="26.6919" filterUnits="userSpaceOnUse" color-interpolation-filters="sRGB">
<feFlood flood-opacity="0" result="BackgroundImageFix"/>
<feColorMatrix in="SourceAlpha" type="matrix" values="0 0 0 0 0 0 0 0 0 0 0 0 0 0 0 0 0 0 127 0" result="hardAlpha"/>
<feOffset dy="1"/>
<feGaussianBlur stdDeviation="2"/>
<feComposite in2="hardAlpha" operator="out"/>
<feColorMatrix type="matrix" values="0 0 0 0 0 0 0 0 0 0 0 0 0 0 0 0 0 0 0.25 0"/>
<feBlend mode="normal" in2="BackgroundImageFix" result="effect1_dropShadow_291_31"/>
<feBlend mode="normal" in="SourceGraphic" in2="effect1_dropShadow_291_31" result="shape"/>
</filter>
<filter id="filter2_d_291_31" x="23.5564" y="5.35709" width="38.3601" height="23.6252" filterUnits="userSpaceOnUse" color-interpolation-filters="sRGB">
<feFlood flood-opacity="0" result="BackgroundImageFix"/>
<feColorMatrix in="SourceAlpha" type="matrix" values="0 0 0 0 0 0 0 0 0 0 0 0 0 0 0 0 0 0 127 0" result="hardAlpha"/>
<feOffset dy="1"/>
<feGaussianBlur stdDeviation="2"/>
<feComposite in2="hardAlpha" operator="out"/>
<feColorMatrix type="matrix" values="0 0 0 0 0 0 0 0 0 0 0 0 0 0 0 0 0 0 0.25 0"/>
<feBlend mode="normal" in2="BackgroundImageFix" result="effect1_dropShadow_291_31"/>
<feBlend mode="normal" in="SourceGraphic" in2="effect1_dropShadow_291_31" result="shape"/>
</filter>
<clipPath id="clip0_291_31">
<rect width="172" height="172" fill="white" transform="translate(0 0.230774)"/>
</clipPath>
</defs>
</svg>
