<svg width="21" height="21" viewBox="0 0 21 21" fill="none" xmlns="http://www.w3.org/2000/svg">
<g clip-path="url(#clip0_291_254)">
<path d="M20.8561 2.44521V18.5548C20.8561 19.8205 19.8205 20.8562 18.5548 20.8562H2.44517C1.17942 20.8562 0.143799 19.8205 0.143799 18.5548V2.44521C0.143799 1.17945 1.17942 0.143837 2.44517 0.143837H18.5548C19.8205 0.143837 20.8561 1.17945 20.8561 2.44521Z" fill="#B9E5FF"/>
<path d="M4.45887 15.6205V20.8562H2.44517C1.17942 20.8562 0.143799 19.8205 0.143799 18.5548V15.6205H4.45887Z" fill="#ED754A"/>
<path d="M5.60962 8.51507H9.92469V20.8562H5.60962V8.51507Z" fill="#86BD4D"/>
<path d="M11.0752 4.45891H15.3903V20.8562H11.0752V4.45891Z" fill="#7EBBE7"/>
<path d="M20.8561 2.44521V18.5548C20.8561 19.8205 19.8205 20.8562 18.5547 20.8562H16.541V0.143837H18.5547C19.8205 0.143837 20.8561 1.17945 20.8561 2.44521Z" fill="#FAC800"/>
</g>
<defs>
<clipPath id="clip0_291_254">
<rect width="21" height="21" fill="white"/>
</clipPath>
</defs>
</svg>
