<svg width="20" height="21" viewBox="0 0 20 21" fill="none" xmlns="http://www.w3.org/2000/svg">
<g clip-path="url(#clip0_291_263)">
<path d="M9.28125 9.9V0.300003H2.55938C1.29375 0.300003 0.28125 1.38 0.28125 2.73V9.9H9.28125ZM3.00937 4.8H4.5V3.21C4.5 2.88 4.75313 2.61 5.0625 2.61C5.37187 2.61 5.625 2.88 5.625 3.21V4.8H7.11562C7.425 4.8 7.67812 5.07 7.67812 5.4C7.67812 5.73 7.425 6 7.11562 6H5.625V7.59C5.625 7.92 5.37187 8.19 5.0625 8.19C4.75313 8.19 4.5 7.92 4.5 7.59V6H3.00937C2.7 6 2.44687 5.73 2.44687 5.4C2.44687 5.07 2.7 4.8 3.00937 4.8Z" fill="#4D89FF"/>
<path d="M9.28125 11.1H0.28125V18.27C0.28125 19.62 1.29375 20.7 2.55938 20.7H9.28125V11.1ZM6.91875 17.58C6.80625 17.7 6.66563 17.76 6.525 17.76C6.38438 17.76 6.24375 17.7 6.13125 17.58L5.0625 16.44L3.99375 17.58C3.88125 17.7 3.74063 17.76 3.6 17.76C3.45938 17.76 3.31875 17.7 3.20625 17.58C2.98125 17.34 2.98125 16.98 3.20625 16.74L4.275 15.6L3.20625 14.46C2.98125 14.22 2.98125 13.83 3.20625 13.62C3.43125 13.38 3.76875 13.38 3.99375 13.62L5.0625 14.76L6.13125 13.62C6.35625 13.38 6.69375 13.38 6.91875 13.62C7.14375 13.86 7.14375 14.22 6.91875 14.46L5.85 15.6L6.91875 16.74C7.14375 16.98 7.14375 17.34 6.91875 17.58Z" fill="#2E3844"/>
<path d="M10.4062 11.1V20.7H17.1281C18.3938 20.7 19.4062 19.62 19.4062 18.27V11.1H10.4062ZM12.8531 13.98L13.0781 13.74C13.3031 13.5 13.6687 13.5 13.8656 13.74C14.0906 13.98 14.0906 14.37 13.8656 14.58L13.6406 14.82C13.5281 14.94 13.3875 15 13.2469 15C13.1062 15 12.9656 14.94 12.8531 14.82C12.6563 14.58 12.6563 14.19 12.8531 13.98ZM16.3969 17.22L16.1719 17.46C16.0594 17.58 15.9187 17.64 15.7781 17.64C15.6375 17.64 15.4969 17.58 15.3844 17.46C15.1594 17.22 15.1594 16.83 15.3844 16.62L15.6094 16.38C15.8344 16.14 16.1719 16.14 16.3969 16.38C16.5938 16.62 16.5938 17.01 16.3969 17.22ZM16.4812 14.46L13.5563 17.58C13.4438 17.7 13.3031 17.76 13.1625 17.76C13.0219 17.76 12.8813 17.7 12.7688 17.58C12.5438 17.34 12.5438 16.98 12.7688 16.74L15.6656 13.62C15.8906 13.38 16.2281 13.38 16.4531 13.62C16.7063 13.86 16.7062 14.22 16.4812 14.46Z" fill="#3EA2FF"/>
<path d="M10.4062 9.9H19.4062V2.73C19.4062 1.38 18.3938 0.300003 17.1281 0.300003H10.4062V9.9ZM12.5719 4.8H16.6781C16.9875 4.8 17.2406 5.07 17.2406 5.4C17.2406 5.73 16.9875 6 16.6781 6H12.5719C12.2625 6 12.0094 5.73 12.0094 5.4C12.0094 5.07 12.2625 4.8 12.5719 4.8Z" fill="#83AC3D"/>
</g>
<defs>
<clipPath id="clip0_291_263">
<rect width="19.6875" height="21" fill="white"/>
</clipPath>
</defs>
</svg>
