<svg width="21" height="21" viewBox="0 0 21 21" fill="none" xmlns="http://www.w3.org/2000/svg">
<path d="M2.53889 4.72465C2.48464 4.72465 2.43144 4.69945 2.39749 4.65255C2.34499 4.58045 2.35514 4.48 2.42164 4.4198L3.12269 3.7856L1.84799 4.52165C1.77309 4.5654 1.67649 4.54685 1.62224 4.4779C1.56869 4.4093 1.57394 4.31095 1.63449 4.24865L2.27359 3.58855L1.84764 3.83425C1.77589 3.87695 1.68349 3.8612 1.62819 3.79785C1.57324 3.7345 1.57079 3.6414 1.62189 3.57525L1.82314 3.31765C1.77624 3.3075 1.73389 3.2788 1.70834 3.234C1.65969 3.15035 1.68839 3.04325 1.77239 2.99495L2.35199 2.66035C2.42409 2.61835 2.51649 2.6341 2.57144 2.69675C2.62639 2.7601 2.62884 2.8532 2.57774 2.91935L2.45069 3.0821L3.18289 2.65965C3.25814 2.6159 3.35439 2.63445 3.40864 2.7034C3.46219 2.772 3.45694 2.87035 3.39639 2.93265L2.75694 3.5931L4.37394 2.65965C4.45094 2.61485 4.54999 2.6355 4.60284 2.7083C4.65534 2.7804 4.64519 2.88085 4.57869 2.94105L3.87764 3.57525L5.46349 2.65965C5.54014 2.61485 5.63919 2.6355 5.69204 2.7076C5.74454 2.77935 5.73509 2.87945 5.66964 2.94L4.94409 3.60815L6.58699 2.65965C6.66154 2.61555 6.75779 2.6341 6.81204 2.7027C6.86594 2.77095 6.86139 2.8686 6.80154 2.93125L5.98359 3.7933L7.94744 2.65965C8.02654 2.6131 8.12944 2.63725 8.18019 2.7132C8.23129 2.78985 8.21519 2.89275 8.14239 2.9491L7.92609 3.1171L8.71919 2.6593C8.79794 2.61275 8.89909 2.6362 8.95089 2.7111C9.00234 2.78635 8.98764 2.88855 8.91694 2.9463L8.47559 3.3061L9.59629 2.65895C9.67399 2.6131 9.77374 2.6355 9.82624 2.70865C9.87839 2.78215 9.86649 2.8833 9.79859 2.94245L9.16684 3.49335L10.612 2.65895C10.6893 2.61415 10.7898 2.6355 10.8419 2.709C10.8941 2.7825 10.8822 2.884 10.8139 2.9428L10.2007 3.4734L11.6109 2.6593C11.6865 2.6152 11.7831 2.63445 11.837 2.70375C11.8909 2.77305 11.8846 2.8714 11.823 2.9337L11.0222 3.7443L12.902 2.65895C12.9808 2.6124 13.0833 2.6362 13.1344 2.71215C13.1859 2.78845 13.1698 2.89135 13.0977 2.94805L12.8257 3.1612L13.6965 2.6586C13.7735 2.6138 13.8729 2.63445 13.9254 2.70725C13.9779 2.7797 13.9674 2.88015 13.9009 2.94035L13.2153 3.55705L14.7714 2.65895C14.8463 2.6152 14.9429 2.63375 14.9968 2.70235C15.0507 2.77095 15.0458 2.86895 14.9852 2.9316L14.1753 3.7751L16.1091 2.65895C16.1875 2.6124 16.2893 2.63655 16.3408 2.71145C16.3926 2.7867 16.3775 2.88925 16.3061 2.94665L15.9222 3.25535L16.9557 2.65895C17.032 2.61415 17.1307 2.63445 17.1832 2.70585C17.2364 2.7769 17.228 2.8763 17.1633 2.93755L16.4125 3.64875L18.1272 2.65895C18.2059 2.6124 18.3074 2.63585 18.3589 2.7111C18.4103 2.78635 18.3956 2.88855 18.3249 2.9463L17.9077 3.28475L18.8174 2.75975C18.8933 2.71495 18.992 2.73525 19.0452 2.80665C19.0981 2.8777 19.0893 2.97745 19.0249 3.03835L18.3844 3.64385L19.1355 3.2102C19.2034 3.16995 19.2902 3.1815 19.3466 3.2375C19.4026 3.29315 19.4141 3.3796 19.3749 3.44855L19.0232 4.0642L19.1576 3.9865C19.2398 3.9375 19.348 3.9662 19.3966 4.05055C19.4453 4.1342 19.4166 4.2413 19.3326 4.2896L18.6371 4.6914C18.5685 4.7306 18.4821 4.71975 18.4261 4.6641C18.3701 4.60845 18.3585 4.522 18.3977 4.45305L18.7498 3.83705L17.2693 4.69175C17.193 4.73655 17.0947 4.71625 17.0418 4.64485C16.9886 4.5738 16.9974 4.47405 17.0618 4.41315L17.7023 3.80765L16.1696 4.69245C16.0909 4.739 15.9897 4.71555 15.9379 4.6403C15.8865 4.56505 15.9012 4.46285 15.9719 4.4051L16.3905 4.0656L15.3037 4.6928C15.2274 4.7376 15.1291 4.71765 15.0762 4.6459C15.023 4.57485 15.0314 4.47545 15.0962 4.4142L15.8469 3.703L14.1309 4.6935C14.0521 4.7397 13.9503 4.71625 13.8992 4.641C13.8474 4.56575 13.8628 4.4632 13.9338 4.4058L14.3171 4.0978L13.2835 4.6942C13.2086 4.73795 13.112 4.7194 13.0581 4.6508C13.0042 4.5822 13.0091 4.4842 13.0697 4.42155L13.8796 3.57805L11.9444 4.6949C11.8681 4.7404 11.7684 4.71905 11.7155 4.64625C11.663 4.5738 11.6735 4.47335 11.74 4.41315L12.426 3.7961L10.8682 4.69525C10.7887 4.74145 10.6869 4.71765 10.6358 4.64205C10.5843 4.56575 10.6004 4.46285 10.6725 4.40615L10.9434 4.1937L10.073 4.6963C9.99774 4.74075 9.90114 4.72115 9.84689 4.65185C9.79334 4.58255 9.79929 4.4842 9.86089 4.4219L10.6617 3.6113L8.78044 4.69735C8.70344 4.7432 8.60299 4.72115 8.55049 4.6473C8.49834 4.5738 8.51024 4.4723 8.57849 4.4135L9.19169 3.88325L7.78049 4.6977C7.70384 4.7432 7.60339 4.72185 7.55054 4.648C7.49839 4.5745 7.51029 4.47335 7.57819 4.4142L8.21029 3.86295L6.76374 4.69805C6.68464 4.74425 6.58384 4.7208 6.53204 4.64625C6.48059 4.571 6.49529 4.4688 6.56599 4.41105L7.00699 4.0516L5.88559 4.6991C5.80614 4.74565 5.70359 4.7215 5.65284 4.64555C5.60174 4.5689 5.61784 4.466 5.69064 4.40965L5.90729 4.2413L5.11314 4.6998C5.03859 4.7439 4.94234 4.725 4.88809 4.65675C4.83384 4.5885 4.83874 4.49085 4.89859 4.4282L5.71654 3.5665L3.75094 4.70085C3.67464 4.746 3.57559 4.72535 3.52239 4.6529C3.46989 4.58115 3.47934 4.48105 3.54479 4.4205L4.27034 3.75235L2.62639 4.70155C2.59909 4.71765 2.56899 4.725 2.53889 4.725V4.72465Z" fill="#45B1FF"/>
<path d="M1.99908 6.1243C1.94728 6.1243 1.89583 6.1012 1.86153 6.0578C1.80798 5.9899 1.81183 5.89225 1.87168 5.82925L2.69173 4.963L1.14788 5.8541C1.07263 5.8982 0.976033 5.8793 0.922133 5.81C0.868583 5.7414 0.873833 5.64305 0.934733 5.58075L1.50558 4.9945L1.14788 5.201C1.07473 5.24335 0.981984 5.22725 0.927384 5.1632C0.872433 5.09915 0.871383 5.005 0.924233 4.93955L1.10763 4.71345C1.06738 4.70085 1.03098 4.67355 1.00858 4.63365C0.959933 4.55 0.988633 4.4429 1.07263 4.3946L1.65223 4.06C1.72468 4.0173 1.81778 4.03305 1.87273 4.0978C1.92768 4.16185 1.92873 4.256 1.87588 4.32145L1.79188 4.42505L2.42608 4.0593C2.50098 4.0152 2.59758 4.0341 2.65183 4.1034C2.70538 4.172 2.70013 4.27035 2.63923 4.33265L2.06838 4.9189L3.55763 4.0593C3.63253 4.01555 3.72843 4.0341 3.78268 4.10235C3.83623 4.17025 3.83238 4.2679 3.77253 4.3309L2.95248 5.19715L4.92403 4.0593C5.00348 4.0124 5.10603 4.0369 5.15713 4.1139C5.20823 4.1909 5.19108 4.29415 5.11758 4.35015L5.03043 4.4163L5.64923 4.05895C5.72553 4.01415 5.82388 4.0341 5.87708 4.1062C5.92993 4.17725 5.92118 4.277 5.85643 4.3379L5.10533 5.04455L6.81298 4.0593C6.88963 4.0145 6.98833 4.03515 7.04118 4.1069C7.09403 4.17865 7.08458 4.2784 7.01948 4.33895L6.28658 5.0183L7.94803 4.0593C8.02258 4.01555 8.11848 4.0341 8.17273 4.102C8.22698 4.1699 8.22278 4.2672 8.16363 4.3302L7.34358 5.20485L9.32878 4.0593C9.40508 4.0145 9.50378 4.03515 9.55698 4.1069C9.60983 4.1783 9.60038 4.27805 9.53528 4.33895L8.79923 5.0239L10.4698 4.0593C10.5478 4.0138 10.6486 4.0362 10.7004 4.1104C10.7522 4.1846 10.7393 4.2861 10.67 4.34455L10.1156 4.81285L11.4207 4.05965C11.4956 4.01555 11.5922 4.0341 11.6461 4.10305C11.6997 4.17165 11.6951 4.26965 11.6346 4.3323L10.8226 5.17755L12.7598 4.05965C12.8375 4.01415 12.938 4.03655 12.9898 4.1097C13.0419 4.1832 13.03 4.28435 12.9618 4.3435L12.3465 4.8762L13.7612 4.05965C13.8361 4.0159 13.932 4.03445 13.9862 4.1027C14.0398 4.17095 14.0359 4.2686 13.9761 4.33125L13.1616 5.1912L15.122 4.05965C15.2011 4.01275 15.304 4.03725 15.3554 4.11425C15.4065 4.19125 15.389 4.29485 15.3152 4.3505L15.2564 4.3953L15.8377 4.05965C15.9165 4.01345 16.018 4.03655 16.0694 4.1118C16.1209 4.18705 16.1062 4.28925 16.0355 4.347L15.6165 4.68685L16.7029 4.05965C16.7778 4.0159 16.8737 4.03445 16.928 4.1027C16.9815 4.17095 16.9777 4.2686 16.9178 4.33125L16.1048 5.1891L18.062 4.0593C18.1369 4.0152 18.2331 4.03445 18.2877 4.10305C18.3413 4.17165 18.3364 4.26965 18.2755 4.3323L17.4694 5.16565L19.3423 4.0845C19.4207 4.0376 19.5225 4.06175 19.5743 4.137C19.6258 4.2126 19.6107 4.31515 19.539 4.37255L19.2075 4.6382L19.7203 4.3421C19.7976 4.2966 19.8988 4.31865 19.9509 4.39285C20.0027 4.46705 19.9898 4.5689 19.9208 4.62735L19.7014 4.81285L19.8508 4.72675C19.925 4.683 20.0206 4.7012 20.0752 4.76875C20.1291 4.8363 20.1259 4.93325 20.0671 4.9966L19.8662 5.21465C19.9264 5.18385 19.9999 5.19085 20.0535 5.23355C20.1098 5.278 20.1336 5.3522 20.113 5.4208L20.0339 5.6854C20.0612 5.70045 20.0846 5.72215 20.1011 5.7512C20.1497 5.83485 20.121 5.94195 20.0374 5.9906L19.8634 6.0914C19.8011 6.1278 19.7238 6.1222 19.6671 6.0774C19.6107 6.03295 19.5869 5.95875 19.6076 5.89015L19.6517 5.74245L19.0465 6.09175C18.972 6.1355 18.8768 6.11695 18.8222 6.04975C18.7683 5.9822 18.7714 5.88525 18.8302 5.8219L19.0304 5.60455L18.1855 6.09245C18.1078 6.1383 18.007 6.11555 17.9549 6.0417C17.9031 5.9675 17.916 5.86565 17.985 5.8072L18.2044 5.6217L17.3879 6.09315C17.3084 6.13935 17.2073 6.11555 17.1558 6.04065C17.1044 5.96505 17.1194 5.8625 17.1912 5.8051L17.5223 5.5398L16.5633 6.0935C16.4884 6.1376 16.3921 6.1187 16.3375 6.04975C16.284 5.98115 16.2889 5.88315 16.3498 5.8205L17.1562 4.9868L15.2375 6.0942C15.1626 6.13795 15.0667 6.11975 15.0124 6.05115C14.9589 5.9829 14.9627 5.88525 15.0226 5.8226L15.8356 4.96475L13.8774 6.0949C13.7986 6.1411 13.6971 6.118 13.6457 6.04275C13.5942 5.9675 13.6089 5.8653 13.6796 5.80755L14.0982 5.46805L13.0111 6.0956C12.9313 6.14215 12.8288 6.11765 12.7777 6.041C12.7266 5.964 12.7441 5.8604 12.8179 5.80475L12.8771 5.75995L12.2947 6.09595C12.2201 6.14005 12.1239 6.1215 12.0696 6.0529C12.0161 5.98465 12.0199 5.887 12.0798 5.82435L12.8946 4.9644L10.9328 6.09665C10.8548 6.14215 10.755 6.1201 10.7029 6.0466C10.6507 5.9731 10.6626 5.87195 10.7309 5.8128L11.3458 5.28045L9.93043 6.09735C9.85518 6.14145 9.75928 6.12255 9.70503 6.05395C9.65148 5.98535 9.65603 5.88735 9.71658 5.8247L10.5282 4.97945L8.59028 6.09805C8.51223 6.14425 8.41178 6.12115 8.35963 6.04695C8.30783 5.97275 8.32078 5.87125 8.39008 5.8128L8.94448 5.34415L7.63863 6.09805C7.56233 6.14285 7.46363 6.12255 7.41043 6.05045C7.35758 5.97905 7.36703 5.8793 7.43213 5.8184L8.16818 5.13345L6.49623 6.09875C6.42133 6.1425 6.32578 6.12395 6.27153 6.05605C6.21728 5.98815 6.22148 5.89085 6.28063 5.82785L7.10033 4.9532L5.11408 6.0998C5.03778 6.1446 4.93908 6.1243 4.88588 6.0522C4.83303 5.98045 4.84248 5.8807 4.90758 5.82015L5.64083 5.14045L3.97798 6.10015C3.90203 6.14495 3.80333 6.125 3.75013 6.0529C3.69728 5.98185 3.70603 5.8821 3.77078 5.8212L4.52188 5.1142L2.81283 6.1005C2.73268 6.14705 2.63048 6.1229 2.57973 6.0459C2.52863 5.9689 2.54578 5.86565 2.61928 5.80965L2.70573 5.74385L2.08728 6.10085C2.05998 6.11695 2.02988 6.1243 1.99978 6.1243H1.99908Z" fill="#4BD4FF"/>
<path d="M4.49725 18.3645C4.43775 18.3645 4.37965 18.334 4.34675 18.2791C4.29775 18.1972 4.324 18.0908 4.40555 18.0404L9.8162 14.7126L3.53195 18.3407C3.4483 18.389 3.34295 18.361 3.2936 18.278C3.2446 18.1954 3.2719 18.089 3.35415 18.0393L4.88505 17.1157L2.76335 18.3403C2.68005 18.3886 2.57435 18.361 2.52535 18.2784C2.47635 18.1958 2.5026 18.0897 2.58415 18.0397L9.6685 13.6864L1.60765 18.3403C1.52435 18.3886 1.41795 18.3606 1.3693 18.2777C1.3203 18.1951 1.3476 18.0883 1.42985 18.0386L3.90925 16.5469L0.88735 18.2913C0.8044 18.3393 0.698 18.3116 0.64935 18.229C0.60035 18.1468 0.62695 18.0404 0.70885 17.9903L7.75925 13.6962L0.4929 17.8927C0.40995 17.941 0.30425 17.9133 0.2549 17.8307C0.2059 17.7488 0.23215 17.6424 0.31335 17.592L9.72555 11.7866L0.4481 17.143C0.36445 17.1913 0.2584 17.1633 0.20975 17.0803C0.16075 16.9974 0.18805 16.891 0.27065 16.8413L1.36895 16.1822L0.4481 16.7139C0.36445 16.7618 0.25875 16.7342 0.20975 16.6516C0.16075 16.569 0.18805 16.4626 0.2696 16.4125L4.55255 13.8141L0.44775 16.184C0.36445 16.2323 0.25875 16.2046 0.2101 16.1224C0.16075 16.0405 0.187 15.9341 0.26785 15.8837L7.55485 11.3676L0.4481 15.4714C0.3648 15.5193 0.25875 15.4913 0.2101 15.4094C0.1611 15.3272 0.1877 15.2204 0.26925 15.1704L4.26765 12.7263L0.4481 14.9313C0.36585 14.98 0.2605 14.9523 0.2108 14.8704C0.16145 14.7889 0.18665 14.6828 0.2668 14.6317L7.3928 10.1279L0.4481 14.1375C0.36585 14.1858 0.2605 14.1585 0.2108 14.0766C0.16145 13.9954 0.1863 13.8894 0.2668 13.8383L6.4296 9.92565L0.4481 13.3794C0.36585 13.4281 0.2605 13.4004 0.2108 13.3185C0.16145 13.237 0.18665 13.1309 0.2668 13.0798L5.04045 10.0583L0.4481 12.7095C0.36585 12.7582 0.2598 12.7305 0.21045 12.6483C0.1611 12.5667 0.187 12.4603 0.2675 12.4096L3.1634 10.5945L0.44775 12.1621C0.36445 12.2104 0.2591 12.1828 0.2101 12.1005C0.16075 12.019 0.18665 11.9126 0.2675 11.8618L1.62585 11.0166L0.44775 11.6963C0.3655 11.7446 0.26015 11.7176 0.21045 11.635C0.1611 11.5538 0.1863 11.4474 0.2668 11.3967L1.98775 10.3127L0.44775 11.2017C0.3655 11.249 0.2619 11.2227 0.21185 11.1429C0.1618 11.0631 0.1842 10.9581 0.26225 10.9053L4.1973 8.2481L0.4481 10.4142C0.36585 10.4618 0.2612 10.4356 0.21185 10.3551C0.1618 10.2749 0.1849 10.1692 0.26365 10.1167L2.58555 8.57675L0.4481 9.8105C0.3669 9.8581 0.2626 9.8322 0.2122 9.75205C0.16215 9.6719 0.18455 9.56725 0.2626 9.51405L2.20195 8.2005L0.4481 9.21305C0.3676 9.2603 0.26365 9.23475 0.21325 9.156C0.1625 9.07725 0.18315 8.9733 0.25945 8.9187L2.06965 7.63455L0.4481 8.5708C0.3683 8.61805 0.26575 8.59285 0.2143 8.5155C0.1632 8.4378 0.18175 8.33385 0.2563 8.2789L1.587 7.29295L0.4481 7.95025C0.369 7.9968 0.26855 7.973 0.21675 7.89845C0.16495 7.8239 0.1793 7.7217 0.24965 7.6636L1.2685 6.82675L0.4481 7.3003C0.37215 7.3451 0.2738 7.32515 0.22025 7.25305C0.1674 7.18165 0.17615 7.08225 0.24125 7.02135L0.7757 6.5191L0.4481 6.7081C0.37705 6.74975 0.28605 6.7354 0.23075 6.67415C0.1758 6.6129 0.1702 6.5212 0.2185 6.45435L0.4586 6.1208C0.39875 6.1201 0.341 6.0886 0.30915 6.0333C0.2605 5.94965 0.2892 5.84255 0.3732 5.79425L0.9528 5.45965C1.02385 5.41765 1.1145 5.43235 1.17015 5.4936C1.22545 5.55485 1.2307 5.64655 1.1824 5.7134L0.9773 5.9983L1.9118 5.45895C1.9881 5.41415 2.08645 5.4341 2.13965 5.5062C2.1925 5.5776 2.18375 5.677 2.11865 5.7379L1.5842 6.24015L2.93695 5.4593C3.0157 5.4131 3.1165 5.43655 3.1683 5.5111C3.2201 5.58565 3.20575 5.68785 3.1354 5.74595L2.1162 6.58315L4.0629 5.4593C4.14305 5.4124 4.2456 5.4376 4.2967 5.5146C4.3478 5.5923 4.32925 5.69625 4.2547 5.7512L2.92435 6.7368L5.13775 5.4593C5.21825 5.41205 5.32255 5.4376 5.3726 5.51635C5.42335 5.5951 5.4027 5.69905 5.3264 5.75365L3.51655 7.03745L6.25005 5.4593C6.33195 5.41205 6.4359 5.4376 6.48595 5.51775C6.536 5.5979 6.5136 5.70255 6.43555 5.75575L4.49445 7.07035L7.28535 5.4593C7.36725 5.41135 7.4719 5.4376 7.5216 5.51845C7.57165 5.5986 7.54855 5.7043 7.4698 5.7568L5.14895 7.2961L8.3308 5.4593C8.41235 5.41135 8.5163 5.43795 8.5667 5.5181C8.61675 5.5979 8.59435 5.7029 8.5163 5.75575L4.5809 8.4133L9.6972 5.45965C9.78015 5.4117 9.88515 5.43865 9.9345 5.5209C9.98385 5.6021 9.95865 5.7085 9.87815 5.75925L8.15895 6.84215L10.5533 5.46C10.6359 5.41135 10.7416 5.439 10.7909 5.5216C10.8403 5.60315 10.8144 5.70955 10.7336 5.7603L9.37555 6.60555L11.3597 5.46035C11.4423 5.4124 11.548 5.44005 11.5974 5.5216C11.6467 5.60315 11.6208 5.70955 11.5403 5.7603L8.6423 7.57645L12.3075 5.46035C12.3908 5.4124 12.4958 5.43935 12.5448 5.52125C12.5942 5.6028 12.569 5.70885 12.4888 5.75995L7.7155 8.78115L13.4674 5.4607C13.55 5.41275 13.6553 5.4397 13.7047 5.5216C13.7541 5.6028 13.7292 5.70885 13.6487 5.75995L7.4852 9.67295L14.781 5.46105C14.8636 5.4131 14.9689 5.44005 15.0183 5.52195C15.0676 5.60385 15.0424 5.70955 14.9623 5.76065L7.83765 10.2637L16.1565 5.46105C16.239 5.4124 16.3455 5.4404 16.3945 5.523C16.4435 5.6056 16.4169 5.712 16.3353 5.76205L12.3397 8.2047L17.0917 5.46105C17.1743 5.4124 17.2803 5.44005 17.3293 5.52265C17.3787 5.60455 17.3524 5.71095 17.2716 5.76135L9.9821 10.2788L18.3272 5.46105C18.4104 5.41205 18.5162 5.4404 18.5655 5.52335C18.6145 5.60595 18.5872 5.71235 18.5057 5.7624L14.2262 8.35835L19.2445 5.4614C19.3275 5.4124 19.4339 5.44075 19.4829 5.52405C19.5319 5.60735 19.5046 5.7134 19.422 5.7631L18.3268 6.42005L19.9725 5.47015C20.0551 5.4215 20.1608 5.44915 20.2105 5.5321C20.2595 5.614 20.2333 5.7204 20.1521 5.7708L10.7388 11.5769L20.5175 5.9311C20.6 5.8828 20.7065 5.91045 20.7555 5.9934C20.8045 6.07565 20.7779 6.18205 20.696 6.2321L13.6473 10.5252L20.5532 6.538C20.6365 6.48935 20.7425 6.51735 20.7915 6.60065C20.8405 6.68325 20.8132 6.79 20.731 6.8397L18.2449 8.3349L20.5532 7.00245C20.6358 6.9538 20.7415 6.98145 20.7912 7.0644C20.8402 7.14665 20.8139 7.25305 20.7324 7.3031L13.6484 11.6564L20.5535 7.6699C20.6368 7.62125 20.7425 7.64925 20.7919 7.73255C20.8409 7.81515 20.8136 7.92155 20.7313 7.97125L19.1987 8.89595L20.5535 8.11405C20.6361 8.06575 20.7418 8.09305 20.7915 8.176C20.8405 8.2579 20.8143 8.3643 20.7327 8.4147L15.3235 11.7414L20.5535 8.722C20.6361 8.67335 20.7422 8.701 20.7912 8.7836C20.8405 8.8655 20.8143 8.9719 20.7334 9.0223L15.3511 12.3546L20.5535 9.3513C20.6365 9.3037 20.7418 9.3303 20.7912 9.41255C20.8405 9.4941 20.815 9.60015 20.7341 9.65125L14.9112 13.3063L20.5535 10.0485C20.6365 10.0009 20.7415 10.0275 20.7908 10.1094C20.8402 10.1906 20.815 10.2966 20.7348 10.3481L15.3172 13.7798L20.5535 10.7565C20.6365 10.7089 20.7415 10.7359 20.7908 10.8171C20.8402 10.8983 20.8153 11.0043 20.7352 11.0558L16.0448 14.0448L20.5539 11.4415C20.6364 11.3928 20.7422 11.4205 20.7915 11.5031C20.8409 11.585 20.815 11.691 20.7338 11.7418L19.2641 12.6553L20.5542 11.9105C20.6365 11.8629 20.7415 11.8898 20.7912 11.971C20.8409 12.0522 20.8164 12.1579 20.7366 12.2094L17.4028 14.3507L20.5546 12.5314C20.6375 12.4834 20.7425 12.5107 20.7919 12.5923C20.8412 12.6738 20.816 12.7799 20.7359 12.831L19.3015 13.7385L20.5546 13.0154C20.6365 12.9675 20.7404 12.9937 20.7908 13.0746C20.8409 13.1547 20.8178 13.2597 20.7397 13.3126L17.6471 15.3797L20.5549 13.7011C20.6379 13.6531 20.7429 13.6804 20.7922 13.7616C20.8416 13.8428 20.8167 13.9489 20.7366 14.0003L20.5906 14.0934C20.6648 14.07 20.7471 14.0987 20.7901 14.1666C20.8405 14.2457 20.8195 14.35 20.7429 14.4039L18.4154 16.0328L20.5549 14.7976C20.6354 14.7504 20.7394 14.7759 20.7898 14.8547C20.8405 14.9334 20.8199 15.0377 20.7436 15.092L19.2368 16.1595L20.5549 15.3986C20.6344 15.352 20.7366 15.3762 20.788 15.4525C20.8391 15.5291 20.8223 15.6324 20.7492 15.6887L19.4101 16.7184L20.5549 16.0573C20.6316 16.0128 20.731 16.0331 20.7831 16.1052C20.836 16.177 20.8265 16.2771 20.7611 16.3376L19.766 17.2543L20.5549 16.7989C20.6298 16.7552 20.7257 16.7737 20.78 16.842C20.8342 16.9102 20.8293 17.0079 20.7695 17.0709L20.4205 17.4384L20.5549 17.3607C20.6382 17.3113 20.746 17.3407 20.794 17.4247C20.8426 17.5084 20.8139 17.6155 20.7299 17.6638L19.548 18.3459C19.4734 18.39 19.3772 18.3711 19.3229 18.3029C19.2687 18.2346 19.2736 18.137 19.3334 18.074L19.6824 17.7068L18.575 18.3459C18.499 18.3911 18.3996 18.3704 18.3468 18.298C18.2939 18.2262 18.3034 18.1261 18.3688 18.0656L19.3639 17.1489L17.2905 18.3459C17.211 18.3928 17.1088 18.3687 17.0574 18.292C17.0063 18.2154 17.0231 18.1121 17.0962 18.0558L18.4357 17.0257L16.1488 18.3459C16.0683 18.3932 15.9643 18.3676 15.9139 18.2889C15.8632 18.2101 15.8838 18.1058 15.9601 18.0516L17.4658 16.9848L15.1086 18.3459C15.0281 18.3932 14.9237 18.3676 14.8734 18.2885C14.823 18.2094 14.844 18.1051 14.9206 18.0512L17.2485 16.422L13.9161 18.3459C13.8338 18.3942 13.7282 18.3669 13.6788 18.2854C13.6295 18.2038 13.6543 18.0981 13.7345 18.0467L13.7971 18.0068L13.2098 18.3459C13.1279 18.3932 13.0236 18.3673 12.9736 18.2868C12.9235 18.2066 12.9466 18.1016 13.0247 18.0488L16.1166 15.982L12.0223 18.3459C11.94 18.3942 11.8347 18.3669 11.785 18.285C11.7356 18.2035 11.7608 18.0974 11.841 18.0463L13.2784 17.1363L11.184 18.3456C11.1018 18.3935 10.9968 18.3666 10.9471 18.285C10.8974 18.2042 10.9219 18.0981 11.0017 18.0467L14.3347 15.9057L10.1088 18.3456C10.0255 18.3939 9.92015 18.3662 9.87115 18.284C9.8218 18.2021 9.8477 18.096 9.9289 18.0453L11.401 17.1304L9.2961 18.3456C9.21385 18.3939 9.10815 18.3666 9.0588 18.285C9.00945 18.2035 9.0343 18.0978 9.11445 18.0463L13.8031 15.0587L8.10995 18.3456C8.02735 18.3939 7.922 18.3666 7.87265 18.2847C7.8233 18.2035 7.8485 18.0974 7.92865 18.046L13.3463 14.6146L6.8839 18.3452C6.80165 18.3935 6.69595 18.3666 6.64625 18.284C6.5969 18.2024 6.62245 18.0964 6.7033 18.0453L12.5276 14.3895L5.67605 18.3452C5.59275 18.3935 5.48705 18.3659 5.4384 18.2836C5.38905 18.2017 5.4153 18.0953 5.49615 18.0449L10.8785 14.7126L4.5865 18.3449C4.55885 18.361 4.52875 18.3683 4.499 18.3683L4.49725 18.3645Z" fill="#45B1FF"/>
<path d="M3.32949 13.4053C3.27594 13.4053 3.22309 13.3808 3.18914 13.335C3.13629 13.2639 3.14504 13.1642 3.20944 13.1033L3.67739 12.6609L2.94974 13.0809C2.87274 13.1267 2.77264 13.105 2.72014 13.0312C2.66764 12.958 2.67954 12.8569 2.74709 12.7977L3.29554 12.3179L2.67919 12.6735C2.60044 12.72 2.49894 12.6962 2.44784 12.6217C2.39604 12.5464 2.41074 12.4442 2.48109 12.3865L2.75409 12.1635L2.56509 12.2727C2.48704 12.3186 2.38589 12.2962 2.33409 12.2216C2.28229 12.1471 2.29594 12.0452 2.36559 11.9871L2.55144 11.8324C2.47969 11.8653 2.39254 11.8457 2.34179 11.782C2.28789 11.7145 2.29104 11.6172 2.35019 11.5542L2.73974 11.1345C2.69494 11.1237 2.65434 11.0953 2.62949 11.0519C2.58084 10.9683 2.60954 10.8612 2.69354 10.8129L3.46144 10.3691C3.53599 10.3253 3.63119 10.3435 3.68579 10.4114C3.73969 10.479 3.73654 10.5763 3.67739 10.6393L3.39809 10.9399L4.13974 10.5119C4.21814 10.466 4.31894 10.4888 4.37074 10.563C4.42254 10.6372 4.40889 10.7394 4.33924 10.7975L4.15829 10.9483L4.45509 10.7772C4.53384 10.731 4.63534 10.7544 4.68644 10.829C4.73824 10.9042 4.72389 11.0064 4.65319 11.0642L4.37914 11.2882L4.66859 11.1209C4.74629 11.075 4.84604 11.0974 4.89819 11.1706C4.95069 11.2437 4.93879 11.3449 4.87124 11.404L4.32244 11.8842L4.79424 11.6123C4.87054 11.5675 4.96889 11.5874 5.02209 11.6592C5.07494 11.7302 5.06619 11.83 5.00179 11.8909L4.53489 12.3322L4.72739 12.2213C4.81069 12.1726 4.91814 12.2013 4.96644 12.2853C5.01509 12.369 4.98639 12.4761 4.90239 12.5244L3.41699 13.3822C3.38969 13.3983 3.35959 13.4053 3.32949 13.4053Z" fill="#2259AB"/>
<path d="M17.1154 13.4414C17.0643 13.4414 17.0142 13.4193 16.9799 13.3773C16.9257 13.3112 16.9274 13.2153 16.9838 13.1509L17.6901 12.3455L16.5365 13.0112C16.457 13.0574 16.3555 13.034 16.3041 12.958C16.253 12.8821 16.2684 12.7795 16.3405 12.7225L16.421 12.6588L16.3426 12.7039C16.2642 12.7501 16.162 12.7267 16.1109 12.6514C16.0591 12.5762 16.0745 12.4736 16.1455 12.4162L16.3524 12.2496L16.2243 12.3235C16.1483 12.3683 16.0496 12.348 15.9964 12.2766C15.9436 12.2055 15.9523 12.1058 16.0167 12.0449L16.5809 11.5115L16.2369 11.7099C16.1609 11.7544 16.0636 11.7348 16.0104 11.6648C15.9572 11.5948 15.9639 11.4961 16.0265 11.4341L16.3471 11.117C16.3202 11.102 16.2964 11.0799 16.2803 11.0512C16.2316 10.9676 16.2603 10.8605 16.3443 10.8122L17.1122 10.3684C17.1875 10.3239 17.2851 10.3432 17.3387 10.4135C17.3919 10.4835 17.3852 10.5822 17.3226 10.6442L17.2379 10.7278L17.6967 10.4632C17.773 10.4184 17.8714 10.4387 17.9246 10.5101C17.9774 10.5812 17.9687 10.6809 17.9043 10.7418L17.3397 11.2756L18.1356 10.8164C18.214 10.7702 18.3159 10.7936 18.3673 10.8689C18.4191 10.9441 18.4037 11.0467 18.3327 11.1041L18.1272 11.2696L18.3323 11.1513C18.4111 11.1044 18.5133 11.1282 18.5647 11.2045C18.6158 11.2805 18.6004 11.383 18.5283 11.4401L18.4447 11.5062C18.5175 11.4716 18.6046 11.4901 18.6561 11.5528C18.7103 11.6189 18.7086 11.7148 18.6522 11.7792L17.9456 12.5849L18.3225 12.3676C18.4062 12.3186 18.5133 12.3476 18.5616 12.4316C18.6102 12.5153 18.5815 12.6224 18.4975 12.6707L17.2036 13.4176C17.1763 13.4337 17.1462 13.441 17.1161 13.441L17.1154 13.4414Z" fill="#2259AB"/>
<path d="M10.2487 15.9033C10.1916 15.9033 10.136 15.8753 10.1024 15.8242C10.0513 15.7468 10.0698 15.6429 10.1443 15.5876L11.2955 14.7318L9.5763 15.7241C9.49615 15.7713 9.39255 15.7458 9.34215 15.6681C9.29105 15.59 9.31065 15.4857 9.3859 15.4311L11.1859 14.1211L8.926 15.4259C8.8448 15.4735 8.7412 15.4476 8.6908 15.3685C8.6404 15.2894 8.6614 15.1847 8.7384 15.1308L10.5542 13.8624L8.44615 15.0797C8.36495 15.1273 8.261 15.1014 8.2106 15.0213C8.1602 14.9415 8.18225 14.8368 8.25995 14.7836L9.97915 13.6104L8.07375 14.7105C7.99115 14.7577 7.88755 14.7318 7.8375 14.6517C7.78745 14.5715 7.81055 14.4665 7.8886 14.4137L9.38345 13.4109L7.7829 14.3349C7.7024 14.3822 7.5988 14.3566 7.54805 14.2779C7.4973 14.1991 7.51795 14.0952 7.59425 14.0406L10.3932 12.0547L7.45915 13.7487C7.37725 13.7959 7.2733 13.7697 7.22325 13.6899C7.1732 13.6101 7.1956 13.5051 7.274 13.4522L9.06145 12.2454L7.27925 13.2741C7.19875 13.3213 7.0948 13.2958 7.0444 13.217C6.99365 13.1383 7.0143 13.0343 7.0906 12.9797L9.7219 11.1132L7.1361 12.6059C7.05385 12.6542 6.94885 12.6269 6.8995 12.5461C6.84945 12.4652 6.8736 12.3595 6.95305 12.3077L7.0612 12.2374C6.9891 12.2577 6.90965 12.2276 6.868 12.1604C6.81795 12.0802 6.84105 11.9749 6.91945 11.9224L7.66635 11.424L7.1088 11.7456C7.02865 11.7925 6.92505 11.7673 6.8743 11.6893C6.82355 11.6112 6.8435 11.5069 6.9191 11.452L8.6922 10.1773L7.2264 11.0232C7.1459 11.0701 7.043 11.0449 6.9919 10.9669C6.94115 10.8885 6.9611 10.7845 7.0367 10.7296L8.0524 9.99878L7.46475 10.3379C7.3881 10.3834 7.28905 10.3617 7.23585 10.2896C7.18335 10.2172 7.1935 10.1167 7.25965 10.0569L8.2827 9.13008C8.2176 9.13918 8.14445 9.10733 8.1084 9.04398C8.05975 8.96033 8.08845 8.85323 8.17245 8.80493L9.4818 8.04893C9.55915 8.00413 9.65785 8.02548 9.7107 8.09723C9.7632 8.16968 9.75305 8.27013 9.6869 8.32998L8.71075 9.21478L10.9039 7.94848C10.984 7.90088 11.0872 7.92643 11.1384 8.00483C11.1891 8.08323 11.1691 8.18718 11.0935 8.24213L10.0754 8.97468L11.5549 8.12103C11.635 8.07343 11.7379 8.09898 11.7893 8.17738C11.8401 8.25578 11.8202 8.35973 11.7446 8.41468L9.9711 9.68973L12.159 8.42693C12.2405 8.37898 12.3448 8.40523 12.3952 8.48608C12.4453 8.56623 12.4222 8.67158 12.3438 8.72408L11.6004 9.22038L12.5191 8.68978C12.6014 8.64183 12.706 8.66843 12.7557 8.74963C12.8058 8.83048 12.7816 8.93618 12.7022 8.98798L12.6871 8.99778L12.7879 8.93968C12.8691 8.89208 12.9724 8.91798 13.0228 8.99673C13.0735 9.07548 13.0529 9.17943 12.9766 9.23403L10.3463 11.0995L13.2058 9.44893C13.2877 9.40098 13.3913 9.42758 13.4417 9.50773C13.4918 9.58753 13.4693 9.69253 13.391 9.74538L11.6042 10.9515L13.4596 9.88048C13.5401 9.83288 13.6433 9.85878 13.6944 9.93753C13.7452 10.0163 13.7245 10.1202 13.6482 10.1748L10.8492 12.1607L13.7147 10.5063C13.7963 10.4583 13.9006 10.4846 13.951 10.5651C14.001 10.6452 13.9779 10.7502 13.8999 10.8031L12.4039 11.8065L13.8306 10.983C13.9128 10.9357 14.0157 10.9613 14.0661 11.0414C14.1165 11.1212 14.0945 11.2259 14.0168 11.2791L12.2996 12.4509L13.895 11.53C13.9751 11.4828 14.0798 11.5083 14.1302 11.5874C14.1806 11.6665 14.1596 11.7712 14.0826 11.8251L12.2653 13.0945L13.8803 12.1625C13.9604 12.1152 14.0637 12.1408 14.1144 12.2185C14.1655 12.2965 14.1459 12.4008 14.0707 12.4554L12.2702 13.7658L13.7361 12.9195C13.8162 12.873 13.9191 12.8978 13.9699 12.9748C14.021 13.0522 14.0024 13.1561 13.9279 13.2114L12.7771 14.0668L13.4183 13.6969C13.4967 13.651 13.5971 13.6738 13.6489 13.748C13.7011 13.8225 13.6878 13.924 13.6181 13.9825L12.804 14.6664C12.8439 14.6793 12.8796 14.7063 12.902 14.7458C12.9507 14.8295 12.922 14.9366 12.838 14.9849L11.5052 15.7542C11.4271 15.8 11.3263 15.7773 11.2745 15.7031C11.2224 15.6285 11.2356 15.527 11.3053 15.4686L11.8674 14.9961L10.3365 15.8795C10.3092 15.8956 10.2788 15.9029 10.249 15.9029L10.2487 15.9033Z" fill="#2259AB"/>
<path d="M0.484658 9.2736C0.427958 9.2736 0.372308 9.24595 0.338708 9.19485C0.287608 9.1175 0.305458 9.01355 0.379658 8.95825L1.38241 8.2075L0.447908 8.74685C0.367408 8.79375 0.264158 8.76855 0.213758 8.69085C0.162658 8.61245 0.182258 8.5085 0.257508 8.4539L1.03591 7.8883L0.447908 8.2278C0.368458 8.274 0.266258 8.2502 0.215158 8.17425C0.164058 8.0976 0.180158 7.9947 0.252958 7.93835L1.41951 7.03255L0.447908 7.5936C0.371608 7.63875 0.272208 7.6181 0.219708 7.546C0.166858 7.47425 0.176308 7.37415 0.241758 7.3136L1.07721 6.54185L0.447908 6.90515C0.378958 6.9454 0.291808 6.9335 0.235808 6.8768C0.180158 6.8201 0.169658 6.7326 0.210258 6.66435L0.547658 6.0984C0.464008 6.1467 0.357608 6.1173 0.309658 6.03365C0.261008 5.95 0.289708 5.8429 0.373708 5.7946L0.954008 5.45965C1.02261 5.4194 1.11011 5.43165 1.16611 5.488C1.22176 5.5447 1.23226 5.6322 1.19166 5.70045L0.854608 6.26605L2.26196 5.4537C2.33896 5.40925 2.43766 5.4299 2.49016 5.5013C2.54301 5.57305 2.53356 5.67315 2.46811 5.7337L1.63266 6.5051L3.46176 5.44915C3.54086 5.4026 3.64376 5.42675 3.69451 5.5027C3.74561 5.57935 3.72951 5.68225 3.65671 5.7386L2.48981 6.64475L3.75191 5.91605C3.83206 5.86845 3.93566 5.89435 3.98606 5.97205C4.03716 6.05045 4.01756 6.1544 3.94231 6.209L3.16216 6.776L3.75191 6.43545C3.83101 6.3882 3.93426 6.41305 3.98536 6.4904C4.03646 6.56775 4.01861 6.6717 3.94441 6.727L2.94166 7.47775L3.68786 7.04725C3.76591 7.00175 3.86671 7.02415 3.91851 7.09835C3.97031 7.17255 3.95736 7.27405 3.88806 7.3325L3.16041 7.94675L3.35081 7.8372C3.43411 7.7882 3.54156 7.81725 3.58986 7.90125C3.63851 7.9849 3.60981 8.092 3.52581 8.1403L1.63126 9.23405C1.55356 9.28025 1.45276 9.25715 1.40061 9.18295C1.34881 9.10875 1.36176 9.00725 1.43106 8.9488L2.15836 8.33455L0.572508 9.25015C0.545208 9.26625 0.514758 9.2736 0.485008 9.2736H0.484658Z" fill="#2259AB"/>
<path d="M17.4537 18.3739C17.3974 18.3739 17.3424 18.3466 17.3088 18.2969C17.2574 18.2206 17.2735 18.1177 17.3456 18.061L18.5898 17.0852L17.2479 17.8598C17.1688 17.9063 17.0663 17.8825 17.0148 17.8059C16.9637 17.7289 16.9805 17.6256 17.0537 17.5696L18.4236 16.5175L17.2525 17.1934C17.1748 17.2396 17.0743 17.2168 17.0218 17.1426C16.97 17.0684 16.983 16.9669 17.0519 16.9085L18.3256 15.8273L17.4492 16.3331C17.3715 16.3782 17.2714 16.3565 17.2189 16.2827C17.1667 16.2092 17.1793 16.1077 17.2476 16.0489L17.7806 15.5907C17.7526 15.5757 17.7285 15.5533 17.7117 15.5239C17.663 15.4402 17.6917 15.3331 17.7757 15.2848L18.8898 14.6415C18.9668 14.5957 19.0669 14.6177 19.1201 14.6919C19.1722 14.7654 19.1596 14.8669 19.0914 14.9257L18.8957 15.0937L19.8288 14.5551C19.9072 14.5092 20.007 14.5316 20.0595 14.6058C20.1113 14.68 20.0983 14.7815 20.0294 14.84L18.7557 15.9211L20.5516 14.8844C20.631 14.8379 20.7332 14.8617 20.7847 14.9383C20.8358 15.0153 20.819 15.1186 20.7458 15.1746L19.3773 16.226L20.5516 15.5477C20.6303 15.5008 20.7329 15.5253 20.784 15.6009C20.8354 15.6772 20.8193 15.7801 20.7472 15.8368L19.5023 16.8133L20.5516 16.2078C20.63 16.1619 20.7308 16.1843 20.7826 16.2592C20.8344 16.3338 20.8204 16.436 20.7504 16.4937L20.1379 17.0005L20.5516 16.7618C20.6247 16.7188 20.7192 16.7356 20.7738 16.8014C20.8281 16.8672 20.8274 16.9624 20.7717 17.0275L20.3444 17.5252L20.5467 17.4083C20.6296 17.3593 20.7374 17.3883 20.7857 17.4723C20.8344 17.556 20.8057 17.6631 20.7217 17.7114L19.6297 18.3421C19.5565 18.3851 19.462 18.3683 19.4074 18.3025C19.3532 18.2367 19.3539 18.1415 19.4095 18.0764L19.8369 17.5787L18.5079 18.3459C18.4295 18.3921 18.3287 18.3694 18.2769 18.2945C18.2251 18.2199 18.2391 18.1177 18.3091 18.06L18.922 17.5528L17.5412 18.3498C17.5139 18.3659 17.4835 18.3732 17.4537 18.3732V18.3739Z" fill="#2259AB"/>
<path d="M1.43059 18.3645C1.37529 18.3645 1.32104 18.3382 1.28709 18.2896C1.23529 18.2154 1.24894 18.1135 1.31859 18.0551L2.02384 17.465L0.734444 18.2094C0.656044 18.2553 0.555594 18.2325 0.503794 18.1583C0.451644 18.0838 0.465294 17.9819 0.534594 17.9238L1.74874 16.906L0.448494 17.6568C0.370794 17.7026 0.271044 17.6802 0.218894 17.6071C0.166744 17.5343 0.177944 17.4331 0.245494 17.3736L1.48519 16.2844L0.448144 16.8829C0.371844 16.9281 0.273144 16.9071 0.219944 16.8353C0.167094 16.7636 0.176544 16.6635 0.241644 16.6029L1.07324 15.8336L0.448144 16.1945C0.375344 16.2375 0.281194 16.2207 0.226594 16.1556C0.171994 16.0905 0.171994 15.9957 0.226594 15.9306L0.703994 15.3611L0.448144 15.5088C0.386194 15.5445 0.309544 15.5393 0.253894 15.4962C0.197894 15.4528 0.173394 15.38 0.191594 15.3118L0.284344 14.9691C0.253894 14.9544 0.227294 14.9306 0.208744 14.8991C0.160444 14.8155 0.189144 14.7084 0.273144 14.6597L0.448144 14.5589C0.510094 14.5236 0.586394 14.5288 0.642394 14.5719C0.698744 14.6153 0.722894 14.6881 0.704694 14.7563L0.640294 14.994L1.38789 14.5628C1.46104 14.5201 1.55484 14.5362 1.60944 14.6016C1.66404 14.6667 1.66404 14.7616 1.60944 14.8267L1.13239 15.3961L2.25274 14.749C2.32974 14.7045 2.42809 14.7252 2.48094 14.7966C2.53379 14.8683 2.52434 14.9684 2.45924 15.029L1.62729 15.7983L2.84074 15.0979C2.91844 15.0528 3.01819 15.0741 3.07034 15.1476C3.12249 15.2204 3.11129 15.3216 3.04374 15.3811L1.80369 16.471L3.31114 15.6009C3.38989 15.5547 3.48999 15.5778 3.54179 15.652C3.59394 15.7265 3.58029 15.8284 3.51099 15.8865L2.29684 16.9039L3.59884 16.1528C3.67724 16.1066 3.77769 16.1297 3.82984 16.2039C3.88164 16.2781 3.86799 16.38 3.79834 16.4384L3.09274 17.0285L3.72659 16.6628C3.79834 16.6208 3.89004 16.6355 3.94499 16.6981C3.99994 16.7601 4.00414 16.8521 3.95444 16.919L3.43609 17.6144L3.75669 17.4296C3.81829 17.3939 3.89529 17.3988 3.95129 17.4426C4.00764 17.486 4.03179 17.5591 4.01289 17.6277L3.92854 17.9333C3.95794 17.948 3.98349 17.9711 4.00099 18.0019C4.04964 18.0855 4.02094 18.1926 3.93694 18.2409L3.76299 18.3414C3.70174 18.3767 3.62439 18.3715 3.56839 18.3284C3.51204 18.285 3.48789 18.2119 3.50679 18.1433L3.56104 17.9466L2.87644 18.3417C2.80539 18.3837 2.71334 18.369 2.65804 18.3064C2.60309 18.2444 2.59889 18.1524 2.64859 18.0855L3.16694 17.3901L1.51844 18.3417C1.49114 18.3578 1.46069 18.3652 1.43094 18.3652L1.43059 18.3645Z" fill="#2259AB"/>
<path d="M19.639 9.26449C19.5876 9.26449 19.5368 9.24174 19.5025 9.19904C19.4486 9.13184 19.4514 9.03489 19.5099 8.97154L19.7517 8.70659L18.9989 9.14129C18.9219 9.18679 18.8218 9.16544 18.7689 9.09159C18.7168 9.01809 18.7287 8.91694 18.7962 8.85779L19.1711 8.53089L18.4882 8.92499C18.4088 8.97119 18.3076 8.94774 18.2562 8.87214C18.2047 8.79654 18.2198 8.69399 18.2919 8.63694L18.7108 8.30269L18.1011 8.65444C18.022 8.70064 17.9212 8.67754 17.8694 8.60229C17.818 8.52704 17.8327 8.42449 17.9037 8.36709L18.7962 7.64504L17.7336 8.25859C17.6552 8.30479 17.5537 8.28169 17.5019 8.20644C17.4505 8.13119 17.4652 8.02899 17.5359 7.97124L18.6275 7.08539L17.447 7.76684C17.3668 7.81339 17.2646 7.78924 17.2135 7.71189C17.1624 7.63454 17.1803 7.53094 17.2545 7.47529L17.5852 7.22714L17.3199 7.38044C17.2405 7.42664 17.1393 7.40319 17.0879 7.32759C17.0364 7.25199 17.0515 7.14944 17.1236 7.09239L17.3255 6.93104L17.2569 6.97059C17.1824 7.01434 17.0865 6.99579 17.0322 6.92789C16.978 6.85999 16.9822 6.76269 17.0413 6.69969L17.3665 6.35319L17.2482 6.42109C17.1862 6.45644 17.1099 6.45084 17.0543 6.40884C16.9979 6.36579 16.9734 6.29299 16.9913 6.22509L17.0858 5.87019C17.0546 5.85549 17.0273 5.83169 17.0088 5.79949C16.9605 5.71584 16.9892 5.60874 17.0732 5.56009L17.2482 5.45929C17.3094 5.42464 17.3861 5.42884 17.4421 5.47224C17.4984 5.51494 17.5229 5.58774 17.5051 5.65564L17.4382 5.90729L18.2145 5.45964C18.2894 5.41589 18.385 5.43444 18.4392 5.50234C18.4935 5.57024 18.4893 5.66754 18.4301 5.73054L18.105 6.07704L19.1753 5.45929C19.2537 5.41274 19.3559 5.43619 19.4073 5.51214C19.4588 5.58774 19.4437 5.69029 19.3716 5.74734L19.1707 5.90799L19.9376 5.46489C20.0167 5.41799 20.1199 5.44214 20.171 5.51984C20.2221 5.59719 20.2043 5.70079 20.1301 5.75644L19.7976 6.00564L20.3646 5.67839C20.4433 5.63219 20.5445 5.65529 20.5963 5.73054C20.6477 5.80579 20.633 5.90799 20.5623 5.96574L19.471 6.85124L20.5529 6.22684C20.6313 6.18064 20.7328 6.20374 20.7846 6.27899C20.836 6.35424 20.8213 6.45679 20.7503 6.51419L19.8578 7.23589L20.555 6.83374C20.6337 6.78684 20.7352 6.81099 20.787 6.88659C20.8385 6.96219 20.8234 7.06474 20.7513 7.12179L20.3331 7.45569L20.5567 7.32689C20.6344 7.28209 20.7338 7.30309 20.7867 7.37659C20.8388 7.45009 20.8269 7.55124 20.7594 7.61039L20.3849 7.93694L20.5588 7.83684C20.633 7.79344 20.7286 7.81164 20.7828 7.87849C20.8367 7.94569 20.8339 8.04264 20.7755 8.10599L20.5329 8.37164L20.5609 8.35554C20.6239 8.31984 20.7009 8.32544 20.7569 8.36954C20.8133 8.41399 20.8367 8.48819 20.8164 8.55679L20.7338 8.83434C20.7615 8.84939 20.7849 8.87144 20.8017 8.90049C20.8504 8.98414 20.8217 9.09124 20.7377 9.13954L20.563 9.24034C20.5007 9.27674 20.4234 9.27079 20.367 9.22634C20.3107 9.18189 20.2872 9.10769 20.3075 9.03909L20.3555 8.87809L19.7272 9.24034C19.6999 9.25644 19.6698 9.26379 19.6397 9.26379L19.639 9.26449Z" fill="#2259AB"/>
<path d="M20.9052 14.6878C20.9052 12.0736 20.9052 9.4514 20.9052 6.83445C20.9654 6.2608 20.8576 5.52125 20.208 5.4768C20.2773 4.89755 20.1902 4.15275 19.5052 4.0537C19.6036 3.41145 19.41 2.63095 18.6267 2.67365C16.938 2.67015 15.2482 2.6761 13.5591 2.67365C10.2407 2.67365 6.92238 2.67365 3.60403 2.67365C2.56278 2.58825 1.23628 2.6635 1.49213 4.0817C0.844984 4.23115 0.732984 4.9273 0.792134 5.4971C-0.520716 5.8912 0.319984 8.77625 0.094934 9.91095C0.094934 12.404 0.084084 14.8971 0.094934 17.3898C0.056434 18.0817 0.647234 18.4657 1.30208 18.3624C7.32663 18.361 13.3582 18.3652 19.3705 18.3624C21.6231 18.6512 20.7719 16.0808 20.9052 14.6878ZM20.3949 6.3588V8.97855C18.4496 9.28865 17.1039 7.6167 17.4035 5.7624C18.2463 5.94965 20.1716 5.2458 20.3949 6.3588ZM2.48438 2.92635C7.33748 2.92075 12.1976 2.9302 17.0531 2.92635C17.953 2.9337 19.2347 2.6544 19.0033 4.02325C13.3361 4.03305 7.66893 4.02325 2.00173 4.02675C1.99158 3.58155 1.94188 2.97535 2.48438 2.92635ZM1.66083 4.37325C6.95458 4.3694 12.2599 4.3757 17.5578 4.37325C18.4713 4.4373 19.9508 3.97985 19.6981 5.4341C13.5654 5.44355 7.43478 5.4341 1.30208 5.4376C1.28528 5.0505 1.23628 4.47405 1.66083 4.37325ZM0.614334 6.16035C0.898184 5.33925 2.85398 5.9206 3.59668 5.7624C3.90713 7.735 2.64713 9.26065 0.605234 8.93935C0.622034 8.01395 0.575134 7.0805 0.614334 6.16035ZM1.16978 18.0376C0.114884 17.8567 0.770434 15.6629 0.605234 14.8526C2.54843 14.5282 3.90153 16.1812 3.59563 18.0376C2.78993 18.017 1.97338 18.0863 1.16978 18.0376ZM6.16078 18.0376H4.10593C4.46048 15.7969 2.82808 14.216 0.604884 14.5422V9.26345C2.72133 9.5823 4.46678 7.89425 4.10488 5.7624H16.8956C16.5379 8.0171 18.1717 9.55185 20.3949 9.226V14.5072C18.2578 14.1757 16.532 15.8988 16.8928 18.0376H6.16078ZM19.9907 18.0376C19.1437 18.1255 18.2585 18.0012 17.4056 18.0376C17.0955 16.0724 18.3691 14.5695 20.3949 14.8908C20.2455 15.6398 20.8051 17.7625 19.9907 18.0376Z" fill="#262626"/>
<path d="M4.20131 10.4269C1.81816 9.74541 1.43526 13.853 3.95596 13.3987C5.37136 13.1124 5.59606 10.9036 4.20131 10.4269ZM4.02001 13.1002C2.46216 13.5699 2.20001 10.38 3.83451 10.6845C4.81136 11.0159 4.93456 12.6277 4.02001 13.1002Z" fill="#262626"/>
<path d="M17.5956 13.3595C19.0117 13.0977 19.2528 10.8945 17.8465 10.4433C15.4865 9.81401 15.0735 13.8348 17.5956 13.3595ZM16.5071 11.1734C17.6096 9.35201 19.1888 12.4527 17.6481 13.1513C16.638 13.4022 16.0594 11.9476 16.5071 11.1734Z" fill="#262626"/>
<path d="M11.7404 8.0927C5.6931 6.41095 4.89685 16.6477 11.1447 15.8322C14.8887 15.1473 15.337 9.3345 11.7404 8.0927ZM11.6683 15.3713C6.31995 17.0747 5.6287 7.399 11.1496 8.29885C14.3059 9.1105 14.6391 14.0917 11.6683 15.3713Z" fill="#262626"/>
</svg>
