<svg width="24" height="24" viewBox="0 0 24 24" fill="none" xmlns="http://www.w3.org/2000/svg">
<path fill-rule="evenodd" clip-rule="evenodd" d="M13.9256 5V5.64735C13.9256 6.35774 14.3086 7.01296 14.9275 7.36162C15.527 7.69933 16.2594 7.69933 16.8589 7.36162L17.5982 6.94513C18.0794 6.67406 18.6975 6.83964 18.9788 7.31494L19.7778 8.66531C20.0591 9.14062 19.897 9.74567 19.4158 10.0167L18.4454 10.5634C17.9338 10.8516 17.6173 11.3931 17.6173 11.9803C17.6173 12.5675 17.9338 13.109 18.4454 13.3972L19.4156 13.9438C19.8968 14.2148 20.0588 14.8199 19.7776 15.2952L18.9785 16.6455C18.6973 17.1209 18.0792 17.2864 17.598 17.0154L16.8589 16.599C16.2593 16.2613 15.5269 16.2613 14.9274 16.599C14.3084 16.9477 13.9254 17.6029 13.9254 18.3134V18.9605C13.9254 19.5128 13.4777 19.9605 12.9254 19.9605H11.2903C10.738 19.9605 10.2903 19.5128 10.2903 18.9605V18.4006C10.2903 17.6361 9.87821 16.931 9.21214 16.5558C8.56699 16.1924 7.77886 16.1924 7.13371 16.5558L6.31786 17.0154C5.83667 17.2864 5.21859 17.1209 4.93734 16.6456L4.13828 15.2952C3.85703 14.8199 4.01911 14.2148 4.5003 13.9438L5.91821 13.145C6.33873 12.9081 6.59891 12.463 6.59891 11.9803C6.59891 11.4977 6.33873 11.0525 5.91821 10.8156L4.50009 10.0167C4.0189 9.74568 3.85682 9.14063 4.13808 8.66532L4.93713 7.31495C5.21838 6.83964 5.83647 6.67407 6.31766 6.94514L7.13348 7.40471C7.77872 7.76818 8.56696 7.76818 9.2122 7.40471C9.87837 7.02944 10.2905 6.32423 10.2905 5.55964V5C10.2905 4.44771 10.7382 4 11.2905 4H12.1081H12.9256C13.4779 4 13.9256 4.44772 13.9256 5Z" fill="#CCEDFA"/>
<path fill-rule="evenodd" clip-rule="evenodd" d="M9.44051 4.9999C9.44051 3.97817 10.2688 3.1499 11.2905 3.1499H12.9256C13.9474 3.1499 14.7756 3.97818 14.7756 4.9999V5.64725C14.7756 6.05075 14.9931 6.42291 15.3447 6.62095C15.6852 6.81276 16.1012 6.81276 16.4417 6.62094L17.181 6.20445C18.0651 5.70645 19.1936 6.00874 19.7103 6.88198L20.5093 8.23235C21.0333 9.11777 20.7294 10.2523 19.833 10.7572L18.8626 11.3039C18.6184 11.4414 18.4673 11.6999 18.4673 11.9802C18.4673 12.2605 18.6184 12.519 18.8626 12.6565L19.8328 13.2031C20.7291 13.708 21.033 14.8425 20.5091 15.7279L19.7101 17.0783C19.1933 17.9516 18.0649 18.2538 17.1808 17.7558L16.4417 17.3395C16.1011 17.1476 15.6851 17.1476 15.3445 17.3395C14.9929 17.5375 14.7754 17.9097 14.7754 18.3133V18.9604C14.7754 19.9822 13.9471 20.8104 12.9254 20.8104H11.2903C10.2686 20.8104 9.4403 19.9822 9.4403 18.9604V18.4005C9.4403 17.9429 9.19364 17.5209 8.79495 17.2963C8.40879 17.0787 7.93705 17.0787 7.55089 17.2963L6.73504 17.7558C5.85099 18.2539 4.72254 17.9516 4.20581 17.0783L3.40676 15.728C2.88283 14.8425 3.18674 13.708 4.08312 13.2031L5.50103 12.4043C5.65416 12.3181 5.74891 12.156 5.74891 11.9802C5.74891 11.8045 5.65416 11.6423 5.50103 11.5561L4.08291 10.7572C3.18653 10.2523 2.88262 9.11777 3.40655 8.23236L4.20561 6.88199C4.72233 6.00874 5.85079 5.70645 6.73484 6.20446L7.55066 6.66403C7.93691 6.88161 8.40877 6.88161 8.79502 6.66403C9.19379 6.43939 9.44051 6.01724 9.44051 5.55954V4.9999ZM11.2905 4.8499C11.2077 4.8499 11.1405 4.91706 11.1405 4.9999V5.55954C11.1405 6.63102 10.5629 7.6193 9.62939 8.14519C8.72516 8.65456 7.62053 8.65456 6.71629 8.14519L5.90047 7.68562C5.82214 7.64149 5.71444 7.67035 5.66866 7.74772L4.8696 9.09809C4.83102 9.16328 4.85127 9.23888 4.91728 9.27606L6.3354 10.0749C7.0233 10.4624 7.44891 11.1907 7.44891 11.9802C7.44891 12.7698 7.0233 13.498 6.3354 13.8855L4.91748 14.6842C4.85148 14.7214 4.83123 14.797 4.86981 14.8622L5.66886 16.2126C5.71464 16.29 5.82235 16.3188 5.90068 16.2747L6.71652 15.8151C7.62066 15.3058 8.72518 15.3058 9.62932 15.8151C10.5628 16.3409 11.1403 17.3291 11.1403 18.4005V18.9604C11.1403 19.0433 11.2075 19.1104 11.2903 19.1104H12.9254C13.0083 19.1104 13.0754 19.0433 13.0754 18.9604V18.3133C13.0754 17.296 13.6238 16.3576 14.5102 15.8583C15.3687 15.3747 16.4175 15.3747 17.2761 15.8583L18.0152 16.2747C18.0935 16.3188 18.2012 16.29 18.247 16.2126L19.0461 14.8622C19.0846 14.797 19.0644 14.7214 18.9984 14.6842L18.0282 14.1377C17.2492 13.6989 16.7673 12.8743 16.7673 11.9802C16.7673 11.0862 17.2492 10.2615 18.0282 9.82271L18.9986 9.27606C19.0646 9.23887 19.0849 9.16328 19.0463 9.09808L18.2472 7.74771C18.2014 7.67034 18.0937 7.64149 18.0154 7.68561L17.2761 8.1021C16.4176 8.58571 15.3688 8.58571 14.5103 8.1021C13.624 7.60282 13.0756 6.66453 13.0756 5.64725V4.9999C13.0756 4.91706 13.0085 4.8499 12.9256 4.8499H11.2905Z" fill="#3CA2F7"/>
<path fill-rule="evenodd" clip-rule="evenodd" d="M11.9382 12.9402C12.4684 12.9402 12.8983 12.5104 12.8983 11.9802C12.8983 11.4499 12.4684 11.0201 11.9382 11.0201C11.4079 11.0201 10.9781 11.4499 10.9781 11.9802C10.9781 12.5104 11.4079 12.9402 11.9382 12.9402ZM11.9382 14.6402C13.4073 14.6402 14.5983 13.4493 14.5983 11.9802C14.5983 10.511 13.4073 9.32007 11.9382 9.32007C10.469 9.32007 9.27808 10.511 9.27808 11.9802C9.27808 13.4493 10.469 14.6402 11.9382 14.6402Z" fill="black"/>
</svg>
