<svg width="26" height="21" viewBox="0 0 26 21" fill="none" xmlns="http://www.w3.org/2000/svg">
<path d="M10.0091 13.854H18.0952C19.5713 13.854 20.7718 12.6607 20.7718 11.1834V2.67656C20.7718 1.20046 19.5713 0 18.0952 0H2.67068C1.20046 0 0 1.20046 0 2.67656V11.1834C0 12.6595 1.20046 13.854 2.67068 13.854H4.50492L4.55558 13.9235L4.03368 16.0217C3.8876 16.5541 4.33527 17.1255 4.88777 17.109C5.0633 17.109 5.24002 17.0584 5.39081 16.9524L9.58827 13.9931C9.71432 13.9047 9.85804 13.8552 10.0088 13.8552L10.0091 13.854ZM3.34955 6.93056C3.41434 4.44367 7.05934 4.44484 7.11936 6.93056C7.05456 9.41511 3.41801 9.41511 3.34955 6.93056ZM15.5321 8.81547C13.0463 8.74714 13.0475 5.10929 15.5321 5.04566C18.0178 5.10574 18.0178 8.75063 15.5321 8.81547ZM10.3864 5.04566C12.871 5.11045 12.871 8.74701 10.3864 8.81547C7.89952 8.75068 7.9007 5.10568 10.3864 5.04566Z" fill="#353535"/>
<path d="M22.7131 3.80166C21.8931 3.75925 21.7824 4.95615 22.6 5.05866C23.3292 5.1211 23.8758 5.72426 23.8758 6.45937V14.9662C23.8758 15.7449 23.2408 16.3798 22.4621 16.3798H20.6279C19.7974 16.3622 19.1341 17.2151 19.3591 18.0138L19.636 19.12L16.2748 16.7509C15.9355 16.5118 15.5397 16.3798 15.125 16.3798H8.5903C8.23805 16.3798 7.9624 16.6626 7.9624 17.0077C7.9624 17.36 8.23925 17.6356 8.5903 17.6356H15.125C15.2817 17.6356 15.4207 17.6863 15.5527 17.7735L19.7432 20.7328C20.377 21.2146 21.3159 20.5572 21.1003 19.8033L20.5784 17.711L19.9694 17.8618L20.6291 17.6357H22.4633C23.9336 17.6357 25.134 16.4423 25.134 14.965V6.45817C25.134 5.06923 24.0973 3.92652 22.7155 3.80046L22.7131 3.80166Z" fill="#353535"/>
<path d="M5.86223 6.93059C5.85045 6.10476 4.62055 6.10476 4.60522 6.93059C4.62054 7.75642 5.85044 7.75524 5.86223 6.93059Z" fill="#353535"/>
<path d="M10.386 7.55844C11.2118 7.54313 11.2118 6.31793 10.386 6.30144C9.56014 6.31675 9.56014 7.54195 10.386 7.55844Z" fill="#353535"/>
<path d="M15.5317 6.30251C14.7059 6.31782 14.7059 7.54301 15.5317 7.55951C16.3576 7.5442 16.3576 6.319 15.5317 6.30251Z" fill="#353535"/>
</svg>
