<svg width="26" height="20" viewBox="0 0 26 20" fill="none" xmlns="http://www.w3.org/2000/svg">
<path d="M15.9629 10.6355H21.5711V9.25993H15.9629V10.6355ZM15.9629 6.8252H21.5711V5.44965H15.9629V6.8252ZM4.42892 14.5503H13.5296V14.322C13.5296 13.5196 13.1261 12.8983 12.3191 12.4581C11.5121 12.0179 10.3988 11.7978 8.97925 11.7978C7.55968 11.7978 6.44594 12.0179 5.63803 12.4581C4.83012 12.8983 4.42708 13.5196 4.42892 14.322V14.5503ZM8.97925 9.57631C9.55974 9.57631 10.0485 9.37777 10.4456 8.9807C10.8436 8.5827 11.0426 8.09346 11.0426 7.51298C11.0426 6.93249 10.8436 6.44371 10.4456 6.04664C10.0476 5.64956 9.55882 5.45056 8.97925 5.44965C8.39969 5.44873 7.9109 5.64773 7.51291 6.04664C7.11492 6.44555 6.91592 6.93433 6.91592 7.51298C6.91592 8.09163 7.11492 8.58087 7.51291 8.9807C7.9109 9.38052 8.39969 9.57906 8.97925 9.57631ZM2.8429 19.6289C2.20923 19.6289 1.68056 19.417 1.25689 18.9934C0.833214 18.5697 0.62092 18.0406 0.620003 17.406V2.59399C0.620003 1.96032 0.832297 1.43165 1.25689 1.00798C1.68147 0.584305 2.20969 0.372011 2.84152 0.371094H23.1585C23.7912 0.371094 24.3195 0.583388 24.7431 1.00798C25.1668 1.43256 25.3791 1.96124 25.38 2.59399V17.4073C25.38 18.0401 25.1677 18.5688 24.7431 18.9934C24.3185 19.418 23.7903 19.6298 23.1585 19.6289H2.8429Z" fill="#49B6F4"/>
</svg>
