<svg width="45" height="45" viewBox="0 0 45 45" fill="none" xmlns="http://www.w3.org/2000/svg">
<rect x="0.766724" y="0.869141" width="43.3697" height="43.3697" rx="21.6849" fill="#F9F5FE"/>
<path opacity="0.992" fill-rule="evenodd" clip-rule="evenodd" d="M17.1368 11.8803C21.3178 11.8727 25.4988 11.8803 29.6798 11.9031C31.1177 12.2007 31.9463 13.0749 32.1656 14.5257C32.2107 20.0155 32.1954 25.504 32.12 30.9914C31.7943 32.2749 30.9809 33.0427 29.6798 33.2947C25.4988 33.3252 21.3178 33.3252 17.1368 33.2947C15.7593 33.0119 14.9307 32.1834 14.651 30.8089C14.6282 30.0185 14.6206 29.2279 14.6282 28.4371C14.2022 28.4447 13.7765 28.4371 13.351 28.4143C12.7785 28.1566 12.5732 27.7233 12.7353 27.1144C12.8536 26.7984 13.074 26.5932 13.3966 26.4987C13.8069 26.4759 14.2174 26.4683 14.6282 26.4759C14.6282 25.518 14.6282 24.5602 14.6282 23.6024C14.2478 23.6099 13.8677 23.6024 13.4879 23.5796C12.974 23.4575 12.7003 23.1306 12.6669 22.5989C12.7003 22.0672 12.974 21.7403 13.4879 21.6183C13.8677 21.5955 14.2478 21.5879 14.6282 21.5955C14.6282 20.6376 14.6282 19.6798 14.6282 18.722C14.2174 18.7295 13.8069 18.722 13.3966 18.6992C12.7034 18.3831 12.5133 17.8738 12.8265 17.1712C12.9628 16.9892 13.1377 16.8599 13.351 16.7835C13.7765 16.7607 14.2022 16.7531 14.6282 16.7607C14.6206 15.9699 14.6282 15.1794 14.651 14.3889C14.9404 13.0124 15.7691 12.1762 17.1368 11.8803ZM23.0662 17.7641C24.1949 17.7004 24.9322 18.2021 25.2784 19.2693C25.4144 20.1241 25.1331 20.8006 24.4346 21.299C23.3692 21.8365 22.4797 21.6312 21.7663 20.6832C21.2692 19.6872 21.444 18.8282 22.2908 18.1062C22.5358 17.9515 22.7943 17.8374 23.0662 17.7641ZM21.1505 23.6024C22.6558 23.5947 24.161 23.6024 25.6661 23.6252C26.6683 23.8597 27.2005 24.4906 27.2624 25.518C27.2005 26.5455 26.6683 27.1764 25.6661 27.4109C24.1609 27.4413 22.6557 27.4413 21.1505 27.4109C20.3306 27.2295 19.8061 26.7353 19.577 25.9285C19.462 24.7142 19.9865 23.9388 21.1505 23.6024Z" fill="#49B6F4"/>
</svg>
