<svg width="88" height="93" viewBox="0 0 88 93" fill="none" xmlns="http://www.w3.org/2000/svg">
<g filter="url(#filter0_d_157_1480)">
<rect x="20" y="3" width="48" height="48" rx="24" fill="#E6F8FB"/>
</g>
<g filter="url(#filter1_d_157_1480)">
<rect x="20" y="3" width="48" height="48" rx="12" fill="#E6F8FB"/>
</g>
<path d="M57 18.3333C57 15.9435 55.0565 14 52.6667 14H35.3333C32.9435 14 31 15.9435 31 18.3333C31 20.3462 32.3856 22.0286 34.25 22.5128V34.5833C34.25 37.5701 36.6799 40 39.6667 40H48.3333C51.3201 40 53.75 37.5701 53.75 34.5833V22.5128C55.6144 22.0286 57 20.3462 57 18.3333ZM33.1667 18.3333C33.1667 17.5349 33.6054 16.8438 34.25 16.4678V20.1978C33.6054 19.8218 33.1667 19.1318 33.1667 18.3333ZM36.4167 34.5833V16.1667H39.6667V37.8333C37.8748 37.8333 36.4167 36.3752 36.4167 34.5833ZM51.5833 34.5833C51.5833 36.3752 50.1252 37.8333 48.3333 37.8333H41.8333V16.1667H51.5833V34.5833ZM53.75 20.1988V16.4678C54.3946 16.8438 54.8333 17.5349 54.8333 18.3333C54.8333 19.1318 54.3946 19.8229 53.75 20.1988ZM49.4167 34.0417C49.4167 34.9387 48.6887 35.6667 47.7917 35.6667C46.8947 35.6667 46.1667 34.9387 46.1667 34.0417C46.1667 33.1447 46.8947 32.4167 47.7917 32.4167C48.6887 32.4167 49.4167 33.1447 49.4167 34.0417Z" fill="#61D6E7"/>
<path d="M29.0468 74V65.06H31.9748C32.8788 65.06 33.6668 65.244 34.3388 65.612C35.0108 65.98 35.5308 66.5 35.8988 67.172C36.2668 67.836 36.4508 68.62 36.4508 69.524C36.4508 70.42 36.2668 71.204 35.8988 71.876C35.5308 72.548 35.0108 73.072 34.3388 73.448C33.6668 73.816 32.8788 74 31.9748 74H29.0468ZM30.2228 72.92H31.9868C32.6508 72.92 33.2228 72.78 33.7028 72.5C34.1908 72.22 34.5668 71.828 34.8308 71.324C35.0948 70.812 35.2268 70.212 35.2268 69.524C35.2268 68.828 35.0908 68.228 34.8188 67.724C34.5548 67.22 34.1788 66.832 33.6908 66.56C33.2108 66.28 32.6428 66.14 31.9868 66.14H30.2228V72.92ZM40.7853 74.144C40.1613 74.144 39.6053 73.996 39.1173 73.7C38.6293 73.404 38.2453 73 37.9653 72.488C37.6853 71.968 37.5453 71.388 37.5453 70.748C37.5453 70.1 37.6813 69.524 37.9533 69.02C38.2333 68.516 38.6093 68.12 39.0813 67.832C39.5613 67.536 40.0973 67.388 40.6893 67.388C41.1693 67.388 41.5933 67.476 41.9613 67.652C42.3373 67.82 42.6533 68.052 42.9093 68.348C43.1733 68.636 43.3733 68.968 43.5093 69.344C43.6533 69.712 43.7253 70.096 43.7253 70.496C43.7253 70.584 43.7173 70.684 43.7013 70.796C43.6933 70.9 43.6813 71 43.6653 71.096H38.3613V70.136H43.0173L42.4893 70.568C42.5613 70.152 42.5213 69.78 42.3693 69.452C42.2173 69.124 41.9933 68.864 41.6973 68.672C41.4013 68.48 41.0653 68.384 40.6893 68.384C40.3133 68.384 39.9693 68.48 39.6573 68.672C39.3453 68.864 39.1013 69.14 38.9253 69.5C38.7573 69.852 38.6893 70.272 38.7213 70.76C38.6893 71.232 38.7613 71.648 38.9373 72.008C39.1213 72.36 39.3773 72.636 39.7053 72.836C40.0413 73.028 40.4053 73.124 40.7973 73.124C41.2293 73.124 41.5933 73.024 41.8893 72.824C42.1853 72.624 42.4253 72.368 42.6093 72.056L43.5453 72.536C43.4173 72.832 43.2173 73.104 42.9453 73.352C42.6813 73.592 42.3653 73.784 41.9973 73.928C41.6373 74.072 41.2333 74.144 40.7853 74.144ZM48.5284 74.144C48.0084 74.144 47.5324 74.028 47.1004 73.796C46.6764 73.564 46.3484 73.236 46.1164 72.812L46.2724 72.62V74H45.1804V64.916H46.2964V68.924L46.1284 68.648C46.3684 68.264 46.6964 67.96 47.1124 67.736C47.5284 67.504 48.0044 67.388 48.5404 67.388C49.1484 67.388 49.6924 67.536 50.1724 67.832C50.6604 68.128 51.0444 68.532 51.3244 69.044C51.6044 69.548 51.7444 70.124 51.7444 70.772C51.7444 71.404 51.6044 71.976 51.3244 72.488C51.0444 73 50.6604 73.404 50.1724 73.7C49.6924 73.996 49.1444 74.144 48.5284 74.144ZM48.4444 73.064C48.8524 73.064 49.2164 72.964 49.5364 72.764C49.8564 72.564 50.1044 72.292 50.2804 71.948C50.4644 71.596 50.5564 71.204 50.5564 70.772C50.5564 70.324 50.4644 69.932 50.2804 69.596C50.1044 69.252 49.8564 68.98 49.5364 68.78C49.2164 68.572 48.8524 68.468 48.4444 68.468C48.0364 68.468 47.6684 68.568 47.3404 68.768C47.0204 68.968 46.7644 69.244 46.5724 69.596C46.3884 69.94 46.2964 70.332 46.2964 70.772C46.2964 71.204 46.3884 71.596 46.5724 71.948C46.7644 72.292 47.0204 72.564 47.3404 72.764C47.6684 72.964 48.0364 73.064 48.4444 73.064ZM53.2078 74V67.532H54.3238V74H53.2078ZM53.2078 66.5V65.06H54.3238V66.5H53.2078ZM58.6834 74.072C58.0514 74.072 57.5634 73.892 57.2194 73.532C56.8834 73.172 56.7154 72.664 56.7154 72.008V68.6H55.5394V67.532H55.7794C56.0674 67.532 56.2954 67.444 56.4634 67.268C56.6314 67.092 56.7154 66.86 56.7154 66.572V66.044H57.8314V67.532H59.2834V68.6H57.8314V71.972C57.8314 72.188 57.8634 72.376 57.9274 72.536C57.9994 72.696 58.1154 72.824 58.2754 72.92C58.4354 73.008 58.6474 73.052 58.9114 73.052C58.9674 73.052 59.0354 73.048 59.1154 73.04C59.2034 73.032 59.2834 73.024 59.3554 73.016V74C59.2514 74.024 59.1354 74.04 59.0074 74.048C58.8794 74.064 58.7714 74.072 58.6834 74.072ZM34.9323 90.144C34.3003 90.144 33.7163 90.032 33.1803 89.808C32.6523 89.576 32.1883 89.252 31.7883 88.836C31.3963 88.42 31.0923 87.932 30.8763 87.372C30.6603 86.812 30.5523 86.2 30.5523 85.536C30.5523 84.864 30.6603 84.248 30.8763 83.688C31.0923 83.128 31.3963 82.64 31.7883 82.224C32.1803 81.808 32.6443 81.488 33.1803 81.264C33.7163 81.032 34.3003 80.916 34.9323 80.916C35.5483 80.916 36.1003 81.024 36.5883 81.24C37.0843 81.456 37.5003 81.736 37.8363 82.08C38.1803 82.424 38.4243 82.792 38.5683 83.184L37.4883 83.676C37.2803 83.18 36.9563 82.78 36.5163 82.476C36.0763 82.164 35.5483 82.008 34.9323 82.008C34.3083 82.008 33.7523 82.156 33.2643 82.452C32.7843 82.748 32.4083 83.16 32.1363 83.688C31.8643 84.216 31.7283 84.832 31.7283 85.536C31.7283 86.232 31.8643 86.844 32.1363 87.372C32.4083 87.9 32.7843 88.312 33.2643 88.608C33.7523 88.904 34.3083 89.052 34.9323 89.052C35.5483 89.052 36.0763 88.9 36.5163 88.596C36.9563 88.284 37.2803 87.88 37.4883 87.384L38.5683 87.876C38.4243 88.268 38.1803 88.636 37.8363 88.98C37.5003 89.324 37.0843 89.604 36.5883 89.82C36.1003 90.036 35.5483 90.144 34.9323 90.144ZM41.8147 90.144C41.3907 90.144 41.0147 90.068 40.6867 89.916C40.3667 89.756 40.1147 89.54 39.9307 89.268C39.7467 88.988 39.6547 88.668 39.6547 88.308C39.6547 87.964 39.7267 87.656 39.8707 87.384C40.0227 87.104 40.2547 86.868 40.5667 86.676C40.8867 86.484 41.2867 86.348 41.7667 86.268L44.1667 85.872V86.808L42.0187 87.168C41.6027 87.24 41.2987 87.372 41.1067 87.564C40.9227 87.756 40.8307 87.992 40.8307 88.272C40.8307 88.536 40.9347 88.756 41.1427 88.932C41.3587 89.108 41.6267 89.196 41.9467 89.196C42.3547 89.196 42.7067 89.112 43.0027 88.944C43.3067 88.768 43.5427 88.532 43.7107 88.236C43.8867 87.94 43.9747 87.612 43.9747 87.252V85.608C43.9747 85.256 43.8427 84.972 43.5787 84.756C43.3227 84.532 42.9827 84.42 42.5587 84.42C42.1907 84.42 41.8627 84.516 41.5747 84.708C41.2947 84.892 41.0867 85.14 40.9507 85.452L39.9787 84.948C40.0987 84.652 40.2907 84.388 40.5547 84.156C40.8187 83.916 41.1267 83.728 41.4787 83.592C41.8307 83.456 42.1987 83.388 42.5827 83.388C43.0787 83.388 43.5147 83.484 43.8907 83.676C44.2667 83.86 44.5587 84.12 44.7667 84.456C44.9827 84.784 45.0907 85.168 45.0907 85.608V90H43.9987V88.776L44.2027 88.848C44.0667 89.104 43.8827 89.328 43.6507 89.52C43.4187 89.712 43.1467 89.864 42.8347 89.976C42.5227 90.088 42.1827 90.144 41.8147 90.144ZM46.821 90V83.532H47.913V84.72L47.793 84.552C47.945 84.184 48.177 83.912 48.489 83.736C48.801 83.552 49.181 83.46 49.629 83.46H50.025V84.516H49.461C49.005 84.516 48.637 84.66 48.357 84.948C48.077 85.228 47.937 85.628 47.937 86.148V90H46.821ZM53.9563 90.144C53.3483 90.144 52.8003 89.996 52.3123 89.7C51.8323 89.404 51.4523 89 51.1723 88.488C50.8923 87.976 50.7523 87.404 50.7523 86.772C50.7523 86.124 50.8923 85.548 51.1723 85.044C51.4523 84.532 51.8323 84.128 52.3123 83.832C52.8003 83.536 53.3483 83.388 53.9563 83.388C54.4923 83.388 54.9683 83.504 55.3843 83.736C55.8003 83.96 56.1283 84.264 56.3683 84.648L56.1883 84.924V80.916H57.3163V90H56.2243V88.62L56.3683 88.812C56.1443 89.236 55.8163 89.564 55.3843 89.796C54.9603 90.028 54.4843 90.144 53.9563 90.144ZM54.0523 89.064C54.4603 89.064 54.8243 88.964 55.1443 88.764C55.4643 88.564 55.7163 88.292 55.9003 87.948C56.0923 87.596 56.1883 87.204 56.1883 86.772C56.1883 86.332 56.0923 85.94 55.9003 85.596C55.7163 85.244 55.4643 84.968 55.1443 84.768C54.8243 84.568 54.4603 84.468 54.0523 84.468C53.6523 84.468 53.2883 84.572 52.9603 84.78C52.6403 84.98 52.3883 85.252 52.2043 85.596C52.0203 85.932 51.9283 86.324 51.9283 86.772C51.9283 87.204 52.0203 87.596 52.2043 87.948C52.3883 88.292 52.6403 88.564 52.9603 88.764C53.2803 88.964 53.6443 89.064 54.0523 89.064Z" fill="#0C192C"/>
<defs>
<filter id="filter0_d_157_1480" x="15" y="0" width="58" height="58" filterUnits="userSpaceOnUse" color-interpolation-filters="sRGB">
<feFlood flood-opacity="0" result="BackgroundImageFix"/>
<feColorMatrix in="SourceAlpha" type="matrix" values="0 0 0 0 0 0 0 0 0 0 0 0 0 0 0 0 0 0 127 0" result="hardAlpha"/>
<feOffset dy="2"/>
<feGaussianBlur stdDeviation="2.5"/>
<feComposite in2="hardAlpha" operator="out"/>
<feColorMatrix type="matrix" values="0 0 0 0 0 0 0 0 0 0 0 0 0 0 0 0 0 0 0.05 0"/>
<feBlend mode="normal" in2="BackgroundImageFix" result="effect1_dropShadow_157_1480"/>
<feBlend mode="normal" in="SourceGraphic" in2="effect1_dropShadow_157_1480" result="shape"/>
</filter>
<filter id="filter1_d_157_1480" x="15" y="0" width="58" height="58" filterUnits="userSpaceOnUse" color-interpolation-filters="sRGB">
<feFlood flood-opacity="0" result="BackgroundImageFix"/>
<feColorMatrix in="SourceAlpha" type="matrix" values="0 0 0 0 0 0 0 0 0 0 0 0 0 0 0 0 0 0 127 0" result="hardAlpha"/>
<feOffset dy="2"/>
<feGaussianBlur stdDeviation="2.5"/>
<feComposite in2="hardAlpha" operator="out"/>
<feColorMatrix type="matrix" values="0 0 0 0 0 0 0 0 0 0 0 0 0 0 0 0 0 0 0.05 0"/>
<feBlend mode="normal" in2="BackgroundImageFix" result="effect1_dropShadow_157_1480"/>
<feBlend mode="normal" in="SourceGraphic" in2="effect1_dropShadow_157_1480" result="shape"/>
</filter>
</defs>
</svg>
