<svg width="348" height="198" viewBox="0 0 348 198" fill="none" xmlns="http://www.w3.org/2000/svg">
<g filter="url(#filter0_di_1062_4043)">
<rect x="14" y="15" width="320" height="170" rx="20" fill="#3D99E5" fill-opacity="0.82"/>
<mask id="mask0_1062_4043" style="mask-type:alpha" maskUnits="userSpaceOnUse" x="14" y="15" width="320" height="170">
<rect x="14" y="15" width="320" height="170" rx="20" fill="#66BAFF"/>
</mask>
<g mask="url(#mask0_1062_4043)">
<rect opacity="0.1" width="84.4137" height="288.702" transform="matrix(0.566698 0.823926 -0.894213 0.447641 342.49 57)" fill="white"/>
<rect opacity="0.1" width="84.4137" height="288.702" transform="matrix(0.566698 0.823926 -0.894213 0.447641 374.952 82.3904)" fill="white"/>
</g>
<path d="M48.7864 100.026V110H46.8176V102.296L44.4524 103.048V101.496L48.5745 100.026H48.7864ZM59.2082 100.026V110H57.2395V102.296L54.8743 103.048V101.496L58.9963 100.026H59.2082ZM71.5305 104.148V105.871C71.5305 106.618 71.4507 107.263 71.2912 107.806C71.1317 108.343 70.9016 108.785 70.6008 109.132C70.3046 109.474 69.9514 109.727 69.5412 109.891C69.1311 110.055 68.6753 110.137 68.174 110.137C67.773 110.137 67.3993 110.087 67.0529 109.986C66.7066 109.882 66.3944 109.72 66.1164 109.501C65.843 109.282 65.606 109.007 65.4055 108.674C65.2095 108.337 65.0591 107.936 64.9543 107.471C64.8495 107.006 64.7971 106.473 64.7971 105.871V104.148C64.7971 103.401 64.8768 102.761 65.0363 102.228C65.2004 101.69 65.4306 101.25 65.7268 100.908C66.0276 100.566 66.383 100.316 66.7932 100.156C67.2033 99.9922 67.6591 99.9102 68.1604 99.9102C68.5614 99.9102 68.9328 99.9626 69.2746 100.067C69.621 100.168 69.9332 100.325 70.2112 100.539C70.4891 100.753 70.7261 101.029 70.9221 101.366C71.1181 101.699 71.2684 102.098 71.3733 102.562C71.4781 103.023 71.5305 103.551 71.5305 104.148ZM69.5549 106.131V103.882C69.5549 103.522 69.5344 103.207 69.4934 102.938C69.4569 102.67 69.4 102.442 69.3225 102.255C69.245 102.063 69.1493 101.909 69.0354 101.79C68.9214 101.672 68.7916 101.585 68.6457 101.53C68.4999 101.476 68.3381 101.448 68.1604 101.448C67.9371 101.448 67.7388 101.492 67.5656 101.578C67.397 101.665 67.2535 101.804 67.135 101.995C67.0165 102.182 66.9253 102.433 66.8615 102.747C66.8023 103.057 66.7727 103.435 66.7727 103.882V106.131C66.7727 106.491 66.7909 106.808 66.8274 107.081C66.8684 107.354 66.9276 107.589 67.0051 107.785C67.0871 107.977 67.1828 108.134 67.2922 108.257C67.4061 108.375 67.536 108.462 67.6819 108.517C67.8322 108.571 67.9963 108.599 68.174 108.599C68.3928 108.599 68.5865 108.555 68.7551 108.469C68.9283 108.378 69.0741 108.236 69.1926 108.045C69.3156 107.849 69.4068 107.594 69.466 107.279C69.5253 106.965 69.5549 106.582 69.5549 106.131ZM80.052 100.026V110H78.0832V102.296L75.718 103.048V101.496L79.84 100.026H80.052Z" fill="white"/>
<path d="M98.7961 108.462V110H91.9875V108.688L95.2073 105.235C95.5308 104.875 95.7861 104.559 95.9729 104.285C96.1597 104.007 96.2942 103.759 96.3762 103.54C96.4628 103.317 96.5061 103.105 96.5061 102.904C96.5061 102.604 96.456 102.346 96.3557 102.132C96.2555 101.913 96.1073 101.744 95.9114 101.626C95.72 101.507 95.483 101.448 95.2004 101.448C94.8997 101.448 94.6399 101.521 94.4211 101.667C94.2069 101.813 94.0429 102.016 93.929 102.275C93.8196 102.535 93.7649 102.829 93.7649 103.157H91.7893C91.7893 102.565 91.9306 102.022 92.2131 101.53C92.4957 101.034 92.8944 100.639 93.4094 100.348C93.9244 100.051 94.5351 99.9033 95.2415 99.9033C95.9387 99.9033 96.5266 100.017 97.0051 100.245C97.4882 100.468 97.8528 100.792 98.0989 101.216C98.3495 101.635 98.4749 102.136 98.4749 102.72C98.4749 103.048 98.4224 103.369 98.3176 103.684C98.2128 103.993 98.0624 104.303 97.8665 104.613C97.675 104.919 97.4426 105.229 97.1692 105.543C96.8958 105.857 96.5927 106.183 96.26 106.521L94.5305 108.462H98.7961ZM109.109 104.148V105.871C109.109 106.618 109.029 107.263 108.869 107.806C108.71 108.343 108.48 108.785 108.179 109.132C107.883 109.474 107.53 109.727 107.119 109.891C106.709 110.055 106.253 110.137 105.752 110.137C105.351 110.137 104.977 110.087 104.631 109.986C104.285 109.882 103.973 109.72 103.695 109.501C103.421 109.282 103.184 109.007 102.984 108.674C102.788 108.337 102.637 107.936 102.532 107.471C102.428 107.006 102.375 106.473 102.375 105.871V104.148C102.375 103.401 102.455 102.761 102.614 102.228C102.779 101.69 103.009 101.25 103.305 100.908C103.606 100.566 103.961 100.316 104.371 100.156C104.781 99.9922 105.237 99.9102 105.739 99.9102C106.14 99.9102 106.511 99.9626 106.853 100.067C107.199 100.168 107.511 100.325 107.789 100.539C108.067 100.753 108.304 101.029 108.5 101.366C108.696 101.699 108.847 102.098 108.951 102.562C109.056 103.023 109.109 103.551 109.109 104.148ZM107.133 106.131V103.882C107.133 103.522 107.113 103.207 107.072 102.938C107.035 102.67 106.978 102.442 106.901 102.255C106.823 102.063 106.727 101.909 106.614 101.79C106.5 101.672 106.37 101.585 106.224 101.53C106.078 101.476 105.916 101.448 105.739 101.448C105.515 101.448 105.317 101.492 105.144 101.578C104.975 101.665 104.832 101.804 104.713 101.995C104.595 102.182 104.503 102.433 104.44 102.747C104.38 103.057 104.351 103.435 104.351 103.882V106.131C104.351 106.491 104.369 106.808 104.406 107.081C104.447 107.354 104.506 107.589 104.583 107.785C104.665 107.977 104.761 108.134 104.87 108.257C104.984 108.375 105.114 108.462 105.26 108.517C105.41 108.571 105.574 108.599 105.752 108.599C105.971 108.599 106.165 108.555 106.333 108.469C106.506 108.378 106.652 108.236 106.771 108.045C106.894 107.849 106.985 107.594 107.044 107.279C107.103 106.965 107.133 106.582 107.133 106.131ZM119.53 104.148V105.871C119.53 106.618 119.451 107.263 119.291 107.806C119.132 108.343 118.902 108.785 118.601 109.132C118.305 109.474 117.951 109.727 117.541 109.891C117.131 110.055 116.675 110.137 116.174 110.137C115.773 110.137 115.399 110.087 115.053 109.986C114.707 109.882 114.394 109.72 114.116 109.501C113.843 109.282 113.606 109.007 113.405 108.674C113.21 108.337 113.059 107.936 112.954 107.471C112.849 107.006 112.797 106.473 112.797 105.871V104.148C112.797 103.401 112.877 102.761 113.036 102.228C113.2 101.69 113.431 101.25 113.727 100.908C114.028 100.566 114.383 100.316 114.793 100.156C115.203 99.9922 115.659 99.9102 116.16 99.9102C116.561 99.9102 116.933 99.9626 117.275 100.067C117.621 100.168 117.933 100.325 118.211 100.539C118.489 100.753 118.726 101.029 118.922 101.366C119.118 101.699 119.268 102.098 119.373 102.562C119.478 103.023 119.53 103.551 119.53 104.148ZM117.555 106.131V103.882C117.555 103.522 117.534 103.207 117.493 102.938C117.457 102.67 117.4 102.442 117.322 102.255C117.245 102.063 117.149 101.909 117.035 101.79C116.921 101.672 116.792 101.585 116.646 101.53C116.5 101.476 116.338 101.448 116.16 101.448C115.937 101.448 115.739 101.492 115.566 101.578C115.397 101.665 115.253 101.804 115.135 101.995C115.016 102.182 114.925 102.433 114.862 102.747C114.802 103.057 114.773 103.435 114.773 103.882V106.131C114.773 106.491 114.791 106.808 114.827 107.081C114.868 107.354 114.928 107.589 115.005 107.785C115.087 107.977 115.183 108.134 115.292 108.257C115.406 108.375 115.536 108.462 115.682 108.517C115.832 108.571 115.996 108.599 116.174 108.599C116.393 108.599 116.586 108.555 116.755 108.469C116.928 108.378 117.074 108.236 117.193 108.045C117.316 107.849 117.407 107.594 117.466 107.279C117.525 106.965 117.555 106.582 117.555 106.131ZM128.052 100.026V110H126.083V102.296L123.718 103.048V101.496L127.84 100.026H128.052Z" fill="white"/>
<path d="M146.694 107.272C146.694 107.897 146.548 108.423 146.256 108.852C145.964 109.275 145.563 109.597 145.053 109.815C144.547 110.03 143.973 110.137 143.33 110.137C142.688 110.137 142.111 110.03 141.601 109.815C141.09 109.597 140.687 109.275 140.391 108.852C140.095 108.423 139.947 107.897 139.947 107.272C139.947 106.853 140.031 106.475 140.199 106.138C140.368 105.796 140.603 105.504 140.904 105.263C141.209 105.017 141.567 104.83 141.977 104.702C142.387 104.57 142.834 104.504 143.317 104.504C143.964 104.504 144.543 104.618 145.053 104.846C145.563 105.074 145.964 105.395 146.256 105.81C146.548 106.224 146.694 106.712 146.694 107.272ZM144.711 107.143C144.711 106.837 144.652 106.575 144.533 106.356C144.42 106.133 144.258 105.962 144.048 105.844C143.838 105.725 143.595 105.666 143.317 105.666C143.039 105.666 142.795 105.725 142.585 105.844C142.376 105.962 142.212 106.133 142.093 106.356C141.979 106.575 141.922 106.837 141.922 107.143C141.922 107.443 141.979 107.703 142.093 107.922C142.212 108.141 142.376 108.309 142.585 108.428C142.799 108.542 143.048 108.599 143.33 108.599C143.613 108.599 143.857 108.542 144.062 108.428C144.271 108.309 144.431 108.141 144.54 107.922C144.654 107.703 144.711 107.443 144.711 107.143ZM146.482 102.686C146.482 103.191 146.347 103.64 146.078 104.032C145.809 104.42 145.436 104.723 144.957 104.941C144.483 105.16 143.941 105.27 143.33 105.27C142.715 105.27 142.168 105.16 141.69 104.941C141.211 104.723 140.837 104.42 140.569 104.032C140.3 103.64 140.165 103.191 140.165 102.686C140.165 102.084 140.3 101.578 140.569 101.168C140.842 100.753 141.216 100.439 141.69 100.225C142.168 100.01 142.711 99.9033 143.317 99.9033C143.932 99.9033 144.476 100.01 144.95 100.225C145.429 100.439 145.803 100.753 146.072 101.168C146.345 101.578 146.482 102.084 146.482 102.686ZM144.513 102.774C144.513 102.506 144.465 102.273 144.369 102.077C144.274 101.877 144.137 101.722 143.959 101.612C143.786 101.503 143.572 101.448 143.317 101.448C143.071 101.448 142.859 101.501 142.681 101.605C142.508 101.71 142.373 101.863 142.278 102.063C142.186 102.259 142.141 102.496 142.141 102.774C142.141 103.043 142.186 103.28 142.278 103.485C142.373 103.686 142.51 103.843 142.688 103.957C142.865 104.071 143.08 104.128 143.33 104.128C143.581 104.128 143.793 104.071 143.966 103.957C144.144 103.843 144.278 103.686 144.369 103.485C144.465 103.28 144.513 103.043 144.513 102.774ZM157.17 100.047V101.106L153.322 110H151.243L155.092 101.585H150.136V100.047H157.17ZM167.64 108.462V110H160.831V108.688L164.051 105.235C164.375 104.875 164.63 104.559 164.817 104.285C165.003 104.007 165.138 103.759 165.22 103.54C165.307 103.317 165.35 103.105 165.35 102.904C165.35 102.604 165.3 102.346 165.199 102.132C165.099 101.913 164.951 101.744 164.755 101.626C164.564 101.507 164.327 101.448 164.044 101.448C163.743 101.448 163.484 101.521 163.265 101.667C163.051 101.813 162.887 102.016 162.773 102.275C162.663 102.535 162.609 102.829 162.609 103.157H160.633C160.633 102.565 160.774 102.022 161.057 101.53C161.339 101.034 161.738 100.639 162.253 100.348C162.768 100.051 163.379 99.9033 164.085 99.9033C164.782 99.9033 165.37 100.017 165.849 100.245C166.332 100.468 166.697 100.792 166.943 101.216C167.193 101.635 167.319 102.136 167.319 102.72C167.319 103.048 167.266 103.369 167.161 103.684C167.057 103.993 166.906 104.303 166.71 104.613C166.519 104.919 166.286 105.229 166.013 105.543C165.739 105.857 165.436 106.183 165.104 106.521L163.374 108.462H167.64ZM173.27 104.169H174.322C174.66 104.169 174.938 104.112 175.156 103.998C175.375 103.88 175.537 103.715 175.642 103.506C175.751 103.292 175.806 103.043 175.806 102.761C175.806 102.506 175.756 102.28 175.655 102.084C175.56 101.883 175.412 101.729 175.211 101.619C175.011 101.505 174.758 101.448 174.452 101.448C174.211 101.448 173.988 101.496 173.782 101.592C173.577 101.688 173.413 101.822 173.29 101.995C173.167 102.168 173.106 102.378 173.106 102.624H171.13C171.13 102.077 171.276 101.601 171.568 101.195C171.864 100.79 172.26 100.473 172.757 100.245C173.254 100.017 173.801 99.9033 174.398 99.9033C175.072 99.9033 175.662 100.013 176.168 100.231C176.674 100.446 177.068 100.762 177.351 101.182C177.633 101.601 177.775 102.12 177.775 102.74C177.775 103.055 177.702 103.36 177.556 103.656C177.41 103.948 177.2 104.212 176.927 104.449C176.658 104.682 176.33 104.868 175.943 105.01C175.555 105.146 175.12 105.215 174.637 105.215H173.27V104.169ZM173.27 105.666V104.647H174.637C175.179 104.647 175.655 104.709 176.066 104.832C176.476 104.955 176.82 105.133 177.098 105.365C177.376 105.593 177.585 105.864 177.727 106.179C177.868 106.489 177.939 106.833 177.939 107.211C177.939 107.676 177.85 108.09 177.672 108.455C177.494 108.815 177.244 109.12 176.92 109.371C176.601 109.622 176.227 109.813 175.799 109.945C175.371 110.073 174.904 110.137 174.398 110.137C173.978 110.137 173.566 110.08 173.16 109.966C172.759 109.847 172.395 109.672 172.067 109.439C171.743 109.202 171.483 108.906 171.287 108.551C171.096 108.191 171 107.765 171 107.272H172.976C172.976 107.528 173.04 107.756 173.167 107.956C173.295 108.157 173.47 108.314 173.694 108.428C173.921 108.542 174.174 108.599 174.452 108.599C174.767 108.599 175.036 108.542 175.259 108.428C175.487 108.309 175.66 108.145 175.779 107.936C175.902 107.721 175.963 107.473 175.963 107.19C175.963 106.826 175.897 106.534 175.765 106.315C175.633 106.092 175.444 105.928 175.197 105.823C174.951 105.718 174.66 105.666 174.322 105.666H173.27Z" fill="white"/>
<path d="M194.748 100.047V101.106L190.9 110H188.822L192.67 101.585H187.714V100.047H194.748ZM205.109 104.148V105.871C205.109 106.618 205.029 107.263 204.869 107.806C204.71 108.343 204.48 108.785 204.179 109.132C203.883 109.474 203.53 109.727 203.119 109.891C202.709 110.055 202.253 110.137 201.752 110.137C201.351 110.137 200.977 110.087 200.631 109.986C200.285 109.882 199.973 109.72 199.695 109.501C199.421 109.282 199.184 109.007 198.984 108.674C198.788 108.337 198.637 107.936 198.532 107.471C198.428 107.006 198.375 106.473 198.375 105.871V104.148C198.375 103.401 198.455 102.761 198.614 102.228C198.779 101.69 199.009 101.25 199.305 100.908C199.606 100.566 199.961 100.316 200.371 100.156C200.781 99.9922 201.237 99.9102 201.739 99.9102C202.14 99.9102 202.511 99.9626 202.853 100.067C203.199 100.168 203.511 100.325 203.789 100.539C204.067 100.753 204.304 101.029 204.5 101.366C204.696 101.699 204.847 102.098 204.951 102.562C205.056 103.023 205.109 103.551 205.109 104.148ZM203.133 106.131V103.882C203.133 103.522 203.113 103.207 203.072 102.938C203.035 102.67 202.978 102.442 202.901 102.255C202.823 102.063 202.727 101.909 202.614 101.79C202.5 101.672 202.37 101.585 202.224 101.53C202.078 101.476 201.916 101.448 201.739 101.448C201.515 101.448 201.317 101.492 201.144 101.578C200.975 101.665 200.832 101.804 200.713 101.995C200.595 102.182 200.503 102.433 200.44 102.747C200.38 103.057 200.351 103.435 200.351 103.882V106.131C200.351 106.491 200.369 106.808 200.406 107.081C200.447 107.354 200.506 107.589 200.583 107.785C200.665 107.977 200.761 108.134 200.87 108.257C200.984 108.375 201.114 108.462 201.26 108.517C201.41 108.571 201.574 108.599 201.752 108.599C201.971 108.599 202.165 108.555 202.333 108.469C202.506 108.378 202.652 108.236 202.771 108.045C202.894 107.849 202.985 107.594 203.044 107.279C203.103 106.965 203.133 106.582 203.133 106.131ZM215.53 104.148V105.871C215.53 106.618 215.451 107.263 215.291 107.806C215.132 108.343 214.902 108.785 214.601 109.132C214.305 109.474 213.951 109.727 213.541 109.891C213.131 110.055 212.675 110.137 212.174 110.137C211.773 110.137 211.399 110.087 211.053 109.986C210.707 109.882 210.394 109.72 210.116 109.501C209.843 109.282 209.606 109.007 209.405 108.674C209.21 108.337 209.059 107.936 208.954 107.471C208.849 107.006 208.797 106.473 208.797 105.871V104.148C208.797 103.401 208.877 102.761 209.036 102.228C209.2 101.69 209.431 101.25 209.727 100.908C210.028 100.566 210.383 100.316 210.793 100.156C211.203 99.9922 211.659 99.9102 212.16 99.9102C212.561 99.9102 212.933 99.9626 213.275 100.067C213.621 100.168 213.933 100.325 214.211 100.539C214.489 100.753 214.726 101.029 214.922 101.366C215.118 101.699 215.268 102.098 215.373 102.562C215.478 103.023 215.53 103.551 215.53 104.148ZM213.555 106.131V103.882C213.555 103.522 213.534 103.207 213.493 102.938C213.457 102.67 213.4 102.442 213.322 102.255C213.245 102.063 213.149 101.909 213.035 101.79C212.921 101.672 212.792 101.585 212.646 101.53C212.5 101.476 212.338 101.448 212.16 101.448C211.937 101.448 211.739 101.492 211.566 101.578C211.397 101.665 211.253 101.804 211.135 101.995C211.016 102.182 210.925 102.433 210.862 102.747C210.802 103.057 210.773 103.435 210.773 103.882V106.131C210.773 106.491 210.791 106.808 210.827 107.081C210.868 107.354 210.928 107.589 211.005 107.785C211.087 107.977 211.183 108.134 211.292 108.257C211.406 108.375 211.536 108.462 211.682 108.517C211.832 108.571 211.996 108.599 212.174 108.599C212.393 108.599 212.586 108.555 212.755 108.469C212.928 108.378 213.074 108.236 213.193 108.045C213.316 107.849 213.407 107.594 213.466 107.279C213.525 106.965 213.555 106.582 213.555 106.131ZM224.052 100.026V110H222.083V102.296L219.718 103.048V101.496L223.84 100.026H224.052Z" fill="white"/>
<path d="M53.7014 54.9434V57H44.6311V54.9434H53.7014ZM53.5696 45.6709L45.8 57H43.9456V55.4883L51.7766 44.2031H53.5696V45.6709ZM52.6643 44.2031V46.2686H43.9543V44.2031H52.6643ZM60.7063 46.3916L57.2258 57H54.4221L59.177 44.2031H60.9612L60.7063 46.3916ZM63.5979 57L60.1086 46.3916L59.8274 44.2031H61.6292L66.4104 57H63.5979ZM63.4397 52.2363V54.3018H56.6809V52.2363H63.4397ZM76.1311 49.415V51.4717H69.4514V49.415H76.1311ZM70.2336 44.2031V57H67.5969V44.2031H70.2336ZM78.012 44.2031V57H75.384V44.2031H78.012ZM84.9202 54.3281L87.9348 44.2031H90.8704L86.4143 57H84.4807L84.9202 54.3281ZM82.1428 44.2031L85.1487 54.3281L85.6057 57H83.6545L79.2249 44.2031H82.1428Z" fill="white"/>
<path opacity="0.7" d="M48.6466 138.461V144.21H47.8806L44.9863 139.776V144.21H44.2243V138.461H44.9863L47.8924 142.907V138.461H48.6466ZM52.9446 143.479V141.28C52.9446 141.112 52.9104 140.966 52.8419 140.842C52.7761 140.716 52.6761 140.618 52.5418 140.55C52.4076 140.481 52.2417 140.447 52.0443 140.447C51.8601 140.447 51.6982 140.479 51.5587 140.542C51.4218 140.605 51.3139 140.688 51.2349 140.791C51.1586 140.893 51.1204 141.004 51.1204 141.122H50.3899C50.3899 140.97 50.4294 140.818 50.5084 140.668C50.5873 140.518 50.7005 140.383 50.8479 140.262C50.998 140.138 51.177 140.04 51.3849 139.969C51.5955 139.896 51.8298 139.859 52.0878 139.859C52.3984 139.859 52.6721 139.911 52.909 140.017C53.1486 140.122 53.3355 140.281 53.4697 140.494C53.6066 140.705 53.675 140.97 53.675 141.288V143.278C53.675 143.42 53.6869 143.572 53.7106 143.732C53.7369 143.893 53.7751 144.031 53.8251 144.147V144.21H53.063C53.0262 144.126 52.9972 144.014 52.9762 143.874C52.9551 143.732 52.9446 143.601 52.9446 143.479ZM53.0709 141.62L53.0788 142.133H52.3405C52.1325 142.133 51.9469 142.15 51.7837 142.184C51.6205 142.216 51.4836 142.265 51.3731 142.331C51.2625 142.396 51.1783 142.479 51.1204 142.579C51.0625 142.677 51.0335 142.791 51.0335 142.923C51.0335 143.057 51.0638 143.179 51.1243 143.29C51.1849 143.401 51.2757 143.489 51.3968 143.555C51.5205 143.618 51.6719 143.649 51.8509 143.649C52.0746 143.649 52.272 143.602 52.4431 143.507C52.6142 143.412 52.7498 143.297 52.8498 143.16C52.9525 143.023 53.0077 142.89 53.0156 142.761L53.3276 143.112C53.3091 143.223 53.2591 143.345 53.1775 143.479C53.0959 143.614 52.9867 143.743 52.8498 143.866C52.7156 143.988 52.555 144.089 52.3681 144.17C52.1838 144.249 51.9759 144.289 51.7442 144.289C51.4547 144.289 51.2007 144.232 50.9822 144.119C50.7663 144.006 50.5979 143.855 50.4768 143.665C50.3583 143.473 50.2991 143.258 50.2991 143.021C50.2991 142.792 50.3439 142.591 50.4334 142.417C50.5229 142.241 50.6518 142.095 50.8203 141.979C50.9888 141.861 51.1915 141.771 51.4284 141.711C51.6653 141.65 51.9298 141.62 52.222 141.62H53.0709ZM56.0896 140.787V144.21H55.3552V139.938H56.0502L56.0896 140.787ZM55.9396 141.912L55.6 141.9C55.6027 141.608 55.6408 141.338 55.7145 141.091C55.7882 140.841 55.8975 140.623 56.0423 140.439C56.187 140.255 56.3673 140.113 56.5832 140.013C56.799 139.91 57.0491 139.859 57.3334 139.859C57.5335 139.859 57.7177 139.888 57.8862 139.946C58.0547 140.001 58.2007 140.089 58.3245 140.21C58.4482 140.331 58.5443 140.487 58.6127 140.676C58.6811 140.866 58.7154 141.095 58.7154 141.363V144.21H57.9849V141.399C57.9849 141.175 57.9467 140.996 57.8704 140.862C57.7967 140.727 57.6914 140.63 57.5545 140.569C57.4176 140.506 57.2571 140.475 57.0728 140.475C56.857 140.475 56.6766 140.513 56.5319 140.589C56.3871 140.666 56.2713 140.771 56.1844 140.905C56.0975 141.039 56.0344 141.193 55.9949 141.367C55.958 141.538 55.9396 141.72 55.9396 141.912ZM58.7075 141.509L58.2179 141.659C58.2205 141.425 58.2587 141.2 58.3324 140.984C58.4087 140.768 58.5179 140.576 58.6601 140.408C58.8049 140.239 58.9825 140.106 59.1931 140.009C59.4037 139.909 59.6446 139.859 59.9157 139.859C60.1447 139.859 60.3474 139.889 60.5237 139.95C60.7027 140.01 60.8528 140.104 60.9739 140.23C61.0976 140.354 61.191 140.513 61.2542 140.708C61.3174 140.902 61.349 141.134 61.349 141.403V144.21H60.6146V141.395C60.6146 141.155 60.5764 140.97 60.5001 140.838C60.4264 140.704 60.3211 140.61 60.1842 140.558C60.0499 140.502 59.8894 140.475 59.7025 140.475C59.5419 140.475 59.3998 140.502 59.276 140.558C59.1523 140.613 59.0483 140.689 58.9641 140.787C58.8799 140.881 58.8154 140.991 58.7706 141.114C58.7285 141.238 58.7075 141.37 58.7075 141.509ZM64.7665 144.289C64.469 144.289 64.1992 144.239 63.9571 144.139C63.7175 144.036 63.5109 143.893 63.3371 143.709C63.166 143.524 63.0344 143.306 62.9423 143.053C62.8502 142.8 62.8041 142.524 62.8041 142.224V142.058C62.8041 141.711 62.8554 141.401 62.9581 141.13C63.0608 140.856 63.2003 140.625 63.3766 140.435C63.553 140.246 63.7531 140.102 63.9768 140.005C64.2005 139.907 64.4322 139.859 64.6717 139.859C64.9771 139.859 65.2403 139.911 65.4614 140.017C65.6852 140.122 65.8681 140.269 66.0102 140.459C66.1524 140.646 66.2577 140.867 66.3261 141.122C66.3946 141.375 66.4288 141.651 66.4288 141.951V142.279H63.2384V141.683H65.6983V141.628C65.6878 141.438 65.6483 141.254 65.5799 141.075C65.5141 140.896 65.4088 140.748 65.264 140.633C65.1192 140.517 64.9218 140.459 64.6717 140.459C64.5059 140.459 64.3532 140.494 64.2137 140.566C64.0742 140.634 63.9544 140.737 63.8544 140.874C63.7544 141.01 63.6767 141.178 63.6214 141.375C63.5662 141.572 63.5385 141.8 63.5385 142.058V142.224C63.5385 142.427 63.5662 142.617 63.6214 142.796C63.6793 142.973 63.7623 143.128 63.8702 143.262C63.9807 143.397 64.1137 143.502 64.269 143.578C64.4269 143.655 64.6059 143.693 64.806 143.693C65.0639 143.693 65.2824 143.64 65.4614 143.535C65.6404 143.429 65.797 143.289 65.9313 143.112L66.3735 143.464C66.2814 143.603 66.1642 143.736 66.0221 143.862C65.8799 143.989 65.7049 144.092 65.4969 144.17C65.2916 144.249 65.0481 144.289 64.7665 144.289ZM73.9469 142.382H74.705C74.6655 142.745 74.5615 143.07 74.3931 143.357C74.2246 143.644 73.9864 143.872 73.6784 144.04C73.3704 144.206 72.9861 144.289 72.5254 144.289C72.1885 144.289 71.8819 144.226 71.6055 144.099C71.3317 143.973 71.0961 143.794 70.8987 143.562C70.7013 143.328 70.5486 143.048 70.4407 142.721C70.3354 142.392 70.2827 142.026 70.2827 141.624V141.051C70.2827 140.648 70.3354 140.284 70.4407 139.957C70.5486 139.628 70.7026 139.347 70.9026 139.113C71.1053 138.878 71.3488 138.698 71.6331 138.572C71.9174 138.445 72.2372 138.382 72.5926 138.382C73.0269 138.382 73.3941 138.464 73.6942 138.627C73.9943 138.79 74.2272 139.016 74.3931 139.306C74.5615 139.593 74.6655 139.926 74.705 140.305H73.9469C73.91 140.036 73.8416 139.806 73.7416 139.614C73.6415 139.419 73.4994 139.269 73.3151 139.164C73.1309 139.059 72.89 139.006 72.5926 139.006C72.3372 139.006 72.1122 139.055 71.9174 139.152C71.7252 139.249 71.5633 139.388 71.4317 139.567C71.3027 139.746 71.2054 139.96 71.1395 140.21C71.0737 140.46 71.0408 140.738 71.0408 141.043V141.624C71.0408 141.905 71.0698 142.17 71.1277 142.417C71.1882 142.665 71.2791 142.882 71.4001 143.069C71.5212 143.256 71.6752 143.403 71.8621 143.511C72.049 143.616 72.2701 143.669 72.5254 143.669C72.8492 143.669 73.1072 143.618 73.2993 143.515C73.4915 143.412 73.6363 143.265 73.7337 143.073C73.8337 142.881 73.9048 142.65 73.9469 142.382ZM78.6911 143.479V141.28C78.6911 141.112 78.6569 140.966 78.5884 140.842C78.5226 140.716 78.4226 140.618 78.2883 140.55C78.1541 140.481 77.9883 140.447 77.7908 140.447C77.6066 140.447 77.4447 140.479 77.3052 140.542C77.1683 140.605 77.0604 140.688 76.9814 140.791C76.9051 140.893 76.8669 141.004 76.8669 141.122H76.1364C76.1364 140.97 76.1759 140.818 76.2549 140.668C76.3339 140.518 76.447 140.383 76.5945 140.262C76.7445 140.138 76.9235 140.04 77.1314 139.969C77.342 139.896 77.5763 139.859 77.8343 139.859C78.1449 139.859 78.4186 139.911 78.6555 140.017C78.8951 140.122 79.082 140.281 79.2162 140.494C79.3531 140.705 79.4215 140.97 79.4215 141.288V143.278C79.4215 143.42 79.4334 143.572 79.4571 143.732C79.4834 143.893 79.5216 144.031 79.5716 144.147V144.21H78.8095C78.7727 144.126 78.7437 144.014 78.7227 143.874C78.7016 143.732 78.6911 143.601 78.6911 143.479ZM78.8174 141.62L78.8253 142.133H78.087C77.879 142.133 77.6934 142.15 77.5302 142.184C77.367 142.216 77.2302 142.265 77.1196 142.331C77.009 142.396 76.9248 142.479 76.8669 142.579C76.809 142.677 76.78 142.791 76.78 142.923C76.78 143.057 76.8103 143.179 76.8708 143.29C76.9314 143.401 77.0222 143.489 77.1433 143.555C77.267 143.618 77.4184 143.649 77.5974 143.649C77.8211 143.649 78.0185 143.602 78.1896 143.507C78.3607 143.412 78.4963 143.297 78.5963 143.16C78.699 143.023 78.7543 142.89 78.7622 142.761L79.0741 143.112C79.0557 143.223 79.0056 143.345 78.924 143.479C78.8424 143.614 78.7332 143.743 78.5963 143.866C78.4621 143.988 78.3015 144.089 78.1146 144.17C77.9303 144.249 77.7224 144.289 77.4908 144.289C77.2012 144.289 76.9472 144.232 76.7287 144.119C76.5129 144.006 76.3444 143.855 76.2233 143.665C76.1048 143.473 76.0456 143.258 76.0456 143.021C76.0456 142.792 76.0904 142.591 76.1799 142.417C76.2694 142.241 76.3983 142.095 76.5668 141.979C76.7353 141.861 76.938 141.771 77.1749 141.711C77.4118 141.65 77.6763 141.62 77.9685 141.62H78.8174ZM81.8401 140.609V144.21H81.1096V139.938H81.8204L81.8401 140.609ZM83.1747 139.914L83.1707 140.593C83.1102 140.58 83.0523 140.572 82.997 140.569C82.9443 140.564 82.8838 140.562 82.8154 140.562C82.6469 140.562 82.4982 140.588 82.3692 140.641C82.2402 140.693 82.131 140.767 82.0415 140.862C81.952 140.956 81.8809 141.07 81.8283 141.201C81.7782 141.33 81.7453 141.472 81.7295 141.628L81.5242 141.746C81.5242 141.488 81.5492 141.246 81.5992 141.02C81.6519 140.793 81.7322 140.593 81.8401 140.419C81.948 140.243 82.0849 140.106 82.2507 140.009C82.4192 139.909 82.6193 139.859 82.8509 139.859C82.9035 139.859 82.9641 139.865 83.0325 139.879C83.101 139.889 83.1484 139.901 83.1747 139.914ZM87.0028 143.381V138.145H87.7372V144.21H87.066L87.0028 143.381ZM84.1284 142.121V142.038C84.1284 141.712 84.1678 141.416 84.2468 141.15C84.3284 140.881 84.4429 140.651 84.5903 140.459C84.7404 140.267 84.918 140.119 85.1234 140.017C85.3313 139.911 85.563 139.859 85.8183 139.859C86.0868 139.859 86.3211 139.906 86.5211 140.001C86.7238 140.093 86.8949 140.229 87.0344 140.408C87.1766 140.584 87.2884 140.797 87.37 141.047C87.4516 141.297 87.5082 141.58 87.5398 141.896V142.259C87.5109 142.573 87.4543 142.854 87.37 143.104C87.2884 143.354 87.1766 143.568 87.0344 143.744C86.8949 143.92 86.7238 144.056 86.5211 144.151C86.3184 144.243 86.0815 144.289 85.8104 144.289C85.5603 144.289 85.3313 144.235 85.1234 144.127C84.918 144.019 84.7404 143.868 84.5903 143.673C84.4429 143.478 84.3284 143.249 84.2468 142.986C84.1678 142.72 84.1284 142.432 84.1284 142.121ZM84.8628 142.038V142.121C84.8628 142.334 84.8838 142.535 84.9259 142.721C84.9707 142.908 85.0391 143.073 85.1313 143.215C85.2234 143.357 85.3405 143.469 85.4827 143.551C85.6248 143.63 85.7946 143.669 85.992 143.669C86.2342 143.669 86.4329 143.618 86.5882 143.515C86.7462 143.412 86.8725 143.277 86.9673 143.108C87.0621 142.94 87.1358 142.757 87.1884 142.56V141.608C87.1568 141.463 87.1108 141.324 87.0502 141.189C86.9923 141.053 86.916 140.931 86.8212 140.826C86.7291 140.718 86.6146 140.633 86.4777 140.569C86.3434 140.506 86.1842 140.475 85.9999 140.475C85.7999 140.475 85.6275 140.517 85.4827 140.601C85.3405 140.683 85.2234 140.796 85.1313 140.941C85.0391 141.083 84.9707 141.249 84.9259 141.438C84.8838 141.625 84.8628 141.825 84.8628 142.038Z" fill="white"/>
<path d="M44.7688 155H46.0813L48.5481 161.58L51.009 155H52.3215L49.0637 163.531H48.0208L44.7688 155ZM44.1711 155H45.4192L45.636 160.695V163.531H44.1711V155ZM51.6711 155H52.925V163.531H51.4543V160.695L51.6711 155ZM58.8595 162.259V159.236C58.8595 159.009 58.8185 158.814 58.7364 158.65C58.6544 158.486 58.5294 158.359 58.3614 158.269C58.1974 158.179 57.9903 158.134 57.7403 158.134C57.5099 158.134 57.3106 158.173 57.1427 158.251C56.9747 158.33 56.8438 158.435 56.7501 158.568C56.6563 158.701 56.6095 158.851 56.6095 159.019H55.2032C55.2032 158.769 55.2638 158.527 55.3849 158.292C55.506 158.058 55.6817 157.849 55.9122 157.666C56.1427 157.482 56.4181 157.337 56.7384 157.232C57.0587 157.126 57.4181 157.074 57.8165 157.074C58.2931 157.074 58.7149 157.154 59.0821 157.314C59.4532 157.474 59.7442 157.716 59.9552 158.041C60.17 158.361 60.2774 158.763 60.2774 159.248V162.066C60.2774 162.355 60.297 162.615 60.336 162.845C60.379 163.072 60.4395 163.269 60.5177 163.437V163.531H59.0704C59.004 163.378 58.9513 163.185 58.9122 162.951C58.877 162.712 58.8595 162.482 58.8595 162.259ZM59.0645 159.675L59.0763 160.548H58.0626C57.8009 160.548 57.5704 160.574 57.3712 160.625C57.172 160.671 57.006 160.742 56.8731 160.835C56.7403 160.929 56.6407 161.042 56.5743 161.175C56.5079 161.308 56.4747 161.458 56.4747 161.626C56.4747 161.794 56.5138 161.949 56.5919 162.089C56.67 162.226 56.7833 162.333 56.9317 162.412C57.0841 162.49 57.2677 162.529 57.4825 162.529C57.7716 162.529 58.0235 162.47 58.2384 162.353C58.4571 162.232 58.629 162.085 58.754 161.914C58.879 161.738 58.9454 161.572 58.9532 161.416L59.4102 162.042C59.3634 162.203 59.2833 162.375 59.17 162.558C59.0567 162.742 58.9083 162.917 58.7247 163.085C58.545 163.25 58.3282 163.384 58.0743 163.49C57.8243 163.595 57.5352 163.648 57.2071 163.648C56.7931 163.648 56.4239 163.566 56.0997 163.402C55.7755 163.234 55.5216 163.009 55.338 162.728C55.1544 162.443 55.0626 162.121 55.0626 161.761C55.0626 161.425 55.1251 161.128 55.2501 160.871C55.379 160.609 55.5665 160.39 55.8126 160.214C56.0626 160.039 56.3673 159.906 56.7267 159.816C57.086 159.722 57.4962 159.675 57.9571 159.675H59.0645ZM63.9267 158.398V163.531H62.5146V157.191H63.8622L63.9267 158.398ZM65.8662 157.15L65.8544 158.462C65.7685 158.447 65.6747 158.435 65.5732 158.427C65.4755 158.419 65.3779 158.416 65.2802 158.416C65.038 158.416 64.8251 158.451 64.6415 158.521C64.458 158.587 64.3037 158.685 64.1787 158.814C64.0576 158.939 63.9638 159.091 63.8974 159.271C63.831 159.451 63.7919 159.652 63.7802 159.875L63.458 159.898C63.458 159.5 63.497 159.13 63.5751 158.791C63.6533 158.451 63.7705 158.152 63.9267 157.894C64.0869 157.636 64.2861 157.435 64.5244 157.291C64.7665 157.146 65.0458 157.074 65.3622 157.074C65.4482 157.074 65.54 157.082 65.6376 157.097C65.7392 157.113 65.8154 157.13 65.8662 157.15ZM70.7049 157.191V158.222H67.1307V157.191H70.7049ZM68.1619 155.638H69.574V161.779C69.574 161.974 69.6014 162.125 69.656 162.23C69.7146 162.332 69.7947 162.4 69.8963 162.435C69.9978 162.47 70.117 162.488 70.2537 162.488C70.3514 162.488 70.4451 162.482 70.535 162.47C70.6248 162.458 70.6971 162.447 70.7517 162.435L70.7576 163.513C70.6404 163.548 70.5037 163.58 70.3475 163.607C70.1951 163.634 70.0193 163.648 69.8201 163.648C69.4959 163.648 69.2088 163.591 68.9588 163.478C68.7088 163.361 68.5135 163.171 68.3728 162.91C68.2322 162.648 68.1619 162.3 68.1619 161.867V155.638ZM74.0612 157.191V163.531H72.6432V157.191H74.0612ZM72.5494 155.527C72.5494 155.312 72.6198 155.134 72.7604 154.994C72.9049 154.849 73.1041 154.777 73.358 154.777C73.608 154.777 73.8053 154.849 73.9498 154.994C74.0944 155.134 74.1666 155.312 74.1666 155.527C74.1666 155.738 74.0944 155.914 73.9498 156.054C73.8053 156.195 73.608 156.265 73.358 156.265C73.1041 156.265 72.9049 156.195 72.7604 156.054C72.6198 155.914 72.5494 155.738 72.5494 155.527ZM77.7632 158.544V163.531H76.3511V157.191H77.6811L77.7632 158.544ZM77.5112 160.126L77.0542 160.121C77.0581 159.671 77.1206 159.259 77.2417 158.884C77.3667 158.509 77.5386 158.187 77.7573 157.917C77.98 157.648 78.2456 157.441 78.5542 157.296C78.8628 157.148 79.2065 157.074 79.5854 157.074C79.8901 157.074 80.1655 157.117 80.4116 157.203C80.6616 157.285 80.8745 157.419 81.0503 157.607C81.23 157.794 81.3667 158.039 81.4604 158.339C81.5542 158.636 81.6011 159.001 81.6011 159.435V163.531H80.1831V159.429C80.1831 159.125 80.1382 158.884 80.0483 158.708C79.9624 158.529 79.8354 158.402 79.6675 158.328C79.5034 158.25 79.2983 158.21 79.0522 158.21C78.81 158.21 78.5932 158.261 78.4018 158.363C78.2104 158.464 78.0483 158.603 77.9155 158.779C77.7866 158.955 77.687 159.158 77.6167 159.388C77.5464 159.619 77.5112 159.865 77.5112 160.126ZM87.3714 162.259V159.236C87.3714 159.009 87.3304 158.814 87.2484 158.65C87.1663 158.486 87.0413 158.359 86.8734 158.269C86.7093 158.179 86.5023 158.134 86.2523 158.134C86.0218 158.134 85.8226 158.173 85.6546 158.251C85.4866 158.33 85.3558 158.435 85.262 158.568C85.1683 158.701 85.1214 158.851 85.1214 159.019H83.7152C83.7152 158.769 83.7757 158.527 83.8968 158.292C84.0179 158.058 84.1937 157.849 84.4241 157.666C84.6546 157.482 84.93 157.337 85.2503 157.232C85.5706 157.126 85.93 157.074 86.3284 157.074C86.805 157.074 87.2269 157.154 87.5941 157.314C87.9652 157.474 88.2562 157.716 88.4671 158.041C88.682 158.361 88.7894 158.763 88.7894 159.248V162.066C88.7894 162.355 88.8089 162.615 88.848 162.845C88.8909 163.072 88.9515 163.269 89.0296 163.437V163.531H87.5824C87.5159 163.378 87.4632 163.185 87.4241 162.951C87.389 162.712 87.3714 162.482 87.3714 162.259ZM87.5765 159.675L87.5882 160.548H86.5745C86.3128 160.548 86.0824 160.574 85.8831 160.625C85.6839 160.671 85.5179 160.742 85.3851 160.835C85.2523 160.929 85.1527 161.042 85.0863 161.175C85.0199 161.308 84.9866 161.458 84.9866 161.626C84.9866 161.794 85.0257 161.949 85.1038 162.089C85.182 162.226 85.2952 162.333 85.4437 162.412C85.596 162.49 85.7796 162.529 85.9945 162.529C86.2835 162.529 86.5355 162.47 86.7503 162.353C86.9691 162.232 87.1409 162.085 87.2659 161.914C87.3909 161.738 87.4574 161.572 87.4652 161.416L87.9222 162.042C87.8753 162.203 87.7952 162.375 87.682 162.558C87.5687 162.742 87.4202 162.917 87.2366 163.085C87.057 163.25 86.8402 163.384 86.5863 163.49C86.3363 163.595 86.0472 163.648 85.7191 163.648C85.305 163.648 84.9359 163.566 84.6116 163.402C84.2874 163.234 84.0335 163.009 83.8499 162.728C83.6663 162.443 83.5745 162.121 83.5745 161.761C83.5745 161.425 83.637 161.128 83.762 160.871C83.8909 160.609 84.0784 160.39 84.3245 160.214C84.5745 160.039 84.8792 159.906 85.2386 159.816C85.598 159.722 86.0081 159.675 86.4691 159.675H87.5765ZM101.707 159.031V159.5C101.707 160.144 101.623 160.722 101.455 161.234C101.287 161.746 101.047 162.181 100.734 162.541C100.426 162.9 100.055 163.175 99.6211 163.367C99.1875 163.554 98.7071 163.648 98.1797 163.648C97.6563 163.648 97.1778 163.554 96.7442 163.367C96.3145 163.175 95.9414 162.9 95.625 162.541C95.3086 162.181 95.0625 161.746 94.8867 161.234C94.7149 160.722 94.6289 160.144 94.6289 159.5V159.031C94.6289 158.386 94.7149 157.81 94.8867 157.302C95.0586 156.791 95.3008 156.355 95.6133 155.996C95.9297 155.632 96.3028 155.357 96.7324 155.169C97.166 154.978 97.6446 154.882 98.168 154.882C98.6953 154.882 99.1758 154.978 99.6094 155.169C100.043 155.357 100.416 155.632 100.729 155.996C101.041 156.355 101.281 156.791 101.449 157.302C101.621 157.81 101.707 158.386 101.707 159.031ZM100.236 159.5V159.019C100.236 158.542 100.189 158.123 100.096 157.759C100.006 157.392 99.8711 157.085 99.6914 156.839C99.5156 156.589 99.2988 156.402 99.041 156.277C98.7832 156.148 98.4922 156.083 98.168 156.083C97.8438 156.083 97.5547 156.148 97.3008 156.277C97.0469 156.402 96.8301 156.589 96.6504 156.839C96.4746 157.085 96.3399 157.392 96.2461 157.759C96.1524 158.123 96.1055 158.542 96.1055 159.019V159.5C96.1055 159.976 96.1524 160.398 96.2461 160.765C96.3399 161.132 96.4766 161.443 96.6563 161.697C96.8399 161.947 97.0586 162.136 97.3125 162.265C97.5664 162.39 97.8555 162.453 98.1797 162.453C98.5078 162.453 98.7988 162.39 99.0528 162.265C99.3067 162.136 99.5215 161.947 99.6973 161.697C99.8731 161.443 100.006 161.132 100.096 160.765C100.189 160.398 100.236 159.976 100.236 159.5Z" fill="white"/>
<path opacity="0.7" d="M251.533 143.387V144H248.522V143.387H251.533ZM248.674 138.312V144H247.92V138.312H248.674ZM251.135 140.758V141.371H248.522V140.758H251.135ZM251.494 138.312V138.93H248.522V138.312H251.494ZM253.385 139.773L254.311 141.312L255.248 139.773H256.096L254.713 141.859L256.139 144H255.303L254.326 142.414L253.35 144H252.51L253.932 141.859L252.553 139.773H253.385ZM258.127 140.586V145.625H257.401V139.773H258.065L258.127 140.586ZM260.975 141.852V141.934C260.975 142.241 260.938 142.526 260.866 142.789C260.793 143.049 260.686 143.276 260.545 143.469C260.407 143.661 260.237 143.811 260.034 143.918C259.83 144.025 259.597 144.078 259.334 144.078C259.066 144.078 258.829 144.034 258.623 143.945C258.418 143.857 258.243 143.728 258.1 143.559C257.957 143.389 257.842 143.186 257.756 142.949C257.673 142.712 257.616 142.445 257.584 142.148V141.711C257.616 141.398 257.674 141.118 257.76 140.871C257.846 140.624 257.959 140.413 258.1 140.238C258.243 140.061 258.416 139.927 258.619 139.836C258.823 139.742 259.057 139.695 259.323 139.695C259.588 139.695 259.824 139.747 260.03 139.852C260.235 139.953 260.409 140.099 260.549 140.289C260.69 140.479 260.795 140.707 260.866 140.973C260.938 141.236 260.975 141.529 260.975 141.852ZM260.248 141.934V141.852C260.248 141.641 260.226 141.443 260.182 141.258C260.138 141.07 260.069 140.906 259.975 140.766C259.884 140.622 259.767 140.51 259.623 140.43C259.48 140.346 259.31 140.305 259.112 140.305C258.929 140.305 258.77 140.336 258.635 140.398C258.502 140.461 258.389 140.546 258.295 140.652C258.201 140.757 258.125 140.876 258.065 141.012C258.007 141.145 257.965 141.283 257.936 141.426V142.438C257.988 142.62 258.061 142.792 258.155 142.953C258.248 143.112 258.373 143.241 258.53 143.34C258.686 143.436 258.882 143.484 259.119 143.484C259.315 143.484 259.483 143.444 259.623 143.363C259.767 143.28 259.884 143.167 259.975 143.023C260.069 142.88 260.138 142.716 260.182 142.531C260.226 142.344 260.248 142.145 260.248 141.934ZM263.221 139.773V144H262.494V139.773H263.221ZM262.44 138.652C262.44 138.535 262.475 138.436 262.545 138.355C262.618 138.275 262.725 138.234 262.866 138.234C263.004 138.234 263.109 138.275 263.182 138.355C263.258 138.436 263.295 138.535 263.295 138.652C263.295 138.764 263.258 138.861 263.182 138.941C263.109 139.02 263.004 139.059 262.866 139.059C262.725 139.059 262.618 139.02 262.545 138.941C262.475 138.861 262.44 138.764 262.44 138.652ZM265.643 140.438V144H264.92V139.773H265.623L265.643 140.438ZM266.963 139.75L266.959 140.422C266.899 140.409 266.842 140.401 266.787 140.398C266.735 140.393 266.676 140.391 266.608 140.391C266.441 140.391 266.294 140.417 266.166 140.469C266.039 140.521 265.931 140.594 265.842 140.688C265.754 140.781 265.683 140.893 265.631 141.023C265.582 141.151 265.549 141.292 265.534 141.445L265.33 141.562C265.33 141.307 265.355 141.068 265.405 140.844C265.457 140.62 265.536 140.422 265.643 140.25C265.75 140.076 265.885 139.94 266.049 139.844C266.216 139.745 266.414 139.695 266.643 139.695C266.695 139.695 266.755 139.702 266.823 139.715C266.89 139.725 266.937 139.737 266.963 139.75ZM269.846 144.078C269.552 144.078 269.285 144.029 269.045 143.93C268.808 143.828 268.604 143.686 268.432 143.504C268.263 143.322 268.133 143.105 268.041 142.855C267.95 142.605 267.905 142.332 267.905 142.035V141.871C267.905 141.527 267.955 141.221 268.057 140.953C268.159 140.682 268.297 140.453 268.471 140.266C268.646 140.078 268.844 139.936 269.065 139.84C269.286 139.743 269.515 139.695 269.752 139.695C270.054 139.695 270.315 139.747 270.534 139.852C270.755 139.956 270.936 140.102 271.077 140.289C271.217 140.474 271.321 140.693 271.389 140.945C271.457 141.195 271.491 141.469 271.491 141.766V142.09H268.334V141.5H270.768V141.445C270.758 141.258 270.719 141.076 270.651 140.898C270.586 140.721 270.482 140.576 270.338 140.461C270.195 140.346 270 140.289 269.752 140.289C269.588 140.289 269.437 140.324 269.299 140.395C269.161 140.462 269.043 140.564 268.944 140.699C268.845 140.835 268.768 141 268.713 141.195C268.659 141.391 268.631 141.616 268.631 141.871V142.035C268.631 142.236 268.659 142.424 268.713 142.602C268.771 142.776 268.853 142.93 268.959 143.062C269.069 143.195 269.2 143.299 269.354 143.375C269.51 143.451 269.687 143.488 269.885 143.488C270.14 143.488 270.357 143.436 270.534 143.332C270.711 143.228 270.866 143.089 270.998 142.914L271.436 143.262C271.345 143.4 271.229 143.531 271.088 143.656C270.948 143.781 270.774 143.883 270.569 143.961C270.366 144.039 270.125 144.078 269.846 144.078ZM275.538 143.18V138H276.264V144H275.6L275.538 143.18ZM272.694 141.934V141.852C272.694 141.529 272.733 141.236 272.811 140.973C272.892 140.707 273.005 140.479 273.151 140.289C273.299 140.099 273.475 139.953 273.678 139.852C273.884 139.747 274.113 139.695 274.366 139.695C274.631 139.695 274.863 139.742 275.061 139.836C275.262 139.927 275.431 140.061 275.569 140.238C275.709 140.413 275.82 140.624 275.901 140.871C275.982 141.118 276.038 141.398 276.069 141.711V142.07C276.04 142.38 275.984 142.659 275.901 142.906C275.82 143.154 275.709 143.365 275.569 143.539C275.431 143.714 275.262 143.848 275.061 143.941C274.86 144.033 274.626 144.078 274.358 144.078C274.11 144.078 273.884 144.025 273.678 143.918C273.475 143.811 273.299 143.661 273.151 143.469C273.005 143.276 272.892 143.049 272.811 142.789C272.733 142.526 272.694 142.241 272.694 141.934ZM273.42 141.852V141.934C273.42 142.145 273.441 142.342 273.483 142.527C273.527 142.712 273.595 142.875 273.686 143.016C273.777 143.156 273.893 143.267 274.034 143.348C274.174 143.426 274.342 143.465 274.538 143.465C274.777 143.465 274.974 143.414 275.127 143.312C275.284 143.211 275.409 143.077 275.502 142.91C275.596 142.743 275.669 142.562 275.721 142.367V141.426C275.69 141.283 275.644 141.145 275.584 141.012C275.527 140.876 275.452 140.757 275.358 140.652C275.267 140.546 275.153 140.461 275.018 140.398C274.885 140.336 274.728 140.305 274.545 140.305C274.347 140.305 274.177 140.346 274.034 140.43C273.893 140.51 273.777 140.622 273.686 140.766C273.595 140.906 273.527 141.07 273.483 141.258C273.441 141.443 273.42 141.641 273.42 141.852ZM282.1 144H280.913L280.92 143.387H282.1C282.506 143.387 282.845 143.302 283.116 143.133C283.387 142.961 283.59 142.721 283.725 142.414C283.863 142.104 283.932 141.742 283.932 141.328V140.98C283.932 140.655 283.893 140.366 283.815 140.113C283.737 139.858 283.622 139.643 283.471 139.469C283.32 139.292 283.135 139.158 282.917 139.066C282.7 138.975 282.452 138.93 282.17 138.93H280.889V138.312H282.17C282.543 138.312 282.883 138.375 283.19 138.5C283.497 138.622 283.762 138.801 283.983 139.035C284.207 139.267 284.379 139.548 284.499 139.879C284.618 140.207 284.678 140.577 284.678 140.988V141.328C284.678 141.74 284.618 142.111 284.499 142.441C284.379 142.77 284.206 143.049 283.979 143.281C283.755 143.513 283.484 143.691 283.167 143.816C282.851 143.939 282.496 144 282.1 144ZM281.315 138.312V144H280.561V138.312H281.315ZM288.733 143.277V141.102C288.733 140.935 288.699 140.79 288.631 140.668C288.566 140.543 288.467 140.447 288.335 140.379C288.202 140.311 288.038 140.277 287.842 140.277C287.66 140.277 287.5 140.309 287.362 140.371C287.226 140.434 287.12 140.516 287.042 140.617C286.966 140.719 286.928 140.828 286.928 140.945H286.206C286.206 140.794 286.245 140.645 286.323 140.496C286.401 140.348 286.513 140.214 286.659 140.094C286.807 139.971 286.984 139.875 287.19 139.805C287.398 139.732 287.63 139.695 287.885 139.695C288.193 139.695 288.463 139.747 288.698 139.852C288.935 139.956 289.12 140.113 289.252 140.324C289.388 140.533 289.456 140.794 289.456 141.109V143.078C289.456 143.219 289.467 143.368 289.491 143.527C289.517 143.686 289.555 143.823 289.604 143.938V144H288.85C288.814 143.917 288.785 143.806 288.764 143.668C288.743 143.527 288.733 143.397 288.733 143.277ZM288.858 141.438L288.866 141.945H288.135C287.93 141.945 287.746 141.962 287.585 141.996C287.423 142.027 287.288 142.076 287.178 142.141C287.069 142.206 286.986 142.288 286.928 142.387C286.871 142.483 286.842 142.596 286.842 142.727C286.842 142.859 286.872 142.98 286.932 143.09C286.992 143.199 287.082 143.286 287.202 143.352C287.324 143.414 287.474 143.445 287.651 143.445C287.872 143.445 288.068 143.398 288.237 143.305C288.406 143.211 288.54 143.096 288.639 142.961C288.741 142.826 288.795 142.694 288.803 142.566L289.112 142.914C289.094 143.023 289.044 143.145 288.963 143.277C288.883 143.41 288.775 143.538 288.639 143.66C288.506 143.78 288.348 143.88 288.163 143.961C287.98 144.039 287.775 144.078 287.545 144.078C287.259 144.078 287.008 144.022 286.792 143.91C286.578 143.798 286.411 143.648 286.292 143.461C286.174 143.271 286.116 143.059 286.116 142.824C286.116 142.598 286.16 142.398 286.249 142.227C286.337 142.052 286.465 141.908 286.631 141.793C286.798 141.676 286.999 141.587 287.233 141.527C287.467 141.467 287.729 141.438 288.018 141.438H288.858ZM292.901 139.773V140.328H290.616V139.773H292.901ZM291.389 138.746H292.112V142.953C292.112 143.096 292.134 143.204 292.178 143.277C292.223 143.35 292.28 143.398 292.35 143.422C292.42 143.445 292.496 143.457 292.577 143.457C292.637 143.457 292.699 143.452 292.764 143.441C292.832 143.428 292.883 143.418 292.917 143.41L292.92 144C292.863 144.018 292.788 144.035 292.694 144.051C292.603 144.069 292.492 144.078 292.362 144.078C292.185 144.078 292.022 144.043 291.874 143.973C291.725 143.902 291.607 143.785 291.518 143.621C291.432 143.454 291.389 143.23 291.389 142.949V138.746ZM296.042 144.078C295.747 144.078 295.48 144.029 295.241 143.93C295.004 143.828 294.799 143.686 294.628 143.504C294.458 143.322 294.328 143.105 294.237 142.855C294.146 142.605 294.1 142.332 294.1 142.035V141.871C294.1 141.527 294.151 141.221 294.253 140.953C294.354 140.682 294.492 140.453 294.667 140.266C294.841 140.078 295.039 139.936 295.26 139.84C295.482 139.743 295.711 139.695 295.948 139.695C296.25 139.695 296.51 139.747 296.729 139.852C296.95 139.956 297.131 140.102 297.272 140.289C297.413 140.474 297.517 140.693 297.585 140.945C297.652 141.195 297.686 141.469 297.686 141.766V142.09H294.53V141.5H296.963V141.445C296.953 141.258 296.914 141.076 296.846 140.898C296.781 140.721 296.677 140.576 296.534 140.461C296.391 140.346 296.195 140.289 295.948 140.289C295.784 140.289 295.633 140.324 295.495 140.395C295.357 140.462 295.238 140.564 295.139 140.699C295.04 140.835 294.963 141 294.909 141.195C294.854 141.391 294.827 141.616 294.827 141.871V142.035C294.827 142.236 294.854 142.424 294.909 142.602C294.966 142.776 295.048 142.93 295.155 143.062C295.264 143.195 295.396 143.299 295.549 143.375C295.706 143.451 295.883 143.488 296.081 143.488C296.336 143.488 296.552 143.436 296.729 143.332C296.906 143.228 297.061 143.089 297.194 142.914L297.631 143.262C297.54 143.4 297.424 143.531 297.284 143.656C297.143 143.781 296.97 143.883 296.764 143.961C296.561 144.039 296.32 144.078 296.042 144.078Z" fill="white"/>
<path d="M253.465 160.02V161.414C253.465 162.082 253.399 162.652 253.266 163.125C253.137 163.594 252.949 163.975 252.703 164.268C252.457 164.561 252.162 164.775 251.819 164.912C251.479 165.049 251.098 165.117 250.676 165.117C250.34 165.117 250.028 165.074 249.739 164.988C249.453 164.902 249.196 164.768 248.965 164.584C248.735 164.4 248.537 164.164 248.373 163.875C248.213 163.582 248.088 163.232 247.998 162.826C247.912 162.42 247.869 161.949 247.869 161.414V160.02C247.869 159.348 247.936 158.781 248.069 158.32C248.201 157.855 248.391 157.479 248.637 157.189C248.883 156.896 249.176 156.684 249.516 156.551C249.86 156.418 250.242 156.352 250.664 156.352C251.004 156.352 251.317 156.395 251.602 156.48C251.891 156.562 252.149 156.693 252.375 156.873C252.606 157.053 252.801 157.287 252.961 157.576C253.125 157.861 253.25 158.207 253.336 158.613C253.422 159.016 253.465 159.484 253.465 160.02ZM252.053 161.613V159.809C252.053 159.469 252.033 159.17 251.994 158.912C251.955 158.65 251.897 158.43 251.819 158.25C251.744 158.066 251.651 157.918 251.537 157.805C251.424 157.688 251.295 157.604 251.151 157.553C251.006 157.498 250.844 157.471 250.664 157.471C250.446 157.471 250.25 157.514 250.078 157.6C249.906 157.682 249.762 157.814 249.645 157.998C249.528 158.182 249.438 158.424 249.375 158.725C249.317 159.021 249.287 159.383 249.287 159.809V161.613C249.287 161.957 249.307 162.26 249.346 162.521C249.385 162.783 249.444 163.008 249.522 163.195C249.6 163.379 249.694 163.531 249.803 163.652C249.916 163.77 250.045 163.855 250.19 163.91C250.338 163.965 250.5 163.992 250.676 163.992C250.899 163.992 251.096 163.949 251.268 163.863C251.44 163.777 251.584 163.641 251.701 163.453C251.819 163.262 251.906 163.014 251.965 162.709C252.024 162.404 252.053 162.039 252.053 161.613ZM259.745 156.416H259.921V157.57H259.821C259.317 157.57 258.882 157.648 258.515 157.805C258.151 157.961 257.853 158.176 257.618 158.449C257.384 158.723 257.208 159.043 257.091 159.41C256.978 159.773 256.921 160.16 256.921 160.57V161.912C256.921 162.252 256.958 162.553 257.032 162.814C257.107 163.072 257.21 163.289 257.343 163.465C257.48 163.637 257.636 163.768 257.812 163.857C257.987 163.947 258.177 163.992 258.38 163.992C258.591 163.992 258.782 163.949 258.954 163.863C259.126 163.773 259.273 163.65 259.394 163.494C259.515 163.338 259.607 163.152 259.669 162.938C259.732 162.723 259.763 162.488 259.763 162.234C259.763 161.992 259.732 161.766 259.669 161.555C259.61 161.34 259.523 161.152 259.405 160.992C259.288 160.828 259.142 160.701 258.966 160.611C258.794 160.518 258.595 160.471 258.368 160.471C258.087 160.471 257.831 160.537 257.601 160.67C257.374 160.803 257.191 160.977 257.05 161.191C256.913 161.402 256.839 161.627 256.827 161.865L256.288 161.689C256.319 161.326 256.4 161 256.528 160.711C256.661 160.422 256.835 160.176 257.05 159.973C257.265 159.77 257.513 159.615 257.794 159.51C258.079 159.4 258.392 159.346 258.732 159.346C259.146 159.346 259.505 159.424 259.81 159.58C260.114 159.736 260.366 159.949 260.566 160.219C260.769 160.484 260.919 160.789 261.017 161.133C261.118 161.473 261.169 161.828 261.169 162.199C261.169 162.609 261.107 162.992 260.982 163.348C260.857 163.699 260.673 164.008 260.431 164.273C260.192 164.539 259.901 164.746 259.558 164.895C259.218 165.043 258.831 165.117 258.398 165.117C257.941 165.117 257.532 165.029 257.173 164.854C256.817 164.678 256.515 164.436 256.265 164.127C256.019 163.818 255.831 163.463 255.702 163.061C255.573 162.658 255.509 162.232 255.509 161.783V161.197C255.509 160.549 255.591 159.938 255.755 159.363C255.919 158.785 256.171 158.275 256.511 157.834C256.855 157.393 257.294 157.047 257.829 156.797C258.364 156.543 259.003 156.416 259.745 156.416ZM263.106 165.792L262.182 165.516L265.266 155.94L266.202 156.216L263.106 165.792ZM273.091 163.875V165H267.372V164.033L270.149 161.004C270.454 160.66 270.694 160.363 270.87 160.113C271.046 159.863 271.169 159.639 271.239 159.439C271.313 159.236 271.35 159.039 271.35 158.848C271.35 158.578 271.3 158.342 271.198 158.139C271.1 157.932 270.956 157.77 270.764 157.652C270.573 157.531 270.341 157.471 270.067 157.471C269.751 157.471 269.485 157.539 269.27 157.676C269.055 157.812 268.893 158.002 268.784 158.244C268.675 158.482 268.62 158.756 268.62 159.064H267.208C267.208 158.568 267.321 158.115 267.548 157.705C267.774 157.291 268.102 156.963 268.532 156.721C268.962 156.475 269.479 156.352 270.085 156.352C270.655 156.352 271.139 156.447 271.538 156.639C271.936 156.83 272.239 157.102 272.446 157.453C272.657 157.805 272.762 158.221 272.762 158.701C272.762 158.967 272.72 159.23 272.634 159.492C272.548 159.754 272.425 160.016 272.264 160.277C272.108 160.535 271.923 160.795 271.708 161.057C271.493 161.314 271.257 161.576 270.999 161.842L269.153 163.875H273.091ZM280.613 156.469V157.242L277.203 165H275.714L279.119 157.594H274.701V156.469H280.613Z" fill="white"/>
<path fill-rule="evenodd" clip-rule="evenodd" d="M288.814 54.5261C288.814 48.0504 282.66 42.8008 275.07 42.8008C267.479 42.8008 261.326 48.0504 261.326 54.5261" fill="url(#paint0_linear_1062_4043)"/>
<path fill-rule="evenodd" clip-rule="evenodd" d="M300.19 54.5261C300.19 48.0504 294.036 42.8008 286.446 42.8008C278.855 42.8008 272.702 48.0504 272.702 54.5261" fill="url(#paint1_linear_1062_4043)"/>
</g>
<defs>
<filter id="filter0_di_1062_4043" x="0.9" y="0.9" width="346.2" height="196.2" filterUnits="userSpaceOnUse" color-interpolation-filters="sRGB">
<feFlood flood-opacity="0" result="BackgroundImageFix"/>
<feColorMatrix in="SourceAlpha" type="matrix" values="0 0 0 0 0 0 0 0 0 0 0 0 0 0 0 0 0 0 127 0" result="hardAlpha"/>
<feOffset dy="-1"/>
<feGaussianBlur stdDeviation="6.55"/>
<feComposite in2="hardAlpha" operator="out"/>
<feColorMatrix type="matrix" values="0 0 0 0 0.0627451 0 0 0 0 0.576471 0 0 0 0 1 0 0 0 0.25 0"/>
<feBlend mode="normal" in2="BackgroundImageFix" result="effect1_dropShadow_1062_4043"/>
<feBlend mode="normal" in="SourceGraphic" in2="effect1_dropShadow_1062_4043" result="shape"/>
<feColorMatrix in="SourceAlpha" type="matrix" values="0 0 0 0 0 0 0 0 0 0 0 0 0 0 0 0 0 0 127 0" result="hardAlpha"/>
<feOffset dx="-3" dy="-3"/>
<feGaussianBlur stdDeviation="7.25"/>
<feComposite in2="hardAlpha" operator="arithmetic" k2="-1" k3="1"/>
<feColorMatrix type="matrix" values="0 0 0 0 0 0 0 0 0 0 0 0 0 0 0 0 0 0 0.25 0"/>
<feBlend mode="normal" in2="shape" result="effect2_innerShadow_1062_4043"/>
</filter>
<linearGradient id="paint0_linear_1062_4043" x1="288.814" y1="42.8008" x2="261.326" y2="42.8008" gradientUnits="userSpaceOnUse">
<stop stop-color="white" stop-opacity="0.15"/>
<stop offset="1" stop-color="#EEEEEE" stop-opacity="0.225388"/>
</linearGradient>
<linearGradient id="paint1_linear_1062_4043" x1="272.702" y1="54.5261" x2="300.19" y2="54.5261" gradientUnits="userSpaceOnUse">
<stop stop-color="#EEEEEE" stop-opacity="0.628688"/>
<stop offset="1" stop-color="white" stop-opacity="0.174279"/>
</linearGradient>
</defs>
</svg>
