<svg width="360" height="223" viewBox="0 0 360 223" fill="none" xmlns="http://www.w3.org/2000/svg">
<g filter="url(#filter0_di_638_3872)">
<g filter="url(#filter1_d_638_3872)">
<rect x="20" y="15" width="320" height="170" rx="20" fill="#3D99E5" fill-opacity="0.82"/>
</g>
<mask id="mask0_638_3872" style="mask-type:alpha" maskUnits="userSpaceOnUse" x="20" y="50" width="320" height="135">
<rect x="20" y="50" width="320" height="135" rx="20" fill="#66BAFF"/>
</mask>
<g mask="url(#mask0_638_3872)">
<rect opacity="0.1" width="84.4137" height="288.702" transform="matrix(0.566698 0.823926 -0.894213 0.447641 348.49 57)" fill="white"/>
<rect opacity="0.1" width="84.4137" height="288.702" transform="matrix(0.566698 0.823926 -0.894213 0.447641 380.952 82.3904)" fill="white"/>
</g>
<path d="M54.7864 100.026V110H52.8176V102.296L50.4524 103.048V101.496L54.5745 100.026H54.7864ZM65.2082 100.026V110H63.2395V102.296L60.8743 103.048V101.496L64.9963 100.026H65.2082ZM77.5305 104.148V105.871C77.5305 106.618 77.4507 107.263 77.2912 107.806C77.1317 108.343 76.9016 108.785 76.6008 109.132C76.3046 109.474 75.9514 109.727 75.5412 109.891C75.1311 110.055 74.6753 110.137 74.174 110.137C73.773 110.137 73.3993 110.087 73.0529 109.986C72.7066 109.882 72.3944 109.72 72.1164 109.501C71.843 109.282 71.606 109.007 71.4055 108.674C71.2095 108.337 71.0591 107.936 70.9543 107.471C70.8495 107.006 70.7971 106.473 70.7971 105.871V104.148C70.7971 103.401 70.8768 102.761 71.0363 102.228C71.2004 101.69 71.4306 101.25 71.7268 100.908C72.0276 100.566 72.383 100.316 72.7932 100.156C73.2033 99.9922 73.6591 99.9102 74.1604 99.9102C74.5614 99.9102 74.9328 99.9626 75.2746 100.067C75.621 100.168 75.9332 100.325 76.2112 100.539C76.4891 100.753 76.7261 101.029 76.9221 101.366C77.1181 101.699 77.2684 102.098 77.3733 102.562C77.4781 103.023 77.5305 103.551 77.5305 104.148ZM75.5549 106.131V103.882C75.5549 103.522 75.5344 103.207 75.4934 102.938C75.4569 102.67 75.4 102.442 75.3225 102.255C75.245 102.063 75.1493 101.909 75.0354 101.79C74.9214 101.672 74.7916 101.585 74.6457 101.53C74.4999 101.476 74.3381 101.448 74.1604 101.448C73.9371 101.448 73.7388 101.492 73.5656 101.578C73.397 101.665 73.2535 101.804 73.135 101.995C73.0165 102.182 72.9253 102.433 72.8615 102.747C72.8023 103.057 72.7727 103.435 72.7727 103.882V106.131C72.7727 106.491 72.7909 106.808 72.8274 107.081C72.8684 107.354 72.9276 107.589 73.0051 107.785C73.0871 107.977 73.1828 108.134 73.2922 108.257C73.4061 108.375 73.536 108.462 73.6819 108.517C73.8322 108.571 73.9963 108.599 74.174 108.599C74.3928 108.599 74.5865 108.555 74.7551 108.469C74.9283 108.378 75.0741 108.236 75.1926 108.045C75.3156 107.849 75.4068 107.594 75.466 107.279C75.5253 106.965 75.5549 106.582 75.5549 106.131ZM86.052 100.026V110H84.0832V102.296L81.718 103.048V101.496L85.84 100.026H86.052Z" fill="white"/>
<path d="M104.796 108.462V110H97.9875V108.688L101.207 105.235C101.531 104.875 101.786 104.559 101.973 104.285C102.16 104.007 102.294 103.759 102.376 103.54C102.463 103.317 102.506 103.105 102.506 102.904C102.506 102.604 102.456 102.346 102.356 102.132C102.255 101.913 102.107 101.744 101.911 101.626C101.72 101.507 101.483 101.448 101.2 101.448C100.9 101.448 100.64 101.521 100.421 101.667C100.207 101.813 100.043 102.016 99.929 102.275C99.8196 102.535 99.7649 102.829 99.7649 103.157H97.7893C97.7893 102.565 97.9306 102.022 98.2131 101.53C98.4957 101.034 98.8944 100.639 99.4094 100.348C99.9244 100.051 100.535 99.9033 101.241 99.9033C101.939 99.9033 102.527 100.017 103.005 100.245C103.488 100.468 103.853 100.792 104.099 101.216C104.35 101.635 104.475 102.136 104.475 102.72C104.475 103.048 104.422 103.369 104.318 103.684C104.213 103.993 104.062 104.303 103.866 104.613C103.675 104.919 103.443 105.229 103.169 105.543C102.896 105.857 102.593 106.183 102.26 106.521L100.531 108.462H104.796ZM115.109 104.148V105.871C115.109 106.618 115.029 107.263 114.869 107.806C114.71 108.343 114.48 108.785 114.179 109.132C113.883 109.474 113.53 109.727 113.119 109.891C112.709 110.055 112.253 110.137 111.752 110.137C111.351 110.137 110.977 110.087 110.631 109.986C110.285 109.882 109.973 109.72 109.695 109.501C109.421 109.282 109.184 109.007 108.984 108.674C108.788 108.337 108.637 107.936 108.532 107.471C108.428 107.006 108.375 106.473 108.375 105.871V104.148C108.375 103.401 108.455 102.761 108.614 102.228C108.779 101.69 109.009 101.25 109.305 100.908C109.606 100.566 109.961 100.316 110.371 100.156C110.781 99.9922 111.237 99.9102 111.739 99.9102C112.14 99.9102 112.511 99.9626 112.853 100.067C113.199 100.168 113.511 100.325 113.789 100.539C114.067 100.753 114.304 101.029 114.5 101.366C114.696 101.699 114.847 102.098 114.951 102.562C115.056 103.023 115.109 103.551 115.109 104.148ZM113.133 106.131V103.882C113.133 103.522 113.113 103.207 113.072 102.938C113.035 102.67 112.978 102.442 112.901 102.255C112.823 102.063 112.727 101.909 112.614 101.79C112.5 101.672 112.37 101.585 112.224 101.53C112.078 101.476 111.916 101.448 111.739 101.448C111.515 101.448 111.317 101.492 111.144 101.578C110.975 101.665 110.832 101.804 110.713 101.995C110.595 102.182 110.503 102.433 110.44 102.747C110.38 103.057 110.351 103.435 110.351 103.882V106.131C110.351 106.491 110.369 106.808 110.406 107.081C110.447 107.354 110.506 107.589 110.583 107.785C110.665 107.977 110.761 108.134 110.87 108.257C110.984 108.375 111.114 108.462 111.26 108.517C111.41 108.571 111.574 108.599 111.752 108.599C111.971 108.599 112.165 108.555 112.333 108.469C112.506 108.378 112.652 108.236 112.771 108.045C112.894 107.849 112.985 107.594 113.044 107.279C113.103 106.965 113.133 106.582 113.133 106.131ZM125.53 104.148V105.871C125.53 106.618 125.451 107.263 125.291 107.806C125.132 108.343 124.902 108.785 124.601 109.132C124.305 109.474 123.951 109.727 123.541 109.891C123.131 110.055 122.675 110.137 122.174 110.137C121.773 110.137 121.399 110.087 121.053 109.986C120.707 109.882 120.394 109.72 120.116 109.501C119.843 109.282 119.606 109.007 119.405 108.674C119.21 108.337 119.059 107.936 118.954 107.471C118.849 107.006 118.797 106.473 118.797 105.871V104.148C118.797 103.401 118.877 102.761 119.036 102.228C119.2 101.69 119.431 101.25 119.727 100.908C120.028 100.566 120.383 100.316 120.793 100.156C121.203 99.9922 121.659 99.9102 122.16 99.9102C122.561 99.9102 122.933 99.9626 123.275 100.067C123.621 100.168 123.933 100.325 124.211 100.539C124.489 100.753 124.726 101.029 124.922 101.366C125.118 101.699 125.268 102.098 125.373 102.562C125.478 103.023 125.53 103.551 125.53 104.148ZM123.555 106.131V103.882C123.555 103.522 123.534 103.207 123.493 102.938C123.457 102.67 123.4 102.442 123.322 102.255C123.245 102.063 123.149 101.909 123.035 101.79C122.921 101.672 122.792 101.585 122.646 101.53C122.5 101.476 122.338 101.448 122.16 101.448C121.937 101.448 121.739 101.492 121.566 101.578C121.397 101.665 121.253 101.804 121.135 101.995C121.016 102.182 120.925 102.433 120.862 102.747C120.802 103.057 120.773 103.435 120.773 103.882V106.131C120.773 106.491 120.791 106.808 120.827 107.081C120.868 107.354 120.928 107.589 121.005 107.785C121.087 107.977 121.183 108.134 121.292 108.257C121.406 108.375 121.536 108.462 121.682 108.517C121.832 108.571 121.996 108.599 122.174 108.599C122.393 108.599 122.586 108.555 122.755 108.469C122.928 108.378 123.074 108.236 123.193 108.045C123.316 107.849 123.407 107.594 123.466 107.279C123.525 106.965 123.555 106.582 123.555 106.131ZM134.052 100.026V110H132.083V102.296L129.718 103.048V101.496L133.84 100.026H134.052Z" fill="white"/>
<path d="M152.694 107.272C152.694 107.897 152.548 108.423 152.256 108.852C151.964 109.275 151.563 109.597 151.053 109.815C150.547 110.03 149.973 110.137 149.33 110.137C148.688 110.137 148.111 110.03 147.601 109.815C147.09 109.597 146.687 109.275 146.391 108.852C146.095 108.423 145.947 107.897 145.947 107.272C145.947 106.853 146.031 106.475 146.199 106.138C146.368 105.796 146.603 105.504 146.904 105.263C147.209 105.017 147.567 104.83 147.977 104.702C148.387 104.57 148.834 104.504 149.317 104.504C149.964 104.504 150.543 104.618 151.053 104.846C151.563 105.074 151.964 105.395 152.256 105.81C152.548 106.224 152.694 106.712 152.694 107.272ZM150.711 107.143C150.711 106.837 150.652 106.575 150.533 106.356C150.42 106.133 150.258 105.962 150.048 105.844C149.838 105.725 149.595 105.666 149.317 105.666C149.039 105.666 148.795 105.725 148.585 105.844C148.376 105.962 148.212 106.133 148.093 106.356C147.979 106.575 147.922 106.837 147.922 107.143C147.922 107.443 147.979 107.703 148.093 107.922C148.212 108.141 148.376 108.309 148.585 108.428C148.799 108.542 149.048 108.599 149.33 108.599C149.613 108.599 149.857 108.542 150.062 108.428C150.271 108.309 150.431 108.141 150.54 107.922C150.654 107.703 150.711 107.443 150.711 107.143ZM152.482 102.686C152.482 103.191 152.347 103.64 152.078 104.032C151.809 104.42 151.436 104.723 150.957 104.941C150.483 105.16 149.941 105.27 149.33 105.27C148.715 105.27 148.168 105.16 147.69 104.941C147.211 104.723 146.837 104.42 146.569 104.032C146.3 103.64 146.165 103.191 146.165 102.686C146.165 102.084 146.3 101.578 146.569 101.168C146.842 100.753 147.216 100.439 147.69 100.225C148.168 100.01 148.711 99.9033 149.317 99.9033C149.932 99.9033 150.476 100.01 150.95 100.225C151.429 100.439 151.803 100.753 152.072 101.168C152.345 101.578 152.482 102.084 152.482 102.686ZM150.513 102.774C150.513 102.506 150.465 102.273 150.369 102.077C150.274 101.877 150.137 101.722 149.959 101.612C149.786 101.503 149.572 101.448 149.317 101.448C149.071 101.448 148.859 101.501 148.681 101.605C148.508 101.71 148.373 101.863 148.278 102.063C148.186 102.259 148.141 102.496 148.141 102.774C148.141 103.043 148.186 103.28 148.278 103.485C148.373 103.686 148.51 103.843 148.688 103.957C148.865 104.071 149.08 104.128 149.33 104.128C149.581 104.128 149.793 104.071 149.966 103.957C150.144 103.843 150.278 103.686 150.369 103.485C150.465 103.28 150.513 103.043 150.513 102.774ZM163.17 100.047V101.106L159.322 110H157.243L161.092 101.585H156.136V100.047H163.17ZM173.64 108.462V110H166.831V108.688L170.051 105.235C170.375 104.875 170.63 104.559 170.817 104.285C171.003 104.007 171.138 103.759 171.22 103.54C171.307 103.317 171.35 103.105 171.35 102.904C171.35 102.604 171.3 102.346 171.199 102.132C171.099 101.913 170.951 101.744 170.755 101.626C170.564 101.507 170.327 101.448 170.044 101.448C169.743 101.448 169.484 101.521 169.265 101.667C169.051 101.813 168.887 102.016 168.773 102.275C168.663 102.535 168.609 102.829 168.609 103.157H166.633C166.633 102.565 166.774 102.022 167.057 101.53C167.339 101.034 167.738 100.639 168.253 100.348C168.768 100.051 169.379 99.9033 170.085 99.9033C170.782 99.9033 171.37 100.017 171.849 100.245C172.332 100.468 172.697 100.792 172.943 101.216C173.193 101.635 173.319 102.136 173.319 102.72C173.319 103.048 173.266 103.369 173.161 103.684C173.057 103.993 172.906 104.303 172.71 104.613C172.519 104.919 172.286 105.229 172.013 105.543C171.739 105.857 171.436 106.183 171.104 106.521L169.374 108.462H173.64ZM179.27 104.169H180.322C180.66 104.169 180.938 104.112 181.156 103.998C181.375 103.88 181.537 103.715 181.642 103.506C181.751 103.292 181.806 103.043 181.806 102.761C181.806 102.506 181.756 102.28 181.655 102.084C181.56 101.883 181.412 101.729 181.211 101.619C181.011 101.505 180.758 101.448 180.452 101.448C180.211 101.448 179.988 101.496 179.782 101.592C179.577 101.688 179.413 101.822 179.29 101.995C179.167 102.168 179.106 102.378 179.106 102.624H177.13C177.13 102.077 177.276 101.601 177.568 101.195C177.864 100.79 178.26 100.473 178.757 100.245C179.254 100.017 179.801 99.9033 180.398 99.9033C181.072 99.9033 181.662 100.013 182.168 100.231C182.674 100.446 183.068 100.762 183.351 101.182C183.633 101.601 183.775 102.12 183.775 102.74C183.775 103.055 183.702 103.36 183.556 103.656C183.41 103.948 183.2 104.212 182.927 104.449C182.658 104.682 182.33 104.868 181.943 105.01C181.555 105.146 181.12 105.215 180.637 105.215H179.27V104.169ZM179.27 105.666V104.647H180.637C181.179 104.647 181.655 104.709 182.066 104.832C182.476 104.955 182.82 105.133 183.098 105.365C183.376 105.593 183.585 105.864 183.727 106.179C183.868 106.489 183.939 106.833 183.939 107.211C183.939 107.676 183.85 108.09 183.672 108.455C183.494 108.815 183.244 109.12 182.92 109.371C182.601 109.622 182.227 109.813 181.799 109.945C181.371 110.073 180.904 110.137 180.398 110.137C179.978 110.137 179.566 110.08 179.16 109.966C178.759 109.847 178.395 109.672 178.067 109.439C177.743 109.202 177.483 108.906 177.287 108.551C177.096 108.191 177 107.765 177 107.272H178.976C178.976 107.528 179.04 107.756 179.167 107.956C179.295 108.157 179.47 108.314 179.694 108.428C179.921 108.542 180.174 108.599 180.452 108.599C180.767 108.599 181.036 108.542 181.259 108.428C181.487 108.309 181.66 108.145 181.779 107.936C181.902 107.721 181.963 107.473 181.963 107.19C181.963 106.826 181.897 106.534 181.765 106.315C181.633 106.092 181.444 105.928 181.197 105.823C180.951 105.718 180.66 105.666 180.322 105.666H179.27Z" fill="white"/>
<path d="M200.748 100.047V101.106L196.9 110H194.822L198.67 101.585H193.714V100.047H200.748ZM211.109 104.148V105.871C211.109 106.618 211.029 107.263 210.869 107.806C210.71 108.343 210.48 108.785 210.179 109.132C209.883 109.474 209.53 109.727 209.119 109.891C208.709 110.055 208.253 110.137 207.752 110.137C207.351 110.137 206.977 110.087 206.631 109.986C206.285 109.882 205.973 109.72 205.695 109.501C205.421 109.282 205.184 109.007 204.984 108.674C204.788 108.337 204.637 107.936 204.532 107.471C204.428 107.006 204.375 106.473 204.375 105.871V104.148C204.375 103.401 204.455 102.761 204.614 102.228C204.779 101.69 205.009 101.25 205.305 100.908C205.606 100.566 205.961 100.316 206.371 100.156C206.781 99.9922 207.237 99.9102 207.739 99.9102C208.14 99.9102 208.511 99.9626 208.853 100.067C209.199 100.168 209.511 100.325 209.789 100.539C210.067 100.753 210.304 101.029 210.5 101.366C210.696 101.699 210.847 102.098 210.951 102.562C211.056 103.023 211.109 103.551 211.109 104.148ZM209.133 106.131V103.882C209.133 103.522 209.113 103.207 209.072 102.938C209.035 102.67 208.978 102.442 208.901 102.255C208.823 102.063 208.727 101.909 208.614 101.79C208.5 101.672 208.37 101.585 208.224 101.53C208.078 101.476 207.916 101.448 207.739 101.448C207.515 101.448 207.317 101.492 207.144 101.578C206.975 101.665 206.832 101.804 206.713 101.995C206.595 102.182 206.503 102.433 206.44 102.747C206.38 103.057 206.351 103.435 206.351 103.882V106.131C206.351 106.491 206.369 106.808 206.406 107.081C206.447 107.354 206.506 107.589 206.583 107.785C206.665 107.977 206.761 108.134 206.87 108.257C206.984 108.375 207.114 108.462 207.26 108.517C207.41 108.571 207.574 108.599 207.752 108.599C207.971 108.599 208.165 108.555 208.333 108.469C208.506 108.378 208.652 108.236 208.771 108.045C208.894 107.849 208.985 107.594 209.044 107.279C209.103 106.965 209.133 106.582 209.133 106.131ZM221.53 104.148V105.871C221.53 106.618 221.451 107.263 221.291 107.806C221.132 108.343 220.902 108.785 220.601 109.132C220.305 109.474 219.951 109.727 219.541 109.891C219.131 110.055 218.675 110.137 218.174 110.137C217.773 110.137 217.399 110.087 217.053 109.986C216.707 109.882 216.394 109.72 216.116 109.501C215.843 109.282 215.606 109.007 215.405 108.674C215.21 108.337 215.059 107.936 214.954 107.471C214.849 107.006 214.797 106.473 214.797 105.871V104.148C214.797 103.401 214.877 102.761 215.036 102.228C215.2 101.69 215.431 101.25 215.727 100.908C216.028 100.566 216.383 100.316 216.793 100.156C217.203 99.9922 217.659 99.9102 218.16 99.9102C218.561 99.9102 218.933 99.9626 219.275 100.067C219.621 100.168 219.933 100.325 220.211 100.539C220.489 100.753 220.726 101.029 220.922 101.366C221.118 101.699 221.268 102.098 221.373 102.562C221.478 103.023 221.53 103.551 221.53 104.148ZM219.555 106.131V103.882C219.555 103.522 219.534 103.207 219.493 102.938C219.457 102.67 219.4 102.442 219.322 102.255C219.245 102.063 219.149 101.909 219.035 101.79C218.921 101.672 218.792 101.585 218.646 101.53C218.5 101.476 218.338 101.448 218.16 101.448C217.937 101.448 217.739 101.492 217.566 101.578C217.397 101.665 217.253 101.804 217.135 101.995C217.016 102.182 216.925 102.433 216.862 102.747C216.802 103.057 216.773 103.435 216.773 103.882V106.131C216.773 106.491 216.791 106.808 216.827 107.081C216.868 107.354 216.928 107.589 217.005 107.785C217.087 107.977 217.183 108.134 217.292 108.257C217.406 108.375 217.536 108.462 217.682 108.517C217.832 108.571 217.996 108.599 218.174 108.599C218.393 108.599 218.586 108.555 218.755 108.469C218.928 108.378 219.074 108.236 219.193 108.045C219.316 107.849 219.407 107.594 219.466 107.279C219.525 106.965 219.555 106.582 219.555 106.131ZM230.052 100.026V110H228.083V102.296L225.718 103.048V101.496L229.84 100.026H230.052Z" fill="white"/>
<path d="M59.7014 54.9434V57H50.6311V54.9434H59.7014ZM59.5696 45.6709L51.8 57H49.9456V55.4883L57.7766 44.2031H59.5696V45.6709ZM58.6643 44.2031V46.2686H49.9543V44.2031H58.6643ZM66.7063 46.3916L63.2258 57H60.4221L65.177 44.2031H66.9612L66.7063 46.3916ZM69.5979 57L66.1086 46.3916L65.8274 44.2031H67.6292L72.4104 57H69.5979ZM69.4397 52.2363V54.3018H62.6809V52.2363H69.4397ZM82.1311 49.415V51.4717H75.4514V49.415H82.1311ZM76.2336 44.2031V57H73.5969V44.2031H76.2336ZM84.012 44.2031V57H81.384V44.2031H84.012ZM90.9202 54.3281L93.9348 44.2031H96.8704L92.4143 57H90.4807L90.9202 54.3281ZM88.1428 44.2031L91.1487 54.3281L91.6057 57H89.6545L85.2249 44.2031H88.1428Z" fill="white"/>
<path opacity="0.7" d="M54.6464 138.461V144.21H53.8804L50.9862 139.776V144.21H50.2242V138.461H50.9862L53.8923 142.907V138.461H54.6464ZM58.9444 143.479V141.28C58.9444 141.112 58.9102 140.966 58.8418 140.842C58.776 140.716 58.676 140.618 58.5417 140.55C58.4075 140.481 58.2416 140.447 58.0442 140.447C57.8599 140.447 57.6981 140.479 57.5585 140.542C57.4217 140.605 57.3137 140.688 57.2348 140.791C57.1584 140.893 57.1203 141.004 57.1203 141.122H56.3898C56.3898 140.97 56.4293 140.818 56.5083 140.668C56.5872 140.518 56.7004 140.383 56.8478 140.262C56.9979 140.138 57.1769 140.04 57.3848 139.969C57.5954 139.896 57.8297 139.859 58.0876 139.859C58.3982 139.859 58.672 139.911 58.9089 140.017C59.1485 140.122 59.3353 140.281 59.4696 140.494C59.6065 140.705 59.6749 140.97 59.6749 141.288V143.278C59.6749 143.42 59.6868 143.572 59.7104 143.732C59.7368 143.893 59.7749 144.031 59.825 144.147V144.21H59.0629C59.0261 144.126 58.9971 144.014 58.976 143.874C58.955 143.732 58.9444 143.601 58.9444 143.479ZM59.0708 141.62L59.0787 142.133H58.3403C58.1324 142.133 57.9468 142.15 57.7836 142.184C57.6204 142.216 57.4835 142.265 57.373 142.331C57.2624 142.396 57.1782 142.479 57.1203 142.579C57.0624 142.677 57.0334 142.791 57.0334 142.923C57.0334 143.057 57.0637 143.179 57.1242 143.29C57.1848 143.401 57.2756 143.489 57.3967 143.555C57.5204 143.618 57.6717 143.649 57.8507 143.649C58.0745 143.649 58.2719 143.602 58.443 143.507C58.6141 143.412 58.7497 143.297 58.8497 143.16C58.9523 143.023 59.0076 142.89 59.0155 142.761L59.3274 143.112C59.309 143.223 59.259 143.345 59.1774 143.479C59.0958 143.614 58.9866 143.743 58.8497 143.866C58.7154 143.988 58.5549 144.089 58.368 144.17C58.1837 144.249 57.9758 144.289 57.7441 144.289C57.4546 144.289 57.2006 144.232 56.9821 144.119C56.7662 144.006 56.5978 143.855 56.4767 143.665C56.3582 143.473 56.299 143.258 56.299 143.021C56.299 142.792 56.3437 142.591 56.4332 142.417C56.5227 142.241 56.6517 142.095 56.8202 141.979C56.9887 141.861 57.1913 141.771 57.4282 141.711C57.6652 141.65 57.9297 141.62 58.2219 141.62H59.0708ZM62.0895 140.787V144.21H61.3551V139.938H62.05L62.0895 140.787ZM61.9395 141.912L61.5999 141.9C61.6025 141.608 61.6407 141.338 61.7144 141.091C61.7881 140.841 61.8974 140.623 62.0421 140.439C62.1869 140.255 62.3672 140.113 62.5831 140.013C62.7989 139.91 63.049 139.859 63.3333 139.859C63.5333 139.859 63.7176 139.888 63.8861 139.946C64.0545 140.001 64.2006 140.089 64.3243 140.21C64.4481 140.331 64.5441 140.487 64.6126 140.676C64.681 140.866 64.7152 141.095 64.7152 141.363V144.21H63.9848V141.399C63.9848 141.175 63.9466 140.996 63.8703 140.862C63.7966 140.727 63.6913 140.63 63.5544 140.569C63.4175 140.506 63.2569 140.475 63.0727 140.475C62.8568 140.475 62.6765 140.513 62.5317 140.589C62.387 140.666 62.2711 140.771 62.1843 140.905C62.0974 141.039 62.0342 141.193 61.9948 141.367C61.9579 141.538 61.9395 141.72 61.9395 141.912ZM64.7073 141.509L64.2177 141.659C64.2204 141.425 64.2585 141.2 64.3322 140.984C64.4086 140.768 64.5178 140.576 64.66 140.408C64.8047 140.239 64.9824 140.106 65.193 140.009C65.4036 139.909 65.6444 139.859 65.9156 139.859C66.1446 139.859 66.3473 139.889 66.5236 139.95C66.7026 140.01 66.8527 140.104 66.9737 140.23C67.0975 140.354 67.1909 140.513 67.2541 140.708C67.3173 140.902 67.3489 141.134 67.3489 141.403V144.21H66.6144V141.395C66.6144 141.155 66.5763 140.97 66.4999 140.838C66.4262 140.704 66.3209 140.61 66.1841 140.558C66.0498 140.502 65.8892 140.475 65.7023 140.475C65.5418 140.475 65.3996 140.502 65.2759 140.558C65.1522 140.613 65.0482 140.689 64.964 140.787C64.8798 140.881 64.8153 140.991 64.7705 141.114C64.7284 141.238 64.7073 141.37 64.7073 141.509ZM70.7664 144.289C70.4689 144.289 70.1991 144.239 69.9569 144.139C69.7174 144.036 69.5108 143.893 69.337 143.709C69.1659 143.524 69.0343 143.306 68.9422 143.053C68.85 142.8 68.804 142.524 68.804 142.224V142.058C68.804 141.711 68.8553 141.401 68.958 141.13C69.0606 140.856 69.2001 140.625 69.3765 140.435C69.5529 140.246 69.7529 140.102 69.9767 140.005C70.2004 139.907 70.4321 139.859 70.6716 139.859C70.9769 139.859 71.2402 139.911 71.4613 140.017C71.685 140.122 71.868 140.269 72.0101 140.459C72.1523 140.646 72.2576 140.867 72.326 141.122C72.3944 141.375 72.4287 141.651 72.4287 141.951V142.279H69.2383V141.683H71.6982V141.628C71.6877 141.438 71.6482 141.254 71.5797 141.075C71.5139 140.896 71.4086 140.748 71.2639 140.633C71.1191 140.517 70.9217 140.459 70.6716 140.459C70.5058 140.459 70.3531 140.494 70.2136 140.566C70.0741 140.634 69.9543 140.737 69.8543 140.874C69.7542 141.01 69.6766 141.178 69.6213 141.375C69.566 141.572 69.5384 141.8 69.5384 142.058V142.224C69.5384 142.427 69.566 142.617 69.6213 142.796C69.6792 142.973 69.7621 143.128 69.8701 143.262C69.9806 143.397 70.1136 143.502 70.2689 143.578C70.4268 143.655 70.6058 143.693 70.8058 143.693C71.0638 143.693 71.2823 143.64 71.4613 143.535C71.6403 143.429 71.7969 143.289 71.9312 143.112L72.3734 143.464C72.2813 143.603 72.1641 143.736 72.022 143.862C71.8798 143.989 71.7048 144.092 71.4968 144.17C71.2915 144.249 71.048 144.289 70.7664 144.289ZM79.9468 142.382H80.7049C80.6654 142.745 80.5614 143.07 80.3929 143.357C80.2245 143.644 79.9863 143.872 79.6783 144.04C79.3703 144.206 78.986 144.289 78.5253 144.289C78.1884 144.289 77.8817 144.226 77.6053 144.099C77.3316 143.973 77.096 143.794 76.8986 143.562C76.7011 143.328 76.5485 143.048 76.4405 142.721C76.3353 142.392 76.2826 142.026 76.2826 141.624V141.051C76.2826 140.648 76.3353 140.284 76.4405 139.957C76.5485 139.628 76.7025 139.347 76.9025 139.113C77.1052 138.878 77.3487 138.698 77.633 138.572C77.9173 138.445 78.2371 138.382 78.5924 138.382C79.0268 138.382 79.394 138.464 79.6941 138.627C79.9941 138.79 80.2271 139.016 80.3929 139.306C80.5614 139.593 80.6654 139.926 80.7049 140.305H79.9468C79.9099 140.036 79.8415 139.806 79.7414 139.614C79.6414 139.419 79.4993 139.269 79.315 139.164C79.1308 139.059 78.8899 139.006 78.5924 139.006C78.3371 139.006 78.1121 139.055 77.9173 139.152C77.7251 139.249 77.5632 139.388 77.4316 139.567C77.3026 139.746 77.2052 139.96 77.1394 140.21C77.0736 140.46 77.0407 140.738 77.0407 141.043V141.624C77.0407 141.905 77.0697 142.17 77.1276 142.417C77.1881 142.665 77.2789 142.882 77.4 143.069C77.5211 143.256 77.6751 143.403 77.862 143.511C78.0489 143.616 78.27 143.669 78.5253 143.669C78.8491 143.669 79.1071 143.618 79.2992 143.515C79.4914 143.412 79.6362 143.265 79.7336 143.073C79.8336 142.881 79.9047 142.65 79.9468 142.382ZM84.691 143.479V141.28C84.691 141.112 84.6567 140.966 84.5883 140.842C84.5225 140.716 84.4225 140.618 84.2882 140.55C84.154 140.481 83.9881 140.447 83.7907 140.447C83.6064 140.447 83.4446 140.479 83.3051 140.542C83.1682 140.605 83.0602 140.688 82.9813 140.791C82.9049 140.893 82.8668 141.004 82.8668 141.122H82.1363C82.1363 140.97 82.1758 140.818 82.2548 140.668C82.3337 140.518 82.4469 140.383 82.5943 140.262C82.7444 140.138 82.9234 140.04 83.1313 139.969C83.3419 139.896 83.5762 139.859 83.8341 139.859C84.1448 139.859 84.4185 139.911 84.6554 140.017C84.895 140.122 85.0819 140.281 85.2161 140.494C85.353 140.705 85.4214 140.97 85.4214 141.288V143.278C85.4214 143.42 85.4333 143.572 85.457 143.732C85.4833 143.893 85.5214 144.031 85.5715 144.147V144.21H84.8094C84.7726 144.126 84.7436 144.014 84.7225 143.874C84.7015 143.732 84.691 143.601 84.691 143.479ZM84.8173 141.62L84.8252 142.133H84.0868C83.8789 142.133 83.6933 142.15 83.5301 142.184C83.3669 142.216 83.23 142.265 83.1195 142.331C83.0089 142.396 82.9247 142.479 82.8668 142.579C82.8089 142.677 82.7799 142.791 82.7799 142.923C82.7799 143.057 82.8102 143.179 82.8707 143.29C82.9313 143.401 83.0221 143.489 83.1432 143.555C83.2669 143.618 83.4182 143.649 83.5972 143.649C83.821 143.649 84.0184 143.602 84.1895 143.507C84.3606 143.412 84.4962 143.297 84.5962 143.16C84.6989 143.023 84.7541 142.89 84.762 142.761L85.074 143.112C85.0555 143.223 85.0055 143.345 84.9239 143.479C84.8423 143.614 84.7331 143.743 84.5962 143.866C84.4619 143.988 84.3014 144.089 84.1145 144.17C83.9302 144.249 83.7223 144.289 83.4906 144.289C83.2011 144.289 82.9471 144.232 82.7286 144.119C82.5127 144.006 82.3443 143.855 82.2232 143.665C82.1047 143.473 82.0455 143.258 82.0455 143.021C82.0455 142.792 82.0902 142.591 82.1797 142.417C82.2692 142.241 82.3982 142.095 82.5667 141.979C82.7352 141.861 82.9378 141.771 83.1748 141.711C83.4117 141.65 83.6762 141.62 83.9684 141.62H84.8173ZM87.84 140.609V144.21H87.1095V139.938H87.8202L87.84 140.609ZM89.1746 139.914L89.1706 140.593C89.1101 140.58 89.0522 140.572 88.9969 140.569C88.9442 140.564 88.8837 140.562 88.8152 140.562C88.6468 140.562 88.4981 140.588 88.3691 140.641C88.2401 140.693 88.1308 140.767 88.0413 140.862C87.9519 140.956 87.8808 141.07 87.8281 141.201C87.7781 141.33 87.7452 141.472 87.7294 141.628L87.5241 141.746C87.5241 141.488 87.5491 141.246 87.5991 141.02C87.6518 140.793 87.7321 140.593 87.84 140.419C87.9479 140.243 88.0848 140.106 88.2506 140.009C88.4191 139.909 88.6191 139.859 88.8508 139.859C88.9034 139.859 88.964 139.865 89.0324 139.879C89.1008 139.889 89.1482 139.901 89.1746 139.914ZM93.0027 143.381V138.145H93.7371V144.21H93.0659L93.0027 143.381ZM90.1282 142.121V142.038C90.1282 141.712 90.1677 141.416 90.2467 141.15C90.3283 140.881 90.4428 140.651 90.5902 140.459C90.7402 140.267 90.9179 140.119 91.1232 140.017C91.3312 139.911 91.5628 139.859 91.8182 139.859C92.0867 139.859 92.3209 139.906 92.521 140.001C92.7237 140.093 92.8948 140.229 93.0343 140.408C93.1764 140.584 93.2883 140.797 93.3699 141.047C93.4515 141.297 93.5081 141.58 93.5397 141.896V142.259C93.5107 142.573 93.4541 142.854 93.3699 143.104C93.2883 143.354 93.1764 143.568 93.0343 143.744C92.8948 143.92 92.7237 144.056 92.521 144.151C92.3183 144.243 92.0814 144.289 91.8103 144.289C91.5602 144.289 91.3312 144.235 91.1232 144.127C90.9179 144.019 90.7402 143.868 90.5902 143.673C90.4428 143.478 90.3283 143.249 90.2467 142.986C90.1677 142.72 90.1282 142.432 90.1282 142.121ZM90.8626 142.038V142.121C90.8626 142.334 90.8837 142.535 90.9258 142.721C90.9706 142.908 91.039 143.073 91.1311 143.215C91.2233 143.357 91.3404 143.469 91.4826 143.551C91.6247 143.63 91.7945 143.669 91.9919 143.669C92.2341 143.669 92.4328 143.618 92.5881 143.515C92.7461 143.412 92.8724 143.277 92.9672 143.108C93.0619 142.94 93.1356 142.757 93.1883 142.56V141.608C93.1567 141.463 93.1106 141.324 93.0501 141.189C92.9922 141.053 92.9158 140.931 92.8211 140.826C92.7289 140.718 92.6144 140.633 92.4776 140.569C92.3433 140.506 92.1841 140.475 91.9998 140.475C91.7997 140.475 91.6273 140.517 91.4826 140.601C91.3404 140.683 91.2233 140.796 91.1311 140.941C91.039 141.083 90.9706 141.249 90.9258 141.438C90.8837 141.625 90.8626 141.825 90.8626 142.038Z" fill="white"/>
<path d="M50.7688 155H52.0813L54.5481 161.58L57.009 155H58.3215L55.0637 163.531H54.0208L50.7688 155ZM50.1711 155H51.4192L51.636 160.695V163.531H50.1711V155ZM57.6711 155H58.925V163.531H57.4543V160.695L57.6711 155ZM64.8595 162.259V159.236C64.8595 159.009 64.8185 158.814 64.7364 158.65C64.6544 158.486 64.5294 158.359 64.3614 158.269C64.1974 158.179 63.9903 158.134 63.7403 158.134C63.5099 158.134 63.3106 158.173 63.1427 158.251C62.9747 158.33 62.8438 158.435 62.7501 158.568C62.6563 158.701 62.6095 158.851 62.6095 159.019H61.2032C61.2032 158.769 61.2638 158.527 61.3849 158.292C61.506 158.058 61.6817 157.849 61.9122 157.666C62.1427 157.482 62.4181 157.337 62.7384 157.232C63.0587 157.126 63.4181 157.074 63.8165 157.074C64.2931 157.074 64.7149 157.154 65.0821 157.314C65.4532 157.474 65.7442 157.716 65.9552 158.041C66.17 158.361 66.2774 158.763 66.2774 159.248V162.066C66.2774 162.355 66.297 162.615 66.336 162.845C66.379 163.072 66.4395 163.269 66.5177 163.437V163.531H65.0704C65.004 163.378 64.9513 163.185 64.9122 162.951C64.877 162.712 64.8595 162.482 64.8595 162.259ZM65.0645 159.675L65.0763 160.548H64.0626C63.8009 160.548 63.5704 160.574 63.3712 160.625C63.172 160.671 63.006 160.742 62.8731 160.835C62.7403 160.929 62.6407 161.042 62.5743 161.175C62.5079 161.308 62.4747 161.458 62.4747 161.626C62.4747 161.794 62.5138 161.949 62.5919 162.089C62.67 162.226 62.7833 162.333 62.9317 162.412C63.0841 162.49 63.2677 162.529 63.4825 162.529C63.7716 162.529 64.0235 162.47 64.2384 162.353C64.4571 162.232 64.629 162.085 64.754 161.914C64.879 161.738 64.9454 161.572 64.9532 161.416L65.4102 162.042C65.3634 162.203 65.2833 162.375 65.17 162.558C65.0567 162.742 64.9083 162.917 64.7247 163.085C64.545 163.25 64.3282 163.384 64.0743 163.49C63.8243 163.595 63.5352 163.648 63.2071 163.648C62.7931 163.648 62.4239 163.566 62.0997 163.402C61.7755 163.234 61.5216 163.009 61.338 162.728C61.1544 162.443 61.0626 162.121 61.0626 161.761C61.0626 161.425 61.1251 161.128 61.2501 160.871C61.379 160.609 61.5665 160.39 61.8126 160.214C62.0626 160.039 62.3673 159.906 62.7267 159.816C63.086 159.722 63.4962 159.675 63.9571 159.675H65.0645ZM69.9267 158.398V163.531H68.5146V157.191H69.8622L69.9267 158.398ZM71.8662 157.15L71.8544 158.462C71.7685 158.447 71.6747 158.435 71.5732 158.427C71.4755 158.419 71.3779 158.416 71.2802 158.416C71.038 158.416 70.8251 158.451 70.6415 158.521C70.458 158.587 70.3037 158.685 70.1787 158.814C70.0576 158.939 69.9638 159.091 69.8974 159.271C69.831 159.451 69.7919 159.652 69.7802 159.875L69.458 159.898C69.458 159.5 69.497 159.13 69.5751 158.791C69.6533 158.451 69.7705 158.152 69.9267 157.894C70.0869 157.636 70.2861 157.435 70.5244 157.291C70.7665 157.146 71.0458 157.074 71.3622 157.074C71.4482 157.074 71.54 157.082 71.6376 157.097C71.7392 157.113 71.8154 157.13 71.8662 157.15ZM76.7049 157.191V158.222H73.1307V157.191H76.7049ZM74.1619 155.638H75.574V161.779C75.574 161.974 75.6014 162.125 75.656 162.23C75.7146 162.332 75.7947 162.4 75.8963 162.435C75.9978 162.47 76.117 162.488 76.2537 162.488C76.3514 162.488 76.4451 162.482 76.535 162.47C76.6248 162.458 76.6971 162.447 76.7517 162.435L76.7576 163.513C76.6404 163.548 76.5037 163.58 76.3475 163.607C76.1951 163.634 76.0193 163.648 75.8201 163.648C75.4959 163.648 75.2088 163.591 74.9588 163.478C74.7088 163.361 74.5135 163.171 74.3728 162.91C74.2322 162.648 74.1619 162.3 74.1619 161.867V155.638ZM80.0612 157.191V163.531H78.6432V157.191H80.0612ZM78.5494 155.527C78.5494 155.312 78.6198 155.134 78.7604 154.994C78.9049 154.849 79.1041 154.777 79.358 154.777C79.608 154.777 79.8053 154.849 79.9498 154.994C80.0944 155.134 80.1666 155.312 80.1666 155.527C80.1666 155.738 80.0944 155.914 79.9498 156.054C79.8053 156.195 79.608 156.265 79.358 156.265C79.1041 156.265 78.9049 156.195 78.7604 156.054C78.6198 155.914 78.5494 155.738 78.5494 155.527ZM83.7632 158.544V163.531H82.3511V157.191H83.6811L83.7632 158.544ZM83.5112 160.126L83.0542 160.121C83.0581 159.671 83.1206 159.259 83.2417 158.884C83.3667 158.509 83.5386 158.187 83.7573 157.917C83.98 157.648 84.2456 157.441 84.5542 157.296C84.8628 157.148 85.2065 157.074 85.5854 157.074C85.8901 157.074 86.1655 157.117 86.4116 157.203C86.6616 157.285 86.8745 157.419 87.0503 157.607C87.23 157.794 87.3667 158.039 87.4604 158.339C87.5542 158.636 87.6011 159.001 87.6011 159.435V163.531H86.1831V159.429C86.1831 159.125 86.1382 158.884 86.0483 158.708C85.9624 158.529 85.8354 158.402 85.6675 158.328C85.5034 158.25 85.2983 158.21 85.0522 158.21C84.81 158.21 84.5932 158.261 84.4018 158.363C84.2104 158.464 84.0483 158.603 83.9155 158.779C83.7866 158.955 83.687 159.158 83.6167 159.388C83.5464 159.619 83.5112 159.865 83.5112 160.126ZM93.3714 162.259V159.236C93.3714 159.009 93.3304 158.814 93.2484 158.65C93.1663 158.486 93.0413 158.359 92.8734 158.269C92.7093 158.179 92.5023 158.134 92.2523 158.134C92.0218 158.134 91.8226 158.173 91.6546 158.251C91.4866 158.33 91.3558 158.435 91.262 158.568C91.1683 158.701 91.1214 158.851 91.1214 159.019H89.7152C89.7152 158.769 89.7757 158.527 89.8968 158.292C90.0179 158.058 90.1937 157.849 90.4241 157.666C90.6546 157.482 90.93 157.337 91.2503 157.232C91.5706 157.126 91.93 157.074 92.3284 157.074C92.805 157.074 93.2269 157.154 93.5941 157.314C93.9652 157.474 94.2562 157.716 94.4671 158.041C94.682 158.361 94.7894 158.763 94.7894 159.248V162.066C94.7894 162.355 94.8089 162.615 94.848 162.845C94.8909 163.072 94.9515 163.269 95.0296 163.437V163.531H93.5824C93.5159 163.378 93.4632 163.185 93.4241 162.951C93.389 162.712 93.3714 162.482 93.3714 162.259ZM93.5765 159.675L93.5882 160.548H92.5745C92.3128 160.548 92.0824 160.574 91.8831 160.625C91.6839 160.671 91.5179 160.742 91.3851 160.835C91.2523 160.929 91.1527 161.042 91.0863 161.175C91.0199 161.308 90.9866 161.458 90.9866 161.626C90.9866 161.794 91.0257 161.949 91.1038 162.089C91.182 162.226 91.2952 162.333 91.4437 162.412C91.596 162.49 91.7796 162.529 91.9945 162.529C92.2835 162.529 92.5355 162.47 92.7503 162.353C92.9691 162.232 93.1409 162.085 93.2659 161.914C93.3909 161.738 93.4574 161.572 93.4652 161.416L93.9222 162.042C93.8753 162.203 93.7952 162.375 93.682 162.558C93.5687 162.742 93.4202 162.917 93.2366 163.085C93.057 163.25 92.8402 163.384 92.5863 163.49C92.3363 163.595 92.0472 163.648 91.7191 163.648C91.305 163.648 90.9359 163.566 90.6116 163.402C90.2874 163.234 90.0335 163.009 89.8499 162.728C89.6663 162.443 89.5745 162.121 89.5745 161.761C89.5745 161.425 89.637 161.128 89.762 160.871C89.8909 160.609 90.0784 160.39 90.3245 160.214C90.5745 160.039 90.8792 159.906 91.2386 159.816C91.598 159.722 92.0081 159.675 92.4691 159.675H93.5765ZM107.707 159.031V159.5C107.707 160.144 107.623 160.722 107.455 161.234C107.287 161.746 107.047 162.181 106.734 162.541C106.426 162.9 106.055 163.175 105.621 163.367C105.188 163.554 104.707 163.648 104.18 163.648C103.656 163.648 103.178 163.554 102.744 163.367C102.314 163.175 101.941 162.9 101.625 162.541C101.309 162.181 101.063 161.746 100.887 161.234C100.715 160.722 100.629 160.144 100.629 159.5V159.031C100.629 158.386 100.715 157.81 100.887 157.302C101.059 156.791 101.301 156.355 101.613 155.996C101.93 155.632 102.303 155.357 102.732 155.169C103.166 154.978 103.645 154.882 104.168 154.882C104.695 154.882 105.176 154.978 105.609 155.169C106.043 155.357 106.416 155.632 106.729 155.996C107.041 156.355 107.281 156.791 107.449 157.302C107.621 157.81 107.707 158.386 107.707 159.031ZM106.236 159.5V159.019C106.236 158.542 106.189 158.123 106.096 157.759C106.006 157.392 105.871 157.085 105.691 156.839C105.516 156.589 105.299 156.402 105.041 156.277C104.783 156.148 104.492 156.083 104.168 156.083C103.844 156.083 103.555 156.148 103.301 156.277C103.047 156.402 102.83 156.589 102.65 156.839C102.475 157.085 102.34 157.392 102.246 157.759C102.152 158.123 102.105 158.542 102.105 159.019V159.5C102.105 159.976 102.152 160.398 102.246 160.765C102.34 161.132 102.477 161.443 102.656 161.697C102.84 161.947 103.059 162.136 103.313 162.265C103.566 162.39 103.855 162.453 104.18 162.453C104.508 162.453 104.799 162.39 105.053 162.265C105.307 162.136 105.522 161.947 105.697 161.697C105.873 161.443 106.006 161.132 106.096 160.765C106.189 160.398 106.236 159.976 106.236 159.5Z" fill="white"/>
<path opacity="0.7" d="M257.533 143.387V144H254.522V143.387H257.533ZM254.674 138.312V144H253.92V138.312H254.674ZM257.135 140.758V141.371H254.522V140.758H257.135ZM257.494 138.312V138.93H254.522V138.312H257.494ZM259.385 139.773L260.311 141.312L261.248 139.773H262.096L260.713 141.859L262.139 144H261.303L260.326 142.414L259.35 144H258.51L259.932 141.859L258.553 139.773H259.385ZM264.127 140.586V145.625H263.401V139.773H264.065L264.127 140.586ZM266.975 141.852V141.934C266.975 142.241 266.938 142.526 266.866 142.789C266.793 143.049 266.686 143.276 266.545 143.469C266.407 143.661 266.237 143.811 266.034 143.918C265.83 144.025 265.597 144.078 265.334 144.078C265.066 144.078 264.829 144.034 264.623 143.945C264.418 143.857 264.243 143.728 264.1 143.559C263.957 143.389 263.842 143.186 263.756 142.949C263.673 142.712 263.616 142.445 263.584 142.148V141.711C263.616 141.398 263.674 141.118 263.76 140.871C263.846 140.624 263.959 140.413 264.1 140.238C264.243 140.061 264.416 139.927 264.619 139.836C264.823 139.742 265.057 139.695 265.323 139.695C265.588 139.695 265.824 139.747 266.03 139.852C266.235 139.953 266.409 140.099 266.549 140.289C266.69 140.479 266.795 140.707 266.866 140.973C266.938 141.236 266.975 141.529 266.975 141.852ZM266.248 141.934V141.852C266.248 141.641 266.226 141.443 266.182 141.258C266.138 141.07 266.069 140.906 265.975 140.766C265.884 140.622 265.767 140.51 265.623 140.43C265.48 140.346 265.31 140.305 265.112 140.305C264.929 140.305 264.77 140.336 264.635 140.398C264.502 140.461 264.389 140.546 264.295 140.652C264.201 140.757 264.125 140.876 264.065 141.012C264.007 141.145 263.965 141.283 263.936 141.426V142.438C263.988 142.62 264.061 142.792 264.155 142.953C264.248 143.112 264.373 143.241 264.53 143.34C264.686 143.436 264.882 143.484 265.119 143.484C265.315 143.484 265.483 143.444 265.623 143.363C265.767 143.28 265.884 143.167 265.975 143.023C266.069 142.88 266.138 142.716 266.182 142.531C266.226 142.344 266.248 142.145 266.248 141.934ZM269.221 139.773V144H268.494V139.773H269.221ZM268.44 138.652C268.44 138.535 268.475 138.436 268.545 138.355C268.618 138.275 268.725 138.234 268.866 138.234C269.004 138.234 269.109 138.275 269.182 138.355C269.258 138.436 269.295 138.535 269.295 138.652C269.295 138.764 269.258 138.861 269.182 138.941C269.109 139.02 269.004 139.059 268.866 139.059C268.725 139.059 268.618 139.02 268.545 138.941C268.475 138.861 268.44 138.764 268.44 138.652ZM271.643 140.438V144H270.92V139.773H271.623L271.643 140.438ZM272.963 139.75L272.959 140.422C272.899 140.409 272.842 140.401 272.787 140.398C272.735 140.393 272.676 140.391 272.608 140.391C272.441 140.391 272.294 140.417 272.166 140.469C272.039 140.521 271.931 140.594 271.842 140.688C271.754 140.781 271.683 140.893 271.631 141.023C271.582 141.151 271.549 141.292 271.534 141.445L271.33 141.562C271.33 141.307 271.355 141.068 271.405 140.844C271.457 140.62 271.536 140.422 271.643 140.25C271.75 140.076 271.885 139.94 272.049 139.844C272.216 139.745 272.414 139.695 272.643 139.695C272.695 139.695 272.755 139.702 272.823 139.715C272.89 139.725 272.937 139.737 272.963 139.75ZM275.846 144.078C275.552 144.078 275.285 144.029 275.045 143.93C274.808 143.828 274.604 143.686 274.432 143.504C274.263 143.322 274.133 143.105 274.041 142.855C273.95 142.605 273.905 142.332 273.905 142.035V141.871C273.905 141.527 273.955 141.221 274.057 140.953C274.159 140.682 274.297 140.453 274.471 140.266C274.646 140.078 274.844 139.936 275.065 139.84C275.286 139.743 275.515 139.695 275.752 139.695C276.054 139.695 276.315 139.747 276.534 139.852C276.755 139.956 276.936 140.102 277.077 140.289C277.217 140.474 277.321 140.693 277.389 140.945C277.457 141.195 277.491 141.469 277.491 141.766V142.09H274.334V141.5H276.768V141.445C276.758 141.258 276.719 141.076 276.651 140.898C276.586 140.721 276.482 140.576 276.338 140.461C276.195 140.346 276 140.289 275.752 140.289C275.588 140.289 275.437 140.324 275.299 140.395C275.161 140.462 275.043 140.564 274.944 140.699C274.845 140.835 274.768 141 274.713 141.195C274.659 141.391 274.631 141.616 274.631 141.871V142.035C274.631 142.236 274.659 142.424 274.713 142.602C274.771 142.776 274.853 142.93 274.959 143.062C275.069 143.195 275.2 143.299 275.354 143.375C275.51 143.451 275.687 143.488 275.885 143.488C276.14 143.488 276.357 143.436 276.534 143.332C276.711 143.228 276.866 143.089 276.998 142.914L277.436 143.262C277.345 143.4 277.229 143.531 277.088 143.656C276.948 143.781 276.774 143.883 276.569 143.961C276.366 144.039 276.125 144.078 275.846 144.078ZM281.538 143.18V138H282.264V144H281.6L281.538 143.18ZM278.694 141.934V141.852C278.694 141.529 278.733 141.236 278.811 140.973C278.892 140.707 279.005 140.479 279.151 140.289C279.299 140.099 279.475 139.953 279.678 139.852C279.884 139.747 280.113 139.695 280.366 139.695C280.631 139.695 280.863 139.742 281.061 139.836C281.262 139.927 281.431 140.061 281.569 140.238C281.709 140.413 281.82 140.624 281.901 140.871C281.982 141.118 282.038 141.398 282.069 141.711V142.07C282.04 142.38 281.984 142.659 281.901 142.906C281.82 143.154 281.709 143.365 281.569 143.539C281.431 143.714 281.262 143.848 281.061 143.941C280.86 144.033 280.626 144.078 280.358 144.078C280.11 144.078 279.884 144.025 279.678 143.918C279.475 143.811 279.299 143.661 279.151 143.469C279.005 143.276 278.892 143.049 278.811 142.789C278.733 142.526 278.694 142.241 278.694 141.934ZM279.42 141.852V141.934C279.42 142.145 279.441 142.342 279.483 142.527C279.527 142.712 279.595 142.875 279.686 143.016C279.777 143.156 279.893 143.267 280.034 143.348C280.174 143.426 280.342 143.465 280.538 143.465C280.777 143.465 280.974 143.414 281.127 143.312C281.284 143.211 281.409 143.077 281.502 142.91C281.596 142.743 281.669 142.562 281.721 142.367V141.426C281.69 141.283 281.644 141.145 281.584 141.012C281.527 140.876 281.452 140.757 281.358 140.652C281.267 140.546 281.153 140.461 281.018 140.398C280.885 140.336 280.728 140.305 280.545 140.305C280.347 140.305 280.177 140.346 280.034 140.43C279.893 140.51 279.777 140.622 279.686 140.766C279.595 140.906 279.527 141.07 279.483 141.258C279.441 141.443 279.42 141.641 279.42 141.852ZM288.1 144H286.913L286.92 143.387H288.1C288.506 143.387 288.845 143.302 289.116 143.133C289.387 142.961 289.59 142.721 289.725 142.414C289.863 142.104 289.932 141.742 289.932 141.328V140.98C289.932 140.655 289.893 140.366 289.815 140.113C289.737 139.858 289.622 139.643 289.471 139.469C289.32 139.292 289.135 139.158 288.917 139.066C288.7 138.975 288.452 138.93 288.17 138.93H286.889V138.312H288.17C288.543 138.312 288.883 138.375 289.19 138.5C289.497 138.622 289.762 138.801 289.983 139.035C290.207 139.267 290.379 139.548 290.499 139.879C290.618 140.207 290.678 140.577 290.678 140.988V141.328C290.678 141.74 290.618 142.111 290.499 142.441C290.379 142.77 290.206 143.049 289.979 143.281C289.755 143.513 289.484 143.691 289.167 143.816C288.851 143.939 288.496 144 288.1 144ZM287.315 138.312V144H286.561V138.312H287.315ZM294.733 143.277V141.102C294.733 140.935 294.699 140.79 294.631 140.668C294.566 140.543 294.467 140.447 294.335 140.379C294.202 140.311 294.038 140.277 293.842 140.277C293.66 140.277 293.5 140.309 293.362 140.371C293.226 140.434 293.12 140.516 293.042 140.617C292.966 140.719 292.928 140.828 292.928 140.945H292.206C292.206 140.794 292.245 140.645 292.323 140.496C292.401 140.348 292.513 140.214 292.659 140.094C292.807 139.971 292.984 139.875 293.19 139.805C293.398 139.732 293.63 139.695 293.885 139.695C294.193 139.695 294.463 139.747 294.698 139.852C294.935 139.956 295.12 140.113 295.252 140.324C295.388 140.533 295.456 140.794 295.456 141.109V143.078C295.456 143.219 295.467 143.368 295.491 143.527C295.517 143.686 295.555 143.823 295.604 143.938V144H294.85C294.814 143.917 294.785 143.806 294.764 143.668C294.743 143.527 294.733 143.397 294.733 143.277ZM294.858 141.438L294.866 141.945H294.135C293.93 141.945 293.746 141.962 293.585 141.996C293.423 142.027 293.288 142.076 293.178 142.141C293.069 142.206 292.986 142.288 292.928 142.387C292.871 142.483 292.842 142.596 292.842 142.727C292.842 142.859 292.872 142.98 292.932 143.09C292.992 143.199 293.082 143.286 293.202 143.352C293.324 143.414 293.474 143.445 293.651 143.445C293.872 143.445 294.068 143.398 294.237 143.305C294.406 143.211 294.54 143.096 294.639 142.961C294.741 142.826 294.795 142.694 294.803 142.566L295.112 142.914C295.094 143.023 295.044 143.145 294.963 143.277C294.883 143.41 294.775 143.538 294.639 143.66C294.506 143.78 294.348 143.88 294.163 143.961C293.98 144.039 293.775 144.078 293.545 144.078C293.259 144.078 293.008 144.022 292.792 143.91C292.578 143.798 292.411 143.648 292.292 143.461C292.174 143.271 292.116 143.059 292.116 142.824C292.116 142.598 292.16 142.398 292.249 142.227C292.337 142.052 292.465 141.908 292.631 141.793C292.798 141.676 292.999 141.587 293.233 141.527C293.467 141.467 293.729 141.438 294.018 141.438H294.858ZM298.901 139.773V140.328H296.616V139.773H298.901ZM297.389 138.746H298.112V142.953C298.112 143.096 298.134 143.204 298.178 143.277C298.223 143.35 298.28 143.398 298.35 143.422C298.42 143.445 298.496 143.457 298.577 143.457C298.637 143.457 298.699 143.452 298.764 143.441C298.832 143.428 298.883 143.418 298.917 143.41L298.92 144C298.863 144.018 298.788 144.035 298.694 144.051C298.603 144.069 298.492 144.078 298.362 144.078C298.185 144.078 298.022 144.043 297.874 143.973C297.725 143.902 297.607 143.785 297.518 143.621C297.432 143.454 297.389 143.23 297.389 142.949V138.746ZM302.042 144.078C301.747 144.078 301.48 144.029 301.241 143.93C301.004 143.828 300.799 143.686 300.628 143.504C300.458 143.322 300.328 143.105 300.237 142.855C300.146 142.605 300.1 142.332 300.1 142.035V141.871C300.1 141.527 300.151 141.221 300.253 140.953C300.354 140.682 300.492 140.453 300.667 140.266C300.841 140.078 301.039 139.936 301.26 139.84C301.482 139.743 301.711 139.695 301.948 139.695C302.25 139.695 302.51 139.747 302.729 139.852C302.95 139.956 303.131 140.102 303.272 140.289C303.413 140.474 303.517 140.693 303.585 140.945C303.652 141.195 303.686 141.469 303.686 141.766V142.09H300.53V141.5H302.963V141.445C302.953 141.258 302.914 141.076 302.846 140.898C302.781 140.721 302.677 140.576 302.534 140.461C302.391 140.346 302.195 140.289 301.948 140.289C301.784 140.289 301.633 140.324 301.495 140.395C301.357 140.462 301.238 140.564 301.139 140.699C301.04 140.835 300.963 141 300.909 141.195C300.854 141.391 300.827 141.616 300.827 141.871V142.035C300.827 142.236 300.854 142.424 300.909 142.602C300.966 142.776 301.048 142.93 301.155 143.062C301.264 143.195 301.396 143.299 301.549 143.375C301.706 143.451 301.883 143.488 302.081 143.488C302.336 143.488 302.552 143.436 302.729 143.332C302.906 143.228 303.061 143.089 303.194 142.914L303.631 143.262C303.54 143.4 303.424 143.531 303.284 143.656C303.143 143.781 302.97 143.883 302.764 143.961C302.561 144.039 302.32 144.078 302.042 144.078Z" fill="white"/>
<path d="M259.465 160.02V161.414C259.465 162.082 259.399 162.652 259.266 163.125C259.137 163.594 258.949 163.975 258.703 164.268C258.457 164.561 258.162 164.775 257.819 164.912C257.479 165.049 257.098 165.117 256.676 165.117C256.34 165.117 256.028 165.074 255.739 164.988C255.453 164.902 255.196 164.768 254.965 164.584C254.735 164.4 254.537 164.164 254.373 163.875C254.213 163.582 254.088 163.232 253.998 162.826C253.912 162.42 253.869 161.949 253.869 161.414V160.02C253.869 159.348 253.936 158.781 254.069 158.32C254.201 157.855 254.391 157.479 254.637 157.189C254.883 156.896 255.176 156.684 255.516 156.551C255.86 156.418 256.242 156.352 256.664 156.352C257.004 156.352 257.317 156.395 257.602 156.48C257.891 156.562 258.149 156.693 258.375 156.873C258.606 157.053 258.801 157.287 258.961 157.576C259.125 157.861 259.25 158.207 259.336 158.613C259.422 159.016 259.465 159.484 259.465 160.02ZM258.053 161.613V159.809C258.053 159.469 258.033 159.17 257.994 158.912C257.955 158.65 257.897 158.43 257.819 158.25C257.744 158.066 257.651 157.918 257.537 157.805C257.424 157.688 257.295 157.604 257.151 157.553C257.006 157.498 256.844 157.471 256.664 157.471C256.446 157.471 256.25 157.514 256.078 157.6C255.906 157.682 255.762 157.814 255.645 157.998C255.528 158.182 255.438 158.424 255.375 158.725C255.317 159.021 255.287 159.383 255.287 159.809V161.613C255.287 161.957 255.307 162.26 255.346 162.521C255.385 162.783 255.444 163.008 255.522 163.195C255.6 163.379 255.694 163.531 255.803 163.652C255.916 163.77 256.045 163.855 256.19 163.91C256.338 163.965 256.5 163.992 256.676 163.992C256.899 163.992 257.096 163.949 257.268 163.863C257.44 163.777 257.584 163.641 257.701 163.453C257.819 163.262 257.906 163.014 257.965 162.709C258.024 162.404 258.053 162.039 258.053 161.613ZM265.745 156.416H265.921V157.57H265.821C265.317 157.57 264.882 157.648 264.515 157.805C264.151 157.961 263.853 158.176 263.618 158.449C263.384 158.723 263.208 159.043 263.091 159.41C262.978 159.773 262.921 160.16 262.921 160.57V161.912C262.921 162.252 262.958 162.553 263.032 162.814C263.107 163.072 263.21 163.289 263.343 163.465C263.48 163.637 263.636 163.768 263.812 163.857C263.987 163.947 264.177 163.992 264.38 163.992C264.591 163.992 264.782 163.949 264.954 163.863C265.126 163.773 265.273 163.65 265.394 163.494C265.515 163.338 265.607 163.152 265.669 162.938C265.732 162.723 265.763 162.488 265.763 162.234C265.763 161.992 265.732 161.766 265.669 161.555C265.61 161.34 265.523 161.152 265.405 160.992C265.288 160.828 265.142 160.701 264.966 160.611C264.794 160.518 264.595 160.471 264.368 160.471C264.087 160.471 263.831 160.537 263.601 160.67C263.374 160.803 263.191 160.977 263.05 161.191C262.913 161.402 262.839 161.627 262.827 161.865L262.288 161.689C262.319 161.326 262.4 161 262.528 160.711C262.661 160.422 262.835 160.176 263.05 159.973C263.265 159.77 263.513 159.615 263.794 159.51C264.079 159.4 264.392 159.346 264.732 159.346C265.146 159.346 265.505 159.424 265.81 159.58C266.114 159.736 266.366 159.949 266.566 160.219C266.769 160.484 266.919 160.789 267.017 161.133C267.118 161.473 267.169 161.828 267.169 162.199C267.169 162.609 267.107 162.992 266.982 163.348C266.857 163.699 266.673 164.008 266.431 164.273C266.192 164.539 265.901 164.746 265.558 164.895C265.218 165.043 264.831 165.117 264.398 165.117C263.941 165.117 263.532 165.029 263.173 164.854C262.817 164.678 262.515 164.436 262.265 164.127C262.019 163.818 261.831 163.463 261.702 163.061C261.573 162.658 261.509 162.232 261.509 161.783V161.197C261.509 160.549 261.591 159.938 261.755 159.363C261.919 158.785 262.171 158.275 262.511 157.834C262.855 157.393 263.294 157.047 263.829 156.797C264.364 156.543 265.003 156.416 265.745 156.416ZM269.106 165.792L268.182 165.516L271.266 155.94L272.202 156.216L269.106 165.792ZM279.091 163.875V165H273.372V164.033L276.149 161.004C276.454 160.66 276.694 160.363 276.87 160.113C277.046 159.863 277.169 159.639 277.239 159.439C277.313 159.236 277.35 159.039 277.35 158.848C277.35 158.578 277.3 158.342 277.198 158.139C277.1 157.932 276.956 157.77 276.764 157.652C276.573 157.531 276.341 157.471 276.067 157.471C275.751 157.471 275.485 157.539 275.27 157.676C275.055 157.812 274.893 158.002 274.784 158.244C274.675 158.482 274.62 158.756 274.62 159.064H273.208C273.208 158.568 273.321 158.115 273.548 157.705C273.774 157.291 274.102 156.963 274.532 156.721C274.962 156.475 275.479 156.352 276.085 156.352C276.655 156.352 277.139 156.447 277.538 156.639C277.936 156.83 278.239 157.102 278.446 157.453C278.657 157.805 278.762 158.221 278.762 158.701C278.762 158.967 278.72 159.23 278.634 159.492C278.548 159.754 278.425 160.016 278.264 160.277C278.108 160.535 277.923 160.795 277.708 161.057C277.493 161.314 277.257 161.576 276.999 161.842L275.153 163.875H279.091ZM286.613 156.469V157.242L283.203 165H281.714L285.119 157.594H280.701V156.469H286.613Z" fill="white"/>
<path fill-rule="evenodd" clip-rule="evenodd" d="M294.813 54.5261C294.813 48.0504 288.66 42.8008 281.07 42.8008C273.479 42.8008 267.326 48.0504 267.326 54.5261" fill="url(#paint0_linear_638_3872)"/>
<path fill-rule="evenodd" clip-rule="evenodd" d="M306.19 54.5261C306.19 48.0504 300.036 42.8008 292.446 42.8008C284.855 42.8008 278.702 48.0504 278.702 54.5261" fill="url(#paint1_linear_638_3872)"/>
</g>
<defs>
<filter id="filter0_di_638_3872" x="6.9" y="0.9" width="346.2" height="196.2" filterUnits="userSpaceOnUse" color-interpolation-filters="sRGB">
<feFlood flood-opacity="0" result="BackgroundImageFix"/>
<feColorMatrix in="SourceAlpha" type="matrix" values="0 0 0 0 0 0 0 0 0 0 0 0 0 0 0 0 0 0 127 0" result="hardAlpha"/>
<feOffset dy="-1"/>
<feGaussianBlur stdDeviation="6.55"/>
<feComposite in2="hardAlpha" operator="out"/>
<feColorMatrix type="matrix" values="0 0 0 0 0.0627451 0 0 0 0 0.576471 0 0 0 0 1 0 0 0 0.25 0"/>
<feBlend mode="normal" in2="BackgroundImageFix" result="effect1_dropShadow_638_3872"/>
<feBlend mode="normal" in="SourceGraphic" in2="effect1_dropShadow_638_3872" result="shape"/>
<feColorMatrix in="SourceAlpha" type="matrix" values="0 0 0 0 0 0 0 0 0 0 0 0 0 0 0 0 0 0 127 0" result="hardAlpha"/>
<feOffset dx="-3" dy="-3"/>
<feGaussianBlur stdDeviation="7.25"/>
<feComposite in2="hardAlpha" operator="arithmetic" k2="-1" k3="1"/>
<feColorMatrix type="matrix" values="0 0 0 0 0 0 0 0 0 0 0 0 0 0 0 0 0 0 0.25 0"/>
<feBlend mode="normal" in2="shape" result="effect2_innerShadow_638_3872"/>
</filter>
<filter id="filter1_d_638_3872" x="-4" y="5" width="368" height="218" filterUnits="userSpaceOnUse" color-interpolation-filters="sRGB">
<feFlood flood-opacity="0" result="BackgroundImageFix"/>
<feColorMatrix in="SourceAlpha" type="matrix" values="0 0 0 0 0 0 0 0 0 0 0 0 0 0 0 0 0 0 127 0" result="hardAlpha"/>
<feOffset dy="14"/>
<feGaussianBlur stdDeviation="12"/>
<feColorMatrix type="matrix" values="0 0 0 0 0.0627451 0 0 0 0 0.576471 0 0 0 0 1 0 0 0 0.2 0"/>
<feBlend mode="normal" in2="BackgroundImageFix" result="effect1_dropShadow_638_3872"/>
<feBlend mode="normal" in="SourceGraphic" in2="effect1_dropShadow_638_3872" result="shape"/>
</filter>
<linearGradient id="paint0_linear_638_3872" x1="294.813" y1="42.8008" x2="267.326" y2="42.8008" gradientUnits="userSpaceOnUse">
<stop stop-color="white" stop-opacity="0.15"/>
<stop offset="1" stop-color="#EEEEEE" stop-opacity="0.225388"/>
</linearGradient>
<linearGradient id="paint1_linear_638_3872" x1="278.702" y1="54.5261" x2="306.19" y2="54.5261" gradientUnits="userSpaceOnUse">
<stop stop-color="#EEEEEE" stop-opacity="0.628688"/>
<stop offset="1" stop-color="white" stop-opacity="0.174279"/>
</linearGradient>
</defs>
</svg>
