<svg width="29" height="28" viewBox="0 0 29 28" fill="none" xmlns="http://www.w3.org/2000/svg">
<path fill-rule="evenodd" clip-rule="evenodd" d="M22.4559 2.27319C22.9267 2.27319 23.3083 2.65483 23.3083 3.12561V5.68286H25.8656C26.3363 5.68286 26.718 6.0645 26.718 6.53527C26.718 7.00605 26.3363 7.38769 25.8656 7.38769H23.3083V9.94494C23.3083 10.4157 22.9267 10.7974 22.4559 10.7974C21.9851 10.7974 21.6035 10.4157 21.6035 9.94494V7.38769H19.0462C18.5755 7.38769 18.1938 7.00605 18.1938 6.53527C18.1938 6.0645 18.5755 5.68286 19.0462 5.68286H21.6035V3.12561C21.6035 2.65483 21.9851 2.27319 22.4559 2.27319ZM9.10137 2.84147L9.05539 2.84147C7.89724 2.84146 6.96329 2.84145 6.21393 2.91768C5.44044 2.99636 4.76964 3.16326 4.17624 3.55976C3.71086 3.87072 3.31129 4.27029 3.00033 4.73567C2.60383 5.32907 2.43694 5.99987 2.35825 6.77336C2.28746 7.4692 2.28242 8.32422 2.28207 9.37011L2.28204 9.37666L2.28207 9.38266L2.28204 9.61482L2.28204 9.6608V17.0484L2.28204 17.0944C2.28203 18.2525 2.28202 19.1865 2.35825 19.9358C2.43694 20.7093 2.60383 21.3801 3.00033 21.9735C3.31129 22.4389 3.71086 22.8385 4.17624 23.1494C4.76964 23.5459 5.44044 23.7128 6.21394 23.7915C6.96326 23.8678 7.89717 23.8678 9.05526 23.8677H9.05529H9.05532H9.05535H9.05538H9.05542H9.10137H19.8986H19.9446H19.9446H19.9447H19.9447H19.9447H19.9447C21.1028 23.8678 22.0368 23.8678 22.7861 23.7915C23.5596 23.7128 24.2304 23.5459 24.8238 23.1494C25.2892 22.8385 25.6887 22.4389 25.9997 21.9735C26.3962 21.3801 26.5631 20.7093 26.6418 19.9358C26.718 19.1865 26.718 18.2527 26.718 17.0946V17.0946V17.0945V17.0945V17.0945V17.0945V17.0484V13.3546C26.718 12.8838 26.3363 12.5022 25.8656 12.5022C25.3948 12.5022 25.0131 12.8838 25.0131 13.3546V17.0484C25.0131 18.2633 25.0121 19.1104 24.9457 19.7633C24.8807 20.402 24.7603 20.7598 24.5822 21.0264C24.3956 21.3056 24.1559 21.5454 23.8766 21.7319C23.61 21.9101 23.2522 22.0305 22.6135 22.0955C21.9606 22.1619 21.1136 22.1629 19.8986 22.1629H9.10137C7.88645 22.1629 7.03941 22.1619 6.38647 22.0955C5.74778 22.0305 5.38999 21.9101 5.12339 21.7319C4.84417 21.5454 4.60442 21.3056 4.41785 21.0264C4.23972 20.7598 4.1193 20.402 4.05433 19.7633C3.98791 19.1104 3.98688 18.2633 3.98688 17.0484V10.2291H16.7731C17.2439 10.2291 17.6255 9.84744 17.6255 9.37666C17.6255 8.90589 17.2439 8.52425 16.7731 8.52425H3.98992C3.99542 7.88276 4.0109 7.37284 4.05433 6.9459C4.1193 6.30721 4.23972 5.94941 4.41785 5.68282C4.60442 5.40359 4.84417 5.16385 5.12339 4.97728C5.38999 4.79915 5.74778 4.67873 6.38647 4.61376C7.03941 4.54733 7.88644 4.5463 9.10137 4.5463H16.7731C17.2439 4.5463 17.6255 4.16466 17.6255 3.69389C17.6255 3.22311 17.2439 2.84147 16.7731 2.84147H9.10137ZM6.82826 18.4691C6.82826 17.9983 7.2099 17.6167 7.68068 17.6167H12.2269C12.6977 17.6167 13.0793 17.9983 13.0793 18.4691C13.0793 18.9399 12.6977 19.3215 12.2269 19.3215H7.68068C7.2099 19.3215 6.82826 18.9399 6.82826 18.4691ZM15.6366 17.6167C15.1658 17.6167 14.7842 17.9983 14.7842 18.4691C14.7842 18.9399 15.1658 19.3215 15.6366 19.3215H17.9097C18.3805 19.3215 18.7621 18.9399 18.7621 18.4691C18.7621 17.9983 18.3805 17.6167 17.9097 17.6167H15.6366Z" fill="#49B6F4"/>
</svg>
