<svg width="17" height="17" viewBox="0 0 17 17" fill="none" xmlns="http://www.w3.org/2000/svg">
<path fill-rule="evenodd" clip-rule="evenodd" d="M9.75907 3.02419C10.9545 1.8288 12.8926 1.8288 14.088 3.02419C15.2834 4.21958 15.2834 6.15769 14.088 7.35309L7.02301 14.418C6.55891 14.8822 5.9321 15.147 5.27582 15.1562L3.59164 15.18C2.66983 15.193 1.9192 14.4423 1.9322 13.5205L1.95594 11.8363C1.96519 11.1801 2.23001 10.5533 2.69412 10.0891L9.75907 3.02419ZM13.0246 4.08757C12.4165 3.47947 11.4306 3.47947 10.8225 4.08757L3.7575 11.1525C3.57022 11.3398 3.46337 11.5927 3.45964 11.8575L3.43589 13.5417C3.43484 13.6165 3.4957 13.6773 3.57044 13.6763L5.25463 13.6525C5.51944 13.6488 5.77236 13.5419 5.95964 13.3547L13.0246 6.28971C13.6327 5.6816 13.6327 4.69567 13.0246 4.08757Z" fill="#3F3F3F"/>
<path fill-rule="evenodd" clip-rule="evenodd" d="M11.9235 7.91125L9.20286 5.18936L10.266 4.12573L12.9866 6.84763L11.9235 7.91125Z" fill="#3F3F3F"/>
<path fill-rule="evenodd" clip-rule="evenodd" d="M9.26895 15.0288C9.26895 14.6135 9.6056 14.2769 10.0209 14.2769H16.2121C16.6274 14.2769 16.9641 14.6135 16.9641 15.0288C16.9641 15.4441 16.6274 15.7807 16.2121 15.7807H10.0209C9.6056 15.7807 9.26895 15.4441 9.26895 15.0288Z" fill="#3F3F3F"/>
</svg>
