<svg width="29" height="16" viewBox="0 0 29 16" fill="none" xmlns="http://www.w3.org/2000/svg">
<path d="M23.4909 10.2666V11.4081C22.1032 12.239 18.7319 14.0016 14.1044 13.9597C9.67267 13.9177 6.44403 12.2418 5.05353 11.4081V10.2666C6.44403 11.0975 9.67267 12.7762 14.1044 12.8182C18.7319 12.8601 22.1032 11.0947 23.4909 10.2666Z" fill="#F1A43F"/>
<path d="M23.4909 11.4053V13.4477C22.1032 14.2786 18.7319 16.0412 14.1044 15.9992C9.67267 15.9573 6.44403 14.2814 5.05353 13.4477V11.4053C6.44403 12.2362 9.67267 13.9149 14.1044 13.9569C18.7319 13.9988 22.1032 12.2362 23.4909 11.4053Z" fill="#F1A43F"/>
<path d="M23.4909 6.89526V10.2666C22.1032 11.0975 18.7319 12.8601 14.1044 12.8182C9.67267 12.7762 6.44403 11.1003 5.05353 10.2666V6.89526H23.4909Z" fill="#F1A43F"/>
<path d="M27.7436 5.53282L15.1395 9.8498L14.5352 10.0568C14.4569 10.0848 14.3702 10.0848 14.289 10.0568L1.08069 5.53282C0.739362 5.41532 0.736566 4.9369 1.0751 4.81379L14.2834 0.0743512C14.3674 0.0435756 14.4569 0.0435756 14.538 0.0743512L27.7464 4.81379C28.0849 4.9369 28.0821 5.41811 27.7436 5.53282Z" fill="#F1A43F"/>
<path d="M27.7435 5.53293L15.1395 9.84991L14.289 10.0569L14.5408 0.0744629L27.7491 4.81391C28.0849 4.93701 28.0821 5.41823 27.7435 5.53293Z" fill="#F1A43F"/>
<path d="M27.9981 5.18311H27.1532V9.8554H27.9981V5.18311Z" fill="#F1A43F"/>
<path d="M27.5588 10.4262C28.2387 10.4262 28.7899 9.87501 28.7899 9.19514C28.7899 8.51526 28.2387 7.96411 27.5588 7.96411C26.879 7.96411 26.3278 8.51526 26.3278 9.19514C26.3278 9.87501 26.879 10.4262 27.5588 10.4262Z" fill="#F1A43F"/>
</svg>
