<svg width="88" height="77" viewBox="0 0 88 77" fill="none" xmlns="http://www.w3.org/2000/svg">
<g filter="url(#filter0_d_157_1382)">
<rect x="20" y="3" width="48" height="48" rx="24" fill="#C0FFCA"/>
</g>
<g filter="url(#filter1_d_157_1382)">
<rect x="20" y="3" width="48" height="48" rx="12" fill="#FDF4E8"/>
</g>
<path d="M52.491 29.2666V30.4081C51.1033 31.239 47.7319 33.0016 43.1044 32.9597C38.6727 32.9177 35.4441 31.2418 34.0536 30.4081V29.2666C35.4441 30.0975 38.6727 31.7762 43.1044 31.8182C47.7319 31.8601 51.1033 30.0947 52.491 29.2666Z" fill="#F1A43F"/>
<path d="M52.491 30.4053V32.4477C51.1033 33.2786 47.7319 35.0412 43.1044 34.9992C38.6727 34.9573 35.4441 33.2814 34.0536 32.4477V30.4053C35.4441 31.2362 38.6727 32.9149 43.1044 32.9569C47.7319 32.9988 51.1033 31.2362 52.491 30.4053Z" fill="#F1A43F"/>
<path d="M52.491 25.8955V29.2668C51.1033 30.0978 47.7319 31.8604 43.1044 31.8184C38.6727 31.7764 35.4441 30.1006 34.0536 29.2668V25.8955H52.491Z" fill="#F1A43F"/>
<path d="M56.7436 24.5328L44.1396 28.8498L43.5353 29.0568C43.457 29.0848 43.3702 29.0848 43.2891 29.0568L30.0808 24.5328C29.7394 24.4153 29.7366 23.9369 30.0752 23.8138L43.2835 19.0744C43.3674 19.0436 43.4569 19.0436 43.5381 19.0744L56.7464 23.8138C57.0849 23.9369 57.0821 24.4181 56.7436 24.5328Z" fill="#F1A43F"/>
<path d="M56.7436 24.5327L44.1396 28.8497L43.2891 29.0567L43.5409 19.0742L56.7492 23.8137C57.0849 23.9368 57.0821 24.418 56.7436 24.5327Z" fill="#F1A43F"/>
<path d="M56.9981 24.1831H56.1532V28.8554H56.9981V24.1831Z" fill="#F1A43F"/>
<path d="M56.5589 29.4259C57.2388 29.4259 57.7899 28.8748 57.7899 28.1949C57.7899 27.515 57.2388 26.9639 56.5589 26.9639C55.879 26.9639 55.3279 27.515 55.3279 28.1949C55.3279 28.8748 55.879 29.4259 56.5589 29.4259Z" fill="#F1A43F"/>
<path d="M15.6874 74V65.06H21.5074V66.14H16.8634V68.972H21.2674V70.052H16.8634V72.92H21.5074V74H15.6874ZM25.7728 74.144C25.1648 74.144 24.6168 73.996 24.1288 73.7C23.6488 73.404 23.2688 73 22.9888 72.488C22.7088 71.976 22.5688 71.404 22.5688 70.772C22.5688 70.124 22.7088 69.548 22.9888 69.044C23.2688 68.532 23.6488 68.128 24.1288 67.832C24.6168 67.536 25.1648 67.388 25.7728 67.388C26.3088 67.388 26.7848 67.504 27.2008 67.736C27.6168 67.96 27.9448 68.264 28.1848 68.648L28.0048 68.924V64.916H29.1328V74H28.0408V72.62L28.1848 72.812C27.9608 73.236 27.6328 73.564 27.2008 73.796C26.7768 74.028 26.3008 74.144 25.7728 74.144ZM25.8688 73.064C26.2768 73.064 26.6408 72.964 26.9608 72.764C27.2808 72.564 27.5328 72.292 27.7168 71.948C27.9088 71.596 28.0048 71.204 28.0048 70.772C28.0048 70.332 27.9088 69.94 27.7168 69.596C27.5328 69.244 27.2808 68.968 26.9608 68.768C26.6408 68.568 26.2768 68.468 25.8688 68.468C25.4688 68.468 25.1048 68.572 24.7768 68.78C24.4568 68.98 24.2048 69.252 24.0208 69.596C23.8368 69.932 23.7448 70.324 23.7448 70.772C23.7448 71.204 23.8368 71.596 24.0208 71.948C24.2048 72.292 24.4568 72.564 24.7768 72.764C25.0968 72.964 25.4608 73.064 25.8688 73.064ZM33.1521 74.144C32.6881 74.144 32.2681 74.036 31.8921 73.82C31.5241 73.604 31.2361 73.304 31.0281 72.92C30.8281 72.528 30.7281 72.08 30.7281 71.576V67.532H31.8441V71.456C31.8441 71.776 31.9081 72.056 32.0361 72.296C32.1721 72.536 32.3561 72.724 32.5881 72.86C32.8281 72.996 33.1001 73.064 33.4041 73.064C33.7081 73.064 33.9761 72.996 34.2081 72.86C34.4481 72.724 34.6321 72.528 34.7601 72.272C34.8961 72.016 34.9641 71.712 34.9641 71.36V67.532H36.0921V74H35.0001V72.74L35.1801 72.848C35.0281 73.256 34.7681 73.576 34.4001 73.808C34.0401 74.032 33.6241 74.144 33.1521 74.144ZM40.821 74.144C40.189 74.144 39.625 73.996 39.129 73.7C38.641 73.404 38.257 73 37.977 72.488C37.697 71.976 37.557 71.4 37.557 70.76C37.557 70.112 37.697 69.536 37.977 69.032C38.257 68.528 38.641 68.128 39.129 67.832C39.625 67.536 40.189 67.388 40.821 67.388C41.245 67.388 41.641 67.464 42.009 67.616C42.377 67.768 42.701 67.972 42.981 68.228C43.261 68.484 43.465 68.784 43.593 69.128L42.597 69.608C42.445 69.272 42.213 69 41.901 68.792C41.589 68.576 41.229 68.468 40.821 68.468C40.429 68.468 40.073 68.568 39.753 68.768C39.441 68.968 39.193 69.24 39.009 69.584C38.825 69.928 38.733 70.324 38.733 70.772C38.733 71.204 38.825 71.596 39.009 71.948C39.193 72.292 39.441 72.564 39.753 72.764C40.073 72.964 40.429 73.064 40.821 73.064C41.229 73.064 41.589 72.96 41.901 72.752C42.213 72.536 42.445 72.252 42.597 71.9L43.593 72.404C43.465 72.74 43.261 73.04 42.981 73.304C42.701 73.56 42.377 73.764 42.009 73.916C41.641 74.068 41.245 74.144 40.821 74.144ZM46.8655 74.144C46.4415 74.144 46.0655 74.068 45.7375 73.916C45.4175 73.756 45.1655 73.54 44.9815 73.268C44.7975 72.988 44.7055 72.668 44.7055 72.308C44.7055 71.964 44.7775 71.656 44.9215 71.384C45.0735 71.104 45.3055 70.868 45.6175 70.676C45.9375 70.484 46.3375 70.348 46.8175 70.268L49.2175 69.872V70.808L47.0695 71.168C46.6535 71.24 46.3495 71.372 46.1575 71.564C45.9735 71.756 45.8815 71.992 45.8815 72.272C45.8815 72.536 45.9855 72.756 46.1935 72.932C46.4095 73.108 46.6775 73.196 46.9975 73.196C47.4055 73.196 47.7575 73.112 48.0535 72.944C48.3575 72.768 48.5935 72.532 48.7615 72.236C48.9375 71.94 49.0255 71.612 49.0255 71.252V69.608C49.0255 69.256 48.8935 68.972 48.6295 68.756C48.3735 68.532 48.0335 68.42 47.6095 68.42C47.2415 68.42 46.9135 68.516 46.6255 68.708C46.3455 68.892 46.1375 69.14 46.0015 69.452L45.0295 68.948C45.1495 68.652 45.3415 68.388 45.6055 68.156C45.8695 67.916 46.1775 67.728 46.5295 67.592C46.8815 67.456 47.2495 67.388 47.6335 67.388C48.1295 67.388 48.5655 67.484 48.9415 67.676C49.3175 67.86 49.6095 68.12 49.8175 68.456C50.0335 68.784 50.1415 69.168 50.1415 69.608V74H49.0495V72.776L49.2535 72.848C49.1175 73.104 48.9335 73.328 48.7015 73.52C48.4695 73.712 48.1975 73.864 47.8855 73.976C47.5735 74.088 47.2335 74.144 46.8655 74.144ZM54.3826 74.072C53.7506 74.072 53.2626 73.892 52.9186 73.532C52.5826 73.172 52.4146 72.664 52.4146 72.008V68.6H51.2386V67.532H51.4786C51.7666 67.532 51.9946 67.444 52.1626 67.268C52.3306 67.092 52.4146 66.86 52.4146 66.572V66.044H53.5306V67.532H54.9826V68.6H53.5306V71.972C53.5306 72.188 53.5626 72.376 53.6266 72.536C53.6986 72.696 53.8146 72.824 53.9746 72.92C54.1346 73.008 54.3466 73.052 54.6106 73.052C54.6666 73.052 54.7346 73.048 54.8146 73.04C54.9026 73.032 54.9826 73.024 55.0546 73.016V74C54.9506 74.024 54.8346 74.04 54.7066 74.048C54.5786 74.064 54.4706 74.072 54.3826 74.072ZM56.5124 74V67.532H57.6284V74H56.5124ZM56.5124 66.5V65.06H57.6284V66.5H56.5124ZM62.4321 74.144C61.8081 74.144 61.2441 74 60.7401 73.712C60.2361 73.416 59.8361 73.012 59.5401 72.5C59.2441 71.988 59.0961 71.408 59.0961 70.76C59.0961 70.112 59.2401 69.536 59.5281 69.032C59.8241 68.528 60.2241 68.128 60.7281 67.832C61.2321 67.536 61.8001 67.388 62.4321 67.388C63.0561 67.388 63.6201 67.536 64.1241 67.832C64.6281 68.12 65.0241 68.516 65.3121 69.02C65.6081 69.524 65.7561 70.104 65.7561 70.76C65.7561 71.416 65.6041 72 65.3001 72.512C64.9961 73.016 64.5921 73.416 64.0881 73.712C63.5921 74 63.0401 74.144 62.4321 74.144ZM62.4321 73.064C62.8321 73.064 63.1921 72.964 63.5121 72.764C63.8401 72.564 64.0961 72.288 64.2801 71.936C64.4721 71.584 64.5681 71.192 64.5681 70.76C64.5681 70.32 64.4721 69.932 64.2801 69.596C64.0961 69.252 63.8401 68.98 63.5121 68.78C63.1921 68.572 62.8321 68.468 62.4321 68.468C62.0241 68.468 61.6561 68.572 61.3281 68.78C61.0081 68.98 60.7521 69.252 60.5601 69.596C60.3681 69.932 60.2721 70.32 60.2721 70.76C60.2721 71.192 60.3681 71.584 60.5601 71.936C60.7521 72.288 61.0081 72.564 61.3281 72.764C61.6561 72.964 62.0241 73.064 62.4321 73.064ZM67.2117 74V67.532H68.3037V68.792L68.1237 68.684C68.2837 68.276 68.5397 67.96 68.8917 67.736C69.2517 67.504 69.6717 67.388 70.1517 67.388C70.6157 67.388 71.0277 67.492 71.3877 67.7C71.7557 67.908 72.0437 68.196 72.2517 68.564C72.4677 68.932 72.5757 69.348 72.5757 69.812V74H71.4477V70.172C71.4477 69.812 71.3837 69.508 71.2557 69.26C71.1277 69.012 70.9437 68.82 70.7037 68.684C70.4717 68.54 70.2037 68.468 69.8997 68.468C69.5957 68.468 69.3237 68.54 69.0837 68.684C68.8517 68.82 68.6677 69.016 68.5317 69.272C68.3957 69.52 68.3277 69.82 68.3277 70.172V74H67.2117Z" fill="#0C192C"/>
<defs>
<filter id="filter0_d_157_1382" x="15" y="0" width="58" height="58" filterUnits="userSpaceOnUse" color-interpolation-filters="sRGB">
<feFlood flood-opacity="0" result="BackgroundImageFix"/>
<feColorMatrix in="SourceAlpha" type="matrix" values="0 0 0 0 0 0 0 0 0 0 0 0 0 0 0 0 0 0 127 0" result="hardAlpha"/>
<feOffset dy="2"/>
<feGaussianBlur stdDeviation="2.5"/>
<feComposite in2="hardAlpha" operator="out"/>
<feColorMatrix type="matrix" values="0 0 0 0 0 0 0 0 0 0 0 0 0 0 0 0 0 0 0.05 0"/>
<feBlend mode="normal" in2="BackgroundImageFix" result="effect1_dropShadow_157_1382"/>
<feBlend mode="normal" in="SourceGraphic" in2="effect1_dropShadow_157_1382" result="shape"/>
</filter>
<filter id="filter1_d_157_1382" x="15" y="0" width="58" height="58" filterUnits="userSpaceOnUse" color-interpolation-filters="sRGB">
<feFlood flood-opacity="0" result="BackgroundImageFix"/>
<feColorMatrix in="SourceAlpha" type="matrix" values="0 0 0 0 0 0 0 0 0 0 0 0 0 0 0 0 0 0 127 0" result="hardAlpha"/>
<feOffset dy="2"/>
<feGaussianBlur stdDeviation="2.5"/>
<feComposite in2="hardAlpha" operator="out"/>
<feColorMatrix type="matrix" values="0 0 0 0 0 0 0 0 0 0 0 0 0 0 0 0 0 0 0.05 0"/>
<feBlend mode="normal" in2="BackgroundImageFix" result="effect1_dropShadow_157_1382"/>
<feBlend mode="normal" in="SourceGraphic" in2="effect1_dropShadow_157_1382" result="shape"/>
</filter>
</defs>
</svg>
