<svg width="88" height="77" viewBox="0 0 88 77" fill="none" xmlns="http://www.w3.org/2000/svg">
<g filter="url(#filter0_d_157_1361)">
<rect x="20" y="3" width="48" height="48" rx="24" fill="#FFFAE2"/>
</g>
<g filter="url(#filter1_d_157_1361)">
<rect x="20" y="3" width="48" height="48" rx="12" fill="#E6F8FB"/>
</g>
<path d="M52.9785 24.5694L43.4796 41.632C43.4531 41.6791 43.4119 41.7056 43.3707 41.7144C43.2735 41.7351 43.1645 41.6614 43.1733 41.5407L43.9745 30.6428C43.9804 30.5544 43.9156 30.4749 43.8272 30.4661L35.1207 29.6561C35.0853 29.6531 35.0529 29.6384 35.0294 29.6148C34.9763 29.5677 34.9557 29.4823 34.997 29.4116L44.4929 12.349C44.5194 12.299 44.5635 12.2725 44.6077 12.2666C44.702 12.2519 44.808 12.3225 44.7992 12.4404L43.998 23.3382C43.9921 23.4266 44.0569 23.5032 44.1453 23.515L52.8518 24.3249C52.8872 24.3279 52.9166 24.3426 52.9402 24.3632C52.9991 24.4133 53.0197 24.4958 52.9785 24.5694Z" fill="#34CBE0"/>
<path d="M52.943 24.3632L38.9878 25.724C38.8906 25.7328 38.817 25.6356 38.8553 25.5443L44.6076 12.2666C44.7019 12.2519 44.8079 12.3225 44.7991 12.4404L43.9979 23.3382L43.995 23.3706C43.9891 23.4413 44.0421 23.5032 44.1128 23.5091L44.1452 23.512L52.8517 24.3249C52.8871 24.3308 52.9165 24.3426 52.943 24.3632Z" fill="#34CBE0"/>
<path d="M49.3792 28.1748L43.4207 41.5998C43.3618 41.7294 43.1644 41.6852 43.1703 41.5438V41.5409L43.9715 30.643L43.9744 30.6106C43.9803 30.5399 43.9273 30.478 43.8566 30.4722L43.8242 30.4692L35.1206 29.6563C35.0853 29.6533 35.0529 29.6386 35.0293 29.615L49.2466 27.9951C49.3438 27.9833 49.4204 28.0835 49.3792 28.1748Z" fill="#34CBE0"/>
<path d="M15.998 74V65.06H21.818V66.14H17.174V68.972H21.578V70.052H17.174V72.92H21.818V74H15.998ZM23.1433 74V64.916H24.2593V74H23.1433ZM28.967 74.144C28.343 74.144 27.787 73.996 27.299 73.7C26.811 73.404 26.427 73 26.147 72.488C25.867 71.968 25.727 71.388 25.727 70.748C25.727 70.1 25.863 69.524 26.135 69.02C26.415 68.516 26.791 68.12 27.263 67.832C27.743 67.536 28.279 67.388 28.871 67.388C29.351 67.388 29.775 67.476 30.143 67.652C30.519 67.82 30.835 68.052 31.091 68.348C31.355 68.636 31.555 68.968 31.691 69.344C31.835 69.712 31.907 70.096 31.907 70.496C31.907 70.584 31.899 70.684 31.883 70.796C31.875 70.9 31.863 71 31.847 71.096H26.543V70.136H31.199L30.671 70.568C30.743 70.152 30.703 69.78 30.551 69.452C30.399 69.124 30.175 68.864 29.879 68.672C29.583 68.48 29.247 68.384 28.871 68.384C28.495 68.384 28.151 68.48 27.839 68.672C27.527 68.864 27.283 69.14 27.107 69.5C26.939 69.852 26.871 70.272 26.903 70.76C26.871 71.232 26.943 71.648 27.119 72.008C27.303 72.36 27.559 72.636 27.887 72.836C28.223 73.028 28.587 73.124 28.979 73.124C29.411 73.124 29.775 73.024 30.071 72.824C30.367 72.624 30.607 72.368 30.791 72.056L31.727 72.536C31.599 72.832 31.399 73.104 31.127 73.352C30.863 73.592 30.547 73.784 30.179 73.928C29.819 74.072 29.415 74.144 28.967 74.144ZM36.362 74.144C35.73 74.144 35.166 73.996 34.67 73.7C34.182 73.404 33.798 73 33.518 72.488C33.238 71.976 33.098 71.4 33.098 70.76C33.098 70.112 33.238 69.536 33.518 69.032C33.798 68.528 34.182 68.128 34.67 67.832C35.166 67.536 35.73 67.388 36.362 67.388C36.786 67.388 37.182 67.464 37.55 67.616C37.918 67.768 38.242 67.972 38.522 68.228C38.802 68.484 39.006 68.784 39.134 69.128L38.138 69.608C37.986 69.272 37.754 69 37.442 68.792C37.13 68.576 36.77 68.468 36.362 68.468C35.97 68.468 35.614 68.568 35.294 68.768C34.982 68.968 34.734 69.24 34.55 69.584C34.366 69.928 34.274 70.324 34.274 70.772C34.274 71.204 34.366 71.596 34.55 71.948C34.734 72.292 34.982 72.564 35.294 72.764C35.614 72.964 35.97 73.064 36.362 73.064C36.77 73.064 37.13 72.96 37.442 72.752C37.754 72.536 37.986 72.252 38.138 71.9L39.134 72.404C39.006 72.74 38.802 73.04 38.522 73.304C38.242 73.56 37.918 73.764 37.55 73.916C37.182 74.068 36.786 74.144 36.362 74.144ZM43.2205 74.072C42.5885 74.072 42.1005 73.892 41.7565 73.532C41.4205 73.172 41.2525 72.664 41.2525 72.008V68.6H40.0765V67.532H40.3165C40.6045 67.532 40.8325 67.444 41.0005 67.268C41.1685 67.092 41.2525 66.86 41.2525 66.572V66.044H42.3685V67.532H43.8205V68.6H42.3685V71.972C42.3685 72.188 42.4005 72.376 42.4645 72.536C42.5365 72.696 42.6525 72.824 42.8125 72.92C42.9725 73.008 43.1845 73.052 43.4485 73.052C43.5045 73.052 43.5725 73.048 43.6525 73.04C43.7405 73.032 43.8205 73.024 43.8925 73.016V74C43.7885 74.024 43.6725 74.04 43.5445 74.048C43.4165 74.064 43.3085 74.072 43.2205 74.072ZM45.3503 74V67.532H46.4423V68.72L46.3223 68.552C46.4743 68.184 46.7063 67.912 47.0183 67.736C47.3303 67.552 47.7103 67.46 48.1583 67.46H48.5543V68.516H47.9903C47.5343 68.516 47.1663 68.66 46.8863 68.948C46.6063 69.228 46.4663 69.628 46.4663 70.148V74H45.3503ZM49.5456 74V67.532H50.6616V74H49.5456ZM49.5456 66.5V65.06H50.6616V66.5H49.5456ZM55.3933 74.144C54.7613 74.144 54.1973 73.996 53.7013 73.7C53.2133 73.404 52.8293 73 52.5493 72.488C52.2693 71.976 52.1293 71.4 52.1293 70.76C52.1293 70.112 52.2693 69.536 52.5493 69.032C52.8293 68.528 53.2133 68.128 53.7013 67.832C54.1973 67.536 54.7613 67.388 55.3933 67.388C55.8173 67.388 56.2133 67.464 56.5813 67.616C56.9493 67.768 57.2733 67.972 57.5533 68.228C57.8333 68.484 58.0373 68.784 58.1653 69.128L57.1693 69.608C57.0173 69.272 56.7853 69 56.4733 68.792C56.1613 68.576 55.8013 68.468 55.3933 68.468C55.0013 68.468 54.6453 68.568 54.3253 68.768C54.0133 68.968 53.7653 69.24 53.5813 69.584C53.3973 69.928 53.3053 70.324 53.3053 70.772C53.3053 71.204 53.3973 71.596 53.5813 71.948C53.7653 72.292 54.0133 72.564 54.3253 72.764C54.6453 72.964 55.0013 73.064 55.3933 73.064C55.8013 73.064 56.1613 72.96 56.4733 72.752C56.7853 72.536 57.0173 72.252 57.1693 71.9L58.1653 72.404C58.0373 72.74 57.8333 73.04 57.5533 73.304C57.2733 73.56 56.9493 73.764 56.5813 73.916C56.2133 74.068 55.8173 74.144 55.3933 74.144ZM59.6238 74V67.532H60.7398V74H59.6238ZM59.6238 66.5V65.06H60.7398V66.5H59.6238ZM65.0994 74.072C64.4674 74.072 63.9794 73.892 63.6354 73.532C63.2994 73.172 63.1314 72.664 63.1314 72.008V68.6H61.9554V67.532H62.1954C62.4834 67.532 62.7114 67.444 62.8794 67.268C63.0474 67.092 63.1314 66.86 63.1314 66.572V66.044H64.2474V67.532H65.6994V68.6H64.2474V71.972C64.2474 72.188 64.2794 72.376 64.3434 72.536C64.4154 72.696 64.5314 72.824 64.6914 72.92C64.8514 73.008 65.0634 73.052 65.3274 73.052C65.3834 73.052 65.4514 73.048 65.5314 73.04C65.6194 73.032 65.6994 73.024 65.7714 73.016V74C65.6674 74.024 65.5514 74.04 65.4234 74.048C65.2954 74.064 65.1874 74.072 65.0994 74.072ZM67.5772 76.64C67.4332 76.64 67.2892 76.628 67.1452 76.604C67.0012 76.588 66.8652 76.552 66.7372 76.496V75.5C66.8252 75.508 66.9332 75.524 67.0612 75.548C67.1972 75.572 67.3292 75.584 67.4572 75.584C67.8332 75.584 68.1172 75.5 68.3092 75.332C68.5092 75.164 68.6972 74.88 68.8732 74.48L69.2812 73.508L69.2572 74.48L66.4972 67.532H67.7092L69.8572 73.052H69.4972L71.6332 67.532H72.8692L69.9532 74.768C69.8172 75.112 69.6412 75.428 69.4252 75.716C69.2172 76.004 68.9612 76.228 68.6572 76.388C68.3532 76.556 67.9932 76.64 67.5772 76.64Z" fill="#0C192C"/>
<defs>
<filter id="filter0_d_157_1361" x="15" y="0" width="58" height="58" filterUnits="userSpaceOnUse" color-interpolation-filters="sRGB">
<feFlood flood-opacity="0" result="BackgroundImageFix"/>
<feColorMatrix in="SourceAlpha" type="matrix" values="0 0 0 0 0 0 0 0 0 0 0 0 0 0 0 0 0 0 127 0" result="hardAlpha"/>
<feOffset dy="2"/>
<feGaussianBlur stdDeviation="2.5"/>
<feComposite in2="hardAlpha" operator="out"/>
<feColorMatrix type="matrix" values="0 0 0 0 0 0 0 0 0 0 0 0 0 0 0 0 0 0 0.05 0"/>
<feBlend mode="normal" in2="BackgroundImageFix" result="effect1_dropShadow_157_1361"/>
<feBlend mode="normal" in="SourceGraphic" in2="effect1_dropShadow_157_1361" result="shape"/>
</filter>
<filter id="filter1_d_157_1361" x="15" y="0" width="58" height="58" filterUnits="userSpaceOnUse" color-interpolation-filters="sRGB">
<feFlood flood-opacity="0" result="BackgroundImageFix"/>
<feColorMatrix in="SourceAlpha" type="matrix" values="0 0 0 0 0 0 0 0 0 0 0 0 0 0 0 0 0 0 127 0" result="hardAlpha"/>
<feOffset dy="2"/>
<feGaussianBlur stdDeviation="2.5"/>
<feComposite in2="hardAlpha" operator="out"/>
<feColorMatrix type="matrix" values="0 0 0 0 0 0 0 0 0 0 0 0 0 0 0 0 0 0 0.05 0"/>
<feBlend mode="normal" in2="BackgroundImageFix" result="effect1_dropShadow_157_1361"/>
<feBlend mode="normal" in="SourceGraphic" in2="effect1_dropShadow_157_1361" result="shape"/>
</filter>
</defs>
</svg>
