<svg width="19" height="30" viewBox="0 0 19 30" fill="none" xmlns="http://www.w3.org/2000/svg">
<path d="M18.9784 12.5694L9.47958 29.632C9.45307 29.6791 9.41184 29.7056 9.3706 29.7144C9.27341 29.7351 9.16443 29.6614 9.17326 29.5407L9.9744 18.6428C9.9803 18.5544 9.9155 18.4749 9.82714 18.4661L1.12061 17.6561C1.08526 17.6531 1.05286 17.6384 1.0293 17.6148C0.976283 17.5677 0.955665 17.4823 0.996901 17.4116L10.4928 0.349049C10.5193 0.298977 10.5635 0.272469 10.6077 0.266578C10.7019 0.251851 10.8079 0.32254 10.7991 0.440355L9.99797 11.3382C9.99208 11.4266 10.0569 11.5032 10.1452 11.515L18.8518 12.3249C18.8871 12.3279 18.9166 12.3426 18.9401 12.3632C18.999 12.4133 19.0197 12.4958 18.9784 12.5694Z" fill="#34CBE0"/>
<path d="M18.943 12.3632L4.98777 13.724C4.89057 13.7328 4.81694 13.6356 4.85523 13.5443L10.6075 0.266578C10.7018 0.251851 10.8078 0.32254 10.799 0.440355L9.99785 11.3382L9.99491 11.3706C9.98902 11.4413 10.042 11.5032 10.1127 11.5091L10.1451 11.512L18.8517 12.3249C18.887 12.3308 18.9164 12.3426 18.943 12.3632Z" fill="#34CBE0"/>
<path d="M15.3791 16.1745L9.42061 29.5995C9.3617 29.7291 9.16436 29.6849 9.17025 29.5436V29.5406L9.97139 18.6427L9.97434 18.6103C9.98023 18.5397 9.92721 18.4778 9.85653 18.4719L9.82413 18.469L1.12054 17.656C1.0852 17.6531 1.0528 17.6384 1.02924 17.6148L15.2466 15.9948C15.3438 15.9831 15.4203 16.0832 15.3791 16.1745Z" fill="#34CBE0"/>
</svg>
