<svg width="92" height="129" viewBox="0 0 92 129" fill="none" xmlns="http://www.w3.org/2000/svg">
<g clip-path="url(#clip0_560_4545)" filter="url(#filter0_d_560_4545)">
<g filter="url(#filter1_d_560_4545)">
<path d="M74.6479 58.2716C76.5924 57.1435 78.1764 58.0506 78.1827 60.2863L78.238 82.0373C78.2444 84.2826 76.6706 87.012 74.7261 88.1401L22.847 118.238C20.9022 119.366 19.3266 118.464 19.3203 116.219L19.2649 94.4676C19.2586 92.2319 20.824 89.4977 22.7687 88.3695L74.6479 58.2716Z" fill="white"/>
<path d="M78.2422 82.0384C78.2422 84.288 76.6673 87.0084 74.7277 88.1462L22.848 118.24C20.9087 119.365 19.3208 118.463 19.3208 116.213L19.2817 100.296C22.2754 100.741 25.3729 100.963 28.5486 100.963C53.3433 100.963 73.4522 87.1392 73.4522 70.0975C73.4522 66.6709 72.6454 63.3751 71.1484 60.3016L74.6499 58.2744C76.5892 57.1497 78.177 58.0521 78.177 60.2885L78.2422 82.0384Z" fill="#E9EDF4"/>
<path d="M21.2653 119.472C20.8047 119.472 20.3713 119.361 19.9832 119.137C19.0801 118.617 18.5813 117.58 18.5777 116.22L18.5215 94.4694C18.5161 91.9504 20.2171 88.9877 22.3969 87.7237L74.2754 57.6251C75.4578 56.9376 76.6093 56.8521 77.5179 57.3759C78.4228 57.8961 78.9215 58.9291 78.927 60.2841L78.9814 82.0346C78.9886 84.5517 77.2839 87.5181 75.0987 88.7858L23.2184 118.884C22.5438 119.275 21.8801 119.472 21.2653 119.472ZM75.0189 58.9164L23.1405 89.015C21.4376 90.0026 20.0031 92.4979 20.0086 94.4658L20.0648 116.216C20.0666 117.011 20.306 117.604 20.7231 117.846C21.1384 118.088 21.7767 117.997 22.4749 117.593L74.3552 87.4945C76.0635 86.5051 77.5016 84.0061 77.4943 82.0382L77.4399 60.2877C77.4381 59.4984 77.1969 58.9073 76.778 58.6672C76.3536 58.4199 75.7135 58.5145 75.0189 58.9164Z" fill="black"/>
<path d="M71.6557 54.8085C71.0049 54.4423 70.1196 54.4946 69.1435 55.057L17.2637 85.1511C16.3244 85.7022 15.4754 86.631 14.8462 87.6929L20.3463 90.9072C20.9761 89.8434 21.8274 88.9147 22.7693 88.3685L74.6493 58.2743C75.6255 57.6989 76.5105 57.6466 77.1612 58.0258L71.6557 54.8085Z" fill="#FFD63C"/>
<path d="M20.3458 91.6521C20.2189 91.6521 20.0901 91.6193 19.9723 91.5502L14.4738 88.3365C14.3015 88.2365 14.1782 88.0728 14.1292 87.88C14.0784 87.6872 14.1074 87.4835 14.209 87.3125C14.9253 86.0976 15.8774 85.1027 16.8893 84.508L68.7714 54.4113C69.9538 53.7347 71.1072 53.6456 72.0194 54.1584C72.023 54.1603 72.0266 54.1621 72.0302 54.1639L77.5324 57.3795C77.5342 57.3795 77.5342 57.3795 77.5342 57.3813C77.8878 57.5886 78.0111 58.0433 77.8044 58.3998C77.5977 58.7563 77.1407 58.8781 76.7907 58.669C76.3572 58.418 75.728 58.5034 75.0243 58.9163L23.1404 89.0149C22.3479 89.4732 21.5826 90.2807 20.9842 91.2883C20.8446 91.5211 20.5979 91.6521 20.3458 91.6521ZM15.8974 87.4453L20.1083 89.9061C20.7702 88.9676 21.5645 88.2074 22.3969 87.7236L74.2772 57.6286C74.4059 57.5541 74.5329 57.4868 74.6598 57.4249L71.2885 55.4552C70.8515 55.2097 70.2186 55.297 69.5131 55.7026L17.6365 85.7975C17.0163 86.1613 16.4142 86.7342 15.8974 87.4453Z" fill="black"/>
<path d="M13.7629 91.2591L13.815 113.006C13.815 114.118 14.2052 114.903 14.8433 115.269L20.3488 118.486C19.7108 118.12 19.3206 117.335 19.3206 116.223L19.2684 94.4633C19.2618 93.313 19.6796 92.0342 20.3466 90.9074L14.8465 87.6931C14.1763 88.8238 13.7562 90.1059 13.7629 91.2591Z" fill="#F4C531"/>
<path d="M20.3495 119.232C20.2244 119.232 20.0974 119.199 19.9814 119.133C19.9687 119.126 19.9578 119.119 19.9469 119.112L14.4702 115.912C13.5707 115.398 13.072 114.365 13.072 113.006L13.0194 91.2647C13.0121 90.0207 13.4347 88.6184 14.209 87.3126C14.4194 86.9597 14.8691 86.8415 15.221 87.0488L20.7194 90.2626C20.8917 90.3626 21.015 90.5263 21.064 90.7191C21.1148 90.9119 21.0858 91.1156 20.9842 91.2865C20.3604 92.3451 20.0049 93.5018 20.0122 94.4585L20.0648 116.222C20.0648 117.002 20.2969 117.586 20.7031 117.829L20.7231 117.842C21.0767 118.05 21.1964 118.502 20.9933 118.859C20.8555 119.097 20.6052 119.232 20.3495 119.232ZM15.1393 88.7257C14.7277 89.5933 14.501 90.4881 14.5064 91.2538V91.2574L14.559 113.004C14.559 113.795 14.7966 114.383 15.2119 114.621L18.5922 116.596C18.5832 116.474 18.5777 116.351 18.5777 116.223L18.5251 94.4657C18.5197 93.4363 18.8098 92.2941 19.3503 91.1865L15.1393 88.7257Z" fill="black"/>
<path d="M29.7733 93.6904C30.0108 93.5526 30.2306 93.5267 30.4069 93.6277C30.5922 93.7134 30.6807 93.9061 30.6814 94.1802C30.6817 94.2715 30.5271 95.6017 30.2086 98.1759C31.8216 95.7148 32.6717 94.4385 32.7508 94.352C32.8473 94.2044 32.9964 94.0671 33.1724 93.965C33.4976 93.7762 33.7618 93.7958 33.9647 94.0339C34.0444 94.1707 34.089 94.3176 34.0894 94.4801C34.0906 94.8861 33.9507 95.2621 33.6612 95.6437L30.6328 98.7737L33.6689 98.3744C33.9596 98.3989 34.101 98.6015 34.1022 98.9974C34.1026 99.1699 34.059 99.3681 33.9804 99.5968C33.7794 100.069 33.5074 100.4 33.1646 100.599C33.0239 100.681 32.892 100.727 32.7687 100.727C32.6894 100.722 31.8349 100.435 30.2134 99.8611C30.5453 102.048 30.7069 103.194 30.7071 103.286C30.7079 103.57 30.6209 103.854 30.4366 104.165C30.2615 104.46 30.0422 104.688 29.8047 104.826C29.5587 104.969 29.3474 104.99 29.1623 104.904C28.986 104.803 28.8885 104.626 28.8877 104.342C28.8875 104.25 29.0511 102.915 29.3608 100.356C27.7479 102.807 26.9063 104.078 26.8273 104.175C26.7045 104.317 26.5727 104.424 26.432 104.506C26.0894 104.705 25.8164 104.69 25.6132 104.452C25.5248 104.341 25.4892 104.179 25.4886 103.965C25.4875 103.569 25.6274 103.204 25.908 102.878L28.9364 99.7582L25.9003 100.147C25.6187 100.128 25.4772 99.915 25.4761 99.5191C25.4755 99.306 25.51 99.1029 25.5975 98.8894C25.7987 98.4168 26.0619 98.0912 26.3783 97.9076C26.519 97.826 26.6684 97.7901 26.8093 97.7999C26.8886 97.7945 27.7345 98.0865 29.356 98.6707C29.0329 96.4688 28.8623 95.3273 28.8621 95.236C28.8613 94.9619 28.9574 94.6621 29.1326 94.3672C29.3165 94.0571 29.5272 93.8332 29.7733 93.6904Z" fill="black"/>
<path d="M42.4125 86.3558C42.6585 86.213 42.8698 86.192 43.0549 86.288C43.24 86.3738 43.3284 86.5665 43.3292 86.8405C43.3294 86.9319 43.166 88.2672 42.8564 90.8364C44.4693 88.3752 45.3109 87.1039 45.3899 87.0173C45.495 86.8648 45.6356 86.7324 45.8201 86.6254C46.1453 86.4366 46.4007 86.4613 46.6038 86.6993C46.6923 86.8309 46.7279 86.9832 46.7283 87.1456C46.7295 87.5516 46.5896 87.9276 46.3091 88.304L43.2805 91.4341L46.3168 91.0346C46.5985 91.0644 46.74 91.267 46.7411 91.6629C46.7416 91.8354 46.707 92.0284 46.6195 92.2621C46.4184 92.7348 46.1463 93.0655 45.8037 93.2643C45.6631 93.3459 45.5311 93.392 45.4079 93.3923C45.3286 93.3875 44.4826 93.0955 42.8611 92.5215C43.1842 94.7132 43.3546 95.8548 43.3549 95.9462C43.3557 96.2304 43.2686 96.5148 43.0846 96.8249C42.9006 97.1249 42.6899 97.3489 42.4439 97.4916C42.2064 97.6295 41.9953 97.6502 41.81 97.5646C41.6249 97.4687 41.5365 97.2861 41.5357 97.0019C41.5355 96.9105 41.69 95.5803 42.0085 93.0162C40.3956 95.4672 39.5452 96.7437 39.4664 96.8402C39.3436 96.9827 39.2118 97.0896 39.0712 97.1713C38.7283 97.3702 38.4553 97.3558 38.2521 97.1178C38.1728 97.0012 38.1281 96.8441 38.1275 96.6309C38.1264 96.235 38.2663 95.8691 38.556 95.5383L41.5844 92.4184L38.5483 92.8077C38.2576 92.7933 38.1161 92.5806 38.115 92.1847C38.1144 91.9715 38.158 91.7632 38.2364 91.555C38.4376 91.0823 38.7008 90.7567 39.026 90.568C39.1667 90.4864 39.3075 90.4555 39.4484 90.4652C39.5275 90.46 40.3823 90.7469 42.0038 91.3311C41.6719 89.1343 41.5103 87.9876 41.51 87.8962C41.5093 87.6221 41.5963 87.3276 41.7803 87.0276C41.9645 86.7174 42.175 86.4936 42.4125 86.3558Z" fill="black"/>
<path d="M55.0597 79.0162C55.3057 78.8734 55.517 78.8525 55.6933 78.9535C55.8784 79.0393 55.9671 79.2319 55.9678 79.506C55.9681 79.5973 55.8133 80.9277 55.4948 83.5019C57.1077 81.0408 57.9581 79.7643 58.0371 79.6778C58.1423 79.5253 58.2828 79.3929 58.4585 79.2909C58.7837 79.1022 59.0479 79.1218 59.2511 79.3597C59.3307 79.4965 59.3751 79.6436 59.3756 79.806C59.3767 80.2121 59.2369 80.5881 58.9564 80.9644L55.928 84.0945L58.9641 83.6951C59.2457 83.7248 59.3872 83.9274 59.3883 84.3233C59.3888 84.4959 59.3454 84.6939 59.2668 84.9226C59.0656 85.3952 58.7938 85.7258 58.4509 85.9247C58.3103 86.0064 58.1783 86.0524 58.0551 86.0528C57.9758 86.0479 57.121 85.7611 55.4995 85.187C55.8314 87.3737 55.9932 88.5203 55.9935 88.6116C55.9943 88.8959 55.907 89.1804 55.723 89.4905C55.5478 89.7854 55.3371 90.0093 55.0911 90.1521C54.845 90.2949 54.6337 90.3158 54.4575 90.2249C54.2724 90.129 54.1837 89.9466 54.1829 89.6623C54.1827 89.571 54.3373 88.2408 54.6558 85.6767C53.0428 88.1277 52.1927 89.404 52.1137 89.5007C51.9908 89.6431 51.8591 89.7501 51.7184 89.8317C51.3756 90.0307 51.1028 90.0161 50.8996 89.7781C50.82 89.6617 50.7756 89.5044 50.775 89.2912C50.7739 88.8953 50.9135 88.5296 51.1944 88.2039L54.2228 85.084L51.1867 85.4732C50.9048 85.4538 50.7636 85.2409 50.7625 84.845C50.7619 84.6318 50.8052 84.4236 50.8839 84.2153C51.0851 83.7427 51.3481 83.4172 51.6733 83.2285C51.8139 83.1468 51.9547 83.116 52.0957 83.1257C52.1749 83.1204 53.0295 83.4074 54.651 83.9916C54.3191 81.7948 54.1575 80.648 54.1572 80.5567C54.1565 80.2826 54.2438 79.9879 54.4278 79.6879C54.6029 79.383 54.8136 79.159 55.0597 79.0162Z" fill="black"/>
<path d="M67.6984 71.682C67.9447 71.539 68.1558 71.5182 68.3409 71.6142C68.5262 71.6998 68.6146 71.8925 68.6154 72.1666C68.6157 72.258 68.4523 73.5933 68.1426 76.1624C69.7555 73.7013 70.5971 72.43 70.6847 72.3384C70.7813 72.1909 70.9218 72.0585 71.1063 71.9514C71.4315 71.7627 71.6957 71.7823 71.8987 72.0204C71.9783 72.1571 72.0141 72.3092 72.0146 72.4717C72.0157 72.8777 71.8759 73.2537 71.5951 73.6302L68.5667 76.7602L71.6028 76.3608C71.8847 76.3904 72.0262 76.5931 72.0273 76.989C72.0278 77.1615 71.993 77.3546 71.9143 77.5832C71.7134 78.0557 71.4326 78.3915 71.0897 78.5905C70.949 78.6721 70.8171 78.7182 70.7027 78.7134C70.6148 78.7136 69.7688 78.4216 68.1474 77.8475C68.4704 80.0393 68.6408 81.1809 68.6411 81.2723C68.6419 81.5565 68.5548 81.8409 68.3706 82.1512C68.1866 82.4511 67.9761 82.6749 67.7298 82.8179C67.4926 82.9555 67.2813 82.9765 67.0962 82.8907C66.9111 82.7947 66.8225 82.6123 66.8217 82.3281C66.8214 82.2367 66.9763 80.9064 67.2948 78.3423C65.6818 80.7933 64.8402 82.0646 64.7524 82.1664C64.6384 82.3038 64.5066 82.4107 64.366 82.4924C64.0145 82.6963 63.7415 82.6819 63.5384 82.4439C63.4587 82.3274 63.4232 82.165 63.4226 81.9519C63.4215 81.556 63.5613 81.1901 63.842 80.8646L66.8704 77.7446L63.8343 78.1339C63.5527 78.1143 63.4112 77.9015 63.41 77.5056C63.4094 77.2925 63.444 77.0894 63.5227 76.881C63.7238 76.4084 63.9871 76.0828 64.3123 75.8941C64.4529 75.8125 64.5935 75.7817 64.7344 75.7915C64.8225 75.781 65.6685 76.073 67.29 76.6572C66.9581 74.4604 66.7963 73.3138 66.796 73.2224C66.7952 72.9484 66.8825 72.6537 67.0665 72.3537C67.2505 72.0436 67.4612 71.8196 67.6984 71.682Z" fill="black"/>
<path d="M57.0576 29.6252L56.9908 53.5271C56.9908 54.767 56.1734 56.007 54.5553 56.9536L37.5063 66.9065C34.2367 68.8166 28.9233 68.8166 25.637 66.9065C23.9855 65.943 23.1595 64.6863 23.1595 63.4297L23.2263 39.5278C23.2263 40.7844 24.0523 42.0411 25.7038 43.0047C28.9901 44.9147 34.3034 44.9147 37.5731 43.0047L54.6221 33.0517C56.2483 32.1051 57.0576 30.8652 57.0576 29.6252Z" fill="white"/>
<path d="M57.0535 29.6233L56.9869 53.53C56.9869 54.7659 56.1776 56.0019 54.5591 56.9485L37.5089 66.903C34.2383 68.8182 28.928 68.8182 25.6358 66.903C23.9837 65.9454 23.1631 64.6872 23.1631 63.4289L23.1745 59.9771C26.2561 61.9257 29.9035 63.0615 33.8172 63.0615C44.8696 63.0615 53.8164 54.0644 53.8164 42.9741C53.8164 39.9788 53.162 37.1394 51.9868 34.5894L54.6257 33.0528C56.2442 32.1064 57.0535 30.8704 57.0535 29.6233Z" fill="#E9EDF4"/>
<path d="M33.3382 44.3156C30.6677 44.6381 27.7834 44.2135 25.7038 43.0047C24.0523 42.0412 23.2263 40.7845 23.2263 39.5278L23.1595 63.4297C23.1595 64.6864 23.9855 65.9431 25.637 66.9065C27.7345 68.1256 30.6494 68.5464 33.3382 68.2079V44.3156Z" fill="#F4C531"/>
<path d="M54.579 26.1468C57.8702 28.0553 57.8875 31.1435 54.623 33.049L37.5707 43.0024C34.3009 44.911 28.9927 44.911 25.7016 43.0025C22.4157 41.097 22.3984 38.0088 25.6681 36.1002L42.7205 26.1467C45.9849 24.2413 51.2931 24.2413 54.579 26.1468Z" fill="white"/>
<path d="M31.5784 69.0963C29.3097 69.0963 27.0374 68.5816 25.2656 67.5504C23.4286 66.4791 22.4166 65.0168 22.4166 63.4309L22.4819 39.527C22.4837 39.116 22.8156 38.7831 23.2254 38.7831C23.6353 38.7849 23.969 39.1178 23.969 39.5288C23.969 40.5619 24.7179 41.5676 26.0781 42.3606C29.1483 44.1448 34.1408 44.1521 37.2002 42.3606L54.2488 32.4084C55.5762 31.6354 56.3089 30.6533 56.3143 29.6384V29.6239C56.3162 29.2128 56.648 28.88 57.0579 28.88C57.4677 28.8818 57.8014 29.2147 57.8014 29.6257V29.6439L57.7343 53.5296C57.7343 55.0937 56.7387 56.5378 54.9306 57.5981L37.8802 67.5504C36.1157 68.5816 33.8489 69.0963 31.5784 69.0963ZM23.9599 42.6389L23.9037 63.4327C23.9037 64.4639 24.6508 65.4697 26.011 66.2627C29.0812 68.0469 34.0737 68.0505 37.1331 66.2627L54.1817 56.3105C55.5146 55.5302 56.2472 54.5408 56.2472 53.5278L56.3071 32.7376C55.9335 33.0831 55.4965 33.4051 54.9959 33.6961L37.9473 43.6483C34.4183 45.7126 28.8781 45.7108 25.3309 43.6483C24.805 43.3427 24.3462 43.0026 23.9599 42.6389Z" fill="black"/>
<path d="M31.5348 69.0653C29.2063 69.0653 26.9558 68.5343 25.2656 67.5503C23.4286 66.4791 22.4166 65.015 22.4166 63.429L22.4819 39.527C22.4837 39.1159 22.8156 38.7831 23.2254 38.7831C23.6353 38.7849 23.969 39.1177 23.969 39.5288C23.969 40.5618 24.7179 41.5676 26.0781 42.3606C27.9333 43.4391 30.6154 43.8938 33.2486 43.5755C33.459 43.55 33.6711 43.6191 33.8307 43.7592C33.9885 43.8992 34.081 44.1029 34.081 44.3157V68.2087C34.081 68.5834 33.8017 68.9017 33.4299 68.9471C32.7988 69.0271 32.1641 69.0653 31.5348 69.0653ZM23.9599 42.637L23.9037 63.4308C23.9037 64.4639 24.6508 65.4697 26.011 66.2626C27.732 67.2648 30.162 67.7213 32.5939 67.5358V45.1324C29.9353 45.3106 27.2586 44.7686 25.3309 43.6483C24.805 43.3409 24.3462 43.0026 23.9599 42.637Z" fill="black"/>
<path d="M31.6435 45.1906C29.3748 45.1906 27.1025 44.6759 25.3289 43.6483C23.4954 42.5844 22.4853 41.1257 22.4835 39.5416C22.4817 37.9665 23.4809 36.5152 25.2944 35.4567L42.3467 25.5026C45.8684 23.4474 51.4068 23.4492 54.9504 25.5008C56.7875 26.5684 57.8012 28.027 57.803 29.613C57.8048 31.188 56.8074 32.6358 54.9957 33.6925L37.9435 43.6465C36.1808 44.6759 33.9139 45.1906 31.6435 45.1906ZM48.6413 25.4553C46.6283 25.4553 44.6208 25.8991 43.0938 26.7903L26.0416 36.7443C24.7032 37.5246 23.9688 38.5176 23.9688 39.5398C23.9706 40.571 24.7177 41.5713 26.0724 42.357C29.1517 44.143 34.1388 44.1412 37.1964 42.3588L54.2486 32.4048C55.5833 31.6264 56.3178 30.6351 56.316 29.6148C56.316 28.5836 55.567 27.5796 54.2069 26.7921C52.669 25.9009 50.6542 25.4553 48.6413 25.4553Z" fill="black"/>
<path d="M68.6644 19.6892C68.6738 20.4866 68.2529 21.1785 67.4972 21.6204C66.3398 22.2931 64.5415 22.2931 63.3841 21.6301C62.6186 21.188 62.1977 20.5059 62.1977 19.7085L62.1786 9.98524C62.1692 8.6401 61.8054 7.82345 61.442 7.6121C61.0786 7.40076 60.1697 7.4967 58.9838 8.18856C55.5115 10.1966 52.5937 15.2696 52.6035 19.2664L52.632 28.9898C52.632 30.3733 51.3027 31.3437 49.3989 31.3533C49.3989 31.3533 49.3895 31.3533 49.3797 31.3533C47.4857 31.3533 46.1657 30.3829 46.1559 29.009L46.1368 19.2857C46.1176 13.0405 50.3363 5.69052 55.7506 2.55832C58.888 0.732785 62.1403 0.521439 64.6751 1.98175C67.1913 3.44217 68.6355 6.34379 68.6453 9.966L68.6644 19.6892Z" fill="#FFD63C"/>
<path d="M57.5097 3.88215C52.0948 7.01423 47.8707 14.368 47.8913 20.6108L47.9129 30.3347C47.9129 30.6416 47.9757 30.9273 48.113 31.1918C46.9222 30.8638 46.164 30.0597 46.1532 29.0121L46.1321 19.2882C46.1218 13.0454 50.3356 5.6916 55.7506 2.55953C58.8898 0.729028 62.1449 0.51733 64.673 1.97765C65.2317 2.30559 65.7476 2.70768 66.19 3.17318C63.6829 1.85055 60.5436 2.10448 57.5097 3.88215Z" fill="#F4C531"/>
<path d="M49.403 32.099C47.0582 32.099 45.426 30.8295 45.4115 29.0144L45.3934 19.2877C45.3734 12.7966 49.7584 5.16324 55.3784 1.91313C58.7497 -0.0493111 62.2733 -0.258468 65.0443 1.33658C67.7954 2.93163 69.3768 6.07626 69.3876 9.96475L69.4076 19.686C69.4166 20.7482 68.8581 21.6884 67.8697 22.265C66.4933 23.0652 64.406 23.0725 63.015 22.2777C62.0231 21.7048 61.4536 20.7682 61.4536 19.7078L61.4355 9.98658C61.4264 8.8153 61.1272 8.3115 61.0474 8.24057C60.9984 8.24603 60.3891 8.22966 59.3572 8.83167C56.1437 10.6904 53.3365 15.5629 53.3473 19.264L53.3745 28.9871C53.3745 30.8077 51.7406 32.0863 49.403 32.099ZM60.9821 1.76581C59.428 1.76581 57.7632 2.24778 56.1238 3.20262C50.9191 6.21266 46.8605 13.2749 46.8804 19.2841L46.8986 29.0071C46.9058 29.9474 47.925 30.6076 49.3794 30.6076C50.8629 30.6022 51.8875 29.9347 51.8875 28.9889L51.8603 19.2677C51.8494 15.0354 54.9414 9.66466 58.6119 7.54217C59.9249 6.7783 61.1181 6.56186 61.8145 6.96745C62.4964 7.36575 62.9099 8.49156 62.9226 9.9793L62.9407 19.706C62.9407 20.3753 63.3832 20.77 63.7531 20.9846C64.6871 21.5138 66.1977 21.5157 67.1244 20.9755C67.4907 20.7627 67.9296 20.3644 67.9205 19.6987C67.9205 19.6951 67.9205 19.6933 67.9205 19.6915L67.9006 9.96839C67.8933 6.62552 66.5804 3.95013 64.3026 2.6279C63.3034 2.05135 62.1754 1.76581 60.9821 1.76581Z" fill="black"/>
<path d="M45.9674 46.3939C47.1226 45.724 48.0458 46.2579 48.0496 47.5845C48.051 48.0925 47.9164 48.6497 47.6779 49.1771C47.5812 49.383 47.5364 49.5885 47.5757 49.7452L48.2063 52.5536C48.2852 52.8896 48.0336 53.3944 47.6969 53.5897L44.3105 55.5535C43.9738 55.7487 43.7204 55.5367 43.7969 55.1106L44.4096 51.5812C44.4479 51.3795 44.4021 51.2266 44.3045 51.1333C43.9728 50.7868 43.8349 50.1707 43.9818 49.3594C44.167 48.3314 44.8511 47.2008 45.6601 46.5973C45.764 46.5199 45.8666 46.4524 45.9674 46.3939Z" fill="black"/>
</g>
</g>
<defs>
<filter id="filter0_d_560_4545" x="-4" y="0" width="100" height="137" filterUnits="userSpaceOnUse" color-interpolation-filters="sRGB">
<feFlood flood-opacity="0" result="BackgroundImageFix"/>
<feColorMatrix in="SourceAlpha" type="matrix" values="0 0 0 0 0 0 0 0 0 0 0 0 0 0 0 0 0 0 127 0" result="hardAlpha"/>
<feOffset dy="4"/>
<feGaussianBlur stdDeviation="2"/>
<feComposite in2="hardAlpha" operator="out"/>
<feColorMatrix type="matrix" values="0 0 0 0 0 0 0 0 0 0 0 0 0 0 0 0 0 0 0.25 0"/>
<feBlend mode="normal" in2="BackgroundImageFix" result="effect1_dropShadow_560_4545"/>
<feBlend mode="normal" in="SourceGraphic" in2="effect1_dropShadow_560_4545" result="shape"/>
</filter>
<filter id="filter1_d_560_4545" x="2.11929" y="-8.62546" width="91.762" height="144.997" filterUnits="userSpaceOnUse" color-interpolation-filters="sRGB">
<feFlood flood-opacity="0" result="BackgroundImageFix"/>
<feColorMatrix in="SourceAlpha" type="matrix" values="0 0 0 0 0 0 0 0 0 0 0 0 0 0 0 0 0 0 127 0" result="hardAlpha"/>
<feOffset dx="2" dy="4"/>
<feGaussianBlur stdDeviation="6.45"/>
<feComposite in2="hardAlpha" operator="out"/>
<feColorMatrix type="matrix" values="0 0 0 0 0 0 0 0 0 0 0 0 0 0 0 0 0 0 0.25 0"/>
<feBlend mode="normal" in2="BackgroundImageFix" result="effect1_dropShadow_560_4545"/>
<feBlend mode="normal" in="SourceGraphic" in2="effect1_dropShadow_560_4545" result="shape"/>
</filter>
<clipPath id="clip0_560_4545">
<rect width="92" height="129" fill="white"/>
</clipPath>
</defs>
</svg>
