<svg width="89" height="82" viewBox="0 0 89 82" fill="none" xmlns="http://www.w3.org/2000/svg">
<g filter="url(#filter0_d_59_953)">
<rect x="18.3369" y="13.9536" width="52.3256" height="52.3256" rx="26.1628" fill="#49B6F4" shape-rendering="crispEdges"/>
<path d="M34.2035 27.1129C34.0093 27.1538 33.626 27.2918 33.3602 27.4247C32.9616 27.6189 32.8032 27.7313 32.4607 28.0737C32.1183 28.4161 32.0059 28.5746 31.8117 28.9732C31.4284 29.7602 31.4182 29.8522 31.4182 32.8931C31.4182 34.5081 31.4386 35.612 31.4693 35.7244C31.643 36.3479 32.3176 36.675 33.0178 36.4808C33.258 36.4144 33.5391 36.1742 33.6822 35.9033C33.7946 35.6989 33.7946 35.6529 33.8202 32.934L33.8457 30.1742L33.9735 29.9544C34.0502 29.8165 34.1882 29.6785 34.3313 29.5967L34.5612 29.4587L37.2955 29.4332C39.9275 29.4076 40.0399 29.4025 40.2597 29.3003C41.2205 28.8556 41.1234 27.3633 40.1115 27.0822C39.999 27.0516 38.8951 27.0311 37.2443 27.0362C35.1183 27.0362 34.4846 27.0567 34.2035 27.1129Z" fill="white"/>
<path d="M48.8969 27.0767C48.3705 27.2402 48.0792 27.6388 48.0792 28.201C48.0792 28.7019 48.2939 29.0698 48.713 29.2947C48.9174 29.4071 48.9634 29.4071 51.6823 29.4327L54.442 29.4582L54.6618 29.586C54.7998 29.6627 54.9378 29.8007 55.0196 29.9438L55.1575 30.1737L55.1831 32.9335C55.2087 35.6524 55.2087 35.6984 55.3211 35.9028C55.8219 36.833 57.258 36.7205 57.534 35.724C57.5647 35.6115 57.5851 34.5076 57.5851 32.8926C57.5851 29.8569 57.5749 29.7598 57.1967 28.9829C56.7163 28.0017 55.8526 27.3373 54.764 27.1124C54.4318 27.0409 53.9514 27.0307 51.6976 27.0358C50.2257 27.0358 48.9685 27.0562 48.8969 27.0767Z" fill="white"/>
<path d="M36.9074 31.867C36.7899 31.9079 36.611 32.0254 36.5139 32.1276C36.1716 32.4649 36.1716 32.4802 36.1716 35.3213C36.1716 36.9922 36.192 37.9478 36.2278 38.0909C36.2993 38.3719 36.5293 38.653 36.8001 38.8012C37.0147 38.9136 37.0198 38.9136 39.7485 38.9136C42.4517 38.9136 42.4823 38.9136 42.6867 38.8012C42.9218 38.6785 43.07 38.5252 43.2028 38.2748C43.2948 38.1062 43.2999 37.9325 43.2999 35.3622C43.2999 32.6335 43.2999 32.6284 43.1875 32.4138C43.0393 32.1429 42.7583 31.913 42.4772 31.8414C42.3341 31.8057 41.3837 31.7852 39.6872 31.7903C37.5717 31.7903 37.0811 31.8057 36.9074 31.867ZM40.9238 35.3622V36.5375H39.7485H38.5732V35.3622V34.1869H39.7485H40.9238V35.3622Z" fill="white"/>
<path d="M46.4486 31.8619C46.188 31.9436 45.9682 32.1378 45.8149 32.424C45.7025 32.6284 45.7025 32.659 45.7025 35.3622C45.7025 38.0653 45.7025 38.096 45.8149 38.3004C45.9376 38.5354 46.0909 38.6836 46.3413 38.8165C46.5099 38.9085 46.6836 38.9136 49.2539 38.9136C51.9826 38.9136 51.9877 38.9136 52.2023 38.8012C52.4732 38.653 52.7031 38.3719 52.7746 38.0909C52.8104 37.9478 52.8309 36.9974 52.8309 35.3468C52.8309 32.516 52.8257 32.4802 52.4885 32.1327C52.1512 31.7903 52.1206 31.7852 49.2335 31.7903C47.2202 31.7903 46.6274 31.8057 46.4486 31.8619ZM50.4292 35.3622V36.5375H49.2539H48.0786V35.3622V34.1869H49.2539H50.4292V35.3622Z" fill="white"/>
<path d="M37.0658 41.3369C36.8461 41.3931 36.6775 41.4851 36.4884 41.664C36.1818 41.9603 36.1716 42.0472 36.1716 44.8985C36.1716 47.7601 36.1716 47.7448 36.519 48.1025C36.8461 48.4397 36.8921 48.4448 39.7332 48.4448C41.3837 48.4448 42.3341 48.4244 42.4772 48.3886C42.7583 48.3171 43.0393 48.0871 43.1875 47.8163C43.2999 47.6017 43.2999 47.5966 43.2999 44.8679C43.2999 42.2976 43.2948 42.1239 43.2028 41.9552C43.07 41.7048 42.9218 41.5515 42.6867 41.4289C42.4874 41.3165 42.4414 41.3165 39.8507 41.3063C38.4046 41.3012 37.1527 41.3165 37.0658 41.3369ZM40.9238 44.8679V46.0432H39.7485H38.5732V44.8679V43.6926H39.7485H40.9238V44.8679Z" fill="white"/>
<path d="M46.5717 41.3363C46.214 41.4283 45.9739 41.6224 45.8001 41.9546C45.7235 42.0977 45.703 42.2867 45.6877 42.905C45.6622 43.9423 45.7133 44.2029 46.0301 44.5146C46.306 44.7957 46.5871 44.8928 47.0163 44.8519C47.5426 44.8059 47.9054 44.4993 48.0281 43.9934C48.0638 43.8452 48.0792 43.4467 48.0689 42.9459C48.0536 42.0874 48.0178 41.9444 47.7521 41.6582C47.512 41.3925 46.9448 41.2392 46.5717 41.3363Z" fill="white"/>
<path d="M50.1489 41.3358C49.6123 41.4738 49.2546 41.9337 49.2546 42.4907C49.2546 43.0017 49.5919 43.482 50.0416 43.6149C50.3533 43.7068 51.6563 43.7171 51.9987 43.6302C52.1622 43.5893 52.3104 43.5024 52.479 43.3389C52.6783 43.1448 52.7294 43.0528 52.7856 42.8024C52.9133 42.225 52.6987 41.7191 52.2133 41.4432C52.0038 41.3205 51.9425 41.3154 51.1453 41.3052C50.6803 41.3001 50.2357 41.3154 50.1489 41.3358Z" fill="white"/>
<path d="M32.0263 43.8298C31.735 43.9832 31.5561 44.1927 31.4693 44.5045C31.4386 44.6169 31.4182 45.7208 31.4182 47.3358C31.4182 50.3766 31.4284 50.4686 31.8117 51.2557C32.0059 51.6543 32.1183 51.8128 32.4607 52.1552C32.8032 52.4976 32.9616 52.61 33.3602 52.8042C34.1473 53.1875 34.2393 53.1978 37.2801 53.1978C38.8951 53.1978 39.999 53.1773 40.1115 53.1466C40.735 52.9729 41.062 52.2983 40.8678 51.5981C40.8014 51.3579 40.5612 51.0768 40.2903 50.9337C40.0859 50.8213 40.0399 50.8213 37.321 50.7957L34.5612 50.7702L34.3415 50.6424C34.2035 50.5657 34.0655 50.4278 33.9837 50.2847L33.8457 50.0547L33.8202 47.2949C33.7946 44.576 33.7946 44.53 33.6822 44.3256C33.3653 43.7276 32.6498 43.5181 32.0263 43.8298Z" fill="white"/>
<path d="M55.9296 43.7685C55.6894 43.8554 55.4645 44.0598 55.3214 44.3307C55.209 44.53 55.209 44.5913 55.1834 47.2949L55.1579 50.0547L55.0199 50.2847C54.9381 50.4278 54.8001 50.5657 54.6621 50.6424L54.4424 50.7702L51.6826 50.7957C48.9637 50.8213 48.9177 50.8213 48.7133 50.9337C47.7831 51.4346 47.8955 52.8707 48.8921 53.1466C49.0046 53.1773 50.1085 53.1978 51.7235 53.1978C53.9415 53.1978 54.4321 53.1824 54.7643 53.116C55.8529 52.8911 56.7166 52.2267 57.197 51.2455C57.5752 50.4686 57.5854 50.3715 57.5854 47.3358C57.5854 45.7208 57.565 44.6169 57.5343 44.5045C57.4474 44.1927 57.2686 43.9832 56.9773 43.8298C56.6604 43.6714 56.2669 43.6459 55.9296 43.7685Z" fill="white"/>
<path d="M47.7111 46.115C47.1797 46.2581 46.9037 46.6465 46.9037 47.2341C46.9037 47.7757 47.0724 48.0875 47.4914 48.3072C47.6907 48.4145 47.7622 48.4196 49.7295 48.4349C52.0954 48.4503 52.167 48.44 52.5144 48.067C53.0357 47.4998 52.8875 46.58 52.213 46.1968L51.9881 46.069L49.9697 46.0588C48.4469 46.0486 47.89 46.0639 47.7111 46.115Z" fill="white"/>
</g>
<defs>
<filter id="filter0_d_59_953" x="0.894993" y="0.00012517" width="87.2093" height="87.2094" filterUnits="userSpaceOnUse" color-interpolation-filters="sRGB">
<feFlood flood-opacity="0" result="BackgroundImageFix"/>
<feColorMatrix in="SourceAlpha" type="matrix" values="0 0 0 0 0 0 0 0 0 0 0 0 0 0 0 0 0 0 127 0" result="hardAlpha"/>
<feOffset dy="3.48837"/>
<feGaussianBlur stdDeviation="8.72093"/>
<feComposite in2="hardAlpha" operator="out"/>
<feColorMatrix type="matrix" values="0 0 0 0 0.101961 0 0 0 0 0.101961 0 0 0 0 0.101961 0 0 0 0.2 0"/>
<feBlend mode="normal" in2="BackgroundImageFix" result="effect1_dropShadow_59_953"/>
<feBlend mode="normal" in="SourceGraphic" in2="effect1_dropShadow_59_953" result="shape"/>
</filter>
</defs>
</svg>
