<svg width="288" height="289" viewBox="0 0 288 289" fill="none" xmlns="http://www.w3.org/2000/svg">
<path d="M253.849 152.752C255.001 137.447 251.441 121.469 246.672 107.248C239.616 86.074 225.838 64.3761 202.683 59.3649C189.331 56.4849 175.743 59.5722 164.293 66.8068C153.285 73.7649 144.709 82.7562 131.167 84.4957C117.475 86.2583 103.427 85.5498 89.666 85.5498C54.2823 85.5498 25.5687 122.719 32.7457 161.438C39.9227 200.157 73.7684 227.004 102.482 227.004C128.287 227.004 149.518 211.527 174.027 207.368C186.181 205.306 198.386 207.748 210.413 204.661C224.392 201.067 237.537 192.501 245.284 180.1C250.56 171.645 253.129 162.331 253.849 152.752Z" fill="#6BADD3"/>
<path opacity="0.7" d="M253.849 152.752C255.001 137.447 251.441 121.469 246.672 107.248C239.616 86.074 225.838 64.3761 202.683 59.3649C189.331 56.4849 175.743 59.5722 164.293 66.8068C153.285 73.7649 144.709 82.7562 131.167 84.4957C117.475 86.2583 103.427 85.5498 89.666 85.5498C54.2823 85.5498 25.5687 122.719 32.7457 161.438C39.9227 200.157 73.7684 227.004 102.482 227.004C128.287 227.004 149.518 211.527 174.027 207.368C186.181 205.306 198.386 207.748 210.413 204.661C224.392 201.067 237.537 192.501 245.284 180.1C250.56 171.645 253.129 162.331 253.849 152.752Z" fill="white"/>
<path d="M78.7622 146.404C77.086 143.173 76.3833 140.857 76.3833 140.322C76.3833 139.262 78.6873 138.628 78.6873 138.628C82.2815 136.727 99.1871 139.475 106.796 140.742C111.056 141.485 115.364 141.908 119.687 142.009C119.687 142.009 120.741 141.168 121.991 140.108C123.241 139.049 129.174 132.079 131.501 131.468C133.828 130.858 135.936 132.315 135.936 132.315C135.936 132.315 139.743 134.619 139.104 135.063C138.465 135.506 129.174 143.513 126.847 144.993C124.52 146.473 119.664 145.84 115.436 146.686C111.796 147.412 97.0502 148.311 93.6691 148.587C91.1298 149.189 88.4648 148.968 86.0601 147.954" fill="white"/>
<mask id="mask0_560_8717" style="mask-type:luminance" maskUnits="userSpaceOnUse" x="76" y="131" width="64" height="18">
<path d="M78.7622 146.404C77.086 143.173 76.3833 140.857 76.3833 140.322C76.3833 139.262 78.6873 138.628 78.6873 138.628C82.2815 136.727 99.1871 139.475 106.796 140.742C111.056 141.485 115.364 141.908 119.687 142.009C119.687 142.009 120.741 141.168 121.991 140.108C123.241 139.049 129.174 132.079 131.501 131.468C133.828 130.858 135.936 132.315 135.936 132.315C135.936 132.315 139.743 134.619 139.104 135.063C138.465 135.506 129.174 143.513 126.847 144.993C124.52 146.473 119.664 145.84 115.436 146.686C111.796 147.412 97.0502 148.311 93.6691 148.587C91.1298 149.189 88.4648 148.968 86.0601 147.954" fill="white"/>
</mask>
<g mask="url(#mask0_560_8717)">
<path d="M135.976 132.292C135.976 132.292 133.862 130.812 131.541 131.445C129.22 132.079 123.298 139.054 122.031 140.085C120.764 141.116 119.727 141.986 119.727 141.986C115.405 141.885 111.096 141.462 106.836 140.719C99.2274 139.452 82.3218 136.687 78.7276 138.605C78.7276 138.605 76.4236 139.239 76.4236 140.299C76.5036 140.891 76.6565 141.471 76.8786 142.027L77.1954 142.142C77.1954 142.142 81.4175 141.698 90.5298 141.917C99.6421 142.136 120.718 143.386 122.072 143.875C122.648 144.094 126.731 143.173 131.259 141.571C134.715 138.755 138.776 135.235 139.185 134.988C139.784 134.613 135.976 132.292 135.976 132.292Z" fill="#6BADD3"/>
<path opacity="0.5" d="M135.976 132.292C135.976 132.292 133.862 130.812 131.541 131.445C129.22 132.079 123.298 139.054 122.031 140.085C120.764 141.116 119.727 141.986 119.727 141.986C115.405 141.885 111.096 141.462 106.836 140.719C99.2274 139.452 82.3218 136.687 78.7276 138.605C78.7276 138.605 76.4236 139.239 76.4236 140.299C76.5036 140.891 76.6565 141.471 76.8786 142.027L77.1954 142.142C77.1954 142.142 81.4175 141.698 90.5298 141.917C99.6421 142.136 120.718 143.386 122.072 143.875C122.648 144.094 126.731 143.173 131.259 141.571C134.715 138.755 138.776 135.235 139.185 134.988C139.784 134.613 135.976 132.292 135.976 132.292Z" fill="white"/>
</g>
<path d="M78.7622 146.404C77.086 143.173 76.3833 140.857 76.3833 140.322C76.3833 139.262 78.6873 138.628 78.6873 138.628C82.2815 136.727 99.1871 139.475 106.796 140.742C111.056 141.485 115.364 141.908 119.687 142.009C119.687 142.009 120.741 141.168 121.991 140.108C123.241 139.049 129.174 132.079 131.501 131.468C133.828 130.858 135.936 132.315 135.936 132.315C135.936 132.315 139.743 134.619 139.104 135.063C138.465 135.506 129.174 143.513 126.847 144.993C124.52 146.473 119.664 145.84 115.436 146.686C111.796 147.412 97.0502 148.311 93.6691 148.587C91.1298 149.189 88.4648 148.968 86.0601 147.954" stroke="#263238" stroke-linecap="round" stroke-linejoin="round"/>
<path d="M162.23 165.193C162.613 164.468 163.186 163.86 163.889 163.437C164.591 163.014 165.396 162.79 166.216 162.791H204.636C204.636 162.791 207.412 162.791 206.582 168.068C205.753 173.344 194.36 205.559 191.606 215.3C188.853 225.04 188.271 245.568 188.271 245.568H142.191C142.191 245.568 145.843 196.476 162.23 165.193Z" fill="white"/>
<mask id="mask1_560_8717" style="mask-type:luminance" maskUnits="userSpaceOnUse" x="142" y="162" width="65" height="84">
<path d="M162.23 165.193C162.613 164.468 163.186 163.86 163.889 163.437C164.591 163.014 165.396 162.79 166.216 162.791H204.636C204.636 162.791 207.412 162.791 206.582 168.068C205.753 173.344 194.36 205.559 191.606 215.3C188.853 225.04 188.271 245.568 188.271 245.568H142.191C142.191 245.568 145.843 196.476 162.23 165.193Z" fill="white"/>
</mask>
<g mask="url(#mask1_560_8717)">
<path opacity="0.16" d="M179.534 162.791H166.216C165.396 162.79 164.591 163.014 163.889 163.437C163.186 163.86 162.613 164.468 162.23 165.193C145.843 196.476 142.151 245.551 142.151 245.551H162.818L167.916 226.192L189.17 230.575C189.32 228.951 189.493 227.298 189.694 225.668L189.228 220.484C189.228 220.484 184.873 215.904 183.502 214.758C182.131 213.612 183.041 211.544 182.811 202.61C182.581 193.677 174.563 187.254 171.579 181.753C168.595 176.252 173.186 172.814 177.31 167.313C178.779 165.326 179.378 163.863 179.534 162.791Z" fill="black"/>
</g>
<path d="M162.23 165.193C162.613 164.468 163.186 163.86 163.889 163.437C164.591 163.014 165.396 162.79 166.216 162.791H204.636C204.636 162.791 207.412 162.791 206.582 168.068C205.753 173.344 194.36 205.559 191.606 215.3C188.853 225.04 188.271 245.568 188.271 245.568H142.191C142.191 245.568 145.843 196.476 162.23 165.193Z" stroke="#263238" stroke-linecap="round" stroke-linejoin="round"/>
<path d="M197.971 171.955C194.089 181.016 185.875 216.883 184.539 245.551H188.248C188.248 245.551 188.824 224.999 191.583 215.282C194.342 205.565 205.747 173.344 206.559 168.05C207.371 162.757 204.612 162.774 204.612 162.774C204.612 162.774 201.087 164.692 197.971 171.955Z" fill="#263238" stroke="#263238" stroke-linecap="round" stroke-linejoin="round"/>
<path d="M130.481 153.846C130.481 153.846 124.353 150.252 122.031 143.916C119.71 137.58 140.204 127.431 149.103 126.797C158.002 126.163 160.514 128.485 165.807 137.574C171.101 146.663 174.683 159.128 171.936 165.257C169.188 171.385 164.54 172.866 167.904 177.929C171.268 182.992 180.795 197.369 180.161 204.131C179.528 210.893 172.979 216.803 163.457 217.448C153.936 218.093 141.264 212.373 130.7 203.048C120.136 193.723 122.878 180.008 126.668 175.573C130.458 171.138 136.178 169.444 136.598 165.009C137.019 160.574 130.481 153.846 130.481 153.846Z" fill="#263238" stroke="#263238" stroke-linecap="round" stroke-linejoin="round"/>
<path d="M156.603 143.818C159.857 149.877 163.929 157.993 165.202 162.895C167.426 171.477 155.986 176.88 159.16 181.01" stroke="white" stroke-linecap="round" stroke-linejoin="round"/>
<path d="M152.168 135.881C152.168 135.881 153.435 138.041 155.186 141.22" stroke="white" stroke-linecap="round" stroke-linejoin="round"/>
<path d="M169.24 151.127C169.616 152.263 169.859 153.438 169.966 154.629" stroke="white" stroke-linecap="round" stroke-linejoin="round"/>
<path d="M154.368 132.73C154.368 132.73 164.379 140.126 168.376 148.979" stroke="white" stroke-linecap="round" stroke-linejoin="round"/>
<path d="M140.475 138.277C133.327 140.281 123.045 143.536 123.88 145.413" stroke="white" stroke-linecap="round" stroke-linejoin="round"/>
<path d="M147.082 136.514C147.082 136.514 145.555 136.894 143.28 137.505" stroke="white" stroke-linecap="round" stroke-linejoin="round"/>
<path d="M138.24 132.782C142.335 131.491 146.623 130.926 150.912 131.111" stroke="white" stroke-linecap="round" stroke-linejoin="round"/>
<path d="M135.325 133.974C135.973 133.637 136.643 133.344 137.33 133.099" stroke="white" stroke-linecap="round" stroke-linejoin="round"/>
<path d="M78.7622 146.404C77.7921 144.628 77.0195 142.75 76.4582 140.805C77.0168 142.751 77.7895 144.629 78.7622 146.404ZM76.3948 140.477C76.3948 140.512 76.3948 140.552 76.3948 140.604C76.4064 140.552 76.4006 140.512 76.3948 140.477ZM78.7622 146.398C80.9164 150.479 83.5966 154.259 86.734 157.642C94.343 165.884 116.323 187.444 118.414 188.924C120.505 190.405 119.894 194.627 118.414 198.855C116.934 203.082 111.439 209.223 111.652 215.973C111.865 222.724 113.956 233.092 113.766 235.206C113.576 237.32 108.288 244.508 108.288 244.508H162.812C162.812 244.508 156.015 235.868 156.015 232.914C156.015 229.959 165.347 192.098 165.767 189.351C166.187 186.603 164.5 184.702 161.119 184.489C157.738 184.276 144.847 181.529 144.213 179.415C143.579 177.301 147.594 169.271 147.594 169.271L134.922 169.905C134.922 169.905 134.289 175.4 133.442 176.46C132.595 177.52 131.328 175.4 128.367 173.925C125.407 172.451 119.727 171.178 117.59 169.484C115.453 167.791 95.1897 148.748 95.1897 148.748" fill="white"/>
<mask id="mask2_560_8717" style="mask-type:luminance" maskUnits="userSpaceOnUse" x="76" y="140" width="90" height="105">
<path d="M78.7622 146.404C77.7921 144.628 77.0195 142.75 76.4582 140.805C77.0168 142.751 77.7895 144.629 78.7622 146.404ZM76.3948 140.477C76.3948 140.512 76.3948 140.552 76.3948 140.604C76.4064 140.552 76.4006 140.512 76.3948 140.477ZM78.7622 146.398C80.9164 150.479 83.5966 154.259 86.734 157.642C94.343 165.884 116.323 187.444 118.414 188.924C120.505 190.405 119.894 194.627 118.414 198.855C116.934 203.082 111.439 209.223 111.652 215.973C111.865 222.724 113.956 233.092 113.766 235.206C113.576 237.32 108.288 244.508 108.288 244.508H162.812C162.812 244.508 156.015 235.868 156.015 232.914C156.015 229.959 165.347 192.098 165.767 189.351C166.187 186.603 164.5 184.702 161.119 184.489C157.738 184.276 144.847 181.529 144.213 179.415C143.579 177.301 147.594 169.271 147.594 169.271L134.922 169.905C134.922 169.905 134.289 175.4 133.442 176.46C132.595 177.52 131.328 175.4 128.367 173.925C125.407 172.451 119.727 171.178 117.59 169.484C115.453 167.791 95.1897 148.748 95.1897 148.748" fill="white"/>
</mask>
<g mask="url(#mask2_560_8717)">
<path d="M120.827 171.115C121.881 172.958 122.936 174.622 122.936 174.622C122.936 174.622 126.489 176.621 127.377 176.621C128.264 176.621 133.597 179.501 133.597 179.501C133.597 179.501 138.044 178.389 136.477 174.611C135.983 173.643 135.359 172.748 134.623 171.95C134.358 173.626 133.931 175.82 133.43 176.448C132.584 177.502 131.316 175.388 128.356 173.914C126.438 172.958 123.333 172.082 120.827 171.115Z" fill="#6BADD3"/>
<path d="M109.976 162.561C103.449 156.519 95.1897 148.771 95.1897 148.771L90.3858 148.08L89.8098 148.403C89.8098 148.403 103.369 160.401 106.255 161.737C107.422 162.274 108.691 162.555 109.976 162.561Z" fill="#6BADD3"/>
<path d="M116.813 168.816L116.294 168.355C116.559 168.793 116.709 169.07 116.709 169.07L116.813 168.816Z" fill="#6BADD3"/>
<g opacity="0.5">
<path d="M120.827 171.115C121.881 172.958 122.936 174.622 122.936 174.622C122.936 174.622 126.489 176.621 127.377 176.621C128.264 176.621 133.597 179.501 133.597 179.501C133.597 179.501 138.044 178.389 136.477 174.611C135.983 173.643 135.359 172.748 134.623 171.95C134.358 173.626 133.931 175.82 133.43 176.448C132.584 177.502 131.316 175.388 128.356 173.914C126.438 172.958 123.333 172.082 120.827 171.115Z" fill="white"/>
<path d="M109.976 162.561C103.449 156.519 95.1897 148.771 95.1897 148.771L90.3858 148.08L89.8098 148.403C89.8098 148.403 103.369 160.401 106.255 161.737C107.422 162.274 108.691 162.555 109.976 162.561Z" fill="white"/>
<path d="M116.813 168.816L116.294 168.355C116.559 168.793 116.709 169.07 116.709 169.07L116.813 168.816Z" fill="white"/>
</g>
</g>
<path d="M76.3833 140.322C76.3807 140.362 76.3807 140.402 76.3833 140.442M76.4582 140.805C77.0195 142.75 77.7921 144.628 78.7622 146.404C77.7895 144.629 77.0168 142.751 76.4582 140.805ZM76.4582 140.805C76.4423 140.751 76.4307 140.695 76.4236 140.638M78.7622 146.398C80.9164 150.479 83.5966 154.259 86.734 157.642C94.343 165.884 116.323 187.444 118.414 188.924C120.505 190.405 119.894 194.627 118.414 198.855C116.934 203.082 111.439 209.223 111.652 215.973C111.865 222.724 113.956 233.092 113.766 235.206C113.576 237.32 108.288 244.508 108.288 244.508H162.812C162.812 244.508 156.015 235.868 156.015 232.914C156.015 229.959 165.347 192.098 165.767 189.351C166.187 186.603 164.5 184.702 161.119 184.489C157.738 184.276 144.847 181.529 144.213 179.415C143.579 177.301 147.594 169.271 147.594 169.271L134.922 169.905C134.922 169.905 134.289 175.4 133.442 176.46C132.595 177.52 131.328 175.4 128.367 173.925C125.407 172.451 119.727 171.178 117.59 169.484C115.453 167.791 95.1897 148.748 95.1897 148.748M76.3948 140.477C76.3948 140.512 76.3948 140.552 76.3948 140.604C76.4064 140.552 76.4006 140.512 76.3948 140.477Z" stroke="#263238" stroke-linecap="round" stroke-linejoin="round"/>
<path d="M95.1896 148.772C95.1896 148.772 88.4389 148.898 84.6719 145.794" stroke="#263238" stroke-linecap="round" stroke-linejoin="round"/>
<path d="M144.219 179.415C143.585 177.307 147.6 169.271 147.6 169.271L134.928 169.905C134.928 169.905 134.294 175.4 133.448 176.46C132.601 177.52 131.334 175.4 128.373 173.925C128.149 173.81 127.901 173.701 127.647 173.591L126.881 185.636C126.881 185.636 127.993 197.3 141.322 195.082C146.719 194.183 152.479 189.368 157.45 183.954C152.335 183.015 144.703 181.033 144.219 179.415Z" fill="white"/>
<mask id="mask3_560_8717" style="mask-type:luminance" maskUnits="userSpaceOnUse" x="126" y="169" width="32" height="27">
<path d="M144.219 179.415C143.585 177.307 147.6 169.271 147.6 169.271L134.928 169.905C134.928 169.905 134.294 175.4 133.448 176.46C132.601 177.52 131.334 175.4 128.373 173.925C128.149 173.81 127.901 173.701 127.647 173.591L126.881 185.636C126.881 185.636 127.993 197.3 141.322 195.082C146.719 194.183 152.479 189.368 157.45 183.954C152.335 183.015 144.703 181.033 144.219 179.415Z" fill="white"/>
</mask>
<g mask="url(#mask3_560_8717)">
<path d="M143.862 170.867C143.862 170.867 143.096 175.164 142.479 179.916C141.863 184.668 141.408 188.205 141.408 188.205L144.219 179.415L147.387 170.101C147.387 170.101 144.323 170.101 143.862 170.867Z" fill="#6BADD3"/>
<path opacity="0.5" d="M143.862 170.867C143.862 170.867 143.096 175.164 142.479 179.916C141.863 184.668 141.408 188.205 141.408 188.205L144.219 179.415L147.387 170.101C147.387 170.101 144.323 170.101 143.862 170.867Z" fill="white"/>
</g>
<path d="M144.219 179.415C143.585 177.307 147.6 169.271 147.6 169.271L134.928 169.905C134.928 169.905 134.294 175.4 133.448 176.46C132.601 177.52 131.334 175.4 128.373 173.925C128.149 173.81 127.901 173.701 127.647 173.591L126.881 185.636C126.881 185.636 127.993 197.3 141.322 195.082C146.719 194.183 152.479 189.368 157.45 183.954C152.335 183.015 144.703 181.033 144.219 179.415Z" stroke="#263238" stroke-linecap="round" stroke-linejoin="round"/>
<path d="M133.442 176.46C132.595 177.514 131.328 175.4 128.367 173.925C126.501 172.987 123.529 172.134 121.069 171.212C120.372 169.559 119.451 167.405 118.857 166.103C117.803 163.799 116.11 165.257 116.11 165.257C115.226 164.252 114.512 163.11 113.996 161.876C112.942 159.572 111.248 159.762 108.927 159.341C106.606 158.921 101.739 154.48 101.739 154.48C101.739 154.48 99.4635 152.752 98.5246 151.893C97.4302 154.048 94.8094 157.838 89.1416 160.205C98.179 169.646 116.513 187.582 118.437 188.93C120.551 190.405 119.917 194.633 118.437 198.86C116.957 203.088 111.462 209.228 111.675 215.979C111.888 222.73 113.979 233.098 113.789 235.212C113.599 237.095 109.382 242.999 108.466 244.267L110.615 244.508H121.801C121.737 238.841 121.743 215.708 125.62 206.492C130.061 195.9 133.442 176.46 133.442 176.46Z" fill="#6BADD3"/>
<mask id="mask4_560_8717" style="mask-type:luminance" maskUnits="userSpaceOnUse" x="89" y="151" width="45" height="94">
<path d="M133.442 176.46C132.595 177.514 131.328 175.4 128.367 173.925C126.501 172.987 123.529 172.134 121.069 171.212C120.372 169.559 119.451 167.405 118.857 166.103C117.803 163.799 116.11 165.257 116.11 165.257C115.226 164.252 114.512 163.11 113.996 161.876C112.942 159.572 111.248 159.762 108.927 159.341C106.606 158.921 101.739 154.48 101.739 154.48C101.739 154.48 99.4635 152.752 98.5246 151.893C97.4302 154.048 94.8094 157.838 89.1416 160.205C98.179 169.646 116.513 187.582 118.437 188.93C120.551 190.405 119.917 194.633 118.437 198.86C116.957 203.088 111.462 209.228 111.675 215.979C111.888 222.73 113.979 233.098 113.789 235.212C113.599 237.095 109.382 242.999 108.466 244.267L110.615 244.508H121.801C121.737 238.841 121.743 215.708 125.62 206.492C130.061 195.9 133.442 176.46 133.442 176.46Z" fill="white"/>
</mask>
<g mask="url(#mask4_560_8717)">
<path opacity="0.16" d="M128.367 173.925C126.501 172.987 123.529 172.134 121.069 171.212C120.372 169.559 119.451 167.405 118.858 166.103C117.803 163.799 116.11 165.257 116.11 165.257C115.227 164.252 114.513 163.11 113.996 161.876C112.942 159.572 111.249 159.762 108.927 159.341C106.606 158.921 101.739 154.48 101.739 154.48C101.739 154.48 99.4636 152.752 98.5247 151.893C98.0563 152.808 97.4987 153.674 96.8601 154.48C100.639 157.676 104.809 161.063 106.266 161.737C109.146 163.068 109.82 161.956 112.026 163.292C114.232 164.629 116.692 169.052 116.692 169.052C116.692 169.052 118.028 165.493 119.14 167.941C120.251 170.389 122.918 174.605 122.918 174.605C122.918 174.605 126.472 176.604 127.359 176.604C128.056 176.604 131.472 178.378 132.923 179.144C133.246 177.456 133.425 176.443 133.425 176.443C132.595 177.514 131.328 175.4 128.367 173.925Z" fill="black"/>
</g>
<path d="M133.442 176.46C132.595 177.514 131.328 175.4 128.367 173.925C126.501 172.987 123.529 172.134 121.069 171.212C120.372 169.559 119.451 167.405 118.857 166.103C117.803 163.799 116.11 165.257 116.11 165.257C115.226 164.252 114.512 163.11 113.996 161.876C112.942 159.572 111.248 159.762 108.927 159.341C106.606 158.921 101.739 154.48 101.739 154.48C101.739 154.48 99.4635 152.752 98.5246 151.893C97.4302 154.048 94.8094 157.838 89.1416 160.205C98.179 169.646 116.513 187.582 118.437 188.93C120.551 190.405 119.917 194.633 118.437 198.86C116.957 203.088 111.462 209.228 111.675 215.979C111.888 222.73 113.979 233.098 113.789 235.212C113.599 237.095 109.382 242.999 108.466 244.267L110.615 244.508H121.801C121.737 238.841 121.743 215.708 125.62 206.492C130.061 195.9 133.442 176.46 133.442 176.46Z" stroke="#263238" stroke-linecap="round" stroke-linejoin="round"/>
<path d="M133.592 175.723C133.592 175.723 130.965 174.916 129.346 176.333C127.728 177.75 125.314 185.019 123.892 192.905C123.015 197.495 123.62 202.245 125.62 206.469C125.62 206.469 128.943 197.755 129.951 193.509C130.959 189.264 133.592 175.723 133.592 175.723Z" fill="#6BADD3"/>
<mask id="mask5_560_8717" style="mask-type:luminance" maskUnits="userSpaceOnUse" x="123" y="175" width="11" height="32">
<path d="M133.592 175.723C133.592 175.723 130.965 174.916 129.346 176.333C127.728 177.75 125.314 185.019 123.892 192.905C123.015 197.495 123.62 202.245 125.62 206.469C125.62 206.469 128.943 197.755 129.951 193.509C130.959 189.264 133.592 175.723 133.592 175.723Z" fill="white"/>
</mask>
<g mask="url(#mask5_560_8717)">
<path opacity="0.16" d="M128.552 177.007C128.552 177.007 130.452 176.546 131.236 176.811C131.895 177.094 132.512 177.468 133.067 177.923L133.592 175.723C132.805 175.321 131.913 175.174 131.04 175.302C129.732 175.567 128.552 177.007 128.552 177.007Z" fill="black"/>
</g>
<path d="M133.592 175.723C133.592 175.723 130.965 174.916 129.346 176.333C127.728 177.75 125.314 185.019 123.892 192.905C123.015 197.495 123.62 202.245 125.62 206.469C125.62 206.469 128.943 197.755 129.951 193.509C130.959 189.264 133.592 175.723 133.592 175.723Z" stroke="#263238" stroke-linecap="round" stroke-linejoin="round"/>
<path d="M115.903 176.414L119.284 190.151L111.675 172.819" stroke="#263238" stroke-linecap="round" stroke-linejoin="round"/>
<path d="M138.177 244.508H162.818C162.818 244.508 156.021 235.868 156.021 232.914C156.021 229.959 165.352 192.098 165.773 189.351C166.193 186.603 164.506 184.702 161.125 184.489C157.743 184.276 144.853 181.529 144.219 179.415C144.219 179.415 139.357 196.533 137.67 208.157C136.218 218.128 137.722 238.818 138.177 244.508Z" fill="#6BADD3"/>
<mask id="mask6_560_8717" style="mask-type:luminance" maskUnits="userSpaceOnUse" x="137" y="179" width="29" height="66">
<path d="M138.177 244.508H162.818C162.818 244.508 156.021 235.868 156.021 232.914C156.021 229.959 165.352 192.098 165.773 189.351C166.193 186.603 164.506 184.702 161.125 184.489C157.743 184.276 144.853 181.529 144.219 179.415C144.219 179.415 139.357 196.533 137.67 208.157C136.218 218.128 137.722 238.818 138.177 244.508Z" fill="white"/>
</mask>
<g mask="url(#mask6_560_8717)">
<path opacity="0.16" d="M161.124 184.489C158.354 184.316 149.201 182.439 145.636 180.607L146.932 183.602C149.28 184.848 151.805 185.726 154.42 186.206C158.711 186.972 162.703 186.822 165.312 190.658L165.439 190.848C165.6 190.111 165.709 189.593 165.744 189.351C166.199 186.603 164.506 184.702 161.124 184.489Z" fill="black"/>
</g>
<path d="M138.177 244.508H162.818C162.818 244.508 156.021 235.868 156.021 232.914C156.021 229.959 165.352 192.098 165.773 189.351C166.193 186.603 164.506 184.702 161.125 184.489C157.743 184.276 144.853 181.529 144.219 179.415C144.219 179.415 139.357 196.533 137.67 208.157C136.218 218.128 137.722 238.818 138.177 244.508Z" stroke="#263238" stroke-linecap="round" stroke-linejoin="round"/>
<path d="M144.219 179.415C144.219 179.415 137.698 200.151 137.67 208.157C137.67 208.157 146.932 196.942 148.141 189.063C149.351 181.183 144.219 179.415 144.219 179.415Z" fill="#6BADD3"/>
<mask id="mask7_560_8717" style="mask-type:luminance" maskUnits="userSpaceOnUse" x="137" y="179" width="12" height="30">
<path d="M144.219 179.415C144.219 179.415 137.698 200.151 137.67 208.157C137.67 208.157 146.932 196.942 148.141 189.063C149.351 181.183 144.219 179.415 144.219 179.415Z" fill="white"/>
</mask>
<g mask="url(#mask7_560_8717)">
<path opacity="0.16" d="M143.096 182.064C144.075 182.031 145.048 182.238 145.931 182.665C146.813 183.093 147.577 183.729 148.159 184.518C148.159 184.518 146.88 180.757 144.219 179.415L143.096 182.064Z" fill="black"/>
</g>
<path d="M144.219 179.415C144.219 179.415 137.698 200.151 137.67 208.157C137.67 208.157 146.932 196.942 148.141 189.063C149.351 181.183 144.219 179.415 144.219 179.415Z" stroke="#263238" stroke-linecap="round" stroke-linejoin="round"/>
<path d="M213.828 240.609C213.828 240.609 218.603 240.805 221.731 241.254C223.817 241.537 225.917 241.704 228.021 241.755C228.021 241.755 226.293 238.265 224.45 237.28C222.607 236.295 219.266 234.532 216.466 234.924C213.667 235.315 209.664 238.138 209.998 239.036C210.332 239.935 211.824 240.338 213.828 240.609Z" fill="white"/>
<mask id="mask8_560_8717" style="mask-type:luminance" maskUnits="userSpaceOnUse" x="209" y="234" width="20" height="8">
<path d="M213.828 240.609C213.828 240.609 218.603 240.805 221.731 241.254C223.817 241.537 225.917 241.704 228.021 241.755C228.021 241.755 226.293 238.265 224.45 237.28C222.607 236.295 219.266 234.532 216.466 234.924C213.667 235.315 209.664 238.138 209.998 239.036C210.332 239.935 211.824 240.338 213.828 240.609Z" fill="white"/>
</mask>
<g mask="url(#mask8_560_8717)">
<path d="M213.828 240.609C213.828 240.609 218.603 240.805 221.731 241.254C223.817 241.537 225.917 241.704 228.021 241.755C228.021 241.755 226.293 238.265 224.45 237.28C222.607 236.295 219.266 234.532 216.466 234.924C213.667 235.315 209.664 238.138 209.998 239.036C210.332 239.935 211.824 240.338 213.828 240.609Z" fill="#6BADD3"/>
<path opacity="0.5" d="M213.828 240.609C213.828 240.609 218.603 240.805 221.731 241.254C223.817 241.537 225.917 241.704 228.021 241.755C228.021 241.755 226.293 238.265 224.45 237.28C222.607 236.295 219.266 234.532 216.466 234.924C213.667 235.315 209.664 238.138 209.998 239.036C210.332 239.935 211.824 240.338 213.828 240.609Z" fill="white"/>
</g>
<path d="M213.828 240.609C213.828 240.609 218.603 240.805 221.731 241.254C223.817 241.537 225.917 241.704 228.021 241.755C228.021 241.755 226.293 238.265 224.45 237.28C222.607 236.295 219.266 234.532 216.466 234.924C213.667 235.315 209.664 238.138 209.998 239.036C210.332 239.935 211.824 240.338 213.828 240.609Z" stroke="#263238" stroke-linecap="round" stroke-linejoin="round"/>
<path d="M221.76 239.18C221.76 239.18 225.544 237.216 226.489 237.245C227.434 237.274 233.712 241.519 233.401 242.199C233.19 242.514 232.885 242.755 232.529 242.887C232.174 243.019 231.785 243.036 231.42 242.936C230.723 242.608 226.495 240.811 226.495 240.811L223.73 241.461L221.76 239.18Z" fill="white"/>
<mask id="mask9_560_8717" style="mask-type:luminance" maskUnits="userSpaceOnUse" x="221" y="237" width="13" height="7">
<path d="M221.76 239.18C221.76 239.18 225.544 237.216 226.489 237.245C227.434 237.274 233.712 241.519 233.401 242.199C233.19 242.514 232.885 242.755 232.529 242.887C232.174 243.019 231.785 243.036 231.42 242.936C230.723 242.608 226.495 240.811 226.495 240.811L223.73 241.461L221.76 239.18Z" fill="white"/>
</mask>
<g mask="url(#mask9_560_8717)">
<path d="M221.76 239.18C221.76 239.18 225.544 237.216 226.489 237.245C227.434 237.274 233.712 241.519 233.401 242.199C233.09 242.878 231.604 243.431 231.42 242.936C231.235 242.441 226.495 240.811 226.495 240.811L223.73 241.461L221.76 239.18Z" fill="#6BADD3"/>
<path opacity="0.5" d="M221.76 239.18C221.76 239.18 225.544 237.216 226.489 237.245C227.434 237.274 233.712 241.519 233.401 242.199C233.09 242.878 231.604 243.431 231.42 242.936C231.235 242.441 226.495 240.811 226.495 240.811L223.73 241.461L221.76 239.18Z" fill="white"/>
</g>
<path d="M221.76 239.18C221.76 239.18 225.544 237.216 226.489 237.245C227.434 237.274 233.712 241.519 233.401 242.199C233.19 242.514 232.885 242.755 232.529 242.887C232.174 243.019 231.785 243.036 231.42 242.936C230.723 242.608 226.495 240.811 226.495 240.811L223.73 241.461L221.76 239.18Z" stroke="#263238" stroke-linecap="round" stroke-linejoin="round"/>
<path d="M219.059 235.949C219.059 235.949 224.104 235.788 225.107 236.295C226.109 236.802 230.636 244.566 229.957 245.131C229.277 245.695 227.399 245.528 227.457 244.9C227.514 244.272 223.286 240.114 223.286 240.114L219.997 239.394L219.059 235.949Z" fill="white"/>
<mask id="mask10_560_8717" style="mask-type:luminance" maskUnits="userSpaceOnUse" x="219" y="235" width="12" height="11">
<path d="M219.059 235.949C219.059 235.949 224.104 235.788 225.107 236.295C226.109 236.802 230.636 244.566 229.957 245.131C229.277 245.695 227.399 245.528 227.457 244.9C227.514 244.272 223.286 240.114 223.286 240.114L219.997 239.394L219.059 235.949Z" fill="white"/>
</mask>
<g mask="url(#mask10_560_8717)">
<path d="M219.059 235.949C219.059 235.949 224.104 235.788 225.107 236.295C226.109 236.802 230.636 244.566 229.957 245.131C229.277 245.695 227.399 245.528 227.457 244.9C227.514 244.272 223.286 240.114 223.286 240.114L219.997 239.394L219.059 235.949Z" fill="#6BADD3"/>
<path opacity="0.5" d="M219.059 235.949C219.059 235.949 224.104 235.788 225.107 236.295C226.109 236.802 230.636 244.566 229.957 245.131C229.277 245.695 227.399 245.528 227.457 244.9C227.514 244.272 223.286 240.114 223.286 240.114L219.997 239.394L219.059 235.949Z" fill="white"/>
</g>
<path d="M219.059 235.949C219.059 235.949 224.104 235.788 225.107 236.295C226.109 236.802 230.636 244.566 229.957 245.131C229.277 245.695 227.399 245.528 227.457 244.9C227.514 244.272 223.286 240.114 223.286 240.114L219.997 239.394L219.059 235.949Z" stroke="#263238" stroke-linecap="round" stroke-linejoin="round"/>
<path d="M216.069 234.907C216.069 234.907 221.178 234.739 222.192 235.258C223.206 235.776 227.791 243.627 227.099 244.203C226.408 244.779 224.519 244.601 224.577 243.967C224.634 243.333 220.355 239.123 220.355 239.123L217.025 238.391L216.069 234.907Z" fill="white"/>
<mask id="mask11_560_8717" style="mask-type:luminance" maskUnits="userSpaceOnUse" x="216" y="234" width="12" height="11">
<path d="M216.069 234.907C216.069 234.907 221.178 234.739 222.192 235.258C223.206 235.776 227.791 243.627 227.099 244.203C226.408 244.779 224.519 244.601 224.577 243.967C224.634 243.333 220.355 239.123 220.355 239.123L217.025 238.391L216.069 234.907Z" fill="white"/>
</mask>
<g mask="url(#mask11_560_8717)">
<path d="M216.069 234.907C216.069 234.907 221.178 234.739 222.192 235.258C223.206 235.776 227.791 243.627 227.099 244.203C226.408 244.779 224.519 244.601 224.577 243.967C224.634 243.333 220.355 239.123 220.355 239.123L217.025 238.391L216.069 234.907Z" fill="#6BADD3"/>
<path opacity="0.5" d="M216.069 234.907C216.069 234.907 221.178 234.739 222.192 235.258C223.206 235.776 227.791 243.627 227.099 244.203C226.408 244.779 224.519 244.601 224.577 243.967C224.634 243.333 220.355 239.123 220.355 239.123L217.025 238.391L216.069 234.907Z" fill="white"/>
</g>
<path d="M216.069 234.907C216.069 234.907 221.178 234.739 222.192 235.258C223.206 235.776 227.791 243.627 227.099 244.203C226.408 244.779 224.519 244.601 224.577 243.967C224.634 243.333 220.355 239.123 220.355 239.123L217.025 238.391L216.069 234.907Z" stroke="#263238" stroke-linecap="round" stroke-linejoin="round"/>
<path d="M157.98 205.634C161.677 211.331 169.102 225.765 171.268 227.39C174.649 229.924 197.251 236.076 199.428 237.758C201.606 239.44 201.456 241.127 203.518 241.744C205.58 242.36 213.31 244.128 216.259 244.405C219.208 244.681 217.889 242.855 217.889 242.855L212.861 239.399L217.244 238.316C217.244 238.316 221.639 243.604 222.463 243.892C223.286 244.18 224.738 243.892 224.646 243.241C224.484 242.199 219.796 233.668 218.131 233.305C216.467 232.942 206.364 234.342 206.364 234.342C206.364 234.342 185.172 220.051 184.792 219.545C184.792 219.545 183.525 215.95 182.488 214.47C181.452 212.99 180.795 213.416 180.795 213.416C180.795 213.416 181.221 211.509 180.588 210.876L177.206 207.495L177.085 207.656C176.509 206.504 175.933 205.191 175.3 203.693C173.532 199.529 167.27 187.842 166.216 186.154C165.427 184.892 158.815 183.988 155.462 183.608" fill="#6BADD3"/>
<mask id="mask12_560_8717" style="mask-type:luminance" maskUnits="userSpaceOnUse" x="155" y="183" width="70" height="62">
<path d="M157.98 205.634C161.677 211.331 169.102 225.765 171.268 227.39C174.649 229.924 197.251 236.076 199.428 237.758C201.606 239.44 201.456 241.127 203.518 241.744C205.58 242.36 213.31 244.128 216.259 244.405C219.208 244.681 217.889 242.855 217.889 242.855L212.861 239.399L217.244 238.316C217.244 238.316 221.639 243.604 222.463 243.892C223.286 244.18 224.738 243.892 224.646 243.241C224.484 242.199 219.796 233.668 218.131 233.305C216.467 232.942 206.364 234.342 206.364 234.342C206.364 234.342 185.172 220.051 184.792 219.545C184.792 219.545 183.525 215.95 182.488 214.47C181.452 212.99 180.795 213.416 180.795 213.416C180.795 213.416 181.221 211.509 180.588 210.876L177.206 207.495L177.085 207.656C176.509 206.504 175.933 205.191 175.3 203.693C173.532 199.529 167.27 187.842 166.216 186.154C165.427 184.892 158.815 183.988 155.462 183.608" fill="white"/>
</mask>
<g mask="url(#mask12_560_8717)">
<path opacity="0.16" d="M172.702 205.997C175.467 208.451 174.545 208.451 173.929 210.605C173.313 212.759 174.39 209.839 176.999 209.994C179.608 210.15 178.842 213.52 178.531 214.136C178.22 214.752 181.757 215.518 181.14 216.895C180.524 218.272 176.999 220.27 175.006 222.269C173.013 224.268 180.219 219.043 182.673 218.894C183.421 218.842 184.038 218.94 184.556 218.928C184.012 217.387 183.314 215.905 182.471 214.505C181.411 213.024 180.778 213.45 180.778 213.45C180.778 213.45 181.204 211.544 180.57 210.91L177.189 207.529L177.068 207.69C176.492 206.538 175.916 205.225 175.283 203.728C173.514 199.563 167.253 187.876 166.199 186.188C165.41 184.927 158.797 184.023 155.445 183.642L155.75 186.309L155.825 186.367C155.825 186.367 159.967 187.133 161.349 187.289C162.731 187.444 164.419 188.665 164.264 189.593C164.108 190.52 160.122 194.656 161.349 194.967C162.576 195.278 163.958 191.897 165.341 192.357C166.723 192.818 169.92 203.543 172.702 205.997Z" fill="black"/>
</g>
<path d="M157.98 205.634C161.677 211.331 169.102 225.765 171.268 227.39C174.649 229.924 197.251 236.076 199.428 237.758C201.606 239.44 201.456 241.127 203.518 241.744C205.58 242.36 213.31 244.128 216.259 244.405C219.208 244.681 217.889 242.855 217.889 242.855L212.861 239.399L217.244 238.316C217.244 238.316 221.639 243.604 222.463 243.892C223.286 244.18 224.738 243.892 224.646 243.241C224.484 242.199 219.796 233.668 218.131 233.305C216.467 232.942 206.364 234.342 206.364 234.342C206.364 234.342 185.172 220.051 184.792 219.545C184.792 219.545 183.525 215.95 182.488 214.47C181.452 212.99 180.795 213.416 180.795 213.416C180.795 213.416 181.221 211.509 180.588 210.876L177.206 207.495L177.085 207.656C176.509 206.504 175.933 205.191 175.3 203.693C173.532 199.529 167.27 187.842 166.216 186.154C165.427 184.892 158.815 183.988 155.462 183.608" stroke="#263238" stroke-linecap="round" stroke-linejoin="round"/>
<path d="M158.037 197.818C157.882 198.336 157.749 198.855 157.646 199.385" stroke="#263238" stroke-linecap="round" stroke-linejoin="round"/>
<path d="M163.636 188.285C161.826 190.348 160.299 192.644 159.097 195.111" stroke="#263238" stroke-linecap="round" stroke-linejoin="round"/>
<path d="M172.097 220.99C173.652 218.686 176.129 215.766 178.859 214.931" stroke="#263238" stroke-linecap="round" stroke-linejoin="round"/>
<path d="M170.375 223.824C170.375 223.824 170.651 223.283 171.147 222.465" stroke="#263238" stroke-linecap="round" stroke-linejoin="round"/>
<path d="M170.375 220.184C170.375 220.184 173.203 213.111 176.031 211.291C178.859 209.47 177.241 213.111 177.241 213.111" stroke="#263238" stroke-linecap="round" stroke-linejoin="round"/>
<path d="M199.428 237.763C201.611 239.451 201.456 241.133 203.518 241.749C205.58 242.366 213.31 244.134 216.259 244.41C219.208 244.687 217.889 242.861 217.889 242.861L212.861 239.405L217.244 238.322C217.244 238.322 221.639 243.61 222.463 243.898C223.286 244.186 224.853 244.29 224.646 243.247C224.243 241.231 219.796 233.674 218.131 233.311C216.467 232.948 206.363 234.348 206.363 234.348C206.363 234.348 187.062 221.1 184.948 219.666C176.751 220.455 172.852 224.746 171.21 227.321L171.268 227.367C174.649 229.924 197.251 236.076 199.428 237.763Z" fill="white"/>
<mask id="mask13_560_8717" style="mask-type:luminance" maskUnits="userSpaceOnUse" x="171" y="219" width="54" height="26">
<path d="M199.428 237.763C201.611 239.451 201.456 241.133 203.518 241.749C205.58 242.366 213.31 244.134 216.259 244.41C219.208 244.687 217.889 242.861 217.889 242.861L212.861 239.405L217.244 238.322C217.244 238.322 221.639 243.61 222.463 243.898C223.286 244.186 224.853 244.29 224.646 243.247C224.243 241.231 219.796 233.674 218.131 233.311C216.467 232.948 206.363 234.348 206.363 234.348C206.363 234.348 187.062 221.1 184.948 219.666C176.751 220.455 172.852 224.746 171.21 227.321L171.268 227.367C174.649 229.924 197.251 236.076 199.428 237.763Z" fill="white"/>
</mask>
<g mask="url(#mask13_560_8717)">
<path d="M224.64 243.27C223.592 240.707 219.79 233.697 218.125 233.334C216.461 232.971 206.358 234.371 206.358 234.371C206.358 234.371 187.056 221.123 184.942 219.689C182.791 219.876 180.68 220.386 178.681 221.203C181.728 222.931 202.038 234.451 204.601 234.964C207.32 235.54 216.392 234.048 217.987 235.12C219.001 235.799 222.019 240.586 224.058 243.984C224.64 243.898 224.853 243.788 224.64 243.27Z" fill="#6BADD3"/>
<path opacity="0.5" d="M224.64 243.27C223.004 239.601 219.79 233.697 218.125 233.334C216.461 232.971 206.358 234.371 206.358 234.371C206.358 234.371 187.056 221.123 184.942 219.689C182.791 219.876 180.68 220.386 178.681 221.203C181.728 222.931 202.038 234.451 204.601 234.964C207.32 235.54 216.392 234.048 217.987 235.12C219.001 235.799 222.019 240.586 224.058 243.984C224.64 243.898 224.87 243.783 224.64 243.27Z" fill="white"/>
</g>
<path d="M199.428 237.763C201.611 239.451 201.456 241.133 203.518 241.749C205.58 242.366 213.31 244.134 216.259 244.41C219.208 244.687 217.889 242.861 217.889 242.861L212.861 239.405L217.244 238.322C217.244 238.322 221.639 243.61 222.463 243.898C223.286 244.186 224.853 244.29 224.646 243.247C224.243 241.231 219.796 233.674 218.131 233.311C216.467 232.948 206.363 234.348 206.363 234.348C206.363 234.348 187.062 221.1 184.948 219.666C176.751 220.455 172.852 224.746 171.21 227.321L171.268 227.367C174.649 229.924 197.251 236.076 199.428 237.763Z" stroke="#263238" stroke-linecap="round" stroke-linejoin="round"/>
<path d="M148.522 137.182L131.173 144.423C130.962 147.472 130.207 150.458 128.943 153.241C126.893 157.579 128.091 165.787 130.061 170.216C132.031 174.645 140.711 172.912 143.885 172.359C146.037 171.949 148.146 171.334 150.181 170.521C151.107 170.878 152.109 170.994 153.093 170.857C154.076 170.72 155.009 170.335 155.802 169.738C155.802 169.738 146.517 143.674 148.522 137.182Z" fill="white"/>
<mask id="mask14_560_8717" style="mask-type:luminance" maskUnits="userSpaceOnUse" x="127" y="137" width="29" height="37">
<path d="M148.522 137.182L131.173 144.423C130.962 147.472 130.207 150.458 128.943 153.241C126.893 157.579 128.091 165.787 130.061 170.216C132.031 174.645 140.711 172.912 143.885 172.359C146.037 171.949 148.146 171.334 150.181 170.521C151.107 170.878 152.109 170.994 153.093 170.857C154.076 170.72 155.009 170.335 155.802 169.738C155.802 169.738 146.517 143.674 148.522 137.182Z" fill="white"/>
</mask>
<g mask="url(#mask14_560_8717)">
<path d="M148.522 137.182L131.173 144.423C130.962 147.472 130.207 150.458 128.943 153.241C126.893 157.579 128.091 165.787 130.061 170.216C130.391 170.928 130.921 171.529 131.587 171.944V171.61C131.587 171.61 128.367 163.632 128.978 159.03C129.589 154.428 132.204 152.118 132.509 149.209C132.814 146.3 132.659 144.918 138.493 142.77C144.328 140.621 146.776 138.628 147.387 140.771C147.997 142.914 150.457 157.037 152.145 160.412C153.832 163.788 153.677 167.324 151.073 168.851C148.442 170.43 145.622 171.673 142.681 172.549L143.908 172.336C146.06 171.926 148.169 171.311 150.204 170.498C151.13 170.855 152.132 170.971 153.116 170.834C154.099 170.697 155.032 170.312 155.825 169.715C155.825 169.715 146.517 143.674 148.522 137.182Z" fill="#6BADD3"/>
<path opacity="0.5" d="M148.522 137.182L131.173 144.423C130.962 147.472 130.207 150.458 128.943 153.241C126.893 157.579 128.091 165.787 130.061 170.216C130.391 170.928 130.921 171.529 131.587 171.944V171.61C131.587 171.61 128.367 163.632 128.978 159.03C129.589 154.428 132.204 152.118 132.509 149.209C132.814 146.3 132.659 144.918 138.493 142.77C144.328 140.621 146.776 138.628 147.387 140.771C147.997 142.914 150.457 157.037 152.145 160.412C153.832 163.788 153.677 167.324 151.073 168.851C148.442 170.43 145.622 171.673 142.681 172.549L143.908 172.336C146.06 171.926 148.169 171.311 150.204 170.498C151.13 170.855 152.132 170.971 153.116 170.834C154.099 170.697 155.032 170.312 155.825 169.715C155.825 169.715 146.517 143.674 148.522 137.182Z" fill="white"/>
</g>
<path d="M148.522 137.182L131.173 144.423C130.962 147.472 130.207 150.459 128.943 153.241C126.893 157.579 128.091 165.787 130.061 170.216C132.031 174.645 140.711 172.912 143.885 172.359C146.037 171.949 148.146 171.334 150.181 170.521C151.107 170.878 152.109 170.994 153.093 170.857C154.076 170.72 155.009 170.335 155.802 169.738C155.802 169.738 146.517 143.674 148.522 137.182Z" stroke="#263238" stroke-linecap="round" stroke-linejoin="round"/>
<path d="M139.755 148.535C139.802 149.555 139.675 150.576 139.381 151.554C138.92 152.706 134.571 157.233 134.703 157.723C134.836 158.212 135.228 159.785 135.999 159.934" stroke="#263238" stroke-linecap="round" stroke-linejoin="round"/>
<path d="M144.576 152.585C145.181 151.375 147.168 152.556 147.139 155.28" stroke="#263238" stroke-linecap="round" stroke-linejoin="round"/>
<path d="M134.726 149.025C134.726 149.025 136.42 148.282 137.935 151.024" stroke="#263238" stroke-linecap="round" stroke-linejoin="round"/>
<path d="M142.168 156.576C144.125 156.675 145.986 157.455 147.427 158.782" stroke="#263238" stroke-width="0.5" stroke-linecap="round" stroke-linejoin="round"/>
<path d="M132.682 152.976C133.693 153.111 134.682 153.385 135.619 153.788" stroke="#263238" stroke-width="0.5" stroke-linecap="round" stroke-linejoin="round"/>
<path d="M139.565 145.978C139.118 145.741 138.621 145.612 138.116 145.6C137.61 145.588 137.108 145.694 136.65 145.909C135.101 146.652 134.15 147.47 134.254 146.519C134.358 145.569 136.178 144.521 136.725 144.382C137.272 144.244 139.72 143.864 139.565 145.978Z" fill="#263238"/>
<path d="M143.908 143.829C145.522 145.136 146.805 146.806 147.652 148.702C148.804 151.582 149.714 148.437 148.804 146.554C147.894 144.67 145.261 142.666 143.908 143.829Z" fill="#263238"/>
<path d="M156.056 174.663C156.056 176.005 155.295 177.093 154.362 177.093C153.429 177.093 152.675 176.005 152.675 174.663C152.675 173.321 153.429 169.905 154.362 169.905C155.295 169.905 156.056 173.321 156.056 174.663Z" fill="#6BADD3" stroke="#263238" stroke-linecap="round" stroke-linejoin="round"/>
<path d="M144.726 152.06C144.659 152.236 144.607 152.418 144.57 152.602C144.403 153.454 144.236 155.234 144.57 155.309C144.904 155.384 145.722 153.719 145.866 152.867C145.899 152.7 145.918 152.53 145.924 152.36C145.531 152.237 145.13 152.137 144.726 152.06Z" fill="#263238"/>
<path d="M134.899 148.858C134.848 149.008 134.808 149.162 134.778 149.319C134.605 150.171 134.611 152.043 134.974 152.112C135.337 152.181 135.93 150.43 136.097 149.578C136.139 149.371 136.162 149.161 136.166 148.95C135.754 148.837 135.324 148.805 134.899 148.858Z" fill="#263238"/>
<path d="M144.576 152.613L145.152 151.542C146.065 151.72 146.892 152.199 147.502 152.901" stroke="#263238" stroke-width="0.75" stroke-linecap="round" stroke-linejoin="round"/>
<path d="M134.899 148.858L135.475 148.184C135.475 148.184 135.723 148.063 137.082 148.679" stroke="#263238" stroke-width="0.75" stroke-linecap="round" stroke-linejoin="round"/>
<path d="M132.716 164.479C132.716 164.479 133.684 162.699 134.98 162.699C136.276 162.699 137.243 165.608 137.243 165.608" stroke="#263238" stroke-linecap="round" stroke-linejoin="round"/>
<path d="M164.932 244.508H105.754L103.824 211.976C103.771 211.661 103.786 211.337 103.87 211.029C103.954 210.72 104.103 210.433 104.309 210.188C104.514 209.942 104.77 209.744 105.059 209.608C105.349 209.471 105.664 209.399 105.984 209.396H164.678C165 209.395 165.318 209.465 165.61 209.6C165.902 209.736 166.161 209.933 166.369 210.179C166.577 210.424 166.729 210.713 166.814 211.023C166.899 211.333 166.915 211.659 166.861 211.976L164.932 244.508Z" fill="#263238" stroke="#263238" stroke-linecap="round" stroke-linejoin="round"/>
<path d="M108.668 210.173H164.252C164.566 210.17 164.877 210.235 165.163 210.365C165.449 210.494 165.703 210.685 165.908 210.923C166.113 211.161 166.263 211.441 166.348 211.743C166.433 212.046 166.451 212.363 166.4 212.673" stroke="white" stroke-linecap="round" stroke-linejoin="round"/>
<path d="M104.256 212.16C104.302 211.616 104.552 211.109 104.956 210.741C105.359 210.372 105.887 210.17 106.433 210.173" stroke="white" stroke-linecap="round" stroke-linejoin="round"/>
<path d="M165.179 241.34H105.506V244.508H165.179V241.34Z" fill="white" stroke="#263238" stroke-linecap="round" stroke-linejoin="round"/>
<path d="M135.129 229.613C137.464 229.613 139.357 228.478 139.357 227.079C139.357 225.679 137.464 224.544 135.129 224.544C132.794 224.544 130.902 225.679 130.902 227.079C130.902 228.478 132.794 229.613 135.129 229.613Z" fill="white" stroke="#263238" stroke-linecap="round" stroke-linejoin="round"/>
<path d="M255.185 244.134H32.9299V249.531H255.185V244.134Z" fill="#263238"/>
<path d="M197.556 44.0259H90.6335C87.0292 44.0259 84.1074 46.9477 84.1074 50.552V111.902C84.1074 115.506 87.0292 118.428 90.6335 118.428H197.556C201.161 118.428 204.082 115.506 204.082 111.902V50.552C204.082 46.9477 201.161 44.0259 197.556 44.0259Z" fill="#49B6F4"/>
<path d="M146.916 86.7824C156.615 85.2237 163.214 76.0975 161.656 66.3986C160.097 56.6996 150.971 50.1006 141.272 51.6594C131.573 53.2181 124.974 62.3443 126.533 72.0432C128.091 81.7422 137.217 88.3412 146.916 86.7824Z" fill="#263238"/>
<path d="M143.96 72.509L138.033 80.118C137.831 80.4347 137.554 80.6964 137.226 80.8794C136.898 81.0624 136.53 81.161 136.155 81.1663C135.64 81.1733 135.143 80.9767 134.772 80.6191C134.584 80.4463 134.435 80.2349 134.336 79.9993C134.236 79.7638 134.189 79.5096 134.196 79.254C134.215 78.6817 134.417 78.1304 134.772 77.6815L141.529 69.3238L135.193 60.9602C134.898 60.5677 134.737 60.0915 134.732 59.6009C134.731 59.3083 134.79 59.0185 134.906 58.7499C135.022 58.4812 135.192 58.2395 135.406 58.0399C135.607 57.8301 135.848 57.6632 136.116 57.5493C136.383 57.4355 136.671 57.377 136.961 57.3775C137.333 57.3835 137.698 57.4826 138.022 57.6658C138.346 57.8489 138.619 58.1102 138.816 58.4258L144.541 65.9657L150.301 58.5526C150.507 58.2067 150.795 57.917 151.14 57.709C151.484 57.501 151.875 57.3812 152.277 57.3602C152.526 57.3596 152.773 57.4104 153.002 57.5096C153.231 57.6087 153.437 57.7539 153.608 57.9362C153.789 58.1071 153.934 58.3133 154.033 58.5421C154.132 58.7709 154.183 59.0175 154.184 59.2668C154.177 59.7129 154.023 60.1444 153.746 60.4937L146.966 69.1682L153.515 77.8082C153.825 78.1944 153.997 78.6727 154.005 79.1676C154.007 79.4538 153.947 79.7369 153.828 79.9975C153.71 80.2581 153.536 80.4898 153.32 80.6767C152.897 81.0831 152.333 81.3102 151.747 81.3103C151.373 81.3057 151.006 81.2073 150.68 81.0241C150.354 80.841 150.079 80.5789 149.881 80.262L143.96 72.509Z" fill="white"/>
<path d="M177.984 105.543H110.183C108.808 105.543 107.49 104.997 106.517 104.024C105.545 103.052 104.999 101.734 104.999 100.359C104.999 98.9838 105.545 97.6652 106.517 96.693C107.49 95.7208 108.808 95.1747 110.183 95.1747H177.984C179.359 95.1747 180.677 95.7208 181.65 96.693C182.622 97.6652 183.168 98.9838 183.168 100.359C183.168 101.734 182.622 103.052 181.65 104.024C180.677 104.997 179.359 105.543 177.984 105.543Z" fill="white"/>
<path d="M119.474 102.029C119.429 102.029 119.384 102.02 119.342 102.002C119.301 101.984 119.263 101.958 119.232 101.925C119.198 101.892 119.171 101.851 119.153 101.807C119.135 101.762 119.127 101.714 119.128 101.666C119.128 101.585 119.15 101.505 119.192 101.436L119.71 100.629H118.65C118.601 100.632 118.552 100.624 118.507 100.606C118.461 100.588 118.419 100.561 118.385 100.526C118.326 100.457 118.293 100.369 118.293 100.278C118.293 100.187 118.326 100.099 118.385 100.03C118.419 99.9953 118.461 99.9679 118.507 99.95C118.552 99.9321 118.601 99.9242 118.65 99.9267L119.693 99.9555L119.232 99.2067C119.186 99.13 119.16 99.0427 119.157 98.9533C119.156 98.9053 119.164 98.8575 119.182 98.8129C119.2 98.7683 119.227 98.7279 119.261 98.6941C119.293 98.6611 119.332 98.635 119.374 98.6172C119.417 98.5994 119.462 98.5903 119.508 98.5904C119.573 98.5894 119.636 98.6075 119.691 98.6423C119.745 98.6771 119.788 98.7272 119.814 98.7862L120.321 99.6905L120.804 98.8265C120.835 98.7593 120.883 98.7017 120.944 98.6601C121.005 98.6184 121.076 98.5943 121.15 98.5904C121.195 98.5904 121.24 98.5996 121.282 98.6174C121.323 98.6352 121.361 98.6613 121.392 98.6941C121.426 98.7257 121.452 98.7641 121.47 98.8068C121.488 98.8495 121.497 98.8955 121.496 98.9417C121.495 99.0235 121.471 99.1034 121.426 99.1721L120.92 99.9843L121.974 99.9555C122.023 99.9526 122.072 99.9604 122.118 99.9783C122.163 99.9962 122.205 100.024 122.239 100.059C122.298 100.128 122.33 100.216 122.33 100.307C122.33 100.398 122.298 100.486 122.239 100.555C122.205 100.59 122.163 100.618 122.118 100.635C122.072 100.653 122.023 100.661 121.974 100.658H120.908L121.38 101.395C121.434 101.484 121.463 101.586 121.467 101.689C121.468 101.736 121.461 101.782 121.444 101.826C121.427 101.87 121.401 101.909 121.369 101.943C121.339 101.975 121.302 102.001 121.261 102.019C121.221 102.037 121.177 102.046 121.133 102.046C121.061 102.045 120.992 102.023 120.933 101.983C120.874 101.943 120.827 101.887 120.799 101.822L120.321 100.975L119.842 101.822C119.808 101.888 119.755 101.944 119.689 101.98C119.624 102.017 119.549 102.034 119.474 102.029Z" fill="black"/>
<path d="M124.761 102.029C124.716 102.029 124.671 102.02 124.63 102.002C124.588 101.984 124.551 101.958 124.52 101.925C124.485 101.892 124.459 101.851 124.441 101.807C124.423 101.762 124.415 101.714 124.416 101.666C124.416 101.585 124.438 101.505 124.479 101.436L124.998 100.629H123.938C123.889 100.632 123.84 100.624 123.794 100.606C123.748 100.588 123.707 100.561 123.673 100.526C123.614 100.457 123.581 100.369 123.581 100.278C123.581 100.187 123.614 100.099 123.673 100.03C123.707 99.9953 123.748 99.9679 123.794 99.95C123.84 99.9321 123.889 99.9242 123.938 99.9267L124.98 99.9555L124.491 99.1779C124.445 99.1012 124.419 99.0139 124.416 98.9244C124.415 98.8764 124.423 98.8287 124.441 98.7841C124.459 98.7395 124.485 98.6991 124.52 98.6652C124.552 98.6323 124.59 98.6062 124.633 98.5884C124.675 98.5706 124.721 98.5614 124.767 98.5616C124.832 98.5606 124.895 98.5787 124.949 98.6135C125.004 98.6483 125.046 98.6984 125.072 98.7574L125.579 99.6617L126.063 98.7977C126.094 98.7305 126.142 98.6729 126.203 98.6313C126.264 98.5896 126.335 98.5655 126.409 98.5616C126.454 98.5616 126.499 98.5708 126.54 98.5886C126.582 98.6064 126.62 98.6325 126.651 98.6652C126.684 98.6969 126.711 98.7353 126.729 98.778C126.747 98.8207 126.756 98.8667 126.754 98.9129C126.754 98.9947 126.73 99.0746 126.685 99.1433L126.178 99.9555L127.232 99.9267C127.282 99.9238 127.331 99.9316 127.376 99.9495C127.422 99.9674 127.463 99.995 127.497 100.03C127.557 100.099 127.589 100.187 127.589 100.278C127.589 100.369 127.557 100.457 127.497 100.526C127.463 100.561 127.422 100.589 127.376 100.607C127.331 100.625 127.282 100.632 127.232 100.629H126.167L126.639 101.367C126.692 101.456 126.722 101.557 126.726 101.66C126.727 101.707 126.719 101.754 126.703 101.797C126.686 101.841 126.66 101.88 126.628 101.914C126.597 101.946 126.561 101.972 126.52 101.99C126.48 102.008 126.436 102.017 126.392 102.018C126.32 102.017 126.25 101.995 126.191 101.955C126.132 101.915 126.085 101.859 126.057 101.793L125.579 100.946L125.101 101.793C125.073 101.86 125.026 101.919 124.966 101.96C124.906 102.002 124.835 102.026 124.761 102.029Z" fill="black"/>
<path d="M130.049 102.029C130.004 102.029 129.959 102.02 129.918 102.002C129.876 101.984 129.839 101.958 129.807 101.925C129.773 101.892 129.747 101.851 129.729 101.807C129.711 101.762 129.702 101.714 129.704 101.666C129.704 101.585 129.726 101.505 129.767 101.436L130.285 100.629H129.226C129.177 100.632 129.128 100.624 129.082 100.606C129.036 100.588 128.995 100.561 128.961 100.526C128.901 100.457 128.869 100.369 128.869 100.278C128.869 100.187 128.901 100.099 128.961 100.03C128.995 99.9953 129.036 99.9679 129.082 99.95C129.128 99.9321 129.177 99.9242 129.226 99.9267L130.268 99.9555L129.779 99.1779C129.732 99.1012 129.707 99.0139 129.704 98.9244C129.702 98.8764 129.711 98.8287 129.729 98.7841C129.747 98.7395 129.773 98.6991 129.807 98.6652C129.84 98.6323 129.878 98.6062 129.921 98.5884C129.963 98.5706 130.009 98.5614 130.055 98.5616C130.12 98.5606 130.183 98.5787 130.237 98.6135C130.291 98.6483 130.334 98.6984 130.36 98.7574L130.867 99.6617L131.351 98.7977C131.382 98.7305 131.43 98.6729 131.491 98.6313C131.552 98.5896 131.623 98.5655 131.697 98.5616C131.742 98.5616 131.787 98.5708 131.828 98.5886C131.87 98.6064 131.907 98.6325 131.939 98.6652C131.972 98.6969 131.999 98.7353 132.017 98.778C132.035 98.8207 132.043 98.8667 132.042 98.9129C132.041 98.9947 132.018 99.0746 131.973 99.1433L131.466 99.9555L132.52 99.9267C132.569 99.9238 132.618 99.9316 132.664 99.9495C132.71 99.9674 132.751 99.995 132.785 100.03C132.844 100.099 132.877 100.187 132.877 100.278C132.877 100.369 132.844 100.457 132.785 100.526C132.751 100.561 132.71 100.589 132.664 100.607C132.618 100.625 132.569 100.632 132.52 100.629H131.455L131.927 101.367C131.98 101.456 132.01 101.557 132.013 101.66C132.015 101.707 132.007 101.754 131.99 101.797C131.974 101.841 131.948 101.88 131.916 101.914C131.885 101.946 131.849 101.972 131.808 101.99C131.767 102.008 131.724 102.017 131.679 102.018C131.608 102.017 131.538 101.995 131.479 101.955C131.42 101.915 131.373 101.859 131.345 101.793L130.867 100.946L130.389 101.793C130.361 101.86 130.314 101.919 130.254 101.96C130.193 102.002 130.123 102.026 130.049 102.029Z" fill="black"/>
<path d="M135.36 102.029C135.315 102.029 135.27 102.02 135.228 102.002C135.187 101.984 135.149 101.958 135.118 101.925C135.084 101.892 135.057 101.851 135.039 101.807C135.021 101.762 135.013 101.714 135.014 101.666C135.014 101.585 135.036 101.505 135.078 101.436L135.596 100.629H134.536C134.487 100.632 134.438 100.624 134.393 100.606C134.347 100.588 134.305 100.561 134.271 100.526C134.212 100.457 134.179 100.369 134.179 100.278C134.179 100.187 134.212 100.099 134.271 100.03C134.305 99.9953 134.347 99.9679 134.393 99.95C134.438 99.9321 134.487 99.9242 134.536 99.9267L135.579 99.9555L135.089 99.1779C135.043 99.1012 135.017 99.0139 135.014 98.9244C135.013 98.8764 135.021 98.8287 135.039 98.7841C135.057 98.7395 135.084 98.6991 135.118 98.6652C135.15 98.6323 135.189 98.6062 135.231 98.5884C135.274 98.5706 135.319 98.5614 135.366 98.5616C135.43 98.5606 135.493 98.5787 135.548 98.6135C135.602 98.6483 135.645 98.6984 135.671 98.7574L136.178 99.6617L136.662 98.7977C136.692 98.7305 136.74 98.6729 136.801 98.6313C136.862 98.5896 136.933 98.5655 137.007 98.5616C137.052 98.5616 137.097 98.5708 137.139 98.5886C137.18 98.6064 137.218 98.6325 137.249 98.6652C137.283 98.6969 137.31 98.7353 137.327 98.778C137.345 98.8207 137.354 98.8667 137.353 98.9129C137.352 98.9947 137.328 99.0746 137.284 99.1433L136.777 99.9555L137.831 99.9267C137.88 99.9238 137.929 99.9316 137.975 99.9495C138.02 99.9674 138.062 99.995 138.096 100.03C138.155 100.099 138.188 100.187 138.188 100.278C138.188 100.369 138.155 100.457 138.096 100.526C138.062 100.561 138.02 100.589 137.975 100.607C137.929 100.625 137.88 100.632 137.831 100.629H136.765L137.238 101.367C137.291 101.456 137.321 101.557 137.324 101.66C137.326 101.707 137.318 101.754 137.301 101.797C137.284 101.841 137.259 101.88 137.226 101.914C137.196 101.946 137.159 101.972 137.119 101.99C137.078 102.008 137.034 102.017 136.99 102.018C136.919 102.016 136.849 101.994 136.79 101.954C136.731 101.914 136.684 101.858 136.656 101.793L136.178 100.946L135.7 101.793C135.671 101.86 135.624 101.919 135.564 101.96C135.504 102.002 135.433 102.026 135.36 102.029Z" fill="black"/>
<path d="M140.624 102.029C140.579 102.029 140.534 102.02 140.493 102.002C140.451 101.984 140.414 101.958 140.383 101.925C140.348 101.892 140.322 101.851 140.304 101.807C140.286 101.762 140.278 101.714 140.279 101.666C140.282 101.585 140.303 101.507 140.342 101.436L140.861 100.629H139.801C139.752 100.632 139.703 100.624 139.657 100.606C139.611 100.588 139.57 100.561 139.536 100.526C139.477 100.457 139.444 100.369 139.444 100.278C139.444 100.187 139.477 100.099 139.536 100.03C139.57 99.9953 139.611 99.9679 139.657 99.95C139.703 99.9321 139.752 99.9242 139.801 99.9267L140.843 99.9555L140.354 99.1779C140.308 99.1012 140.282 99.0139 140.279 98.9244C140.278 98.8764 140.286 98.8287 140.304 98.7841C140.322 98.7395 140.348 98.6991 140.383 98.6652C140.415 98.6323 140.453 98.6062 140.496 98.5884C140.538 98.5706 140.584 98.5614 140.63 98.5616C140.695 98.5606 140.758 98.5787 140.812 98.6135C140.867 98.6483 140.91 98.6984 140.936 98.7574L141.442 99.6617L141.926 98.7977C141.957 98.7305 142.005 98.6729 142.066 98.6313C142.127 98.5896 142.198 98.5655 142.272 98.5616C142.317 98.5609 142.362 98.5697 142.404 98.5876C142.446 98.6055 142.483 98.6319 142.514 98.6652C142.548 98.6969 142.574 98.7353 142.592 98.778C142.61 98.8207 142.619 98.8667 142.617 98.9129C142.617 98.9947 142.593 99.0746 142.548 99.1433L142.041 99.9555L143.096 99.9267C143.145 99.9238 143.194 99.9316 143.239 99.9495C143.285 99.9674 143.326 99.995 143.36 100.03C143.42 100.099 143.452 100.187 143.452 100.278C143.452 100.369 143.42 100.457 143.36 100.526C143.326 100.561 143.285 100.589 143.239 100.607C143.194 100.625 143.145 100.632 143.096 100.629H142.03L142.502 101.367C142.556 101.456 142.585 101.557 142.589 101.66C142.59 101.707 142.582 101.754 142.566 101.797C142.549 101.841 142.523 101.88 142.491 101.914C142.46 101.946 142.424 101.972 142.383 101.99C142.343 102.008 142.299 102.017 142.255 102.018C142.183 102.016 142.114 101.994 142.055 101.954C141.996 101.914 141.949 101.858 141.92 101.793L141.442 100.946L140.964 101.793C140.936 101.86 140.889 101.919 140.829 101.96C140.769 102.002 140.698 102.026 140.624 102.029Z" fill="black"/>
<path d="M145.912 102.029C145.867 102.029 145.822 102.02 145.781 102.002C145.739 101.984 145.702 101.958 145.67 101.925C145.636 101.892 145.61 101.851 145.592 101.807C145.574 101.762 145.565 101.714 145.567 101.666C145.569 101.585 145.591 101.507 145.63 101.436L146.148 100.629H145.094C145.045 100.632 144.995 100.625 144.948 100.607C144.901 100.589 144.859 100.561 144.824 100.526C144.764 100.457 144.732 100.369 144.732 100.278C144.732 100.187 144.764 100.099 144.824 100.03C144.859 99.9948 144.901 99.9672 144.948 99.9493C144.995 99.9314 145.045 99.9237 145.094 99.9267L146.131 99.9555L145.642 99.1779C145.595 99.1012 145.57 99.0139 145.567 98.9244C145.565 98.8764 145.574 98.8287 145.592 98.7841C145.61 98.7395 145.636 98.6991 145.67 98.6652C145.703 98.6323 145.741 98.6062 145.784 98.5884C145.826 98.5706 145.872 98.5614 145.918 98.5616C145.983 98.5606 146.046 98.5787 146.1 98.6135C146.155 98.6483 146.197 98.6984 146.223 98.7574L146.73 99.6617L147.214 98.7977C147.245 98.7305 147.293 98.6729 147.354 98.6313C147.415 98.5896 147.486 98.5655 147.56 98.5616C147.605 98.5609 147.65 98.5697 147.692 98.5876C147.733 98.6055 147.771 98.6319 147.802 98.6652C147.835 98.6969 147.862 98.7353 147.88 98.778C147.898 98.8207 147.906 98.8667 147.905 98.9129C147.905 98.9947 147.881 99.0746 147.836 99.1433L147.329 99.9555L148.383 99.9267C148.432 99.9238 148.481 99.9316 148.527 99.9495C148.573 99.9674 148.614 99.995 148.648 100.03C148.708 100.099 148.74 100.187 148.74 100.278C148.74 100.369 148.708 100.457 148.648 100.526C148.614 100.561 148.573 100.589 148.527 100.607C148.481 100.625 148.432 100.632 148.383 100.629H147.318L147.79 101.367C147.843 101.456 147.873 101.557 147.876 101.66C147.878 101.707 147.87 101.754 147.853 101.797C147.837 101.841 147.811 101.88 147.779 101.914C147.748 101.946 147.712 101.972 147.671 101.99C147.631 102.008 147.587 102.017 147.542 102.018C147.471 102.016 147.402 101.994 147.343 101.954C147.283 101.914 147.237 101.858 147.208 101.793L146.73 100.946L146.252 101.793C146.224 101.86 146.177 101.919 146.117 101.96C146.056 102.002 145.986 102.026 145.912 102.029Z" fill="black"/>
<path d="M151.2 102.029C151.155 102.029 151.11 102.02 151.068 102.002C151.027 101.984 150.989 101.958 150.958 101.925C150.924 101.892 150.897 101.851 150.879 101.807C150.861 101.762 150.853 101.714 150.854 101.666C150.854 101.585 150.876 101.505 150.918 101.436L151.436 100.629H150.376C150.327 100.632 150.278 100.624 150.233 100.606C150.187 100.588 150.146 100.561 150.111 100.526C150.052 100.457 150.02 100.369 150.02 100.278C150.02 100.187 150.052 100.099 150.111 100.03C150.146 99.9953 150.187 99.9679 150.233 99.95C150.278 99.9321 150.327 99.9242 150.376 99.9267L151.419 99.9555L150.912 99.2067C150.866 99.13 150.84 99.0427 150.837 98.9533C150.836 98.9053 150.844 98.8575 150.862 98.8129C150.88 98.7683 150.907 98.7279 150.941 98.6941C150.973 98.6611 151.012 98.635 151.054 98.6172C151.097 98.5994 151.142 98.5903 151.188 98.5904C151.253 98.5894 151.316 98.6075 151.371 98.6423C151.425 98.6771 151.468 98.7272 151.494 98.7862L152.001 99.6905L152.484 98.8265C152.515 98.7593 152.563 98.7017 152.624 98.6601C152.685 98.6185 152.756 98.5943 152.83 98.5904C152.875 98.5897 152.92 98.5985 152.962 98.6164C153.004 98.6343 153.041 98.6607 153.072 98.6941C153.106 98.7257 153.132 98.7641 153.15 98.8068C153.168 98.8495 153.177 98.8955 153.176 98.9417C153.175 99.0235 153.151 99.1034 153.106 99.1721L152.6 99.9843L153.654 99.9555C153.703 99.9526 153.752 99.9604 153.798 99.9783C153.843 99.9962 153.885 100.024 153.919 100.059C153.978 100.128 154.01 100.216 154.01 100.307C154.01 100.398 153.978 100.486 153.919 100.555C153.885 100.59 153.843 100.618 153.798 100.635C153.752 100.653 153.703 100.661 153.654 100.658H152.588L153.06 101.395C153.114 101.484 153.143 101.586 153.147 101.689C153.148 101.736 153.141 101.782 153.124 101.826C153.107 101.87 153.081 101.909 153.049 101.943C153.019 101.975 152.982 102.001 152.941 102.019C152.901 102.037 152.857 102.046 152.813 102.046C152.741 102.045 152.672 102.023 152.613 101.983C152.554 101.943 152.507 101.887 152.479 101.822L152.001 100.975L151.522 101.822C151.491 101.881 151.445 101.932 151.389 101.968C151.332 102.005 151.267 102.026 151.2 102.029Z" fill="black"/>
<path d="M156.488 102.029C156.442 102.029 156.398 102.02 156.356 102.002C156.315 101.984 156.277 101.958 156.246 101.925C156.212 101.892 156.185 101.851 156.167 101.807C156.149 101.762 156.141 101.714 156.142 101.666C156.145 101.585 156.166 101.507 156.205 101.436L156.724 100.629H155.67C155.621 100.633 155.571 100.626 155.525 100.608C155.48 100.59 155.438 100.562 155.405 100.526C155.342 100.459 155.307 100.37 155.307 100.278C155.307 100.186 155.342 100.098 155.405 100.03C155.438 99.9943 155.48 99.9663 155.525 99.9483C155.571 99.9304 155.621 99.923 155.67 99.9267L156.707 99.9555L156.217 99.1779C156.171 99.1012 156.145 99.0139 156.142 98.9244C156.141 98.8773 156.148 98.8304 156.165 98.7864C156.182 98.7425 156.208 98.7024 156.241 98.6685C156.274 98.6347 156.313 98.6077 156.356 98.5894C156.4 98.571 156.446 98.5615 156.493 98.5616C156.558 98.5606 156.621 98.5787 156.676 98.6135C156.73 98.6483 156.773 98.6984 156.799 98.7574L157.306 99.6617L157.789 98.7977C157.82 98.7305 157.868 98.6729 157.929 98.6313C157.99 98.5896 158.061 98.5655 158.135 98.5616C158.18 98.5601 158.226 98.5686 158.268 98.5866C158.309 98.6045 158.347 98.6313 158.377 98.6652C158.411 98.6969 158.437 98.7353 158.455 98.778C158.473 98.8207 158.482 98.8667 158.481 98.9129C158.48 98.9947 158.456 99.0746 158.412 99.1433L157.905 99.9555L158.959 99.9267C159.008 99.9238 159.057 99.9316 159.103 99.9495C159.148 99.9674 159.19 99.995 159.224 100.03C159.283 100.099 159.315 100.187 159.315 100.278C159.315 100.369 159.283 100.457 159.224 100.526C159.19 100.561 159.148 100.589 159.103 100.607C159.057 100.625 159.008 100.632 158.959 100.629H157.893L158.365 101.367C158.419 101.456 158.448 101.557 158.452 101.66C158.453 101.706 158.446 101.751 158.43 101.794C158.414 101.836 158.39 101.875 158.359 101.908C158.328 101.941 158.291 101.968 158.249 101.987C158.208 102.006 158.163 102.016 158.118 102.018C158.046 102.016 157.977 101.994 157.918 101.954C157.859 101.914 157.812 101.858 157.784 101.793L157.306 100.946L156.828 101.793C156.799 101.86 156.752 101.919 156.692 101.96C156.632 102.002 156.561 102.026 156.488 102.029Z" fill="black"/>
<path d="M161.775 102.029C161.73 102.029 161.685 102.02 161.644 102.002C161.602 101.984 161.565 101.958 161.533 101.925C161.499 101.892 161.472 101.851 161.455 101.807C161.437 101.762 161.428 101.714 161.43 101.666C161.432 101.585 161.454 101.507 161.493 101.436L162.011 100.629H160.952C160.903 100.632 160.855 100.624 160.81 100.606C160.766 100.589 160.725 100.561 160.692 100.526C160.63 100.459 160.595 100.37 160.595 100.278C160.595 100.186 160.63 100.098 160.692 100.03C160.725 99.9951 160.766 99.9675 160.81 99.9496C160.855 99.9317 160.903 99.9239 160.952 99.9267L161.994 99.9555L161.505 99.1779C161.458 99.1012 161.433 99.0139 161.43 98.9244C161.428 98.8773 161.436 98.8304 161.453 98.7864C161.47 98.7425 161.496 98.7024 161.528 98.6685C161.561 98.6347 161.6 98.6077 161.644 98.5894C161.687 98.571 161.734 98.5615 161.781 98.5616C161.846 98.5606 161.909 98.5787 161.963 98.6135C162.017 98.6483 162.06 98.6984 162.086 98.7574L162.593 99.6617L163.077 98.7977C163.108 98.7305 163.156 98.6729 163.217 98.6313C163.278 98.5896 163.349 98.5655 163.423 98.5616C163.468 98.5601 163.513 98.5686 163.555 98.5866C163.597 98.6045 163.634 98.6313 163.665 98.6652C163.698 98.6969 163.725 98.7353 163.743 98.778C163.761 98.8207 163.769 98.8667 163.768 98.9129C163.767 98.9947 163.744 99.0746 163.699 99.1433L163.192 99.9555L164.246 99.9267C164.295 99.9238 164.344 99.9316 164.39 99.9495C164.436 99.9674 164.477 99.995 164.511 100.03C164.57 100.099 164.603 100.187 164.603 100.278C164.603 100.369 164.57 100.457 164.511 100.526C164.477 100.561 164.436 100.589 164.39 100.607C164.344 100.625 164.295 100.632 164.246 100.629H163.181L163.653 101.367C163.706 101.456 163.736 101.557 163.739 101.66C163.741 101.706 163.734 101.751 163.718 101.794C163.702 101.836 163.677 101.875 163.646 101.908C163.615 101.941 163.578 101.968 163.537 101.987C163.495 102.006 163.451 102.016 163.405 102.018C163.334 102.016 163.265 101.994 163.206 101.954C163.146 101.914 163.1 101.858 163.071 101.793L162.593 100.946L162.115 101.793C162.087 101.86 162.04 101.919 161.98 101.96C161.919 102.002 161.848 102.026 161.775 102.029Z" fill="black"/>
<path d="M167.04 102.029C166.995 102.029 166.95 102.02 166.908 102.002C166.867 101.984 166.829 101.958 166.798 101.925C166.764 101.892 166.737 101.851 166.719 101.807C166.701 101.762 166.693 101.714 166.694 101.666C166.697 101.585 166.719 101.507 166.758 101.436L167.276 100.629H166.216C166.168 100.632 166.12 100.624 166.075 100.606C166.03 100.589 165.99 100.561 165.957 100.526C165.894 100.459 165.859 100.37 165.859 100.278C165.859 100.186 165.894 100.098 165.957 100.03C165.99 99.9951 166.03 99.9675 166.075 99.9496C166.12 99.9317 166.168 99.9239 166.216 99.9267L167.259 99.9555L166.769 99.1779C166.723 99.1012 166.697 99.0139 166.694 98.9244C166.693 98.8764 166.701 98.8287 166.719 98.7841C166.737 98.7395 166.764 98.6991 166.798 98.6652C166.83 98.6323 166.869 98.6062 166.911 98.5884C166.954 98.5706 167 98.5614 167.046 98.5616C167.11 98.5606 167.174 98.5787 167.228 98.6135C167.282 98.6483 167.325 98.6984 167.351 98.7574L167.858 99.6617L168.342 98.7977C168.372 98.7305 168.42 98.6729 168.481 98.6313C168.542 98.5896 168.614 98.5655 168.687 98.5616C168.733 98.5601 168.778 98.5686 168.82 98.5866C168.862 98.6045 168.899 98.6313 168.929 98.6652C168.963 98.6969 168.99 98.7353 169.008 98.778C169.025 98.8207 169.034 98.8667 169.033 98.9129C169.032 98.9947 169.008 99.0746 168.964 99.1433L168.457 99.9555L169.511 99.9267C169.56 99.9238 169.609 99.9316 169.655 99.9495C169.701 99.9674 169.742 99.995 169.776 100.03C169.835 100.099 169.868 100.187 169.868 100.278C169.868 100.369 169.835 100.457 169.776 100.526C169.742 100.561 169.701 100.589 169.655 100.607C169.609 100.625 169.56 100.632 169.511 100.629H168.445L168.918 101.367C168.971 101.456 169.001 101.557 169.004 101.66C169.006 101.707 168.998 101.754 168.981 101.797C168.964 101.841 168.939 101.88 168.906 101.914C168.876 101.946 168.839 101.972 168.799 101.99C168.758 102.008 168.714 102.017 168.67 102.018C168.599 102.016 168.529 101.994 168.47 101.954C168.411 101.914 168.364 101.858 168.336 101.793L167.858 100.946L167.38 101.793C167.351 101.86 167.304 101.919 167.244 101.96C167.184 102.002 167.113 102.026 167.04 102.029Z" fill="black"/>
<path d="M185.161 114.77H192.205" stroke="white" stroke-width="3" stroke-linecap="round" stroke-linejoin="round"/>
<path d="M87.4541 62.9014V109.69C87.4541 111.045 87.9924 112.344 88.9505 113.303C89.9087 114.261 91.2082 114.799 92.5632 114.799H178.474" stroke="white" stroke-width="3" stroke-linecap="round" stroke-linejoin="round"/>
<path d="M87.4541 50.4944V57.5101" stroke="white" stroke-width="3" stroke-linecap="round" stroke-linejoin="round"/>
</svg>
