<svg width="88" height="77" viewBox="0 0 88 77" fill="none" xmlns="http://www.w3.org/2000/svg">
<g filter="url(#filter0_d_157_1437)">
<rect x="20" y="3" width="48" height="48" rx="24" fill="#DAFFED"/>
</g>
<g filter="url(#filter1_d_157_1437)">
<rect x="20" y="3" width="48" height="48" rx="12" fill="#FCFCE3"/>
</g>
<path d="M42 30.5L38.5 37L47.5 40.5L51 34L49 27L44 24L42 30.5Z" fill="white" stroke="black"/>
<path d="M53.7199 26.0546C53.3257 25.5404 52.8458 25.0947 52.4001 24.6491C51.2518 23.6207 49.9492 22.8837 48.8522 21.8039C46.2984 19.3015 45.7328 15.1708 47.3611 12C45.7328 12.3942 44.3102 13.2855 43.0933 14.2624C38.6541 17.8275 36.9058 24.1178 38.9969 29.5168C39.0654 29.6882 39.134 29.8596 39.134 30.0824C39.134 30.4595 38.8769 30.8023 38.5341 30.9394C38.1399 31.1108 37.7285 31.0079 37.4029 30.7337C37.3056 30.6522 37.2242 30.5534 37.1629 30.4423C35.2261 27.9914 34.9176 24.4777 36.2202 21.6668C33.3579 23.9978 31.7982 27.9399 32.021 31.6593C32.1238 32.5162 32.2267 33.3732 32.5181 34.2302C32.758 35.2586 33.2208 36.287 33.735 37.1954C35.5861 40.1606 38.7912 42.2859 42.2363 42.7144C45.9042 43.1771 49.8292 42.5087 52.6401 39.972C55.7767 37.1268 56.8736 32.5677 55.2625 28.6598L55.0396 28.2142C54.6797 27.4257 53.7199 26.0546 53.7199 26.0546ZM48.3037 36.8526C47.8238 37.2639 47.0354 37.7096 46.4184 37.881C44.4987 38.5666 42.5791 37.6067 41.4479 36.4755C43.4875 35.9956 44.7044 34.4873 45.0643 32.9619C45.3557 31.5907 44.8072 30.4595 44.5844 29.1397C44.3787 27.8714 44.413 26.7916 44.8758 25.6089C45.2015 26.2602 45.5442 26.9116 45.9556 27.4257C47.2754 29.1397 49.3493 29.8939 49.7949 32.2249C49.8635 32.4648 49.8977 32.7048 49.8977 32.9619C49.9492 34.3673 49.3321 35.9099 48.3037 36.8526Z" fill="#EAEA15"/>
<path d="M37.7041 74.144C37.0721 74.144 36.4881 74.032 35.9521 73.808C35.4161 73.576 34.9521 73.252 34.5601 72.836C34.1681 72.42 33.8601 71.932 33.6361 71.372C33.4201 70.812 33.3121 70.2 33.3121 69.536C33.3121 68.864 33.4201 68.248 33.6361 67.688C33.8521 67.128 34.1561 66.64 34.5481 66.224C34.9401 65.808 35.4041 65.488 35.9401 65.264C36.4761 65.032 37.0601 64.916 37.6921 64.916C38.3081 64.916 38.8601 65.024 39.3481 65.24C39.8441 65.456 40.2601 65.736 40.5961 66.08C40.9401 66.424 41.1841 66.792 41.3281 67.184L40.2721 67.7C40.0641 67.18 39.7401 66.768 39.3001 66.464C38.8601 66.16 38.3241 66.008 37.6921 66.008C37.0681 66.008 36.5121 66.156 36.0241 66.452C35.5441 66.748 35.1681 67.16 34.8961 67.688C34.6241 68.216 34.4881 68.832 34.4881 69.536C34.4881 70.232 34.6241 70.844 34.8961 71.372C35.1761 71.9 35.5561 72.312 36.0361 72.608C36.5241 72.904 37.0801 73.052 37.7041 73.052C38.2481 73.052 38.7401 72.936 39.1801 72.704C39.6201 72.472 39.9681 72.152 40.2241 71.744C40.4801 71.336 40.6081 70.864 40.6081 70.328V69.776L41.1481 70.28H37.6921V69.26H41.7961V70.052C41.7961 70.676 41.6881 71.24 41.4721 71.744C41.2561 72.248 40.9601 72.68 40.5841 73.04C40.2081 73.392 39.7721 73.664 39.2761 73.856C38.7801 74.048 38.2561 74.144 37.7041 74.144ZM45.1487 74.144C44.7247 74.144 44.3487 74.068 44.0207 73.916C43.7007 73.756 43.4487 73.54 43.2647 73.268C43.0807 72.988 42.9887 72.668 42.9887 72.308C42.9887 71.964 43.0607 71.656 43.2047 71.384C43.3567 71.104 43.5887 70.868 43.9007 70.676C44.2207 70.484 44.6207 70.348 45.1007 70.268L47.5007 69.872V70.808L45.3527 71.168C44.9367 71.24 44.6327 71.372 44.4407 71.564C44.2567 71.756 44.1647 71.992 44.1647 72.272C44.1647 72.536 44.2687 72.756 44.4767 72.932C44.6927 73.108 44.9607 73.196 45.2807 73.196C45.6887 73.196 46.0407 73.112 46.3367 72.944C46.6407 72.768 46.8767 72.532 47.0447 72.236C47.2207 71.94 47.3087 71.612 47.3087 71.252V69.608C47.3087 69.256 47.1767 68.972 46.9127 68.756C46.6567 68.532 46.3167 68.42 45.8927 68.42C45.5247 68.42 45.1967 68.516 44.9087 68.708C44.6287 68.892 44.4207 69.14 44.2847 69.452L43.3127 68.948C43.4327 68.652 43.6247 68.388 43.8887 68.156C44.1527 67.916 44.4607 67.728 44.8127 67.592C45.1647 67.456 45.5327 67.388 45.9167 67.388C46.4127 67.388 46.8487 67.484 47.2247 67.676C47.6007 67.86 47.8927 68.12 48.1007 68.456C48.3167 68.784 48.4247 69.168 48.4247 69.608V74H47.3327V72.776L47.5367 72.848C47.4007 73.104 47.2167 73.328 46.9847 73.52C46.7527 73.712 46.4807 73.864 46.1687 73.976C45.8567 74.088 45.5167 74.144 45.1487 74.144ZM52.471 74.144C51.823 74.144 51.259 73.984 50.779 73.664C50.299 73.344 49.959 72.912 49.759 72.368L50.647 71.936C50.831 72.32 51.083 72.624 51.403 72.848C51.723 73.072 52.079 73.184 52.471 73.184C52.823 73.184 53.115 73.1 53.347 72.932C53.579 72.764 53.695 72.544 53.695 72.272C53.695 72.08 53.639 71.928 53.527 71.816C53.423 71.696 53.295 71.604 53.143 71.54C52.991 71.468 52.851 71.416 52.723 71.384L51.751 71.108C51.167 70.94 50.739 70.7 50.467 70.388C50.203 70.076 50.071 69.712 50.071 69.296C50.071 68.912 50.167 68.58 50.359 68.3C50.559 68.012 50.827 67.788 51.163 67.628C51.507 67.468 51.891 67.388 52.315 67.388C52.883 67.388 53.391 67.532 53.839 67.82C54.295 68.108 54.619 68.512 54.811 69.032L53.899 69.452C53.755 69.116 53.539 68.852 53.251 68.66C52.963 68.46 52.639 68.36 52.279 68.36C51.951 68.36 51.691 68.444 51.499 68.612C51.307 68.772 51.211 68.976 51.211 69.224C51.211 69.408 51.259 69.56 51.355 69.68C51.451 69.792 51.567 69.88 51.703 69.944C51.839 70 51.971 70.048 52.099 70.088L53.155 70.4C53.683 70.552 54.091 70.788 54.379 71.108C54.675 71.428 54.823 71.812 54.823 72.26C54.823 72.62 54.723 72.944 54.523 73.232C54.323 73.52 54.047 73.744 53.695 73.904C53.343 74.064 52.935 74.144 52.471 74.144Z" fill="#0C192C"/>
<defs>
<filter id="filter0_d_157_1437" x="15" y="0" width="58" height="58" filterUnits="userSpaceOnUse" color-interpolation-filters="sRGB">
<feFlood flood-opacity="0" result="BackgroundImageFix"/>
<feColorMatrix in="SourceAlpha" type="matrix" values="0 0 0 0 0 0 0 0 0 0 0 0 0 0 0 0 0 0 127 0" result="hardAlpha"/>
<feOffset dy="2"/>
<feGaussianBlur stdDeviation="2.5"/>
<feComposite in2="hardAlpha" operator="out"/>
<feColorMatrix type="matrix" values="0 0 0 0 0 0 0 0 0 0 0 0 0 0 0 0 0 0 0.05 0"/>
<feBlend mode="normal" in2="BackgroundImageFix" result="effect1_dropShadow_157_1437"/>
<feBlend mode="normal" in="SourceGraphic" in2="effect1_dropShadow_157_1437" result="shape"/>
</filter>
<filter id="filter1_d_157_1437" x="15" y="0" width="58" height="58" filterUnits="userSpaceOnUse" color-interpolation-filters="sRGB">
<feFlood flood-opacity="0" result="BackgroundImageFix"/>
<feColorMatrix in="SourceAlpha" type="matrix" values="0 0 0 0 0 0 0 0 0 0 0 0 0 0 0 0 0 0 127 0" result="hardAlpha"/>
<feOffset dy="2"/>
<feGaussianBlur stdDeviation="2.5"/>
<feComposite in2="hardAlpha" operator="out"/>
<feColorMatrix type="matrix" values="0 0 0 0 0 0 0 0 0 0 0 0 0 0 0 0 0 0 0.05 0"/>
<feBlend mode="normal" in2="BackgroundImageFix" result="effect1_dropShadow_157_1437"/>
<feBlend mode="normal" in="SourceGraphic" in2="effect1_dropShadow_157_1437" result="shape"/>
</filter>
</defs>
</svg>
