<svg width="32" height="32" viewBox="0 0 32 32" fill="none" xmlns="http://www.w3.org/2000/svg">
<path d="M14 19.5L10.5 26L19.5 29.5L23 23L21 16L16 13L14 19.5Z" fill="white" stroke="black"/>
<path d="M25.7199 15.0546C25.3257 14.5404 24.8458 14.0947 24.4001 13.6491C23.2518 12.6207 21.9492 11.8837 20.8522 10.8039C18.2984 8.30152 17.7328 4.17085 19.3611 1C17.7328 1.39421 16.3102 2.28548 15.0933 3.26244C10.6541 6.8275 8.90583 13.1178 10.9969 18.5168C11.0654 18.6882 11.134 18.8596 11.134 19.0824C11.134 19.4595 10.8769 19.8023 10.5341 19.9394C10.1399 20.1108 9.72853 20.0079 9.40288 19.7337C9.3056 19.6522 9.22425 19.5534 9.16292 19.4423C7.22613 16.9914 6.91762 13.4777 8.22024 10.6668C5.35791 12.9978 3.79819 16.9399 4.02101 20.6593C4.12385 21.5162 4.22668 22.3732 4.51806 23.2302C4.75802 24.2586 5.22079 25.287 5.73498 26.1954C7.58607 29.1606 10.7912 31.2859 14.2363 31.7144C17.9042 32.1771 21.8292 31.5087 24.6401 28.972C27.7767 26.1268 28.8736 21.5677 27.2625 17.6598L27.0396 17.2142C26.6797 16.4257 25.7199 15.0546 25.7199 15.0546ZM20.3037 25.8526C19.8238 26.2639 19.0354 26.7096 18.4184 26.881C16.4987 27.5666 14.5791 26.6067 13.4479 25.4755C15.4875 24.9956 16.7044 23.4873 17.0643 21.9619C17.3557 20.5907 16.8072 19.4595 16.5844 18.1397C16.3787 16.8714 16.413 15.7916 16.8758 14.6089C17.2015 15.2602 17.5442 15.9116 17.9556 16.4257C19.2754 18.1397 21.3493 18.8939 21.7949 21.2249C21.8635 21.4648 21.8977 21.7048 21.8977 21.9619C21.9492 23.3673 21.3321 24.9099 20.3037 25.8526Z" fill="#EAEA15"/>
</svg>
