<svg width="88" height="93" viewBox="0 0 88 93" fill="none" xmlns="http://www.w3.org/2000/svg">
<g filter="url(#filter0_d_157_1458)">
<rect x="20" y="3" width="48" height="48" rx="24" fill="#FFE2E2"/>
<g filter="url(#filter1_d_157_1458)">
<rect x="20" y="3" width="48" height="48" rx="12" fill="#E6F8FB"/>
</g>
<path d="M55.6024 26.3916L52.6844 25.4244C51.9762 25.1898 51.1934 25.1898 50.4817 25.4244L47.5649 26.3916C46.131 26.8676 45.1661 28.2023 45.1661 29.7144V33.4327C45.1661 37.5955 49.4993 40.0865 50.8282 40.7503C50.8282 40.7503 51.0627 40.9907 51.5842 40.9907C52.1058 40.9907 52.2633 40.8087 52.2633 40.8087C53.6097 40.2673 58 38.1357 58 33.4327V29.7144C58 28.2035 57.0375 26.8687 55.6024 26.3916ZM55.6677 33.4327C55.6677 36.4451 52.8396 38.012 51.6367 38.5406C50.568 37.9677 47.5007 36.0916 47.5007 33.4327V29.7144C47.5007 29.2103 47.8216 28.7658 48.3011 28.6072L51.2167 27.6399C51.4559 27.5618 51.7161 27.5618 51.9517 27.6399L54.8685 28.6072C55.3469 28.7658 55.6689 29.2115 55.6689 29.7144L55.6677 33.4327ZM45.1673 23.5004H35.8336C35.1895 23.5004 34.6669 22.9777 34.6669 22.3337C34.6669 21.6897 35.1895 21.167 35.8336 21.167H45.1673C45.8113 21.167 46.334 21.6897 46.334 22.3337C46.334 22.9777 45.8113 23.5004 45.1673 23.5004ZM42.8339 27.0006C42.8339 27.6446 42.3112 28.1673 41.6672 28.1673H35.8336C35.1895 28.1673 34.6669 27.6446 34.6669 27.0006C34.6669 26.3566 35.1895 25.8339 35.8336 25.8339H41.6672C42.3112 25.8339 42.8339 26.3566 42.8339 27.0006ZM42.8339 31.6674C42.8339 32.3115 42.3112 32.8342 41.6672 32.8342H35.8336C35.1895 32.8342 34.6669 32.3115 34.6669 31.6674C34.6669 31.0234 35.1895 30.5007 35.8336 30.5007H41.6672C42.3112 30.5007 42.8339 31.0234 42.8339 31.6674ZM45.1673 39.8345C45.1673 40.4785 44.6446 41.0012 44.0006 41.0012H35.8336C32.6169 41.0012 30 38.3842 30 35.1676V21.167C30 17.9504 32.6169 15.3334 35.8336 15.3334H36.0331C36.5149 13.9754 37.8123 13 39.3337 13H41.6672C43.1885 13 44.4859 13.9754 44.9678 15.3334H45.1673C48.3839 15.3334 51.0009 17.9504 51.0009 21.167V22.3337C51.0009 22.9777 50.4782 23.5004 49.8342 23.5004C49.1901 23.5004 48.6674 22.9777 48.6674 22.3337V21.167C48.6674 19.2373 47.097 17.6669 45.1673 17.6669H44.0006C43.3566 17.6669 42.8339 17.1442 42.8339 16.5001C42.8339 15.8561 42.31 15.3334 41.6672 15.3334H39.3337C38.6909 15.3334 38.167 15.8573 38.167 16.5001C38.167 17.143 37.6443 17.6669 37.0003 17.6669H35.8336C33.9038 17.6669 32.3334 19.2373 32.3334 21.167V35.1676C32.3334 37.0973 33.9038 38.6677 35.8336 38.6677H44.0006C44.6446 38.6677 45.1673 39.1904 45.1673 39.8345Z" fill="#35D8A7"/>
</g>
<path d="M26.205 74V65.06H27.381V69.044H31.857V65.06H33.045V74H31.857V70.124H27.381V74H26.205ZM37.8732 74.144C37.2492 74.144 36.6932 73.996 36.2052 73.7C35.7172 73.404 35.3332 73 35.0532 72.488C34.7732 71.968 34.6332 71.388 34.6332 70.748C34.6332 70.1 34.7692 69.524 35.0412 69.02C35.3212 68.516 35.6972 68.12 36.1692 67.832C36.6492 67.536 37.1852 67.388 37.7772 67.388C38.2572 67.388 38.6812 67.476 39.0492 67.652C39.4252 67.82 39.7412 68.052 39.9972 68.348C40.2612 68.636 40.4612 68.968 40.5972 69.344C40.7412 69.712 40.8132 70.096 40.8132 70.496C40.8132 70.584 40.8052 70.684 40.7892 70.796C40.7812 70.9 40.7692 71 40.7532 71.096H35.4492V70.136H40.1052L39.5772 70.568C39.6492 70.152 39.6092 69.78 39.4572 69.452C39.3052 69.124 39.0812 68.864 38.7852 68.672C38.4892 68.48 38.1532 68.384 37.7772 68.384C37.4012 68.384 37.0572 68.48 36.7452 68.672C36.4332 68.864 36.1892 69.14 36.0132 69.5C35.8452 69.852 35.7772 70.272 35.8092 70.76C35.7772 71.232 35.8492 71.648 36.0252 72.008C36.2092 72.36 36.4652 72.636 36.7932 72.836C37.1292 73.028 37.4932 73.124 37.8852 73.124C38.3172 73.124 38.6812 73.024 38.9772 72.824C39.2732 72.624 39.5132 72.368 39.6972 72.056L40.6332 72.536C40.5052 72.832 40.3052 73.104 40.0332 73.352C39.7692 73.592 39.4532 73.784 39.0852 73.928C38.7252 74.072 38.3212 74.144 37.8732 74.144ZM44.0823 74.144C43.6583 74.144 43.2823 74.068 42.9543 73.916C42.6343 73.756 42.3823 73.54 42.1983 73.268C42.0143 72.988 41.9223 72.668 41.9223 72.308C41.9223 71.964 41.9943 71.656 42.1383 71.384C42.2903 71.104 42.5223 70.868 42.8343 70.676C43.1543 70.484 43.5543 70.348 44.0343 70.268L46.4343 69.872V70.808L44.2863 71.168C43.8703 71.24 43.5663 71.372 43.3743 71.564C43.1903 71.756 43.0983 71.992 43.0983 72.272C43.0983 72.536 43.2023 72.756 43.4103 72.932C43.6263 73.108 43.8943 73.196 44.2143 73.196C44.6223 73.196 44.9743 73.112 45.2703 72.944C45.5743 72.768 45.8103 72.532 45.9783 72.236C46.1543 71.94 46.2423 71.612 46.2423 71.252V69.608C46.2423 69.256 46.1103 68.972 45.8463 68.756C45.5903 68.532 45.2503 68.42 44.8263 68.42C44.4583 68.42 44.1303 68.516 43.8423 68.708C43.5623 68.892 43.3543 69.14 43.2183 69.452L42.2463 68.948C42.3663 68.652 42.5583 68.388 42.8223 68.156C43.0863 67.916 43.3943 67.728 43.7463 67.592C44.0983 67.456 44.4663 67.388 44.8503 67.388C45.3463 67.388 45.7823 67.484 46.1583 67.676C46.5343 67.86 46.8263 68.12 47.0343 68.456C47.2503 68.784 47.3583 69.168 47.3583 69.608V74H46.2663V72.776L46.4703 72.848C46.3343 73.104 46.1503 73.328 45.9183 73.52C45.6863 73.712 45.4143 73.864 45.1023 73.976C44.7903 74.088 44.4503 74.144 44.0823 74.144ZM49.0886 74V64.916H50.2046V74H49.0886ZM54.5643 74.072C53.9323 74.072 53.4443 73.892 53.1003 73.532C52.7643 73.172 52.5963 72.664 52.5963 72.008V68.6H51.4203V67.532H51.6603C51.9483 67.532 52.1763 67.444 52.3443 67.268C52.5123 67.092 52.5963 66.86 52.5963 66.572V66.044H53.7123V67.532H55.1643V68.6H53.7123V71.972C53.7123 72.188 53.7443 72.376 53.8083 72.536C53.8803 72.696 53.9963 72.824 54.1563 72.92C54.3163 73.008 54.5283 73.052 54.7923 73.052C54.8483 73.052 54.9163 73.048 54.9963 73.04C55.0843 73.032 55.1643 73.024 55.2363 73.016V74C55.1323 74.024 55.0163 74.04 54.8883 74.048C54.7603 74.064 54.6523 74.072 54.5643 74.072ZM56.6941 74V64.916H57.8101V68.792L57.6061 68.684C57.7661 68.276 58.0221 67.96 58.3741 67.736C58.7341 67.504 59.1541 67.388 59.6341 67.388C60.0981 67.388 60.5101 67.492 60.8701 67.7C61.2381 67.908 61.5261 68.196 61.7341 68.564C61.9501 68.932 62.0581 69.348 62.0581 69.812V74H60.9301V70.172C60.9301 69.812 60.8621 69.508 60.7261 69.26C60.5981 69.012 60.4181 68.82 60.1861 68.684C59.9541 68.54 59.6861 68.468 59.3821 68.468C59.0861 68.468 58.8181 68.54 58.5781 68.684C58.3381 68.82 58.1501 69.016 58.0141 69.272C57.8781 69.52 57.8101 69.82 57.8101 70.172V74H56.6941ZM17.0585 90V81.06H18.2345V90H17.0585ZM20.0906 90V83.532H21.1826V84.792L21.0026 84.684C21.1626 84.276 21.4186 83.96 21.7706 83.736C22.1306 83.504 22.5506 83.388 23.0306 83.388C23.4946 83.388 23.9066 83.492 24.2666 83.7C24.6346 83.908 24.9226 84.196 25.1306 84.564C25.3466 84.932 25.4546 85.348 25.4546 85.812V90H24.3266V86.172C24.3266 85.812 24.2626 85.508 24.1346 85.26C24.0066 85.012 23.8226 84.82 23.5826 84.684C23.3506 84.54 23.0826 84.468 22.7786 84.468C22.4746 84.468 22.2026 84.54 21.9626 84.684C21.7306 84.82 21.5466 85.016 21.4106 85.272C21.2746 85.52 21.2066 85.82 21.2066 86.172V90H20.0906ZM29.3675 90.144C28.7195 90.144 28.1555 89.984 27.6755 89.664C27.1955 89.344 26.8555 88.912 26.6555 88.368L27.5435 87.936C27.7275 88.32 27.9795 88.624 28.2995 88.848C28.6195 89.072 28.9755 89.184 29.3675 89.184C29.7195 89.184 30.0115 89.1 30.2435 88.932C30.4755 88.764 30.5915 88.544 30.5915 88.272C30.5915 88.08 30.5355 87.928 30.4235 87.816C30.3195 87.696 30.1915 87.604 30.0395 87.54C29.8875 87.468 29.7475 87.416 29.6195 87.384L28.6475 87.108C28.0635 86.94 27.6355 86.7 27.3635 86.388C27.0995 86.076 26.9675 85.712 26.9675 85.296C26.9675 84.912 27.0635 84.58 27.2555 84.3C27.4555 84.012 27.7235 83.788 28.0595 83.628C28.4035 83.468 28.7875 83.388 29.2115 83.388C29.7795 83.388 30.2875 83.532 30.7355 83.82C31.1915 84.108 31.5155 84.512 31.7075 85.032L30.7955 85.452C30.6515 85.116 30.4355 84.852 30.1475 84.66C29.8595 84.46 29.5355 84.36 29.1755 84.36C28.8475 84.36 28.5875 84.444 28.3955 84.612C28.2035 84.772 28.1075 84.976 28.1075 85.224C28.1075 85.408 28.1555 85.56 28.2515 85.68C28.3475 85.792 28.4635 85.88 28.5995 85.944C28.7355 86 28.8675 86.048 28.9955 86.088L30.0515 86.4C30.5795 86.552 30.9875 86.788 31.2755 87.108C31.5715 87.428 31.7195 87.812 31.7195 88.26C31.7195 88.62 31.6195 88.944 31.4195 89.232C31.2195 89.52 30.9435 89.744 30.5915 89.904C30.2395 90.064 29.8315 90.144 29.3675 90.144ZM35.4724 90.144C35.0084 90.144 34.5884 90.036 34.2124 89.82C33.8444 89.604 33.5564 89.304 33.3484 88.92C33.1484 88.528 33.0484 88.08 33.0484 87.576V83.532H34.1644V87.456C34.1644 87.776 34.2284 88.056 34.3564 88.296C34.4924 88.536 34.6764 88.724 34.9084 88.86C35.1484 88.996 35.4204 89.064 35.7244 89.064C36.0284 89.064 36.2964 88.996 36.5284 88.86C36.7684 88.724 36.9524 88.528 37.0804 88.272C37.2164 88.016 37.2844 87.712 37.2844 87.36V83.532H38.4124V90H37.3204V88.74L37.5004 88.848C37.3484 89.256 37.0884 89.576 36.7204 89.808C36.3604 90.032 35.9444 90.144 35.4724 90.144ZM40.1413 90V83.532H41.2333V84.72L41.1133 84.552C41.2653 84.184 41.4973 83.912 41.8093 83.736C42.1213 83.552 42.5013 83.46 42.9493 83.46H43.3453V84.516H42.7813C42.3253 84.516 41.9573 84.66 41.6773 84.948C41.3973 85.228 41.2573 85.628 41.2573 86.148V90H40.1413ZM46.2327 90.144C45.8087 90.144 45.4327 90.068 45.1047 89.916C44.7847 89.756 44.5327 89.54 44.3487 89.268C44.1647 88.988 44.0727 88.668 44.0727 88.308C44.0727 87.964 44.1447 87.656 44.2887 87.384C44.4407 87.104 44.6727 86.868 44.9847 86.676C45.3047 86.484 45.7047 86.348 46.1847 86.268L48.5847 85.872V86.808L46.4367 87.168C46.0207 87.24 45.7167 87.372 45.5247 87.564C45.3407 87.756 45.2487 87.992 45.2487 88.272C45.2487 88.536 45.3527 88.756 45.5607 88.932C45.7767 89.108 46.0447 89.196 46.3647 89.196C46.7727 89.196 47.1247 89.112 47.4207 88.944C47.7247 88.768 47.9607 88.532 48.1287 88.236C48.3047 87.94 48.3927 87.612 48.3927 87.252V85.608C48.3927 85.256 48.2607 84.972 47.9967 84.756C47.7407 84.532 47.4007 84.42 46.9767 84.42C46.6087 84.42 46.2807 84.516 45.9927 84.708C45.7127 84.892 45.5047 85.14 45.3687 85.452L44.3967 84.948C44.5167 84.652 44.7087 84.388 44.9727 84.156C45.2367 83.916 45.5447 83.728 45.8967 83.592C46.2487 83.456 46.6167 83.388 47.0007 83.388C47.4967 83.388 47.9327 83.484 48.3087 83.676C48.6847 83.86 48.9767 84.12 49.1847 84.456C49.4007 84.784 49.5087 85.168 49.5087 85.608V90H48.4167V88.776L48.6207 88.848C48.4847 89.104 48.3007 89.328 48.0687 89.52C47.8367 89.712 47.5647 89.864 47.2527 89.976C46.9407 90.088 46.6007 90.144 46.2327 90.144ZM51.239 90V83.532H52.331V84.792L52.151 84.684C52.311 84.276 52.567 83.96 52.919 83.736C53.279 83.504 53.699 83.388 54.179 83.388C54.643 83.388 55.055 83.492 55.415 83.7C55.783 83.908 56.071 84.196 56.279 84.564C56.495 84.932 56.603 85.348 56.603 85.812V90H55.475V86.172C55.475 85.812 55.411 85.508 55.283 85.26C55.155 85.012 54.971 84.82 54.731 84.684C54.499 84.54 54.231 84.468 53.927 84.468C53.623 84.468 53.351 84.54 53.111 84.684C52.879 84.82 52.695 85.016 52.559 85.272C52.423 85.52 52.355 85.82 52.355 86.172V90H51.239ZM61.1999 90.144C60.5679 90.144 60.0039 89.996 59.5079 89.7C59.0199 89.404 58.6359 89 58.3559 88.488C58.0759 87.976 57.9359 87.4 57.9359 86.76C57.9359 86.112 58.0759 85.536 58.3559 85.032C58.6359 84.528 59.0199 84.128 59.5079 83.832C60.0039 83.536 60.5679 83.388 61.1999 83.388C61.6239 83.388 62.0199 83.464 62.3879 83.616C62.7559 83.768 63.0799 83.972 63.3599 84.228C63.6399 84.484 63.8439 84.784 63.9719 85.128L62.9759 85.608C62.8239 85.272 62.5919 85 62.2799 84.792C61.9679 84.576 61.6079 84.468 61.1999 84.468C60.8079 84.468 60.4519 84.568 60.1319 84.768C59.8199 84.968 59.5719 85.24 59.3879 85.584C59.2039 85.928 59.1119 86.324 59.1119 86.772C59.1119 87.204 59.2039 87.596 59.3879 87.948C59.5719 88.292 59.8199 88.564 60.1319 88.764C60.4519 88.964 60.8079 89.064 61.1999 89.064C61.6079 89.064 61.9679 88.96 62.2799 88.752C62.5919 88.536 62.8239 88.252 62.9759 87.9L63.9719 88.404C63.8439 88.74 63.6399 89.04 63.3599 89.304C63.0799 89.56 62.7559 89.764 62.3879 89.916C62.0199 90.068 61.6239 90.144 61.1999 90.144ZM68.4064 90.144C67.7824 90.144 67.2264 89.996 66.7384 89.7C66.2504 89.404 65.8664 89 65.5864 88.488C65.3064 87.968 65.1664 87.388 65.1664 86.748C65.1664 86.1 65.3024 85.524 65.5744 85.02C65.8544 84.516 66.2304 84.12 66.7024 83.832C67.1824 83.536 67.7184 83.388 68.3104 83.388C68.7904 83.388 69.2144 83.476 69.5824 83.652C69.9584 83.82 70.2744 84.052 70.5304 84.348C70.7944 84.636 70.9944 84.968 71.1304 85.344C71.2744 85.712 71.3464 86.096 71.3464 86.496C71.3464 86.584 71.3384 86.684 71.3224 86.796C71.3144 86.9 71.3024 87 71.2864 87.096H65.9824V86.136H70.6384L70.1104 86.568C70.1824 86.152 70.1424 85.78 69.9904 85.452C69.8384 85.124 69.6144 84.864 69.3184 84.672C69.0224 84.48 68.6864 84.384 68.3104 84.384C67.9344 84.384 67.5904 84.48 67.2784 84.672C66.9664 84.864 66.7224 85.14 66.5464 85.5C66.3784 85.852 66.3104 86.272 66.3424 86.76C66.3104 87.232 66.3824 87.648 66.5584 88.008C66.7424 88.36 66.9984 88.636 67.3264 88.836C67.6624 89.028 68.0264 89.124 68.4184 89.124C68.8504 89.124 69.2144 89.024 69.5104 88.824C69.8064 88.624 70.0464 88.368 70.2304 88.056L71.1664 88.536C71.0384 88.832 70.8384 89.104 70.5664 89.352C70.3024 89.592 69.9864 89.784 69.6184 89.928C69.2584 90.072 68.8544 90.144 68.4064 90.144Z" fill="#0C192C"/>
<defs>
<filter id="filter0_d_157_1458" x="15" y="0" width="58" height="58" filterUnits="userSpaceOnUse" color-interpolation-filters="sRGB">
<feFlood flood-opacity="0" result="BackgroundImageFix"/>
<feColorMatrix in="SourceAlpha" type="matrix" values="0 0 0 0 0 0 0 0 0 0 0 0 0 0 0 0 0 0 127 0" result="hardAlpha"/>
<feOffset dy="2"/>
<feGaussianBlur stdDeviation="2.5"/>
<feComposite in2="hardAlpha" operator="out"/>
<feColorMatrix type="matrix" values="0 0 0 0 0 0 0 0 0 0 0 0 0 0 0 0 0 0 0.05 0"/>
<feBlend mode="normal" in2="BackgroundImageFix" result="effect1_dropShadow_157_1458"/>
<feBlend mode="normal" in="SourceGraphic" in2="effect1_dropShadow_157_1458" result="shape"/>
</filter>
<filter id="filter1_d_157_1458" x="15" y="0" width="58" height="58" filterUnits="userSpaceOnUse" color-interpolation-filters="sRGB">
<feFlood flood-opacity="0" result="BackgroundImageFix"/>
<feColorMatrix in="SourceAlpha" type="matrix" values="0 0 0 0 0 0 0 0 0 0 0 0 0 0 0 0 0 0 127 0" result="hardAlpha"/>
<feOffset dy="2"/>
<feGaussianBlur stdDeviation="2.5"/>
<feComposite in2="hardAlpha" operator="out"/>
<feColorMatrix type="matrix" values="0 0 0 0 0 0 0 0 0 0 0 0 0 0 0 0 0 0 0.05 0"/>
<feBlend mode="normal" in2="BackgroundImageFix" result="effect1_dropShadow_157_1458"/>
<feBlend mode="normal" in="SourceGraphic" in2="effect1_dropShadow_157_1458" result="shape"/>
</filter>
</defs>
</svg>
