<svg width="25" height="25" viewBox="0 0 25 25" fill="none" xmlns="http://www.w3.org/2000/svg">
<mask id="mask0_102_974" style="mask-type:alpha" maskUnits="userSpaceOnUse" x="0" y="0" width="25" height="25">
<rect x="0.140015" y="0.511719" width="24.4186" height="24.4186" fill="#D9D9D9"/>
</mask>
<g mask="url(#mask0_102_974)">
<path d="M12.2977 18.8259C12.6538 18.8259 12.9548 18.703 13.2007 18.4571C13.4466 18.2112 13.5695 17.9102 13.5695 17.5541C13.5695 17.198 13.4466 16.897 13.2007 16.6512C12.9548 16.4053 12.6538 16.2823 12.2977 16.2823C11.9416 16.2823 11.6406 16.4053 11.3948 16.6512C11.1489 16.897 11.0259 17.198 11.0259 17.5541C11.0259 17.9102 11.1489 18.2112 11.3948 18.4571C11.6406 18.703 11.9416 18.8259 12.2977 18.8259ZM12.3486 22.8957C10.9412 22.8957 9.61848 22.6286 8.38059 22.0945C7.1427 21.5603 6.06591 20.8354 5.15021 19.9197C4.23451 19.004 3.50959 17.9272 2.97543 16.6893C2.44127 15.4514 2.17419 14.1288 2.17419 12.7213C2.17419 11.3138 2.44127 9.99116 2.97543 8.75327C3.50959 7.51538 4.23451 6.43859 5.15021 5.52289C6.06591 4.60719 7.1427 3.88227 8.38059 3.34811C9.61848 2.81395 10.9412 2.54688 12.3486 2.54688C13.7561 2.54688 15.0788 2.81395 16.3166 3.34811C17.5545 3.88227 18.6313 4.60719 19.547 5.52289C20.4627 6.43859 21.1876 7.51538 21.7218 8.75327C22.256 9.99116 22.523 11.3138 22.523 12.7213C22.523 14.1288 22.256 15.4514 21.7218 16.6893C21.1876 17.9272 20.4627 19.004 19.547 19.9197C18.6313 20.8354 17.5545 21.5603 16.3166 22.0945C15.0788 22.6286 13.7561 22.8957 12.3486 22.8957ZM12.4504 8.34629C12.8743 8.34629 13.2431 8.48195 13.5568 8.75327C13.8705 9.02459 14.0274 9.36374 14.0274 9.77071C14.0274 10.1438 13.9129 10.4744 13.684 10.7627C13.4551 11.051 13.1965 11.3223 12.9082 11.5767C12.5182 11.9158 12.1748 12.2889 11.878 12.6959C11.5813 13.1028 11.4329 13.5607 11.4329 14.0694C11.4329 14.3068 11.5219 14.5061 11.7 14.6672C11.878 14.8282 12.0858 14.9088 12.3232 14.9088C12.5775 14.9088 12.7937 14.824 12.9718 14.6544C13.1498 14.4849 13.2643 14.2729 13.3152 14.0185C13.383 13.6624 13.5356 13.3445 13.773 13.0647C14.0104 12.7849 14.2648 12.5178 14.5361 12.2634C14.9261 11.8904 15.261 11.4834 15.5408 11.0425C15.8206 10.6016 15.9605 10.1099 15.9605 9.56722C15.9605 8.7024 15.6087 7.99443 14.9049 7.44331C14.2012 6.8922 13.383 6.61664 12.4504 6.61664C11.806 6.61664 11.1913 6.7523 10.6062 7.02362C10.0212 7.29494 9.57608 7.71039 9.27085 8.26999C9.15215 8.47347 9.114 8.68968 9.15639 8.91861C9.19878 9.14753 9.31325 9.32134 9.49978 9.44004C9.73718 9.5757 9.98306 9.6181 10.2374 9.56722C10.4918 9.51635 10.7037 9.37221 10.8733 9.13481C11.0599 8.88045 11.293 8.68544 11.5728 8.54978C11.8526 8.41412 12.1451 8.34629 12.4504 8.34629Z" fill="white"/>
</g>
</svg>
