<svg width="43" height="46" viewBox="0 0 43 46" fill="none" xmlns="http://www.w3.org/2000/svg">
<rect width="41.4487" height="43.1067" transform="translate(0.748535 0.910156)" fill="white" fill-opacity="0.2"/>
<g filter="url(#filter0_b_638_3770)">
<g clip-path="url(#clip0_638_3770)">
<rect x="13.1445" y="4.61157" width="16.6566" height="14.8059" rx="2.7761" fill="white" fill-opacity="0.2"/>
<path fill-rule="evenodd" clip-rule="evenodd" d="M13.1445 6.46231C13.1445 6.39842 13.1478 6.3353 13.1541 6.27308C13.2489 5.33984 14.037 4.61157 14.9953 4.61157H27.9504C28.9725 4.61157 29.8011 5.44017 29.8011 6.46231V13.8652C29.8011 14.8874 28.9725 15.716 27.9504 15.716H14.9953C13.9731 15.716 13.1445 14.8874 13.1445 13.8652V6.46231ZM14.0699 12.2621V8.06545C14.3421 8.22292 14.6582 8.31304 14.9953 8.31304C16.0174 8.31304 16.846 7.48444 16.846 6.46231C16.846 6.12521 16.7559 5.80916 16.5984 5.53694H26.3473C26.1898 5.80916 26.0997 6.12521 26.0997 6.46231C26.0997 7.48444 26.9283 8.31304 27.9504 8.31304C28.2875 8.31304 28.6036 8.22292 28.8758 8.06545V12.2621C28.6036 12.1046 28.2875 12.0145 27.9504 12.0145C26.9283 12.0145 26.0997 12.8431 26.0997 13.8652C26.0997 14.2023 26.1898 14.5184 26.3473 14.7906H16.5984C16.7559 14.5184 16.846 14.2023 16.846 13.8652C16.846 12.8431 16.0174 12.0145 14.9953 12.0145C14.6582 12.0145 14.3421 12.1046 14.0699 12.2621ZM23.3236 10.1638C23.3236 11.1859 22.495 12.0145 21.4728 12.0145C20.4507 12.0145 19.6221 11.1859 19.6221 10.1638C19.6221 9.14164 20.4507 8.31304 21.4728 8.31304C22.495 8.31304 23.3236 9.14164 23.3236 10.1638Z" fill="#020202"/>
</g>
<rect x="13.6072" y="5.07426" width="15.7312" height="13.8805" rx="2.31342" stroke="#020202" stroke-width="0.925367" stroke-linecap="round" stroke-linejoin="round"/>
</g>
<path d="M7.84903 34.7822V42.522H6.83853V39.013H2.89646V42.522H1.88596V34.7822H2.89646V38.1801H6.83853V34.7822H7.84903ZM10.5405 35.4485C10.3481 35.4485 10.1852 35.3818 10.052 35.2486C9.9187 35.1153 9.85207 34.9525 9.85207 34.76C9.85207 34.5675 9.9187 34.4046 10.052 34.2714C10.1852 34.1381 10.3481 34.0715 10.5405 34.0715C10.7256 34.0715 10.8811 34.1381 11.0069 34.2714C11.1402 34.4046 11.2068 34.5675 11.2068 34.76C11.2068 34.9525 11.1402 35.1153 11.0069 35.2486C10.8811 35.3818 10.7256 35.4485 10.5405 35.4485ZM11.0291 36.4368V42.522H10.0186V36.4368H11.0291ZM15.3498 42.6219C14.8834 42.6219 14.4651 42.5442 14.095 42.3887C13.7249 42.2259 13.4324 42.0038 13.2177 41.7225C13.0031 41.4337 12.8846 41.1043 12.8624 40.7342H13.9062C13.9358 41.0377 14.0765 41.2857 14.3282 41.4782C14.5873 41.6706 14.9241 41.7669 15.3387 41.7669C15.7236 41.7669 16.0272 41.6817 16.2493 41.5115C16.4713 41.3412 16.5824 41.1265 16.5824 40.8674C16.5824 40.6009 16.4639 40.4047 16.227 40.2789C15.9902 40.1456 15.6237 40.0161 15.1277 39.8902C14.6761 39.7718 14.306 39.6533 14.0173 39.5349C13.736 39.409 13.4917 39.2277 13.2844 38.9908C13.0845 38.7465 12.9846 38.4281 12.9846 38.0358C12.9846 37.7249 13.0771 37.4399 13.2622 37.1808C13.4472 36.9216 13.71 36.7181 14.0506 36.57C14.3911 36.4145 14.7798 36.3368 15.2165 36.3368C15.8902 36.3368 16.4343 36.5071 16.8489 36.8476C17.2635 37.1882 17.4855 37.6545 17.5152 38.2468H16.5047C16.4824 37.9284 16.3529 37.673 16.116 37.4806C15.8865 37.2881 15.5756 37.1919 15.1832 37.1919C14.8205 37.1919 14.5318 37.2696 14.3171 37.425C14.1024 37.5805 13.9951 37.7841 13.9951 38.0358C13.9951 38.2357 14.058 38.4022 14.1838 38.5355C14.3171 38.6613 14.48 38.765 14.6724 38.8464C14.8723 38.9204 15.1462 39.0056 15.4942 39.1018C15.9309 39.2203 16.2863 39.3387 16.5602 39.4572C16.8341 39.5682 17.0673 39.7385 17.2598 39.968C17.4596 40.1974 17.5633 40.4973 17.5707 40.8674C17.5707 41.2005 17.4781 41.5004 17.2931 41.7669C17.108 42.0334 16.8452 42.2444 16.5047 42.3998C16.1715 42.5479 15.7866 42.6219 15.3498 42.6219ZM20.6739 37.2696V40.8563C20.6739 41.1524 20.7369 41.3634 20.8627 41.4893C20.9886 41.6077 21.2069 41.6669 21.5179 41.6669H22.2619V42.522H21.3513C20.7887 42.522 20.3667 42.3924 20.0854 42.1333C19.8041 41.8742 19.6634 41.4485 19.6634 40.8563V37.2696H18.875V36.4368H19.6634V34.9043H20.6739V36.4368H22.2619V37.2696H20.6739ZM26.5843 42.6219C26.0143 42.6219 25.4961 42.4924 25.0297 42.2333C24.5707 41.9742 24.208 41.6077 23.9415 41.1339C23.6824 40.6527 23.5528 40.0975 23.5528 39.4683C23.5528 38.8464 23.6861 38.2986 23.9526 37.8248C24.2265 37.3436 24.5966 36.9772 25.063 36.7255C25.5294 36.4664 26.0513 36.3368 26.6288 36.3368C27.2062 36.3368 27.7281 36.4664 28.1945 36.7255C28.6609 36.9772 29.0273 37.3399 29.2938 37.8137C29.5677 38.2875 29.7047 38.839 29.7047 39.4683C29.7047 40.0975 29.564 40.6527 29.2827 41.1339C29.0088 41.6077 28.6349 41.9742 28.1612 42.2333C27.6874 42.4924 27.1618 42.6219 26.5843 42.6219ZM26.5843 41.7336C26.9471 41.7336 27.2876 41.6484 27.6059 41.4782C27.9243 41.3079 28.1797 41.0525 28.3721 40.712C28.572 40.3714 28.672 39.9569 28.672 39.4683C28.672 38.9797 28.5757 38.5651 28.3832 38.2246C28.1908 37.884 27.9391 37.6323 27.6282 37.4695C27.3172 37.2992 26.9804 37.2141 26.6176 37.2141C26.2475 37.2141 25.907 37.2992 25.596 37.4695C25.2925 37.6323 25.0482 37.884 24.8632 38.2246C24.6781 38.5651 24.5855 38.9797 24.5855 39.4683C24.5855 39.9643 24.6744 40.3825 24.852 40.7231C25.0371 41.0636 25.2814 41.319 25.5849 41.4893C25.8885 41.6521 26.2216 41.7336 26.5843 41.7336ZM32.488 37.425C32.6656 37.0771 32.9173 36.8069 33.2431 36.6144C33.5762 36.422 33.9797 36.3257 34.4535 36.3257V37.3695H34.187C33.0543 37.3695 32.488 37.984 32.488 39.2129V42.522H31.4775V36.4368H32.488V37.425ZM41.3054 36.4368L37.6409 45.3869H36.5971L37.7964 42.4553L35.3423 36.4368H36.4639L38.3738 41.3671L40.2616 36.4368H41.3054Z" fill="black"/>
<defs>
<filter id="filter0_b_638_3770" x="9.44306" y="0.910103" width="24.0594" height="22.2088" filterUnits="userSpaceOnUse" color-interpolation-filters="sRGB">
<feFlood flood-opacity="0" result="BackgroundImageFix"/>
<feGaussianBlur in="BackgroundImageFix" stdDeviation="1.85073"/>
<feComposite in2="SourceAlpha" operator="in" result="effect1_backgroundBlur_638_3770"/>
<feBlend mode="normal" in="SourceGraphic" in2="effect1_backgroundBlur_638_3770" result="shape"/>
</filter>
<clipPath id="clip0_638_3770">
<rect x="13.1445" y="4.61157" width="16.6566" height="14.8059" rx="2.7761" fill="white"/>
</clipPath>
</defs>
</svg>
