<svg width="44" height="47" viewBox="0 0 44 47" fill="none" xmlns="http://www.w3.org/2000/svg">
<rect width="43.1758" height="44.9028" transform="translate(0.529922 0.0107422)" fill="white" fill-opacity="0.2"/>
<path d="M8.07214 35.7939V43.8562H7.01953V40.201H2.91322V43.8562H1.86061V35.7939H2.91322V39.3335H7.01953V35.7939H8.07214ZM10.8758 36.488C10.6753 36.488 10.5056 36.4186 10.3668 36.2798C10.228 36.141 10.1586 35.9713 10.1586 35.7708C10.1586 35.5703 10.228 35.4007 10.3668 35.2619C10.5056 35.1231 10.6753 35.0537 10.8758 35.0537C11.0686 35.0537 11.2305 35.1231 11.3616 35.2619C11.5004 35.4007 11.5698 35.5703 11.5698 35.7708C11.5698 35.9713 11.5004 36.141 11.3616 36.2798C11.2305 36.4186 11.0686 36.488 10.8758 36.488ZM11.3847 37.5174V43.8562H10.3321V37.5174H11.3847ZM15.8854 43.9603C15.3996 43.9603 14.9639 43.8793 14.5783 43.7174C14.1928 43.5477 13.8882 43.3164 13.6645 43.0234C13.4409 42.7226 13.3175 42.3795 13.2944 41.9939H14.3817C14.4126 42.3101 14.5591 42.5684 14.8213 42.7689C15.0912 42.9694 15.442 43.0696 15.8739 43.0696C16.2748 43.0696 16.591 42.981 16.8224 42.8036C17.0537 42.6262 17.1694 42.4026 17.1694 42.1327C17.1694 41.8551 17.046 41.6507 16.7992 41.5197C16.5525 41.3808 16.1707 41.2459 15.6541 41.1148C15.1837 40.9914 14.7981 40.868 14.4974 40.7447C14.2043 40.6136 13.9499 40.4246 13.7339 40.1779C13.5257 39.9234 13.4216 39.5918 13.4216 39.1831C13.4216 38.8592 13.518 38.5623 13.7108 38.2924C13.9036 38.0225 14.1774 37.8105 14.5321 37.6562C14.8868 37.4943 15.2916 37.4133 15.7466 37.4133C16.4484 37.4133 17.0151 37.5907 17.447 37.9454C17.8788 38.3001 18.1102 38.786 18.141 39.4029H17.0884C17.0653 39.0713 16.9303 38.8052 16.6836 38.6047C16.4445 38.4043 16.1206 38.304 15.7119 38.304C15.3341 38.304 15.0333 38.385 14.8097 38.5469C14.5861 38.7089 14.4742 38.9209 14.4742 39.1831C14.4742 39.3913 14.5398 39.5648 14.6709 39.7036C14.8097 39.8347 14.9793 39.9427 15.1798 40.0275C15.388 40.1046 15.6734 40.1933 16.0358 40.2935C16.4908 40.4169 16.8609 40.5403 17.1462 40.6637C17.4316 40.7794 17.6745 40.9567 17.875 41.1958C18.0832 41.4348 18.1911 41.7471 18.1988 42.1327C18.1988 42.4797 18.1024 42.792 17.9097 43.0696C17.7169 43.3472 17.4431 43.567 17.0884 43.729C16.7414 43.8832 16.3404 43.9603 15.8854 43.9603ZM21.4314 38.385V42.1211C21.4314 42.4296 21.4969 42.6494 21.628 42.7805C21.7591 42.9038 21.9866 42.9655 22.3105 42.9655H23.0855V43.8562H22.137C21.5509 43.8562 21.1114 43.7213 20.8183 43.4514C20.5253 43.1815 20.3788 42.7381 20.3788 42.1211V38.385H19.5575V37.5174H20.3788V35.9212H21.4314V37.5174H23.0855V38.385H21.4314ZM27.5881 43.9603C26.9943 43.9603 26.4545 43.8254 25.9687 43.5555C25.4906 43.2856 25.1127 42.9038 24.8351 42.4103C24.5652 41.9091 24.4302 41.3307 24.4302 40.6753C24.4302 40.0275 24.569 39.4569 24.8467 38.9633C25.132 38.4621 25.5175 38.0804 26.0034 37.8182C26.4892 37.5483 27.0328 37.4133 27.6343 37.4133C28.2358 37.4133 28.7795 37.5483 29.2653 37.8182C29.7511 38.0804 30.1328 38.4582 30.4104 38.9518C30.6957 39.4453 30.8384 40.0198 30.8384 40.6753C30.8384 41.3307 30.6919 41.9091 30.3989 42.4103C30.1135 42.9038 29.7241 43.2856 29.2306 43.5555C28.7371 43.8254 28.1895 43.9603 27.5881 43.9603ZM27.5881 43.0349C27.9659 43.0349 28.3206 42.9463 28.6522 42.7689C28.9838 42.5915 29.2499 42.3255 29.4504 41.9708C29.6586 41.616 29.7627 41.1842 29.7627 40.6753C29.7627 40.1663 29.6624 39.7345 29.4619 39.3797C29.2614 39.025 28.9992 38.7628 28.6754 38.5932C28.3515 38.4158 28.0006 38.3271 27.6228 38.3271C27.2372 38.3271 26.8825 38.4158 26.5586 38.5932C26.2424 38.7628 25.9879 39.025 25.7952 39.3797C25.6024 39.7345 25.506 40.1663 25.506 40.6753C25.506 41.1919 25.5985 41.6276 25.7836 41.9823C25.9764 42.3371 26.2309 42.6031 26.547 42.7805C26.8632 42.9501 27.2102 43.0349 27.5881 43.0349ZM33.7377 38.5469C33.9227 38.1845 34.1849 37.903 34.5242 37.7025C34.8712 37.502 35.2915 37.4018 35.785 37.4018V38.4891H35.5074C34.3276 38.4891 33.7377 39.1291 33.7377 40.4092V43.8562H32.6851V37.5174H33.7377V38.5469ZM42.9225 37.5174L39.1053 46.8405H38.018L39.2673 43.7868L36.711 37.5174H37.8792L39.8688 42.6532L41.8352 37.5174H42.9225Z" fill="black"/>
<path d="M14.9747 21.9792C14.4952 21.9792 14.0948 21.8186 13.7737 21.4974C13.4525 21.1762 13.2919 20.7759 13.2919 20.2964V10.1203C13.2919 9.6408 13.4525 9.24045 13.7737 8.91927C14.0948 8.59809 14.4952 8.4375 14.9747 8.4375H19.5419V6.99505C19.5419 6.51571 19.7025 6.11545 20.0237 5.79427C20.3448 5.47309 20.7452 5.3125 21.2247 5.3125H24.1091C24.5886 5.3125 24.9889 5.47309 25.3101 5.79427C25.6313 6.11545 25.7919 6.51571 25.7919 6.99505V8.4375H30.3591C30.8386 8.4375 31.2389 8.59809 31.5601 8.91927C31.8813 9.24045 32.0419 9.6408 32.0419 10.1203V14.4932C31.8763 14.3877 31.71 14.2958 31.5432 14.2177C31.3762 14.1396 31.1952 14.0665 31.0002 13.9984V10.1203C31.0002 9.93333 30.9401 9.77969 30.82 9.65937C30.6997 9.53924 30.5461 9.47917 30.3591 9.47917H14.9747C14.7877 9.47917 14.6341 9.53924 14.5138 9.65937C14.3936 9.77969 14.3336 9.93333 14.3336 10.1203V20.2964C14.3336 20.4833 14.3936 20.637 14.5138 20.7573C14.6341 20.8774 14.7877 20.9375 14.9747 20.9375H22.745C22.7837 21.1285 22.8251 21.3075 22.8692 21.4745C22.9133 21.6413 22.9667 21.8095 23.0294 21.9792H14.9747ZM20.5836 8.4375H24.7502V6.99505C24.7502 6.80825 24.6901 6.65469 24.57 6.53437C24.4497 6.41424 24.2961 6.35417 24.1091 6.35417H21.2247C21.0377 6.35417 20.8841 6.41424 20.7638 6.53437C20.6436 6.65469 20.5836 6.80825 20.5836 6.99505V8.4375ZM28.9169 24.0625C27.7563 24.0625 26.7717 23.6582 25.9632 22.8495C25.1546 22.041 24.7502 21.0564 24.7502 19.8958C24.7502 18.7352 25.1546 17.7507 25.9632 16.9422C26.7717 16.1335 27.7563 15.7292 28.9169 15.7292C30.0775 15.7292 31.062 16.1335 31.8705 16.9422C32.6792 17.7507 33.0836 18.7352 33.0836 19.8958C33.0836 21.0564 32.6792 22.041 31.8705 22.8495C31.062 23.6582 30.0775 24.0625 28.9169 24.0625ZM29.3174 19.7276V16.8911H28.5164V20.0641L30.6356 22.1836L31.2046 21.6146L29.3174 19.7276Z" fill="#0E0E0E"/>
</svg>
