<svg width="69" height="51" viewBox="0 0 69 51" fill="none" xmlns="http://www.w3.org/2000/svg">
<path d="M29.8896 2.56364C29.5081 2.65902 29.2219 2.82254 28.9312 3.11324C28.636 3.40848 28.4543 3.73097 28.3725 4.12614C28.3362 4.2942 28.3226 5.57054 28.3226 8.25949V12.1567L28.7768 12.1385C29.7352 12.0976 30.8389 12.2975 31.7928 12.679C32.7421 13.056 33.6096 13.6374 34.3727 14.4096L34.8133 14.8547H38.5651C42.2352 14.8547 42.3215 14.8547 42.4941 14.9455C42.6985 15.05 42.8575 15.3089 42.8575 15.536C42.8575 15.7631 42.6985 16.022 42.4941 16.1265C42.3215 16.2173 42.2352 16.2173 39.0057 16.2173H35.6899L35.8625 16.6171C36.1532 17.2938 36.3576 18.0297 36.4349 18.6837L36.4666 18.9426H39.3918C42.2306 18.9426 42.3215 18.9472 42.4941 19.0335C42.6985 19.1379 42.8575 19.3968 42.8575 19.624C42.8575 19.8511 42.6985 20.11 42.4941 20.2144C42.3215 20.3007 42.2306 20.3053 39.3918 20.3053H36.4712L36.4121 20.7186C36.1532 22.5536 35.0631 24.4296 33.6187 25.5197L33.3053 25.7559H38.7377C42.5622 25.7559 44.2428 25.7422 44.4109 25.7059C45.183 25.5424 45.8235 24.8974 45.987 24.1298C46.0233 23.9572 46.037 21.6452 46.037 16.1492V8.40484H43.3525H40.6681L40.4865 8.30491C40.3774 8.24133 40.2684 8.13231 40.2185 8.03239C40.1367 7.87341 40.1322 7.72352 40.1322 5.17991V2.50005L35.1267 2.50459C31.2795 2.50913 30.0622 2.52276 29.8896 2.56364ZM42.4941 10.8576C42.6985 10.9621 42.8575 11.221 42.8575 11.4481C42.8575 11.6752 42.6985 11.9341 42.4941 12.0386C42.3169 12.1294 42.2397 12.1294 37.1752 12.1294H32.0381L31.8564 12.0295C31.3976 11.7706 31.3931 11.1483 31.8473 10.8758L32.0244 10.7668H37.1707C42.2397 10.7668 42.3169 10.7668 42.4941 10.8576Z" fill="#999999"/>
<path d="M41.4951 4.97531V7.04199H43.5709H45.6512L43.5845 4.97531C42.449 3.83978 41.5133 2.90863 41.5087 2.90863C41.4997 2.90863 41.4951 3.83978 41.4951 4.97531Z" fill="#999999"/>
<path d="M28.3685 13.5191C26.9059 13.7008 25.6841 14.2958 24.6666 15.3268C23.7628 16.2398 23.2449 17.2118 22.977 18.4882C22.8679 19.0242 22.8679 20.2233 22.977 20.7593C23.2449 22.0356 23.7673 23.0122 24.6666 23.9206C25.5796 24.8426 26.5789 25.3832 27.8689 25.6512C28.4003 25.7602 29.5949 25.7602 30.149 25.6512C31.3754 25.4059 32.3928 24.8608 33.3013 23.9615C34.2188 23.0576 34.7638 22.0492 35.0318 20.7593C35.1408 20.2233 35.1408 19.0242 35.0318 18.4882C34.8547 17.6479 34.5322 16.8712 34.0689 16.1717C33.7827 15.7402 32.897 14.8499 32.4746 14.5728C31.7433 14.0868 30.953 13.7553 30.1763 13.6054C29.8084 13.5327 28.6864 13.4782 28.3685 13.5191ZM29.3223 16.3079C29.4404 16.367 29.5358 16.4624 29.5949 16.5805C29.6766 16.744 29.6857 16.8439 29.6857 17.8523V18.9424H30.3216C30.8712 18.9424 30.9848 18.956 31.1392 19.0332C31.3436 19.1377 31.5026 19.3966 31.5026 19.6237C31.5026 19.8508 31.3436 20.1097 31.1392 20.2142C30.9757 20.296 30.8758 20.305 29.9083 20.305C28.9045 20.305 28.85 20.3005 28.6774 20.2051C28.3276 20.0098 28.3231 19.9689 28.3231 18.252C28.3276 16.5487 28.3322 16.5305 28.6683 16.3261C28.8863 16.1944 29.0862 16.1898 29.3223 16.3079Z" fill="#999999"/>
<path d="M15.4023 38.3162H16.7819V41.9424H20.8232V38.3162H22.2028V47.0581H20.8232V43.2366H16.7819V47.0581H15.4023V38.3162ZM24.5491 40.0133C24.2887 40.0133 24.0689 39.9238 23.8898 39.7447C23.7189 39.5657 23.6334 39.35 23.6334 39.0976C23.6334 38.8453 23.7189 38.6296 23.8898 38.4505C24.0689 38.2715 24.2887 38.1819 24.5491 38.1819C24.8015 38.1819 25.0131 38.2715 25.184 38.4505C25.3631 38.6296 25.4526 38.8453 25.4526 39.0976C25.4526 39.35 25.3631 39.5657 25.184 39.7447C25.0131 39.9238 24.8015 40.0133 24.5491 40.0133ZM23.8654 47.0581V41.0755H25.2206V47.0581H23.8654ZM28.9598 47.2535C28.5936 47.2535 28.2639 47.2046 27.9709 47.1069C27.6779 47.0093 27.4215 46.8831 27.2017 46.7285C26.9819 46.5657 26.7947 46.3825 26.6401 46.179C26.4936 45.9755 26.3796 45.7639 26.2982 45.5442L27.5191 45.0314C27.6575 45.3814 27.8569 45.6418 28.1174 45.8128C28.3779 45.9755 28.6587 46.0569 28.9598 46.0569C29.3017 46.0569 29.5703 45.9878 29.7656 45.8494C29.961 45.711 30.0587 45.5564 30.0587 45.3854C30.0587 45.2145 29.9854 45.068 29.8389 44.9459C29.6924 44.8157 29.4156 44.7017 29.0087 44.604L28.154 44.3965C27.9668 44.3558 27.7755 44.2947 27.5802 44.2133C27.393 44.1238 27.218 44.0139 27.0552 43.8837C26.8924 43.7453 26.7581 43.5825 26.6523 43.3953C26.5546 43.2 26.5058 42.9721 26.5058 42.7116C26.5058 42.4186 26.5668 42.1581 26.6889 41.9302C26.8191 41.7023 26.9941 41.511 27.2139 41.3564C27.4337 41.2017 27.686 41.0837 27.9709 41.0023C28.2639 40.9209 28.5732 40.8802 28.8988 40.8802C29.1674 40.8802 29.4238 40.9087 29.668 40.9657C29.9203 41.0226 30.1523 41.1081 30.3639 41.2221C30.5755 41.336 30.7627 41.4825 30.9255 41.6616C31.0965 41.8325 31.2308 42.036 31.3284 42.2721L30.1319 42.7726C30.018 42.5122 29.8389 42.325 29.5947 42.211C29.3505 42.0889 29.1023 42.0279 28.8499 42.0279C28.736 42.0279 28.618 42.0442 28.4959 42.0767C28.3819 42.1011 28.2761 42.1418 28.1784 42.1988C28.0889 42.2476 28.0116 42.3128 27.9465 42.3942C27.8895 42.4755 27.861 42.5651 27.861 42.6628C27.861 42.8255 27.9302 42.9558 28.0686 43.0535C28.2151 43.143 28.4348 43.2244 28.7279 43.2976L29.6436 43.5296C30.2622 43.6843 30.7139 43.9203 30.9988 44.2378C31.2918 44.5471 31.4383 44.9133 31.4383 45.3366C31.4383 45.5971 31.3773 45.8412 31.2552 46.0692C31.1412 46.2971 30.9744 46.5005 30.7546 46.6796C30.5348 46.8587 30.2703 46.9971 29.961 47.0947C29.6598 47.2005 29.3261 47.2535 28.9598 47.2535ZM33.0117 42.2721H31.9617V41.0755H33.0117V39.2442H34.3669V41.0755H35.8443V42.2721H34.3669V44.9337C34.3669 45.0802 34.3832 45.2145 34.4158 45.3366C34.4483 45.4587 34.4972 45.5604 34.5623 45.6418C34.7007 45.7965 34.8757 45.8738 35.0873 45.8738C35.2175 45.8738 35.3193 45.8657 35.3925 45.8494C35.4658 45.825 35.5431 45.7924 35.6245 45.7517L36.0396 46.9482C35.8687 47.0133 35.6896 47.0622 35.5024 47.0947C35.3152 47.1354 35.1036 47.1558 34.8675 47.1558C34.5826 47.1558 34.3303 47.111 34.1105 47.0215C33.8908 46.9319 33.6995 46.8098 33.5367 46.6552C33.1867 46.3052 33.0117 45.829 33.0117 45.2267V42.2721ZM39.6908 40.8802C40.1466 40.8802 40.5658 40.9616 40.9483 41.1244C41.3309 41.279 41.6605 41.4988 41.9373 41.7837C42.214 42.0686 42.4297 42.4064 42.5844 42.7971C42.739 43.1878 42.8163 43.611 42.8163 44.0668C42.8163 44.5226 42.739 44.9459 42.5844 45.3366C42.4297 45.7273 42.214 46.0651 41.9373 46.35C41.6605 46.6348 41.3309 46.8587 40.9483 47.0215C40.5658 47.1761 40.1466 47.2535 39.6908 47.2535C39.2349 47.2535 38.8158 47.1761 38.4332 47.0215C38.0506 46.8587 37.721 46.6348 37.4442 46.35C37.1675 46.0651 36.9518 45.7273 36.7972 45.3366C36.6425 44.9459 36.5652 44.5226 36.5652 44.0668C36.5652 43.611 36.6425 43.1878 36.7972 42.7971C36.9518 42.4064 37.1675 42.0686 37.4442 41.7837C37.721 41.4988 38.0506 41.279 38.4332 41.1244C38.8158 40.9616 39.2349 40.8802 39.6908 40.8802ZM39.6908 45.9959C39.9187 45.9959 40.1384 45.9511 40.3501 45.8616C40.5617 45.7721 40.7489 45.6459 40.9117 45.4831C41.0826 45.3203 41.2169 45.1209 41.3146 44.8848C41.4123 44.6407 41.4611 44.368 41.4611 44.0668C41.4611 43.7657 41.4123 43.4971 41.3146 43.261C41.2169 43.0168 41.0826 42.8133 40.9117 42.6505C40.7489 42.4878 40.5617 42.3616 40.3501 42.2721C40.1384 42.1825 39.9187 42.1378 39.6908 42.1378C39.4629 42.1378 39.2431 42.1825 39.0315 42.2721C38.8198 42.3616 38.6286 42.4878 38.4576 42.6505C38.2948 42.8133 38.1646 43.0168 38.0669 43.261C37.9692 43.4971 37.9204 43.7657 37.9204 44.0668C37.9204 44.368 37.9692 44.6407 38.0669 44.8848C38.1646 45.1209 38.2948 45.3203 38.4576 45.4831C38.6286 45.6459 38.8198 45.7721 39.0315 45.8616C39.2431 45.9511 39.4629 45.9959 39.6908 45.9959ZM43.7271 41.0755H45.0091V41.979H45.0823C45.1556 41.8244 45.2532 41.6819 45.3753 41.5517C45.5056 41.4133 45.648 41.2994 45.8027 41.2098C45.9655 41.1122 46.1323 41.0389 46.3032 40.9901C46.4823 40.9331 46.6532 40.9046 46.816 40.9046C47.0114 40.9046 47.1782 40.9209 47.3166 40.9535C47.455 40.986 47.5811 41.0308 47.6951 41.0878L47.3044 42.3453C47.2149 42.3046 47.1131 42.2761 46.9992 42.2599C46.8934 42.2354 46.7631 42.2232 46.6085 42.2232C46.3887 42.2232 46.1852 42.268 45.998 42.3575C45.8189 42.4471 45.6602 42.5692 45.5218 42.7238C45.3835 42.8785 45.2736 43.0616 45.1922 43.2732C45.1189 43.4848 45.0823 43.7087 45.0823 43.9447V47.0581H43.7271V41.0755ZM50.3998 46.7162L47.9091 41.0755H49.4231L51.0714 45.0436H51.1324L52.7318 41.0755H54.2336L50.4853 49.6953H49.0446L50.3998 46.7162Z" fill="#999999"/>
</svg>
