<svg width="41" height="44" viewBox="0 0 41 44" fill="none" xmlns="http://www.w3.org/2000/svg">
<path d="M7.10049 33.3501V41.0898H6.08999V37.5809H2.14793V41.0898H1.13742V33.3501H2.14793V36.748H6.08999V33.3501H7.10049ZM9.79201 34.0163C9.59953 34.0163 9.43667 33.9497 9.30342 33.8165C9.17016 33.6832 9.10354 33.5203 9.10354 33.3279C9.10354 33.1354 9.17016 32.9725 9.30342 32.8393C9.43667 32.706 9.59953 32.6394 9.79201 32.6394C9.97708 32.6394 10.1325 32.706 10.2584 32.8393C10.3916 32.9725 10.4583 33.1354 10.4583 33.3279C10.4583 33.5203 10.3916 33.6832 10.2584 33.8165C10.1325 33.9497 9.97708 34.0163 9.79201 34.0163ZM10.2806 35.0046V41.0898H9.2701V35.0046H10.2806ZM14.6013 41.1898C14.1349 41.1898 13.7166 41.1121 13.3465 40.9566C12.9763 40.7937 12.6839 40.5716 12.4692 40.2903C12.2545 40.0016 12.1361 39.6722 12.1139 39.302H13.1577C13.1873 39.6056 13.328 39.8536 13.5797 40.046C13.8388 40.2385 14.1756 40.3347 14.5902 40.3347C14.9751 40.3347 15.2786 40.2496 15.5007 40.0793C15.7228 39.9091 15.8339 39.6944 15.8339 39.4353C15.8339 39.1688 15.7154 38.9726 15.4785 38.8468C15.2416 38.7135 14.8752 38.5839 14.3792 38.4581C13.9276 38.3397 13.5574 38.2212 13.2687 38.1028C12.9874 37.9769 12.7431 37.7955 12.5358 37.5586C12.336 37.3143 12.236 36.996 12.236 36.6037C12.236 36.2927 12.3286 36.0077 12.5136 35.7486C12.6987 35.4895 12.9615 35.2859 13.302 35.1379C13.6426 34.9824 14.0312 34.9047 14.468 34.9047C15.1417 34.9047 15.6858 35.075 16.1004 35.4155C16.5149 35.756 16.737 36.2224 16.7666 36.8146H15.7561C15.7339 36.4963 15.6044 36.2409 15.3675 36.0484C15.138 35.856 14.8271 35.7597 14.4347 35.7597C14.072 35.7597 13.7832 35.8375 13.5686 35.9929C13.3539 36.1484 13.2465 36.352 13.2465 36.6037C13.2465 36.8035 13.3094 36.9701 13.4353 37.1034C13.5686 37.2292 13.7314 37.3329 13.9239 37.4143C14.1238 37.4883 14.3977 37.5734 14.7456 37.6697C15.1824 37.7881 15.5377 37.9066 15.8116 38.025C16.0856 38.1361 16.3187 38.3063 16.5112 38.5358C16.7111 38.7653 16.8147 39.0651 16.8221 39.4353C16.8221 39.7684 16.7296 40.0682 16.5445 40.3347C16.3595 40.6012 16.0967 40.8122 15.7561 40.9677C15.423 41.1158 15.038 41.1898 14.6013 41.1898ZM19.9254 35.8375V39.4242C19.9254 39.7203 19.9883 39.9313 20.1142 40.0571C20.24 40.1756 20.4584 40.2348 20.7693 40.2348H21.5133V41.0898H20.6028C20.0401 41.0898 19.6182 40.9603 19.3369 40.7012C19.0555 40.4421 18.9149 40.0164 18.9149 39.4242V35.8375H18.1265V35.0046H18.9149V33.4722H19.9254V35.0046H21.5133V35.8375H19.9254ZM25.8358 41.1898C25.2658 41.1898 24.7476 41.0602 24.2812 40.8011C23.8222 40.542 23.4595 40.1756 23.193 39.7018C22.9338 39.2206 22.8043 38.6654 22.8043 38.0361C22.8043 37.4143 22.9375 36.8665 23.2041 36.3927C23.478 35.9115 23.8481 35.545 24.3145 35.2933C24.7809 35.0342 25.3028 34.9047 25.8802 34.9047C26.4576 34.9047 26.9796 35.0342 27.4459 35.2933C27.9123 35.545 28.2788 35.9078 28.5453 36.3816C28.8192 36.8554 28.9561 37.4069 28.9561 38.0361C28.9561 38.6654 28.8155 39.2206 28.5342 39.7018C28.2603 40.1756 27.8864 40.542 27.4126 40.8011C26.9388 41.0602 26.4132 41.1898 25.8358 41.1898ZM25.8358 40.3014C26.1985 40.3014 26.5391 40.2163 26.8574 40.046C27.1757 39.8758 27.4311 39.6204 27.6236 39.2798C27.8235 38.9393 27.9234 38.5247 27.9234 38.0361C27.9234 37.5475 27.8272 37.133 27.6347 36.7924C27.4422 36.4519 27.1905 36.2002 26.8796 36.0373C26.5687 35.8671 26.2319 35.7819 25.8691 35.7819C25.499 35.7819 25.1584 35.8671 24.8475 36.0373C24.544 36.2002 24.2997 36.4519 24.1146 36.7924C23.9295 37.133 23.837 37.5475 23.837 38.0361C23.837 38.5321 23.9258 38.9504 24.1035 39.2909C24.2886 39.6315 24.5329 39.8869 24.8364 40.0571C25.1399 40.22 25.4731 40.3014 25.8358 40.3014ZM31.7394 35.9929C31.9171 35.645 32.1688 35.3748 32.4945 35.1823C32.8277 34.9898 33.2311 34.8936 33.7049 34.8936V35.9374H33.4384C32.3058 35.9374 31.7394 36.5518 31.7394 37.7807V41.0898H30.7289V35.0046H31.7394V35.9929ZM40.5569 35.0046L36.8924 43.9548H35.8486L37.0479 41.0232L34.5938 35.0046H35.7153L37.6253 39.935L39.513 35.0046H40.5569Z" fill="black"/>
<path d="M13.867 21.0898C13.4066 21.0898 13.0223 20.9357 12.714 20.6273C12.4056 20.319 12.2515 19.9347 12.2515 19.4743V9.70534C12.2515 9.24501 12.4056 8.86068 12.714 8.55234C13.0223 8.24401 13.4066 8.08984 13.867 8.08984H18.2515V6.70509C18.2515 6.24493 18.4056 5.86068 18.714 5.55234C19.0223 5.24401 19.4066 5.08984 19.867 5.08984H22.636C23.0963 5.08984 23.4806 5.24401 23.789 5.55234C24.0973 5.86068 24.2515 6.24493 24.2515 6.70509V8.08984H28.636C29.0963 8.08984 29.4806 8.24401 29.789 8.55234C30.0973 8.86068 30.2515 9.24501 30.2515 9.70534V13.9033C30.0925 13.802 29.9329 13.7138 29.7727 13.6388C29.6124 13.5638 29.4386 13.4937 29.2515 13.4283V9.70534C29.2515 9.52584 29.1938 9.37834 29.0785 9.26284C28.963 9.14751 28.8155 9.08984 28.636 9.08984H13.867C13.6875 9.08984 13.54 9.14751 13.4245 9.26284C13.3091 9.37834 13.2515 9.52584 13.2515 9.70534V19.4743C13.2515 19.6538 13.3091 19.8013 13.4245 19.9168C13.54 20.0322 13.6875 20.0898 13.867 20.0898H21.3265C21.3636 20.2732 21.4034 20.445 21.4457 20.6053C21.488 20.7655 21.5393 20.927 21.5995 21.0898H13.867ZM19.2515 8.08984H23.2515V6.70509C23.2515 6.52576 23.1938 6.37834 23.0785 6.26284C22.963 6.14751 22.8155 6.08984 22.636 6.08984H19.867C19.6875 6.08984 19.54 6.14751 19.4245 6.26284C19.3091 6.37834 19.2515 6.52576 19.2515 6.70509V8.08984ZM27.2515 23.0898C26.1373 23.0898 25.1921 22.7017 24.416 21.9253C23.6396 21.1492 23.2515 20.204 23.2515 19.0898C23.2515 17.9757 23.6396 17.0305 24.416 16.2543C25.1921 15.478 26.1373 15.0898 27.2515 15.0898C28.3656 15.0898 29.3108 15.478 30.087 16.2543C30.8633 17.0305 31.2515 17.9757 31.2515 19.0898C31.2515 20.204 30.8633 21.1492 30.087 21.9253C29.3108 22.7017 28.3656 23.0898 27.2515 23.0898ZM27.636 18.9283V16.2053H26.867V19.2513L28.9015 21.2861L29.4477 20.7398L27.636 18.9283Z" fill="#0E0E0E"/>
</svg>
