<svg width="69" height="51" viewBox="0 0 69 51" fill="none" xmlns="http://www.w3.org/2000/svg">
<path d="M32.9547 2.87237C29.1938 3.36838 25.9671 5.66852 24.2937 9.04243C23.5361 10.5686 23.1873 11.9694 23.1328 13.719C23.0946 14.8582 23.1927 15.7793 23.4489 16.7986C24.9151 22.6307 30.7309 26.299 36.6175 25.1107C41.2723 24.1678 44.8152 20.4287 45.5456 15.6812C45.6709 14.8691 45.6764 13.2775 45.551 12.4654C44.8533 7.90871 41.5884 4.26227 37.2062 3.1449C35.8708 2.80151 34.2629 2.70341 32.9547 2.87237ZM31.9627 7.77244C32.3388 7.92506 32.5459 8.33931 32.4642 8.7699C32.4369 8.93342 32.3115 9.09694 31.8482 9.56024L31.2759 10.1489L35.5873 10.1598C39.8443 10.1762 39.8988 10.1762 40.0459 10.2906C40.3348 10.5032 40.422 10.6776 40.422 11.021C40.422 11.3644 40.3348 11.5388 40.0459 11.7514C39.8988 11.8658 39.8443 11.8658 35.5873 11.8822L31.2759 11.8931L31.8482 12.4817C32.4696 13.1086 32.5459 13.2557 32.4642 13.6754C32.4151 13.948 32.0881 14.2695 31.8155 14.3186C31.3631 14.4058 31.265 14.3349 29.7825 12.8578C27.8312 10.9065 27.8366 11.1409 29.728 9.22775C31.2705 7.67433 31.4558 7.55442 31.9627 7.77244ZM37.6477 13.9589C38.0074 14.2205 40.3294 16.5969 40.3893 16.7605C40.4765 16.9948 40.4602 17.2728 40.3457 17.4963C40.2094 17.7525 37.6913 20.2597 37.4896 20.336C36.7974 20.5977 36.1161 20.0145 36.3014 19.3222C36.345 19.1696 36.503 18.9679 36.9064 18.57C37.2062 18.2703 37.4514 18.0086 37.4514 17.9868C37.4514 17.9596 35.5383 17.9432 33.2 17.9432C28.4852 17.9432 28.7687 17.965 28.4743 17.5835C28.3544 17.4254 28.3272 17.3273 28.3272 17.0929C28.3272 16.7659 28.4307 16.5806 28.7305 16.3735L28.9104 16.2535H33.1782C35.5274 16.2535 37.4514 16.2372 37.4514 16.2099C37.4514 16.1881 37.228 15.9483 36.9554 15.6812C36.2087 14.9454 36.0888 14.5421 36.4867 14.0897C36.6938 13.8553 36.8028 13.8062 37.1571 13.8062C37.3806 13.8008 37.4787 13.8335 37.6477 13.9589Z" fill="#49B6F4"/>
<path d="M18.8326 38.3162H20.2122V41.9424H24.2535V38.3162H25.6331V47.0581H24.2535V43.2366H20.2122V47.0581H18.8326V38.3162ZM29.9818 40.8802C30.4376 40.8802 30.8568 40.9616 31.2393 41.1244C31.6219 41.279 31.9515 41.4988 32.2283 41.7837C32.505 42.0686 32.7207 42.4064 32.8754 42.7971C33.03 43.1878 33.1073 43.611 33.1073 44.0668C33.1073 44.5226 33.03 44.9459 32.8754 45.3366C32.7207 45.7273 32.505 46.0651 32.2283 46.35C31.9515 46.6348 31.6219 46.8587 31.2393 47.0215C30.8568 47.1761 30.4376 47.2535 29.9818 47.2535C29.5259 47.2535 29.1068 47.1761 28.7242 47.0215C28.3416 46.8587 28.012 46.6348 27.7352 46.35C27.4585 46.0651 27.2428 45.7273 27.0881 45.3366C26.9335 44.9459 26.8562 44.5226 26.8562 44.0668C26.8562 43.611 26.9335 43.1878 27.0881 42.7971C27.2428 42.4064 27.4585 42.0686 27.7352 41.7837C28.012 41.4988 28.3416 41.279 28.7242 41.1244C29.1068 40.9616 29.5259 40.8802 29.9818 40.8802ZM29.9818 45.9959C30.2097 45.9959 30.4294 45.9511 30.6411 45.8616C30.8527 45.7721 31.0399 45.6459 31.2027 45.4831C31.3736 45.3203 31.5079 45.1209 31.6056 44.8848C31.7033 44.6407 31.7521 44.368 31.7521 44.0668C31.7521 43.7657 31.7033 43.4971 31.6056 43.261C31.5079 43.0168 31.3736 42.8133 31.2027 42.6505C31.0399 42.4878 30.8527 42.3616 30.6411 42.2721C30.4294 42.1825 30.2097 42.1378 29.9818 42.1378C29.7538 42.1378 29.5341 42.1825 29.3224 42.2721C29.1108 42.3616 28.9195 42.4878 28.7486 42.6505C28.5858 42.8133 28.4556 43.0168 28.3579 43.261C28.2602 43.4971 28.2114 43.7657 28.2114 44.0668C28.2114 44.368 28.2602 44.6407 28.3579 44.8848C28.4556 45.1209 28.5858 45.3203 28.7486 45.4831C28.9195 45.6459 29.1108 45.7721 29.3224 45.8616C29.5341 45.9511 29.7538 45.9959 29.9818 45.9959ZM34.0181 41.0755H35.3V41.8814H35.3733C35.5605 41.5883 35.821 41.3482 36.1547 41.161C36.4884 40.9738 36.8425 40.8802 37.2169 40.8802C37.6646 40.8802 38.0471 40.986 38.3646 41.1976C38.6902 41.4011 38.9262 41.6697 39.0727 42.0035C39.2762 41.686 39.5489 41.4215 39.8907 41.2098C40.2326 40.9901 40.6437 40.8802 41.1239 40.8802C41.4902 40.8802 41.8076 40.9412 42.0762 41.0633C42.3448 41.1773 42.5646 41.3401 42.7355 41.5517C42.9146 41.7633 43.0489 42.0197 43.1384 42.3209C43.228 42.6139 43.2727 42.9436 43.2727 43.3098V47.0581H41.9175V43.5418C41.9175 43.0209 41.8157 42.6587 41.6123 42.4552C41.4169 42.2436 41.128 42.1378 40.7454 42.1378C40.5256 42.1378 40.3262 42.1866 40.1471 42.2843C39.9762 42.3819 39.8297 42.5162 39.7076 42.6872C39.5855 42.85 39.4919 43.0412 39.4268 43.261C39.3617 43.4808 39.3291 43.7128 39.3291 43.9569V47.0581H37.9739V43.5418C37.9739 43.0209 37.8681 42.6587 37.6564 42.4552C37.453 42.2436 37.1559 42.1378 36.7652 42.1378C36.5535 42.1378 36.3623 42.1866 36.1913 42.2843C36.0204 42.3819 35.8739 42.5162 35.7518 42.6872C35.6297 42.85 35.5361 43.0412 35.471 43.261C35.4059 43.4808 35.3733 43.7128 35.3733 43.9569V47.0581H34.0181V41.0755ZM50.1369 45.6296C49.8846 46.0936 49.5265 46.4802 49.0625 46.7895C48.5986 47.0988 48.0288 47.2535 47.3532 47.2535C46.9055 47.2535 46.4904 47.1761 46.1079 47.0215C45.7334 46.8587 45.4079 46.6348 45.1311 46.35C44.8544 46.0651 44.6387 45.7314 44.484 45.3488C44.3294 44.9581 44.252 44.5308 44.252 44.0668C44.252 43.6354 44.3253 43.2285 44.4718 42.8459C44.6183 42.4552 44.8218 42.1174 45.0823 41.8325C45.3509 41.5395 45.6724 41.3075 46.0468 41.1366C46.4212 40.9657 46.8363 40.8802 47.2922 40.8802C47.7561 40.8802 48.1672 40.9575 48.5253 41.1122C48.8916 41.2668 49.2009 41.4825 49.4532 41.7593C49.7055 42.036 49.8968 42.3697 50.027 42.7604C50.1654 43.1511 50.2346 43.5785 50.2346 44.0424C50.2346 44.0831 50.2346 44.1197 50.2346 44.1523C50.2265 44.193 50.2224 44.2296 50.2224 44.2622C50.2142 44.2947 50.2102 44.3273 50.2102 44.3598H45.6073C45.6317 44.6447 45.7009 44.893 45.8148 45.1046C45.9288 45.3162 46.0672 45.4912 46.2299 45.6296C46.4009 45.768 46.5881 45.8697 46.7916 45.9348C46.9951 46 47.1945 46.0325 47.3898 46.0325C47.7805 46.0325 48.102 45.9389 48.3544 45.7517C48.6067 45.5645 48.8142 45.3325 48.977 45.0558L50.1369 45.6296ZM48.8794 43.3221C48.8631 43.2 48.8224 43.0657 48.7573 42.9192C48.7003 42.7645 48.6067 42.6261 48.4765 42.504C48.3544 42.3738 48.1916 42.2639 47.9881 42.1744C47.7927 42.0849 47.5526 42.0401 47.2677 42.0401C46.877 42.0401 46.5392 42.1581 46.2544 42.3942C45.9776 42.6221 45.7904 42.9314 45.6927 43.3221H48.8794Z" fill="#49B6F4"/>
</svg>
