<svg width="46" height="49" viewBox="0 0 46 49" fill="none" xmlns="http://www.w3.org/2000/svg">
<g filter="url(#filter0_b_829_5803)">
<path d="M13.917 9.39592L23.292 2.10425L32.667 9.39592V20.8542C32.667 21.4068 32.4475 21.9367 32.0568 22.3274C31.6661 22.7181 31.1362 22.9376 30.5837 22.9376H16.0004C15.4478 22.9376 14.9179 22.7181 14.5272 22.3274C14.1365 21.9367 13.917 21.4068 13.917 20.8542V9.39592Z" stroke="black" stroke-width="0.963923" stroke-linecap="round" stroke-linejoin="round"/>
</g>
<path d="M19.6254 14.4486C19.6254 13.66 20.2647 13.0208 21.0532 13.0208H25.5309C26.3194 13.0208 26.9587 13.66 26.9587 14.4486V22.4374H19.6254V14.4486Z" stroke="black"/>
<path d="M11.5635 37.7522V45.8145H10.5109V42.1593H6.40459V45.8145H5.35198V37.7522H6.40459V41.2917H10.5109V37.7522H11.5635ZM16.588 45.9186C15.9943 45.9186 15.4545 45.7836 14.9687 45.5137C14.4905 45.2438 14.1127 44.8621 13.8351 44.3686C13.5652 43.8673 13.4302 43.289 13.4302 42.6335C13.4302 41.9858 13.569 41.4151 13.8466 40.9216C14.132 40.4203 14.5175 40.0386 15.0034 39.7764C15.4892 39.5065 16.0328 39.3716 16.6343 39.3716C17.2358 39.3716 17.7795 39.5065 18.2653 39.7764C18.7511 40.0386 19.1328 40.4165 19.4104 40.91C19.6957 41.4035 19.8384 41.978 19.8384 42.6335C19.8384 43.289 19.6919 43.8673 19.3988 44.3686C19.1135 44.8621 18.7241 45.2438 18.2306 45.5137C17.737 45.7836 17.1895 45.9186 16.588 45.9186ZM16.588 44.9932C16.9659 44.9932 17.3206 44.9045 17.6522 44.7271C17.9838 44.5498 18.2498 44.2837 18.4503 43.929C18.6586 43.5743 18.7627 43.1425 18.7627 42.6335C18.7627 42.1246 18.6624 41.6927 18.4619 41.338C18.2614 40.9833 17.9992 40.7211 17.6753 40.5514C17.3515 40.3741 17.0006 40.2854 16.6227 40.2854C16.2372 40.2854 15.8825 40.3741 15.5586 40.5514C15.2424 40.7211 14.9879 40.9833 14.7951 41.338C14.6024 41.6927 14.506 42.1246 14.506 42.6335C14.506 43.1502 14.5985 43.5859 14.7836 43.9406C14.9764 44.2953 15.2308 44.5614 15.547 44.7387C15.8632 44.9084 16.2102 44.9932 16.588 44.9932ZM29.3078 39.36C29.8013 39.36 30.2408 39.4641 30.6264 39.6723C31.012 39.8728 31.3166 40.1774 31.5402 40.5861C31.7638 40.9948 31.8757 41.4922 31.8757 42.0783V45.8145H30.8346V42.2287C30.8346 41.5963 30.6765 41.1144 30.3604 40.7828C30.0519 40.4435 29.6316 40.2738 29.0996 40.2738C28.552 40.2738 28.1164 40.4512 27.7925 40.8059C27.4686 41.1529 27.3067 41.658 27.3067 42.3212V45.8145H26.2656V42.2287C26.2656 41.5963 26.1075 41.1144 25.7914 40.7828C25.4829 40.4435 25.0626 40.2738 24.5306 40.2738C23.9831 40.2738 23.5474 40.4512 23.2235 40.8059C22.8996 41.1529 22.7377 41.658 22.7377 42.3212V45.8145H21.6851V39.4757H22.7377V40.3895C22.9459 40.0579 23.2235 39.8034 23.5705 39.6261C23.9252 39.4487 24.3146 39.36 24.7388 39.36C25.2709 39.36 25.7412 39.4796 26.15 39.7186C26.5587 39.9577 26.8633 40.3085 27.0638 40.7712C27.2411 40.3239 27.5341 39.9769 27.9428 39.7302C28.3516 39.4834 28.8065 39.36 29.3078 39.36ZM39.8485 42.4022C39.8485 42.6027 39.837 42.8147 39.8138 43.0384H34.7475C34.786 43.663 34.9981 44.1526 35.3836 44.5074C35.7769 44.8544 36.2512 45.0279 36.8064 45.0279C37.2614 45.0279 37.6392 44.9238 37.94 44.7156C38.2484 44.4997 38.4643 44.2143 38.5877 43.8596H39.7213C39.5516 44.4688 39.2123 44.9662 38.7034 45.3518C38.1944 45.7296 37.5621 45.9186 36.8064 45.9186C36.2049 45.9186 35.6651 45.7836 35.187 45.5137C34.7166 45.2438 34.3465 44.8621 34.0766 44.3686C33.8067 43.8673 33.6717 43.289 33.6717 42.6335C33.6717 41.978 33.8028 41.4035 34.065 40.91C34.3272 40.4165 34.6935 40.0386 35.1639 39.7764C35.642 39.5065 36.1895 39.3716 36.8064 39.3716C37.4079 39.3716 37.94 39.5027 38.4026 39.7649C38.8653 40.0271 39.2201 40.3895 39.4668 40.8522C39.7213 41.3071 39.8485 41.8238 39.8485 42.4022ZM38.7612 42.1824C38.7612 41.7814 38.6725 41.4382 38.4952 41.1529C38.3178 40.8599 38.0749 40.6401 37.7665 40.4936C37.4657 40.3394 37.1303 40.2623 36.7601 40.2623C36.228 40.2623 35.7731 40.4319 35.3952 40.7712C35.0251 41.1105 34.813 41.5809 34.759 42.1824H38.7612Z" fill="black"/>
<defs>
<filter id="filter0_b_829_5803" x="9.57939" y="-2.23338" width="27.4253" height="29.5085" filterUnits="userSpaceOnUse" color-interpolation-filters="sRGB">
<feFlood flood-opacity="0" result="BackgroundImageFix"/>
<feGaussianBlur in="BackgroundImageFix" stdDeviation="1.92785"/>
<feComposite in2="SourceAlpha" operator="in" result="effect1_backgroundBlur_829_5803"/>
<feBlend mode="normal" in="SourceGraphic" in2="effect1_backgroundBlur_829_5803" result="shape"/>
</filter>
</defs>
</svg>
