<svg width="69" height="50" viewBox="0 0 69 50" fill="none" xmlns="http://www.w3.org/2000/svg">
<path d="M32.5129 2.69806C28.752 3.19406 25.5252 5.4942 23.8519 8.86811C23.0943 10.3943 22.7454 11.7951 22.6909 13.5447C22.6528 14.6839 22.7509 15.605 23.0071 16.6243C24.4733 22.4564 30.289 26.1247 36.1757 24.9364C40.8305 23.9935 44.3733 20.2544 45.1037 15.5069C45.2291 14.6948 45.2345 13.1032 45.1092 12.2911C44.4115 7.73439 41.1466 4.08795 36.7643 2.97058C35.4289 2.6272 33.821 2.52909 32.5129 2.69806ZM31.5209 7.59813C31.897 7.75074 32.1041 8.16499 32.0223 8.59558C31.9951 8.7591 31.8697 8.92262 31.4064 9.38592L30.8341 9.97458L35.1455 9.98548C39.4024 10.0018 39.4569 10.0018 39.6041 10.1163C39.893 10.3289 39.9802 10.5033 39.9802 10.8467C39.9802 11.1901 39.893 11.3645 39.6041 11.5771C39.4569 11.6915 39.4024 11.6915 35.1455 11.7079L30.8341 11.7188L31.4064 12.3074C32.0278 12.9342 32.1041 13.0814 32.0223 13.5011C31.9733 13.7736 31.6462 14.0952 31.3737 14.1443C30.9213 14.2315 30.8232 14.1606 29.3406 12.6835C27.3893 10.7322 27.3948 10.9666 29.2861 9.05343C30.8287 7.50002 31.014 7.3801 31.5209 7.59813ZM37.2058 13.7845C37.5656 14.0462 39.8875 16.4226 39.9475 16.5861C40.0347 16.8205 40.0183 17.0985 39.9039 17.322C39.7676 17.5781 37.2494 20.0854 37.0478 20.1617C36.3555 20.4233 35.6742 19.8401 35.8595 19.1479C35.9031 18.9953 36.0612 18.7936 36.4646 18.3957C36.7643 18.0959 37.0096 17.8343 37.0096 17.8125C37.0096 17.7853 35.0965 17.7689 32.7582 17.7689C28.0434 17.7689 28.3268 17.7907 28.0325 17.4092C27.9126 17.2511 27.8853 17.153 27.8853 16.9186C27.8853 16.5916 27.9889 16.4063 28.2887 16.1991L28.4686 16.0792H32.7364C35.0856 16.0792 37.0096 16.0629 37.0096 16.0356C37.0096 16.0138 36.7861 15.774 36.5136 15.5069C35.7669 14.7711 35.647 14.3678 36.0449 13.9154C36.252 13.681 36.361 13.6319 36.7153 13.6319C36.9388 13.6265 37.0369 13.6592 37.2058 13.7845Z" fill="#999999"/>
<path d="M18.3907 38.1419H19.7703V41.7681H23.8116V38.1419H25.1912V46.8838H23.8116V43.0623H19.7703V46.8838H18.3907V38.1419ZM29.5399 40.7059C29.9957 40.7059 30.4149 40.7873 30.7974 40.9501C31.18 41.1047 31.5096 41.3245 31.7864 41.6094C32.0631 41.8943 32.2788 42.232 32.4335 42.6227C32.5881 43.0134 32.6654 43.4367 32.6654 43.8925C32.6654 44.3483 32.5881 44.7716 32.4335 45.1623C32.2788 45.553 32.0631 45.8908 31.7864 46.1756C31.5096 46.4605 31.18 46.6844 30.7974 46.8472C30.4149 47.0018 29.9957 47.0791 29.5399 47.0791C29.084 47.0791 28.6649 47.0018 28.2823 46.8472C27.8997 46.6844 27.5701 46.4605 27.2933 46.1756C27.0166 45.8908 26.8009 45.553 26.6463 45.1623C26.4916 44.7716 26.4143 44.3483 26.4143 43.8925C26.4143 43.4367 26.4916 43.0134 26.6463 42.6227C26.8009 42.232 27.0166 41.8943 27.2933 41.6094C27.5701 41.3245 27.8997 41.1047 28.2823 40.9501C28.6649 40.7873 29.084 40.7059 29.5399 40.7059ZM29.5399 45.8216C29.7678 45.8216 29.9875 45.7768 30.1992 45.6873C30.4108 45.5977 30.598 45.4716 30.7608 45.3088C30.9317 45.146 31.066 44.9466 31.1637 44.7105C31.2614 44.4663 31.3102 44.1937 31.3102 43.8925C31.3102 43.5913 31.2614 43.3227 31.1637 43.0867C31.066 42.8425 30.9317 42.639 30.7608 42.4762C30.598 42.3134 30.4108 42.1873 30.1992 42.0977C29.9875 42.0082 29.7678 41.9634 29.5399 41.9634C29.312 41.9634 29.0922 42.0082 28.8806 42.0977C28.6689 42.1873 28.4776 42.3134 28.3067 42.4762C28.1439 42.639 28.0137 42.8425 27.916 43.0867C27.8183 43.3227 27.7695 43.5913 27.7695 43.8925C27.7695 44.1937 27.8183 44.4663 27.916 44.7105C28.0137 44.9466 28.1439 45.146 28.3067 45.3088C28.4776 45.4716 28.6689 45.5977 28.8806 45.6873C29.0922 45.7768 29.312 45.8216 29.5399 45.8216ZM33.5762 40.9012H34.8582V41.707H34.9314C35.1186 41.414 35.3791 41.1739 35.7128 40.9867C36.0465 40.7995 36.4006 40.7059 36.775 40.7059C37.2227 40.7059 37.6052 40.8117 37.9227 41.0233C38.2483 41.2268 38.4843 41.4954 38.6308 41.8291C38.8343 41.5117 39.107 41.2472 39.4488 41.0355C39.7907 40.8158 40.2018 40.7059 40.682 40.7059C41.0483 40.7059 41.3657 40.7669 41.6343 40.889C41.9029 41.003 42.1227 41.1658 42.2936 41.3774C42.4727 41.589 42.607 41.8454 42.6965 42.1466C42.7861 42.4396 42.8308 42.7693 42.8308 43.1355V46.8838H41.4756V43.3675C41.4756 42.8466 41.3738 42.4844 41.1704 42.2809C40.975 42.0693 40.6861 41.9634 40.3035 41.9634C40.0837 41.9634 39.8843 42.0123 39.7052 42.11C39.5343 42.2076 39.3878 42.3419 39.2657 42.5129C39.1436 42.6756 39.05 42.8669 38.9849 43.0867C38.9198 43.3065 38.8872 43.5384 38.8872 43.7826V46.8838H37.532V43.3675C37.532 42.8466 37.4262 42.4844 37.2145 42.2809C37.0111 42.0693 36.714 41.9634 36.3233 41.9634C36.1116 41.9634 35.9204 42.0123 35.7494 42.11C35.5785 42.2076 35.432 42.3419 35.3099 42.5129C35.1878 42.6756 35.0942 42.8669 35.0291 43.0867C34.964 43.3065 34.9314 43.5384 34.9314 43.7826V46.8838H33.5762V40.9012ZM49.695 45.4553C49.4427 45.9193 49.0846 46.3059 48.6206 46.6152C48.1567 46.9245 47.5869 47.0791 46.9113 47.0791C46.4636 47.0791 46.0485 47.0018 45.666 46.8472C45.2915 46.6844 44.966 46.4605 44.6892 46.1756C44.4125 45.8908 44.1968 45.557 44.0421 45.1745C43.8875 44.7838 43.8101 44.3565 43.8101 43.8925C43.8101 43.4611 43.8834 43.0541 44.0299 42.6716C44.1764 42.2809 44.3799 41.9431 44.6404 41.6582C44.909 41.3652 45.2305 41.1332 45.6049 40.9623C45.9793 40.7913 46.3944 40.7059 46.8503 40.7059C47.3142 40.7059 47.7253 40.7832 48.0834 40.9379C48.4497 41.0925 48.759 41.3082 49.0113 41.585C49.2636 41.8617 49.4549 42.1954 49.5851 42.5861C49.7235 42.9768 49.7927 43.4041 49.7927 43.8681C49.7927 43.9088 49.7927 43.9454 49.7927 43.978C49.7846 44.0187 49.7805 44.0553 49.7805 44.0879C49.7724 44.1204 49.7683 44.153 49.7683 44.1855H45.1654C45.1898 44.4704 45.259 44.7187 45.3729 44.9303C45.4869 45.1419 45.6253 45.3169 45.7881 45.4553C45.959 45.5937 46.1462 45.6954 46.3497 45.7605C46.5532 45.8256 46.7526 45.8582 46.9479 45.8582C47.3386 45.8582 47.6601 45.7646 47.9125 45.5774C48.1648 45.3902 48.3724 45.1582 48.5351 44.8815L49.695 45.4553ZM48.4375 43.1477C48.4212 43.0256 48.3805 42.8913 48.3154 42.7448C48.2584 42.5902 48.1648 42.4518 48.0346 42.3297C47.9125 42.1995 47.7497 42.0896 47.5462 42.0001C47.3508 41.9105 47.1107 41.8658 46.8258 41.8658C46.4351 41.8658 46.0974 41.9838 45.8125 42.2198C45.5357 42.4477 45.3485 42.757 45.2508 43.1477H48.4375Z" fill="#999999"/>
</svg>
