<svg width="39" height="39" viewBox="0 0 39 39" fill="none" xmlns="http://www.w3.org/2000/svg">
<g clip-path="url(#clip0_718_4793)">
<path d="M23.2324 19.5C23.2324 21.5614 21.5614 23.2324 19.5 23.2324C17.4386 23.2324 15.7676 21.5614 15.7676 19.5C15.7676 17.4386 17.4386 15.7676 19.5 15.7676C21.5614 15.7676 23.2324 17.4386 23.2324 19.5Z" fill="#3B5998"/>
<path d="M28.2285 12.8964C28.0491 12.4102 27.7629 11.9702 27.391 11.6089C27.0297 11.237 26.59 10.9508 26.1035 10.7713C25.7089 10.6181 25.1162 10.4357 24.0245 10.386C22.8436 10.3322 22.4895 10.3206 19.4997 10.3206C16.5097 10.3206 16.1556 10.3319 14.9749 10.3857C13.8832 10.4357 13.2902 10.6181 12.896 10.7713C12.4095 10.9508 11.9694 11.237 11.6085 11.6089C11.2366 11.9702 10.9503 12.4099 10.7706 12.8964C10.6174 13.291 10.435 13.884 10.3853 14.9757C10.3314 16.1563 10.3198 16.5104 10.3198 19.5005C10.3198 22.4902 10.3314 22.8443 10.3853 24.0252C10.435 25.1169 10.6174 25.7097 10.7706 26.1042C10.9503 26.5907 11.2363 27.0305 11.6082 27.3917C11.9694 27.7636 12.4092 28.0499 12.8957 28.2293C13.2902 28.3828 13.8832 28.5652 14.9749 28.6149C16.1556 28.6688 16.5094 28.6801 19.4994 28.6801C22.4898 28.6801 22.8438 28.6688 24.0242 28.6149C25.1159 28.5652 25.7089 28.3828 26.1035 28.2293C27.08 27.8526 27.8519 27.0807 28.2285 26.1042C28.3818 25.7097 28.5642 25.1169 28.6142 24.0252C28.668 22.8443 28.6793 22.4902 28.6793 19.5005C28.6793 16.5104 28.668 16.1563 28.6142 14.9757C28.5645 13.884 28.3821 13.291 28.2285 12.8964ZM19.4997 25.2499C16.324 25.2499 13.7496 22.6759 13.7496 19.5002C13.7496 16.3244 16.324 13.7504 19.4997 13.7504C22.6751 13.7504 25.2495 16.3244 25.2495 19.5002C25.2495 22.6759 22.6751 25.2499 19.4997 25.2499ZM25.4768 14.8668C24.7348 14.8668 24.1331 14.2651 24.1331 13.523C24.1331 12.781 24.7348 12.1793 25.4768 12.1793C26.2189 12.1793 26.8206 12.781 26.8206 13.523C26.8203 14.2651 26.2189 14.8668 25.4768 14.8668Z" fill="#3B5998"/>
<path d="M19.5 0C8.73209 0 0 8.73209 0 19.5C0 30.2679 8.73209 39 19.5 39C30.2679 39 39 30.2679 39 19.5C39 8.73209 30.2679 0 19.5 0ZM30.6297 24.1164C30.5756 25.3084 30.386 26.1222 30.1093 26.8345C29.5276 28.3386 28.3386 29.5276 26.8345 30.1093C26.1225 30.386 25.3084 30.5753 24.1167 30.6297C22.9227 30.6842 22.5412 30.6973 19.5003 30.6973C16.4591 30.6973 16.0779 30.6842 14.8836 30.6297C13.6919 30.5753 12.8778 30.386 12.1658 30.1093C11.4183 29.8281 10.7417 29.3875 10.1823 28.8177C9.61283 28.2586 9.17216 27.5817 8.89098 26.8345C8.61427 26.1225 8.42473 25.3084 8.37057 24.1167C8.31553 22.9224 8.30273 22.5409 8.30273 19.5C8.30273 16.4591 8.31553 16.0776 8.37028 14.8836C8.42443 13.6916 8.61367 12.8778 8.89039 12.1655C9.17157 11.4183 9.61253 10.7414 10.1823 10.1823C10.7414 9.61253 11.4183 9.17187 12.1655 8.89069C12.8778 8.61397 13.6916 8.42473 14.8836 8.37028C16.0776 8.31583 16.4591 8.30273 19.5 8.30273C22.5409 8.30273 22.9224 8.31583 24.1164 8.37057C25.3084 8.42473 26.1222 8.61397 26.8345 8.89039C27.5817 9.17157 28.2586 9.61253 28.818 10.1823C29.3875 10.7417 29.8284 11.4183 30.1093 12.1655C30.3863 12.8778 30.5756 13.6916 30.63 14.8836C30.6845 16.0776 30.6973 16.4591 30.6973 19.5C30.6973 22.5409 30.6845 22.9224 30.6297 24.1164Z" fill="#3B5998"/>
</g>
<defs>
<clipPath id="clip0_718_4793">
<rect width="39" height="39" fill="white"/>
</clipPath>
</defs>
</svg>
