<svg width="88" height="77" viewBox="0 0 88 77" fill="none" xmlns="http://www.w3.org/2000/svg">
<g filter="url(#filter0_d_157_1371)">
<rect x="20" y="3" width="48" height="48" rx="24" fill="#FFDBD0"/>
</g>
<g filter="url(#filter1_d_157_1371)">
<rect x="20" y="3" width="48" height="48" rx="12" fill="#E6FAF4"/>
</g>
<path d="M44.046 39.9997C43.2192 39.9997 42.3924 39.9217 41.5864 39.7683C39.0306 39.2795 36.7036 38.0419 34.855 36.1933C33.0064 34.3447 31.7688 32.0151 31.28 29.4619L31.2644 29.3761C31.1214 28.5987 31.0486 27.8005 31.0486 27.0023C31.0486 26.2041 31.1214 25.4085 31.2644 24.6285V24.6259L31.28 24.5401C31.7688 21.9843 33.0064 19.6547 34.8576 17.8035C36.7088 15.9549 39.0384 14.7173 41.5968 14.2311C43.1724 13.9295 44.8312 13.9243 46.4094 14.2155H46.412L46.4978 14.2311C49.0562 14.7199 51.3884 15.9575 53.2396 17.8087C55.0908 19.6599 56.3284 21.9921 56.8172 24.5505C56.9706 25.3539 57.0486 26.1781 57.0486 26.9997C57.0486 27.8239 56.9706 28.6481 56.8172 29.4489C56.3284 32.0073 55.0934 34.3369 53.2448 36.1881C51.3962 38.0393 49.0666 39.2769 46.5082 39.7657L46.4224 39.7813C45.6398 39.9269 44.8416 39.9997 44.046 39.9997ZM33.0766 29.1525C33.9424 33.5803 37.494 37.1241 41.927 37.9743C43.3128 38.2395 44.774 38.2395 46.1598 37.9743L46.1962 37.9665C50.6292 37.1007 54.173 33.5439 55.0206 29.1057C55.1532 28.4167 55.2182 27.7069 55.2182 26.9971C55.2182 26.2873 55.1506 25.5801 55.0206 24.8885C54.173 20.4425 50.6214 16.8857 46.1806 16.0251L46.1494 16.0199C44.7688 15.7573 43.3128 15.7573 41.9348 16.0199C37.494 16.8675 33.9372 20.4139 33.074 24.8495L33.0688 24.8807C32.9362 25.5723 32.8686 26.2847 32.8686 26.9971C32.8686 27.7095 32.9362 28.4219 33.0688 29.1135L33.0766 29.1525Z" fill="#35D8A7"/>
<path d="M50.8088 20.7808C49.9768 18.4954 48.695 16.3868 47.0024 14.5148C46.8672 14.364 46.6878 14.2652 46.4902 14.2288C45.6894 14.0754 44.8678 14 44.0462 14C43.222 14 42.3978 14.078 41.597 14.2314C41.402 14.2678 41.2252 14.3692 41.0926 14.5148C39.4 16.3842 38.1208 18.4928 37.2888 20.7756C36.5634 22.7594 36.1968 24.855 36.1968 27C36.1968 27.0442 36.1968 27.091 36.1968 27.1326C36.2124 29.2334 36.5764 31.2822 37.281 33.2218C38.113 35.5098 39.3922 37.6184 41.0848 39.4826C41.2174 39.6282 41.3942 39.7296 41.5892 39.766C42.3952 39.9194 43.222 39.9974 44.0488 39.9974C44.8704 39.9974 45.6946 39.9194 46.498 39.766C46.6956 39.7296 46.8776 39.6308 47.0128 39.48C48.7054 37.6106 49.9872 35.502 50.8192 33.2114C51.5238 31.2744 51.8878 29.2282 51.9008 27.13C51.9008 27.0858 51.9008 27.039 51.9008 26.9948C51.8982 24.8576 51.5316 22.7646 50.8088 20.7808ZM38.9918 32.5978C38.3574 30.8532 38.0298 29.0098 38.0168 27.117C38.0168 27.078 38.0168 27.039 38.0168 27C38.0168 25.0682 38.347 23.1832 38.9996 21.3996C39.8784 18.9946 41.207 17.1512 42.2392 15.9682C42.5356 15.9214 42.8346 15.885 43.1336 15.859V38.1358C42.8294 38.1124 42.5278 38.0734 42.2288 38.0266C41.1966 36.8488 39.868 35.008 38.9918 32.5978ZM50.073 27.1196C50.06 29.0098 49.7324 30.8506 49.1006 32.5926C48.2244 35.0054 46.8932 36.8488 45.8636 38.0292C45.5646 38.0786 45.263 38.115 44.9588 38.1384V15.8616C45.2604 15.885 45.5594 15.9214 45.8532 15.9708C46.8854 17.1538 48.2166 18.9998 49.0954 21.4074C49.7454 23.1884 50.0756 25.0708 50.0756 27C50.073 27.039 50.073 27.078 50.073 27.1196Z" fill="#35D8A7"/>
<path d="M56.8146 24.5506C56.7782 24.3556 56.6768 24.1788 56.5312 24.0462C54.6592 22.3536 52.5506 21.0718 50.2652 20.2398C48.2814 19.517 46.191 19.1504 44.046 19.1504C44.0018 19.1504 43.9576 19.1504 43.9134 19.1504C41.8152 19.166 39.769 19.53 37.832 20.232C35.5414 21.064 33.4328 22.3432 31.5634 24.0384C31.4152 24.1736 31.3164 24.353 31.28 24.548C31.1266 25.3514 31.0486 26.1782 31.0486 27.0024C31.0486 27.824 31.1266 28.6482 31.28 29.4516C31.3164 29.6492 31.4152 29.8312 31.566 29.9664C33.4328 31.659 35.5388 32.9382 37.8294 33.7702C39.769 34.4748 41.8178 34.8414 43.916 34.8544C43.9602 34.8544 44.007 34.8544 44.0512 34.8544C46.1962 34.8544 48.2918 34.4878 50.2756 33.7624C52.5584 32.9278 54.6644 31.6486 56.5364 29.9586C56.6846 29.826 56.7834 29.6492 56.8198 29.4542C56.9732 28.6508 57.0512 27.8266 57.0512 27.005C57.046 26.1756 56.968 25.3514 56.8146 24.5506ZM33.0168 25.1824C34.1972 24.1502 36.0406 22.8216 38.4534 21.9454C40.1954 21.3136 42.0362 20.986 43.9264 20.973C43.9654 20.973 44.007 20.973 44.046 20.973C45.9752 20.973 47.8576 21.3032 49.6386 21.9532C52.0462 22.832 53.8922 24.1632 55.0752 25.1954C55.122 25.4918 55.1584 25.7908 55.1844 26.0898H32.9076C32.931 25.783 32.9674 25.4814 33.0168 25.1824ZM55.0752 28.8068C53.8922 29.839 52.0488 31.1676 49.6438 32.0464C47.8602 32.699 45.9752 33.0292 44.0434 33.0292C44.0044 33.0292 43.9654 33.0292 43.9238 33.0292C42.031 33.0162 40.1902 32.6886 38.4456 32.0542C36.0354 31.178 34.1946 29.8494 33.0142 28.8198C32.9648 28.5208 32.9284 28.2192 32.905 27.915H55.1818C55.1584 28.2114 55.122 28.5104 55.0752 28.8068Z" fill="#35D8A7"/>
<path d="M22.3144 74V65.06H23.4904V74H22.3144ZM25.3464 74V67.532H26.4384V68.792L26.2584 68.684C26.4184 68.276 26.6744 67.96 27.0264 67.736C27.3864 67.504 27.8064 67.388 28.2864 67.388C28.7504 67.388 29.1624 67.492 29.5224 67.7C29.8904 67.908 30.1784 68.196 30.3864 68.564C30.6024 68.932 30.7104 69.348 30.7104 69.812V74H29.5824V70.172C29.5824 69.812 29.5184 69.508 29.3904 69.26C29.2624 69.012 29.0784 68.82 28.8384 68.684C28.6064 68.54 28.3384 68.468 28.0344 68.468C27.7304 68.468 27.4584 68.54 27.2184 68.684C26.9864 68.82 26.8024 69.016 26.6664 69.272C26.5304 69.52 26.4624 69.82 26.4624 70.172V74H25.3464ZM34.9354 74.072C34.3034 74.072 33.8154 73.892 33.4714 73.532C33.1354 73.172 32.9674 72.664 32.9674 72.008V68.6H31.7914V67.532H32.0314C32.3194 67.532 32.5474 67.444 32.7154 67.268C32.8834 67.092 32.9674 66.86 32.9674 66.572V66.044H34.0834V67.532H35.5354V68.6H34.0834V71.972C34.0834 72.188 34.1154 72.376 34.1794 72.536C34.2514 72.696 34.3674 72.824 34.5274 72.92C34.6874 73.008 34.8994 73.052 35.1634 73.052C35.2194 73.052 35.2874 73.048 35.3674 73.04C35.4554 73.032 35.5354 73.024 35.6074 73.016V74C35.5034 74.024 35.3874 74.04 35.2594 74.048C35.1314 74.064 35.0234 74.072 34.9354 74.072ZM39.8654 74.144C39.2414 74.144 38.6854 73.996 38.1974 73.7C37.7094 73.404 37.3254 73 37.0454 72.488C36.7654 71.968 36.6254 71.388 36.6254 70.748C36.6254 70.1 36.7614 69.524 37.0334 69.02C37.3134 68.516 37.6894 68.12 38.1614 67.832C38.6414 67.536 39.1774 67.388 39.7694 67.388C40.2494 67.388 40.6734 67.476 41.0414 67.652C41.4174 67.82 41.7334 68.052 41.9894 68.348C42.2534 68.636 42.4534 68.968 42.5894 69.344C42.7334 69.712 42.8054 70.096 42.8054 70.496C42.8054 70.584 42.7974 70.684 42.7814 70.796C42.7734 70.9 42.7614 71 42.7454 71.096H37.4414V70.136H42.0974L41.5694 70.568C41.6414 70.152 41.6014 69.78 41.4494 69.452C41.2974 69.124 41.0734 68.864 40.7774 68.672C40.4814 68.48 40.1454 68.384 39.7694 68.384C39.3934 68.384 39.0494 68.48 38.7374 68.672C38.4254 68.864 38.1814 69.14 38.0054 69.5C37.8374 69.852 37.7694 70.272 37.8014 70.76C37.7694 71.232 37.8414 71.648 38.0174 72.008C38.2014 72.36 38.4574 72.636 38.7854 72.836C39.1214 73.028 39.4854 73.124 39.8774 73.124C40.3094 73.124 40.6734 73.024 40.9694 72.824C41.2654 72.624 41.5054 72.368 41.6894 72.056L42.6254 72.536C42.4974 72.832 42.2974 73.104 42.0254 73.352C41.7614 73.592 41.4454 73.784 41.0774 73.928C40.7174 74.072 40.3134 74.144 39.8654 74.144ZM44.2605 74V67.532H45.3525V68.72L45.2325 68.552C45.3845 68.184 45.6165 67.912 45.9285 67.736C46.2405 67.552 46.6205 67.46 47.0685 67.46H47.4645V68.516H46.9005C46.4445 68.516 46.0765 68.66 45.7965 68.948C45.5165 69.228 45.3765 69.628 45.3765 70.148V74H44.2605ZM48.4558 74V67.532H49.5478V68.792L49.3678 68.684C49.5278 68.276 49.7838 67.96 50.1358 67.736C50.4958 67.504 50.9158 67.388 51.3958 67.388C51.8598 67.388 52.2718 67.492 52.6318 67.7C52.9998 67.908 53.2878 68.196 53.4958 68.564C53.7118 68.932 53.8198 69.348 53.8198 69.812V74H52.6918V70.172C52.6918 69.812 52.6278 69.508 52.4998 69.26C52.3718 69.012 52.1878 68.82 51.9478 68.684C51.7158 68.54 51.4478 68.468 51.1438 68.468C50.8398 68.468 50.5678 68.54 50.3278 68.684C50.0958 68.82 49.9118 69.016 49.7758 69.272C49.6398 69.52 49.5718 69.82 49.5718 70.172V74H48.4558ZM58.3927 74.144C57.7687 74.144 57.2127 73.996 56.7247 73.7C56.2367 73.404 55.8527 73 55.5727 72.488C55.2927 71.968 55.1527 71.388 55.1527 70.748C55.1527 70.1 55.2887 69.524 55.5607 69.02C55.8407 68.516 56.2167 68.12 56.6887 67.832C57.1687 67.536 57.7047 67.388 58.2967 67.388C58.7767 67.388 59.2007 67.476 59.5687 67.652C59.9447 67.82 60.2607 68.052 60.5167 68.348C60.7807 68.636 60.9807 68.968 61.1167 69.344C61.2607 69.712 61.3327 70.096 61.3327 70.496C61.3327 70.584 61.3247 70.684 61.3087 70.796C61.3007 70.9 61.2887 71 61.2727 71.096H55.9687V70.136H60.6247L60.0967 70.568C60.1687 70.152 60.1287 69.78 59.9767 69.452C59.8247 69.124 59.6007 68.864 59.3047 68.672C59.0087 68.48 58.6727 68.384 58.2967 68.384C57.9207 68.384 57.5767 68.48 57.2647 68.672C56.9527 68.864 56.7087 69.14 56.5327 69.5C56.3647 69.852 56.2967 70.272 56.3287 70.76C56.2967 71.232 56.3687 71.648 56.5447 72.008C56.7287 72.36 56.9847 72.636 57.3127 72.836C57.6487 73.028 58.0127 73.124 58.4047 73.124C58.8367 73.124 59.2007 73.024 59.4967 72.824C59.7927 72.624 60.0327 72.368 60.2167 72.056L61.1527 72.536C61.0247 72.832 60.8247 73.104 60.5527 73.352C60.2887 73.592 59.9727 73.784 59.6047 73.928C59.2447 74.072 58.8407 74.144 58.3927 74.144ZM65.4158 74.072C64.7838 74.072 64.2958 73.892 63.9518 73.532C63.6158 73.172 63.4478 72.664 63.4478 72.008V68.6H62.2718V67.532H62.5118C62.7998 67.532 63.0278 67.444 63.1958 67.268C63.3638 67.092 63.4478 66.86 63.4478 66.572V66.044H64.5638V67.532H66.0158V68.6H64.5638V71.972C64.5638 72.188 64.5958 72.376 64.6598 72.536C64.7318 72.696 64.8478 72.824 65.0078 72.92C65.1678 73.008 65.3798 73.052 65.6438 73.052C65.6998 73.052 65.7678 73.048 65.8478 73.04C65.9358 73.032 66.0158 73.024 66.0878 73.016V74C65.9838 74.024 65.8678 74.04 65.7398 74.048C65.6118 74.064 65.5038 74.072 65.4158 74.072Z" fill="#0C192C"/>
<defs>
<filter id="filter0_d_157_1371" x="15" y="0" width="58" height="58" filterUnits="userSpaceOnUse" color-interpolation-filters="sRGB">
<feFlood flood-opacity="0" result="BackgroundImageFix"/>
<feColorMatrix in="SourceAlpha" type="matrix" values="0 0 0 0 0 0 0 0 0 0 0 0 0 0 0 0 0 0 127 0" result="hardAlpha"/>
<feOffset dy="2"/>
<feGaussianBlur stdDeviation="2.5"/>
<feComposite in2="hardAlpha" operator="out"/>
<feColorMatrix type="matrix" values="0 0 0 0 0 0 0 0 0 0 0 0 0 0 0 0 0 0 0.05 0"/>
<feBlend mode="normal" in2="BackgroundImageFix" result="effect1_dropShadow_157_1371"/>
<feBlend mode="normal" in="SourceGraphic" in2="effect1_dropShadow_157_1371" result="shape"/>
</filter>
<filter id="filter1_d_157_1371" x="15" y="0" width="58" height="58" filterUnits="userSpaceOnUse" color-interpolation-filters="sRGB">
<feFlood flood-opacity="0" result="BackgroundImageFix"/>
<feColorMatrix in="SourceAlpha" type="matrix" values="0 0 0 0 0 0 0 0 0 0 0 0 0 0 0 0 0 0 127 0" result="hardAlpha"/>
<feOffset dy="2"/>
<feGaussianBlur stdDeviation="2.5"/>
<feComposite in2="hardAlpha" operator="out"/>
<feColorMatrix type="matrix" values="0 0 0 0 0 0 0 0 0 0 0 0 0 0 0 0 0 0 0.05 0"/>
<feBlend mode="normal" in2="BackgroundImageFix" result="effect1_dropShadow_157_1371"/>
<feBlend mode="normal" in="SourceGraphic" in2="effect1_dropShadow_157_1371" result="shape"/>
</filter>
</defs>
</svg>
