<svg width="27" height="26" viewBox="0 0 27 26" fill="none" xmlns="http://www.w3.org/2000/svg">
<path d="M13.0461 26C12.2193 26 11.3925 25.922 10.5865 25.7686C8.03071 25.2798 5.70371 24.0422 3.85511 22.1936C2.00651 20.345 0.768907 18.0154 0.280107 15.4622L0.264507 15.3764C0.121507 14.599 0.0487061 13.8008 0.0487061 13.0026C0.0487061 12.2044 0.121507 11.4088 0.264507 10.6288V10.6262L0.280107 10.5404C0.768907 7.98459 2.00651 5.65499 3.85771 3.80379C5.70891 1.95519 8.03851 0.717589 10.5969 0.231389C12.1725 -0.0702109 13.8313 -0.0754109 15.4095 0.215789H15.4121L15.4979 0.231389C18.0563 0.720189 20.3885 1.95779 22.2397 3.80899C24.0909 5.66019 25.3285 7.99239 25.8173 10.5508C25.9707 11.3542 26.0487 12.1784 26.0487 13C26.0487 13.8242 25.9707 14.6484 25.8173 15.4492C25.3285 18.0076 24.0935 20.3372 22.2449 22.1884C20.3963 24.0396 18.0667 25.2772 15.5083 25.766L15.4225 25.7816C14.6399 25.9272 13.8417 26 13.0461 26ZM2.07671 15.1528C2.94251 19.5806 6.49411 23.1244 10.9271 23.9746C12.3129 24.2398 13.7741 24.2398 15.1599 23.9746L15.1963 23.9668C19.6293 23.101 23.1731 19.5442 24.0207 15.106C24.1533 14.417 24.2183 13.7072 24.2183 12.9974C24.2183 12.2876 24.1507 11.5804 24.0207 10.8888C23.1731 6.44279 19.6215 2.88599 15.1807 2.02539L15.1495 2.02019C13.7689 1.75759 12.3129 1.75759 10.9349 2.02019C6.4941 2.86779 2.93731 6.41419 2.07411 10.8498L2.0689 10.881C1.9363 11.5726 1.86871 12.285 1.86871 12.9974C1.86871 13.7098 1.9363 14.4222 2.0689 15.1138L2.07671 15.1528Z" fill="#35D8A7"/>
<path d="M19.8088 6.7808C18.9768 4.4954 17.695 2.3868 16.0024 0.5148C15.8672 0.364 15.6878 0.2652 15.4902 0.2288C14.6894 0.0754 13.8678 0 13.0462 0C12.222 0 11.3978 0.078 10.597 0.2314C10.402 0.2678 10.2252 0.3692 10.0926 0.5148C8.40004 2.3842 7.12084 4.4928 6.28884 6.7756C5.56344 8.7594 5.19684 10.855 5.19684 13C5.19684 13.0442 5.19684 13.091 5.19684 13.1326C5.21244 15.2334 5.57644 17.2822 6.28104 19.2218C7.11304 21.5098 8.39224 23.6184 10.0848 25.4826C10.2174 25.6282 10.3942 25.7296 10.5892 25.766C11.3952 25.9194 12.222 25.9974 13.0488 25.9974C13.8704 25.9974 14.6946 25.9194 15.498 25.766C15.6956 25.7296 15.8776 25.6308 16.0128 25.48C17.7054 23.6106 18.9872 21.502 19.8192 19.2114C20.5238 17.2744 20.8878 15.2282 20.9008 13.13C20.9008 13.0858 20.9008 13.039 20.9008 12.9948C20.8982 10.8576 20.5316 8.7646 19.8088 6.7808ZM7.99184 18.5978C7.35744 16.8532 7.02984 15.0098 7.01684 13.117C7.01684 13.078 7.01684 13.039 7.01684 13C7.01684 11.0682 7.34704 9.1832 7.99964 7.3996C8.87844 4.9946 10.207 3.1512 11.2392 1.9682C11.5356 1.9214 11.8346 1.885 12.1336 1.859V24.1358C11.8294 24.1124 11.5278 24.0734 11.2288 24.0266C10.1966 22.8488 8.86804 21.008 7.99184 18.5978ZM19.073 13.1196C19.06 15.0098 18.7324 16.8506 18.1006 18.5926C17.2244 21.0054 15.8932 22.8488 14.8636 24.0292C14.5646 24.0786 14.263 24.115 13.9588 24.1384V1.8616C14.2604 1.885 14.5594 1.9214 14.8532 1.9708C15.8854 3.1538 17.2166 4.9998 18.0954 7.4074C18.7454 9.1884 19.0756 11.0708 19.0756 13C19.073 13.039 19.073 13.078 19.073 13.1196Z" fill="#35D8A7"/>
<path d="M25.8147 10.5508C25.7783 10.3558 25.6769 10.179 25.5313 10.0464C23.6593 8.35383 21.5507 7.07203 19.2653 6.24003C17.2815 5.51723 15.1911 5.15063 13.0461 5.15063C13.0019 5.15063 12.9577 5.15063 12.9135 5.15063C10.8153 5.16623 8.76911 5.53023 6.83211 6.23223C4.54151 7.06423 2.43291 8.34343 0.563507 10.0386C0.415307 10.1738 0.316507 10.3532 0.280107 10.5482C0.126707 11.3516 0.0487061 12.1784 0.0487061 13.0026C0.0487061 13.8242 0.126707 14.6484 0.280107 15.4518C0.316507 15.6494 0.415307 15.8314 0.566107 15.9666C2.43291 17.6592 4.53891 18.9384 6.82951 19.7704C8.76911 20.475 10.8179 20.8416 12.9161 20.8546C12.9603 20.8546 13.0071 20.8546 13.0513 20.8546C15.1963 20.8546 17.2919 20.488 19.2757 19.7626C21.5585 18.928 23.6645 17.6488 25.5365 15.9588C25.6847 15.8262 25.7835 15.6494 25.8199 15.4544C25.9733 14.651 26.0513 13.8268 26.0513 13.0052C26.0461 12.1758 25.9681 11.3516 25.8147 10.5508ZM2.0169 11.1826C3.1973 10.1504 5.04071 8.82183 7.45351 7.94563C9.19551 7.31383 11.0363 6.98623 12.9265 6.97323C12.9655 6.97323 13.0071 6.97323 13.0461 6.97323C14.9753 6.97323 16.8577 7.30343 18.6387 7.95343C21.0463 8.83223 22.8923 10.1634 24.0753 11.1956C24.1221 11.492 24.1585 11.791 24.1845 12.09H1.90771C1.93111 11.7832 1.9675 11.4816 2.0169 11.1826ZM24.0753 14.807C22.8923 15.8392 21.0489 17.1678 18.6439 18.0466C16.8603 18.6992 14.9753 19.0294 13.0435 19.0294C13.0045 19.0294 12.9655 19.0294 12.9239 19.0294C11.0311 19.0164 9.19031 18.6888 7.44571 18.0544C5.03551 17.1782 3.19471 15.8496 2.01431 14.82C1.96491 14.521 1.92851 14.2194 1.90511 13.9152H24.1819C24.1585 14.2116 24.1221 14.5106 24.0753 14.807Z" fill="#35D8A7"/>
</svg>
