<svg width="19" height="15" viewBox="0 0 19 15" fill="none" xmlns="http://www.w3.org/2000/svg">
<path fill-rule="evenodd" clip-rule="evenodd" d="M5.33333 2.13533C3.52115 2.13533 2.05208 3.6044 2.05208 5.41658V9.58325C2.05208 11.3954 3.52115 12.8645 5.33333 12.8645H13.6667C15.2298 12.8645 16.5376 11.7715 16.8676 10.3081C15.7021 9.90731 14.8646 8.80142 14.8646 7.49992C14.8646 6.19841 15.7021 5.09252 16.8676 4.69178C16.5376 3.22835 15.2298 2.13533 13.6667 2.13533H5.33333ZM0.28125 5.41658C0.28125 2.6264 2.54314 0.364502 5.33333 0.364502H13.6667C16.4569 0.364502 18.7187 2.6264 18.7187 5.41658C18.7187 5.90559 18.3223 6.302 17.8333 6.302C17.1717 6.302 16.6354 6.83833 16.6354 7.49992C16.6354 8.16151 17.1717 8.69783 17.8333 8.69783C18.3223 8.69783 18.7187 9.09425 18.7187 9.58325C18.7187 12.3734 16.4569 14.6353 13.6667 14.6353H5.33333C2.54314 14.6353 0.28125 12.3734 0.28125 9.58325V5.41658Z" fill="#343739"/>
<path fill-rule="evenodd" clip-rule="evenodd" d="M12.3125 1.25C12.7152 1.25 13.0417 1.57646 13.0417 1.97917L13.0417 4.6875C13.0417 5.09021 12.7152 5.41667 12.3125 5.41667C11.9098 5.41667 11.5833 5.09021 11.5833 4.6875L11.5833 1.97917C11.5833 1.57646 11.9098 1.25 12.3125 1.25Z" fill="#343739"/>
<path fill-rule="evenodd" clip-rule="evenodd" d="M12.3125 9.58325C12.7152 9.58325 13.0417 9.90971 13.0417 10.3124L13.0417 13.0208C13.0417 13.4235 12.7152 13.7499 12.3125 13.7499C11.9098 13.7499 11.5833 13.4235 11.5833 13.0208L11.5833 10.3124C11.5833 9.90971 11.9098 9.58325 12.3125 9.58325Z" fill="#343739"/>
<path fill-rule="evenodd" clip-rule="evenodd" d="M12.3125 6.45825C12.7152 6.45825 13.0417 6.78471 13.0417 7.18742L13.0417 7.81242C13.0417 8.21513 12.7152 8.54159 12.3125 8.54159C11.9098 8.54159 11.5833 8.21513 11.5833 7.81242L11.5833 7.18742C11.5833 6.78471 11.9098 6.45825 12.3125 6.45825Z" fill="#343739"/>
</svg>
