<svg width="21" height="16" viewBox="0 0 21 16" fill="none" xmlns="http://www.w3.org/2000/svg">
<path fill-rule="evenodd" clip-rule="evenodd" d="M10.6562 3.29167C10.6562 2.80266 11.0527 2.40625 11.5417 2.40625H19.875C20.364 2.40625 20.7604 2.80266 20.7604 3.29167C20.7604 3.78067 20.364 4.17708 19.875 4.17708H11.5417C11.0527 4.17708 10.6562 3.78067 10.6562 3.29167Z" fill="black"/>
<path fill-rule="evenodd" clip-rule="evenodd" d="M0.239582 12.6667C0.239582 12.1777 0.635997 11.7812 1.125 11.7812H9.45833C9.94734 11.7812 10.3438 12.1777 10.3438 12.6667C10.3438 13.1557 9.94734 13.5521 9.45833 13.5521H1.125C0.635997 13.5521 0.239582 13.1557 0.239582 12.6667Z" fill="black"/>
<path d="M6.875 3.29175C6.875 4.7415 5.69975 5.91675 4.25 5.91675C2.80025 5.91675 1.625 4.7415 1.625 3.29175C1.625 1.842 2.80025 0.666748 4.25 0.666748C5.69975 0.666748 6.875 1.842 6.875 3.29175Z" fill="white" stroke="black"/>
<path d="M19.375 12.6667C19.375 14.1165 18.1997 15.2917 16.75 15.2917C15.3003 15.2917 14.125 14.1165 14.125 12.6667C14.125 11.217 15.3003 10.0417 16.75 10.0417C18.1997 10.0417 19.375 11.217 19.375 12.6667Z" fill="black" stroke="white"/>
</svg>
