<svg width="39" height="39" viewBox="0 0 39 39" fill="none" xmlns="http://www.w3.org/2000/svg">
<g clip-path="url(#clip0_718_4802)">
<path d="M19.5 38.999C30.2696 38.999 39 30.2686 39 19.499C39 8.72947 30.2696 -0.000976562 19.5 -0.000976562C8.73045 -0.000976562 0 8.72947 0 19.499C0 30.2686 8.73045 38.999 19.5 38.999Z" fill="#007AB9"/>
<path d="M31.1507 21.0688V29.1082H26.4897V21.6076C26.4897 19.7242 25.8167 18.4381 24.1291 18.4381C22.8412 18.4381 22.0761 19.304 21.7383 20.1424C21.6156 20.442 21.5839 20.8581 21.5839 21.2784V29.1078H16.9225C16.9225 29.1078 16.9851 16.4042 16.9225 15.0892H21.5843V17.0758C21.5749 17.0915 21.5617 17.1068 21.5533 17.1217H21.5843V17.0758C22.2037 16.1227 23.3084 14.7601 25.7851 14.7601C28.8517 14.7601 31.1507 16.7637 31.1507 21.0688ZM12.0463 8.33179C10.4519 8.33179 9.40869 9.37843 9.40869 10.7536C9.40869 12.0995 10.4216 13.1764 11.9851 13.1764H12.0154C13.6411 13.1764 14.652 12.0995 14.652 10.7536C14.621 9.37843 13.6411 8.33179 12.0463 8.33179ZM9.68573 29.1082H14.3454V15.0892H9.68573V29.1082Z" fill="#F1F2F2"/>
</g>
<defs>
<clipPath id="clip0_718_4802">
<rect width="39" height="39" fill="white"/>
</clipPath>
</defs>
</svg>
