<svg width="137" height="28" viewBox="0 0 137 28" fill="none" xmlns="http://www.w3.org/2000/svg">
<path d="M41.598 11.13V14.98H46.768V17.422H41.598V21.492H47.428V24H38.518V8.622H47.428V11.13H41.598ZM60.039 14.848V17.444H50.711V14.848H60.039ZM84.4592 8.644L80.1692 24H76.5392L73.6572 13.066L70.6432 24L67.0352 24.022L62.8992 8.644H66.1992L68.9052 20.568L72.0292 8.644H75.4612L78.4092 20.502L81.1372 8.644H84.4592ZM86.1183 17.862C86.1183 16.63 86.3603 15.5373 86.8443 14.584C87.3429 13.6307 88.0103 12.8973 88.8463 12.384C89.6969 11.8707 90.6429 11.614 91.6843 11.614C92.5936 11.614 93.3856 11.7973 94.0603 12.164C94.7496 12.5307 95.2996 12.9927 95.7103 13.55V11.812H98.8123V24H95.7103V22.218C95.3143 22.79 94.7643 23.2667 94.0603 23.648C93.3709 24.0147 92.5716 24.198 91.6623 24.198C90.6356 24.198 89.6969 23.934 88.8463 23.406C88.0103 22.878 87.3429 22.1373 86.8443 21.184C86.3603 20.216 86.1183 19.1087 86.1183 17.862ZM95.7103 17.906C95.7103 17.158 95.5636 16.52 95.2703 15.992C94.9769 15.4493 94.5809 15.0387 94.0823 14.76C93.5836 14.4667 93.0483 14.32 92.4763 14.32C91.9043 14.32 91.3763 14.4593 90.8923 14.738C90.4083 15.0167 90.0123 15.4273 89.7043 15.97C89.4109 16.498 89.2643 17.1287 89.2643 17.862C89.2643 18.5953 89.4109 19.2407 89.7043 19.798C90.0123 20.3407 90.4083 20.7587 90.8923 21.052C91.3909 21.3453 91.9189 21.492 92.4763 21.492C93.0483 21.492 93.5836 21.3527 94.0823 21.074C94.5809 20.7807 94.9769 20.37 95.2703 19.842C95.5636 19.2993 95.7103 18.654 95.7103 17.906ZM105.34 7.72V24H102.26V7.72H105.34ZM111.903 7.72V24H108.823V7.72H111.903ZM126.717 17.642C126.717 18.082 126.687 18.478 126.629 18.83H117.719C117.792 19.71 118.1 20.3993 118.643 20.898C119.185 21.3967 119.853 21.646 120.645 21.646C121.789 21.646 122.603 21.1547 123.087 20.172H126.409C126.057 21.3453 125.382 22.3133 124.385 23.076C123.387 23.824 122.163 24.198 120.711 24.198C119.537 24.198 118.481 23.9413 117.543 23.428C116.619 22.9 115.893 22.1593 115.365 21.206C114.851 20.2527 114.595 19.1527 114.595 17.906C114.595 16.6447 114.851 15.5373 115.365 14.584C115.878 13.6307 116.597 12.8973 117.521 12.384C118.445 11.8707 119.508 11.614 120.711 11.614C121.869 11.614 122.903 11.8633 123.813 12.362C124.737 12.8607 125.448 13.572 125.947 14.496C126.46 15.4053 126.717 16.454 126.717 17.642ZM123.527 16.762C123.512 15.97 123.226 15.3393 122.669 14.87C122.111 14.386 121.429 14.144 120.623 14.144C119.86 14.144 119.215 14.3787 118.687 14.848C118.173 15.3027 117.858 15.9407 117.741 16.762H123.527ZM132.991 14.342V20.238C132.991 20.6487 133.086 20.9493 133.277 21.14C133.482 21.316 133.819 21.404 134.289 21.404H135.719V24H133.783C131.187 24 129.889 22.7387 129.889 20.216V14.342H128.437V11.812H129.889V8.798H132.991V11.812H135.719V14.342H132.991Z" fill="black"/>
<path fill-rule="evenodd" clip-rule="evenodd" d="M21.8726 0H13.6702C11.3754 0 9.41066 1.41407 8.59946 3.41865H26.9434C26.1322 1.41407 24.1675 0 21.8726 0ZM0 19.1445V13.6747H5.46746C6.97791 13.6747 8.20238 14.8991 8.20238 16.4096C8.20238 17.92 6.97791 19.1445 5.46746 19.1445H0ZM5.46825 5.46987H27.3413V16.41C27.3413 17.165 26.7292 17.777 25.9742 17.777H21.873C18.853 17.777 16.4048 20.2252 16.4048 23.2453V25.9822C16.4048 26.7372 15.7927 27.3493 15.0377 27.3493H5.46825C2.44822 27.3493 0 24.9003 0 21.8794V21.1957H5.46826C8.11078 21.1957 10.253 19.0529 10.253 16.4096C10.253 13.7663 8.11078 11.6234 5.46825 11.6234H0V10.9397C0 7.9188 2.44822 5.46987 5.46825 5.46987ZM28.1129 22.5545C28.4857 22.1283 28.4424 21.4806 28.0162 21.1078C27.59 20.7349 26.9423 20.7782 26.5695 21.2044L22.6462 25.6894C22.5258 25.8271 22.3183 25.8455 22.1754 25.7312L19.7794 23.8139C19.3373 23.4601 18.6921 23.5317 18.3383 23.9738C17.9845 24.4159 18.0561 25.0611 18.4982 25.4149L20.8942 27.3323C21.894 28.1324 23.3465 28.0033 24.1896 27.0395L28.1129 22.5545Z" fill="url(#paint0_linear_826_5373)"/>
<defs>
<linearGradient id="paint0_linear_826_5373" x1="5.88095" y1="-6.5" x2="32.8095" y2="30.6429" gradientUnits="userSpaceOnUse">
<stop stop-color="#3B82F6"/>
<stop offset="1" stop-color="#3B7BF6" stop-opacity="0"/>
</linearGradient>
</defs>
</svg>
