<?xml version="1.0" encoding="UTF-8"?>
<svg version="1.1" viewBox="0 0 2048 2048" width="1280" height="1280" xmlns="http://www.w3.org/2000/svg">
<path transform="translate(384,855)" d="m0 0h14l14 3 14 7 19 13 17 11 25 14 22 11 28 12 22 8 34 10 39 8 32 4 25 2h48l34-3 32-5 31-7 33-10 32-12 26-12 23-12 25-15 16-11 14-9 12-5 12-2h13l14 3 16 8 19 12 17 13 5 4-2 4-22 15-17 13-14 11-14 12-12 11-8 7-21 21-7 8-11 12-9 11-13 16-14 19-11 16-9 14-8 13-10 17-6 11-14 28-14 33-10 27-10 33-7 28-7 35-4 27-3 37-1 25v16l2 41 3 30 5 32 7 33 8 30 12 36 11 28 13 28 12 24 14 24 13 21 12 17 13 18 10 12v3h-658l-21-2-22-5-18-6-23-11-16-10-14-11-14-13v-2h-2l-7-8-13-17-9-15-10-21-7-21-5-25-1-10-1-25v-71l1-46 3-69 5-69 5-52 8-67 10-67 6-28 7-23 11-28 15-31 13-23 12-19 14-20 9-12 13-16 11-13 7-7 1-2h2l2-4h2l2-4h2l2-4h2v-2l8-7 11-10 20-15 21-14 15-8 11-3z"/>
<path transform="translate(1423,927)" d="m0 0h33l29 2 33 4 30 6 31 8 29 10 29 12 25 12 18 10 23 14 17 12 17 13 10 8 15 13 15 14 13 13v2h2l7 8 12 14 12 15 12 17 12 18 9 15 12 22 14 29 10 26 10 30 8 32 6 34 3 26 1 15v54l-2 25-4 29-7 34-8 28-8 24-9 22-11 24-12 23-12 20-8 12-12 17-13 17-12 14-11 12-3 4h-2l-2 4-9 9-8 7-13 12-11 9-14 11-18 13-22 14-21 12-17 9-24 11-29 11-29 9-29 7-35 6-28 3-15 1h-47l-35-3-37-6-36-9-36-12-22-9-24-11-19-10-25-15-16-11-14-10-16-13-13-11-12-11-27-27-9-11-8-9-13-17-13-18-15-24-12-22-8-16-10-22-10-27-8-25-6-24-6-31-4-31-2-33v-21l1-24 4-36 5-29 8-32 8-26 12-31 8-18 10-19 9-17 12-19 10-15 10-14 11-14 11-13 18-20 17-17 8-7 10-9 14-11 13-10 30-20 24-14 30-15 27-11 22-8 32-9 34-7 36-5zm15 186-15 2-12 5-11 7-11 11-7 12-4 12-2 10-10 2-19 8-12 6-11 7-14 11-14 14-9 12-8 13-8 17-7 23-3 24v24l3 21 5 16 7 16 9 13 9 10 4 5 11 9 14 10 14 8 23 10 16 6 32 9 40 10 27 9 16 8v9l-6 11-9 6-16 4-11 1h-12l-24-3-22-6-18-8-23-13-12-4-16-1-14 2-11 4-10 6-10 9-7 9-7 16-2 11v12l3 16 7 14 9 11 11 8 17 10 25 12 20 7 21 6 2 2 4 16 5 11 7 10 10 9 10 6 13 5 6 1h18l14-4 12-6 10-8 8-10 7-14 4-15 24-9 19-9 15-10 11-9 8-7 9-11 7-10 7-12 7-17 5-20 3-27v-15l-2-20-5-19-6-15-9-15-9-11-11-11-16-12-18-10-21-10-36-12-51-13-29-9-13-6-4-3v-8l4-9 4-5 12-6 16-3h24l20 3 20 6 16 7 24 14 13 4 4 1h16l14-3 16-8 12-11 8-11 5-13 2-12v-9l-3-16-5-12-7-10-8-8-17-11-23-12-19-8-27-9-5-1-5-17-5-11-6-9-10-10-14-8-13-4z"/>
<path transform="translate(689,169)" d="m0 0h28l32 3 26 5 28 8 28 11 22 11 21 13 18 13 11 9 13 12 18 18 9 11 13 17 13 20 11 20 12 28 8 24 7 30 4 32v46l-4 31-5 23-8 26-8 20-11 23-12 20-8 12-13 17-9 10-1 2h-2l-2 4-16 16-22 18-17 12-20 12-15 8-26 11-25 8-26 6-28 4-13 1h-34l-23-2-27-5-26-7-22-8-24-11-18-10-21-14-13-10-13-11-9-8v-2l-4-2-12-13-9-10-12-16-10-15-11-19-13-27-9-25-7-26-4-23-3-30v-27l3-30 5-26 6-22 7-20 9-21 11-21 13-20 8-11 10-13 11-12 1-2h2v-2h2l2-4h2l2-4h2v-2l8-7 13-11 15-11 17-11 17-10 24-11 25-9 22-6 26-5z"/>
</svg>
