<svg width="32" height="32" viewBox="0 0 32 32" fill="none" xmlns="http://www.w3.org/2000/svg">
<path d="M21.5893 30.0995H10.5107C8.68163 30.0995 7.19812 28.616 7.19812 26.7869V5.31261C7.19812 3.48351 8.68163 2 10.5107 2H21.5893C23.4184 2 24.9019 3.48351 24.9019 5.31261V26.7869C24.9019 28.616 23.4184 30.0995 21.5893 30.0995Z" fill="#F1A43F"/>
<path d="M22.9663 5.72869V26.377C22.9663 27.3407 22.1965 28.1218 21.2496 28.1218H10.851C9.90413 28.1218 9.13428 27.3407 9.13428 26.377V5.72869C9.13428 5.51797 9.17081 5.31848 9.23824 5.13023C9.47706 4.46153 10.1092 3.98389 10.851 3.98389H21.2496C22.1965 3.98389 22.9663 4.76498 22.9663 5.72869Z" fill="#F1A43F"/>
<path d="M22.9662 5.72869V20.0356C20.6847 20.9009 17.861 20.2238 16.4 17.667L9.2381 5.13023C9.47692 4.46153 10.1091 3.98389 10.8509 3.98389H21.2495C22.1963 3.98389 22.9662 4.76498 22.9662 5.72869Z" fill="#F1A43F"/>
<path d="M16.0514 27.1213C16.6597 27.1213 17.1528 26.6256 17.1528 26.0142C17.1528 25.4029 16.6597 24.9072 16.0514 24.9072C15.4431 24.9072 14.95 25.4029 14.95 26.0142C14.95 26.6256 15.4431 27.1213 16.0514 27.1213Z" fill="white"/>
<path d="M15.7396 19.5072C13.0704 19.2937 10.9632 17.0713 10.9294 14.3908H10.8817C10.4855 14.3908 10.286 13.9132 10.567 13.6322C10.8283 13.3709 11.0896 13.1124 11.3453 12.8539C11.5195 12.6797 11.8004 12.6797 11.9746 12.8567C12.2219 13.1068 12.4748 13.3625 12.7304 13.621C13.0086 13.9019 12.8091 14.3796 12.4158 14.3796C12.1207 17.4028 16.3212 19.3049 18.5998 17.1134C18.878 16.8465 19.3163 16.8549 19.5832 17.1331L19.5973 17.1471C19.8642 17.4253 19.853 17.8692 19.572 18.1333C18.5718 19.0661 17.1107 19.5522 15.7396 19.5072Z" fill="white"/>
<path d="M21.2185 14.4078C21.6147 14.4078 21.8142 14.8883 21.5332 15.1664L20.7802 15.9138C20.606 16.088 20.3222 16.0852 20.148 15.9082C19.9092 15.6637 19.6676 15.4137 19.4203 15.1608C19.145 14.8798 19.3445 14.405 19.7378 14.405H19.7406C19.9738 11.3846 15.9111 9.33634 13.4919 11.6796C13.2166 11.9465 12.7783 11.9437 12.5113 11.6684C12.5085 11.6656 12.5057 11.6628 12.5029 11.6571C12.2388 11.3846 12.2416 10.9519 12.5085 10.6822C15.3182 7.86408 21.0528 9.31668 21.2185 14.4078Z" fill="white"/>
</svg>
