<svg width="88" height="77" viewBox="0 0 88 77" fill="none" xmlns="http://www.w3.org/2000/svg">
<g filter="url(#filter0_d_157_1445)">
<rect x="20" y="3" width="48" height="48" rx="24" fill="#DDF4FF"/>
</g>
<g filter="url(#filter1_d_157_1445)">
<rect x="20" y="3" width="48" height="48" rx="12" fill="#E6FAF4"/>
</g>
<path d="M49.6479 41.4107H38.4495C36.6002 41.4107 35.1002 39.9107 35.1002 38.0614V16.3493C35.1002 14.4999 36.6002 13 38.4495 13H49.6507C51.5001 13 53 14.4999 53 16.3493V38.0614C52.9972 39.9107 51.4972 41.4107 49.6479 41.4107Z" fill="#35D8A7"/>
<path d="M51.0398 16.77V37.6469C51.0398 38.6213 50.2615 39.411 49.3041 39.411H38.7932C37.8359 39.411 37.0575 38.6213 37.0575 37.6469V16.77C37.0575 16.5569 37.0944 16.3552 37.1626 16.1649C37.4041 15.4888 38.0432 15.0059 38.7932 15.0059H49.3041C50.2643 15.0059 51.0398 15.7956 51.0398 16.77Z" fill="#A3EDD7"/>
<path d="M51.04 16.77V31.2353C48.7333 32.1102 45.8783 31.4256 44.4011 28.8405L37.1599 16.1649C37.4014 15.4888 38.0406 15.0059 38.7905 15.0059H49.3043C50.2644 15.0059 51.04 15.7956 51.04 16.77Z" fill="#A3EDD7"/>
<path d="M44.0488 38.4026C44.6638 38.4026 45.1624 37.9015 45.1624 37.2833C45.1624 36.6652 44.6638 36.1641 44.0488 36.1641C43.4338 36.1641 42.9352 36.6652 42.9352 37.2833C42.9352 37.9015 43.4338 38.4026 44.0488 38.4026Z" fill="white"/>
<path d="M44.0487 32.4907C47.265 32.4907 49.8723 29.8745 49.8723 26.6472C49.8723 23.4199 47.265 20.8037 44.0487 20.8037C40.8324 20.8037 38.2251 23.4199 38.2251 26.6472C38.2251 29.8745 40.8324 32.4907 44.0487 32.4907Z" fill="white"/>
<path d="M43.5403 30.3831C42.6483 30.2013 42.1995 29.511 42.1995 28.5167V28.2212C42.1995 28.0962 42.3017 27.994 42.4239 27.994H43.1454C43.2704 27.994 43.3699 28.0962 43.3699 28.2212V28.5934C43.3699 29.0792 43.617 29.2837 44.0119 29.2837C44.4068 29.2837 44.6539 29.0792 44.6539 28.5707C44.6539 28.0053 44.4295 27.5963 43.5943 26.94C42.5801 26.1361 42.2307 25.5026 42.2307 24.6447C42.2307 23.6817 42.671 23.0056 43.5375 22.8124V22.6306C43.5375 22.3493 43.7647 22.1221 44.046 22.1221C44.3272 22.1221 44.5545 22.3493 44.5545 22.6306V22.8124C45.4351 22.9942 45.884 23.6731 45.884 24.6674C45.884 24.7924 45.7817 24.8947 45.6595 24.8947H44.938C44.813 24.8947 44.7136 24.7924 44.7136 24.6674V24.5879C44.7136 24.1021 44.4891 23.8862 44.0943 23.8862C43.6994 23.8862 43.475 24.1021 43.475 24.5651C43.475 25.085 43.6994 25.4827 44.5346 26.1503C45.5487 26.9656 45.8982 27.5877 45.8982 28.4911C45.8982 29.5081 45.4351 30.1984 44.5573 30.3802V30.6643C44.5573 30.9455 44.3301 31.1728 44.0488 31.1728C43.7676 31.1728 43.5403 30.9455 43.5403 30.6643V30.3831Z" fill="#A3EDD7"/>
<path d="M6.07803 74V65.06H7.15803L10.506 69.824H9.95403L13.278 65.06H14.358V74H13.17V66.548L13.59 66.68L10.266 71.36H10.17L6.88203 66.68L7.25403 66.548V74H6.07803ZM19.2837 74.144C18.6597 74.144 18.0957 74 17.5917 73.712C17.0877 73.416 16.6877 73.012 16.3917 72.5C16.0957 71.988 15.9477 71.408 15.9477 70.76C15.9477 70.112 16.0917 69.536 16.3797 69.032C16.6757 68.528 17.0757 68.128 17.5797 67.832C18.0837 67.536 18.6517 67.388 19.2837 67.388C19.9077 67.388 20.4717 67.536 20.9757 67.832C21.4797 68.12 21.8757 68.516 22.1637 69.02C22.4597 69.524 22.6077 70.104 22.6077 70.76C22.6077 71.416 22.4557 72 22.1517 72.512C21.8477 73.016 21.4437 73.416 20.9397 73.712C20.4437 74 19.8917 74.144 19.2837 74.144ZM19.2837 73.064C19.6837 73.064 20.0437 72.964 20.3637 72.764C20.6917 72.564 20.9477 72.288 21.1317 71.936C21.3237 71.584 21.4197 71.192 21.4197 70.76C21.4197 70.32 21.3237 69.932 21.1317 69.596C20.9477 69.252 20.6917 68.98 20.3637 68.78C20.0437 68.572 19.6837 68.468 19.2837 68.468C18.8757 68.468 18.5077 68.572 18.1797 68.78C17.8597 68.98 17.6037 69.252 17.4117 69.596C17.2197 69.932 17.1237 70.32 17.1237 70.76C17.1237 71.192 17.2197 71.584 17.4117 71.936C17.6037 72.288 17.8597 72.564 18.1797 72.764C18.5077 72.964 18.8757 73.064 19.2837 73.064ZM27.4112 74.144C26.8912 74.144 26.4152 74.028 25.9832 73.796C25.5592 73.564 25.2312 73.236 24.9992 72.812L25.1552 72.62V74H24.0632V64.916H25.1792V68.924L25.0112 68.648C25.2512 68.264 25.5792 67.96 25.9952 67.736C26.4112 67.504 26.8872 67.388 27.4232 67.388C28.0312 67.388 28.5752 67.536 29.0552 67.832C29.5432 68.128 29.9272 68.532 30.2072 69.044C30.4872 69.548 30.6272 70.124 30.6272 70.772C30.6272 71.404 30.4872 71.976 30.2072 72.488C29.9272 73 29.5432 73.404 29.0552 73.7C28.5752 73.996 28.0272 74.144 27.4112 74.144ZM27.3272 73.064C27.7352 73.064 28.0992 72.964 28.4192 72.764C28.7392 72.564 28.9872 72.292 29.1632 71.948C29.3472 71.596 29.4392 71.204 29.4392 70.772C29.4392 70.324 29.3472 69.932 29.1632 69.596C28.9872 69.252 28.7392 68.98 28.4192 68.78C28.0992 68.572 27.7352 68.468 27.3272 68.468C26.9192 68.468 26.5512 68.568 26.2232 68.768C25.9032 68.968 25.6472 69.244 25.4552 69.596C25.2712 69.94 25.1792 70.332 25.1792 70.772C25.1792 71.204 25.2712 71.596 25.4552 71.948C25.6472 72.292 25.9032 72.564 26.2232 72.764C26.5512 72.964 26.9192 73.064 27.3272 73.064ZM32.0906 74V67.532H33.2066V74H32.0906ZM32.0906 66.5V65.06H33.2066V66.5H32.0906ZM34.9382 74V64.916H36.0542V74H34.9382ZM40.7619 74.144C40.1379 74.144 39.5819 73.996 39.0939 73.7C38.6059 73.404 38.2219 73 37.9419 72.488C37.6619 71.968 37.5219 71.388 37.5219 70.748C37.5219 70.1 37.6579 69.524 37.9299 69.02C38.2099 68.516 38.5859 68.12 39.0579 67.832C39.5379 67.536 40.0739 67.388 40.6659 67.388C41.1459 67.388 41.5699 67.476 41.9379 67.652C42.3139 67.82 42.6299 68.052 42.8859 68.348C43.1499 68.636 43.3499 68.968 43.4859 69.344C43.6299 69.712 43.7019 70.096 43.7019 70.496C43.7019 70.584 43.6939 70.684 43.6779 70.796C43.6699 70.9 43.6579 71 43.6419 71.096H38.3379V70.136H42.9939L42.4659 70.568C42.5379 70.152 42.4979 69.78 42.3459 69.452C42.1939 69.124 41.9699 68.864 41.6739 68.672C41.3779 68.48 41.0419 68.384 40.6659 68.384C40.2899 68.384 39.9459 68.48 39.6339 68.672C39.3219 68.864 39.0779 69.14 38.9019 69.5C38.7339 69.852 38.6659 70.272 38.6979 70.76C38.6659 71.232 38.7379 71.648 38.9139 72.008C39.0979 72.36 39.3539 72.636 39.6819 72.836C40.0179 73.028 40.3819 73.124 40.7739 73.124C41.2059 73.124 41.5699 73.024 41.8659 72.824C42.1619 72.624 42.4019 72.368 42.5859 72.056L43.5219 72.536C43.3939 72.832 43.1939 73.104 42.9219 73.352C42.6579 73.592 42.3419 73.784 41.9739 73.928C41.6139 74.072 41.2099 74.144 40.7619 74.144ZM51.4792 74.144C50.8472 74.144 50.2632 74.032 49.7272 73.808C49.1992 73.576 48.7352 73.252 48.3352 72.836C47.9432 72.42 47.6392 71.932 47.4232 71.372C47.2072 70.812 47.0992 70.2 47.0992 69.536C47.0992 68.864 47.2072 68.248 47.4232 67.688C47.6392 67.128 47.9432 66.64 48.3352 66.224C48.7272 65.808 49.1912 65.488 49.7272 65.264C50.2632 65.032 50.8472 64.916 51.4792 64.916C52.0952 64.916 52.6472 65.024 53.1352 65.24C53.6312 65.456 54.0472 65.736 54.3832 66.08C54.7272 66.424 54.9712 66.792 55.1152 67.184L54.0352 67.676C53.8272 67.18 53.5032 66.78 53.0632 66.476C52.6232 66.164 52.0952 66.008 51.4792 66.008C50.8552 66.008 50.2992 66.156 49.8112 66.452C49.3312 66.748 48.9552 67.16 48.6832 67.688C48.4112 68.216 48.2752 68.832 48.2752 69.536C48.2752 70.232 48.4112 70.844 48.6832 71.372C48.9552 71.9 49.3312 72.312 49.8112 72.608C50.2992 72.904 50.8552 73.052 51.4792 73.052C52.0952 73.052 52.6232 72.9 53.0632 72.596C53.5032 72.284 53.8272 71.88 54.0352 71.384L55.1152 71.876C54.9712 72.268 54.7272 72.636 54.3832 72.98C54.0472 73.324 53.6312 73.604 53.1352 73.82C52.6472 74.036 52.0952 74.144 51.4792 74.144ZM56.5828 74V67.532H57.6748V68.72L57.5548 68.552C57.7068 68.184 57.9388 67.912 58.2508 67.736C58.5628 67.552 58.9428 67.46 59.3908 67.46H59.7868V68.516H59.2228C58.7668 68.516 58.3988 68.66 58.1188 68.948C57.8388 69.228 57.6988 69.628 57.6988 70.148V74H56.5828ZM63.7541 74.144C63.1301 74.144 62.5741 73.996 62.0861 73.7C61.5981 73.404 61.2141 73 60.9341 72.488C60.6541 71.968 60.5141 71.388 60.5141 70.748C60.5141 70.1 60.6501 69.524 60.9221 69.02C61.2021 68.516 61.5781 68.12 62.0501 67.832C62.5301 67.536 63.0661 67.388 63.6581 67.388C64.1381 67.388 64.5621 67.476 64.9301 67.652C65.3061 67.82 65.6221 68.052 65.8781 68.348C66.1421 68.636 66.3421 68.968 66.4781 69.344C66.6221 69.712 66.6941 70.096 66.6941 70.496C66.6941 70.584 66.6861 70.684 66.6701 70.796C66.6621 70.9 66.6501 71 66.6341 71.096H61.3301V70.136H65.9861L65.4581 70.568C65.5301 70.152 65.4901 69.78 65.3381 69.452C65.1861 69.124 64.9621 68.864 64.6661 68.672C64.3701 68.48 64.0341 68.384 63.6581 68.384C63.2821 68.384 62.9381 68.48 62.6261 68.672C62.3141 68.864 62.0701 69.14 61.8941 69.5C61.7261 69.852 61.6581 70.272 61.6901 70.76C61.6581 71.232 61.7301 71.648 61.9061 72.008C62.0901 72.36 62.3461 72.636 62.6741 72.836C63.0101 73.028 63.3741 73.124 63.7661 73.124C64.1981 73.124 64.5621 73.024 64.8581 72.824C65.1541 72.624 65.3941 72.368 65.5781 72.056L66.5141 72.536C66.3861 72.832 66.1861 73.104 65.9141 73.352C65.6501 73.592 65.3341 73.784 64.9661 73.928C64.6061 74.072 64.2021 74.144 63.7541 74.144ZM71.0892 74.144C70.4812 74.144 69.9332 73.996 69.4452 73.7C68.9652 73.404 68.5852 73 68.3052 72.488C68.0252 71.976 67.8852 71.404 67.8852 70.772C67.8852 70.124 68.0252 69.548 68.3052 69.044C68.5852 68.532 68.9652 68.128 69.4452 67.832C69.9332 67.536 70.4812 67.388 71.0892 67.388C71.6252 67.388 72.1012 67.504 72.5172 67.736C72.9332 67.96 73.2612 68.264 73.5012 68.648L73.3212 68.924V64.916H74.4492V74H73.3572V72.62L73.5012 72.812C73.2772 73.236 72.9492 73.564 72.5172 73.796C72.0932 74.028 71.6172 74.144 71.0892 74.144ZM71.1852 73.064C71.5932 73.064 71.9572 72.964 72.2772 72.764C72.5972 72.564 72.8492 72.292 73.0332 71.948C73.2252 71.596 73.3212 71.204 73.3212 70.772C73.3212 70.332 73.2252 69.94 73.0332 69.596C72.8492 69.244 72.5972 68.968 72.2772 68.768C71.9572 68.568 71.5932 68.468 71.1852 68.468C70.7852 68.468 70.4212 68.572 70.0932 68.78C69.7732 68.98 69.5212 69.252 69.3372 69.596C69.1532 69.932 69.0612 70.324 69.0612 70.772C69.0612 71.204 69.1532 71.596 69.3372 71.948C69.5212 72.292 69.7732 72.564 70.0932 72.764C70.4132 72.964 70.7772 73.064 71.1852 73.064ZM76.1765 74V67.532H77.2925V74H76.1765ZM76.1765 66.5V65.06H77.2925V66.5H76.1765ZM81.6522 74.072C81.0202 74.072 80.5322 73.892 80.1882 73.532C79.8522 73.172 79.6842 72.664 79.6842 72.008V68.6H78.5082V67.532H78.7482C79.0362 67.532 79.2642 67.444 79.4322 67.268C79.6002 67.092 79.6842 66.86 79.6842 66.572V66.044H80.8002V67.532H82.2522V68.6H80.8002V71.972C80.8002 72.188 80.8322 72.376 80.8962 72.536C80.9682 72.696 81.0842 72.824 81.2442 72.92C81.4042 73.008 81.6162 73.052 81.8802 73.052C81.9362 73.052 82.0042 73.048 82.0842 73.04C82.1722 73.032 82.2522 73.024 82.3242 73.016V74C82.2202 74.024 82.1042 74.04 81.9762 74.048C81.8482 74.064 81.7402 74.072 81.6522 74.072Z" fill="#0C192C"/>
<defs>
<filter id="filter0_d_157_1445" x="15" y="0" width="58" height="58" filterUnits="userSpaceOnUse" color-interpolation-filters="sRGB">
<feFlood flood-opacity="0" result="BackgroundImageFix"/>
<feColorMatrix in="SourceAlpha" type="matrix" values="0 0 0 0 0 0 0 0 0 0 0 0 0 0 0 0 0 0 127 0" result="hardAlpha"/>
<feOffset dy="2"/>
<feGaussianBlur stdDeviation="2.5"/>
<feComposite in2="hardAlpha" operator="out"/>
<feColorMatrix type="matrix" values="0 0 0 0 0 0 0 0 0 0 0 0 0 0 0 0 0 0 0.05 0"/>
<feBlend mode="normal" in2="BackgroundImageFix" result="effect1_dropShadow_157_1445"/>
<feBlend mode="normal" in="SourceGraphic" in2="effect1_dropShadow_157_1445" result="shape"/>
</filter>
<filter id="filter1_d_157_1445" x="15" y="0" width="58" height="58" filterUnits="userSpaceOnUse" color-interpolation-filters="sRGB">
<feFlood flood-opacity="0" result="BackgroundImageFix"/>
<feColorMatrix in="SourceAlpha" type="matrix" values="0 0 0 0 0 0 0 0 0 0 0 0 0 0 0 0 0 0 127 0" result="hardAlpha"/>
<feOffset dy="2"/>
<feGaussianBlur stdDeviation="2.5"/>
<feComposite in2="hardAlpha" operator="out"/>
<feColorMatrix type="matrix" values="0 0 0 0 0 0 0 0 0 0 0 0 0 0 0 0 0 0 0.05 0"/>
<feBlend mode="normal" in2="BackgroundImageFix" result="effect1_dropShadow_157_1445"/>
<feBlend mode="normal" in="SourceGraphic" in2="effect1_dropShadow_157_1445" result="shape"/>
</filter>
</defs>
</svg>
