<svg width="18" height="29" viewBox="0 0 18 29" fill="none" xmlns="http://www.w3.org/2000/svg">
<path d="M14.6479 28.4107H3.4495C1.60015 28.4107 0.10022 26.9107 0.10022 25.0614V3.34928C0.10022 1.49993 1.60015 0 3.4495 0H14.6507C16.5001 0 18 1.49993 18 3.34928V25.0614C17.9972 26.9107 16.4972 28.4107 14.6479 28.4107Z" fill="#35D8A7"/>
<path d="M16.0399 3.76974V24.6467C16.0399 25.6211 15.2615 26.4108 14.3042 26.4108H3.79328C2.83593 26.4108 2.05756 25.6211 2.05756 24.6467V3.76974C2.05756 3.55669 2.09449 3.35499 2.16267 3.16466C2.40413 2.48855 3.04331 2.00562 3.79328 2.00562H14.3042C15.2644 2.00562 16.0399 2.79536 16.0399 3.76974Z" fill="#A3EDD7"/>
<path d="M16.04 3.76974V18.235C13.7333 19.11 10.8783 18.4253 9.40107 15.8402L2.15991 3.16466C2.40138 2.48855 3.04056 2.00562 3.79052 2.00562H14.3043C15.2644 2.00562 16.04 2.79536 16.04 3.76974Z" fill="#A3EDD7"/>
<path d="M9.04883 25.4024C9.66385 25.4024 10.1624 24.9012 10.1624 24.2831C10.1624 23.6649 9.66385 23.1638 9.04883 23.1638C8.43381 23.1638 7.93524 23.6649 7.93524 24.2831C7.93524 24.9012 8.43381 25.4024 9.04883 25.4024Z" fill="white"/>
<path d="M9.04877 19.4907C12.2651 19.4907 14.8724 16.8745 14.8724 13.6472C14.8724 10.4199 12.2651 7.80371 9.04877 7.80371C5.83248 7.80371 3.22516 10.4199 3.22516 13.6472C3.22516 16.8745 5.83248 19.4907 9.04877 19.4907Z" fill="white"/>
<path d="M8.54025 17.3828C7.64825 17.201 7.1994 16.5107 7.1994 15.5164V15.221C7.1994 15.096 7.30167 14.9937 7.42382 14.9937H8.14538C8.27038 14.9937 8.36981 15.096 8.36981 15.221V15.5931C8.36981 16.0789 8.61695 16.2834 9.01182 16.2834C9.40669 16.2834 9.65384 16.0789 9.65384 15.5704C9.65384 15.0051 9.42942 14.596 8.59423 13.9398C7.58007 13.1359 7.23065 12.5024 7.23065 11.6444C7.23065 10.6814 7.67097 10.0053 8.53741 9.81214V9.63033C8.53741 9.34909 8.76467 9.12183 9.04591 9.12183C9.32715 9.12183 9.55441 9.34909 9.55441 9.63033V9.81214C10.4351 9.99395 10.8839 10.6729 10.8839 11.6672C10.8839 11.7922 10.7816 11.8944 10.6595 11.8944H9.93792C9.81292 11.8944 9.7135 11.7922 9.7135 11.6672V11.5876C9.7135 11.1019 9.48907 10.886 9.09421 10.886C8.69934 10.886 8.47491 11.1019 8.47491 11.5649C8.47491 12.0848 8.69934 12.4825 9.53453 13.1501C10.5487 13.9654 10.8981 14.5875 10.8981 15.4909C10.8981 16.5079 10.4351 17.1982 9.55725 17.38V17.6641C9.55725 17.9453 9.32999 18.1726 9.04875 18.1726C8.76751 18.1726 8.54025 17.9453 8.54025 17.6641V17.3828Z" fill="#A3EDD7"/>
</svg>
