<svg width="88" height="93" viewBox="0 0 88 93" fill="none" xmlns="http://www.w3.org/2000/svg">
<g filter="url(#filter0_d_157_1422)">
<rect x="20" y="3" width="48" height="48" rx="24" fill="#BFD8FF"/>
</g>
<g filter="url(#filter1_d_157_1422)">
<rect x="20" y="3" width="48" height="48" rx="12" fill="#FDF4E8"/>
</g>
<path d="M49.5893 41.0995H38.5107C36.6816 41.0995 35.1981 39.616 35.1981 37.7869V16.3126C35.1981 14.4835 36.6816 13 38.5107 13H49.5893C51.4184 13 52.9019 14.4835 52.9019 16.3126V37.7869C52.9019 39.616 51.4184 41.0995 49.5893 41.0995Z" fill="#F1A43F"/>
<path d="M50.9663 16.7287V37.377C50.9663 38.3407 50.1965 39.1218 49.2496 39.1218H38.851C37.9041 39.1218 37.1343 38.3407 37.1343 37.377V16.7287C37.1343 16.518 37.1708 16.3185 37.2382 16.1302C37.4771 15.4615 38.1092 14.9839 38.851 14.9839H49.2496C50.1965 14.9839 50.9663 15.765 50.9663 16.7287Z" fill="#F1A43F"/>
<path d="M50.9662 16.7287V31.0356C48.6848 31.9009 45.861 31.2238 44.4 28.667L37.2382 16.1302C37.477 15.4615 38.1092 14.9839 38.8509 14.9839H49.2495C50.1964 14.9839 50.9662 15.765 50.9662 16.7287Z" fill="#F1A43F"/>
<path d="M44.0515 38.1213C44.6597 38.1213 45.1529 37.6256 45.1529 37.0142C45.1529 36.4029 44.6597 35.9072 44.0515 35.9072C43.4432 35.9072 42.9501 36.4029 42.9501 37.0142C42.9501 37.6256 43.4432 38.1213 44.0515 38.1213Z" fill="white"/>
<path d="M43.7395 30.5072C41.0703 30.2937 38.963 28.0713 38.9293 25.3908H38.8816C38.4854 25.3908 38.2859 24.9132 38.5669 24.6322C38.8282 24.3709 39.0895 24.1124 39.3452 23.8539C39.5194 23.6797 39.8003 23.6797 39.9745 23.8567C40.2218 24.1068 40.4746 24.3625 40.7303 24.621C41.0085 24.9019 40.809 25.3796 40.4156 25.3796C40.1206 28.4028 44.3211 30.3049 46.5997 28.1134C46.8779 27.8465 47.3162 27.8549 47.5831 28.1331L47.5972 28.1471C47.8641 28.4253 47.8528 28.8692 47.5719 29.1333C46.5716 30.0661 45.1106 30.5522 43.7395 30.5072Z" fill="white"/>
<path d="M49.2185 25.4076C49.6146 25.4076 49.8141 25.888 49.5331 26.1662L48.7802 26.9135C48.606 27.0877 48.3222 27.0849 48.148 26.9079C47.9092 26.6635 47.6675 26.4134 47.4203 26.1606C47.1449 25.8796 47.3444 25.4048 47.7378 25.4048H47.7406C47.9738 22.3844 43.911 20.3361 41.4919 22.6794C41.2165 22.9463 40.7782 22.9435 40.5113 22.6681C40.5085 22.6653 40.5057 22.6625 40.5029 22.6569C40.2387 22.3844 40.2416 21.9517 40.5085 21.6819C43.3182 18.8638 49.0527 20.3164 49.2185 25.4076Z" fill="white"/>
<path d="M24.3534 74V65.06H25.4334L28.7814 69.824H28.2294L31.5534 65.06H32.6334V74H31.4454V66.548L31.8654 66.68L28.5414 71.36H28.4454L25.1574 66.68L25.5294 66.548V74H24.3534ZM37.559 74.144C36.935 74.144 36.371 74 35.867 73.712C35.363 73.416 34.963 73.012 34.667 72.5C34.371 71.988 34.223 71.408 34.223 70.76C34.223 70.112 34.367 69.536 34.655 69.032C34.951 68.528 35.351 68.128 35.855 67.832C36.359 67.536 36.927 67.388 37.559 67.388C38.183 67.388 38.747 67.536 39.251 67.832C39.755 68.12 40.151 68.516 40.439 69.02C40.735 69.524 40.883 70.104 40.883 70.76C40.883 71.416 40.731 72 40.427 72.512C40.123 73.016 39.719 73.416 39.215 73.712C38.719 74 38.167 74.144 37.559 74.144ZM37.559 73.064C37.959 73.064 38.319 72.964 38.639 72.764C38.967 72.564 39.223 72.288 39.407 71.936C39.599 71.584 39.695 71.192 39.695 70.76C39.695 70.32 39.599 69.932 39.407 69.596C39.223 69.252 38.967 68.98 38.639 68.78C38.319 68.572 37.959 68.468 37.559 68.468C37.151 68.468 36.783 68.572 36.455 68.78C36.135 68.98 35.879 69.252 35.687 69.596C35.495 69.932 35.399 70.32 35.399 70.76C35.399 71.192 35.495 71.584 35.687 71.936C35.879 72.288 36.135 72.564 36.455 72.764C36.783 72.964 37.151 73.064 37.559 73.064ZM45.6866 74.144C45.1666 74.144 44.6906 74.028 44.2586 73.796C43.8346 73.564 43.5066 73.236 43.2746 72.812L43.4306 72.62V74H42.3386V64.916H43.4546V68.924L43.2866 68.648C43.5266 68.264 43.8546 67.96 44.2706 67.736C44.6866 67.504 45.1626 67.388 45.6986 67.388C46.3066 67.388 46.8506 67.536 47.3306 67.832C47.8186 68.128 48.2026 68.532 48.4826 69.044C48.7626 69.548 48.9026 70.124 48.9026 70.772C48.9026 71.404 48.7626 71.976 48.4826 72.488C48.2026 73 47.8186 73.404 47.3306 73.7C46.8506 73.996 46.3026 74.144 45.6866 74.144ZM45.6026 73.064C46.0106 73.064 46.3746 72.964 46.6946 72.764C47.0146 72.564 47.2626 72.292 47.4386 71.948C47.6226 71.596 47.7146 71.204 47.7146 70.772C47.7146 70.324 47.6226 69.932 47.4386 69.596C47.2626 69.252 47.0146 68.98 46.6946 68.78C46.3746 68.572 46.0106 68.468 45.6026 68.468C45.1946 68.468 44.8266 68.568 44.4986 68.768C44.1786 68.968 43.9226 69.244 43.7306 69.596C43.5466 69.94 43.4546 70.332 43.4546 70.772C43.4546 71.204 43.5466 71.596 43.7306 71.948C43.9226 72.292 44.1786 72.564 44.4986 72.764C44.8266 72.964 45.1946 73.064 45.6026 73.064ZM50.366 74V67.532H51.482V74H50.366ZM50.366 66.5V65.06H51.482V66.5H50.366ZM53.2136 74V64.916H54.3296V74H53.2136ZM59.0373 74.144C58.4133 74.144 57.8573 73.996 57.3693 73.7C56.8813 73.404 56.4973 73 56.2173 72.488C55.9373 71.968 55.7973 71.388 55.7973 70.748C55.7973 70.1 55.9333 69.524 56.2053 69.02C56.4853 68.516 56.8613 68.12 57.3333 67.832C57.8133 67.536 58.3493 67.388 58.9413 67.388C59.4213 67.388 59.8453 67.476 60.2133 67.652C60.5893 67.82 60.9053 68.052 61.1613 68.348C61.4253 68.636 61.6253 68.968 61.7613 69.344C61.9053 69.712 61.9773 70.096 61.9773 70.496C61.9773 70.584 61.9693 70.684 61.9533 70.796C61.9453 70.9 61.9333 71 61.9173 71.096H56.6133V70.136H61.2693L60.7413 70.568C60.8133 70.152 60.7733 69.78 60.6213 69.452C60.4693 69.124 60.2453 68.864 59.9493 68.672C59.6533 68.48 59.3173 68.384 58.9413 68.384C58.5653 68.384 58.2213 68.48 57.9093 68.672C57.5973 68.864 57.3533 69.14 57.1773 69.5C57.0093 69.852 56.9413 70.272 56.9733 70.76C56.9413 71.232 57.0133 71.648 57.1893 72.008C57.3733 72.36 57.6293 72.636 57.9573 72.836C58.2933 73.028 58.6573 73.124 59.0493 73.124C59.4813 73.124 59.8453 73.024 60.1413 72.824C60.4373 72.624 60.6773 72.368 60.8613 72.056L61.7973 72.536C61.6693 72.832 61.4693 73.104 61.1973 73.352C60.9333 73.592 60.6173 73.784 60.2493 73.928C59.8893 74.072 59.4853 74.144 59.0373 74.144ZM18.9745 90V81.06H22.1305C22.7225 81.06 23.2425 81.172 23.6905 81.396C24.1385 81.62 24.4865 81.94 24.7345 82.356C24.9905 82.772 25.1185 83.26 25.1185 83.82C25.1185 84.38 24.9905 84.868 24.7345 85.284C24.4865 85.692 24.1385 86.012 23.6905 86.244C23.2505 86.468 22.7305 86.58 22.1305 86.58H20.1505V90H18.9745ZM20.1505 85.5H22.1665C22.5265 85.5 22.8385 85.432 23.1025 85.296C23.3665 85.16 23.5705 84.964 23.7145 84.708C23.8585 84.452 23.9305 84.156 23.9305 83.82C23.9305 83.476 23.8585 83.18 23.7145 82.932C23.5705 82.676 23.3665 82.48 23.1025 82.344C22.8385 82.208 22.5265 82.14 22.1665 82.14H20.1505V85.5ZM29.4145 90.144C28.7905 90.144 28.2265 90 27.7225 89.712C27.2185 89.416 26.8185 89.012 26.5225 88.5C26.2265 87.988 26.0785 87.408 26.0785 86.76C26.0785 86.112 26.2225 85.536 26.5105 85.032C26.8065 84.528 27.2065 84.128 27.7105 83.832C28.2145 83.536 28.7825 83.388 29.4145 83.388C30.0385 83.388 30.6025 83.536 31.1065 83.832C31.6105 84.12 32.0065 84.516 32.2945 85.02C32.5905 85.524 32.7385 86.104 32.7385 86.76C32.7385 87.416 32.5865 88 32.2825 88.512C31.9785 89.016 31.5745 89.416 31.0705 89.712C30.5745 90 30.0225 90.144 29.4145 90.144ZM29.4145 89.064C29.8145 89.064 30.1745 88.964 30.4945 88.764C30.8225 88.564 31.0785 88.288 31.2625 87.936C31.4545 87.584 31.5505 87.192 31.5505 86.76C31.5505 86.32 31.4545 85.932 31.2625 85.596C31.0785 85.252 30.8225 84.98 30.4945 84.78C30.1745 84.572 29.8145 84.468 29.4145 84.468C29.0065 84.468 28.6385 84.572 28.3105 84.78C27.9905 84.98 27.7345 85.252 27.5425 85.596C27.3505 85.932 27.2545 86.32 27.2545 86.76C27.2545 87.192 27.3505 87.584 27.5425 87.936C27.7345 88.288 27.9905 88.564 28.3105 88.764C28.6385 88.964 29.0065 89.064 29.4145 89.064ZM36.5101 90.144C35.8621 90.144 35.2981 89.984 34.8181 89.664C34.3381 89.344 33.9981 88.912 33.7981 88.368L34.6861 87.936C34.8701 88.32 35.1221 88.624 35.4421 88.848C35.7621 89.072 36.1181 89.184 36.5101 89.184C36.8621 89.184 37.1541 89.1 37.3861 88.932C37.6181 88.764 37.7341 88.544 37.7341 88.272C37.7341 88.08 37.6781 87.928 37.5661 87.816C37.4621 87.696 37.3341 87.604 37.1821 87.54C37.0301 87.468 36.8901 87.416 36.7621 87.384L35.7901 87.108C35.2061 86.94 34.7781 86.7 34.5061 86.388C34.2421 86.076 34.1101 85.712 34.1101 85.296C34.1101 84.912 34.2061 84.58 34.3981 84.3C34.5981 84.012 34.8661 83.788 35.2021 83.628C35.5461 83.468 35.9301 83.388 36.3541 83.388C36.9221 83.388 37.4301 83.532 37.8781 83.82C38.3341 84.108 38.6581 84.512 38.8501 85.032L37.9381 85.452C37.7941 85.116 37.5781 84.852 37.2901 84.66C37.0021 84.46 36.6781 84.36 36.3181 84.36C35.9901 84.36 35.7301 84.444 35.5381 84.612C35.3461 84.772 35.2501 84.976 35.2501 85.224C35.2501 85.408 35.2981 85.56 35.3941 85.68C35.4901 85.792 35.6061 85.88 35.7421 85.944C35.8781 86 36.0101 86.048 36.1381 86.088L37.1941 86.4C37.7221 86.552 38.1301 86.788 38.4181 87.108C38.7141 87.428 38.8621 87.812 38.8621 88.26C38.8621 88.62 38.7621 88.944 38.5621 89.232C38.3621 89.52 38.0861 89.744 37.7341 89.904C37.3821 90.064 36.9741 90.144 36.5101 90.144ZM42.951 90.072C42.319 90.072 41.831 89.892 41.487 89.532C41.151 89.172 40.983 88.664 40.983 88.008V84.6H39.807V83.532H40.047C40.335 83.532 40.563 83.444 40.731 83.268C40.899 83.092 40.983 82.86 40.983 82.572V82.044H42.099V83.532H43.551V84.6H42.099V87.972C42.099 88.188 42.131 88.376 42.195 88.536C42.267 88.696 42.383 88.824 42.543 88.92C42.703 89.008 42.915 89.052 43.179 89.052C43.235 89.052 43.303 89.048 43.383 89.04C43.471 89.032 43.551 89.024 43.623 89.016V90C43.519 90.024 43.403 90.04 43.275 90.048C43.147 90.064 43.039 90.072 42.951 90.072ZM45.0808 92.4V83.532H46.1728V84.924L46.0288 84.648C46.2688 84.264 46.5968 83.96 47.0128 83.736C47.4288 83.504 47.9048 83.388 48.4408 83.388C49.0488 83.388 49.5928 83.536 50.0728 83.832C50.5608 84.128 50.9448 84.532 51.2248 85.044C51.5048 85.548 51.6448 86.124 51.6448 86.772C51.6448 87.404 51.5048 87.976 51.2248 88.488C50.9448 89 50.5608 89.404 50.0728 89.7C49.5928 89.996 49.0448 90.144 48.4288 90.144C47.9088 90.144 47.4328 90.028 47.0008 89.796C46.5768 89.564 46.2488 89.236 46.0168 88.812L46.1968 88.62V92.4H45.0808ZM48.3448 89.064C48.7528 89.064 49.1168 88.964 49.4368 88.764C49.7568 88.564 50.0048 88.292 50.1808 87.948C50.3648 87.596 50.4568 87.204 50.4568 86.772C50.4568 86.324 50.3648 85.932 50.1808 85.596C50.0048 85.252 49.7568 84.98 49.4368 84.78C49.1168 84.572 48.7528 84.468 48.3448 84.468C47.9368 84.468 47.5688 84.568 47.2408 84.768C46.9208 84.968 46.6648 85.244 46.4728 85.596C46.2888 85.94 46.1968 86.332 46.1968 86.772C46.1968 87.204 46.2888 87.596 46.4728 87.948C46.6648 88.292 46.9208 88.564 47.2408 88.764C47.5688 88.964 47.9368 89.064 48.3448 89.064ZM55.0041 90.144C54.5801 90.144 54.2041 90.068 53.8761 89.916C53.5561 89.756 53.3041 89.54 53.1201 89.268C52.9361 88.988 52.8441 88.668 52.8441 88.308C52.8441 87.964 52.9161 87.656 53.0601 87.384C53.2121 87.104 53.4441 86.868 53.7561 86.676C54.0761 86.484 54.4761 86.348 54.9561 86.268L57.3561 85.872V86.808L55.2081 87.168C54.7921 87.24 54.4881 87.372 54.2961 87.564C54.1121 87.756 54.0201 87.992 54.0201 88.272C54.0201 88.536 54.1241 88.756 54.3321 88.932C54.5481 89.108 54.8161 89.196 55.1361 89.196C55.5441 89.196 55.8961 89.112 56.1921 88.944C56.4961 88.768 56.7321 88.532 56.9001 88.236C57.0761 87.94 57.1641 87.612 57.1641 87.252V85.608C57.1641 85.256 57.0321 84.972 56.7681 84.756C56.5121 84.532 56.1721 84.42 55.7481 84.42C55.3801 84.42 55.0521 84.516 54.7641 84.708C54.4841 84.892 54.2761 85.14 54.1401 85.452L53.1681 84.948C53.2881 84.652 53.4801 84.388 53.7441 84.156C54.0081 83.916 54.3161 83.728 54.6681 83.592C55.0201 83.456 55.3881 83.388 55.7721 83.388C56.2681 83.388 56.7041 83.484 57.0801 83.676C57.4561 83.86 57.7481 84.12 57.9561 84.456C58.1721 84.784 58.2801 85.168 58.2801 85.608V90H57.1881V88.776L57.3921 88.848C57.2561 89.104 57.0721 89.328 56.8401 89.52C56.6081 89.712 56.3361 89.864 56.0241 89.976C55.7121 90.088 55.3721 90.144 55.0041 90.144ZM60.0105 90V83.532H61.1265V90H60.0105ZM60.0105 82.5V81.06H61.1265V82.5H60.0105ZM65.7981 90.144C65.1901 90.144 64.6421 89.996 64.1541 89.7C63.6741 89.404 63.2941 89 63.0141 88.488C62.7341 87.976 62.5941 87.404 62.5941 86.772C62.5941 86.124 62.7341 85.548 63.0141 85.044C63.2941 84.532 63.6741 84.128 64.1541 83.832C64.6421 83.536 65.1901 83.388 65.7981 83.388C66.3341 83.388 66.8101 83.504 67.2261 83.736C67.6421 83.96 67.9701 84.264 68.2101 84.648L68.0301 84.924V80.916H69.1581V90H68.0661V88.62L68.2101 88.812C67.9861 89.236 67.6581 89.564 67.2261 89.796C66.8021 90.028 66.3261 90.144 65.7981 90.144ZM65.8941 89.064C66.3021 89.064 66.6661 88.964 66.9861 88.764C67.3061 88.564 67.5581 88.292 67.7421 87.948C67.9341 87.596 68.0301 87.204 68.0301 86.772C68.0301 86.332 67.9341 85.94 67.7421 85.596C67.5581 85.244 67.3061 84.968 66.9861 84.768C66.6661 84.568 66.3021 84.468 65.8941 84.468C65.4941 84.468 65.1301 84.572 64.8021 84.78C64.4821 84.98 64.2301 85.252 64.0461 85.596C63.8621 85.932 63.7701 86.324 63.7701 86.772C63.7701 87.204 63.8621 87.596 64.0461 87.948C64.2301 88.292 64.4821 88.564 64.8021 88.764C65.1221 88.964 65.4861 89.064 65.8941 89.064Z" fill="#0C192C"/>
<defs>
<filter id="filter0_d_157_1422" x="15" y="0" width="58" height="58" filterUnits="userSpaceOnUse" color-interpolation-filters="sRGB">
<feFlood flood-opacity="0" result="BackgroundImageFix"/>
<feColorMatrix in="SourceAlpha" type="matrix" values="0 0 0 0 0 0 0 0 0 0 0 0 0 0 0 0 0 0 127 0" result="hardAlpha"/>
<feOffset dy="2"/>
<feGaussianBlur stdDeviation="2.5"/>
<feComposite in2="hardAlpha" operator="out"/>
<feColorMatrix type="matrix" values="0 0 0 0 0 0 0 0 0 0 0 0 0 0 0 0 0 0 0.05 0"/>
<feBlend mode="normal" in2="BackgroundImageFix" result="effect1_dropShadow_157_1422"/>
<feBlend mode="normal" in="SourceGraphic" in2="effect1_dropShadow_157_1422" result="shape"/>
</filter>
<filter id="filter1_d_157_1422" x="15" y="0" width="58" height="58" filterUnits="userSpaceOnUse" color-interpolation-filters="sRGB">
<feFlood flood-opacity="0" result="BackgroundImageFix"/>
<feColorMatrix in="SourceAlpha" type="matrix" values="0 0 0 0 0 0 0 0 0 0 0 0 0 0 0 0 0 0 127 0" result="hardAlpha"/>
<feOffset dy="2"/>
<feGaussianBlur stdDeviation="2.5"/>
<feComposite in2="hardAlpha" operator="out"/>
<feColorMatrix type="matrix" values="0 0 0 0 0 0 0 0 0 0 0 0 0 0 0 0 0 0 0.05 0"/>
<feBlend mode="normal" in2="BackgroundImageFix" result="effect1_dropShadow_157_1422"/>
<feBlend mode="normal" in="SourceGraphic" in2="effect1_dropShadow_157_1422" result="shape"/>
</filter>
</defs>
</svg>
