<svg width="88" height="77" viewBox="0 0 88 77" fill="none" xmlns="http://www.w3.org/2000/svg">
<g filter="url(#filter0_d_157_1496)">
<rect x="20" y="3" width="48" height="48" rx="24" fill="#FFE2E2"/>
<g filter="url(#filter1_d_157_1496)">
<rect x="20" y="3" width="48" height="48" rx="12" fill="#E3F3FC"/>
</g>
<rect x="32" y="15" width="9.33333" height="9.33333" rx="3.33333" fill="#159EEC"/>
<rect x="32" y="29.6665" width="9.33333" height="9.33333" rx="3.33333" fill="#159EEC"/>
<rect x="46.6666" y="15" width="9.33333" height="9.33333" rx="3.33333" fill="#159EEC"/>
<rect x="46.6666" y="29.6665" width="9.33333" height="9.33333" rx="4.66667" fill="#159EEC"/>
</g>
<path d="M30.1542 74V65.06H31.2342L34.5822 69.824H34.0302L37.3542 65.06H38.4342V74H37.2462V66.548L37.6662 66.68L34.3422 71.36H34.2462L30.9582 66.68L31.3302 66.548V74H30.1542ZM43.3598 74.144C42.7358 74.144 42.1718 74 41.6678 73.712C41.1638 73.416 40.7638 73.012 40.4678 72.5C40.1718 71.988 40.0238 71.408 40.0238 70.76C40.0238 70.112 40.1678 69.536 40.4558 69.032C40.7518 68.528 41.1518 68.128 41.6558 67.832C42.1598 67.536 42.7278 67.388 43.3598 67.388C43.9838 67.388 44.5478 67.536 45.0518 67.832C45.5558 68.12 45.9518 68.516 46.2398 69.02C46.5358 69.524 46.6838 70.104 46.6838 70.76C46.6838 71.416 46.5318 72 46.2278 72.512C45.9238 73.016 45.5198 73.416 45.0158 73.712C44.5198 74 43.9678 74.144 43.3598 74.144ZM43.3598 73.064C43.7598 73.064 44.1198 72.964 44.4398 72.764C44.7678 72.564 45.0238 72.288 45.2078 71.936C45.3998 71.584 45.4958 71.192 45.4958 70.76C45.4958 70.32 45.3998 69.932 45.2078 69.596C45.0238 69.252 44.7678 68.98 44.4398 68.78C44.1198 68.572 43.7598 68.468 43.3598 68.468C42.9518 68.468 42.5838 68.572 42.2558 68.78C41.9358 68.98 41.6798 69.252 41.4878 69.596C41.2958 69.932 41.1998 70.32 41.1998 70.76C41.1998 71.192 41.2958 71.584 41.4878 71.936C41.6798 72.288 41.9358 72.564 42.2558 72.764C42.5838 72.964 42.9518 73.064 43.3598 73.064ZM48.1394 74V67.532H49.2314V68.72L49.1114 68.552C49.2634 68.184 49.4954 67.912 49.8074 67.736C50.1194 67.552 50.4994 67.46 50.9474 67.46H51.3434V68.516H50.7794C50.3234 68.516 49.9554 68.66 49.6754 68.948C49.3954 69.228 49.2554 69.628 49.2554 70.148V74H48.1394ZM55.3107 74.144C54.6867 74.144 54.1307 73.996 53.6427 73.7C53.1547 73.404 52.7707 73 52.4907 72.488C52.2107 71.968 52.0707 71.388 52.0707 70.748C52.0707 70.1 52.2067 69.524 52.4787 69.02C52.7587 68.516 53.1347 68.12 53.6067 67.832C54.0867 67.536 54.6227 67.388 55.2147 67.388C55.6947 67.388 56.1187 67.476 56.4867 67.652C56.8627 67.82 57.1787 68.052 57.4347 68.348C57.6987 68.636 57.8987 68.968 58.0347 69.344C58.1787 69.712 58.2507 70.096 58.2507 70.496C58.2507 70.584 58.2427 70.684 58.2267 70.796C58.2187 70.9 58.2067 71 58.1907 71.096H52.8867V70.136H57.5427L57.0147 70.568C57.0867 70.152 57.0467 69.78 56.8947 69.452C56.7427 69.124 56.5187 68.864 56.2227 68.672C55.9267 68.48 55.5907 68.384 55.2147 68.384C54.8387 68.384 54.4947 68.48 54.1827 68.672C53.8707 68.864 53.6267 69.14 53.4507 69.5C53.2827 69.852 53.2147 70.272 53.2467 70.76C53.2147 71.232 53.2867 71.648 53.4627 72.008C53.6467 72.36 53.9027 72.636 54.2307 72.836C54.5667 73.028 54.9307 73.124 55.3227 73.124C55.7547 73.124 56.1187 73.024 56.4147 72.824C56.7107 72.624 56.9507 72.368 57.1347 72.056L58.0707 72.536C57.9427 72.832 57.7427 73.104 57.4707 73.352C57.2067 73.592 56.8907 73.784 56.5227 73.928C56.1627 74.072 55.7587 74.144 55.3107 74.144Z" fill="#0C192C"/>
<defs>
<filter id="filter0_d_157_1496" x="15" y="0" width="58" height="58" filterUnits="userSpaceOnUse" color-interpolation-filters="sRGB">
<feFlood flood-opacity="0" result="BackgroundImageFix"/>
<feColorMatrix in="SourceAlpha" type="matrix" values="0 0 0 0 0 0 0 0 0 0 0 0 0 0 0 0 0 0 127 0" result="hardAlpha"/>
<feOffset dy="2"/>
<feGaussianBlur stdDeviation="2.5"/>
<feComposite in2="hardAlpha" operator="out"/>
<feColorMatrix type="matrix" values="0 0 0 0 0 0 0 0 0 0 0 0 0 0 0 0 0 0 0.05 0"/>
<feBlend mode="normal" in2="BackgroundImageFix" result="effect1_dropShadow_157_1496"/>
<feBlend mode="normal" in="SourceGraphic" in2="effect1_dropShadow_157_1496" result="shape"/>
</filter>
<filter id="filter1_d_157_1496" x="15" y="0" width="58" height="58" filterUnits="userSpaceOnUse" color-interpolation-filters="sRGB">
<feFlood flood-opacity="0" result="BackgroundImageFix"/>
<feColorMatrix in="SourceAlpha" type="matrix" values="0 0 0 0 0 0 0 0 0 0 0 0 0 0 0 0 0 0 127 0" result="hardAlpha"/>
<feOffset dy="2"/>
<feGaussianBlur stdDeviation="2.5"/>
<feComposite in2="hardAlpha" operator="out"/>
<feColorMatrix type="matrix" values="0 0 0 0 0 0 0 0 0 0 0 0 0 0 0 0 0 0 0.05 0"/>
<feBlend mode="normal" in2="BackgroundImageFix" result="effect1_dropShadow_157_1496"/>
<feBlend mode="normal" in="SourceGraphic" in2="effect1_dropShadow_157_1496" result="shape"/>
</filter>
</defs>
</svg>
