<svg width="20" height="20" viewBox="0 0 20 20" fill="none" xmlns="http://www.w3.org/2000/svg">
<path d="M15.9375 13.1252H13.4375C13.2649 13.1252 13.125 13.2652 13.125 13.4377V15.9377C13.125 16.1103 13.2649 16.2502 13.4375 16.2502H15.9375C16.1101 16.2502 16.25 16.1103 16.25 15.9377V13.4377C16.25 13.2652 16.1101 13.1252 15.9375 13.1252Z" fill="#CCEDFA"/>
<path d="M12.8125 10.625H10.9375C10.7649 10.625 10.625 10.7649 10.625 10.9375V12.8125C10.625 12.9851 10.7649 13.125 10.9375 13.125H12.8125C12.9851 13.125 13.125 12.9851 13.125 12.8125V10.9375C13.125 10.7649 12.9851 10.625 12.8125 10.625Z" fill="black"/>
<path d="M18.4375 16.2498H16.5625C16.3899 16.2498 16.25 16.3897 16.25 16.5623V18.4373C16.25 18.6098 16.3899 18.7498 16.5625 18.7498H18.4375C18.6101 18.7498 18.75 18.6098 18.75 18.4373V16.5623C18.75 16.3897 18.6101 16.2498 18.4375 16.2498Z" fill="black"/>
<path d="M18.4375 10.625H17.1875C17.0149 10.625 16.875 10.7649 16.875 10.9375V12.1875C16.875 12.3601 17.0149 12.5 17.1875 12.5H18.4375C18.6101 12.5 18.75 12.3601 18.75 12.1875V10.9375C18.75 10.7649 18.6101 10.625 18.4375 10.625Z" fill="black"/>
<path d="M12.1875 16.8755H10.9375C10.7649 16.8755 10.625 17.0154 10.625 17.188V18.438C10.625 18.6106 10.7649 18.7505 10.9375 18.7505H12.1875C12.3601 18.7505 12.5 18.6106 12.5 18.438V17.188C12.5 17.0154 12.3601 16.8755 12.1875 16.8755Z" fill="black"/>
<path d="M17.5 1.25024H11.875C11.5435 1.25024 11.2255 1.38194 10.9911 1.61636C10.7567 1.85078 10.625 2.16872 10.625 2.50024V8.12524C10.625 8.45676 10.7567 8.77471 10.9911 9.00913C11.2255 9.24355 11.5435 9.37524 11.875 9.37524H17.5C17.8315 9.37524 18.1495 9.24355 18.3839 9.00913C18.6183 8.77471 18.75 8.45676 18.75 8.12524V2.50024C18.75 2.16872 18.6183 1.85078 18.3839 1.61636C18.1495 1.38194 17.8315 1.25024 17.5 1.25024ZM16.25 6.56274C16.25 6.64562 16.2171 6.72511 16.1585 6.78372C16.0999 6.84232 16.0204 6.87524 15.9375 6.87524H13.4375C13.3546 6.87524 13.2751 6.84232 13.2165 6.78372C13.1579 6.72511 13.125 6.64562 13.125 6.56274V4.06274C13.125 3.97986 13.1579 3.90038 13.2165 3.84177C13.2751 3.78317 13.3546 3.75024 13.4375 3.75024H15.9375C16.0204 3.75024 16.0999 3.78317 16.1585 3.84177C16.2171 3.90038 16.25 3.97986 16.25 4.06274V6.56274Z" fill="#3CA2F7"/>
<path d="M8.12501 1.25024H2.50001C2.16849 1.25024 1.85054 1.38194 1.61612 1.61636C1.3817 1.85078 1.25001 2.16872 1.25001 2.50024V8.12524C1.25001 8.45676 1.3817 8.77471 1.61612 9.00913C1.85054 9.24355 2.16849 9.37524 2.50001 9.37524H8.12501C8.45653 9.37524 8.77447 9.24355 9.00889 9.00913C9.24331 8.77471 9.37501 8.45676 9.37501 8.12524V2.50024C9.37501 2.16872 9.24331 1.85078 9.00889 1.61636C8.77447 1.38194 8.45653 1.25024 8.12501 1.25024ZM6.87501 6.56274C6.87501 6.64562 6.84208 6.72511 6.78348 6.78372C6.72487 6.84232 6.64539 6.87524 6.56251 6.87524H4.06251C3.97963 6.87524 3.90014 6.84232 3.84154 6.78372C3.78293 6.72511 3.75001 6.64562 3.75001 6.56274V4.06274C3.75001 3.97986 3.78293 3.90038 3.84154 3.84177C3.90014 3.78317 3.97963 3.75024 4.06251 3.75024H6.56251C6.64539 3.75024 6.72487 3.78317 6.78348 3.84177C6.84208 3.90038 6.87501 3.97986 6.87501 4.06274V6.56274Z" fill="#3CA2F7"/>
<path d="M8.12501 10.625H2.50001C2.16849 10.625 1.85054 10.7567 1.61612 10.9911C1.3817 11.2255 1.25001 11.5435 1.25001 11.875V17.5C1.25001 17.8315 1.3817 18.1495 1.61612 18.3839C1.85054 18.6183 2.16849 18.75 2.50001 18.75H8.12501C8.45653 18.75 8.77447 18.6183 9.00889 18.3839C9.24331 18.1495 9.37501 17.8315 9.37501 17.5V11.875C9.37501 11.5435 9.24331 11.2255 9.00889 10.9911C8.77447 10.7567 8.45653 10.625 8.12501 10.625ZM6.87501 15.9375C6.87501 16.0204 6.84208 16.0999 6.78348 16.1585C6.72487 16.2171 6.64539 16.25 6.56251 16.25H4.06251C3.97963 16.25 3.90014 16.2171 3.84154 16.1585C3.78293 16.0999 3.75001 16.0204 3.75001 15.9375V13.4375C3.75001 13.3546 3.78293 13.2751 3.84154 13.2165C3.90014 13.1579 3.97963 13.125 4.06251 13.125H6.56251C6.64539 13.125 6.72487 13.1579 6.78348 13.2165C6.84208 13.2751 6.87501 13.3546 6.87501 13.4375V15.9375Z" fill="#3CA2F7"/>
</svg>
