<svg width="96" height="27" viewBox="0 0 96 27" fill="none" xmlns="http://www.w3.org/2000/svg">
<rect x="0.159668" y="0.963135" width="95.8403" height="25.6505" rx="12.8253" fill="white"/>
<mask id="mask0_59_850" style="mask-type:alpha" maskUnits="userSpaceOnUse" x="10" y="6" width="15" height="15">
<rect x="10.0297" y="6.66333" width="14.2503" height="14.2503" fill="#D9D9D9"/>
</mask>
<g mask="url(#mask0_59_850)">
<path d="M19.1439 18.5383L17.9861 19.6813C17.7584 19.9089 17.4814 20.0227 17.1548 20.0227C16.8282 20.0227 16.5511 19.9089 16.3235 19.6813L15.1657 18.5383H13.5922C13.2656 18.5383 12.9861 18.422 12.7535 18.1895C12.521 17.9569 12.4047 17.6774 12.4047 17.3508V15.7773L11.2617 14.6195C11.0341 14.3919 10.9203 14.1148 10.9203 13.7882C10.9203 13.4616 11.0341 13.1846 11.2617 12.9569L12.4047 11.7991V10.2256C12.4047 9.89907 12.521 9.61951 12.7535 9.38695C12.9861 9.15439 13.2656 9.03812 13.5922 9.03812H15.1657L16.3235 7.89512C16.5511 7.66752 16.8282 7.55371 17.1548 7.55371C17.4814 7.55371 17.7584 7.66752 17.9861 7.89512L19.1439 9.03812H20.7174C21.0439 9.03812 21.3235 9.15439 21.556 9.38695C21.7886 9.61951 21.9049 9.89907 21.9049 10.2256V11.7991L23.0479 12.9569C23.2755 13.1846 23.3893 13.4616 23.3893 13.7882C23.3893 14.1148 23.2755 14.3919 23.0479 14.6195L21.9049 15.7773V17.3508C21.9049 17.6774 21.7886 17.9569 21.556 18.1895C21.3235 18.422 21.0439 18.5383 20.7174 18.5383H19.1439ZM17.1548 15.2578L18.2978 15.9406C18.4066 16.0099 18.513 16.0074 18.6169 15.9332C18.7208 15.859 18.7579 15.7575 18.7283 15.6289L18.4314 14.3374L19.4408 13.4616C19.5397 13.3726 19.5694 13.2662 19.5298 13.1425C19.4903 13.0188 19.4012 12.952 19.2626 12.9421L17.9415 12.8382L17.422 11.6061C17.3725 11.4874 17.2834 11.428 17.1548 11.428C17.0261 11.428 16.9371 11.4874 16.8876 11.6061L16.3681 12.8382L15.0469 12.9421C14.9084 12.952 14.8193 13.0188 14.7797 13.1425C14.7402 13.2662 14.7698 13.3726 14.8688 13.4616L15.8782 14.3374L15.5813 15.6289C15.5516 15.7575 15.5887 15.859 15.6927 15.9332C15.7966 16.0074 15.9029 16.0099 16.0118 15.9406L17.1548 15.2578Z" fill="#FFA41B"/>
</g>
<path d="M27.8482 18.2886V10.857H29.145L31.9281 14.6377H31.3096L34.0328 10.857H35.3296V18.2886H33.963V12.4032L34.4917 12.5329L31.6687 16.2935H31.5091L28.756 12.5329L29.2048 12.4032V18.2886H27.8482ZM37.3005 20.4931C37.1542 20.4931 37.0112 20.4798 36.8716 20.4532C36.7319 20.4332 36.6056 20.3967 36.4925 20.3435V19.2462C36.579 19.2661 36.682 19.2861 36.8017 19.306C36.9281 19.326 37.0445 19.336 37.1509 19.336C37.4501 19.336 37.6663 19.2661 37.7993 19.1265C37.9389 18.9868 38.0619 18.804 38.1683 18.5779L38.5275 17.7399L38.5075 18.8372L36.1434 12.8621H37.5499L39.2058 17.2711H38.707L40.3529 12.8621H41.7694L39.4053 18.8372C39.2656 19.1897 39.096 19.4889 38.8965 19.735C38.697 19.981 38.4643 20.1672 38.1983 20.2936C37.9389 20.4266 37.6397 20.4931 37.3005 20.4931ZM44.3696 18.2886V10.857H47.1328C47.6382 10.857 48.0837 10.9502 48.4695 11.1364C48.8618 11.3159 49.1677 11.5819 49.3872 11.9344C49.6066 12.2802 49.7164 12.7025 49.7164 13.2012C49.7164 13.7133 49.5933 14.1489 49.3473 14.508C49.1079 14.8671 48.782 15.1331 48.3697 15.306L50.0755 18.2886H48.5393L46.7138 15.0267L47.5916 15.5454H45.7263V18.2886H44.3696ZM45.7263 14.3484H47.1527C47.3988 14.3484 47.6116 14.3018 47.7911 14.2087C47.9707 14.109 48.1103 13.9726 48.2101 13.7997C48.3099 13.6268 48.3597 13.4273 48.3597 13.2012C48.3597 12.9685 48.3099 12.769 48.2101 12.6027C48.1103 12.4298 47.9707 12.2968 47.7911 12.2037C47.6116 12.1039 47.3988 12.0541 47.1527 12.0541H45.7263V14.3484ZM53.1265 18.4083C52.5679 18.4083 52.0791 18.2819 51.6601 18.0292C51.2412 17.7765 50.9153 17.434 50.6825 17.0018C50.4498 16.5695 50.3334 16.0907 50.3334 15.5653C50.3334 15.02 50.4498 14.5379 50.6825 14.1189C50.922 13.6933 51.2445 13.3575 51.6501 13.1114C52.0624 12.8654 52.5213 12.7424 53.0267 12.7424C53.4523 12.7424 53.8247 12.8122 54.1439 12.9518C54.4698 13.0915 54.7458 13.2843 54.9719 13.5304C55.198 13.7765 55.3709 14.0591 55.4906 14.3783C55.6103 14.6909 55.6701 15.03 55.6701 15.3958C55.6701 15.4889 55.6635 15.5853 55.6502 15.685C55.6435 15.7848 55.6269 15.8713 55.6003 15.9444H51.4107V14.9469H54.8622L54.2437 15.4157C54.3035 15.1098 54.2869 14.8372 54.1938 14.5977C54.1074 14.3583 53.9611 14.1688 53.7549 14.0292C53.5554 13.8895 53.3127 13.8197 53.0267 13.8197C52.7541 13.8197 52.5113 13.8895 52.2985 14.0292C52.0857 14.1622 51.9228 14.3617 51.8097 14.6277C51.7033 14.887 51.6634 15.2029 51.69 15.5753C51.6634 15.9078 51.7067 16.2038 51.8197 16.4631C51.9394 16.7158 52.1123 16.912 52.3384 17.0516C52.5712 17.1913 52.8372 17.2611 53.1364 17.2611C53.4357 17.2611 53.6884 17.198 53.8946 17.0716C54.1074 16.9452 54.2736 16.7757 54.3933 16.5629L55.4507 17.0816C55.3443 17.3409 55.178 17.5704 54.9519 17.7699C54.7258 17.9694 54.4565 18.1256 54.1439 18.2387C53.838 18.3518 53.4989 18.4083 53.1265 18.4083ZM58.0273 18.2886L56.162 12.8621H57.5385L58.9052 16.9818L58.4263 16.9718L59.8827 12.8621H61.0398L62.4862 16.9718L62.0074 16.9818L63.374 12.8621H64.7506L62.8853 18.2886H61.7182L60.2418 13.9893H60.6807L59.1845 18.2886H58.0273ZM66.918 18.4083C66.539 18.4083 66.2098 18.3451 65.9305 18.2187C65.6512 18.0924 65.4351 17.9128 65.2821 17.6801C65.1292 17.4407 65.0527 17.1647 65.0527 16.8521C65.0527 16.5529 65.1192 16.2869 65.2522 16.0541C65.3852 15.8147 65.5913 15.6152 65.8706 15.4556C66.15 15.296 66.5024 15.183 66.928 15.1165L68.7036 14.8272V15.8247L67.1774 16.0841C66.918 16.1306 66.7252 16.2137 66.5988 16.3334C66.4725 16.4531 66.4093 16.6094 66.4093 16.8023C66.4093 16.9885 66.4791 17.1381 66.6188 17.2512C66.7651 17.3576 66.9446 17.4108 67.1575 17.4108C67.4301 17.4108 67.6695 17.3542 67.8757 17.2412C68.0885 17.1215 68.2514 16.9585 68.3645 16.7524C68.4842 16.5462 68.544 16.3201 68.544 16.0741V14.6776C68.544 14.4448 68.4509 14.2519 68.2647 14.099C68.0851 13.9394 67.8457 13.8596 67.5465 13.8596C67.2672 13.8596 67.0178 13.9361 66.7983 14.089C66.5855 14.2353 66.4293 14.4315 66.3295 14.6776L65.2622 14.1588C65.3686 13.8729 65.5348 13.6268 65.7609 13.4207C65.9937 13.2079 66.2663 13.0416 66.5789 12.9219C66.8914 12.8022 67.2306 12.7424 67.5964 12.7424C68.0419 12.7424 68.4343 12.8255 68.7734 12.9917C69.1126 13.1513 69.3753 13.3774 69.5615 13.6701C69.7543 13.956 69.8508 14.2918 69.8508 14.6776V18.2886H68.6138V17.3609L68.8931 17.3409C68.7535 17.5737 68.5872 17.7699 68.3944 17.9295C68.2015 18.0824 67.9821 18.2021 67.736 18.2886C67.49 18.3684 67.2173 18.4083 66.918 18.4083ZM71.0585 18.2886V12.8621H72.2855V14.0691L72.1857 13.8895C72.3121 13.4839 72.5083 13.2012 72.7743 13.0416C73.0469 12.882 73.3728 12.8022 73.7518 12.8022H74.071V13.9593H73.6022C73.2298 13.9593 72.9305 14.0757 72.7044 14.3085C72.4783 14.5346 72.3653 14.8538 72.3653 15.2661V18.2886H71.0585ZM77.3132 18.4083C76.7879 18.4083 76.319 18.2852 75.9067 18.0392C75.4944 17.7865 75.1685 17.444 74.9291 17.0117C74.6897 16.5795 74.57 16.1007 74.57 15.5753C74.57 15.0433 74.6897 14.5645 74.9291 14.1389C75.1685 13.7133 75.4944 13.3741 75.9067 13.1214C76.3257 12.8687 76.7912 12.7424 77.3032 12.7424C77.7156 12.7424 78.0813 12.8255 78.4005 12.9917C78.7264 13.1513 78.9824 13.3774 79.1686 13.6701L78.9691 13.9394V10.7373H80.2759V18.2886H79.0389V17.2412L79.1786 17.5005C78.9924 17.7931 78.733 18.0192 78.4005 18.1788C78.068 18.3318 77.7056 18.4083 77.3132 18.4083ZM77.4529 17.2113C77.7521 17.2113 78.0148 17.1414 78.2409 17.0018C78.467 16.8621 78.6432 16.6693 78.7696 16.4232C78.9026 16.1772 78.9691 15.8945 78.9691 15.5753C78.9691 15.2628 78.9026 14.9835 78.7696 14.7374C78.6432 14.4847 78.467 14.2885 78.2409 14.1489C78.0148 14.0092 77.7521 13.9394 77.4529 13.9394C77.1603 13.9394 76.8976 14.0125 76.6648 14.1588C76.4321 14.2985 76.2492 14.4913 76.1162 14.7374C75.9898 14.9768 75.9267 15.2561 75.9267 15.5753C75.9267 15.8945 75.9898 16.1772 76.1162 16.4232C76.2492 16.6693 76.4321 16.8621 76.6648 17.0018C76.8976 17.1414 77.1603 17.2113 77.4529 17.2113ZM83.5564 18.4083C82.9779 18.4083 82.4725 18.2719 82.0402 17.9993C81.6146 17.72 81.322 17.3443 81.1624 16.8721L82.14 16.4033C82.2796 16.7092 82.4725 16.9486 82.7185 17.1215C82.9712 17.2944 83.2505 17.3808 83.5564 17.3808C83.7958 17.3808 83.9854 17.3276 84.125 17.2212C84.2647 17.1148 84.3345 16.9752 84.3345 16.8023C84.3345 16.6959 84.3046 16.6094 84.2447 16.5429C84.1915 16.4698 84.1151 16.4099 84.0153 16.3634C83.9222 16.3102 83.8191 16.2669 83.7061 16.2337L82.8183 15.9843C82.3594 15.8513 82.0103 15.6485 81.7709 15.3758C81.5381 15.1032 81.4218 14.7806 81.4218 14.4082C81.4218 14.0757 81.5049 13.7864 81.6711 13.5404C81.844 13.2877 82.0801 13.0915 82.3794 12.9518C82.6853 12.8122 83.0344 12.7424 83.4268 12.7424C83.9388 12.7424 84.391 12.8654 84.7834 13.1114C85.1758 13.3575 85.4551 13.7033 85.6213 14.1489L84.6238 14.6177C84.5307 14.3716 84.3744 14.1755 84.155 14.0292C83.9355 13.8829 83.6894 13.8097 83.4168 13.8097C83.1973 13.8097 83.0244 13.8596 82.8981 13.9593C82.7717 14.0591 82.7086 14.1888 82.7086 14.3484C82.7086 14.4481 82.7352 14.5346 82.7884 14.6077C82.8416 14.6809 82.9147 14.7407 83.0078 14.7873C83.1076 14.8338 83.2206 14.8771 83.347 14.917L84.2148 15.1763C84.6604 15.3093 85.0028 15.5088 85.2423 15.7748C85.4883 16.0408 85.6113 16.3667 85.6113 16.7524C85.6113 17.0782 85.5249 17.3675 85.352 17.6202C85.1791 17.8663 84.9397 18.0591 84.6338 18.1988C84.3279 18.3385 83.9688 18.4083 83.5564 18.4083Z" fill="#29315B"/>
</svg>
