<svg width="96" height="26" viewBox="0 0 96 26" fill="none" xmlns="http://www.w3.org/2000/svg">
<rect width="95.8403" height="25.6505" rx="12.8253" fill="#F9F5FE"/>
<mask id="mask0_157_1288" style="mask-type:alpha" maskUnits="userSpaceOnUse" x="9" y="5" width="16" height="15">
<rect x="9.87" y="5.7002" width="14.2503" height="14.2503" fill="#D9D9D9"/>
</mask>
<g mask="url(#mask0_157_1288)">
<path d="M18.9842 17.5754L17.8264 18.7184C17.5988 18.946 17.3217 19.0598 16.9951 19.0598C16.6686 19.0598 16.3915 18.946 16.1639 18.7184L15.006 17.5754H13.4325C13.106 17.5754 12.8264 17.4591 12.5939 17.2266C12.3613 16.994 12.245 16.7145 12.245 16.3879V14.8144L11.102 13.6566C10.8744 13.429 10.7606 13.1519 10.7606 12.8253C10.7606 12.4988 10.8744 12.2217 11.102 11.9941L12.245 10.8362V9.26275C12.245 8.93618 12.3613 8.65662 12.5939 8.42406C12.8264 8.1915 13.106 8.07523 13.4325 8.07523H15.006L16.1639 6.93223C16.3915 6.70462 16.6686 6.59082 16.9951 6.59082C17.3217 6.59082 17.5988 6.70462 17.8264 6.93223L18.9842 8.07523H20.5577C20.8843 8.07523 21.1638 8.1915 21.3964 8.42406C21.6289 8.65662 21.7452 8.93618 21.7452 9.26275V10.8362L22.8882 11.9941C23.1158 12.2217 23.2296 12.4988 23.2296 12.8253C23.2296 13.1519 23.1158 13.429 22.8882 13.6566L21.7452 14.8144V16.3879C21.7452 16.7145 21.6289 16.994 21.3964 17.2266C21.1638 17.4591 20.8843 17.5754 20.5577 17.5754H18.9842ZM16.9951 14.2949L18.1381 14.9777C18.247 15.047 18.3534 15.0445 18.4573 14.9703C18.5612 14.8961 18.5983 14.7946 18.5686 14.666L18.2717 13.3746L19.2811 12.4988C19.3801 12.4097 19.4098 12.3033 19.3702 12.1796C19.3306 12.0559 19.2415 11.9891 19.103 11.9792L17.7819 11.8753L17.2623 10.6432C17.2128 10.5245 17.1238 10.4651 16.9951 10.4651C16.8665 10.4651 16.7774 10.5245 16.7279 10.6432L16.2084 11.8753L14.8873 11.9792C14.7487 11.9891 14.6597 12.0559 14.6201 12.1796C14.5805 12.3033 14.6102 12.4097 14.7091 12.4988L15.7185 13.3746L15.4217 14.666C15.392 14.7946 15.4291 14.8961 15.533 14.9703C15.6369 15.0445 15.7433 15.047 15.8521 14.9777L16.9951 14.2949Z" fill="#FFA41B"/>
</g>
<path d="M27.6886 17.3252V9.89367H28.9853L31.7684 13.6743H31.1499L33.8732 9.89367H35.17V17.3252H33.8034V11.4398L34.332 11.5695L31.5091 15.3302H31.3495L28.5963 11.5695L29.0452 11.4398V17.3252H27.6886ZM37.1408 19.5297C36.9945 19.5297 36.8516 19.5164 36.7119 19.4898C36.5722 19.4699 36.4459 19.4333 36.3328 19.3801V18.2828C36.4193 18.3028 36.5224 18.3227 36.6421 18.3427C36.7684 18.3626 36.8848 18.3726 36.9912 18.3726C37.2905 18.3726 37.5066 18.3028 37.6396 18.1631C37.7792 18.0235 37.9023 17.8406 38.0087 17.6145L38.3678 16.7766L38.3478 17.8738L35.9837 11.8987H37.3902L39.0461 16.3077H38.5473L40.1932 11.8987H41.6097L39.2456 17.8738C39.1059 18.2263 38.9364 18.5255 38.7369 18.7716C38.5374 19.0177 38.3046 19.2039 38.0386 19.3302C37.7792 19.4632 37.48 19.5297 37.1408 19.5297ZM44.21 17.3252V9.89367H46.9731C47.4785 9.89367 47.9241 9.98677 48.3098 10.173C48.7021 10.3525 49.0081 10.6185 49.2275 10.971C49.447 11.3168 49.5567 11.7391 49.5567 12.2378C49.5567 12.7499 49.4337 13.1855 49.1876 13.5446C48.9482 13.9037 48.6223 14.1697 48.21 14.3426L49.9158 17.3252H48.3796L46.5542 14.0633L47.432 14.582H45.5666V17.3252H44.21ZM45.5666 13.385H46.9931C47.2391 13.385 47.4519 13.3384 47.6315 13.2453C47.811 13.1456 47.9507 13.0093 48.0504 12.8364C48.1502 12.6635 48.2001 12.4639 48.2001 12.2378C48.2001 12.0051 48.1502 11.8056 48.0504 11.6393C47.9507 11.4664 47.811 11.3334 47.6315 11.2403C47.4519 11.1406 47.2391 11.0907 46.9931 11.0907H45.5666V13.385ZM52.9668 17.4449C52.4082 17.4449 51.9194 17.3185 51.5004 17.0658C51.0815 16.8131 50.7556 16.4707 50.5229 16.0384C50.2901 15.6061 50.1737 15.1273 50.1737 14.602C50.1737 14.0567 50.2901 13.5745 50.5229 13.1556C50.7623 12.73 51.0848 12.3941 51.4905 12.1481C51.9028 11.902 52.3616 11.779 52.8671 11.779C53.2927 11.779 53.6651 11.8488 53.9843 11.9885C54.3101 12.1281 54.5861 12.321 54.8122 12.567C55.0383 12.8131 55.2112 13.0957 55.3309 13.4149C55.4506 13.7275 55.5105 14.0666 55.5105 14.4324C55.5105 14.5255 55.5038 14.6219 55.4905 14.7217C55.4839 14.8214 55.4673 14.9079 55.4407 14.981H51.2511V13.9835H54.7025L54.084 14.4523C54.1439 14.1464 54.1273 13.8738 54.0341 13.6344C53.9477 13.395 53.8014 13.2054 53.5952 13.0658C53.3957 12.9261 53.153 12.8563 52.8671 12.8563C52.5944 12.8563 52.3517 12.9261 52.1389 13.0658C51.9261 13.1988 51.7631 13.3983 51.6501 13.6643C51.5437 13.9237 51.5038 14.2395 51.5304 14.6119C51.5038 14.9444 51.547 15.2404 51.6601 15.4997C51.7798 15.7524 51.9527 15.9486 52.1788 16.0883C52.4115 16.2279 52.6775 16.2977 52.9768 16.2977C53.276 16.2977 53.5287 16.2346 53.7349 16.1082C53.9477 15.9819 54.114 15.8123 54.2337 15.5995L55.291 16.1182C55.1846 16.3776 55.0184 16.607 54.7923 16.8065C54.5662 17.006 54.2968 17.1623 53.9843 17.2753C53.6784 17.3884 53.3392 17.4449 52.9668 17.4449ZM57.8677 17.3252L56.0023 11.8987H57.3789L58.7455 16.0184L58.2667 16.0085L59.7231 11.8987H60.8802L62.3266 16.0085L61.8478 16.0184L63.2144 11.8987H64.591L62.7256 17.3252H61.5585L60.0822 13.0259H60.5211L59.0248 17.3252H57.8677ZM66.7584 17.4449C66.3793 17.4449 66.0501 17.3817 65.7708 17.2554C65.4915 17.129 65.2754 16.9495 65.1224 16.7167C64.9695 16.4773 64.893 16.2013 64.893 15.8888C64.893 15.5895 64.9595 15.3235 65.0925 15.0908C65.2255 14.8513 65.4317 14.6518 65.711 14.4922C65.9903 14.3326 66.3427 14.2196 66.7684 14.1531L68.5439 13.8638V14.8613L67.0177 15.1207C66.7584 15.1672 66.5655 15.2504 66.4392 15.3701C66.3128 15.4898 66.2496 15.646 66.2496 15.8389C66.2496 16.0251 66.3195 16.1747 66.4591 16.2878C66.6054 16.3942 66.785 16.4474 66.9978 16.4474C67.2704 16.4474 67.5098 16.3909 67.716 16.2778C67.9288 16.1581 68.0917 15.9952 68.2048 15.789C68.3245 15.5829 68.3843 15.3568 68.3843 15.1107V13.7142C68.3843 13.4814 68.2912 13.2886 68.105 13.1356C67.9255 12.976 67.6861 12.8962 67.3868 12.8962C67.1075 12.8962 66.8581 12.9727 66.6387 13.1256C66.4259 13.2719 66.2696 13.4681 66.1698 13.7142L65.1025 13.1955C65.2089 12.9095 65.3752 12.6635 65.6013 12.4573C65.834 12.2445 66.1067 12.0782 66.4192 11.9585C66.7318 11.8388 67.0709 11.779 67.4367 11.779C67.8823 11.779 68.2746 11.8621 68.6138 12.0284C68.9529 12.188 69.2156 12.4141 69.4018 12.7067C69.5947 12.9926 69.6911 13.3285 69.6911 13.7142V17.3252H68.4542V16.3975L68.7335 16.3776C68.5938 16.6103 68.4276 16.8065 68.2347 16.9661C68.0419 17.119 67.8224 17.2387 67.5763 17.3252C67.3303 17.405 67.0576 17.4449 66.7584 17.4449ZM70.8989 17.3252V11.8987H72.1258V13.1057L72.0261 12.9261C72.1524 12.5205 72.3486 12.2378 72.6146 12.0782C72.8873 11.9186 73.2131 11.8388 73.5922 11.8388H73.9114V12.996H73.4425C73.0701 12.996 72.7709 13.1123 72.5448 13.3451C72.3187 13.5712 72.2056 13.8904 72.2056 14.3027V17.3252H70.8989ZM77.1535 17.4449C76.6282 17.4449 76.1594 17.3219 75.747 17.0758C75.3347 16.8231 75.0089 16.4806 74.7695 16.0484C74.5301 15.6161 74.4104 15.1373 74.4104 14.6119C74.4104 14.0799 74.5301 13.6011 74.7695 13.1755C75.0089 12.7499 75.3347 12.4107 75.747 12.158C76.166 11.9053 76.6315 11.779 77.1436 11.779C77.5559 11.779 77.9216 11.8621 78.2408 12.0284C78.5667 12.188 78.8227 12.4141 79.0089 12.7067L78.8094 12.976V9.77397H80.1162V17.3252H78.8793V16.2778L79.0189 16.5372C78.8327 16.8298 78.5734 17.0559 78.2408 17.2155C77.9083 17.3684 77.5459 17.4449 77.1535 17.4449ZM77.2932 16.2479C77.5925 16.2479 77.8551 16.178 78.0812 16.0384C78.3073 15.8987 78.4836 15.7059 78.6099 15.4598C78.7429 15.2138 78.8094 14.9311 78.8094 14.6119C78.8094 14.2994 78.7429 14.0201 78.6099 13.774C78.4836 13.5213 78.3073 13.3251 78.0812 13.1855C77.8551 13.0458 77.5925 12.976 77.2932 12.976C77.0006 12.976 76.7379 13.0492 76.5052 13.1955C76.2724 13.3351 76.0895 13.528 75.9565 13.774C75.8302 14.0134 75.767 14.2927 75.767 14.6119C75.767 14.9311 75.8302 15.2138 75.9565 15.4598C76.0895 15.7059 76.2724 15.8987 76.5052 16.0384C76.7379 16.178 77.0006 16.2479 77.2932 16.2479ZM83.3968 17.4449C82.8182 17.4449 82.3128 17.3086 81.8805 17.0359C81.4549 16.7566 81.1623 16.3809 81.0027 15.9087L81.9803 15.4399C82.12 15.7458 82.3128 15.9852 82.5589 16.1581C82.8116 16.331 83.0909 16.4175 83.3968 16.4175C83.6362 16.4175 83.8257 16.3643 83.9654 16.2578C84.105 16.1514 84.1748 16.0118 84.1748 15.8389C84.1748 15.7325 84.1449 15.646 84.0851 15.5795C84.0319 15.5064 83.9554 15.4465 83.8556 15.4C83.7625 15.3468 83.6595 15.3036 83.5464 15.2703L82.6586 15.0209C82.1998 14.8879 81.8506 14.6851 81.6112 14.4124C81.3785 14.1398 81.2621 13.8172 81.2621 13.4448C81.2621 13.1123 81.3452 12.8231 81.5115 12.577C81.6844 12.3243 81.9204 12.1281 82.2197 11.9885C82.5256 11.8488 82.8747 11.779 83.2671 11.779C83.7792 11.779 84.2314 11.902 84.6237 12.1481C85.0161 12.3941 85.2954 12.7399 85.4616 13.1855L84.4641 13.6543C84.371 13.4083 84.2147 13.2121 83.9953 13.0658C83.7758 12.9195 83.5298 12.8463 83.2571 12.8463C83.0377 12.8463 82.8648 12.8962 82.7384 12.996C82.6121 13.0957 82.5489 13.2254 82.5489 13.385C82.5489 13.4847 82.5755 13.5712 82.6287 13.6443C82.6819 13.7175 82.755 13.7773 82.8481 13.8239C82.9479 13.8705 83.0609 13.9137 83.1873 13.9536L84.0551 14.2129C84.5007 14.3459 84.8432 14.5454 85.0826 14.8114C85.3286 15.0774 85.4517 15.4033 85.4517 15.789C85.4517 16.1149 85.3652 16.4042 85.1923 16.6569C85.0194 16.9029 84.78 17.0958 84.4741 17.2354C84.1682 17.3751 83.8091 17.4449 83.3968 17.4449Z" fill="#29315B"/>
</svg>
