<svg width="20" height="17" viewBox="0 0 20 17" fill="none" xmlns="http://www.w3.org/2000/svg">
<mask id="path-1-inside-1_394_3249" fill="white">
<path d="M2.09293 8.03182e-05C0.945387 8.03182e-05 0 0.915006 0 2.02513V14.851C0 15.8365 0.841774 16.6511 1.8605 16.6511H18.1395C19.1581 16.6511 20 15.8367 20 14.851V4.50029C20 3.51477 19.1582 2.70014 18.1395 2.70014H17.2094V0.675084C17.2094 0.321614 16.877 0 16.5116 0L2.09293 8.03182e-05ZM2.09293 1.35025H15.8138V2.70042H2.09293C1.69436 2.70042 1.39522 2.41099 1.39522 2.02533C1.39522 1.63968 1.69435 1.35025 2.09293 1.35025ZM1.39522 3.93097C1.61405 4.00693 1.84862 4.05057 2.09293 4.05057H18.1394C18.4091 4.05057 18.6044 4.23955 18.6044 4.50056V6.75071H12.0928C11.3319 6.75071 10.6974 7.36455 10.6974 8.10087V11.251C10.6974 11.9873 11.3318 12.6012 12.0928 12.6012H18.6044V14.8513C18.6044 15.1123 18.4091 15.3013 18.1394 15.3013H1.86037C1.5906 15.3013 1.3953 15.1123 1.3953 14.8513L1.39522 3.93097ZM12.0928 8.10057H18.6044V11.2507H12.0928V8.10057ZM14.4184 8.77565C13.9047 8.77565 13.4883 9.17855 13.4883 9.67563C13.4883 10.1727 13.9047 10.5756 14.4184 10.5756C14.9322 10.5756 15.3486 10.1727 15.3486 9.67563C15.3486 9.17855 14.9322 8.77565 14.4184 8.77565Z"/>
</mask>
<path d="M2.09293 8.03182e-05C0.945387 8.03182e-05 0 0.915006 0 2.02513V14.851C0 15.8365 0.841774 16.6511 1.8605 16.6511H18.1395C19.1581 16.6511 20 15.8367 20 14.851V4.50029C20 3.51477 19.1582 2.70014 18.1395 2.70014H17.2094V0.675084C17.2094 0.321614 16.877 0 16.5116 0L2.09293 8.03182e-05ZM2.09293 1.35025H15.8138V2.70042H2.09293C1.69436 2.70042 1.39522 2.41099 1.39522 2.02533C1.39522 1.63968 1.69435 1.35025 2.09293 1.35025ZM1.39522 3.93097C1.61405 4.00693 1.84862 4.05057 2.09293 4.05057H18.1394C18.4091 4.05057 18.6044 4.23955 18.6044 4.50056V6.75071H12.0928C11.3319 6.75071 10.6974 7.36455 10.6974 8.10087V11.251C10.6974 11.9873 11.3318 12.6012 12.0928 12.6012H18.6044V14.8513C18.6044 15.1123 18.4091 15.3013 18.1394 15.3013H1.86037C1.5906 15.3013 1.3953 15.1123 1.3953 14.8513L1.39522 3.93097ZM12.0928 8.10057H18.6044V11.2507H12.0928V8.10057ZM14.4184 8.77565C13.9047 8.77565 13.4883 9.17855 13.4883 9.67563C13.4883 10.1727 13.9047 10.5756 14.4184 10.5756C14.9322 10.5756 15.3486 10.1727 15.3486 9.67563C15.3486 9.17855 14.9322 8.77565 14.4184 8.77565Z" fill="#49B6F4"/>
<path d="M2.09293 8.03182e-05V7.00008H2.09297L2.09293 8.03182e-05ZM17.2094 2.70014H10.2094V9.70014H17.2094V2.70014ZM16.5116 0V-7H16.5116L16.5116 0ZM15.8138 1.35025H22.8138V-5.64975H15.8138V1.35025ZM15.8138 2.70042V9.70042H22.8138V2.70042H15.8138ZM1.39522 3.93097L3.69085 -2.68191L-5.60486 -5.90887L-5.60478 3.93102L1.39522 3.93097ZM18.6044 6.75071V13.7507H25.6044V6.75071H18.6044ZM18.6044 12.6012H25.6044V5.60117H18.6044V12.6012ZM1.3953 14.8513H8.3953V14.8513L1.3953 14.8513ZM12.0928 8.10057V1.10057H5.09285V8.10057H12.0928ZM18.6044 8.10057H25.6044V1.10057H18.6044V8.10057ZM18.6044 11.2507V18.2507H25.6044V11.2507H18.6044ZM12.0928 11.2507H5.09285V18.2507H12.0928V11.2507ZM2.09293 -6.99992C-2.70173 -6.99992 -7 -3.1663 -7 2.02513H7C7 4.99631 4.5925 7.00008 2.09293 7.00008V-6.99992ZM-7 2.02513V14.851H7V2.02513H-7ZM-7 14.851C-7 19.9178 -2.8053 23.6511 1.8605 23.6511V9.65113C4.48885 9.65113 7 11.7552 7 14.851H-7ZM1.8605 23.6511H18.1395V9.65113H1.8605V23.6511ZM18.1395 23.6511C22.8043 23.6511 27 19.9188 27 14.851H13C13 11.7545 15.5118 9.65113 18.1395 9.65113V23.6511ZM27 14.851V4.50029H13V14.851H27ZM27 4.50029C27 -0.566583 22.8053 -4.29986 18.1395 -4.29986V9.70014C15.5112 9.70014 13 7.59612 13 4.50029H27ZM18.1395 -4.29986H17.2094V9.70014H18.1395V-4.29986ZM24.2094 2.70014V0.675084H10.2094V2.70014H24.2094ZM24.2094 0.675084C24.2094 -3.76008 20.5237 -7 16.5116 -7V7C14.6478 7 13.1316 6.20478 12.13 5.23563C11.1345 4.27241 10.2094 2.70314 10.2094 0.675084H24.2094ZM16.5116 -7L2.09289 -6.99992L2.09297 7.00008L16.5117 7L16.5116 -7ZM2.09293 8.35025H15.8138V-5.64975H2.09293V8.35025ZM8.8138 1.35025V2.70042H22.8138V1.35025H8.8138ZM15.8138 -4.29958H2.09293V9.70042H15.8138V-4.29958ZM2.09293 -4.29958C5.34095 -4.29958 8.39522 -1.67081 8.39522 2.02533H-5.60478C-5.60478 6.49279 -1.95224 9.70042 2.09293 9.70042V-4.29958ZM8.39522 2.02533C8.39522 5.72143 5.341 8.35025 2.09293 8.35025V-5.64975C-1.9523 -5.64975 -5.60478 -2.44207 -5.60478 2.02533H8.39522ZM-0.90041 10.5438C-0.000487104 10.8562 1.00889 11.0506 2.09293 11.0506V-2.94943C2.68836 -2.94943 3.22859 -2.84238 3.69085 -2.68191L-0.90041 10.5438ZM2.09293 11.0506H18.1394V-2.94943H2.09293V11.0506ZM18.1394 11.0506C16.6092 11.0506 14.9335 10.4932 13.6055 9.2083C12.2638 7.91002 11.6044 6.17942 11.6044 4.50056H25.6044C25.6044 0.157908 22.0559 -2.94943 18.1394 -2.94943V11.0506ZM11.6044 4.50056V6.75071H25.6044V4.50056H11.6044ZM18.6044 -0.249295H12.0928V13.7507H18.6044V-0.249295ZM12.0928 -0.249295C7.68537 -0.249295 3.69742 3.28268 3.69742 8.10087H17.6974C17.6974 11.4464 14.9784 13.7507 12.0928 13.7507V-0.249295ZM3.69742 8.10087V11.251H17.6974V8.10087H3.69742ZM3.69742 11.251C3.69742 16.0689 7.68505 19.6012 12.0928 19.6012V5.60117C14.9786 5.60117 17.6974 7.90567 17.6974 11.251H3.69742ZM12.0928 19.6012H18.6044V5.60117H12.0928V19.6012ZM11.6044 12.6012V14.8513H25.6044V12.6012H11.6044ZM11.6044 14.8513C11.6044 13.1724 12.2638 11.4418 13.6056 10.1435C14.9336 8.85862 16.6093 8.3013 18.1394 8.3013V22.3013C22.0557 22.3013 25.6044 19.1941 25.6044 14.8513H11.6044ZM18.1394 8.3013H1.86037V22.3013H18.1394V8.3013ZM1.86037 8.3013C3.3905 8.3013 5.06622 8.85864 6.3942 10.1436C7.73598 11.4418 8.3953 13.1724 8.3953 14.8513H-5.6047C-5.6047 19.194 -2.05614 22.3013 1.86037 22.3013V8.3013ZM8.3953 14.8513L8.39522 3.93091L-5.60478 3.93102L-5.6047 14.8514L8.3953 14.8513ZM12.0928 15.1006H18.6044V1.10057H12.0928V15.1006ZM11.6044 8.10057V11.2507H25.6044V8.10057H11.6044ZM18.6044 4.25069H12.0928V18.2507H18.6044V4.25069ZM19.0928 11.2507V8.10057H5.09285V11.2507H19.0928ZM14.4184 1.77565C10.258 1.77565 6.48827 5.09682 6.48827 9.67563H20.4883C20.4883 13.2603 17.5513 15.7757 14.4184 15.7757V1.77565ZM6.48827 9.67563C6.48827 14.2544 10.258 17.5756 14.4184 17.5756V3.57561C17.5513 3.57561 20.4883 6.09098 20.4883 9.67563H6.48827ZM14.4184 17.5756C18.5788 17.5756 22.3486 14.2545 22.3486 9.67563H8.34857C8.34857 6.09097 11.2855 3.57561 14.4184 3.57561V17.5756ZM22.3486 9.67563C22.3486 5.0968 18.5788 1.77565 14.4184 1.77565V15.7757C11.2855 15.7757 8.34857 13.2603 8.34857 9.67563H22.3486Z" fill="#49B6F4" mask="url(#path-1-inside-1_394_3249)"/>
</svg>
