<svg width="40" height="40" viewBox="0 0 40 40" fill="none" xmlns="http://www.w3.org/2000/svg">
<rect width="40" height="40" rx="20" fill="#38A4E2"/>
<path fill-rule="evenodd" clip-rule="evenodd" d="M22.0834 11.2498C22.0834 10.6515 21.5983 10.1665 21 10.1665C20.4017 10.1665 19.9167 10.6515 19.9167 11.2498V12.0623H19.3128C16.9023 12.0623 14.9073 13.9365 14.7568 16.3423L14.5174 20.1702C14.4261 21.6297 13.9361 23.0361 13.1008 24.2364C12.3461 25.3209 13.018 26.8187 14.3298 26.9761L18.0209 27.419V28.5832C18.0209 30.2285 19.3547 31.5623 21 31.5623C22.6454 31.5623 23.9792 30.2285 23.9792 28.5832V27.419L27.6702 26.9761C28.9821 26.8187 29.654 25.3209 28.8993 24.2364C28.0639 23.0361 27.574 21.6297 27.4827 20.1702L27.2433 16.3423C27.0928 13.9365 25.0977 12.0623 22.6872 12.0623H22.0834V11.2498ZM19.3128 13.6873C17.7604 13.6873 16.4755 14.8944 16.3786 16.4437L16.1392 20.2717C16.0294 22.0279 15.4398 23.7203 14.4346 25.1646C14.38 25.243 14.4286 25.3513 14.5234 25.3626L18.5726 25.8485C20.1851 26.042 21.815 26.042 23.4275 25.8485L27.4766 25.3626C27.5715 25.3513 27.62 25.243 27.5655 25.1646C26.5603 23.7203 25.9707 22.0279 25.8608 20.2717L25.6214 16.4437C25.5245 14.8944 24.2396 13.6873 22.6872 13.6873H19.3128ZM21 29.9373C20.2522 29.9373 19.6459 29.3311 19.6459 28.5832V27.7707H22.3542V28.5832C22.3542 29.3311 21.7479 29.9373 21 29.9373Z" fill="white"/>
<circle cx="25" cy="14" r="4" fill="#FF4C4C"/>
</svg>
