<svg width="26" height="24" viewBox="0 0 26 24" fill="none" xmlns="http://www.w3.org/2000/svg">
<path fill-rule="evenodd" clip-rule="evenodd" d="M4.1118 4.85742C3.18572 4.85742 2.29756 5.22531 1.64273 5.88014C0.987887 6.53498 0.620003 7.42314 0.620003 8.34922V19.7769C0.620003 20.703 0.987887 21.5911 1.64273 22.246C2.29756 22.9008 3.18572 23.2687 4.1118 23.2687H21.8882C22.8143 23.2687 23.7024 22.9008 24.3573 22.246C25.0121 21.5911 25.38 20.703 25.38 19.7769V8.34922C25.38 7.42314 25.0121 6.53498 24.3573 5.88014C23.7024 5.22531 22.8143 4.85742 21.8882 4.85742H4.1118ZM18.7138 12.4759C18.2929 12.4759 17.8892 12.6431 17.5915 12.9408C17.2939 13.2384 17.1267 13.6421 17.1267 14.0631C17.1267 14.484 17.2939 14.8877 17.5915 15.1854C17.8892 15.483 18.2929 15.6502 18.7138 15.6502C19.1348 15.6502 19.5385 15.483 19.8362 15.1854C20.1338 14.8877 20.301 14.484 20.301 14.0631C20.301 13.6421 20.1338 13.2384 19.8362 12.9408C19.5385 12.6431 19.1348 12.4759 18.7138 12.4759Z" fill="#49B6F4"/>
<path d="M18.6948 0.818058C19.0708 0.717873 19.4647 0.70541 19.8462 0.781629C20.2277 0.857849 20.5867 1.02071 20.8953 1.25765C21.2039 1.49459 21.4539 1.79927 21.626 2.14817C21.7982 2.49707 21.8879 2.88087 21.8882 3.26993H9.19077L18.6948 0.818058Z" fill="#49B6F4"/>
</svg>
