<svg width="72" height="98" viewBox="0 0 72 98" fill="none" xmlns="http://www.w3.org/2000/svg">
<g filter="url(#filter0_dd_157_1307)">
<rect x="8" y="6" width="56" height="56" rx="12" fill="white"/>
<path d="M45.25 34C45.25 35.8295 44.7075 37.6179 43.6911 39.139C42.6747 40.6602 41.23 41.8458 39.5398 42.5459C37.8496 43.246 35.9897 43.4292 34.1954 43.0723C32.4011 42.7154 30.7529 41.8344 29.4593 40.5407C28.1656 39.2471 27.2846 37.5989 26.9277 35.8046C26.5708 34.0103 26.754 32.1504 27.4541 30.4602C28.1542 28.77 29.3398 27.3253 30.861 26.3089C32.3821 25.2925 34.1705 24.75 36 24.75" stroke="#49B6F4" stroke-width="1.5" stroke-linecap="round"/>
<path d="M39.116 30.4585L42.7838 27.0604" stroke="#49B6F4" stroke-width="1.5" stroke-linecap="round"/>
<path d="M40.3503 25.9063L43.9182 26.0088" stroke="#49B6F4" stroke-width="1.5" stroke-linecap="round"/>
<path d="M43.7493 29.5742L43.8842 26.0413" stroke="#49B6F4" stroke-width="1.5" stroke-linecap="round"/>
<path d="M36.0011 31V38" stroke="#49B6F4" stroke-width="1.16667" stroke-linecap="round" stroke-linejoin="round"/>
<path d="M34.0566 35.8611C34.0566 36.6156 34.64 37.2222 35.3555 37.2222H36.8177C37.44 37.2222 37.9455 36.6933 37.9455 36.0322C37.9455 35.3245 37.6344 35.0678 37.1755 34.9045L34.8344 34.0878C34.3755 33.9245 34.0644 33.6756 34.0644 32.96C34.0644 32.3067 34.57 31.77 35.1922 31.77H36.6544C37.37 31.77 37.9533 32.3767 37.9533 33.1311" stroke="#49B6F4" stroke-width="1.16667" stroke-linecap="round" stroke-linejoin="round"/>
</g>
<path d="M16.4195 81V73.3794H19.1916C19.7031 73.3794 20.1531 73.4749 20.5418 73.6658C20.9374 73.8499 21.2442 74.1227 21.4624 74.4841C21.6807 74.8387 21.7898 75.2649 21.7898 75.7628C21.7898 76.2537 21.6773 76.6765 21.4522 77.0312C21.234 77.3858 20.9305 77.6585 20.5418 77.8495C20.1531 78.0404 19.7031 78.1359 19.1916 78.1359H17.6266V81H16.4195ZM17.6266 77.0618H19.2223C19.4951 77.0618 19.7337 77.0073 19.9383 76.8982C20.1429 76.7891 20.3032 76.639 20.4191 76.4481C20.535 76.2503 20.593 76.0185 20.593 75.7525C20.593 75.4866 20.535 75.2581 20.4191 75.0672C20.3032 74.8694 20.1429 74.7194 19.9383 74.6171C19.7337 74.508 19.4951 74.4534 19.2223 74.4534H17.6266V77.0618ZM25.3183 81.1227C24.7659 81.1227 24.2749 80.9966 23.8453 80.7443C23.4225 80.4851 23.0918 80.1374 22.8531 79.7009C22.6144 79.2577 22.4951 78.7633 22.4951 78.2177C22.4951 77.6585 22.6144 77.1641 22.8531 76.7345C23.0986 76.3049 23.4259 75.9673 23.8351 75.7218C24.2442 75.4695 24.708 75.3434 25.2262 75.3434C25.6422 75.3434 26.0139 75.415 26.3412 75.5582C26.6685 75.7014 26.9447 75.8991 27.1697 76.1515C27.3948 76.397 27.5653 76.68 27.6812 77.0005C27.8039 77.321 27.8653 77.6619 27.8653 78.0234C27.8653 78.112 27.8619 78.2041 27.8551 78.2995C27.8483 78.395 27.8346 78.4837 27.8142 78.5655H23.4055V77.6449H27.1595L26.6071 78.0643C26.6753 77.7301 26.6515 77.4335 26.5355 77.1744C26.4264 76.9084 26.2559 76.7004 26.0241 76.5504C25.7991 76.3935 25.5331 76.3151 25.2262 76.3151C24.9194 76.3151 24.6466 76.3935 24.4079 76.5504C24.1692 76.7004 23.9851 76.9186 23.8555 77.205C23.726 77.4846 23.6748 77.8256 23.7021 78.2279C23.668 78.603 23.7192 78.9303 23.8555 79.2099C23.9988 79.4895 24.1965 79.7077 24.4488 79.8646C24.708 80.0214 25.0012 80.0998 25.3285 80.0998C25.6627 80.0998 25.9457 80.0248 26.1775 79.8748C26.4162 79.7248 26.6037 79.5304 26.7401 79.2918L27.6812 79.7521C27.5721 80.0112 27.4016 80.2465 27.1697 80.4579C26.9447 80.6624 26.6719 80.8261 26.3514 80.9489C26.0377 81.0648 25.6934 81.1227 25.3183 81.1227ZM28.9934 81V75.4661H30.0981V76.5504L29.9651 76.4072C30.1015 76.0594 30.3197 75.7969 30.6198 75.6195C30.9198 75.4354 31.2676 75.3434 31.6631 75.3434C32.0723 75.3434 32.4337 75.432 32.7474 75.6093C33.0611 75.7866 33.3066 76.0321 33.4839 76.3458C33.6612 76.6595 33.7499 77.0209 33.7499 77.4301V81H32.6042V77.737C32.6042 77.4574 32.5531 77.2221 32.4508 77.0312C32.3485 76.8334 32.2019 76.6834 32.0109 76.5811C31.8268 76.472 31.6154 76.4174 31.3767 76.4174C31.1381 76.4174 30.9232 76.472 30.7323 76.5811C30.5482 76.6834 30.405 76.8334 30.3027 77.0312C30.2004 77.2289 30.1493 77.4642 30.1493 77.737V81H28.9934ZM37.5442 81.1227C37.0123 81.1227 36.5349 80.9966 36.1121 80.7443C35.6961 80.4851 35.3654 80.1374 35.1199 79.7009C34.8812 79.2645 34.7619 78.7735 34.7619 78.2279C34.7619 77.6824 34.8846 77.1914 35.1301 76.755C35.3756 76.3185 35.7064 75.9742 36.1223 75.7218C36.5383 75.4695 37.0089 75.3434 37.5339 75.3434C37.9772 75.3434 38.3693 75.432 38.7103 75.6093C39.0512 75.7866 39.3206 76.0321 39.5184 76.3458L39.3445 76.6118V73.2567H40.4901V81H39.3956V79.8748L39.5286 80.0896C39.3377 80.4238 39.0649 80.6795 38.7103 80.8568C38.3557 81.0341 37.967 81.1227 37.5442 81.1227ZM37.6567 80.0487C37.9772 80.0487 38.2636 79.9703 38.5159 79.8134C38.7751 79.6566 38.9762 79.4418 39.1194 79.169C39.2695 78.8894 39.3445 78.5757 39.3445 78.2279C39.3445 77.8802 39.2695 77.5699 39.1194 77.2971C38.9762 77.0243 38.7751 76.8095 38.5159 76.6527C38.2636 76.4958 37.9772 76.4174 37.6567 76.4174C37.3362 76.4174 37.0464 76.4958 36.7872 76.6527C36.5281 76.8095 36.3269 77.0243 36.1837 77.2971C36.0405 77.5699 35.9689 77.8802 35.9689 78.2279C35.9689 78.5757 36.0405 78.8894 36.1837 79.169C36.3269 79.4418 36.5247 79.6566 36.777 79.8134C37.0361 79.9703 37.3294 80.0487 37.6567 80.0487ZM41.8396 81V75.4661H42.9954V81H41.8396ZM41.8396 74.7092V73.3794H42.9954V74.7092H41.8396ZM44.3469 81V75.4661H45.4516V76.5504L45.3186 76.4072C45.455 76.0594 45.6732 75.7969 45.9733 75.6195C46.2733 75.4354 46.6211 75.3434 47.0166 75.3434C47.4258 75.3434 47.7872 75.432 48.1009 75.6093C48.4146 75.7866 48.6601 76.0321 48.8374 76.3458C49.0147 76.6595 49.1033 77.0209 49.1033 77.4301V81H47.9577V77.737C47.9577 77.4574 47.9065 77.2221 47.8043 77.0312C47.702 76.8334 47.5554 76.6834 47.3644 76.5811C47.1803 76.472 46.9689 76.4174 46.7302 76.4174C46.4915 76.4174 46.2767 76.472 46.0858 76.5811C45.9017 76.6834 45.7585 76.8334 45.6562 77.0312C45.5539 77.2289 45.5027 77.4642 45.5027 77.737V81H44.3469ZM53.0102 83.2504C52.6078 83.2504 52.2362 83.1856 51.8952 83.056C51.5543 82.9265 51.261 82.7457 51.0155 82.5139C50.77 82.2889 50.5859 82.0229 50.4632 81.716L51.527 81.2762C51.6224 81.5353 51.7963 81.7501 52.0487 81.9206C52.3078 82.0911 52.6249 82.1763 53 82.1763C53.2932 82.1763 53.5557 82.1184 53.7876 82.0024C54.0194 81.8933 54.2036 81.7297 54.3399 81.5114C54.4763 81.3001 54.5445 81.0443 54.5445 80.7443V79.4963L54.7491 79.7316C54.5582 80.0862 54.2922 80.3556 53.9512 80.5397C53.6171 80.7238 53.2386 80.8159 52.8158 80.8159C52.3044 80.8159 51.8441 80.6965 51.4349 80.4579C51.0258 80.2192 50.7018 79.8919 50.4632 79.4759C50.2313 79.0599 50.1154 78.5928 50.1154 78.0745C50.1154 77.5494 50.2313 77.0823 50.4632 76.6731C50.7018 76.264 51.0223 75.9401 51.4247 75.7014C51.827 75.4627 52.2873 75.3434 52.8056 75.3434C53.2284 75.3434 53.6035 75.4354 53.9308 75.6195C54.2649 75.7969 54.5377 76.056 54.7491 76.397L54.5957 76.6834V75.4661H55.6902V80.7443C55.6902 81.2216 55.5742 81.6478 55.3424 82.0229C55.1174 82.4048 54.8037 82.7048 54.4013 82.9231C53.999 83.1413 53.5353 83.2504 53.0102 83.2504ZM52.9488 79.7418C53.2557 79.7418 53.5284 79.6702 53.7671 79.527C54.0058 79.377 54.1933 79.1792 54.3297 78.9337C54.4729 78.6814 54.5445 78.3984 54.5445 78.0847C54.5445 77.771 54.4729 77.488 54.3297 77.2357C54.1865 76.9834 53.9956 76.7857 53.7569 76.6424C53.5182 76.4924 53.2489 76.4174 52.9488 76.4174C52.6351 76.4174 52.3555 76.4924 52.11 76.6424C51.8645 76.7857 51.6702 76.9834 51.527 77.2357C51.3906 77.4812 51.3224 77.7642 51.3224 78.0847C51.3224 78.3916 51.3906 78.6712 51.527 78.9235C51.6702 79.1758 51.8645 79.377 52.11 79.527C52.3555 79.6702 52.6351 79.7418 52.9488 79.7418ZM12.269 95V87.3794H15.0411C15.5525 87.3794 16.0026 87.4749 16.3913 87.6658C16.7868 87.8499 17.0937 88.1227 17.3119 88.4841C17.5301 88.8387 17.6392 89.2649 17.6392 89.7628C17.6392 90.2537 17.5267 90.6765 17.3017 91.0312C17.0835 91.3858 16.78 91.6585 16.3913 91.8495C16.0026 92.0404 15.5525 92.1359 15.0411 92.1359H13.476V95H12.269ZM13.476 91.0618H15.0718C15.3445 91.0618 15.5832 91.0073 15.7878 90.8982C15.9924 90.7891 16.1526 90.639 16.2686 90.4481C16.3845 90.2503 16.4424 90.0185 16.4424 89.7525C16.4424 89.4866 16.3845 89.2581 16.2686 89.0672C16.1526 88.8694 15.9924 88.7194 15.7878 88.6171C15.5832 88.508 15.3445 88.4534 15.0718 88.4534H13.476V91.0618ZM20.0669 95.1227C19.6918 95.1227 19.3611 95.058 19.0747 94.9284C18.7951 94.792 18.5768 94.6079 18.42 94.376C18.2632 94.1374 18.1847 93.8578 18.1847 93.5373C18.1847 93.2372 18.2495 92.9678 18.3791 92.7292C18.5155 92.4905 18.7235 92.2893 19.003 92.1257C19.2826 91.962 19.6338 91.8461 20.0566 91.7779L21.9797 91.4608V92.3711L20.2817 92.6678C19.9748 92.7223 19.7498 92.8212 19.6066 92.9644C19.4634 93.1008 19.3917 93.2781 19.3917 93.4963C19.3917 93.7077 19.4702 93.8816 19.627 94.018C19.7907 94.1476 19.9987 94.2124 20.251 94.2124C20.5647 94.2124 20.8374 94.1442 21.0693 94.0078C21.308 93.8714 21.4921 93.6907 21.6217 93.4657C21.7512 93.2338 21.816 92.9781 21.816 92.6985V91.2766C21.816 91.0039 21.7137 90.7822 21.5092 90.6118C21.3114 90.4345 21.0454 90.3458 20.7113 90.3458C20.4044 90.3458 20.1351 90.4276 19.9032 90.5913C19.6782 90.7481 19.5111 90.9527 19.402 91.205L18.4405 90.7243C18.5427 90.4515 18.7098 90.2128 18.9417 90.0083C19.1735 89.7969 19.4429 89.6332 19.7498 89.5173C20.0635 89.4013 20.3942 89.3434 20.742 89.3434C21.1784 89.3434 21.5637 89.4252 21.8979 89.5889C22.2388 89.7525 22.5014 89.981 22.6855 90.2742C22.8764 90.5606 22.9719 90.8948 22.9719 91.2766V95H21.8672V93.9976L22.1024 94.0282C21.9729 94.2533 21.8058 94.4476 21.6012 94.6113C21.4035 94.775 21.175 94.9011 20.9159 94.9898C20.6636 95.0784 20.3806 95.1227 20.0669 95.1227ZM24.8144 97.2606C24.678 97.2606 24.5416 97.247 24.4052 97.2197C24.2757 97.1992 24.1563 97.1651 24.0472 97.1174V96.1252C24.1291 96.1456 24.2279 96.1627 24.3439 96.1763C24.4598 96.1968 24.5723 96.207 24.6814 96.207C25.0019 96.207 25.2372 96.1354 25.3872 95.9922C25.5441 95.8558 25.6839 95.641 25.8066 95.3478L26.1749 94.509L26.1544 95.4808L23.7608 89.4661H24.9985L26.7681 94.0794H26.3487L28.1081 89.4661H29.3561L26.9113 95.6035C26.7818 95.9308 26.6181 96.2173 26.4203 96.4627C26.2294 96.7151 26.001 96.9094 25.735 97.0458C25.4759 97.189 25.169 97.2606 24.8144 97.2606ZM30.1471 95V89.4661H31.2519V90.6629L31.1087 90.4788C31.2246 90.1037 31.436 89.8207 31.7429 89.6298C32.0497 89.4388 32.4009 89.3434 32.7964 89.3434C33.2397 89.3434 33.6318 89.4627 33.9728 89.7014C34.3206 89.9332 34.5524 90.2435 34.6684 90.6322L34.341 90.6629C34.5047 90.2196 34.7536 89.8889 35.0877 89.6707C35.4287 89.4525 35.8174 89.3434 36.2538 89.3434C36.6357 89.3434 36.9801 89.432 37.287 89.6093C37.6007 89.7866 37.8496 90.0321 38.0337 90.3458C38.2178 90.6595 38.3099 91.0175 38.3099 91.4199V95H37.154V91.737C37.154 91.4574 37.1029 91.2221 37.0006 91.0312C36.9051 90.8334 36.7687 90.6834 36.5914 90.5811C36.4209 90.472 36.2197 90.4174 35.9879 90.4174C35.756 90.4174 35.5515 90.472 35.3742 90.5811C35.1969 90.6834 35.0571 90.8334 34.9548 91.0312C34.8525 91.2289 34.8013 91.4642 34.8013 91.737V95H33.6557V91.737C33.6557 91.4574 33.6045 91.2221 33.5022 91.0312C33.4068 90.8334 33.2704 90.6834 33.0931 90.5811C32.9226 90.472 32.718 90.4174 32.4793 90.4174C32.2475 90.4174 32.0429 90.472 31.8656 90.5811C31.6883 90.6834 31.5485 90.8334 31.4462 91.0312C31.3507 91.2289 31.303 91.4642 31.303 91.737V95H30.1471ZM42.1452 95.1227C41.5928 95.1227 41.1018 94.9966 40.6722 94.7443C40.2494 94.4851 39.9187 94.1374 39.68 93.7009C39.4413 93.2577 39.322 92.7633 39.322 92.2177C39.322 91.6585 39.4413 91.1641 39.68 90.7345C39.9255 90.3049 40.2528 89.9673 40.662 89.7218C41.0711 89.4695 41.5349 89.3434 42.0531 89.3434C42.4691 89.3434 42.8408 89.415 43.1681 89.5582C43.4954 89.7014 43.7716 89.8991 43.9966 90.1515C44.2217 90.397 44.3922 90.68 44.5081 91.0005C44.6308 91.321 44.6922 91.6619 44.6922 92.0234C44.6922 92.112 44.6888 92.2041 44.682 92.2995C44.6752 92.395 44.6615 92.4837 44.6411 92.5655H40.2324V91.6449H43.9864L43.434 92.0643C43.5022 91.7301 43.4784 91.4335 43.3624 91.1744C43.2533 90.9084 43.0828 90.7004 42.851 90.5504C42.626 90.3935 42.36 90.3151 42.0531 90.3151C41.7463 90.3151 41.4735 90.3935 41.2348 90.5504C40.9961 90.7004 40.812 90.9186 40.6824 91.205C40.5529 91.4846 40.5017 91.8256 40.529 92.2279C40.4949 92.603 40.5461 92.9303 40.6824 93.2099C40.8256 93.4895 41.0234 93.7077 41.2757 93.8646C41.5349 94.0214 41.8281 94.0998 42.1554 94.0998C42.4896 94.0998 42.7726 94.0248 43.0044 93.8748C43.2431 93.7248 43.4306 93.5304 43.567 93.2918L44.5081 93.7521C44.399 94.0112 44.2285 94.2465 43.9966 94.4579C43.7716 94.6624 43.4988 94.8261 43.1783 94.9489C42.8646 95.0648 42.5203 95.1227 42.1452 95.1227ZM45.8203 95V89.4661H46.925V90.5504L46.792 90.4072C46.9284 90.0594 47.1466 89.7969 47.4467 89.6195C47.7467 89.4354 48.0945 89.3434 48.49 89.3434C48.8992 89.3434 49.2606 89.432 49.5743 89.6093C49.888 89.7866 50.1335 90.0321 50.3108 90.3458C50.4881 90.6595 50.5768 91.0209 50.5768 91.4301V95H49.4311V91.737C49.4311 91.4574 49.38 91.2221 49.2777 91.0312C49.1754 90.8334 49.0288 90.6834 48.8378 90.5811C48.6537 90.472 48.4423 90.4174 48.2036 90.4174C47.965 90.4174 47.7501 90.472 47.5592 90.5811C47.3751 90.6834 47.2319 90.8334 47.1296 91.0312C47.0273 91.2289 46.9762 91.4642 46.9762 91.737V95H45.8203ZM54.2074 95.0614C53.6278 95.0614 53.1777 94.8977 52.8572 94.5704C52.5367 94.2431 52.3764 93.7827 52.3764 93.1895V90.5095H51.4047V89.4661H51.5581C51.8172 89.4661 52.0184 89.3911 52.1616 89.2411C52.3048 89.0911 52.3764 88.8865 52.3764 88.6273V88.1977H53.5323V89.4661H54.7905V90.5095H53.5323V93.1383C53.5323 93.3293 53.563 93.4929 53.6244 93.6293C53.6857 93.7589 53.7846 93.8612 53.921 93.9362C54.0574 94.0044 54.2347 94.0385 54.4529 94.0385C54.5075 94.0385 54.5688 94.0351 54.637 94.0282C54.7052 94.0214 54.77 94.0146 54.8314 94.0078V95C54.7359 95.0136 54.6302 95.0273 54.5143 95.0409C54.3984 95.0546 54.2961 95.0614 54.2074 95.0614ZM58.0052 95.1227C57.4392 95.1227 56.9413 94.983 56.5117 94.7034C56.0889 94.4238 55.7923 94.0487 55.6218 93.5782L56.5117 93.1588C56.6618 93.4725 56.8663 93.7214 57.1255 93.9055C57.3914 94.0896 57.6847 94.1817 58.0052 94.1817C58.2779 94.1817 58.4996 94.1203 58.67 93.9976C58.8405 93.8748 58.9258 93.7077 58.9258 93.4963C58.9258 93.36 58.8883 93.2508 58.8133 93.169C58.7382 93.0804 58.6428 93.0088 58.5268 92.9542C58.4177 92.8996 58.3052 92.8587 58.1893 92.8315L57.3198 92.586C56.8425 92.4496 56.4845 92.245 56.2458 91.9722C56.0139 91.6926 55.898 91.3687 55.898 91.0005C55.898 90.6663 55.9832 90.3765 56.1537 90.131C56.3242 89.8787 56.5595 89.6843 56.8595 89.5479C57.1596 89.4116 57.4971 89.3434 57.8722 89.3434C58.3768 89.3434 58.8269 89.4695 59.2224 89.7218C59.6179 89.9673 59.8975 90.3117 60.0612 90.755L59.1713 91.1744C59.0622 90.9084 58.8883 90.697 58.6496 90.5402C58.4177 90.3833 58.1552 90.3049 57.862 90.3049C57.6096 90.3049 57.4085 90.3663 57.2584 90.489C57.1084 90.6049 57.0334 90.7584 57.0334 90.9493C57.0334 91.0789 57.0675 91.188 57.1357 91.2766C57.2039 91.3585 57.2925 91.4267 57.4017 91.4812C57.5108 91.529 57.6233 91.5699 57.7392 91.604L58.6394 91.8699C59.0963 91.9995 59.4475 92.2041 59.6929 92.4837C59.9384 92.7564 60.0612 93.0838 60.0612 93.4657C60.0612 93.793 59.9725 94.0828 59.7952 94.3351C59.6248 94.5806 59.3861 94.775 59.0792 94.9182C58.7723 95.0546 58.4143 95.1227 58.0052 95.1227Z" fill="#F8F8F8"/>
<defs>
<filter id="filter0_dd_157_1307" x="0" y="0" width="72" height="72" filterUnits="userSpaceOnUse" color-interpolation-filters="sRGB">
<feFlood flood-opacity="0" result="BackgroundImageFix"/>
<feColorMatrix in="SourceAlpha" type="matrix" values="0 0 0 0 0 0 0 0 0 0 0 0 0 0 0 0 0 0 127 0" result="hardAlpha"/>
<feOffset dy="1"/>
<feGaussianBlur stdDeviation="1"/>
<feColorMatrix type="matrix" values="0 0 0 0 0 0 0 0 0 0 0 0 0 0 0 0 0 0 0.3 0"/>
<feBlend mode="normal" in2="BackgroundImageFix" result="effect1_dropShadow_157_1307"/>
<feColorMatrix in="SourceAlpha" type="matrix" values="0 0 0 0 0 0 0 0 0 0 0 0 0 0 0 0 0 0 127 0" result="hardAlpha"/>
<feMorphology radius="2" operator="dilate" in="SourceAlpha" result="effect2_dropShadow_157_1307"/>
<feOffset dy="2"/>
<feGaussianBlur stdDeviation="3"/>
<feColorMatrix type="matrix" values="0 0 0 0 0 0 0 0 0 0 0 0 0 0 0 0 0 0 0.15 0"/>
<feBlend mode="normal" in2="effect1_dropShadow_157_1307" result="effect2_dropShadow_157_1307"/>
<feBlend mode="normal" in="SourceGraphic" in2="effect2_dropShadow_157_1307" result="shape"/>
</filter>
</defs>
</svg>
