<svg width="39" height="39" viewBox="0 0 39 39" fill="none" xmlns="http://www.w3.org/2000/svg">
<g clip-path="url(#clip0_718_4797)">
<path d="M19.5001 39.0003C30.2695 39.0003 38.9998 30.27 38.9998 19.5006C38.9998 8.73127 30.2695 0.000976562 19.5001 0.000976562C8.73078 0.000976562 0.000488281 8.73127 0.000488281 19.5006C0.000488281 30.27 8.73078 39.0003 19.5001 39.0003Z" fill="#CB2027"/>
<path d="M21.0741 26.1123C19.5999 25.9983 18.9805 25.2673 17.8244 24.5655C17.189 27.8993 16.4124 31.0951 14.1124 32.7647C13.4015 27.7259 15.1545 23.9412 15.9685 19.924C14.5809 17.5881 16.1354 12.8865 19.0622 14.045C22.6644 15.4695 15.9435 22.7305 20.4554 23.6374C25.1657 24.5843 27.0886 15.4643 24.1674 12.4979C19.9468 8.21509 11.8822 12.4005 12.8739 18.5315C13.1154 20.0303 14.6644 20.4854 13.4926 22.5536C10.7914 21.9554 9.98566 19.8249 10.0892 16.9847C10.2564 12.3355 14.2667 9.08026 18.2891 8.62977C23.3762 8.0604 28.1509 10.4978 28.8099 15.2828C29.5514 20.6835 26.5133 26.5322 21.0741 26.1123Z" fill="#F1F2F2"/>
</g>
<defs>
<clipPath id="clip0_718_4797">
<rect width="39" height="39" fill="white"/>
</clipPath>
</defs>
</svg>
