<svg width="43" height="45" viewBox="0 0 43 45" fill="none" xmlns="http://www.w3.org/2000/svg">
<rect width="42.5669" height="43.1067" transform="translate(0.088623 0.910156)" fill="white" fill-opacity="0.2"/>
<path d="M9.30542 37.0475C9.30542 37.6916 9.08333 38.2283 8.63916 38.6576C8.20238 39.0796 7.53242 39.2906 6.62926 39.2906H5.14127V42.522H4.13077V34.7822H6.62926C7.5028 34.7822 8.16537 34.9932 8.61695 35.4152C9.07593 35.8371 9.30542 36.3812 9.30542 37.0475ZM6.62926 38.4578C7.19188 38.4578 7.60645 38.3356 7.87295 38.0913C8.13946 37.847 8.27271 37.4991 8.27271 37.0475C8.27271 36.0925 7.72489 35.615 6.62926 35.615H5.14127V38.4578H6.62926ZM12.016 37.425C12.1937 37.0771 12.4454 36.8069 12.7711 36.6144C13.1043 36.422 13.5077 36.3257 13.9815 36.3257V37.3695H13.715C12.5823 37.3695 12.016 37.984 12.016 39.2129V42.522H11.0055V36.4368H12.016V37.425ZM18.2461 42.6219C17.6761 42.6219 17.1579 42.4924 16.6915 42.2333C16.2325 41.9742 15.8698 41.6077 15.6033 41.1339C15.3442 40.6527 15.2146 40.0975 15.2146 39.4683C15.2146 38.8464 15.3479 38.2986 15.6144 37.8248C15.8883 37.3436 16.2584 36.9772 16.7248 36.7255C17.1912 36.4664 17.7131 36.3368 18.2905 36.3368C18.868 36.3368 19.3899 36.4664 19.8563 36.7255C20.3226 36.9772 20.6891 37.3399 20.9556 37.8137C21.2295 38.2875 21.3665 38.839 21.3665 39.4683C21.3665 40.0975 21.2258 40.6527 20.9445 41.1339C20.6706 41.6077 20.2967 41.9742 19.8229 42.2333C19.3492 42.4924 18.8235 42.6219 18.2461 42.6219ZM18.2461 41.7336C18.6089 41.7336 18.9494 41.6484 19.2677 41.4782C19.5861 41.3079 19.8415 41.0525 20.0339 40.712C20.2338 40.3714 20.3337 39.9569 20.3337 39.4683C20.3337 38.9797 20.2375 38.5651 20.045 38.2246C19.8526 37.884 19.6009 37.6323 19.2899 37.4695C18.979 37.2992 18.6422 37.2141 18.2794 37.2141C17.9093 37.2141 17.5687 37.2992 17.2578 37.4695C16.9543 37.6323 16.71 37.884 16.5249 38.2246C16.3399 38.5651 16.2473 38.9797 16.2473 39.4683C16.2473 39.9643 16.3362 40.3825 16.5138 40.7231C16.6989 41.0636 16.9432 41.319 17.2467 41.4893C17.5502 41.6521 17.8834 41.7336 18.2461 41.7336ZM25.6155 37.2696H24.3385V42.522H23.328V37.2696H22.5396V36.4368H23.328V36.0037C23.328 35.3226 23.502 34.8266 23.8499 34.5157C24.2053 34.1974 24.7716 34.0382 25.5489 34.0382V34.8821C25.1047 34.8821 24.7901 34.971 24.605 35.1486C24.4274 35.3189 24.3385 35.6039 24.3385 36.0037V36.4368H25.6155V37.2696ZM27.7598 35.4485C27.5673 35.4485 27.4045 35.3818 27.2712 35.2486C27.138 35.1153 27.0713 34.9525 27.0713 34.76C27.0713 34.5675 27.138 34.4046 27.2712 34.2714C27.4045 34.1381 27.5673 34.0715 27.7598 34.0715C27.9449 34.0715 28.1004 34.1381 28.2262 34.2714C28.3595 34.4046 28.4261 34.5675 28.4261 34.76C28.4261 34.9525 28.3595 35.1153 28.2262 35.2486C28.1004 35.3818 27.9449 35.4485 27.7598 35.4485ZM28.2484 36.4368V42.522H27.2379V36.4368H28.2484ZM31.4253 34.3047V42.522H30.4148V34.3047H31.4253ZM39.1439 39.2462C39.1439 39.4386 39.1328 39.6422 39.1106 39.8569H34.2469C34.2839 40.4566 34.4875 40.9266 34.8576 41.2672C35.2352 41.6003 35.6905 41.7669 36.2235 41.7669C36.6602 41.7669 37.023 41.6669 37.3117 41.4671C37.6078 41.2598 37.8151 40.9859 37.9335 40.6453H39.0218C38.8589 41.2302 38.5332 41.7076 38.0446 42.0778C37.556 42.4405 36.9489 42.6219 36.2235 42.6219C35.646 42.6219 35.1278 42.4924 34.6688 42.2333C34.2173 41.9742 33.8619 41.6077 33.6028 41.1339C33.3437 40.6527 33.2142 40.0975 33.2142 39.4683C33.2142 38.839 33.34 38.2875 33.5917 37.8137C33.8434 37.3399 34.1951 36.9772 34.6466 36.7255C35.1056 36.4664 35.6312 36.3368 36.2235 36.3368C36.8009 36.3368 37.3117 36.4627 37.7559 36.7144C38.2 36.9661 38.5406 37.314 38.7775 37.7582C39.0218 38.195 39.1439 38.691 39.1439 39.2462ZM38.1001 39.0352C38.1001 38.6502 38.015 38.3208 37.8447 38.0469C37.6744 37.7656 37.4412 37.5546 37.1451 37.4139C36.8564 37.2659 36.5344 37.1919 36.179 37.1919C35.6682 37.1919 35.2315 37.3547 34.8687 37.6805C34.5134 38.0062 34.3098 38.4578 34.258 39.0352H38.1001Z" fill="black"/>
<path opacity="0.989" d="M20.75 6.40625L20.7419 5.90632L20.7119 5.9068L20.6822 5.91087L20.75 6.40625ZM20.75 6.40625C22.1173 6.38405 23.0391 7.00905 23.5156 8.28125M20.75 6.40625C20.2187 6.47902 19.7395 6.68214 19.3125 7.01562M23.5156 8.28125C23.8247 9.7515 23.3091 10.8192 21.9688 11.4844M23.5156 8.28125L23.9839 8.10587L23.9971 8.14133L24.0049 8.17838L23.5156 8.28125ZM19.3125 7.01562L19.0047 6.62156L18.9836 6.63804L18.9644 6.65667L19.3125 7.01562ZM19.3125 7.01562C18.3051 7.9925 18.1123 9.11228 18.7344 10.375M18.7344 10.375L18.2858 10.596L18.3021 10.629L18.323 10.6593L18.7344 10.375ZM18.7344 10.375C19.5357 11.5345 20.6138 11.9043 21.9688 11.4844M21.9688 11.4844L22.1168 11.962L22.1551 11.9501L22.191 11.9323L21.9688 11.4844ZM22.875 13.0156L22.9633 12.5235L22.9226 12.5162L22.8812 12.5157L22.875 13.0156ZM22.875 13.0156C24.0682 13.2296 24.8234 13.9223 25.1406 15.0938M22.875 13.0156C21.625 13 20.375 12.9948 19.125 13M25.1406 15.0938C25.3253 15.8007 25.1117 16.3476 24.5 16.7344C22.7782 17.9314 20.924 18.1918 18.9375 17.5156M25.1406 15.0938L25.6232 14.9631L25.6244 14.9674L25.1406 15.0938ZM19.125 13L19.1229 12.5L19.0774 12.5002L19.0326 12.5086L19.125 13ZM19.125 13C17.951 13.2207 17.1958 13.9082 16.8594 15.0625C16.7367 15.4764 16.7783 15.8722 16.9844 16.25M16.9844 16.25L16.5454 16.4894L16.5784 16.5499L16.6266 16.5993L16.9844 16.25ZM16.9844 16.25C17.5367 16.8158 18.1877 17.2377 18.9375 17.5156M18.9375 17.5156L18.7636 17.9846L18.7764 17.989L18.9375 17.5156ZM20.3152 4.5H20.3125V4L20.3152 4.5ZM20.3152 4.5H20.3179M20.3152 4.5H20.3179M20.3179 4.5H20.3206M20.3179 4.5H20.3206M20.3206 4.5H20.3232M20.3206 4.5H20.3232M20.3232 4.5H20.3259M20.3232 4.5H20.3259M20.3259 4.5H20.3286M20.3259 4.5H20.3286M20.3286 4.5H20.3313M20.3286 4.5H20.3313M20.3313 4.5H20.334M20.3313 4.5H20.334M20.334 4.5H20.3367M20.334 4.5H20.3367M20.3367 4.5H20.3394M20.3367 4.5H20.3394M20.3394 4.5H20.342M20.3394 4.5H20.342M20.342 4.5H20.3447M20.342 4.5H20.3447M20.3447 4.5H20.3474M20.3447 4.5H20.3474M20.3474 4.5H20.3501M20.3474 4.5H20.3501M20.3501 4.5H20.3528M20.3501 4.5H20.3528M20.3528 4.5H20.3555M20.3528 4.5H20.3555M20.3555 4.5H20.3582M20.3555 4.5H20.3582M20.3582 4.5H20.3608M20.3582 4.5H20.3608M20.3608 4.5H20.3635M20.3608 4.5H20.3635M20.3635 4.5H20.3662M20.3635 4.5H20.3662M20.3662 4.5H20.3689M20.3662 4.5H20.3689M20.3689 4.5H20.3716M20.3689 4.5H20.3716M20.3716 4.5H20.3743M20.3716 4.5H20.3743M20.3743 4.5H20.377M20.3743 4.5H20.377M20.377 4.5H20.3796M20.377 4.5H20.3796M20.3796 4.5H20.3823M20.3796 4.5H20.3823M20.3823 4.5H20.385M20.3823 4.5H20.385M20.385 4.5H20.3877M20.385 4.5H20.3877M20.3877 4.5H20.3904M20.3877 4.5H20.3904M20.3904 4.5H20.3931M20.3904 4.5H20.3931M20.3931 4.5H20.3958M20.3931 4.5H20.3958M20.3958 4.5H20.3984M20.3958 4.5H20.3984M20.3984 4.5H20.4011M20.3984 4.5H20.4011M20.4011 4.5H20.4038M20.4011 4.5H20.4038M20.4038 4.5H20.4065M20.4038 4.5H20.4065M20.4065 4.5H20.4092M20.4065 4.5H20.4092M20.4092 4.5H20.4119M20.4092 4.5H20.4119M20.4119 4.5H20.4146M20.4119 4.5H20.4146M20.4146 4.5H20.4172M20.4146 4.5H20.4172M20.4172 4.5H20.4199M20.4172 4.5H20.4199M20.4199 4.5H20.4226M20.4199 4.5H20.4226M20.4226 4.5H20.4253M20.4226 4.5H20.4253M20.4253 4.5H20.428M20.4253 4.5H20.428M20.428 4.5H20.4307M20.428 4.5H20.4307M20.4307 4.5H20.4334M20.4307 4.5H20.4334M20.4334 4.5H20.436M20.4334 4.5H20.436M20.436 4.5H20.4387M20.436 4.5H20.4387M20.4387 4.5H20.4414M20.4387 4.5H20.4414M20.4414 4.5H20.4441M20.4414 4.5H20.4441M20.4441 4.5H20.4468M20.4441 4.5H20.4468M20.4468 4.5H20.4495M20.4468 4.5H20.4495M20.4495 4.5H20.4522M20.4495 4.5H20.4522M20.4522 4.5H20.4548M20.4522 4.5H20.4548M20.4548 4.5H20.4575M20.4548 4.5H20.4575M20.4575 4.5H20.4602M20.4575 4.5H20.4602M20.4602 4.5H20.4629M20.4602 4.5H20.4629M20.4629 4.5H20.4656M20.4629 4.5H20.4656M20.4656 4.5H20.4683M20.4656 4.5H20.4683M20.4683 4.5H20.4709M20.4683 4.5H20.4709M20.4709 4.5H20.4736M20.4709 4.5H20.4736M20.4736 4.5H20.4763M20.4736 4.5H20.4763M20.4763 4.5H20.479M20.4763 4.5H20.479M20.479 4.5H20.4817M20.479 4.5H20.4817M20.4817 4.5H20.4844M20.4817 4.5H20.4844M20.4844 4.5H20.4871M20.4844 4.5H20.4871M20.4871 4.5H20.4897M20.4871 4.5H20.4897M20.4897 4.5H20.4924M20.4897 4.5H20.4924M20.4924 4.5H20.4951M20.4924 4.5H20.4951M20.4951 4.5H20.4978M20.4951 4.5H20.4978M20.4978 4.5H20.5005M20.4978 4.5H20.5005M20.5005 4.5H20.5032M20.5005 4.5H20.5032M20.5032 4.5H20.5059M20.5032 4.5H20.5059M20.5059 4.5H20.5085M20.5059 4.5H20.5085M20.5085 4.5H20.5112M20.5085 4.5H20.5112M20.5112 4.5H20.5139M20.5112 4.5H20.5139M20.5139 4.5H20.5166M20.5139 4.5H20.5166M20.5166 4.5H20.5193M20.5166 4.5H20.5193M20.5193 4.5H20.522M20.5193 4.5H20.522M20.522 4.5H20.5247M20.522 4.5H20.5247M20.5247 4.5H20.5273M20.5247 4.5H20.5273M20.5273 4.5H20.53M20.5273 4.5H20.53M20.53 4.5H20.5327M20.53 4.5H20.5327M20.5327 4.5H20.5354M20.5327 4.5H20.5354M20.5354 4.5H20.5381M20.5354 4.5H20.5381M20.5381 4.5H20.5408M20.5381 4.5H20.5408M20.5408 4.5H20.5435M20.5408 4.5H20.5435M20.5435 4.5H20.5461M20.5435 4.5H20.5461M20.5461 4.5H20.5488M20.5461 4.5H20.5488M20.5488 4.5H20.5515M20.5488 4.5H20.5515M20.5515 4.5H20.5542M20.5515 4.5H20.5542M20.5542 4.5H20.5569M20.5542 4.5H20.5569M20.5569 4.5H20.5596M20.5569 4.5H20.5596M20.5596 4.5H20.5623M20.5596 4.5H20.5623M20.5623 4.5H20.5649M20.5623 4.5H20.5649M20.5649 4.5H20.5676M20.5649 4.5H20.5676M20.5676 4.5H20.5703M20.5676 4.5H20.5703M20.5703 4.5H20.573M20.5703 4.5H20.573M20.573 4.5H20.5757M20.573 4.5H20.5757M20.5757 4.5H20.5784M20.5757 4.5H20.5784M20.5784 4.5H20.5811M20.5784 4.5H20.5811M20.5811 4.5H20.5837M20.5811 4.5H20.5837M20.5837 4.5H20.5864M20.5837 4.5H20.5864M20.5864 4.5H20.5891M20.5864 4.5H20.5891M20.5891 4.5H20.5918M20.5891 4.5H20.5918M20.5918 4.5H20.5945M20.5918 4.5H20.5945M20.5945 4.5H20.5972M20.5945 4.5H20.5972M20.5972 4.5H20.5999M20.5972 4.5H20.5999M20.5999 4.5H20.6025M20.5999 4.5H20.6025M20.6025 4.5H20.6052M20.6025 4.5H20.6052M20.6052 4.5H20.6079M20.6052 4.5H20.6079M20.6079 4.5H20.6106M20.6079 4.5H20.6106M20.6106 4.5H20.6133M20.6106 4.5H20.6133M20.6133 4.5H20.616M20.6133 4.5H20.616M20.616 4.5H20.6187M20.616 4.5H20.6187M20.6187 4.5H20.6213M20.6187 4.5H20.6213M20.6213 4.5H20.624M20.6213 4.5H20.624M20.624 4.5H20.6267M20.624 4.5H20.6267M20.6267 4.5H20.6294M20.6267 4.5H20.6294M20.6294 4.5H20.6321M20.6294 4.5H20.6321M20.6321 4.5H20.6348M20.6321 4.5H20.6348M20.6348 4.5H20.6375M20.6348 4.5H20.6375M20.6375 4.5H20.6401M20.6375 4.5H20.6401M20.6401 4.5H20.6428M20.6401 4.5H20.6428M20.6428 4.5H20.6455M20.6428 4.5H20.6455M20.6455 4.5H20.6482M20.6455 4.5H20.6482M20.6482 4.5H20.6509M20.6482 4.5H20.6509M20.6509 4.5H20.6536M20.6509 4.5H20.6536M20.6536 4.5H20.6563M20.6536 4.5H20.6563M20.6563 4.5H20.6589M20.6563 4.5H20.6589M20.6589 4.5H20.6616M20.6589 4.5H20.6616M20.6616 4.5H20.6643M20.6616 4.5H20.6643M20.6643 4.5H20.667M20.6643 4.5H20.667M20.667 4.5H20.6697M20.667 4.5H20.6697M20.6697 4.5H20.6724M20.6697 4.5H20.6724M20.6724 4.5H20.6751M20.6724 4.5H20.6751M20.6751 4.5H20.6777M20.6751 4.5H20.6777M20.6777 4.5H20.6804M20.6777 4.5H20.6804M20.6804 4.5H20.6831M20.6804 4.5H20.6831M20.6831 4.5H20.6858M20.6831 4.5H20.6858M20.6858 4.5H20.6885M20.6858 4.5H20.6885M20.6885 4.5H20.6912M20.6885 4.5H20.6912M20.6912 4.5H20.6939M20.6912 4.5H20.6939M20.6939 4.5H20.6965M20.6939 4.5H20.6965M20.6965 4.5H20.6992M20.6965 4.5H20.6992M20.6992 4.5H20.7019M20.6992 4.5H20.7019M20.7019 4.5H20.7046M20.7019 4.5H20.7046M20.7046 4.5H20.7073M20.7046 4.5H20.7073M20.7073 4.5H20.71M20.7073 4.5H20.71M20.71 4.5H20.7126M20.71 4.5H20.7126M20.7126 4.5H20.7153M20.7126 4.5H20.7153M20.7153 4.5H20.718M20.7153 4.5H20.718M20.718 4.5H20.7207M20.718 4.5H20.7207M20.7207 4.5H20.7234M20.7207 4.5H20.7234M20.7234 4.5H20.7261M20.7234 4.5H20.7261M20.7261 4.5H20.7288M20.7261 4.5H20.7288M20.7288 4.5H20.7314M20.7288 4.5H20.7314M20.7314 4.5H20.7341M20.7314 4.5H20.7341M20.7341 4.5H20.7368M20.7341 4.5H20.7368M20.7368 4.5H20.7395M20.7368 4.5H20.7395M20.7395 4.5H20.7422M20.7395 4.5H20.7422M20.7422 4.5H20.7449M20.7422 4.5H20.7449M20.7449 4.5H20.7476M20.7449 4.5H20.7476M20.7476 4.5H20.7502M20.7476 4.5H20.7502M20.7502 4.5H20.7529M20.7502 4.5H20.7529M20.7529 4.5H20.7556M20.7529 4.5H20.7556M20.7556 4.5H20.7583M20.7556 4.5H20.7583M20.7583 4.5H20.761M20.7583 4.5H20.761M20.761 4.5H20.7637M20.761 4.5H20.7637M20.7637 4.5H20.7664M20.7637 4.5H20.7664M20.7664 4.5H20.769M20.7664 4.5H20.769M20.769 4.5H20.7717M20.769 4.5H20.7717M20.7717 4.5H20.7744M20.7717 4.5H20.7744M20.7744 4.5H20.7771M20.7744 4.5H20.7771M20.7771 4.5H20.7798M20.7771 4.5H20.7798M20.7798 4.5H20.7825M20.7798 4.5H20.7825M20.7825 4.5H20.7852M20.7825 4.5H20.7852M20.7852 4.5H20.7878M20.7852 4.5H20.7878M20.7878 4.5H20.7905M20.7878 4.5H20.7905M20.7905 4.5H20.7932M20.7905 4.5H20.7932M20.7932 4.5H20.7959M20.7932 4.5H20.7959M20.7959 4.5H20.7986M20.7959 4.5H20.7986M20.7986 4.5H20.8013M20.7986 4.5H20.8013M20.8013 4.5H20.804M20.8013 4.5H20.804M20.804 4.5H20.8066M20.804 4.5H20.8066M20.8066 4.5H20.8093M20.8066 4.5H20.8093M20.8093 4.5H20.812M20.8093 4.5H20.812M20.812 4.5H20.8147M20.812 4.5H20.8147M20.8147 4.5H20.8174M20.8147 4.5H20.8174M20.8174 4.5H20.8201M20.8174 4.5H20.8201M20.8201 4.5H20.8228M20.8201 4.5H20.8228M20.8228 4.5H20.8254M20.8228 4.5H20.8254M20.8254 4.5H20.8281M20.8254 4.5H20.8281M20.8281 4.5H20.8308M20.8281 4.5H20.8308M20.8308 4.5H20.8335M20.8308 4.5H20.8335M20.8335 4.5H20.8362M20.8335 4.5H20.8362M20.8362 4.5H20.8389M20.8362 4.5H20.8389M20.8389 4.5H20.8416M20.8389 4.5H20.8416M20.8416 4.5H20.8442M20.8416 4.5H20.8442M20.8442 4.5H20.8469M20.8442 4.5H20.8469M20.8469 4.5H20.8496M20.8469 4.5H20.8496M20.8496 4.5H20.8523M20.8496 4.5H20.8523M20.8523 4.5H20.855M20.8523 4.5H20.855M20.855 4.5H20.8577M20.855 4.5H20.8577M20.8577 4.5H20.8604M20.8577 4.5H20.8604M20.8604 4.5H20.863M20.8604 4.5H20.863M20.863 4.5H20.8657M20.863 4.5H20.8657M20.8657 4.5H20.8684M20.8657 4.5H20.8684M20.8684 4.5H20.8711M20.8684 4.5H20.8711M20.8711 4.5H20.8738M20.8711 4.5H20.8738M20.8738 4.5H20.8765M20.8738 4.5H20.8765M20.8765 4.5H20.8792M20.8765 4.5H20.8792M20.8792 4.5H20.8818M20.8792 4.5H20.8818M20.8818 4.5H20.8845M20.8818 4.5H20.8845M20.8845 4.5H20.8872M20.8845 4.5H20.8872M20.8872 4.5H20.8899M20.8872 4.5H20.8899M20.8899 4.5H20.8926M20.8899 4.5H20.8926M20.8926 4.5H20.8953M20.8926 4.5H20.8953M20.8953 4.5H20.898M20.8953 4.5H20.898M20.898 4.5H20.9006M20.898 4.5H20.9006M20.9006 4.5H20.9033M20.9006 4.5H20.9033M20.9033 4.5H20.906M20.9033 4.5H20.906M20.906 4.5H20.9087M20.906 4.5H20.9087M20.9087 4.5H20.9114M20.9087 4.5H20.9114M20.9114 4.5H20.9141M20.9114 4.5H20.9141M20.9141 4.5H20.9167M20.9141 4.5H20.9167M20.9167 4.5H20.9194M20.9167 4.5H20.9194M20.9194 4.5H20.9221M20.9194 4.5H20.9221M20.9221 4.5H20.9248M20.9221 4.5H20.9248M20.9248 4.5H20.9275M20.9248 4.5H20.9275M20.9275 4.5H20.9302M20.9275 4.5H20.9302M20.9302 4.5H20.9329M20.9302 4.5H20.9329M20.9329 4.5H20.9355M20.9329 4.5H20.9355M20.9355 4.5H20.9382M20.9355 4.5H20.9382M20.9382 4.5H20.9409M20.9382 4.5H20.9409M20.9409 4.5H20.9436M20.9409 4.5H20.9436M20.9436 4.5H20.9463M20.9436 4.5H20.9463M20.9463 4.5H20.949M20.9463 4.5H20.949M20.949 4.5H20.9517M20.949 4.5H20.9517M20.9517 4.5H20.9543M20.9517 4.5H20.9543M20.9543 4.5H20.957M20.9543 4.5H20.957M20.957 4.5H20.9597M20.957 4.5H20.9597M20.9597 4.5H20.9624M20.9597 4.5H20.9624M20.9624 4.5H20.9651M20.9624 4.5H20.9651M20.9651 4.5H20.9678M20.9651 4.5H20.9678M20.9678 4.5H20.9705M20.9678 4.5H20.9705M20.9705 4.5H20.9731M20.9705 4.5H20.9731M20.9731 4.5H20.9758M20.9731 4.5H20.9758M20.9758 4.5H20.9785M20.9758 4.5H20.9785M20.9785 4.5H20.9812M20.9785 4.5H20.9812M20.9812 4.5H20.9839M20.9812 4.5H20.9839M20.9839 4.5H20.9866M20.9839 4.5H20.9866M20.9866 4.5H20.9893M20.9866 4.5H20.9893M20.9893 4.5H20.9919M20.9893 4.5H20.9919M20.9919 4.5H20.9946M20.9919 4.5H20.9946M20.9946 4.5H20.9973M20.9946 4.5H20.9973M20.9973 4.5H21M20.9973 4.5H21M21 4.5H21.0027M21 4.5H21.0027M21.0027 4.5H21.0054M21.0027 4.5H21.0054M21.0054 4.5H21.0081M21.0054 4.5H21.0081M21.0081 4.5H21.0107M21.0081 4.5H21.0107M21.0107 4.5H21.0134M21.0107 4.5H21.0134M21.0134 4.5H21.0161M21.0134 4.5H21.0161M21.0161 4.5H21.0188M21.0161 4.5H21.0188M21.0188 4.5H21.0215M21.0188 4.5H21.0215M21.0215 4.5H21.0242M21.0215 4.5H21.0242M21.0242 4.5H21.0269M21.0242 4.5H21.0269M21.0269 4.5H21.0295M21.0269 4.5H21.0295M21.0295 4.5H21.0322M21.0295 4.5H21.0322M21.0322 4.5H21.0349M21.0322 4.5H21.0349M21.0349 4.5H21.0376M21.0349 4.5H21.0376M21.0376 4.5H21.0403M21.0376 4.5H21.0403M21.0403 4.5H21.043M21.0403 4.5H21.043M21.043 4.5H21.0457M21.043 4.5H21.0457M21.0457 4.5H21.0483M21.0457 4.5H21.0483M21.0483 4.5H21.051M21.0483 4.5H21.051M21.051 4.5H21.0537M21.051 4.5H21.0537M21.0537 4.5H21.0564M21.0537 4.5H21.0564M21.0564 4.5H21.0591M21.0564 4.5H21.0591M21.0591 4.5H21.0618M21.0591 4.5H21.0618M21.0618 4.5H21.0645M21.0618 4.5H21.0645M21.0645 4.5H21.0671M21.0645 4.5H21.0671M21.0671 4.5H21.0698M21.0671 4.5H21.0698M21.0698 4.5H21.0725M21.0698 4.5H21.0725M21.0725 4.5H21.0752M21.0725 4.5H21.0752M21.0752 4.5H21.0779M21.0752 4.5H21.0779M21.0779 4.5H21.0806M21.0779 4.5H21.0806M21.0806 4.5H21.0833M21.0806 4.5H21.0833M21.0833 4.5H21.0859M21.0833 4.5H21.0859M21.0859 4.5H21.0886M21.0859 4.5H21.0886M21.0886 4.5H21.0913M21.0886 4.5H21.0913M21.0913 4.5H21.094M21.0913 4.5H21.094M21.094 4.5H21.0967M21.094 4.5H21.0967M21.0967 4.5H21.0994M21.0967 4.5H21.0994M21.0994 4.5H21.102M21.0994 4.5H21.102M21.102 4.5H21.1047M21.102 4.5H21.1047M21.1047 4.5H21.1074M21.1047 4.5H21.1074M21.1074 4.5H21.1101M21.1074 4.5H21.1101M21.1101 4.5H21.1128M21.1101 4.5H21.1128M21.1128 4.5H21.1155M21.1128 4.5H21.1155M21.1155 4.5H21.1182M21.1155 4.5H21.1182M21.1182 4.5H21.1208M21.1182 4.5H21.1208M21.1208 4.5H21.1235M21.1208 4.5H21.1235M21.1235 4.5H21.1262M21.1235 4.5H21.1262M21.1262 4.5H21.1289M21.1262 4.5H21.1289M21.1289 4.5H21.1316M21.1289 4.5H21.1316M21.1316 4.5H21.1343M21.1316 4.5H21.1343M21.1343 4.5H21.137M21.1343 4.5H21.137M21.137 4.5H21.1396M21.137 4.5H21.1396M21.1396 4.5H21.1423M21.1396 4.5H21.1423M21.1423 4.5H21.145M21.1423 4.5H21.145M21.145 4.5H21.1477M21.145 4.5H21.1477M21.1477 4.5H21.1504M21.1477 4.5H21.1504M21.1504 4.5H21.1531M21.1504 4.5H21.1531M21.1531 4.5H21.1558M21.1531 4.5H21.1558M21.1558 4.5H21.1584M21.1558 4.5H21.1584M21.1584 4.5H21.1611M21.1584 4.5H21.1611M21.1611 4.5H21.1638M21.1611 4.5H21.1638M21.1638 4.5H21.1665M21.1638 4.5H21.1665M21.1665 4.5H21.1692M21.1665 4.5H21.1692M21.1692 4.5H21.1719M21.1692 4.5H21.1719M21.1719 4.5H21.1746M21.1719 4.5H21.1746M21.1746 4.5H21.1772M21.1746 4.5H21.1772M21.1772 4.5H21.1799M21.1772 4.5H21.1799M21.1799 4.5H21.1826M21.1799 4.5H21.1826M21.1826 4.5H21.1853M21.1826 4.5H21.1853M21.1853 4.5H21.188M21.1853 4.5H21.188M21.188 4.5H21.1907M21.188 4.5H21.1907M21.1907 4.5H21.1934M21.1907 4.5H21.1934M21.1934 4.5H21.196M21.1934 4.5H21.196M21.196 4.5H21.1987M21.196 4.5H21.1987M21.1987 4.5H21.2014M21.1987 4.5H21.2014M21.2014 4.5H21.2041M21.2014 4.5H21.2041M21.2041 4.5H21.2068M21.2041 4.5H21.2068M21.2068 4.5H21.2095M21.2068 4.5H21.2095M21.2095 4.5H21.2122M21.2095 4.5H21.2122M21.2122 4.5H21.2148M21.2122 4.5H21.2148M21.2148 4.5H21.2175M21.2148 4.5H21.2175M21.2175 4.5H21.2202M21.2175 4.5H21.2202M21.2202 4.5H21.2229M21.2202 4.5H21.2229M21.2229 4.5H21.2256M21.2229 4.5H21.2256M21.2256 4.5H21.2283M21.2256 4.5H21.2283M21.2283 4.5H21.231M21.2283 4.5H21.231M21.231 4.5H21.2336M21.231 4.5H21.2336M21.2336 4.5H21.2363M21.2336 4.5H21.2363M21.2363 4.5H21.239M21.2363 4.5H21.239M21.239 4.5H21.2417M21.239 4.5H21.2417M21.2417 4.5H21.2444M21.2417 4.5H21.2444M21.2444 4.5H21.2471M21.2444 4.5H21.2471M21.2471 4.5H21.2498M21.2471 4.5H21.2498M21.2498 4.5H21.2524M21.2498 4.5H21.2524M21.2524 4.5H21.2551M21.2524 4.5H21.2551M21.2551 4.5H21.2578M21.2551 4.5H21.2578M21.2578 4.5H21.2605M21.2578 4.5H21.2605M21.2605 4.5H21.2632M21.2605 4.5H21.2632M21.2632 4.5H21.2659M21.2632 4.5H21.2659M21.2659 4.5H21.2686M21.2659 4.5H21.2686M21.2686 4.5H21.2712M21.2686 4.5H21.2712M21.2712 4.5H21.2739M21.2712 4.5H21.2739M21.2739 4.5H21.2766M21.2739 4.5H21.2766M21.2766 4.5H21.2793M21.2766 4.5H21.2793M21.2793 4.5H21.282M21.2793 4.5H21.282M21.282 4.5H21.2847M21.282 4.5H21.2847M21.2847 4.5H21.2874M21.2847 4.5H21.2874M21.2874 4.5H21.29M21.2874 4.5H21.29M21.29 4.5H21.2927M21.29 4.5H21.2927M21.2927 4.5H21.2954M21.2927 4.5H21.2954M21.2954 4.5H21.2981M21.2954 4.5H21.2981M21.2981 4.5H21.3008M21.2981 4.5H21.3008M21.3008 4.5H21.3035M21.3008 4.5H21.3035M21.3035 4.5H21.3061M21.3035 4.5H21.3061M21.3061 4.5H21.3088M21.3061 4.5H21.3088M21.3088 4.5H21.3115M21.3088 4.5H21.3115M21.3115 4.5H21.3142M21.3115 4.5H21.3142M21.3142 4.5H21.3169M21.3142 4.5H21.3169M21.3169 4.5H21.3196M21.3169 4.5H21.3196M21.3196 4.5H21.3223M21.3196 4.5H21.3223M21.3223 4.5H21.3249M21.3223 4.5H21.3249M21.3249 4.5H21.3276M21.3249 4.5H21.3276M21.3276 4.5H21.3303M21.3276 4.5H21.3303M21.3303 4.5H21.333M21.3303 4.5H21.333M21.333 4.5H21.3357M21.333 4.5H21.3357M21.3357 4.5H21.3384M21.3357 4.5H21.3384M21.3384 4.5H21.3411M21.3384 4.5H21.3411M21.3411 4.5H21.3437M21.3411 4.5H21.3437M21.3437 4.5H21.3464M21.3437 4.5H21.3464M21.3464 4.5H21.3491M21.3464 4.5H21.3491M21.3491 4.5H21.3518M21.3491 4.5H21.3518M21.3518 4.5H21.3545M21.3518 4.5H21.3545M21.3545 4.5H21.3572M21.3545 4.5H21.3572M21.3572 4.5H21.3599M21.3572 4.5H21.3599M21.3599 4.5H21.3625M21.3599 4.5H21.3625M21.3625 4.5H21.3652M21.3625 4.5H21.3652M21.3652 4.5H21.3679M21.3652 4.5H21.3679M21.3679 4.5H21.3706M21.3679 4.5H21.3706M21.3706 4.5H21.3733M21.3706 4.5H21.3733M21.3733 4.5H21.376M21.3733 4.5H21.376M21.376 4.5H21.3787M21.376 4.5H21.3787M21.3787 4.5H21.3813M21.3787 4.5H21.3813M21.3813 4.5H21.384M21.3813 4.5H21.384M21.384 4.5H21.3867M21.384 4.5H21.3867M21.3867 4.5H21.3894M21.3867 4.5H21.3894M21.3894 4.5H21.3921M21.3894 4.5H21.3921M21.3921 4.5H21.3948M21.3921 4.5H21.3948M21.3948 4.5H21.3975M21.3948 4.5H21.3975M21.3975 4.5H21.4001M21.3975 4.5H21.4001M21.4001 4.5H21.4028M21.4001 4.5H21.4028M21.4028 4.5H21.4055M21.4028 4.5H21.4055M21.4055 4.5H21.4082M21.4055 4.5H21.4082M21.4082 4.5H21.4109M21.4082 4.5H21.4109M21.4109 4.5H21.4136M21.4109 4.5H21.4136M21.4136 4.5H21.4163M21.4136 4.5H21.4163M21.4163 4.5H21.4189M21.4163 4.5H21.4189M21.4189 4.5H21.4216M21.4189 4.5H21.4216M21.4216 4.5H21.4243M21.4216 4.5H21.4243M21.4243 4.5H21.427M21.4243 4.5H21.427M21.427 4.5H21.4297M21.427 4.5H21.4297M21.4297 4.5H21.4324M21.4297 4.5H21.4324M21.4324 4.5H21.4351M21.4324 4.5H21.4351M21.4351 4.5H21.4377M21.4351 4.5H21.4377M21.4377 4.5H21.4404M21.4377 4.5H21.4404M21.4404 4.5H21.4431M21.4404 4.5H21.4431M21.4431 4.5H21.4458M21.4431 4.5H21.4458M21.4458 4.5H21.4485M21.4458 4.5H21.4485M21.4485 4.5H21.4512M21.4485 4.5H21.4512M21.4512 4.5H21.4539M21.4512 4.5H21.4539M21.4539 4.5H21.4565M21.4539 4.5H21.4565M21.4565 4.5H21.4592M21.4565 4.5H21.4592M21.4592 4.5H21.4619M21.4592 4.5H21.4619M21.4619 4.5H21.4646M21.4619 4.5H21.4646M21.4646 4.5H21.4673M21.4646 4.5H21.4673M21.4673 4.5H21.47M21.4673 4.5H21.47M21.47 4.5H21.4727M21.47 4.5H21.4727M21.4727 4.5H21.4753M21.4727 4.5H21.4753M21.4753 4.5H21.478M21.4753 4.5H21.478M21.478 4.5H21.4807M21.478 4.5H21.4807M21.4807 4.5H21.4834M21.4807 4.5H21.4834M21.4834 4.5H21.4861M21.4834 4.5H21.4861M21.4861 4.5H21.4888M21.4861 4.5H21.4888M21.4888 4.5H21.4915M21.4888 4.5H21.4915M21.4915 4.5H21.4941M21.4915 4.5H21.4941M21.4941 4.5H21.4968M21.4941 4.5H21.4968M21.4968 4.5H21.4995M21.4968 4.5H21.4995M21.4995 4.5H21.5022M21.4995 4.5H21.5022M21.5022 4.5H21.5049M21.5022 4.5H21.5049M21.5049 4.5H21.5076M21.5049 4.5H21.5076M21.5076 4.5H21.5103M21.5076 4.5H21.5103M21.5103 4.5H21.5129M21.5103 4.5H21.5129M21.5129 4.5H21.5156M21.5129 4.5H21.5156M21.5156 4.5H21.5183M21.5156 4.5H21.5183M21.5183 4.5H21.521M21.5183 4.5H21.521M21.521 4.5H21.5237M21.521 4.5H21.5237M21.5237 4.5H21.5264M21.5237 4.5H21.5264M21.5264 4.5H21.529M21.5264 4.5H21.529M21.529 4.5H21.5317M21.529 4.5H21.5317M21.5317 4.5H21.5344M21.5317 4.5H21.5344M21.5344 4.5H21.5371M21.5344 4.5H21.5371M21.5371 4.5H21.5398M21.5371 4.5H21.5398M21.5398 4.5H21.5425M21.5398 4.5H21.5425M21.5425 4.5H21.5452M21.5425 4.5H21.5452M21.5452 4.5H21.5478M21.5452 4.5H21.5478M21.5478 4.5H21.5505M21.5478 4.5H21.5505M21.5505 4.5H21.5532M21.5505 4.5H21.5532M21.5532 4.5H21.5559M21.5532 4.5H21.5559M21.5559 4.5H21.5586M21.5559 4.5H21.5586M21.5586 4.5H21.5613M21.5586 4.5H21.5613M21.5613 4.5H21.564M21.5613 4.5H21.564M21.564 4.5H21.5666M21.564 4.5H21.5666M21.5666 4.5H21.5693M21.5666 4.5H21.5693M21.5693 4.5H21.572M21.5693 4.5H21.572M21.572 4.5H21.5747M21.572 4.5H21.5747M21.5747 4.5H21.5774M21.5747 4.5H21.5774M21.5774 4.5H21.5801M21.5774 4.5H21.5801M21.5801 4.5H21.5828M21.5801 4.5H21.5828M21.5828 4.5H21.5854M21.5828 4.5H21.5854M21.5854 4.5H21.5881M21.5854 4.5H21.5881M21.5881 4.5H21.5908M21.5881 4.5H21.5908M21.5908 4.5H21.5935M21.5908 4.5H21.5935M21.5935 4.5H21.5962M21.5935 4.5H21.5962M21.5962 4.5H21.5989M21.5962 4.5H21.5989M21.5989 4.5H21.6016M21.5989 4.5H21.6016M21.6016 4.5H21.6042M21.6016 4.5H21.6042M21.6042 4.5H21.6069M21.6042 4.5H21.6069M21.6069 4.5H21.6096M21.6069 4.5H21.6096M21.6096 4.5H21.6123M21.6096 4.5H21.6123M21.6123 4.5H21.615M21.6123 4.5H21.615M21.615 4.5H21.6177M21.615 4.5H21.6177M21.6177 4.5H21.6204M21.6177 4.5H21.6204M21.6204 4.5H21.623M21.6204 4.5H21.623M21.623 4.5H21.6257M21.623 4.5H21.6257M21.6257 4.5H21.6284M21.6257 4.5H21.6284M21.6284 4.5H21.6311M21.6284 4.5H21.6311M21.6311 4.5H21.6338M21.6311 4.5H21.6338M21.6338 4.5H21.6365M21.6338 4.5H21.6365M21.6365 4.5H21.6392M21.6365 4.5H21.6392M21.6392 4.5H21.6418M21.6392 4.5H21.6418M21.6418 4.5H21.6445M21.6418 4.5H21.6445M21.6445 4.5H21.6472M21.6445 4.5H21.6472M21.6472 4.5H21.6499M21.6472 4.5H21.6499M21.6499 4.5H21.6526M21.6499 4.5H21.6526M21.6526 4.5H21.6553M21.6526 4.5H21.6553M21.6553 4.5H21.6561M21.6553 4.5H21.6561M21.6561 4.5C24.6 4.87496 26.6749 6.38778 27.9324 9.07539C28.2304 9.80724 28.4193 10.561 28.5 11.338V11.3394V11.342V11.3447V11.3474V11.3501V11.3528V11.3555V11.3582V11.3608V11.3635V11.3662V11.3689V11.3716V11.3743V11.377V11.3796V11.3823V11.385V11.3877V11.3904V11.3931V11.3958V11.3984V11.4011V11.4038V11.4065V11.4092V11.4119V11.4146V11.4172V11.4199V11.4226V11.4253V11.428V11.4307V11.4334V11.436V11.4387V11.4414V11.4441V11.4468V11.4495V11.4522V11.4548V11.4575V11.4602V11.4629V11.4656V11.4683V11.4709V11.4736V11.4763V11.479V11.4817V11.4844V11.4871V11.4897V11.4924V11.4951V11.4978V11.5005V11.5032V11.5059V11.5085V11.5112V11.5139V11.5166V11.5193V11.522V11.5247V11.5273V11.53V11.5327V11.5354V11.5381V11.5408V11.5435V11.5461V11.5488V11.5515V11.5542V11.5569V11.5596V11.5623V11.5649V11.5676V11.5703V11.573V11.5757V11.5784V11.5811V11.5837V11.5864V11.5891V11.5918V11.5945V11.5972V11.5999V11.6025V11.6052V11.6079V11.6106V11.6133V11.616V11.6187V11.6213V11.624V11.6267V11.6294V11.6321V11.6348V11.6375V11.6401V11.6428V11.6455V11.6482V11.6509V11.6536V11.6563V11.6589V11.6616V11.6643V11.667V11.6697V11.6724V11.6751V11.6777V11.6804V11.6831V11.6858V11.6885V11.6912V11.6939V11.6965V11.6992V11.7019V11.7046V11.7073V11.71V11.7126V11.7153V11.718V11.7207V11.7234V11.7261V11.7288V11.7314V11.7341V11.7368V11.7395V11.7422V11.7449V11.7476V11.7502V11.7529V11.7556V11.7583V11.761V11.7637V11.7664V11.769V11.7717V11.7744V11.7771V11.7798V11.7825V11.7852V11.7878V11.7905V11.7932V11.7959V11.7986V11.8013V11.804V11.8066V11.8093V11.812V11.8147V11.8174V11.8201V11.8228V11.8254V11.8281V11.8308V11.8335V11.8362V11.8389V11.8416V11.8442V11.8469V11.8496V11.8523V11.855V11.8577V11.8604V11.863V11.8657V11.8684V11.8711V11.8738V11.8765V11.8792V11.8818V11.8845V11.8872V11.8899V11.8926V11.8953V11.898V11.9006V11.9033V11.906V11.9087V11.9114V11.9141V11.9167V11.9194V11.9221V11.9248V11.9275V11.9302V11.9329V11.9355V11.9382V11.9409V11.9436V11.9463V11.949V11.9517V11.9543V11.957V11.9597V11.9624V11.9651V11.9678V11.9705V11.9731V11.9758V11.9785V11.9812V11.9839V11.9866V11.9893V11.9919V11.9946V11.9973V12V12.0027V12.0054V12.0081V12.0107V12.0134V12.0161V12.0188V12.0215V12.0242V12.0269V12.0295V12.0322V12.0349V12.0376V12.0403V12.043V12.0457V12.0483V12.051V12.0537V12.0564V12.0591V12.0618V12.0645V12.0671V12.0698V12.0725V12.0752V12.0779V12.0806V12.0833V12.0859V12.0886V12.0913V12.094V12.0967V12.0994V12.102V12.1047V12.1074V12.1101V12.1128V12.1155V12.1182V12.1208V12.1235V12.1262V12.1289V12.1316V12.1343V12.137V12.1396V12.1423V12.145V12.1477V12.1504V12.1531V12.1558V12.1584V12.1611V12.1638V12.1665V12.1692V12.1719V12.1746V12.1772V12.1799V12.1826V12.1853V12.188V12.1907V12.1934V12.196V12.1987V12.2014V12.2041V12.2068V12.2095V12.2122V12.2148V12.2175V12.2202V12.2229V12.2256V12.2283V12.231V12.2336V12.2363V12.239V12.2417V12.2444V12.2471V12.2498V12.2524V12.2551V12.2578V12.2605V12.2632V12.2659V12.2686V12.2712V12.2739V12.2766V12.2793V12.282V12.2847V12.2874V12.29V12.2927V12.2954V12.2981V12.3008V12.3035V12.3061V12.3088V12.3115V12.3142V12.3169V12.3196V12.3223V12.3249V12.3276V12.3303V12.333V12.3357V12.3384V12.3411V12.3437V12.3464V12.3491V12.3518V12.3545V12.3572V12.3599V12.3625V12.3652V12.3679V12.3706V12.3733V12.376V12.3787V12.3813V12.384V12.3867V12.3894V12.3921V12.3948V12.3975V12.4001V12.4028V12.4055V12.4082V12.4109V12.4136V12.4163V12.4189V12.4216V12.4243V12.427V12.4297V12.4324V12.4351V12.4377V12.4404V12.4431V12.4458V12.4485V12.4512V12.4539V12.4565V12.4592V12.4619V12.4646V12.4673V12.47V12.4727V12.4753V12.478V12.4807V12.4834V12.4861V12.4888V12.4915V12.4941V12.4968V12.4995V12.5022V12.5049V12.5076V12.5103V12.5129V12.5156V12.5183V12.521V12.5237V12.5264V12.529V12.5317V12.5344V12.5371V12.5398V12.5425V12.5452V12.5478V12.5505V12.5532V12.5559V12.5586V12.5613V12.564V12.5666V12.5693V12.572V12.5747V12.5774V12.5801V12.5828V12.5854V12.5881V12.5908V12.5935V12.5962V12.5989V12.6016V12.6042V12.6069V12.6096V12.6123V12.615V12.6177V12.6204V12.623V12.6257V12.6284V12.6311V12.6338V12.6365V12.6392V12.6418V12.6445V12.6472V12.6499V12.6526V12.6553V12.6562C28.1251 15.6 26.6123 17.6748 23.9246 18.9324C23.1929 19.2303 22.4391 19.4193 21.662 19.5H21.6606H21.658H21.6553H21.6526H21.6499H21.6472H21.6445H21.6418H21.6392H21.6365H21.6338H21.6311H21.6284H21.6257H21.623H21.6204H21.6177H21.615H21.6123H21.6096H21.6069H21.6042H21.6016H21.5989H21.5962H21.5935H21.5908H21.5881H21.5854H21.5828H21.5801H21.5774H21.5747H21.572H21.5693H21.5666H21.564H21.5613H21.5586H21.5559H21.5532H21.5505H21.5478H21.5452H21.5425H21.5398H21.5371H21.5344H21.5317H21.529H21.5264H21.5237H21.521H21.5183H21.5156H21.5129H21.5103H21.5076H21.5049H21.5022H21.4995H21.4968H21.4941H21.4915H21.4888H21.4861H21.4834H21.4807H21.478H21.4753H21.4727H21.47H21.4673H21.4646H21.4619H21.4592H21.4565H21.4539H21.4512H21.4485H21.4458H21.4431H21.4404H21.4377H21.4351H21.4324H21.4297H21.427H21.4243H21.4216H21.4189H21.4163H21.4136H21.4109H21.4082H21.4055H21.4028H21.4001H21.3975H21.3948H21.3921H21.3894H21.3867H21.384H21.3813H21.3787H21.376H21.3733H21.3706H21.3679H21.3652H21.3625H21.3599H21.3572H21.3545H21.3518H21.3491H21.3464H21.3437H21.3411H21.3384H21.3357H21.333H21.3303H21.3276H21.3249H21.3223H21.3196H21.3169H21.3142H21.3115H21.3088H21.3061H21.3035H21.3008H21.2981H21.2954H21.2927H21.29H21.2874H21.2847H21.282H21.2793H21.2766H21.2739H21.2712H21.2686H21.2659H21.2632H21.2605H21.2578H21.2551H21.2524H21.2498H21.2471H21.2444H21.2417H21.239H21.2363H21.2336H21.231H21.2283H21.2256H21.2229H21.2202H21.2175H21.2148H21.2122H21.2095H21.2068H21.2041H21.2014H21.1987H21.196H21.1934H21.1907H21.188H21.1853H21.1826H21.1799H21.1772H21.1746H21.1719H21.1692H21.1665H21.1638H21.1611H21.1584H21.1558H21.1531H21.1504H21.1477H21.145H21.1423H21.1396H21.137H21.1343H21.1316H21.1289H21.1262H21.1235H21.1208H21.1182H21.1155H21.1128H21.1101H21.1074H21.1047H21.102H21.0994H21.0967H21.094H21.0913H21.0886H21.0859H21.0833H21.0806H21.0779H21.0752H21.0725H21.0698H21.0671H21.0645H21.0618H21.0591H21.0564H21.0537H21.051H21.0483H21.0457H21.043H21.0403H21.0376H21.0349H21.0322H21.0295H21.0269H21.0242H21.0215H21.0188H21.0161H21.0134H21.0107H21.0081H21.0054H21.0027H21H20.9973H20.9946H20.9919H20.9893H20.9866H20.9839H20.9812H20.9785H20.9758H20.9731H20.9705H20.9678H20.9651H20.9624H20.9597H20.957H20.9543H20.9517H20.949H20.9463H20.9436H20.9409H20.9382H20.9355H20.9329H20.9302H20.9275H20.9248H20.9221H20.9194H20.9167H20.9141H20.9114H20.9087H20.906H20.9033H20.9006H20.898H20.8953H20.8926H20.8899H20.8872H20.8845H20.8818H20.8792H20.8765H20.8738H20.8711H20.8684H20.8657H20.863H20.8604H20.8577H20.855H20.8523H20.8496H20.8469H20.8442H20.8416H20.8389H20.8362H20.8335H20.8308H20.8281H20.8254H20.8228H20.8201H20.8174H20.8147H20.812H20.8093H20.8066H20.804H20.8013H20.7986H20.7959H20.7932H20.7905H20.7878H20.7852H20.7825H20.7798H20.7771H20.7744H20.7717H20.769H20.7664H20.7637H20.761H20.7583H20.7556H20.7529H20.7502H20.7476H20.7449H20.7422H20.7395H20.7368H20.7341H20.7314H20.7288H20.7261H20.7234H20.7207H20.718H20.7153H20.7126H20.71H20.7073H20.7046H20.7019H20.6992H20.6965H20.6939H20.6912H20.6885H20.6858H20.6831H20.6804H20.6777H20.6751H20.6724H20.6697H20.667H20.6643H20.6616H20.6589H20.6563H20.6536H20.6509H20.6482H20.6455H20.6428H20.6401H20.6375H20.6348H20.6321H20.6294H20.6267H20.624H20.6213H20.6187H20.616H20.6133H20.6106H20.6079H20.6052H20.6025H20.5999H20.5972H20.5945H20.5918H20.5891H20.5864H20.5837H20.5811H20.5784H20.5757H20.573H20.5703H20.5676H20.5649H20.5623H20.5596H20.5569H20.5542H20.5515H20.5488H20.5461H20.5435H20.5408H20.5381H20.5354H20.5327H20.53H20.5273H20.5247H20.522H20.5193H20.5166H20.5139H20.5112H20.5085H20.5059H20.5032H20.5005H20.4978H20.4951H20.4924H20.4897H20.4871H20.4844H20.4817H20.479H20.4763H20.4736H20.4709H20.4683H20.4656H20.4629H20.4602H20.4575H20.4548H20.4522H20.4495H20.4468H20.4441H20.4414H20.4387H20.436H20.4334H20.4307H20.428H20.4253H20.4226H20.4199H20.4172H20.4146H20.4119H20.4092H20.4065H20.4038H20.4011H20.3984H20.3958H20.3931H20.3904H20.3877H20.385H20.3823H20.3796H20.377H20.3743H20.3716H20.3689H20.3662H20.3635H20.3608H20.3582H20.3555H20.3528H20.3501H20.3474H20.3447H20.3439C17.4 19.125 15.3252 17.6122 14.0676 14.9246C13.7696 14.1928 13.5807 13.439 13.5 12.662V12.6606V12.658V12.6553V12.6526V12.6499V12.6472V12.6445V12.6418V12.6392V12.6365V12.6338V12.6311V12.6284V12.6257V12.623V12.6204V12.6177V12.615V12.6123V12.6096V12.6069V12.6042V12.6016V12.5989V12.5962V12.5935V12.5908V12.5881V12.5854V12.5828V12.5801V12.5774V12.5747V12.572V12.5693V12.5666V12.564V12.5613V12.5586V12.5559V12.5532V12.5505V12.5478V12.5452V12.5425V12.5398V12.5371V12.5344V12.5317V12.529V12.5264V12.5237V12.521V12.5183V12.5156V12.5129V12.5103V12.5076V12.5049V12.5022V12.4995V12.4968V12.4941V12.4915V12.4888V12.4861V12.4834V12.4807V12.478V12.4753V12.4727V12.47V12.4673V12.4646V12.4619V12.4592V12.4565V12.4539V12.4512V12.4485V12.4458V12.4431V12.4404V12.4377V12.4351V12.4324V12.4297V12.427V12.4243V12.4216V12.4189V12.4163V12.4136V12.4109V12.4082V12.4055V12.4028V12.4001V12.3975V12.3948V12.3921V12.3894V12.3867V12.384V12.3813V12.3787V12.376V12.3733V12.3706V12.3679V12.3652V12.3625V12.3599V12.3572V12.3545V12.3518V12.3491V12.3464V12.3437V12.3411V12.3384V12.3357V12.333V12.3303V12.3276V12.3249V12.3223V12.3196V12.3169V12.3142V12.3115V12.3088V12.3061V12.3035V12.3008V12.2981V12.2954V12.2927V12.29V12.2874V12.2847V12.282V12.2793V12.2766V12.2739V12.2712V12.2686V12.2659V12.2632V12.2605V12.2578V12.2551V12.2524V12.2498V12.2471V12.2444V12.2417V12.239V12.2363V12.2336V12.231V12.2283V12.2256V12.2229V12.2202V12.2175V12.2148V12.2122V12.2095V12.2068V12.2041V12.2014V12.1987V12.196V12.1934V12.1907V12.188V12.1853V12.1826V12.1799V12.1772V12.1746V12.1719V12.1692V12.1665V12.1638V12.1611V12.1584V12.1558V12.1531V12.1504V12.1477V12.145V12.1423V12.1396V12.137V12.1343V12.1316V12.1289V12.1262V12.1235V12.1208V12.1182V12.1155V12.1128V12.1101V12.1074V12.1047V12.102V12.0994V12.0967V12.094V12.0913V12.0886V12.0859V12.0833V12.0806V12.0779V12.0752V12.0725V12.0698V12.0671V12.0645V12.0618V12.0591V12.0564V12.0537V12.051V12.0483V12.0457V12.043V12.0403V12.0376V12.0349V12.0322V12.0295V12.0269V12.0242V12.0215V12.0188V12.0161V12.0134V12.0107V12.0081V12.0054V12.0027V12V11.9973V11.9946V11.9919V11.9893V11.9866V11.9839V11.9812V11.9785V11.9758V11.9731V11.9705V11.9678V11.9651V11.9624V11.9597V11.957V11.9543V11.9517V11.949V11.9463V11.9436V11.9409V11.9382V11.9355V11.9329V11.9302V11.9275V11.9248V11.9221V11.9194V11.9167V11.9141V11.9114V11.9087V11.906V11.9033V11.9006V11.898V11.8953V11.8926V11.8899V11.8872V11.8845V11.8818V11.8792V11.8765V11.8738V11.8711V11.8684V11.8657V11.863V11.8604V11.8577V11.855V11.8523V11.8496V11.8469V11.8442V11.8416V11.8389V11.8362V11.8335V11.8308V11.8281V11.8254V11.8228V11.8201V11.8174V11.8147V11.812V11.8093V11.8066V11.804V11.8013V11.7986V11.7959V11.7932V11.7905V11.7878V11.7852V11.7825V11.7798V11.7771V11.7744V11.7717V11.769V11.7664V11.7637V11.761V11.7583V11.7556V11.7529V11.7502V11.7476V11.7449V11.7422V11.7395V11.7368V11.7341V11.7314V11.7288V11.7261V11.7234V11.7207V11.718V11.7153V11.7126V11.71V11.7073V11.7046V11.7019V11.6992V11.6965V11.6939V11.6912V11.6885V11.6858V11.6831V11.6804V11.6777V11.6751V11.6724V11.6697V11.667V11.6643V11.6616V11.6589V11.6563V11.6536V11.6509V11.6482V11.6455V11.6428V11.6401V11.6375V11.6348V11.6321V11.6294V11.6267V11.624V11.6213V11.6187V11.616V11.6133V11.6106V11.6079V11.6052V11.6025V11.5999V11.5972V11.5945V11.5918V11.5891V11.5864V11.5837V11.5811V11.5784V11.5757V11.573V11.5703V11.5676V11.5649V11.5623V11.5596V11.5569V11.5542V11.5515V11.5488V11.5461V11.5435V11.5408V11.5381V11.5354V11.5327V11.53V11.5273V11.5247V11.522V11.5193V11.5166V11.5139V11.5112V11.5085V11.5059V11.5032V11.5005V11.4978V11.4951V11.4924V11.4897V11.4871V11.4844V11.4817V11.479V11.4763V11.4736V11.4709V11.4683V11.4656V11.4629V11.4602V11.4575V11.4548V11.4522V11.4495V11.4468V11.4441V11.4414V11.4387V11.436V11.4334V11.4307V11.428V11.4253V11.4226V11.4199V11.4172V11.4146V11.4119V11.4092V11.4065V11.4038V11.4011V11.3984V11.3958V11.3931V11.3904V11.3877V11.385V11.3823V11.3796V11.377V11.3743V11.3716V11.3689V11.3662V11.3635V11.3608V11.3582V11.3555V11.3528V11.3501V11.3474V11.3447V11.3438L21.6561 4.5Z" stroke="black"/>
</svg>
