<svg width="69" height="51" viewBox="0 0 69 51" fill="none" xmlns="http://www.w3.org/2000/svg">
<path opacity="0.989" fill-rule="evenodd" clip-rule="evenodd" d="M33.5472 2.50049C34.2133 2.50049 34.8795 2.50049 35.5457 2.50049C40.1018 3.06754 43.3494 5.42946 45.2886 9.58624C45.7563 10.7303 46.0516 11.9112 46.1743 13.1291C46.1743 13.7953 46.1743 14.4615 46.1743 15.1277C45.6074 19.6837 43.2455 22.9313 39.0886 24.8706C37.9447 25.3382 36.7637 25.6335 35.5457 25.7563C34.8795 25.7563 34.2133 25.7563 33.5472 25.7563C28.9911 25.1893 25.7434 22.8273 23.8042 18.6705C23.3365 17.5265 23.0413 16.3456 22.9185 15.1277C22.9185 14.4615 22.9185 13.7953 22.9185 13.1291C23.4855 8.57312 25.8474 5.32547 30.0043 3.38621C31.1482 2.91854 32.3291 2.6233 33.5472 2.50049ZM34.1831 5.99794C36.1703 5.96568 37.5103 6.87411 38.2029 8.72324C38.6521 10.8602 37.9027 12.4121 35.9545 13.3789C33.9851 13.9893 32.4181 13.4518 31.2534 11.7665C30.3493 9.93113 30.6294 8.30354 32.0937 6.88366C32.7143 6.39895 33.4108 6.10371 34.1831 5.99794ZM31.8211 15.5819C33.638 15.5743 35.4549 15.5819 37.2717 15.6046C39.006 15.9156 40.1037 16.9225 40.5648 18.6251C40.8332 19.6527 40.5228 20.4476 39.6336 21.0098C37.131 22.7496 34.436 23.1281 31.5486 22.1453C30.4588 21.7413 29.5125 21.1281 28.7098 20.3057C28.4103 19.7567 28.3497 19.1813 28.5281 18.5797C29.017 16.9019 30.1147 15.9026 31.8211 15.5819Z" fill="#999999"/>
<path d="M17.9256 47.0581V38.3162H20.9535C21.3442 38.3162 21.7105 38.3814 22.0523 38.5116C22.4023 38.6418 22.7076 38.825 22.968 39.061C23.2285 39.2971 23.432 39.5819 23.5785 39.9157C23.7331 40.2412 23.8105 40.6035 23.8105 41.0023C23.8105 41.393 23.7331 41.7552 23.5785 42.0889C23.432 42.4145 23.2285 42.6953 22.968 42.9314C22.7076 43.1674 22.4023 43.3505 22.0523 43.4808C21.7105 43.611 21.3442 43.6761 20.9535 43.6761H19.3052V47.0581H17.9256ZM20.9901 42.3575C21.218 42.3575 21.4215 42.3209 21.6006 42.2476C21.7796 42.1662 21.9302 42.0604 22.0523 41.9302C22.1744 41.8 22.268 41.6535 22.3331 41.4907C22.3983 41.3279 22.4308 41.1651 22.4308 41.0023C22.4308 40.8314 22.3983 40.6645 22.3331 40.5017C22.268 40.3389 22.1744 40.1965 22.0523 40.0744C21.9302 39.9442 21.7796 39.8383 21.6006 39.7569C21.4215 39.6755 21.218 39.6348 20.9901 39.6348H19.3052V42.3575H20.9901ZM24.7887 41.0755H26.0707V41.979H26.144C26.2172 41.8244 26.3149 41.6819 26.437 41.5517C26.5672 41.4133 26.7097 41.2994 26.8643 41.2098C27.0271 41.1122 27.194 41.0389 27.3649 40.9901C27.544 40.9331 27.7149 40.9046 27.8777 40.9046C28.073 40.9046 28.2399 40.9209 28.3783 40.9535C28.5166 40.986 28.6428 41.0308 28.7568 41.0878L28.3661 42.3453C28.2765 42.3046 28.1748 42.2761 28.0608 42.2599C27.955 42.2354 27.8248 42.2232 27.6701 42.2232C27.4504 42.2232 27.2469 42.268 27.0597 42.3575C26.8806 42.4471 26.7219 42.5692 26.5835 42.7238C26.4451 42.8785 26.3352 43.0616 26.2538 43.2732C26.1806 43.4848 26.144 43.7087 26.144 43.9447V47.0581H24.7887V41.0755ZM31.9006 40.8802C32.3564 40.8802 32.7756 40.9616 33.1581 41.1244C33.5407 41.279 33.8703 41.4988 34.1471 41.7837C34.4238 42.0686 34.6395 42.4064 34.7942 42.7971C34.9488 43.1878 35.0261 43.611 35.0261 44.0668C35.0261 44.5226 34.9488 44.9459 34.7942 45.3366C34.6395 45.7273 34.4238 46.0651 34.1471 46.35C33.8703 46.6348 33.5407 46.8587 33.1581 47.0215C32.7756 47.1761 32.3564 47.2535 31.9006 47.2535C31.4447 47.2535 31.0256 47.1761 30.643 47.0215C30.2604 46.8587 29.9308 46.6348 29.654 46.35C29.3773 46.0651 29.1616 45.7273 29.007 45.3366C28.8523 44.9459 28.775 44.5226 28.775 44.0668C28.775 43.611 28.8523 43.1878 29.007 42.7971C29.1616 42.4064 29.3773 42.0686 29.654 41.7837C29.9308 41.4988 30.2604 41.279 30.643 41.1244C31.0256 40.9616 31.4447 40.8802 31.9006 40.8802ZM31.9006 45.9959C32.1285 45.9959 32.3482 45.9511 32.5599 45.8616C32.7715 45.7721 32.9587 45.6459 33.1215 45.4831C33.2924 45.3203 33.4267 45.1209 33.5244 44.8848C33.6221 44.6407 33.6709 44.368 33.6709 44.0668C33.6709 43.7657 33.6221 43.4971 33.5244 43.261C33.4267 43.0168 33.2924 42.8133 33.1215 42.6505C32.9587 42.4878 32.7715 42.3616 32.5599 42.2721C32.3482 42.1825 32.1285 42.1378 31.9006 42.1378C31.6726 42.1378 31.4529 42.1825 31.2413 42.2721C31.0296 42.3616 30.8383 42.4878 30.6674 42.6505C30.5046 42.8133 30.3744 43.0168 30.2767 43.261C30.179 43.4971 30.1302 43.7657 30.1302 44.0668C30.1302 44.368 30.179 44.6407 30.2767 44.8848C30.3744 45.1209 30.5046 45.3203 30.6674 45.4831C30.8383 45.6459 31.0296 45.7721 31.2413 45.8616C31.4529 45.9511 31.6726 45.9959 31.9006 45.9959ZM37.9406 47.0581H36.5854V42.2721H35.4866V41.0755H36.5854V40.3552C36.5854 40.0215 36.6383 39.7244 36.7441 39.4639C36.8499 39.1953 36.9964 38.9715 37.1837 38.7924C37.379 38.6052 37.6069 38.4628 37.8674 38.3651C38.136 38.2674 38.4249 38.2186 38.7342 38.2186C38.9214 38.2186 39.0802 38.2349 39.2104 38.2674C39.3488 38.2918 39.4709 38.3244 39.5767 38.3651L39.3691 39.6104C39.2959 39.5779 39.2145 39.5535 39.1249 39.5372C39.0435 39.5128 38.9337 39.5005 38.7953 39.5005C38.5592 39.5005 38.3557 39.5819 38.1848 39.7447C38.022 39.9075 37.9406 40.1436 37.9406 40.4529V41.0755H41.7744V47.0581H40.4191V42.2721H37.9406V47.0581ZM41.1028 40.0133C40.8424 40.0133 40.6226 39.9238 40.4435 39.7447C40.2726 39.5657 40.1871 39.35 40.1871 39.0976C40.1871 38.8453 40.2726 38.6296 40.4435 38.4505C40.6226 38.2715 40.8424 38.1819 41.1028 38.1819C41.3552 38.1819 41.5668 38.2715 41.7377 38.4505C41.9168 38.6296 42.0063 38.8453 42.0063 39.0976C42.0063 39.35 41.9168 39.5657 41.7377 39.7447C41.5668 39.9238 41.3552 40.0133 41.1028 40.0133ZM43.2338 47.0581V38.3162H44.5891V47.0581H43.2338ZM51.4357 45.6296C51.1834 46.0936 50.8253 46.4802 50.3613 46.7895C49.8974 47.0988 49.3276 47.2535 48.652 47.2535C48.2043 47.2535 47.7892 47.1761 47.4067 47.0215C47.0322 46.8587 46.7067 46.6348 46.4299 46.35C46.1532 46.0651 45.9375 45.7314 45.7828 45.3488C45.6282 44.9581 45.5508 44.5308 45.5508 44.0668C45.5508 43.6354 45.6241 43.2285 45.7706 42.8459C45.9171 42.4552 46.1206 42.1174 46.3811 41.8325C46.6497 41.5395 46.9712 41.3075 47.3456 41.1366C47.72 40.9657 48.1351 40.8802 48.591 40.8802C49.0549 40.8802 49.466 40.9575 49.8241 41.1122C50.1904 41.2668 50.4997 41.4825 50.752 41.7593C51.0043 42.036 51.1956 42.3697 51.3258 42.7604C51.4642 43.1511 51.5334 43.5785 51.5334 44.0424C51.5334 44.0831 51.5334 44.1197 51.5334 44.1523C51.5253 44.193 51.5212 44.2296 51.5212 44.2622C51.513 44.2947 51.509 44.3273 51.509 44.3598H46.9061C46.9305 44.6447 46.9997 44.893 47.1136 45.1046C47.2276 45.3162 47.366 45.4912 47.5287 45.6296C47.6997 45.768 47.8869 45.8697 48.0904 45.9348C48.2939 46 48.4933 46.0325 48.6886 46.0325C49.0793 46.0325 49.4008 45.9389 49.6532 45.7517C49.9055 45.5645 50.113 45.3325 50.2758 45.0558L51.4357 45.6296ZM50.1782 43.3221C50.1619 43.2 50.1212 43.0657 50.0561 42.9192C49.9991 42.7645 49.9055 42.6261 49.7753 42.504C49.6532 42.3738 49.4904 42.2639 49.2869 42.1744C49.0915 42.0849 48.8514 42.0401 48.5665 42.0401C48.1758 42.0401 47.838 42.1581 47.5532 42.3942C47.2764 42.6221 47.0892 42.9314 46.9915 43.3221H50.1782Z" fill="#999999"/>
</svg>
