<svg width="43" height="44" viewBox="0 0 43 44" fill="none" xmlns="http://www.w3.org/2000/svg">
<path d="M9.21692 36.1373C9.21692 36.7814 8.99483 37.3181 8.55066 37.7475C8.11388 38.1694 7.44392 38.3804 6.54076 38.3804H5.05277V41.6118H4.04226V33.872H6.54076C7.4143 33.872 8.07687 34.083 8.52845 34.505C8.98743 34.927 9.21692 35.4711 9.21692 36.1373ZM6.54076 37.5476C7.10338 37.5476 7.51795 37.4255 7.78445 37.1812C8.05096 36.9369 8.18421 36.5889 8.18421 36.1373C8.18421 35.1824 7.63639 34.7049 6.54076 34.7049H5.05277V37.5476H6.54076ZM11.9275 36.5149C12.1052 36.167 12.3569 35.8967 12.6826 35.7043C13.0158 35.5118 13.4192 35.4156 13.893 35.4156V36.4594H13.6265C12.4938 36.4594 11.9275 37.0738 11.9275 38.3027V41.6118H10.917V35.5266H11.9275V36.5149ZM18.1576 41.7118C17.5876 41.7118 17.0694 41.5822 16.603 41.3231C16.144 41.064 15.7813 40.6976 15.5148 40.2238C15.2557 39.7426 15.1261 39.1874 15.1261 38.5581C15.1261 37.9363 15.2594 37.3884 15.5259 36.9147C15.7998 36.4335 16.1699 36.067 16.6363 35.8153C17.1027 35.5562 17.6246 35.4267 18.202 35.4267C18.7795 35.4267 19.3014 35.5562 19.7678 35.8153C20.2341 36.067 20.6006 36.4298 20.8671 36.9035C21.141 37.3773 21.278 37.9289 21.278 38.5581C21.278 39.1874 21.1373 39.7426 20.856 40.2238C20.5821 40.6976 20.2082 41.064 19.7344 41.3231C19.2607 41.5822 18.735 41.7118 18.1576 41.7118ZM18.1576 40.8234C18.5204 40.8234 18.8609 40.7383 19.1792 40.568C19.4975 40.3977 19.753 40.1423 19.9454 39.8018C20.1453 39.4613 20.2452 39.0467 20.2452 38.5581C20.2452 38.0695 20.149 37.6549 19.9565 37.3144C19.7641 36.9739 19.5124 36.7222 19.2014 36.5593C18.8905 36.389 18.5537 36.3039 18.1909 36.3039C17.8208 36.3039 17.4802 36.389 17.1693 36.5593C16.8658 36.7222 16.6215 36.9739 16.4364 37.3144C16.2514 37.6549 16.1588 38.0695 16.1588 38.5581C16.1588 39.0541 16.2477 39.4724 16.4253 39.8129C16.6104 40.1534 16.8547 40.4088 17.1582 40.5791C17.4617 40.742 17.7949 40.8234 18.1576 40.8234ZM25.527 36.3594H24.25V41.6118H23.2395V36.3594H22.4511V35.5266H23.2395V35.0935C23.2395 34.4125 23.4135 33.9165 23.7614 33.6055C24.1168 33.2872 24.6831 33.128 25.4604 33.128V33.972C25.0162 33.972 24.7016 34.0608 24.5165 34.2385C24.3389 34.4088 24.25 34.6938 24.25 35.0935V35.5266H25.527V36.3594ZM27.6713 34.5383C27.4788 34.5383 27.316 34.4717 27.1827 34.3384C27.0495 34.2052 26.9828 34.0423 26.9828 33.8498C26.9828 33.6574 27.0495 33.4945 27.1827 33.3612C27.316 33.228 27.4788 33.1614 27.6713 33.1614C27.8564 33.1614 28.0119 33.228 28.1377 33.3612C28.271 33.4945 28.3376 33.6574 28.3376 33.8498C28.3376 34.0423 28.271 34.2052 28.1377 34.3384C28.0119 34.4717 27.8564 34.5383 27.6713 34.5383ZM28.1599 35.5266V41.6118H27.1494V35.5266H28.1599ZM31.3368 33.3946V41.6118H30.3263V33.3946H31.3368ZM39.0554 38.336C39.0554 38.5285 39.0443 38.7321 39.0221 38.9468H34.1584C34.1954 39.5464 34.399 40.0165 34.7691 40.357C35.1467 40.6902 35.6019 40.8567 36.135 40.8567C36.5717 40.8567 36.9345 40.7568 37.2232 40.5569C37.5193 40.3496 37.7266 40.0757 37.845 39.7352H38.9333C38.7704 40.32 38.4447 40.7975 37.9561 41.1676C37.4675 41.5304 36.8604 41.7118 36.135 41.7118C35.5575 41.7118 35.0393 41.5822 34.5803 41.3231C34.1288 41.064 33.7734 40.6976 33.5143 40.2238C33.2552 39.7426 33.1257 39.1874 33.1257 38.5581C33.1257 37.9289 33.2515 37.3773 33.5032 36.9035C33.7549 36.4298 34.1066 36.067 34.5581 35.8153C35.0171 35.5562 35.5427 35.4267 36.135 35.4267C36.7124 35.4267 37.2232 35.5525 37.6674 35.8042C38.1115 36.0559 38.4521 36.4038 38.689 36.848C38.9333 37.2848 39.0554 37.7808 39.0554 38.336ZM38.0116 38.125C38.0116 37.7401 37.9265 37.4106 37.7562 37.1367C37.5859 36.8554 37.3527 36.6444 37.0566 36.5038C36.7679 36.3557 36.4459 36.2817 36.0905 36.2817C35.5797 36.2817 35.143 36.4446 34.7802 36.7703C34.4249 37.096 34.2213 37.5476 34.1695 38.125H38.0116Z" fill="black"/>
<path opacity="0.989" d="M20.6614 5.49609L20.6533 4.99616L20.6233 4.99665L20.5935 5.00072L20.6614 5.49609ZM20.6614 5.49609C22.0286 5.47389 22.9505 6.09889 23.427 7.37109M20.6614 5.49609C20.13 5.56886 19.6509 5.77198 19.2239 6.10547M23.427 7.37109C23.7361 8.84134 23.2205 9.90906 21.8801 10.5742M23.427 7.37109L23.8952 7.19572L23.9085 7.23117L23.9163 7.26823L23.427 7.37109ZM19.2239 6.10547L18.9161 5.71141L18.895 5.72788L18.8758 5.74651L19.2239 6.10547ZM19.2239 6.10547C18.2164 7.08234 18.0237 8.20213 18.6458 9.46484M18.6458 9.46484L18.1972 9.6858L18.2135 9.71882L18.2344 9.74911L18.6458 9.46484ZM18.6458 9.46484C19.4471 10.6243 20.5252 10.9942 21.8801 10.5742M21.8801 10.5742L22.0281 11.0518L22.0665 11.0399L22.1024 11.0221L21.8801 10.5742ZM22.7864 12.1055L22.8746 11.6133L22.834 11.606L22.7926 11.6055L22.7864 12.1055ZM22.7864 12.1055C23.9796 12.3195 24.7348 13.0122 25.052 14.1836M22.7864 12.1055C21.5364 12.0898 20.2864 12.0846 19.0364 12.0898M25.052 14.1836C25.2367 14.8906 25.0231 15.4374 24.4114 15.8242C22.6896 17.0212 20.8354 17.2817 18.8489 16.6055M25.052 14.1836L25.5346 14.0529L25.5358 14.0572L25.052 14.1836ZM19.0364 12.0898L19.0343 11.5898L18.9888 11.59L18.944 11.5984L19.0364 12.0898ZM19.0364 12.0898C17.8623 12.3105 17.1071 12.998 16.7708 14.1523C16.648 14.5662 16.6897 14.9621 16.8958 15.3398M16.8958 15.3398L16.4568 15.5793L16.4898 15.6398L16.538 15.6891L16.8958 15.3398ZM16.8958 15.3398C17.4481 15.9056 18.0991 16.3275 18.8489 16.6055M18.8489 16.6055L18.675 17.0745L18.6878 17.0788L18.8489 16.6055ZM20.2266 3.58984H20.2239V3.08984L20.2266 3.58984ZM20.2266 3.58984H20.2292M20.2266 3.58984H20.2292M20.2292 3.58984H20.2319M20.2292 3.58984H20.2319M20.2319 3.58984H20.2346M20.2319 3.58984H20.2346M20.2346 3.58984H20.2373M20.2346 3.58984H20.2373M20.2373 3.58984H20.24M20.2373 3.58984H20.24M20.24 3.58984H20.2427M20.24 3.58984H20.2427M20.2427 3.58984H20.2454M20.2427 3.58984H20.2454M20.2454 3.58984H20.248M20.2454 3.58984H20.248M20.248 3.58984H20.2507M20.248 3.58984H20.2507M20.2507 3.58984H20.2534M20.2507 3.58984H20.2534M20.2534 3.58984H20.2561M20.2534 3.58984H20.2561M20.2561 3.58984H20.2588M20.2561 3.58984H20.2588M20.2588 3.58984H20.2615M20.2588 3.58984H20.2615M20.2615 3.58984H20.2642M20.2615 3.58984H20.2642M20.2642 3.58984H20.2668M20.2642 3.58984H20.2668M20.2668 3.58984H20.2695M20.2668 3.58984H20.2695M20.2695 3.58984H20.2722M20.2695 3.58984H20.2722M20.2722 3.58984H20.2749M20.2722 3.58984H20.2749M20.2749 3.58984H20.2776M20.2749 3.58984H20.2776M20.2776 3.58984H20.2803M20.2776 3.58984H20.2803M20.2803 3.58984H20.283M20.2803 3.58984H20.283M20.283 3.58984H20.2856M20.283 3.58984H20.2856M20.2856 3.58984H20.2883M20.2856 3.58984H20.2883M20.2883 3.58984H20.291M20.2883 3.58984H20.291M20.291 3.58984H20.2937M20.291 3.58984H20.2937M20.2937 3.58984H20.2964M20.2937 3.58984H20.2964M20.2964 3.58984H20.2991M20.2964 3.58984H20.2991M20.2991 3.58984H20.3018M20.2991 3.58984H20.3018M20.3018 3.58984H20.3044M20.3018 3.58984H20.3044M20.3044 3.58984H20.3071M20.3044 3.58984H20.3071M20.3071 3.58984H20.3098M20.3071 3.58984H20.3098M20.3098 3.58984H20.3125M20.3098 3.58984H20.3125M20.3125 3.58984H20.3152M20.3125 3.58984H20.3152M20.3152 3.58984H20.3179M20.3152 3.58984H20.3179M20.3179 3.58984H20.3206M20.3179 3.58984H20.3206M20.3206 3.58984H20.3232M20.3206 3.58984H20.3232M20.3232 3.58984H20.3259M20.3232 3.58984H20.3259M20.3259 3.58984H20.3286M20.3259 3.58984H20.3286M20.3286 3.58984H20.3313M20.3286 3.58984H20.3313M20.3313 3.58984H20.334M20.3313 3.58984H20.334M20.334 3.58984H20.3367M20.334 3.58984H20.3367M20.3367 3.58984H20.3394M20.3367 3.58984H20.3394M20.3394 3.58984H20.342M20.3394 3.58984H20.342M20.342 3.58984H20.3447M20.342 3.58984H20.3447M20.3447 3.58984H20.3474M20.3447 3.58984H20.3474M20.3474 3.58984H20.3501M20.3474 3.58984H20.3501M20.3501 3.58984H20.3528M20.3501 3.58984H20.3528M20.3528 3.58984H20.3555M20.3528 3.58984H20.3555M20.3555 3.58984H20.3582M20.3555 3.58984H20.3582M20.3582 3.58984H20.3608M20.3582 3.58984H20.3608M20.3608 3.58984H20.3635M20.3608 3.58984H20.3635M20.3635 3.58984H20.3662M20.3635 3.58984H20.3662M20.3662 3.58984H20.3689M20.3662 3.58984H20.3689M20.3689 3.58984H20.3716M20.3689 3.58984H20.3716M20.3716 3.58984H20.3743M20.3716 3.58984H20.3743M20.3743 3.58984H20.377M20.3743 3.58984H20.377M20.377 3.58984H20.3796M20.377 3.58984H20.3796M20.3796 3.58984H20.3823M20.3796 3.58984H20.3823M20.3823 3.58984H20.385M20.3823 3.58984H20.385M20.385 3.58984H20.3877M20.385 3.58984H20.3877M20.3877 3.58984H20.3904M20.3877 3.58984H20.3904M20.3904 3.58984H20.3931M20.3904 3.58984H20.3931M20.3931 3.58984H20.3958M20.3931 3.58984H20.3958M20.3958 3.58984H20.3984M20.3958 3.58984H20.3984M20.3984 3.58984H20.4011M20.3984 3.58984H20.4011M20.4011 3.58984H20.4038M20.4011 3.58984H20.4038M20.4038 3.58984H20.4065M20.4038 3.58984H20.4065M20.4065 3.58984H20.4092M20.4065 3.58984H20.4092M20.4092 3.58984H20.4119M20.4092 3.58984H20.4119M20.4119 3.58984H20.4146M20.4119 3.58984H20.4146M20.4146 3.58984H20.4172M20.4146 3.58984H20.4172M20.4172 3.58984H20.4199M20.4172 3.58984H20.4199M20.4199 3.58984H20.4226M20.4199 3.58984H20.4226M20.4226 3.58984H20.4253M20.4226 3.58984H20.4253M20.4253 3.58984H20.428M20.4253 3.58984H20.428M20.428 3.58984H20.4307M20.428 3.58984H20.4307M20.4307 3.58984H20.4334M20.4307 3.58984H20.4334M20.4334 3.58984H20.436M20.4334 3.58984H20.436M20.436 3.58984H20.4387M20.436 3.58984H20.4387M20.4387 3.58984H20.4414M20.4387 3.58984H20.4414M20.4414 3.58984H20.4441M20.4414 3.58984H20.4441M20.4441 3.58984H20.4468M20.4441 3.58984H20.4468M20.4468 3.58984H20.4495M20.4468 3.58984H20.4495M20.4495 3.58984H20.4522M20.4495 3.58984H20.4522M20.4522 3.58984H20.4548M20.4522 3.58984H20.4548M20.4548 3.58984H20.4575M20.4548 3.58984H20.4575M20.4575 3.58984H20.4602M20.4575 3.58984H20.4602M20.4602 3.58984H20.4629M20.4602 3.58984H20.4629M20.4629 3.58984H20.4656M20.4629 3.58984H20.4656M20.4656 3.58984H20.4683M20.4656 3.58984H20.4683M20.4683 3.58984H20.471M20.4683 3.58984H20.471M20.471 3.58984H20.4736M20.471 3.58984H20.4736M20.4736 3.58984H20.4763M20.4736 3.58984H20.4763M20.4763 3.58984H20.479M20.4763 3.58984H20.479M20.479 3.58984H20.4817M20.479 3.58984H20.4817M20.4817 3.58984H20.4844M20.4817 3.58984H20.4844M20.4844 3.58984H20.4871M20.4844 3.58984H20.4871M20.4871 3.58984H20.4897M20.4871 3.58984H20.4897M20.4897 3.58984H20.4924M20.4897 3.58984H20.4924M20.4924 3.58984H20.4951M20.4924 3.58984H20.4951M20.4951 3.58984H20.4978M20.4951 3.58984H20.4978M20.4978 3.58984H20.5005M20.4978 3.58984H20.5005M20.5005 3.58984H20.5032M20.5005 3.58984H20.5032M20.5032 3.58984H20.5059M20.5032 3.58984H20.5059M20.5059 3.58984H20.5085M20.5059 3.58984H20.5085M20.5085 3.58984H20.5112M20.5085 3.58984H20.5112M20.5112 3.58984H20.5139M20.5112 3.58984H20.5139M20.5139 3.58984H20.5166M20.5139 3.58984H20.5166M20.5166 3.58984H20.5193M20.5166 3.58984H20.5193M20.5193 3.58984H20.522M20.5193 3.58984H20.522M20.522 3.58984H20.5247M20.522 3.58984H20.5247M20.5247 3.58984H20.5273M20.5247 3.58984H20.5273M20.5273 3.58984H20.53M20.5273 3.58984H20.53M20.53 3.58984H20.5327M20.53 3.58984H20.5327M20.5327 3.58984H20.5354M20.5327 3.58984H20.5354M20.5354 3.58984H20.5381M20.5354 3.58984H20.5381M20.5381 3.58984H20.5408M20.5381 3.58984H20.5408M20.5408 3.58984H20.5435M20.5408 3.58984H20.5435M20.5435 3.58984H20.5461M20.5435 3.58984H20.5461M20.5461 3.58984H20.5488M20.5461 3.58984H20.5488M20.5488 3.58984H20.5515M20.5488 3.58984H20.5515M20.5515 3.58984H20.5542M20.5515 3.58984H20.5542M20.5542 3.58984H20.5569M20.5542 3.58984H20.5569M20.5569 3.58984H20.5596M20.5569 3.58984H20.5596M20.5596 3.58984H20.5623M20.5596 3.58984H20.5623M20.5623 3.58984H20.5649M20.5623 3.58984H20.5649M20.5649 3.58984H20.5676M20.5649 3.58984H20.5676M20.5676 3.58984H20.5703M20.5676 3.58984H20.5703M20.5703 3.58984H20.573M20.5703 3.58984H20.573M20.573 3.58984H20.5757M20.573 3.58984H20.5757M20.5757 3.58984H20.5784M20.5757 3.58984H20.5784M20.5784 3.58984H20.5811M20.5784 3.58984H20.5811M20.5811 3.58984H20.5837M20.5811 3.58984H20.5837M20.5837 3.58984H20.5864M20.5837 3.58984H20.5864M20.5864 3.58984H20.5891M20.5864 3.58984H20.5891M20.5891 3.58984H20.5918M20.5891 3.58984H20.5918M20.5918 3.58984H20.5945M20.5918 3.58984H20.5945M20.5945 3.58984H20.5972M20.5945 3.58984H20.5972M20.5972 3.58984H20.5999M20.5972 3.58984H20.5999M20.5999 3.58984H20.6025M20.5999 3.58984H20.6025M20.6025 3.58984H20.6052M20.6025 3.58984H20.6052M20.6052 3.58984H20.6079M20.6052 3.58984H20.6079M20.6079 3.58984H20.6106M20.6079 3.58984H20.6106M20.6106 3.58984H20.6133M20.6106 3.58984H20.6133M20.6133 3.58984H20.616M20.6133 3.58984H20.616M20.616 3.58984H20.6187M20.616 3.58984H20.6187M20.6187 3.58984H20.6213M20.6187 3.58984H20.6213M20.6213 3.58984H20.624M20.6213 3.58984H20.624M20.624 3.58984H20.6267M20.624 3.58984H20.6267M20.6267 3.58984H20.6294M20.6267 3.58984H20.6294M20.6294 3.58984H20.6321M20.6294 3.58984H20.6321M20.6321 3.58984H20.6348M20.6321 3.58984H20.6348M20.6348 3.58984H20.6375M20.6348 3.58984H20.6375M20.6375 3.58984H20.6401M20.6375 3.58984H20.6401M20.6401 3.58984H20.6428M20.6401 3.58984H20.6428M20.6428 3.58984H20.6455M20.6428 3.58984H20.6455M20.6455 3.58984H20.6482M20.6455 3.58984H20.6482M20.6482 3.58984H20.6509M20.6482 3.58984H20.6509M20.6509 3.58984H20.6536M20.6509 3.58984H20.6536M20.6536 3.58984H20.6563M20.6536 3.58984H20.6563M20.6563 3.58984H20.6589M20.6563 3.58984H20.6589M20.6589 3.58984H20.6616M20.6589 3.58984H20.6616M20.6616 3.58984H20.6643M20.6616 3.58984H20.6643M20.6643 3.58984H20.667M20.6643 3.58984H20.667M20.667 3.58984H20.6697M20.667 3.58984H20.6697M20.6697 3.58984H20.6724M20.6697 3.58984H20.6724M20.6724 3.58984H20.6751M20.6724 3.58984H20.6751M20.6751 3.58984H20.6777M20.6751 3.58984H20.6777M20.6777 3.58984H20.6804M20.6777 3.58984H20.6804M20.6804 3.58984H20.6831M20.6804 3.58984H20.6831M20.6831 3.58984H20.6858M20.6831 3.58984H20.6858M20.6858 3.58984H20.6885M20.6858 3.58984H20.6885M20.6885 3.58984H20.6912M20.6885 3.58984H20.6912M20.6912 3.58984H20.6939M20.6912 3.58984H20.6939M20.6939 3.58984H20.6965M20.6939 3.58984H20.6965M20.6965 3.58984H20.6992M20.6965 3.58984H20.6992M20.6992 3.58984H20.7019M20.6992 3.58984H20.7019M20.7019 3.58984H20.7046M20.7019 3.58984H20.7046M20.7046 3.58984H20.7073M20.7046 3.58984H20.7073M20.7073 3.58984H20.71M20.7073 3.58984H20.71M20.71 3.58984H20.7126M20.71 3.58984H20.7126M20.7126 3.58984H20.7153M20.7126 3.58984H20.7153M20.7153 3.58984H20.718M20.7153 3.58984H20.718M20.718 3.58984H20.7207M20.718 3.58984H20.7207M20.7207 3.58984H20.7234M20.7207 3.58984H20.7234M20.7234 3.58984H20.7261M20.7234 3.58984H20.7261M20.7261 3.58984H20.7288M20.7261 3.58984H20.7288M20.7288 3.58984H20.7314M20.7288 3.58984H20.7314M20.7314 3.58984H20.7341M20.7314 3.58984H20.7341M20.7341 3.58984H20.7368M20.7341 3.58984H20.7368M20.7368 3.58984H20.7395M20.7368 3.58984H20.7395M20.7395 3.58984H20.7422M20.7395 3.58984H20.7422M20.7422 3.58984H20.7449M20.7422 3.58984H20.7449M20.7449 3.58984H20.7476M20.7449 3.58984H20.7476M20.7476 3.58984H20.7502M20.7476 3.58984H20.7502M20.7502 3.58984H20.7529M20.7502 3.58984H20.7529M20.7529 3.58984H20.7556M20.7529 3.58984H20.7556M20.7556 3.58984H20.7583M20.7556 3.58984H20.7583M20.7583 3.58984H20.761M20.7583 3.58984H20.761M20.761 3.58984H20.7637M20.761 3.58984H20.7637M20.7637 3.58984H20.7664M20.7637 3.58984H20.7664M20.7664 3.58984H20.769M20.7664 3.58984H20.769M20.769 3.58984H20.7717M20.769 3.58984H20.7717M20.7717 3.58984H20.7744M20.7717 3.58984H20.7744M20.7744 3.58984H20.7771M20.7744 3.58984H20.7771M20.7771 3.58984H20.7798M20.7771 3.58984H20.7798M20.7798 3.58984H20.7825M20.7798 3.58984H20.7825M20.7825 3.58984H20.7852M20.7825 3.58984H20.7852M20.7852 3.58984H20.7878M20.7852 3.58984H20.7878M20.7878 3.58984H20.7905M20.7878 3.58984H20.7905M20.7905 3.58984H20.7932M20.7905 3.58984H20.7932M20.7932 3.58984H20.7959M20.7932 3.58984H20.7959M20.7959 3.58984H20.7986M20.7959 3.58984H20.7986M20.7986 3.58984H20.8013M20.7986 3.58984H20.8013M20.8013 3.58984H20.804M20.8013 3.58984H20.804M20.804 3.58984H20.8066M20.804 3.58984H20.8066M20.8066 3.58984H20.8093M20.8066 3.58984H20.8093M20.8093 3.58984H20.812M20.8093 3.58984H20.812M20.812 3.58984H20.8147M20.812 3.58984H20.8147M20.8147 3.58984H20.8174M20.8147 3.58984H20.8174M20.8174 3.58984H20.8201M20.8174 3.58984H20.8201M20.8201 3.58984H20.8228M20.8201 3.58984H20.8228M20.8228 3.58984H20.8254M20.8228 3.58984H20.8254M20.8254 3.58984H20.8281M20.8254 3.58984H20.8281M20.8281 3.58984H20.8308M20.8281 3.58984H20.8308M20.8308 3.58984H20.8335M20.8308 3.58984H20.8335M20.8335 3.58984H20.8362M20.8335 3.58984H20.8362M20.8362 3.58984H20.8389M20.8362 3.58984H20.8389M20.8389 3.58984H20.8416M20.8389 3.58984H20.8416M20.8416 3.58984H20.8442M20.8416 3.58984H20.8442M20.8442 3.58984H20.8469M20.8442 3.58984H20.8469M20.8469 3.58984H20.8496M20.8469 3.58984H20.8496M20.8496 3.58984H20.8523M20.8496 3.58984H20.8523M20.8523 3.58984H20.855M20.8523 3.58984H20.855M20.855 3.58984H20.8577M20.855 3.58984H20.8577M20.8577 3.58984H20.8604M20.8577 3.58984H20.8604M20.8604 3.58984H20.863M20.8604 3.58984H20.863M20.863 3.58984H20.8657M20.863 3.58984H20.8657M20.8657 3.58984H20.8684M20.8657 3.58984H20.8684M20.8684 3.58984H20.8711M20.8684 3.58984H20.8711M20.8711 3.58984H20.8738M20.8711 3.58984H20.8738M20.8738 3.58984H20.8765M20.8738 3.58984H20.8765M20.8765 3.58984H20.8792M20.8765 3.58984H20.8792M20.8792 3.58984H20.8818M20.8792 3.58984H20.8818M20.8818 3.58984H20.8845M20.8818 3.58984H20.8845M20.8845 3.58984H20.8872M20.8845 3.58984H20.8872M20.8872 3.58984H20.8899M20.8872 3.58984H20.8899M20.8899 3.58984H20.8926M20.8899 3.58984H20.8926M20.8926 3.58984H20.8953M20.8926 3.58984H20.8953M20.8953 3.58984H20.8979M20.8953 3.58984H20.8979M20.8979 3.58984H20.9006M20.8979 3.58984H20.9006M20.9006 3.58984H20.9033M20.9006 3.58984H20.9033M20.9033 3.58984H20.906M20.9033 3.58984H20.906M20.906 3.58984H20.9087M20.906 3.58984H20.9087M20.9087 3.58984H20.9114M20.9087 3.58984H20.9114M20.9114 3.58984H20.9141M20.9114 3.58984H20.9141M20.9141 3.58984H20.9167M20.9141 3.58984H20.9167M20.9167 3.58984H20.9194M20.9167 3.58984H20.9194M20.9194 3.58984H20.9221M20.9194 3.58984H20.9221M20.9221 3.58984H20.9248M20.9221 3.58984H20.9248M20.9248 3.58984H20.9275M20.9248 3.58984H20.9275M20.9275 3.58984H20.9302M20.9275 3.58984H20.9302M20.9302 3.58984H20.9329M20.9302 3.58984H20.9329M20.9329 3.58984H20.9355M20.9329 3.58984H20.9355M20.9355 3.58984H20.9382M20.9355 3.58984H20.9382M20.9382 3.58984H20.9409M20.9382 3.58984H20.9409M20.9409 3.58984H20.9436M20.9409 3.58984H20.9436M20.9436 3.58984H20.9463M20.9436 3.58984H20.9463M20.9463 3.58984H20.949M20.9463 3.58984H20.949M20.949 3.58984H20.9517M20.949 3.58984H20.9517M20.9517 3.58984H20.9543M20.9517 3.58984H20.9543M20.9543 3.58984H20.957M20.9543 3.58984H20.957M20.957 3.58984H20.9597M20.957 3.58984H20.9597M20.9597 3.58984H20.9624M20.9597 3.58984H20.9624M20.9624 3.58984H20.9651M20.9624 3.58984H20.9651M20.9651 3.58984H20.9678M20.9651 3.58984H20.9678M20.9678 3.58984H20.9705M20.9678 3.58984H20.9705M20.9705 3.58984H20.9731M20.9705 3.58984H20.9731M20.9731 3.58984H20.9758M20.9731 3.58984H20.9758M20.9758 3.58984H20.9785M20.9758 3.58984H20.9785M20.9785 3.58984H20.9812M20.9785 3.58984H20.9812M20.9812 3.58984H20.9839M20.9812 3.58984H20.9839M20.9839 3.58984H20.9866M20.9839 3.58984H20.9866M20.9866 3.58984H20.9893M20.9866 3.58984H20.9893M20.9893 3.58984H20.9919M20.9893 3.58984H20.9919M20.9919 3.58984H20.9946M20.9919 3.58984H20.9946M20.9946 3.58984H20.9973M20.9946 3.58984H20.9973M20.9973 3.58984H21M20.9973 3.58984H21M21 3.58984H21.0027M21 3.58984H21.0027M21.0027 3.58984H21.0054M21.0027 3.58984H21.0054M21.0054 3.58984H21.0081M21.0054 3.58984H21.0081M21.0081 3.58984H21.0107M21.0081 3.58984H21.0107M21.0107 3.58984H21.0134M21.0107 3.58984H21.0134M21.0134 3.58984H21.0161M21.0134 3.58984H21.0161M21.0161 3.58984H21.0188M21.0161 3.58984H21.0188M21.0188 3.58984H21.0215M21.0188 3.58984H21.0215M21.0215 3.58984H21.0242M21.0215 3.58984H21.0242M21.0242 3.58984H21.0269M21.0242 3.58984H21.0269M21.0269 3.58984H21.0295M21.0269 3.58984H21.0295M21.0295 3.58984H21.0322M21.0295 3.58984H21.0322M21.0322 3.58984H21.0349M21.0322 3.58984H21.0349M21.0349 3.58984H21.0376M21.0349 3.58984H21.0376M21.0376 3.58984H21.0403M21.0376 3.58984H21.0403M21.0403 3.58984H21.043M21.0403 3.58984H21.043M21.043 3.58984H21.0457M21.043 3.58984H21.0457M21.0457 3.58984H21.0483M21.0457 3.58984H21.0483M21.0483 3.58984H21.051M21.0483 3.58984H21.051M21.051 3.58984H21.0537M21.051 3.58984H21.0537M21.0537 3.58984H21.0564M21.0537 3.58984H21.0564M21.0564 3.58984H21.0591M21.0564 3.58984H21.0591M21.0591 3.58984H21.0618M21.0591 3.58984H21.0618M21.0618 3.58984H21.0645M21.0618 3.58984H21.0645M21.0645 3.58984H21.0671M21.0645 3.58984H21.0671M21.0671 3.58984H21.0698M21.0671 3.58984H21.0698M21.0698 3.58984H21.0725M21.0698 3.58984H21.0725M21.0725 3.58984H21.0752M21.0725 3.58984H21.0752M21.0752 3.58984H21.0779M21.0752 3.58984H21.0779M21.0779 3.58984H21.0806M21.0779 3.58984H21.0806M21.0806 3.58984H21.0833M21.0806 3.58984H21.0833M21.0833 3.58984H21.0859M21.0833 3.58984H21.0859M21.0859 3.58984H21.0886M21.0859 3.58984H21.0886M21.0886 3.58984H21.0913M21.0886 3.58984H21.0913M21.0913 3.58984H21.094M21.0913 3.58984H21.094M21.094 3.58984H21.0967M21.094 3.58984H21.0967M21.0967 3.58984H21.0994M21.0967 3.58984H21.0994M21.0994 3.58984H21.102M21.0994 3.58984H21.102M21.102 3.58984H21.1047M21.102 3.58984H21.1047M21.1047 3.58984H21.1074M21.1047 3.58984H21.1074M21.1074 3.58984H21.1101M21.1074 3.58984H21.1101M21.1101 3.58984H21.1128M21.1101 3.58984H21.1128M21.1128 3.58984H21.1155M21.1128 3.58984H21.1155M21.1155 3.58984H21.1182M21.1155 3.58984H21.1182M21.1182 3.58984H21.1208M21.1182 3.58984H21.1208M21.1208 3.58984H21.1235M21.1208 3.58984H21.1235M21.1235 3.58984H21.1262M21.1235 3.58984H21.1262M21.1262 3.58984H21.1289M21.1262 3.58984H21.1289M21.1289 3.58984H21.1316M21.1289 3.58984H21.1316M21.1316 3.58984H21.1343M21.1316 3.58984H21.1343M21.1343 3.58984H21.137M21.1343 3.58984H21.137M21.137 3.58984H21.1396M21.137 3.58984H21.1396M21.1396 3.58984H21.1423M21.1396 3.58984H21.1423M21.1423 3.58984H21.145M21.1423 3.58984H21.145M21.145 3.58984H21.1477M21.145 3.58984H21.1477M21.1477 3.58984H21.1504M21.1477 3.58984H21.1504M21.1504 3.58984H21.1531M21.1504 3.58984H21.1531M21.1531 3.58984H21.1558M21.1531 3.58984H21.1558M21.1558 3.58984H21.1584M21.1558 3.58984H21.1584M21.1584 3.58984H21.1611M21.1584 3.58984H21.1611M21.1611 3.58984H21.1638M21.1611 3.58984H21.1638M21.1638 3.58984H21.1665M21.1638 3.58984H21.1665M21.1665 3.58984H21.1692M21.1665 3.58984H21.1692M21.1692 3.58984H21.1719M21.1692 3.58984H21.1719M21.1719 3.58984H21.1746M21.1719 3.58984H21.1746M21.1746 3.58984H21.1772M21.1746 3.58984H21.1772M21.1772 3.58984H21.1799M21.1772 3.58984H21.1799M21.1799 3.58984H21.1826M21.1799 3.58984H21.1826M21.1826 3.58984H21.1853M21.1826 3.58984H21.1853M21.1853 3.58984H21.188M21.1853 3.58984H21.188M21.188 3.58984H21.1907M21.188 3.58984H21.1907M21.1907 3.58984H21.1934M21.1907 3.58984H21.1934M21.1934 3.58984H21.196M21.1934 3.58984H21.196M21.196 3.58984H21.1987M21.196 3.58984H21.1987M21.1987 3.58984H21.2014M21.1987 3.58984H21.2014M21.2014 3.58984H21.2041M21.2014 3.58984H21.2041M21.2041 3.58984H21.2068M21.2041 3.58984H21.2068M21.2068 3.58984H21.2095M21.2068 3.58984H21.2095M21.2095 3.58984H21.2122M21.2095 3.58984H21.2122M21.2122 3.58984H21.2148M21.2122 3.58984H21.2148M21.2148 3.58984H21.2175M21.2148 3.58984H21.2175M21.2175 3.58984H21.2202M21.2175 3.58984H21.2202M21.2202 3.58984H21.2229M21.2202 3.58984H21.2229M21.2229 3.58984H21.2256M21.2229 3.58984H21.2256M21.2256 3.58984H21.2283M21.2256 3.58984H21.2283M21.2283 3.58984H21.231M21.2283 3.58984H21.231M21.231 3.58984H21.2336M21.231 3.58984H21.2336M21.2336 3.58984H21.2363M21.2336 3.58984H21.2363M21.2363 3.58984H21.239M21.2363 3.58984H21.239M21.239 3.58984H21.2417M21.239 3.58984H21.2417M21.2417 3.58984H21.2444M21.2417 3.58984H21.2444M21.2444 3.58984H21.2471M21.2444 3.58984H21.2471M21.2471 3.58984H21.2498M21.2471 3.58984H21.2498M21.2498 3.58984H21.2524M21.2498 3.58984H21.2524M21.2524 3.58984H21.2551M21.2524 3.58984H21.2551M21.2551 3.58984H21.2578M21.2551 3.58984H21.2578M21.2578 3.58984H21.2605M21.2578 3.58984H21.2605M21.2605 3.58984H21.2632M21.2605 3.58984H21.2632M21.2632 3.58984H21.2659M21.2632 3.58984H21.2659M21.2659 3.58984H21.2686M21.2659 3.58984H21.2686M21.2686 3.58984H21.2712M21.2686 3.58984H21.2712M21.2712 3.58984H21.2739M21.2712 3.58984H21.2739M21.2739 3.58984H21.2766M21.2739 3.58984H21.2766M21.2766 3.58984H21.2793M21.2766 3.58984H21.2793M21.2793 3.58984H21.282M21.2793 3.58984H21.282M21.282 3.58984H21.2847M21.282 3.58984H21.2847M21.2847 3.58984H21.2874M21.2847 3.58984H21.2874M21.2874 3.58984H21.29M21.2874 3.58984H21.29M21.29 3.58984H21.2927M21.29 3.58984H21.2927M21.2927 3.58984H21.2954M21.2927 3.58984H21.2954M21.2954 3.58984H21.2981M21.2954 3.58984H21.2981M21.2981 3.58984H21.3008M21.2981 3.58984H21.3008M21.3008 3.58984H21.3035M21.3008 3.58984H21.3035M21.3035 3.58984H21.3061M21.3035 3.58984H21.3061M21.3061 3.58984H21.3088M21.3061 3.58984H21.3088M21.3088 3.58984H21.3115M21.3088 3.58984H21.3115M21.3115 3.58984H21.3142M21.3115 3.58984H21.3142M21.3142 3.58984H21.3169M21.3142 3.58984H21.3169M21.3169 3.58984H21.3196M21.3169 3.58984H21.3196M21.3196 3.58984H21.3223M21.3196 3.58984H21.3223M21.3223 3.58984H21.3249M21.3223 3.58984H21.3249M21.3249 3.58984H21.3276M21.3249 3.58984H21.3276M21.3276 3.58984H21.3303M21.3276 3.58984H21.3303M21.3303 3.58984H21.333M21.3303 3.58984H21.333M21.333 3.58984H21.3357M21.333 3.58984H21.3357M21.3357 3.58984H21.3384M21.3357 3.58984H21.3384M21.3384 3.58984H21.3411M21.3384 3.58984H21.3411M21.3411 3.58984H21.3437M21.3411 3.58984H21.3437M21.3437 3.58984H21.3464M21.3437 3.58984H21.3464M21.3464 3.58984H21.3491M21.3464 3.58984H21.3491M21.3491 3.58984H21.3518M21.3491 3.58984H21.3518M21.3518 3.58984H21.3545M21.3518 3.58984H21.3545M21.3545 3.58984H21.3572M21.3545 3.58984H21.3572M21.3572 3.58984H21.3599M21.3572 3.58984H21.3599M21.3599 3.58984H21.3625M21.3599 3.58984H21.3625M21.3625 3.58984H21.3652M21.3625 3.58984H21.3652M21.3652 3.58984H21.3679M21.3652 3.58984H21.3679M21.3679 3.58984H21.3706M21.3679 3.58984H21.3706M21.3706 3.58984H21.3733M21.3706 3.58984H21.3733M21.3733 3.58984H21.376M21.3733 3.58984H21.376M21.376 3.58984H21.3787M21.376 3.58984H21.3787M21.3787 3.58984H21.3813M21.3787 3.58984H21.3813M21.3813 3.58984H21.384M21.3813 3.58984H21.384M21.384 3.58984H21.3867M21.384 3.58984H21.3867M21.3867 3.58984H21.3894M21.3867 3.58984H21.3894M21.3894 3.58984H21.3921M21.3894 3.58984H21.3921M21.3921 3.58984H21.3948M21.3921 3.58984H21.3948M21.3948 3.58984H21.3975M21.3948 3.58984H21.3975M21.3975 3.58984H21.4001M21.3975 3.58984H21.4001M21.4001 3.58984H21.4028M21.4001 3.58984H21.4028M21.4028 3.58984H21.4055M21.4028 3.58984H21.4055M21.4055 3.58984H21.4082M21.4055 3.58984H21.4082M21.4082 3.58984H21.4109M21.4082 3.58984H21.4109M21.4109 3.58984H21.4136M21.4109 3.58984H21.4136M21.4136 3.58984H21.4163M21.4136 3.58984H21.4163M21.4163 3.58984H21.4189M21.4163 3.58984H21.4189M21.4189 3.58984H21.4216M21.4189 3.58984H21.4216M21.4216 3.58984H21.4243M21.4216 3.58984H21.4243M21.4243 3.58984H21.427M21.4243 3.58984H21.427M21.427 3.58984H21.4297M21.427 3.58984H21.4297M21.4297 3.58984H21.4324M21.4297 3.58984H21.4324M21.4324 3.58984H21.4351M21.4324 3.58984H21.4351M21.4351 3.58984H21.4377M21.4351 3.58984H21.4377M21.4377 3.58984H21.4404M21.4377 3.58984H21.4404M21.4404 3.58984H21.4431M21.4404 3.58984H21.4431M21.4431 3.58984H21.4458M21.4431 3.58984H21.4458M21.4458 3.58984H21.4485M21.4458 3.58984H21.4485M21.4485 3.58984H21.4512M21.4485 3.58984H21.4512M21.4512 3.58984H21.4539M21.4512 3.58984H21.4539M21.4539 3.58984H21.4565M21.4539 3.58984H21.4565M21.4565 3.58984H21.4592M21.4565 3.58984H21.4592M21.4592 3.58984H21.4619M21.4592 3.58984H21.4619M21.4619 3.58984H21.4646M21.4619 3.58984H21.4646M21.4646 3.58984H21.4673M21.4646 3.58984H21.4673M21.4673 3.58984H21.47M21.4673 3.58984H21.47M21.47 3.58984H21.4727M21.47 3.58984H21.4727M21.4727 3.58984H21.4753M21.4727 3.58984H21.4753M21.4753 3.58984H21.478M21.4753 3.58984H21.478M21.478 3.58984H21.4807M21.478 3.58984H21.4807M21.4807 3.58984H21.4834M21.4807 3.58984H21.4834M21.4834 3.58984H21.4861M21.4834 3.58984H21.4861M21.4861 3.58984H21.4888M21.4861 3.58984H21.4888M21.4888 3.58984H21.4915M21.4888 3.58984H21.4915M21.4915 3.58984H21.4941M21.4915 3.58984H21.4941M21.4941 3.58984H21.4968M21.4941 3.58984H21.4968M21.4968 3.58984H21.4995M21.4968 3.58984H21.4995M21.4995 3.58984H21.5022M21.4995 3.58984H21.5022M21.5022 3.58984H21.5049M21.5022 3.58984H21.5049M21.5049 3.58984H21.5076M21.5049 3.58984H21.5076M21.5076 3.58984H21.5103M21.5076 3.58984H21.5103M21.5103 3.58984H21.5129M21.5103 3.58984H21.5129M21.5129 3.58984H21.5156M21.5129 3.58984H21.5156M21.5156 3.58984H21.5183M21.5156 3.58984H21.5183M21.5183 3.58984H21.521M21.5183 3.58984H21.521M21.521 3.58984H21.5237M21.521 3.58984H21.5237M21.5237 3.58984H21.5264M21.5237 3.58984H21.5264M21.5264 3.58984H21.5291M21.5264 3.58984H21.5291M21.5291 3.58984H21.5317M21.5291 3.58984H21.5317M21.5317 3.58984H21.5344M21.5317 3.58984H21.5344M21.5344 3.58984H21.5371M21.5344 3.58984H21.5371M21.5371 3.58984H21.5398M21.5371 3.58984H21.5398M21.5398 3.58984H21.5425M21.5398 3.58984H21.5425M21.5425 3.58984H21.5452M21.5425 3.58984H21.5452M21.5452 3.58984H21.5479M21.5452 3.58984H21.5479M21.5479 3.58984H21.5505M21.5479 3.58984H21.5505M21.5505 3.58984H21.5532M21.5505 3.58984H21.5532M21.5532 3.58984H21.5559M21.5532 3.58984H21.5559M21.5559 3.58984H21.5586M21.5559 3.58984H21.5586M21.5586 3.58984H21.5613M21.5586 3.58984H21.5613M21.5613 3.58984H21.564M21.5613 3.58984H21.564M21.564 3.58984H21.5666M21.564 3.58984H21.5666M21.5666 3.58984H21.5675M21.5666 3.58984H21.5675M21.5675 3.58984C24.5114 3.96481 26.5862 5.47762 27.8437 8.16524C28.1417 8.89708 28.3307 9.65086 28.4114 10.4278V10.4292V10.4319V10.4346V10.4373V10.4399V10.4426V10.4453V10.448V10.4507V10.4534V10.4561V10.4587V10.4614V10.4641V10.4668V10.4695V10.4722V10.4749V10.4775V10.4802V10.4829V10.4856V10.4883V10.491V10.4937V10.4963V10.499V10.5017V10.5044V10.5071V10.5098V10.5125V10.5151V10.5178V10.5205V10.5232V10.5259V10.5286V10.5313V10.5339V10.5366V10.5393V10.542V10.5447V10.5474V10.5501V10.5527V10.5554V10.5581V10.5608V10.5635V10.5662V10.5689V10.5715V10.5742V10.5769V10.5796V10.5823V10.585V10.5876V10.5903V10.593V10.5957V10.5984V10.6011V10.6038V10.6064V10.6091V10.6118V10.6145V10.6172V10.6199V10.6226V10.6252V10.6279V10.6306V10.6333V10.636V10.6387V10.6414V10.644V10.6467V10.6494V10.6521V10.6548V10.6575V10.6602V10.6628V10.6655V10.6682V10.6709V10.6736V10.6763V10.679V10.6816V10.6843V10.687V10.6897V10.6924V10.6951V10.6978V10.7004V10.7031V10.7058V10.7085V10.7112V10.7139V10.7166V10.7192V10.7219V10.7246V10.7273V10.73V10.7327V10.7354V10.738V10.7407V10.7434V10.7461V10.7488V10.7515V10.7542V10.7568V10.7595V10.7622V10.7649V10.7676V10.7703V10.773V10.7756V10.7783V10.781V10.7837V10.7864V10.7891V10.7918V10.7944V10.7971V10.7998V10.8025V10.8052V10.8079V10.8105V10.8132V10.8159V10.8186V10.8213V10.824V10.8267V10.8293V10.832V10.8347V10.8374V10.8401V10.8428V10.8455V10.8481V10.8508V10.8535V10.8562V10.8589V10.8616V10.8643V10.8669V10.8696V10.8723V10.875V10.8777V10.8804V10.8831V10.8857V10.8884V10.8911V10.8938V10.8965V10.8992V10.9019V10.9045V10.9072V10.9099V10.9126V10.9153V10.918V10.9207V10.9233V10.926V10.9287V10.9314V10.9341V10.9368V10.9395V10.9421V10.9448V10.9475V10.9502V10.9529V10.9556V10.9583V10.9609V10.9636V10.9663V10.969V10.9717V10.9744V10.9771V10.9797V10.9824V10.9851V10.9878V10.9905V10.9932V10.9959V10.9985V11.0012V11.0039V11.0066V11.0093V11.012V11.0146V11.0173V11.02V11.0227V11.0254V11.0281V11.0308V11.0334V11.0361V11.0388V11.0415V11.0442V11.0469V11.0496V11.0522V11.0549V11.0576V11.0603V11.063V11.0657V11.0684V11.071V11.0737V11.0764V11.0791V11.0818V11.0845V11.0872V11.0898V11.0925V11.0952V11.0979V11.1006V11.1033V11.106V11.1086V11.1113V11.114V11.1167V11.1194V11.1221V11.1248V11.1274V11.1301V11.1328V11.1355V11.1382V11.1409V11.1436V11.1462V11.1489V11.1516V11.1543V11.157V11.1597V11.1624V11.165V11.1677V11.1704V11.1731V11.1758V11.1785V11.1812V11.1838V11.1865V11.1892V11.1919V11.1946V11.1973V11.2V11.2026V11.2053V11.208V11.2107V11.2134V11.2161V11.2187V11.2214V11.2241V11.2268V11.2295V11.2322V11.2349V11.2375V11.2402V11.2429V11.2456V11.2483V11.251V11.2537V11.2563V11.259V11.2617V11.2644V11.2671V11.2698V11.2725V11.2751V11.2778V11.2805V11.2832V11.2859V11.2886V11.2913V11.2939V11.2966V11.2993V11.302V11.3047V11.3074V11.3101V11.3127V11.3154V11.3181V11.3208V11.3235V11.3262V11.3289V11.3315V11.3342V11.3369V11.3396V11.3423V11.345V11.3477V11.3503V11.353V11.3557V11.3584V11.3611V11.3638V11.3665V11.3691V11.3718V11.3745V11.3772V11.3799V11.3826V11.3853V11.3879V11.3906V11.3933V11.396V11.3987V11.4014V11.404V11.4067V11.4094V11.4121V11.4148V11.4175V11.4202V11.4228V11.4255V11.4282V11.4309V11.4336V11.4363V11.439V11.4416V11.4443V11.447V11.4497V11.4524V11.4551V11.4578V11.4604V11.4631V11.4658V11.4685V11.4712V11.4739V11.4766V11.4792V11.4819V11.4846V11.4873V11.49V11.4927V11.4954V11.498V11.5007V11.5034V11.5061V11.5088V11.5115V11.5142V11.5168V11.5195V11.5222V11.5249V11.5276V11.5303V11.533V11.5356V11.5383V11.541V11.5437V11.5464V11.5491V11.5518V11.5544V11.5571V11.5598V11.5625V11.5652V11.5679V11.5706V11.5732V11.5759V11.5786V11.5813V11.584V11.5867V11.5894V11.592V11.5947V11.5974V11.6001V11.6028V11.6055V11.6082V11.6108V11.6135V11.6162V11.6189V11.6216V11.6243V11.627V11.6296V11.6323V11.635V11.6377V11.6404V11.6431V11.6458V11.6484V11.6511V11.6538V11.6565V11.6592V11.6619V11.6645V11.6672V11.6699V11.6726V11.6753V11.678V11.6807V11.6833V11.686V11.6887V11.6914V11.6941V11.6968V11.6995V11.7021V11.7048V11.7075V11.7102V11.7129V11.7156V11.7183V11.7209V11.7236V11.7263V11.729V11.7317V11.7344V11.7371V11.7397V11.7424V11.7451V11.746C28.0365 14.6898 26.5237 16.7646 23.836 18.0222C23.1042 18.3202 22.3505 18.5091 21.5734 18.5898H21.572H21.5693H21.5666H21.564H21.5613H21.5586H21.5559H21.5532H21.5505H21.5479H21.5452H21.5425H21.5398H21.5371H21.5344H21.5317H21.5291H21.5264H21.5237H21.521H21.5183H21.5156H21.5129H21.5103H21.5076H21.5049H21.5022H21.4995H21.4968H21.4941H21.4915H21.4888H21.4861H21.4834H21.4807H21.478H21.4753H21.4727H21.47H21.4673H21.4646H21.4619H21.4592H21.4565H21.4539H21.4512H21.4485H21.4458H21.4431H21.4404H21.4377H21.4351H21.4324H21.4297H21.427H21.4243H21.4216H21.4189H21.4163H21.4136H21.4109H21.4082H21.4055H21.4028H21.4001H21.3975H21.3948H21.3921H21.3894H21.3867H21.384H21.3813H21.3787H21.376H21.3733H21.3706H21.3679H21.3652H21.3625H21.3599H21.3572H21.3545H21.3518H21.3491H21.3464H21.3437H21.3411H21.3384H21.3357H21.333H21.3303H21.3276H21.3249H21.3223H21.3196H21.3169H21.3142H21.3115H21.3088H21.3061H21.3035H21.3008H21.2981H21.2954H21.2927H21.29H21.2874H21.2847H21.282H21.2793H21.2766H21.2739H21.2712H21.2686H21.2659H21.2632H21.2605H21.2578H21.2551H21.2524H21.2498H21.2471H21.2444H21.2417H21.239H21.2363H21.2336H21.231H21.2283H21.2256H21.2229H21.2202H21.2175H21.2148H21.2122H21.2095H21.2068H21.2041H21.2014H21.1987H21.196H21.1934H21.1907H21.188H21.1853H21.1826H21.1799H21.1772H21.1746H21.1719H21.1692H21.1665H21.1638H21.1611H21.1584H21.1558H21.1531H21.1504H21.1477H21.145H21.1423H21.1396H21.137H21.1343H21.1316H21.1289H21.1262H21.1235H21.1208H21.1182H21.1155H21.1128H21.1101H21.1074H21.1047H21.102H21.0994H21.0967H21.094H21.0913H21.0886H21.0859H21.0833H21.0806H21.0779H21.0752H21.0725H21.0698H21.0671H21.0645H21.0618H21.0591H21.0564H21.0537H21.051H21.0483H21.0457H21.043H21.0403H21.0376H21.0349H21.0322H21.0295H21.0269H21.0242H21.0215H21.0188H21.0161H21.0134H21.0107H21.0081H21.0054H21.0027H21H20.9973H20.9946H20.9919H20.9893H20.9866H20.9839H20.9812H20.9785H20.9758H20.9731H20.9705H20.9678H20.9651H20.9624H20.9597H20.957H20.9543H20.9517H20.949H20.9463H20.9436H20.9409H20.9382H20.9355H20.9329H20.9302H20.9275H20.9248H20.9221H20.9194H20.9167H20.9141H20.9114H20.9087H20.906H20.9033H20.9006H20.8979H20.8953H20.8926H20.8899H20.8872H20.8845H20.8818H20.8792H20.8765H20.8738H20.8711H20.8684H20.8657H20.863H20.8604H20.8577H20.855H20.8523H20.8496H20.8469H20.8442H20.8416H20.8389H20.8362H20.8335H20.8308H20.8281H20.8254H20.8228H20.8201H20.8174H20.8147H20.812H20.8093H20.8066H20.804H20.8013H20.7986H20.7959H20.7932H20.7905H20.7878H20.7852H20.7825H20.7798H20.7771H20.7744H20.7717H20.769H20.7664H20.7637H20.761H20.7583H20.7556H20.7529H20.7502H20.7476H20.7449H20.7422H20.7395H20.7368H20.7341H20.7314H20.7288H20.7261H20.7234H20.7207H20.718H20.7153H20.7126H20.71H20.7073H20.7046H20.7019H20.6992H20.6965H20.6939H20.6912H20.6885H20.6858H20.6831H20.6804H20.6777H20.6751H20.6724H20.6697H20.667H20.6643H20.6616H20.6589H20.6563H20.6536H20.6509H20.6482H20.6455H20.6428H20.6401H20.6375H20.6348H20.6321H20.6294H20.6267H20.624H20.6213H20.6187H20.616H20.6133H20.6106H20.6079H20.6052H20.6025H20.5999H20.5972H20.5945H20.5918H20.5891H20.5864H20.5837H20.5811H20.5784H20.5757H20.573H20.5703H20.5676H20.5649H20.5623H20.5596H20.5569H20.5542H20.5515H20.5488H20.5461H20.5435H20.5408H20.5381H20.5354H20.5327H20.53H20.5273H20.5247H20.522H20.5193H20.5166H20.5139H20.5112H20.5085H20.5059H20.5032H20.5005H20.4978H20.4951H20.4924H20.4897H20.4871H20.4844H20.4817H20.479H20.4763H20.4736H20.471H20.4683H20.4656H20.4629H20.4602H20.4575H20.4548H20.4522H20.4495H20.4468H20.4441H20.4414H20.4387H20.436H20.4334H20.4307H20.428H20.4253H20.4226H20.4199H20.4172H20.4146H20.4119H20.4092H20.4065H20.4038H20.4011H20.3984H20.3958H20.3931H20.3904H20.3877H20.385H20.3823H20.3796H20.377H20.3743H20.3716H20.3689H20.3662H20.3635H20.3608H20.3582H20.3555H20.3528H20.3501H20.3474H20.3447H20.342H20.3394H20.3367H20.334H20.3313H20.3286H20.3259H20.3232H20.3206H20.3179H20.3152H20.3125H20.3098H20.3071H20.3044H20.3018H20.2991H20.2964H20.2937H20.291H20.2883H20.2856H20.283H20.2803H20.2776H20.2749H20.2722H20.2695H20.2668H20.2642H20.2615H20.2588H20.2561H20.2552C17.3114 18.2149 15.2365 16.7021 13.979 14.0145C13.681 13.2826 13.4921 12.5288 13.4114 11.7518V11.7505V11.7478V11.7451V11.7424V11.7397V11.7371V11.7344V11.7317V11.729V11.7263V11.7236V11.7209V11.7183V11.7156V11.7129V11.7102V11.7075V11.7048V11.7021V11.6995V11.6968V11.6941V11.6914V11.6887V11.686V11.6833V11.6807V11.678V11.6753V11.6726V11.6699V11.6672V11.6645V11.6619V11.6592V11.6565V11.6538V11.6511V11.6484V11.6458V11.6431V11.6404V11.6377V11.635V11.6323V11.6296V11.627V11.6243V11.6216V11.6189V11.6162V11.6135V11.6108V11.6082V11.6055V11.6028V11.6001V11.5974V11.5947V11.592V11.5894V11.5867V11.584V11.5813V11.5786V11.5759V11.5732V11.5706V11.5679V11.5652V11.5625V11.5598V11.5571V11.5544V11.5518V11.5491V11.5464V11.5437V11.541V11.5383V11.5356V11.533V11.5303V11.5276V11.5249V11.5222V11.5195V11.5168V11.5142V11.5115V11.5088V11.5061V11.5034V11.5007V11.498V11.4954V11.4927V11.49V11.4873V11.4846V11.4819V11.4792V11.4766V11.4739V11.4712V11.4685V11.4658V11.4631V11.4604V11.4578V11.4551V11.4524V11.4497V11.447V11.4443V11.4416V11.439V11.4363V11.4336V11.4309V11.4282V11.4255V11.4228V11.4202V11.4175V11.4148V11.4121V11.4094V11.4067V11.404V11.4014V11.3987V11.396V11.3933V11.3906V11.3879V11.3853V11.3826V11.3799V11.3772V11.3745V11.3718V11.3691V11.3665V11.3638V11.3611V11.3584V11.3557V11.353V11.3503V11.3477V11.345V11.3423V11.3396V11.3369V11.3342V11.3315V11.3289V11.3262V11.3235V11.3208V11.3181V11.3154V11.3127V11.3101V11.3074V11.3047V11.302V11.2993V11.2966V11.2939V11.2913V11.2886V11.2859V11.2832V11.2805V11.2778V11.2751V11.2725V11.2698V11.2671V11.2644V11.2617V11.259V11.2563V11.2537V11.251V11.2483V11.2456V11.2429V11.2402V11.2375V11.2349V11.2322V11.2295V11.2268V11.2241V11.2214V11.2187V11.2161V11.2134V11.2107V11.208V11.2053V11.2026V11.2V11.1973V11.1946V11.1919V11.1892V11.1865V11.1838V11.1812V11.1785V11.1758V11.1731V11.1704V11.1677V11.165V11.1624V11.1597V11.157V11.1543V11.1516V11.1489V11.1462V11.1436V11.1409V11.1382V11.1355V11.1328V11.1301V11.1274V11.1248V11.1221V11.1194V11.1167V11.114V11.1113V11.1086V11.106V11.1033V11.1006V11.0979V11.0952V11.0925V11.0898V11.0872V11.0845V11.0818V11.0791V11.0764V11.0737V11.071V11.0684V11.0657V11.063V11.0603V11.0576V11.0549V11.0522V11.0496V11.0469V11.0442V11.0415V11.0388V11.0361V11.0334V11.0308V11.0281V11.0254V11.0227V11.02V11.0173V11.0146V11.012V11.0093V11.0066V11.0039V11.0012V10.9985V10.9959V10.9932V10.9905V10.9878V10.9851V10.9824V10.9797V10.9771V10.9744V10.9717V10.969V10.9663V10.9636V10.9609V10.9583V10.9556V10.9529V10.9502V10.9475V10.9448V10.9421V10.9395V10.9368V10.9341V10.9314V10.9287V10.926V10.9233V10.9207V10.918V10.9153V10.9126V10.9099V10.9072V10.9045V10.9019V10.8992V10.8965V10.8938V10.8911V10.8884V10.8857V10.8831V10.8804V10.8777V10.875V10.8723V10.8696V10.8669V10.8643V10.8616V10.8589V10.8562V10.8535V10.8508V10.8481V10.8455V10.8428V10.8401V10.8374V10.8347V10.832V10.8293V10.8267V10.824V10.8213V10.8186V10.8159V10.8132V10.8105V10.8079V10.8052V10.8025V10.7998V10.7971V10.7944V10.7918V10.7891V10.7864V10.7837V10.781V10.7783V10.7756V10.773V10.7703V10.7676V10.7649V10.7622V10.7595V10.7568V10.7542V10.7515V10.7488V10.7461V10.7434V10.7407V10.738V10.7354V10.7327V10.73V10.7273V10.7246V10.7219V10.7192V10.7166V10.7139V10.7112V10.7085V10.7058V10.7031V10.7004V10.6978V10.6951V10.6924V10.6897V10.687V10.6843V10.6816V10.679V10.6763V10.6736V10.6709V10.6682V10.6655V10.6628V10.6602V10.6575V10.6548V10.6521V10.6494V10.6467V10.644V10.6414V10.6387V10.636V10.6333V10.6306V10.6279V10.6252V10.6226V10.6199V10.6172V10.6145V10.6118V10.6091V10.6064V10.6038V10.6011V10.5984V10.5957V10.593V10.5903V10.5876V10.585V10.5823V10.5796V10.5769V10.5742V10.5715V10.5689V10.5662V10.5635V10.5608V10.5581V10.5554V10.5527V10.5501V10.5474V10.5447V10.542V10.5393V10.5366V10.5339V10.5313V10.5286V10.5259V10.5232V10.5205V10.5178V10.5151V10.5125V10.5098V10.5071V10.5044V10.5017V10.499V10.4963V10.4937V10.491V10.4883V10.4856V10.4829V10.4802V10.4775V10.4749V10.4722V10.4695V10.4668V10.4641V10.4614V10.4587V10.4561V10.4534V10.4507V10.448V10.4453V10.4426V10.4399V10.4373V10.4346V10.4337L21.5675 3.58984Z" stroke="black"/>
</svg>
