<svg width="46" height="45" viewBox="0 0 46 45" fill="none" xmlns="http://www.w3.org/2000/svg">
<rect width="44.3405" height="44.9028" transform="translate(0.759048 0.0107422)" fill="white" fill-opacity="0.2"/>
<path d="M10.0892 38.1536C10.0892 38.8245 9.85788 39.3836 9.3952 39.8309C8.94023 40.2704 8.24235 40.4902 7.30156 40.4902H5.75157V43.8562H4.69897V35.7939H7.30156C8.2115 35.7939 8.90167 36.0137 9.37207 36.4533C9.85017 36.8928 10.0892 37.4596 10.0892 38.1536ZM7.30156 39.6227C7.88762 39.6227 8.31946 39.4954 8.59707 39.2409C8.87468 38.9865 9.01349 38.624 9.01349 38.1536C9.01349 37.1589 8.44284 36.6615 7.30156 36.6615H5.75157V39.6227H7.30156ZM12.9128 38.5469C13.0978 38.1845 13.36 37.903 13.6993 37.7025C14.0463 37.502 14.4666 37.4018 14.9601 37.4018V38.4891H14.6825C13.5027 38.4891 12.9128 39.1291 12.9128 40.4092V43.8562H11.8602V37.5174H12.9128V38.5469ZM19.4024 43.9603C18.8087 43.9603 18.2689 43.8254 17.783 43.5555C17.3049 43.2856 16.9271 42.9038 16.6495 42.4103C16.3796 41.9091 16.2446 41.3307 16.2446 40.6753C16.2446 40.0275 16.3834 39.4569 16.661 38.9633C16.9464 38.4621 17.3319 38.0804 17.8177 37.8182C18.3036 37.5483 18.8472 37.4133 19.4487 37.4133C20.0502 37.4133 20.5938 37.5483 21.0797 37.8182C21.5655 38.0804 21.9472 38.4582 22.2248 38.9518C22.5101 39.4453 22.6528 40.0198 22.6528 40.6753C22.6528 41.3307 22.5063 41.9091 22.2132 42.4103C21.9279 42.9038 21.5385 43.2856 21.045 43.5555C20.5514 43.8254 20.0039 43.9603 19.4024 43.9603ZM19.4024 43.0349C19.7803 43.0349 20.135 42.9463 20.4666 42.7689C20.7982 42.5915 21.0642 42.3255 21.2647 41.9708C21.4729 41.616 21.5771 41.1842 21.5771 40.6753C21.5771 40.1663 21.4768 39.7345 21.2763 39.3797C21.0758 39.025 20.8136 38.7628 20.4897 38.5932C20.1659 38.4158 19.815 38.3271 19.4371 38.3271C19.0516 38.3271 18.6968 38.4158 18.373 38.5932C18.0568 38.7628 17.8023 39.025 17.6095 39.3797C17.4168 39.7345 17.3204 40.1663 17.3204 40.6753C17.3204 41.1919 17.4129 41.6276 17.598 41.9823C17.7908 42.3371 18.0452 42.6031 18.3614 42.7805C18.6776 42.9501 19.0246 43.0349 19.4024 43.0349ZM27.0789 38.385H25.7487V43.8562H24.6961V38.385H23.8748V37.5174H24.6961V37.0663C24.6961 36.3569 24.8773 35.8402 25.2397 35.5163C25.6099 35.1847 26.1998 35.019 27.0095 35.019V35.8981C26.5468 35.8981 26.2191 35.9906 26.0263 36.1757C25.8412 36.353 25.7487 36.6499 25.7487 37.0663V37.5174H27.0789V38.385ZM29.3125 36.488C29.112 36.488 28.9424 36.4186 28.8036 36.2798C28.6648 36.141 28.5954 35.9713 28.5954 35.7708C28.5954 35.5703 28.6648 35.4007 28.8036 35.2619C28.9424 35.1231 29.112 35.0537 29.3125 35.0537C29.5053 35.0537 29.6673 35.1231 29.7984 35.2619C29.9372 35.4007 30.0066 35.5703 30.0066 35.7708C30.0066 35.9713 29.9372 36.141 29.7984 36.2798C29.6673 36.4186 29.5053 36.488 29.3125 36.488ZM29.8215 37.5174V43.8562H28.7689V37.5174H29.8215ZM33.1308 35.2966V43.8562H32.0781V35.2966H33.1308ZM41.171 40.4439C41.171 40.6444 41.1594 40.8565 41.1363 41.0801H36.0699C36.1084 41.7047 36.3205 42.1944 36.7061 42.5491C37.0993 42.8961 37.5736 43.0696 38.1288 43.0696C38.5838 43.0696 38.9616 42.9655 39.2624 42.7573C39.5708 42.5414 39.7868 42.2561 39.9101 41.9014H41.0437C40.8741 42.5106 40.5348 43.0079 40.0258 43.3935C39.5169 43.7714 38.8845 43.9603 38.1288 43.9603C37.5273 43.9603 36.9875 43.8254 36.5094 43.5555C36.039 43.2856 35.6689 42.9038 35.399 42.4103C35.1291 41.9091 34.9941 41.3307 34.9941 40.6753C34.9941 40.0198 35.1252 39.4453 35.3874 38.9518C35.6496 38.4582 36.0159 38.0804 36.4863 37.8182C36.9644 37.5483 37.5119 37.4133 38.1288 37.4133C38.7303 37.4133 39.2624 37.5444 39.7251 37.8066C40.1878 38.0688 40.5425 38.4312 40.7892 38.8939C41.0437 39.3489 41.171 39.8656 41.171 40.4439ZM40.0837 40.2241C40.0837 39.8231 39.995 39.48 39.8176 39.1947C39.6402 38.9016 39.3973 38.6819 39.0889 38.5353C38.7881 38.3811 38.4527 38.304 38.0825 38.304C37.5505 38.304 37.0955 38.4737 36.7176 38.813C36.3475 39.1523 36.1354 39.6227 36.0814 40.2241H40.0837Z" fill="black"/>
<path opacity="0.989" d="M22.2814 5.73551L22.2729 5.21475L22.2417 5.21526L22.2107 5.2195L22.2814 5.73551ZM22.2814 5.73551C23.7056 5.71239 24.6659 6.36343 25.1622 7.68864M22.2814 5.73551C21.7279 5.81131 21.2288 6.0229 20.784 6.37028M25.1622 7.68864C25.4842 9.22015 24.9471 10.3324 23.5509 11.0252M25.1622 7.68864L25.65 7.50596L25.6638 7.54289L25.6719 7.58149L25.1622 7.68864ZM20.784 6.37028L20.4634 5.9598L20.4414 5.97696L20.4214 5.99637L20.784 6.37028ZM20.784 6.37028C19.7346 7.38786 19.5338 8.5543 20.1818 9.86963M20.1818 9.86963L19.7145 10.0998L19.7315 10.1342L19.7533 10.1657L20.1818 9.86963ZM20.1818 9.86963C21.0165 11.0774 22.1395 11.4627 23.5509 11.0252M23.5509 11.0252L23.7051 11.5227L23.745 11.5103L23.7824 11.4918L23.5509 11.0252ZM24.4949 12.6203L24.5869 12.1076L24.5445 12.1L24.5014 12.0995L24.4949 12.6203ZM24.4949 12.6203C25.7378 12.8432 26.5245 13.5648 26.8549 14.785M24.4949 12.6203C23.1929 12.604 21.8908 12.5986 20.5887 12.604M26.8549 14.785C27.0473 15.5214 26.8249 16.0911 26.1876 16.494C24.3941 17.7409 22.4626 18.0121 20.3933 17.3078M26.8549 14.785L27.3577 14.6489L27.3589 14.6534L26.8549 14.785ZM20.5887 12.604L20.5865 12.0832L20.5391 12.0834L20.4925 12.0921L20.5887 12.604ZM20.5887 12.604C19.3657 12.8339 18.579 13.55 18.2286 14.7524C18.1008 15.1836 18.1442 15.5959 18.3588 15.9894M18.3588 15.9894L17.9016 16.2388L17.936 16.3019L17.9861 16.3532L18.3588 15.9894ZM18.3588 15.9894C18.9342 16.5788 19.6123 17.0182 20.3933 17.3078M20.3933 17.3078L20.2122 17.7963L20.2255 17.8008L20.3933 17.3078ZM21.8284 3.74984H21.8256V3.229L21.8284 3.74984ZM21.8284 3.74984H21.8312M21.8284 3.74984H21.8312M21.8312 3.74984H21.834M21.8312 3.74984H21.834M21.834 3.74984H21.8368M21.834 3.74984H21.8368M21.8368 3.74984H21.8396M21.8368 3.74984H21.8396M21.8396 3.74984H21.8424M21.8396 3.74984H21.8424M21.8424 3.74984H21.8452M21.8424 3.74984H21.8452M21.8452 3.74984H21.848M21.8452 3.74984H21.848M21.848 3.74984H21.8508M21.848 3.74984H21.8508M21.8508 3.74984H21.8536M21.8508 3.74984H21.8536M21.8536 3.74984H21.8564M21.8536 3.74984H21.8564M21.8564 3.74984H21.8592M21.8564 3.74984H21.8592M21.8592 3.74984H21.862M21.8592 3.74984H21.862M21.862 3.74984H21.8648M21.862 3.74984H21.8648M21.8648 3.74984H21.8676M21.8648 3.74984H21.8676M21.8676 3.74984H21.8704M21.8676 3.74984H21.8704M21.8704 3.74984H21.8732M21.8704 3.74984H21.8732M21.8732 3.74984H21.876M21.8732 3.74984H21.876M21.876 3.74984H21.8788M21.876 3.74984H21.8788M21.8788 3.74984H21.8816M21.8788 3.74984H21.8816M21.8816 3.74984H21.8844M21.8816 3.74984H21.8844M21.8844 3.74984H21.8872M21.8844 3.74984H21.8872M21.8872 3.74984H21.89M21.8872 3.74984H21.89M21.89 3.74984H21.8928M21.89 3.74984H21.8928M21.8928 3.74984H21.8956M21.8928 3.74984H21.8956M21.8956 3.74984H21.8984M21.8956 3.74984H21.8984M21.8984 3.74984H21.9012M21.8984 3.74984H21.9012M21.9012 3.74984H21.904M21.9012 3.74984H21.904M21.904 3.74984H21.9068M21.904 3.74984H21.9068M21.9068 3.74984H21.9096M21.9068 3.74984H21.9096M21.9096 3.74984H21.9124M21.9096 3.74984H21.9124M21.9124 3.74984H21.9152M21.9124 3.74984H21.9152M21.9152 3.74984H21.918M21.9152 3.74984H21.918M21.918 3.74984H21.9208M21.918 3.74984H21.9208M21.9208 3.74984H21.9235M21.9208 3.74984H21.9235M21.9235 3.74984H21.9263M21.9235 3.74984H21.9263M21.9263 3.74984H21.9291M21.9263 3.74984H21.9291M21.9291 3.74984H21.9319M21.9291 3.74984H21.9319M21.9319 3.74984H21.9347M21.9319 3.74984H21.9347M21.9347 3.74984H21.9375M21.9347 3.74984H21.9375M21.9375 3.74984H21.9403M21.9375 3.74984H21.9403M21.9403 3.74984H21.9431M21.9403 3.74984H21.9431M21.9431 3.74984H21.9459M21.9431 3.74984H21.9459M21.9459 3.74984H21.9487M21.9459 3.74984H21.9487M21.9487 3.74984H21.9515M21.9487 3.74984H21.9515M21.9515 3.74984H21.9543M21.9515 3.74984H21.9543M21.9543 3.74984H21.9571M21.9543 3.74984H21.9571M21.9571 3.74984H21.9599M21.9571 3.74984H21.9599M21.9599 3.74984H21.9627M21.9599 3.74984H21.9627M21.9627 3.74984H21.9655M21.9627 3.74984H21.9655M21.9655 3.74984H21.9683M21.9655 3.74984H21.9683M21.9683 3.74984H21.9711M21.9683 3.74984H21.9711M21.9711 3.74984H21.9739M21.9711 3.74984H21.9739M21.9739 3.74984H21.9767M21.9739 3.74984H21.9767M21.9767 3.74984H21.9795M21.9767 3.74984H21.9795M21.9795 3.74984H21.9823M21.9795 3.74984H21.9823M21.9823 3.74984H21.9851M21.9823 3.74984H21.9851M21.9851 3.74984H21.9879M21.9851 3.74984H21.9879M21.9879 3.74984H21.9907M21.9879 3.74984H21.9907M21.9907 3.74984H21.9935M21.9907 3.74984H21.9935M21.9935 3.74984H21.9963M21.9935 3.74984H21.9963M21.9963 3.74984H21.9991M21.9963 3.74984H21.9991M21.9991 3.74984H22.0019M21.9991 3.74984H22.0019M22.0019 3.74984H22.0047M22.0019 3.74984H22.0047M22.0047 3.74984H22.0075M22.0047 3.74984H22.0075M22.0075 3.74984H22.0103M22.0075 3.74984H22.0103M22.0103 3.74984H22.0131M22.0103 3.74984H22.0131M22.0131 3.74984H22.0159M22.0131 3.74984H22.0159M22.0159 3.74984H22.0187M22.0159 3.74984H22.0187M22.0187 3.74984H22.0215M22.0187 3.74984H22.0215M22.0215 3.74984H22.0243M22.0215 3.74984H22.0243M22.0243 3.74984H22.0271M22.0243 3.74984H22.0271M22.0271 3.74984H22.0299M22.0271 3.74984H22.0299M22.0299 3.74984H22.0327M22.0299 3.74984H22.0327M22.0327 3.74984H22.0354M22.0327 3.74984H22.0354M22.0354 3.74984H22.0382M22.0354 3.74984H22.0382M22.0382 3.74984H22.041M22.0382 3.74984H22.041M22.041 3.74984H22.0438M22.041 3.74984H22.0438M22.0438 3.74984H22.0466M22.0438 3.74984H22.0466M22.0466 3.74984H22.0494M22.0466 3.74984H22.0494M22.0494 3.74984H22.0522M22.0494 3.74984H22.0522M22.0522 3.74984H22.055M22.0522 3.74984H22.055M22.055 3.74984H22.0578M22.055 3.74984H22.0578M22.0578 3.74984H22.0606M22.0578 3.74984H22.0606M22.0606 3.74984H22.0634M22.0606 3.74984H22.0634M22.0634 3.74984H22.0662M22.0634 3.74984H22.0662M22.0662 3.74984H22.069M22.0662 3.74984H22.069M22.069 3.74984H22.0718M22.069 3.74984H22.0718M22.0718 3.74984H22.0746M22.0718 3.74984H22.0746M22.0746 3.74984H22.0774M22.0746 3.74984H22.0774M22.0774 3.74984H22.0802M22.0774 3.74984H22.0802M22.0802 3.74984H22.083M22.0802 3.74984H22.083M22.083 3.74984H22.0858M22.083 3.74984H22.0858M22.0858 3.74984H22.0886M22.0858 3.74984H22.0886M22.0886 3.74984H22.0914M22.0886 3.74984H22.0914M22.0914 3.74984H22.0942M22.0914 3.74984H22.0942M22.0942 3.74984H22.097M22.0942 3.74984H22.097M22.097 3.74984H22.0998M22.097 3.74984H22.0998M22.0998 3.74984H22.1026M22.0998 3.74984H22.1026M22.1026 3.74984H22.1054M22.1026 3.74984H22.1054M22.1054 3.74984H22.1082M22.1054 3.74984H22.1082M22.1082 3.74984H22.111M22.1082 3.74984H22.111M22.111 3.74984H22.1138M22.111 3.74984H22.1138M22.1138 3.74984H22.1166M22.1138 3.74984H22.1166M22.1166 3.74984H22.1194M22.1166 3.74984H22.1194M22.1194 3.74984H22.1222M22.1194 3.74984H22.1222M22.1222 3.74984H22.125M22.1222 3.74984H22.125M22.125 3.74984H22.1278M22.125 3.74984H22.1278M22.1278 3.74984H22.1306M22.1278 3.74984H22.1306M22.1306 3.74984H22.1334M22.1306 3.74984H22.1334M22.1334 3.74984H22.1362M22.1334 3.74984H22.1362M22.1362 3.74984H22.139M22.1362 3.74984H22.139M22.139 3.74984H22.1418M22.139 3.74984H22.1418M22.1418 3.74984H22.1445M22.1418 3.74984H22.1445M22.1445 3.74984H22.1473M22.1445 3.74984H22.1473M22.1473 3.74984H22.1501M22.1473 3.74984H22.1501M22.1501 3.74984H22.1529M22.1501 3.74984H22.1529M22.1529 3.74984H22.1557M22.1529 3.74984H22.1557M22.1557 3.74984H22.1585M22.1557 3.74984H22.1585M22.1585 3.74984H22.1613M22.1585 3.74984H22.1613M22.1613 3.74984H22.1641M22.1613 3.74984H22.1641M22.1641 3.74984H22.1669M22.1641 3.74984H22.1669M22.1669 3.74984H22.1697M22.1669 3.74984H22.1697M22.1697 3.74984H22.1725M22.1697 3.74984H22.1725M22.1725 3.74984H22.1753M22.1725 3.74984H22.1753M22.1753 3.74984H22.1781M22.1753 3.74984H22.1781M22.1781 3.74984H22.1809M22.1781 3.74984H22.1809M22.1809 3.74984H22.1837M22.1809 3.74984H22.1837M22.1837 3.74984H22.1865M22.1837 3.74984H22.1865M22.1865 3.74984H22.1893M22.1865 3.74984H22.1893M22.1893 3.74984H22.1921M22.1893 3.74984H22.1921M22.1921 3.74984H22.1949M22.1921 3.74984H22.1949M22.1949 3.74984H22.1977M22.1949 3.74984H22.1977M22.1977 3.74984H22.2005M22.1977 3.74984H22.2005M22.2005 3.74984H22.2033M22.2005 3.74984H22.2033M22.2033 3.74984H22.2061M22.2033 3.74984H22.2061M22.2061 3.74984H22.2089M22.2061 3.74984H22.2089M22.2089 3.74984H22.2117M22.2089 3.74984H22.2117M22.2117 3.74984H22.2145M22.2117 3.74984H22.2145M22.2145 3.74984H22.2173M22.2145 3.74984H22.2173M22.2173 3.74984H22.2201M22.2173 3.74984H22.2201M22.2201 3.74984H22.2229M22.2201 3.74984H22.2229M22.2229 3.74984H22.2257M22.2229 3.74984H22.2257M22.2257 3.74984H22.2285M22.2257 3.74984H22.2285M22.2285 3.74984H22.2313M22.2285 3.74984H22.2313M22.2313 3.74984H22.2341M22.2313 3.74984H22.2341M22.2341 3.74984H22.2369M22.2341 3.74984H22.2369M22.2369 3.74984H22.2397M22.2369 3.74984H22.2397M22.2397 3.74984H22.2425M22.2397 3.74984H22.2425M22.2425 3.74984H22.2453M22.2425 3.74984H22.2453M22.2453 3.74984H22.2481M22.2453 3.74984H22.2481M22.2481 3.74984H22.2509M22.2481 3.74984H22.2509M22.2509 3.74984H22.2536M22.2509 3.74984H22.2536M22.2536 3.74984H22.2564M22.2536 3.74984H22.2564M22.2564 3.74984H22.2592M22.2564 3.74984H22.2592M22.2592 3.74984H22.262M22.2592 3.74984H22.262M22.262 3.74984H22.2648M22.262 3.74984H22.2648M22.2648 3.74984H22.2676M22.2648 3.74984H22.2676M22.2676 3.74984H22.2704M22.2676 3.74984H22.2704M22.2704 3.74984H22.2732M22.2704 3.74984H22.2732M22.2732 3.74984H22.276M22.2732 3.74984H22.276M22.276 3.74984H22.2788M22.276 3.74984H22.2788M22.2788 3.74984H22.2816M22.2788 3.74984H22.2816M22.2816 3.74984H22.2844M22.2816 3.74984H22.2844M22.2844 3.74984H22.2872M22.2844 3.74984H22.2872M22.2872 3.74984H22.29M22.2872 3.74984H22.29M22.29 3.74984H22.2928M22.29 3.74984H22.2928M22.2928 3.74984H22.2956M22.2928 3.74984H22.2956M22.2956 3.74984H22.2984M22.2956 3.74984H22.2984M22.2984 3.74984H22.3012M22.2984 3.74984H22.3012M22.3012 3.74984H22.304M22.3012 3.74984H22.304M22.304 3.74984H22.3068M22.304 3.74984H22.3068M22.3068 3.74984H22.3096M22.3068 3.74984H22.3096M22.3096 3.74984H22.3124M22.3096 3.74984H22.3124M22.3124 3.74984H22.3152M22.3124 3.74984H22.3152M22.3152 3.74984H22.318M22.3152 3.74984H22.318M22.318 3.74984H22.3208M22.318 3.74984H22.3208M22.3208 3.74984H22.3236M22.3208 3.74984H22.3236M22.3236 3.74984H22.3264M22.3236 3.74984H22.3264M22.3264 3.74984H22.3292M22.3264 3.74984H22.3292M22.3292 3.74984H22.332M22.3292 3.74984H22.332M22.332 3.74984H22.3348M22.332 3.74984H22.3348M22.3348 3.74984H22.3376M22.3348 3.74984H22.3376M22.3376 3.74984H22.3404M22.3376 3.74984H22.3404M22.3404 3.74984H22.3432M22.3404 3.74984H22.3432M22.3432 3.74984H22.346M22.3432 3.74984H22.346M22.346 3.74984H22.3488M22.346 3.74984H22.3488M22.3488 3.74984H22.3516M22.3488 3.74984H22.3516M22.3516 3.74984H22.3544M22.3516 3.74984H22.3544M22.3544 3.74984H22.3572M22.3544 3.74984H22.3572M22.3572 3.74984H22.36M22.3572 3.74984H22.36M22.36 3.74984H22.3627M22.36 3.74984H22.3627M22.3627 3.74984H22.3655M22.3627 3.74984H22.3655M22.3655 3.74984H22.3683M22.3655 3.74984H22.3683M22.3683 3.74984H22.3711M22.3683 3.74984H22.3711M22.3711 3.74984H22.3739M22.3711 3.74984H22.3739M22.3739 3.74984H22.3767M22.3739 3.74984H22.3767M22.3767 3.74984H22.3795M22.3767 3.74984H22.3795M22.3795 3.74984H22.3823M22.3795 3.74984H22.3823M22.3823 3.74984H22.3851M22.3823 3.74984H22.3851M22.3851 3.74984H22.3879M22.3851 3.74984H22.3879M22.3879 3.74984H22.3907M22.3879 3.74984H22.3907M22.3907 3.74984H22.3935M22.3907 3.74984H22.3935M22.3935 3.74984H22.3963M22.3935 3.74984H22.3963M22.3963 3.74984H22.3991M22.3963 3.74984H22.3991M22.3991 3.74984H22.4019M22.3991 3.74984H22.4019M22.4019 3.74984H22.4047M22.4019 3.74984H22.4047M22.4047 3.74984H22.4075M22.4047 3.74984H22.4075M22.4075 3.74984H22.4103M22.4075 3.74984H22.4103M22.4103 3.74984H22.4131M22.4103 3.74984H22.4131M22.4131 3.74984H22.4159M22.4131 3.74984H22.4159M22.4159 3.74984H22.4187M22.4159 3.74984H22.4187M22.4187 3.74984H22.4215M22.4187 3.74984H22.4215M22.4215 3.74984H22.4243M22.4215 3.74984H22.4243M22.4243 3.74984H22.4271M22.4243 3.74984H22.4271M22.4271 3.74984H22.4299M22.4271 3.74984H22.4299M22.4299 3.74984H22.4327M22.4299 3.74984H22.4327M22.4327 3.74984H22.4355M22.4327 3.74984H22.4355M22.4355 3.74984H22.4383M22.4355 3.74984H22.4383M22.4383 3.74984H22.4411M22.4383 3.74984H22.4411M22.4411 3.74984H22.4439M22.4411 3.74984H22.4439M22.4439 3.74984H22.4467M22.4439 3.74984H22.4467M22.4467 3.74984H22.4495M22.4467 3.74984H22.4495M22.4495 3.74984H22.4523M22.4495 3.74984H22.4523M22.4523 3.74984H22.4551M22.4523 3.74984H22.4551M22.4551 3.74984H22.4579M22.4551 3.74984H22.4579M22.4579 3.74984H22.4607M22.4579 3.74984H22.4607M22.4607 3.74984H22.4635M22.4607 3.74984H22.4635M22.4635 3.74984H22.4663M22.4635 3.74984H22.4663M22.4663 3.74984H22.4691M22.4663 3.74984H22.4691M22.4691 3.74984H22.4718M22.4691 3.74984H22.4718M22.4718 3.74984H22.4746M22.4718 3.74984H22.4746M22.4746 3.74984H22.4774M22.4746 3.74984H22.4774M22.4774 3.74984H22.4802M22.4774 3.74984H22.4802M22.4802 3.74984H22.483M22.4802 3.74984H22.483M22.483 3.74984H22.4858M22.483 3.74984H22.4858M22.4858 3.74984H22.4886M22.4858 3.74984H22.4886M22.4886 3.74984H22.4914M22.4886 3.74984H22.4914M22.4914 3.74984H22.4942M22.4914 3.74984H22.4942M22.4942 3.74984H22.497M22.4942 3.74984H22.497M22.497 3.74984H22.4998M22.497 3.74984H22.4998M22.4998 3.74984H22.5026M22.4998 3.74984H22.5026M22.5026 3.74984H22.5054M22.5026 3.74984H22.5054M22.5054 3.74984H22.5082M22.5054 3.74984H22.5082M22.5082 3.74984H22.511M22.5082 3.74984H22.511M22.511 3.74984H22.5138M22.511 3.74984H22.5138M22.5138 3.74984H22.5166M22.5138 3.74984H22.5166M22.5166 3.74984H22.5194M22.5166 3.74984H22.5194M22.5194 3.74984H22.5222M22.5194 3.74984H22.5222M22.5222 3.74984H22.525M22.5222 3.74984H22.525M22.525 3.74984H22.5278M22.525 3.74984H22.5278M22.5278 3.74984H22.5306M22.5278 3.74984H22.5306M22.5306 3.74984H22.5334M22.5306 3.74984H22.5334M22.5334 3.74984H22.5362M22.5334 3.74984H22.5362M22.5362 3.74984H22.539M22.5362 3.74984H22.539M22.539 3.74984H22.5418M22.539 3.74984H22.5418M22.5418 3.74984H22.5446M22.5418 3.74984H22.5446M22.5446 3.74984H22.5474M22.5446 3.74984H22.5474M22.5474 3.74984H22.5502M22.5474 3.74984H22.5502M22.5502 3.74984H22.553M22.5502 3.74984H22.553M22.553 3.74984H22.5558M22.553 3.74984H22.5558M22.5558 3.74984H22.5586M22.5558 3.74984H22.5586M22.5586 3.74984H22.5614M22.5586 3.74984H22.5614M22.5614 3.74984H22.5642M22.5614 3.74984H22.5642M22.5642 3.74984H22.567M22.5642 3.74984H22.567M22.567 3.74984H22.5698M22.567 3.74984H22.5698M22.5698 3.74984H22.5726M22.5698 3.74984H22.5726M22.5726 3.74984H22.5754M22.5726 3.74984H22.5754M22.5754 3.74984H22.5781M22.5754 3.74984H22.5781M22.5781 3.74984H22.5809M22.5781 3.74984H22.5809M22.5809 3.74984H22.5837M22.5809 3.74984H22.5837M22.5837 3.74984H22.5865M22.5837 3.74984H22.5865M22.5865 3.74984H22.5893M22.5865 3.74984H22.5893M22.5893 3.74984H22.5921M22.5893 3.74984H22.5921M22.5921 3.74984H22.5949M22.5921 3.74984H22.5949M22.5949 3.74984H22.5977M22.5949 3.74984H22.5977M22.5977 3.74984H22.6005M22.5977 3.74984H22.6005M22.6005 3.74984H22.6033M22.6005 3.74984H22.6033M22.6033 3.74984H22.6061M22.6033 3.74984H22.6061M22.6061 3.74984H22.6089M22.6061 3.74984H22.6089M22.6089 3.74984H22.6117M22.6089 3.74984H22.6117M22.6117 3.74984H22.6145M22.6117 3.74984H22.6145M22.6145 3.74984H22.6173M22.6145 3.74984H22.6173M22.6173 3.74984H22.6201M22.6173 3.74984H22.6201M22.6201 3.74984H22.6229M22.6201 3.74984H22.6229M22.6229 3.74984H22.6257M22.6229 3.74984H22.6257M22.6257 3.74984H22.6285M22.6257 3.74984H22.6285M22.6285 3.74984H22.6313M22.6285 3.74984H22.6313M22.6313 3.74984H22.6341M22.6313 3.74984H22.6341M22.6341 3.74984H22.6369M22.6341 3.74984H22.6369M22.6369 3.74984H22.6397M22.6369 3.74984H22.6397M22.6397 3.74984H22.6425M22.6397 3.74984H22.6425M22.6425 3.74984H22.6453M22.6425 3.74984H22.6453M22.6453 3.74984H22.6481M22.6453 3.74984H22.6481M22.6481 3.74984H22.6509M22.6481 3.74984H22.6509M22.6509 3.74984H22.6537M22.6509 3.74984H22.6537M22.6537 3.74984H22.6565M22.6537 3.74984H22.6565M22.6565 3.74984H22.6593M22.6565 3.74984H22.6593M22.6593 3.74984H22.6621M22.6593 3.74984H22.6621M22.6621 3.74984H22.6649M22.6621 3.74984H22.6649M22.6649 3.74984H22.6677M22.6649 3.74984H22.6677M22.6677 3.74984H22.6705M22.6677 3.74984H22.6705M22.6705 3.74984H22.6733M22.6705 3.74984H22.6733M22.6733 3.74984H22.6761M22.6733 3.74984H22.6761M22.6761 3.74984H22.6789M22.6761 3.74984H22.6789M22.6789 3.74984H22.6817M22.6789 3.74984H22.6817M22.6817 3.74984H22.6845M22.6817 3.74984H22.6845M22.6845 3.74984H22.6872M22.6845 3.74984H22.6872M22.6872 3.74984H22.69M22.6872 3.74984H22.69M22.69 3.74984H22.6928M22.69 3.74984H22.6928M22.6928 3.74984H22.6956M22.6928 3.74984H22.6956M22.6956 3.74984H22.6984M22.6956 3.74984H22.6984M22.6984 3.74984H22.7012M22.6984 3.74984H22.7012M22.7012 3.74984H22.704M22.7012 3.74984H22.704M22.704 3.74984H22.7068M22.704 3.74984H22.7068M22.7068 3.74984H22.7096M22.7068 3.74984H22.7096M22.7096 3.74984H22.7124M22.7096 3.74984H22.7124M22.7124 3.74984H22.7152M22.7124 3.74984H22.7152M22.7152 3.74984H22.718M22.7152 3.74984H22.718M22.718 3.74984H22.7208M22.718 3.74984H22.7208M22.7208 3.74984H22.7236M22.7208 3.74984H22.7236M22.7236 3.74984H22.7264M22.7236 3.74984H22.7264M22.7264 3.74984H22.7292M22.7264 3.74984H22.7292M22.7292 3.74984H22.732M22.7292 3.74984H22.732M22.732 3.74984H22.7348M22.732 3.74984H22.7348M22.7348 3.74984H22.7376M22.7348 3.74984H22.7376M22.7376 3.74984H22.7404M22.7376 3.74984H22.7404M22.7404 3.74984H22.7432M22.7404 3.74984H22.7432M22.7432 3.74984H22.746M22.7432 3.74984H22.746M22.746 3.74984H22.7488M22.746 3.74984H22.7488M22.7488 3.74984H22.7516M22.7488 3.74984H22.7516M22.7516 3.74984H22.7544M22.7516 3.74984H22.7544M22.7544 3.74984H22.7572M22.7544 3.74984H22.7572M22.7572 3.74984H22.76M22.7572 3.74984H22.76M22.76 3.74984H22.7628M22.76 3.74984H22.7628M22.7628 3.74984H22.7656M22.7628 3.74984H22.7656M22.7656 3.74984H22.7684M22.7656 3.74984H22.7684M22.7684 3.74984H22.7712M22.7684 3.74984H22.7712M22.7712 3.74984H22.774M22.7712 3.74984H22.774M22.774 3.74984H22.7768M22.774 3.74984H22.7768M22.7768 3.74984H22.7796M22.7768 3.74984H22.7796M22.7796 3.74984H22.7824M22.7796 3.74984H22.7824M22.7824 3.74984H22.7852M22.7824 3.74984H22.7852M22.7852 3.74984H22.788M22.7852 3.74984H22.788M22.788 3.74984H22.7908M22.788 3.74984H22.7908M22.7908 3.74984H22.7936M22.7908 3.74984H22.7936M22.7936 3.74984H22.7963M22.7936 3.74984H22.7963M22.7963 3.74984H22.7991M22.7963 3.74984H22.7991M22.7991 3.74984H22.8019M22.7991 3.74984H22.8019M22.8019 3.74984H22.8047M22.8019 3.74984H22.8047M22.8047 3.74984H22.8075M22.8047 3.74984H22.8075M22.8075 3.74984H22.8103M22.8075 3.74984H22.8103M22.8103 3.74984H22.8131M22.8103 3.74984H22.8131M22.8131 3.74984H22.8159M22.8131 3.74984H22.8159M22.8159 3.74984H22.8187M22.8159 3.74984H22.8187M22.8187 3.74984H22.8215M22.8187 3.74984H22.8215M22.8215 3.74984H22.8243M22.8215 3.74984H22.8243M22.8243 3.74984H22.8271M22.8243 3.74984H22.8271M22.8271 3.74984H22.8299M22.8271 3.74984H22.8299M22.8299 3.74984H22.8327M22.8299 3.74984H22.8327M22.8327 3.74984H22.8355M22.8327 3.74984H22.8355M22.8355 3.74984H22.8383M22.8355 3.74984H22.8383M22.8383 3.74984H22.8411M22.8383 3.74984H22.8411M22.8411 3.74984H22.8439M22.8411 3.74984H22.8439M22.8439 3.74984H22.8467M22.8439 3.74984H22.8467M22.8467 3.74984H22.8495M22.8467 3.74984H22.8495M22.8495 3.74984H22.8523M22.8495 3.74984H22.8523M22.8523 3.74984H22.8551M22.8523 3.74984H22.8551M22.8551 3.74984H22.8579M22.8551 3.74984H22.8579M22.8579 3.74984H22.8607M22.8579 3.74984H22.8607M22.8607 3.74984H22.8635M22.8607 3.74984H22.8635M22.8635 3.74984H22.8663M22.8635 3.74984H22.8663M22.8663 3.74984H22.8691M22.8663 3.74984H22.8691M22.8691 3.74984H22.8719M22.8691 3.74984H22.8719M22.8719 3.74984H22.8747M22.8719 3.74984H22.8747M22.8747 3.74984H22.8775M22.8747 3.74984H22.8775M22.8775 3.74984H22.8803M22.8775 3.74984H22.8803M22.8803 3.74984H22.8831M22.8803 3.74984H22.8831M22.8831 3.74984H22.8859M22.8831 3.74984H22.8859M22.8859 3.74984H22.8887M22.8859 3.74984H22.8887M22.8887 3.74984H22.8915M22.8887 3.74984H22.8915M22.8915 3.74984H22.8943M22.8915 3.74984H22.8943M22.8943 3.74984H22.8971M22.8943 3.74984H22.8971M22.8971 3.74984H22.8999M22.8971 3.74984H22.8999M22.8999 3.74984H22.9027M22.8999 3.74984H22.9027M22.9027 3.74984H22.9054M22.9027 3.74984H22.9054M22.9054 3.74984H22.9082M22.9054 3.74984H22.9082M22.9082 3.74984H22.911M22.9082 3.74984H22.911M22.911 3.74984H22.9138M22.911 3.74984H22.9138M22.9138 3.74984H22.9166M22.9138 3.74984H22.9166M22.9166 3.74984H22.9194M22.9166 3.74984H22.9194M22.9194 3.74984H22.9222M22.9194 3.74984H22.9222M22.9222 3.74984H22.925M22.9222 3.74984H22.925M22.925 3.74984H22.9278M22.925 3.74984H22.9278M22.9278 3.74984H22.9306M22.9278 3.74984H22.9306M22.9306 3.74984H22.9334M22.9306 3.74984H22.9334M22.9334 3.74984H22.9362M22.9334 3.74984H22.9362M22.9362 3.74984H22.939M22.9362 3.74984H22.939M22.939 3.74984H22.9418M22.939 3.74984H22.9418M22.9418 3.74984H22.9446M22.9418 3.74984H22.9446M22.9446 3.74984H22.9474M22.9446 3.74984H22.9474M22.9474 3.74984H22.9502M22.9474 3.74984H22.9502M22.9502 3.74984H22.953M22.9502 3.74984H22.953M22.953 3.74984H22.9558M22.953 3.74984H22.9558M22.9558 3.74984H22.9586M22.9558 3.74984H22.9586M22.9586 3.74984H22.9614M22.9586 3.74984H22.9614M22.9614 3.74984H22.9642M22.9614 3.74984H22.9642M22.9642 3.74984H22.967M22.9642 3.74984H22.967M22.967 3.74984H22.9698M22.967 3.74984H22.9698M22.9698 3.74984H22.9726M22.9698 3.74984H22.9726M22.9726 3.74984H22.9754M22.9726 3.74984H22.9754M22.9754 3.74984H22.9782M22.9754 3.74984H22.9782M22.9782 3.74984H22.981M22.9782 3.74984H22.981M22.981 3.74984H22.9838M22.981 3.74984H22.9838M22.9838 3.74984H22.9866M22.9838 3.74984H22.9866M22.9866 3.74984H22.9894M22.9866 3.74984H22.9894M22.9894 3.74984H22.9922M22.9894 3.74984H22.9922M22.9922 3.74984H22.995M22.9922 3.74984H22.995M22.995 3.74984H22.9978M22.995 3.74984H22.9978M22.9978 3.74984H23.0006M22.9978 3.74984H23.0006M23.0006 3.74984H23.0034M23.0006 3.74984H23.0034M23.0034 3.74984H23.0062M23.0034 3.74984H23.0062M23.0062 3.74984H23.009M23.0062 3.74984H23.009M23.009 3.74984H23.0118M23.009 3.74984H23.0118M23.0118 3.74984H23.0145M23.0118 3.74984H23.0145M23.0145 3.74984H23.0173M23.0145 3.74984H23.0173M23.0173 3.74984H23.0201M23.0173 3.74984H23.0201M23.0201 3.74984H23.0229M23.0201 3.74984H23.0229M23.0229 3.74984H23.0257M23.0229 3.74984H23.0257M23.0257 3.74984H23.0285M23.0257 3.74984H23.0285M23.0285 3.74984H23.0313M23.0285 3.74984H23.0313M23.0313 3.74984H23.0341M23.0313 3.74984H23.0341M23.0341 3.74984H23.0369M23.0341 3.74984H23.0369M23.0369 3.74984H23.0397M23.0369 3.74984H23.0397M23.0397 3.74984H23.0425M23.0397 3.74984H23.0425M23.0425 3.74984H23.0453M23.0425 3.74984H23.0453M23.0453 3.74984H23.0481M23.0453 3.74984H23.0481M23.0481 3.74984H23.0509M23.0481 3.74984H23.0509M23.0509 3.74984H23.0537M23.0509 3.74984H23.0537M23.0537 3.74984H23.0565M23.0537 3.74984H23.0565M23.0565 3.74984H23.0593M23.0565 3.74984H23.0593M23.0593 3.74984H23.0621M23.0593 3.74984H23.0621M23.0621 3.74984H23.0649M23.0621 3.74984H23.0649M23.0649 3.74984H23.0677M23.0649 3.74984H23.0677M23.0677 3.74984H23.0705M23.0677 3.74984H23.0705M23.0705 3.74984H23.0733M23.0705 3.74984H23.0733M23.0733 3.74984H23.0761M23.0733 3.74984H23.0761M23.0761 3.74984H23.0789M23.0761 3.74984H23.0789M23.0789 3.74984H23.0817M23.0789 3.74984H23.0817M23.0817 3.74984H23.0845M23.0817 3.74984H23.0845M23.0845 3.74984H23.0873M23.0845 3.74984H23.0873M23.0873 3.74984H23.0901M23.0873 3.74984H23.0901M23.0901 3.74984H23.0929M23.0901 3.74984H23.0929M23.0929 3.74984H23.0957M23.0929 3.74984H23.0957M23.0957 3.74984H23.0985M23.0957 3.74984H23.0985M23.0985 3.74984H23.1013M23.0985 3.74984H23.1013M23.1013 3.74984H23.1041M23.1013 3.74984H23.1041M23.1041 3.74984H23.1069M23.1041 3.74984H23.1069M23.1069 3.74984H23.1097M23.1069 3.74984H23.1097M23.1097 3.74984H23.1125M23.1097 3.74984H23.1125M23.1125 3.74984H23.1153M23.1125 3.74984H23.1153M23.1153 3.74984H23.1181M23.1153 3.74984H23.1181M23.1181 3.74984H23.1209M23.1181 3.74984H23.1209M23.1209 3.74984H23.1236M23.1209 3.74984H23.1236M23.1236 3.74984H23.1264M23.1236 3.74984H23.1264M23.1264 3.74984H23.1292M23.1264 3.74984H23.1292M23.1292 3.74984H23.132M23.1292 3.74984H23.132M23.132 3.74984H23.1348M23.132 3.74984H23.1348M23.1348 3.74984H23.1376M23.1348 3.74984H23.1376M23.1376 3.74984H23.1404M23.1376 3.74984H23.1404M23.1404 3.74984H23.1432M23.1404 3.74984H23.1432M23.1432 3.74984H23.146M23.1432 3.74984H23.146M23.146 3.74984H23.1488M23.146 3.74984H23.1488M23.1488 3.74984H23.1516M23.1488 3.74984H23.1516M23.1516 3.74984H23.1544M23.1516 3.74984H23.1544M23.1544 3.74984H23.1572M23.1544 3.74984H23.1572M23.1572 3.74984H23.16M23.1572 3.74984H23.16M23.16 3.74984H23.1628M23.16 3.74984H23.1628M23.1628 3.74984H23.1656M23.1628 3.74984H23.1656M23.1656 3.74984H23.1684M23.1656 3.74984H23.1684M23.1684 3.74984H23.1712M23.1684 3.74984H23.1712M23.1712 3.74984H23.174M23.1712 3.74984H23.174M23.174 3.74984H23.1768M23.174 3.74984H23.1768M23.1768 3.74984H23.1796M23.1768 3.74984H23.1796M23.1796 3.74984H23.1824M23.1796 3.74984H23.1824M23.1824 3.74984H23.1852M23.1824 3.74984H23.1852M23.1852 3.74984H23.188M23.1852 3.74984H23.188M23.188 3.74984H23.1908M23.188 3.74984H23.1908M23.1908 3.74984H23.1936M23.1908 3.74984H23.1936M23.1936 3.74984H23.1964M23.1936 3.74984H23.1964M23.1964 3.74984H23.1992M23.1964 3.74984H23.1992M23.1992 3.74984H23.202M23.1992 3.74984H23.202M23.202 3.74984H23.2048M23.202 3.74984H23.2048M23.2048 3.74984H23.2076M23.2048 3.74984H23.2076M23.2076 3.74984H23.2104M23.2076 3.74984H23.2104M23.2104 3.74984H23.2132M23.2104 3.74984H23.2132M23.2132 3.74984H23.216M23.2132 3.74984H23.216M23.216 3.74984H23.2188M23.216 3.74984H23.2188M23.2188 3.74984H23.2216M23.2188 3.74984H23.2216M23.2216 3.74984H23.2244M23.2216 3.74984H23.2244M23.2244 3.74984H23.2253M23.2244 3.74984H23.2253M23.2253 3.74984C26.2918 4.14042 28.4531 5.71627 29.763 8.51587C30.0734 9.27821 30.2703 10.0634 30.3543 10.8728V10.8742V10.877V10.8798V10.8826V10.8854V10.8882V10.891V10.8937V10.8965V10.8993V10.9021V10.9049V10.9077V10.9105V10.9133V10.9161V10.9189V10.9217V10.9245V10.9273V10.9301V10.9329V10.9357V10.9385V10.9413V10.9441V10.9469V10.9497V10.9525V10.9553V10.9581V10.9609V10.9637V10.9665V10.9693V10.9721V10.9749V10.9777V10.9805V10.9833V10.9861V10.9889V10.9917V10.9945V10.9973V11.0001V11.0029V11.0056V11.0084V11.0112V11.014V11.0168V11.0196V11.0224V11.0252V11.028V11.0308V11.0336V11.0364V11.0392V11.042V11.0448V11.0476V11.0504V11.0532V11.056V11.0588V11.0616V11.0644V11.0672V11.07V11.0728V11.0756V11.0784V11.0812V11.084V11.0868V11.0896V11.0924V11.0952V11.098V11.1008V11.1036V11.1064V11.1092V11.112V11.1147V11.1175V11.1203V11.1231V11.1259V11.1287V11.1315V11.1343V11.1371V11.1399V11.1427V11.1455V11.1483V11.1511V11.1539V11.1567V11.1595V11.1623V11.1651V11.1679V11.1707V11.1735V11.1763V11.1791V11.1819V11.1847V11.1875V11.1903V11.1931V11.1959V11.1987V11.2015V11.2043V11.2071V11.2099V11.2127V11.2155V11.2183V11.2211V11.2238V11.2266V11.2294V11.2322V11.235V11.2378V11.2406V11.2434V11.2462V11.249V11.2518V11.2546V11.2574V11.2602V11.263V11.2658V11.2686V11.2714V11.2742V11.277V11.2798V11.2826V11.2854V11.2882V11.291V11.2938V11.2966V11.2994V11.3022V11.305V11.3078V11.3106V11.3134V11.3162V11.319V11.3218V11.3246V11.3274V11.3302V11.3329V11.3357V11.3385V11.3413V11.3441V11.3469V11.3497V11.3525V11.3553V11.3581V11.3609V11.3637V11.3665V11.3693V11.3721V11.3749V11.3777V11.3805V11.3833V11.3861V11.3889V11.3917V11.3945V11.3973V11.4001V11.4029V11.4057V11.4085V11.4113V11.4141V11.4169V11.4197V11.4225V11.4253V11.4281V11.4309V11.4337V11.4365V11.4393V11.442V11.4448V11.4476V11.4504V11.4532V11.456V11.4588V11.4616V11.4644V11.4672V11.47V11.4728V11.4756V11.4784V11.4812V11.484V11.4868V11.4896V11.4924V11.4952V11.498V11.5008V11.5036V11.5064V11.5092V11.512V11.5148V11.5176V11.5204V11.5232V11.526V11.5288V11.5316V11.5344V11.5372V11.54V11.5428V11.5456V11.5483V11.5511V11.5539V11.5567V11.5595V11.5623V11.5651V11.5679V11.5707V11.5735V11.5763V11.5791V11.5819V11.5847V11.5875V11.5903V11.5931V11.5959V11.5987V11.6015V11.6043V11.6071V11.6099V11.6127V11.6155V11.6183V11.6211V11.6239V11.6267V11.6295V11.6323V11.6351V11.6379V11.6407V11.6435V11.6463V11.6491V11.6519V11.6547V11.6574V11.6602V11.663V11.6658V11.6686V11.6714V11.6742V11.677V11.6798V11.6826V11.6854V11.6882V11.691V11.6938V11.6966V11.6994V11.7022V11.705V11.7078V11.7106V11.7134V11.7162V11.719V11.7218V11.7246V11.7274V11.7302V11.733V11.7358V11.7386V11.7414V11.7442V11.747V11.7498V11.7526V11.7554V11.7582V11.761V11.7638V11.7665V11.7693V11.7721V11.7749V11.7777V11.7805V11.7833V11.7861V11.7889V11.7917V11.7945V11.7973V11.8001V11.8029V11.8057V11.8085V11.8113V11.8141V11.8169V11.8197V11.8225V11.8253V11.8281V11.8309V11.8337V11.8365V11.8393V11.8421V11.8449V11.8477V11.8505V11.8533V11.8561V11.8589V11.8617V11.8645V11.8673V11.8701V11.8729V11.8756V11.8784V11.8812V11.884V11.8868V11.8896V11.8924V11.8952V11.898V11.9008V11.9036V11.9064V11.9092V11.912V11.9148V11.9176V11.9204V11.9232V11.926V11.9288V11.9316V11.9344V11.9372V11.94V11.9428V11.9456V11.9484V11.9512V11.954V11.9568V11.9596V11.9624V11.9652V11.968V11.9708V11.9736V11.9764V11.9792V11.982V11.9847V11.9875V11.9903V11.9931V11.9959V11.9987V12.0015V12.0043V12.0071V12.0099V12.0127V12.0155V12.0183V12.0211V12.0239V12.0267V12.0295V12.0323V12.0351V12.0379V12.0407V12.0435V12.0463V12.0491V12.0519V12.0547V12.0575V12.0603V12.0631V12.0659V12.0687V12.0715V12.0743V12.0771V12.0799V12.0827V12.0855V12.0883V12.0911V12.0938V12.0966V12.0994V12.1022V12.105V12.1078V12.1106V12.1134V12.1162V12.119V12.1218V12.1246V12.1274V12.1302V12.133V12.1358V12.1386V12.1414V12.1442V12.147V12.1498V12.1526V12.1554V12.1582V12.161V12.1638V12.1666V12.1694V12.1722V12.175V12.1778V12.1806V12.1834V12.1862V12.189V12.1918V12.1946V12.1974V12.2002V12.203V12.2057V12.2085V12.2113V12.2141V12.2169V12.2197V12.2225V12.2253V12.2281V12.2309V12.2337V12.2365V12.2393V12.2421V12.2449V12.2458C29.9638 15.3123 28.3879 17.4736 25.5883 18.7836C24.826 19.0939 24.0408 19.2908 23.2313 19.3748H23.23H23.2272H23.2244H23.2216H23.2188H23.216H23.2132H23.2104H23.2076H23.2048H23.202H23.1992H23.1964H23.1936H23.1908H23.188H23.1852H23.1824H23.1796H23.1768H23.174H23.1712H23.1684H23.1656H23.1628H23.16H23.1572H23.1544H23.1516H23.1488H23.146H23.1432H23.1404H23.1376H23.1348H23.132H23.1292H23.1264H23.1236H23.1209H23.1181H23.1153H23.1125H23.1097H23.1069H23.1041H23.1013H23.0985H23.0957H23.0929H23.0901H23.0873H23.0845H23.0817H23.0789H23.0761H23.0733H23.0705H23.0677H23.0649H23.0621H23.0593H23.0565H23.0537H23.0509H23.0481H23.0453H23.0425H23.0397H23.0369H23.0341H23.0313H23.0285H23.0257H23.0229H23.0201H23.0173H23.0145H23.0118H23.009H23.0062H23.0034H23.0006H22.9978H22.995H22.9922H22.9894H22.9866H22.9838H22.981H22.9782H22.9754H22.9726H22.9698H22.967H22.9642H22.9614H22.9586H22.9558H22.953H22.9502H22.9474H22.9446H22.9418H22.939H22.9362H22.9334H22.9306H22.9278H22.925H22.9222H22.9194H22.9166H22.9138H22.911H22.9082H22.9054H22.9027H22.8999H22.8971H22.8943H22.8915H22.8887H22.8859H22.8831H22.8803H22.8775H22.8747H22.8719H22.8691H22.8663H22.8635H22.8607H22.8579H22.8551H22.8523H22.8495H22.8467H22.8439H22.8411H22.8383H22.8355H22.8327H22.8299H22.8271H22.8243H22.8215H22.8187H22.8159H22.8131H22.8103H22.8075H22.8047H22.8019H22.7991H22.7963H22.7936H22.7908H22.788H22.7852H22.7824H22.7796H22.7768H22.774H22.7712H22.7684H22.7656H22.7628H22.76H22.7572H22.7544H22.7516H22.7488H22.746H22.7432H22.7404H22.7376H22.7348H22.732H22.7292H22.7264H22.7236H22.7208H22.718H22.7152H22.7124H22.7096H22.7068H22.704H22.7012H22.6984H22.6956H22.6928H22.69H22.6872H22.6845H22.6817H22.6789H22.6761H22.6733H22.6705H22.6677H22.6649H22.6621H22.6593H22.6565H22.6537H22.6509H22.6481H22.6453H22.6425H22.6397H22.6369H22.6341H22.6313H22.6285H22.6257H22.6229H22.6201H22.6173H22.6145H22.6117H22.6089H22.6061H22.6033H22.6005H22.5977H22.5949H22.5921H22.5893H22.5865H22.5837H22.5809H22.5781H22.5754H22.5726H22.5698H22.567H22.5642H22.5614H22.5586H22.5558H22.553H22.5502H22.5474H22.5446H22.5418H22.539H22.5362H22.5334H22.5306H22.5278H22.525H22.5222H22.5194H22.5166H22.5138H22.511H22.5082H22.5054H22.5026H22.4998H22.497H22.4942H22.4914H22.4886H22.4858H22.483H22.4802H22.4774H22.4746H22.4718H22.4691H22.4663H22.4635H22.4607H22.4579H22.4551H22.4523H22.4495H22.4467H22.4439H22.4411H22.4383H22.4355H22.4327H22.4299H22.4271H22.4243H22.4215H22.4187H22.4159H22.4131H22.4103H22.4075H22.4047H22.4019H22.3991H22.3963H22.3935H22.3907H22.3879H22.3851H22.3823H22.3795H22.3767H22.3739H22.3711H22.3683H22.3655H22.3627H22.36H22.3572H22.3544H22.3516H22.3488H22.346H22.3432H22.3404H22.3376H22.3348H22.332H22.3292H22.3264H22.3236H22.3208H22.318H22.3152H22.3124H22.3096H22.3068H22.304H22.3012H22.2984H22.2956H22.2928H22.29H22.2872H22.2844H22.2816H22.2788H22.276H22.2732H22.2704H22.2676H22.2648H22.262H22.2592H22.2564H22.2536H22.2509H22.2481H22.2453H22.2425H22.2397H22.2369H22.2341H22.2313H22.2285H22.2257H22.2229H22.2201H22.2173H22.2145H22.2117H22.2089H22.2061H22.2033H22.2005H22.1977H22.1949H22.1921H22.1893H22.1865H22.1837H22.1809H22.1781H22.1753H22.1725H22.1697H22.1669H22.1641H22.1613H22.1585H22.1557H22.1529H22.1501H22.1473H22.1445H22.1418H22.139H22.1362H22.1334H22.1306H22.1278H22.125H22.1222H22.1194H22.1166H22.1138H22.111H22.1082H22.1054H22.1026H22.0998H22.097H22.0942H22.0914H22.0886H22.0858H22.083H22.0802H22.0774H22.0746H22.0718H22.069H22.0662H22.0634H22.0606H22.0578H22.055H22.0522H22.0494H22.0466H22.0438H22.041H22.0382H22.0354H22.0327H22.0299H22.0271H22.0243H22.0215H22.0187H22.0159H22.0131H22.0103H22.0075H22.0047H22.0019H21.9991H21.9963H21.9935H21.9907H21.9879H21.9851H21.9823H21.9795H21.9767H21.9739H21.9711H21.9683H21.9655H21.9627H21.9599H21.9571H21.9543H21.9515H21.9487H21.9459H21.9431H21.9403H21.9375H21.9347H21.9319H21.9291H21.9263H21.9235H21.9208H21.918H21.9152H21.9124H21.9096H21.9068H21.904H21.9012H21.8984H21.8956H21.8928H21.89H21.8872H21.8844H21.8816H21.8788H21.876H21.8732H21.8704H21.8676H21.8648H21.862H21.8592H21.8583C18.7918 18.9843 16.6305 17.4084 15.3206 14.6088C15.0102 13.8465 14.8133 13.0613 14.7293 12.2519V12.2505V12.2477V12.2449V12.2421V12.2393V12.2365V12.2337V12.2309V12.2281V12.2253V12.2225V12.2197V12.2169V12.2141V12.2113V12.2085V12.2057V12.203V12.2002V12.1974V12.1946V12.1918V12.189V12.1862V12.1834V12.1806V12.1778V12.175V12.1722V12.1694V12.1666V12.1638V12.161V12.1582V12.1554V12.1526V12.1498V12.147V12.1442V12.1414V12.1386V12.1358V12.133V12.1302V12.1274V12.1246V12.1218V12.119V12.1162V12.1134V12.1106V12.1078V12.105V12.1022V12.0994V12.0966V12.0938V12.0911V12.0883V12.0855V12.0827V12.0799V12.0771V12.0743V12.0715V12.0687V12.0659V12.0631V12.0603V12.0575V12.0547V12.0519V12.0491V12.0463V12.0435V12.0407V12.0379V12.0351V12.0323V12.0295V12.0267V12.0239V12.0211V12.0183V12.0155V12.0127V12.0099V12.0071V12.0043V12.0015V11.9987V11.9959V11.9931V11.9903V11.9875V11.9847V11.982V11.9792V11.9764V11.9736V11.9708V11.968V11.9652V11.9624V11.9596V11.9568V11.954V11.9512V11.9484V11.9456V11.9428V11.94V11.9372V11.9344V11.9316V11.9288V11.926V11.9232V11.9204V11.9176V11.9148V11.912V11.9092V11.9064V11.9036V11.9008V11.898V11.8952V11.8924V11.8896V11.8868V11.884V11.8812V11.8784V11.8756V11.8729V11.8701V11.8673V11.8645V11.8617V11.8589V11.8561V11.8533V11.8505V11.8477V11.8449V11.8421V11.8393V11.8365V11.8337V11.8309V11.8281V11.8253V11.8225V11.8197V11.8169V11.8141V11.8113V11.8085V11.8057V11.8029V11.8001V11.7973V11.7945V11.7917V11.7889V11.7861V11.7833V11.7805V11.7777V11.7749V11.7721V11.7693V11.7665V11.7638V11.761V11.7582V11.7554V11.7526V11.7498V11.747V11.7442V11.7414V11.7386V11.7358V11.733V11.7302V11.7274V11.7246V11.7218V11.719V11.7162V11.7134V11.7106V11.7078V11.705V11.7022V11.6994V11.6966V11.6938V11.691V11.6882V11.6854V11.6826V11.6798V11.677V11.6742V11.6714V11.6686V11.6658V11.663V11.6602V11.6574V11.6547V11.6519V11.6491V11.6463V11.6435V11.6407V11.6379V11.6351V11.6323V11.6295V11.6267V11.6239V11.6211V11.6183V11.6155V11.6127V11.6099V11.6071V11.6043V11.6015V11.5987V11.5959V11.5931V11.5903V11.5875V11.5847V11.5819V11.5791V11.5763V11.5735V11.5707V11.5679V11.5651V11.5623V11.5595V11.5567V11.5539V11.5511V11.5483V11.5456V11.5428V11.54V11.5372V11.5344V11.5316V11.5288V11.526V11.5232V11.5204V11.5176V11.5148V11.512V11.5092V11.5064V11.5036V11.5008V11.498V11.4952V11.4924V11.4896V11.4868V11.484V11.4812V11.4784V11.4756V11.4728V11.47V11.4672V11.4644V11.4616V11.4588V11.456V11.4532V11.4504V11.4476V11.4448V11.442V11.4393V11.4365V11.4337V11.4309V11.4281V11.4253V11.4225V11.4197V11.4169V11.4141V11.4113V11.4085V11.4057V11.4029V11.4001V11.3973V11.3945V11.3917V11.3889V11.3861V11.3833V11.3805V11.3777V11.3749V11.3721V11.3693V11.3665V11.3637V11.3609V11.3581V11.3553V11.3525V11.3497V11.3469V11.3441V11.3413V11.3385V11.3357V11.3329V11.3302V11.3274V11.3246V11.3218V11.319V11.3162V11.3134V11.3106V11.3078V11.305V11.3022V11.2994V11.2966V11.2938V11.291V11.2882V11.2854V11.2826V11.2798V11.277V11.2742V11.2714V11.2686V11.2658V11.263V11.2602V11.2574V11.2546V11.2518V11.249V11.2462V11.2434V11.2406V11.2378V11.235V11.2322V11.2294V11.2266V11.2238V11.2211V11.2183V11.2155V11.2127V11.2099V11.2071V11.2043V11.2015V11.1987V11.1959V11.1931V11.1903V11.1875V11.1847V11.1819V11.1791V11.1763V11.1735V11.1707V11.1679V11.1651V11.1623V11.1595V11.1567V11.1539V11.1511V11.1483V11.1455V11.1427V11.1399V11.1371V11.1343V11.1315V11.1287V11.1259V11.1231V11.1203V11.1175V11.1147V11.112V11.1092V11.1064V11.1036V11.1008V11.098V11.0952V11.0924V11.0896V11.0868V11.084V11.0812V11.0784V11.0756V11.0728V11.07V11.0672V11.0644V11.0616V11.0588V11.056V11.0532V11.0504V11.0476V11.0448V11.042V11.0392V11.0364V11.0336V11.0308V11.028V11.0252V11.0224V11.0196V11.0168V11.014V11.0112V11.0084V11.0056V11.0029V11.0001V10.9973V10.9945V10.9917V10.9889V10.9861V10.9833V10.9805V10.9777V10.9749V10.9721V10.9693V10.9665V10.9637V10.9609V10.9581V10.9553V10.9525V10.9497V10.9469V10.9441V10.9413V10.9385V10.9357V10.9329V10.9301V10.9273V10.9245V10.9217V10.9189V10.9161V10.9133V10.9105V10.9077V10.9049V10.9021V10.8993V10.8965V10.8937V10.891V10.8882V10.8854V10.8826V10.8798V10.8788L23.2253 3.74984Z" stroke="black" stroke-width="1.04167"/>
</svg>
