<svg width="27" height="27" viewBox="0 0 27 27" fill="none" xmlns="http://www.w3.org/2000/svg">
<path d="M4.5 12.375V4.5H12.375V12.375H4.5ZM5.625 11.25H11.25V5.625H5.625V11.25ZM4.5 22.5V14.625H12.375V22.5H4.5ZM5.625 21.375H11.25V15.75H5.625V21.375ZM14.625 12.375V4.5H22.5V12.375H14.625ZM15.75 11.25H21.375V5.625H15.75V11.25ZM20.5312 22.5V20.5312H22.5V22.5H20.5312ZM14.625 16.5937V14.625H16.5937V16.5937H14.625ZM16.5937 18.5625V16.5937H18.5625V18.5625H16.5937ZM14.625 20.5312V18.5625H16.5937V20.5312H14.625ZM16.5937 22.5V20.5312H18.5625V22.5H16.5937ZM18.5625 20.5312V18.5625H20.5312V20.5312H18.5625ZM18.5625 16.5937V14.625H20.5312V16.5937H18.5625ZM20.5312 18.5625V16.5937H22.5V18.5625H20.5312Z" fill="black"/>
</svg>
