<svg width="26" height="24" viewBox="0 0 26 24" fill="none" xmlns="http://www.w3.org/2000/svg">
<path d="M0.619995 7.66628V12.6195H1.858V20.0463H0.619995V23.7603H20.428L24.142 23.7615L25.38 23.7603V20.0463H24.142V12.6195H25.38V7.66628L13 0.238281L0.619995 7.66628ZM5.572 20.0463V12.6195H8.048V20.0463H5.572ZM11.762 20.0463V12.6195H14.238V20.0463H11.762ZM20.428 20.0463H17.952V12.6195H20.428V20.0463ZM15.476 7.66628C15.4759 7.99152 15.4118 8.31355 15.2872 8.614C15.1627 8.91444 14.9802 9.18742 14.7502 9.41733C14.5201 9.64725 14.2471 9.82961 13.9466 9.954C13.6461 10.0784 13.324 10.1424 12.9988 10.1423C12.6735 10.1422 12.3515 10.0781 12.051 9.95352C11.7506 9.82899 11.4776 9.64649 11.2477 9.41646C11.0178 9.18643 10.8354 8.91336 10.711 8.61285C10.5867 8.31234 10.5227 7.99028 10.5228 7.66504C10.5229 7.0082 10.784 6.37833 11.2486 5.91399C11.7132 5.44965 12.3432 5.18888 13 5.18904C13.6568 5.18921 14.2867 5.45029 14.751 5.91487C15.2154 6.37944 15.4762 7.00944 15.476 7.66628Z" fill="#49B6F4"/>
</svg>
