<svg width="17" height="17" viewBox="0 0 17 17" fill="none" xmlns="http://www.w3.org/2000/svg">
<path fill-rule="evenodd" clip-rule="evenodd" d="M15.2024 16.557C15.7603 16.7455 16.2923 16.2134 16.1039 15.6555L11.5776 1.44583C11.368 0.825383 10.5019 0.794086 10.2481 1.39803L7.52007 7.59301C7.44795 7.76458 7.31151 7.90103 7.13993 7.97315L0.94495 10.7012C0.341026 10.955 0.372204 11.8211 0.992758 12.0307L15.2024 16.557ZM3.22843 11.2848L14.2963 14.7495L10.8315 3.6817L8.83131 8.1443C8.82317 8.16396 8.81456 8.18338 8.80572 8.20269L10.4814 9.87829L9.4756 10.8841L7.81781 9.22642C7.77629 9.24724 7.73406 9.26667 7.69091 9.2847L3.22843 11.2848Z" fill="#49B6F4"/>
<path d="M1.41725 2.85558L5.10464 6.54297L6.11044 5.53716L2.42306 1.84978L1.41725 2.85558Z" fill="#49B6F4"/>
<path d="M2.53451 7.88477L1.41725 6.76741L2.42306 5.76161L3.54041 6.87896L2.53451 7.88477Z" fill="#49B6F4"/>
</svg>
