<svg width="72" height="98" viewBox="0 0 72 98" fill="none" xmlns="http://www.w3.org/2000/svg">
<g filter="url(#filter0_dd_157_1318)">
<rect x="8" y="6" width="56" height="56" rx="12" fill="white"/>
<path d="M45 34C45 38.9706 40.9706 43 36 43C31.0294 43 27 38.9706 27 34C27 29.0294 31.0294 25 36 25C39.5337 25 42.5273 27.0366 44 30" stroke="#49B6F4" stroke-width="1.5" stroke-linecap="round"/>
<path d="M36 31V34.1716C36 34.702 36.2107 35.2107 36.5858 35.5858L38 37" stroke="#49B6F4" stroke-width="1.5" stroke-linecap="round"/>
<path d="M44 27V30H41" stroke="#49B6F4" stroke-width="1.5" stroke-linecap="round" stroke-linejoin="round"/>
</g>
<path d="M19.1516 81V73.3794H21.9237C22.4351 73.3794 22.8852 73.4749 23.2739 73.6658C23.6626 73.8499 23.9661 74.1227 24.1843 74.4841C24.4093 74.8387 24.5218 75.2649 24.5218 75.7628C24.5218 76.2878 24.3889 76.7379 24.1229 77.113C23.8638 77.488 23.5126 77.7608 23.0693 77.9313L24.8287 81H23.458L21.5861 77.6756L22.3737 78.1359H20.3586V81H19.1516ZM20.3586 77.0618H21.9441C22.2237 77.0618 22.4658 77.0073 22.6704 76.8982C22.875 76.7891 23.0318 76.639 23.1409 76.4481C23.2568 76.2503 23.3148 76.0185 23.3148 75.7525C23.3148 75.4866 23.2568 75.2581 23.1409 75.0672C23.0318 74.8694 22.875 74.7194 22.6704 74.6171C22.4658 74.508 22.2237 74.4534 21.9441 74.4534H20.3586V77.0618ZM28.0204 81.1227C27.468 81.1227 26.977 80.9966 26.5474 80.7443C26.1246 80.4851 25.7939 80.1374 25.5552 79.7009C25.3165 79.2577 25.1972 78.7633 25.1972 78.2177C25.1972 77.6585 25.3165 77.1641 25.5552 76.7345C25.8007 76.3049 26.128 75.9673 26.5372 75.7218C26.9463 75.4695 27.4101 75.3434 27.9283 75.3434C28.3443 75.3434 28.716 75.415 29.0433 75.5582C29.3706 75.7014 29.6468 75.8991 29.8718 76.1515C30.0969 76.397 30.2674 76.68 30.3833 77.0005C30.506 77.321 30.5674 77.6619 30.5674 78.0234C30.5674 78.112 30.564 78.2041 30.5572 78.2995C30.5504 78.395 30.5367 78.4837 30.5163 78.5655H26.1076V77.6449H29.8616L29.3092 78.0643C29.3774 77.7301 29.3536 77.4335 29.2376 77.1744C29.1285 76.9084 28.958 76.7004 28.7262 76.5504C28.5011 76.3935 28.2352 76.3151 27.9283 76.3151C27.6215 76.3151 27.3487 76.3935 27.11 76.5504C26.8713 76.7004 26.6872 76.9186 26.5576 77.205C26.4281 77.4846 26.3769 77.8256 26.4042 78.2279C26.3701 78.603 26.4213 78.9303 26.5576 79.2099C26.7008 79.4895 26.8986 79.7077 27.1509 79.8646C27.4101 80.0214 27.7033 80.0998 28.0306 80.0998C28.3648 80.0998 28.6478 80.0248 28.8796 79.8748C29.1183 79.7248 29.3058 79.5304 29.4422 79.2918L30.3833 79.7521C30.2742 80.0112 30.1037 80.2465 29.8718 80.4579C29.6468 80.6624 29.374 80.8261 29.0535 80.9489C28.7398 81.0648 28.3954 81.1227 28.0204 81.1227ZM34.3243 81.1227C33.772 81.1227 33.281 80.9966 32.8513 80.7443C32.4286 80.4851 32.091 80.1374 31.8387 79.7009C31.5932 79.2645 31.4704 78.7701 31.4704 78.2177C31.4704 77.6722 31.5932 77.1812 31.8387 76.7447C32.0842 76.3083 32.4217 75.9673 32.8513 75.7218C33.281 75.4695 33.772 75.3434 34.3243 75.3434C34.6994 75.3434 35.0506 75.4116 35.3779 75.5479C35.7052 75.6775 35.9882 75.8582 36.2269 76.0901C36.4724 76.3219 36.6531 76.5913 36.7691 76.8982L35.7564 77.3687C35.6405 77.0823 35.4529 76.8538 35.1938 76.6834C34.9415 76.5061 34.6517 76.4174 34.3243 76.4174C34.0106 76.4174 33.7276 76.4958 33.4753 76.6527C33.2298 76.8027 33.0355 77.0175 32.8923 77.2971C32.7491 77.5699 32.6775 77.8802 32.6775 78.2279C32.6775 78.5757 32.7491 78.8894 32.8923 79.169C33.0355 79.4418 33.2298 79.6566 33.4753 79.8134C33.7276 79.9703 34.0106 80.0487 34.3243 80.0487C34.6585 80.0487 34.9483 79.9635 35.1938 79.793C35.4461 79.6157 35.6336 79.3804 35.7564 79.0872L36.7691 79.5679C36.6599 79.8612 36.4826 80.1271 36.2371 80.3658C35.9985 80.5977 35.7155 80.7818 35.3881 80.9182C35.0608 81.0546 34.7062 81.1227 34.3243 81.1227ZM40.497 81.1227C39.9446 81.1227 39.4536 80.9966 39.024 80.7443C38.6012 80.4851 38.2705 80.1374 38.0318 79.7009C37.7931 79.2577 37.6738 78.7633 37.6738 78.2177C37.6738 77.6585 37.7931 77.1641 38.0318 76.7345C38.2773 76.3049 38.6046 75.9673 39.0138 75.7218C39.4229 75.4695 39.8866 75.3434 40.4049 75.3434C40.8209 75.3434 41.1925 75.415 41.5199 75.5582C41.8472 75.7014 42.1234 75.8991 42.3484 76.1515C42.5734 76.397 42.7439 76.68 42.8599 77.0005C42.9826 77.321 43.044 77.6619 43.044 78.0234C43.044 78.112 43.0406 78.2041 43.0338 78.2995C43.0269 78.395 43.0133 78.4837 42.9928 78.5655H38.5841V77.6449H42.3382L41.7858 78.0643C41.854 77.7301 41.8301 77.4335 41.7142 77.1744C41.6051 76.9084 41.4346 76.7004 41.2028 76.5504C40.9777 76.3935 40.7118 76.3151 40.4049 76.3151C40.098 76.3151 39.8253 76.3935 39.5866 76.5504C39.3479 76.7004 39.1638 76.9186 39.0342 77.205C38.9046 77.4846 38.8535 77.8256 38.8808 78.2279C38.8467 78.603 38.8978 78.9303 39.0342 79.2099C39.1774 79.4895 39.3752 79.7077 39.6275 79.8646C39.8866 80.0214 40.1799 80.0998 40.5072 80.0998C40.8413 80.0998 41.1243 80.0248 41.3562 79.8748C41.5949 79.7248 41.7824 79.5304 41.9188 79.2918L42.8599 79.7521C42.7508 80.0112 42.5803 80.2465 42.3484 80.4579C42.1234 80.6624 41.8506 80.8261 41.5301 80.9489C41.2164 81.0648 40.872 81.1227 40.497 81.1227ZM44.172 81V75.4661H45.2768V76.5504L45.1438 76.4072C45.2802 76.0594 45.4984 75.7969 45.7985 75.6195C46.0985 75.4354 46.4463 75.3434 46.8418 75.3434C47.251 75.3434 47.6124 75.432 47.9261 75.6093C48.2398 75.7866 48.4853 76.0321 48.6626 76.3458C48.8399 76.6595 48.9285 77.0209 48.9285 77.4301V81H47.7829V77.737C47.7829 77.4574 47.7317 77.2221 47.6294 77.0312C47.5272 76.8334 47.3805 76.6834 47.1896 76.5811C47.0055 76.472 46.7941 76.4174 46.5554 76.4174C46.3167 76.4174 46.1019 76.472 45.911 76.5811C45.7269 76.6834 45.5836 76.8334 45.4814 77.0312C45.3791 77.2289 45.3279 77.4642 45.3279 77.737V81H44.172ZM52.5592 81.0614C51.9795 81.0614 51.5295 80.8977 51.209 80.5704C50.8884 80.2431 50.7282 79.7827 50.7282 79.1895V76.5095H49.7564V75.4661H49.9099C50.169 75.4661 50.3702 75.3911 50.5134 75.2411C50.6566 75.0911 50.7282 74.8865 50.7282 74.6273V74.1977H51.8841V75.4661H53.1422V76.5095H51.8841V79.1383C51.8841 79.3293 51.9148 79.4929 51.9761 79.6293C52.0375 79.7589 52.1364 79.8612 52.2728 79.9362C52.4092 80.0044 52.5865 80.0385 52.8047 80.0385C52.8592 80.0385 52.9206 80.0351 52.9888 80.0282C53.057 80.0214 53.1218 80.0146 53.1832 80.0078V81C53.0877 81.0136 52.982 81.0273 52.8661 81.0409C52.7501 81.0546 52.6478 81.0614 52.5592 81.0614ZM19.0317 95V87.3794H20.2388V90.7345H23.7678V87.3794H24.9646V95H23.7678V91.8086H20.2388V95H19.0317ZM26.4311 95V89.4661H27.587V95H26.4311ZM26.4311 88.7092V87.3794H27.587V88.7092H26.4311ZM30.9842 95.1227C30.4182 95.1227 29.9204 94.983 29.4908 94.7034C29.068 94.4238 28.7714 94.0487 28.6009 93.5782L29.4908 93.1588C29.6408 93.4725 29.8454 93.7214 30.1045 93.9055C30.3705 94.0896 30.6637 94.1817 30.9842 94.1817C31.257 94.1817 31.4786 94.1203 31.6491 93.9976C31.8196 93.8748 31.9048 93.7077 31.9048 93.4963C31.9048 93.36 31.8673 93.2508 31.7923 93.169C31.7173 93.0804 31.6218 93.0088 31.5059 92.9542C31.3968 92.8996 31.2843 92.8587 31.1684 92.8315L30.2989 92.586C29.8215 92.4496 29.4635 92.245 29.2249 91.9722C28.993 91.6926 28.8771 91.3687 28.8771 91.0005C28.8771 90.6663 28.9623 90.3765 29.1328 90.131C29.3033 89.8787 29.5385 89.6843 29.8386 89.5479C30.1386 89.4116 30.4762 89.3434 30.8513 89.3434C31.3559 89.3434 31.806 89.4695 32.2015 89.7218C32.597 89.9673 32.8766 90.3117 33.0403 90.755L32.1503 91.1744C32.0412 90.9084 31.8673 90.697 31.6287 90.5402C31.3968 90.3833 31.1343 90.3049 30.841 90.3049C30.5887 90.3049 30.3875 90.3663 30.2375 90.489C30.0875 90.6049 30.0125 90.7584 30.0125 90.9493C30.0125 91.0789 30.0466 91.188 30.1148 91.2766C30.183 91.3585 30.2716 91.4267 30.3807 91.4812C30.4898 91.529 30.6024 91.5699 30.7183 91.604L31.6184 91.8699C32.0753 91.9995 32.4265 92.2041 32.672 92.4837C32.9175 92.7564 33.0403 93.0838 33.0403 93.4657C33.0403 93.793 32.9516 94.0828 32.7743 94.3351C32.6038 94.5806 32.3652 94.775 32.0583 94.9182C31.7514 95.0546 31.3934 95.1227 30.9842 95.1227ZM36.5664 95.0614C35.9867 95.0614 35.5367 94.8977 35.2162 94.5704C34.8957 94.2431 34.7354 93.7827 34.7354 93.1895V90.5095H33.7636V89.4661H33.9171C34.1762 89.4661 34.3774 89.3911 34.5206 89.2411C34.6638 89.0911 34.7354 88.8865 34.7354 88.6273V88.1977H35.8913V89.4661H37.1494V90.5095H35.8913V93.1383C35.8913 93.3293 35.922 93.4929 35.9833 93.6293C36.0447 93.7589 36.1436 93.8612 36.28 93.9362C36.4164 94.0044 36.5937 94.0385 36.8119 94.0385C36.8664 94.0385 36.9278 94.0351 36.996 94.0282C37.0642 94.0214 37.129 94.0146 37.1904 94.0078V95C37.0949 95.0136 36.9892 95.0273 36.8733 95.0409C36.7573 95.0546 36.655 95.0614 36.5664 95.0614ZM40.8882 95.1227C40.3563 95.1227 39.8687 94.9966 39.4255 94.7443C38.989 94.492 38.6413 94.1476 38.3821 93.7111C38.123 93.2747 37.9934 92.7803 37.9934 92.2279C37.9934 91.6688 38.123 91.1744 38.3821 90.7447C38.6413 90.3083 38.989 89.9673 39.4255 89.7218C39.8619 89.4695 40.3495 89.3434 40.8882 89.3434C41.4338 89.3434 41.9214 89.4695 42.351 89.7218C42.7874 89.9673 43.1318 90.3083 43.3841 90.7447C43.6432 91.1744 43.7728 91.6688 43.7728 92.2279C43.7728 92.7871 43.6432 93.2849 43.3841 93.7214C43.125 94.1578 42.7772 94.5022 42.3407 94.7545C41.9043 95 41.4201 95.1227 40.8882 95.1227ZM40.8882 94.0487C41.2155 94.0487 41.5054 93.9703 41.7577 93.8134C42.01 93.6566 42.2078 93.4418 42.351 93.169C42.501 92.8894 42.576 92.5757 42.576 92.2279C42.576 91.8802 42.501 91.5699 42.351 91.2971C42.2078 91.0243 42.01 90.8095 41.7577 90.6527C41.5054 90.4958 41.2155 90.4174 40.8882 90.4174C40.5677 90.4174 40.2779 90.4958 40.0188 90.6527C39.7664 90.8095 39.5653 91.0243 39.4152 91.2971C39.272 91.5699 39.2004 91.8802 39.2004 92.2279C39.2004 92.5757 39.272 92.8894 39.4152 93.169C39.5653 93.4418 39.7664 93.6566 40.0188 93.8134C40.2779 93.9703 40.5677 94.0487 40.8882 94.0487ZM44.9013 95V89.4661H46.006V90.5811L45.9037 90.4174C46.0265 90.056 46.2242 89.7969 46.497 89.64C46.7698 89.4763 47.0971 89.3945 47.479 89.3945H47.8165V90.4481H47.3358C46.9539 90.4481 46.6436 90.5674 46.4049 90.8061C46.1731 91.038 46.0571 91.3721 46.0571 91.8086V95H44.9013ZM49.0983 97.2606C48.9619 97.2606 48.8255 97.247 48.6891 97.2197C48.5595 97.1992 48.4402 97.1651 48.3311 97.1174V96.1252C48.4129 96.1456 48.5118 96.1627 48.6277 96.1763C48.7437 96.1968 48.8562 96.207 48.9653 96.207C49.2858 96.207 49.5211 96.1354 49.6711 95.9922C49.8279 95.8558 49.9677 95.641 50.0905 95.3478L50.4587 94.509L50.4383 95.4808L48.0447 89.4661H49.2824L51.052 94.0794H50.6326L52.392 89.4661H53.6399L51.1952 95.6035C51.0656 95.9308 50.902 96.2173 50.7042 96.4627C50.5133 96.7151 50.2848 96.9094 50.0189 97.0458C49.7597 97.189 49.4529 97.2606 49.0983 97.2606Z" fill="#F8F8F8"/>
<defs>
<filter id="filter0_dd_157_1318" x="0" y="0" width="72" height="72" filterUnits="userSpaceOnUse" color-interpolation-filters="sRGB">
<feFlood flood-opacity="0" result="BackgroundImageFix"/>
<feColorMatrix in="SourceAlpha" type="matrix" values="0 0 0 0 0 0 0 0 0 0 0 0 0 0 0 0 0 0 127 0" result="hardAlpha"/>
<feOffset dy="1"/>
<feGaussianBlur stdDeviation="1"/>
<feColorMatrix type="matrix" values="0 0 0 0 0 0 0 0 0 0 0 0 0 0 0 0 0 0 0.3 0"/>
<feBlend mode="normal" in2="BackgroundImageFix" result="effect1_dropShadow_157_1318"/>
<feColorMatrix in="SourceAlpha" type="matrix" values="0 0 0 0 0 0 0 0 0 0 0 0 0 0 0 0 0 0 127 0" result="hardAlpha"/>
<feMorphology radius="2" operator="dilate" in="SourceAlpha" result="effect2_dropShadow_157_1318"/>
<feOffset dy="2"/>
<feGaussianBlur stdDeviation="3"/>
<feColorMatrix type="matrix" values="0 0 0 0 0 0 0 0 0 0 0 0 0 0 0 0 0 0 0.15 0"/>
<feBlend mode="normal" in2="effect1_dropShadow_157_1318" result="effect2_dropShadow_157_1318"/>
<feBlend mode="normal" in="SourceGraphic" in2="effect2_dropShadow_157_1318" result="shape"/>
</filter>
</defs>
</svg>
