<svg width="13" height="11" viewBox="0 0 13 11" fill="none" xmlns="http://www.w3.org/2000/svg">
<path d="M12.892 5.52951C12.8216 5.45976 12.7295 5.4222 12.632 5.4222C12.5345 5.4222 12.4424 5.45976 12.372 5.52951L12.0198 5.87829C12.1363 4.22024 11.4917 2.59171 10.2512 1.45146C9.23275 0.515122 7.90015 0 6.50254 0C5.77936 0 5.07243 0.136829 4.40612 0.405122C3.71545 0.684146 3.0979 1.09195 2.57244 1.62049C2.21491 1.98 1.90614 2.38512 1.66237 2.82244C1.61091 2.91366 1.60007 3.02098 1.62987 3.12024C1.65966 3.21951 1.73279 3.30268 1.82488 3.34829C1.87905 3.37512 1.93864 3.38854 1.99823 3.38854C2.13907 3.38854 2.26637 3.31341 2.33409 3.19268C2.54806 2.80902 2.81621 2.45488 3.1304 2.14366C3.58544 1.69293 4.1136 1.34415 4.70406 1.10537C5.27557 0.874634 5.87957 0.759268 6.49712 0.759268C7.11738 0.759268 7.72138 0.874634 8.29289 1.10537C8.88335 1.34415 9.41422 1.69293 9.86926 2.14634C10.4191 2.69366 10.8281 3.36976 11.0556 4.10488C11.2452 4.71927 11.3048 5.3739 11.2344 6.01512L10.7225 5.51878C10.6547 5.45439 10.5654 5.41683 10.4706 5.41683C10.3758 5.41683 10.2837 5.45439 10.216 5.52146C10.0751 5.66097 10.0751 5.88634 10.216 6.02585L11.3752 7.17683C11.4267 7.22781 11.4944 7.25463 11.5648 7.25463C11.6352 7.25463 11.7029 7.22781 11.7544 7.17683L12.8947 6.04463C13.0355 5.90244 13.0355 5.67171 12.892 5.52951ZM11.1748 7.64366C11.1206 7.61683 11.061 7.60341 11.0014 7.60341C10.8606 7.60341 10.7333 7.67854 10.6656 7.79927C10.4516 8.18293 10.1834 8.53707 9.86926 8.84829C9.41422 9.29902 8.88606 9.65049 8.29289 9.88659C7.72138 10.1173 7.11738 10.2327 6.49712 10.2327C5.87686 10.2327 5.27286 10.1173 4.70406 9.88659C4.1136 9.6478 3.58273 9.29902 3.12769 8.84829C2.10928 7.83415 1.61091 6.40951 1.76529 4.98756L2.26367 5.4839C2.32867 5.54829 2.41534 5.58317 2.50743 5.58317C2.59953 5.58317 2.6862 5.54829 2.7512 5.4839L2.78642 5.44902C2.91913 5.31756 2.91913 5.10024 2.78642 4.96878L1.62445 3.81512C1.57299 3.76415 1.50527 3.73732 1.43485 3.73732C1.36443 3.73732 1.29672 3.76415 1.24525 3.81512L0.107665 4.95C-0.0358882 5.0922 -0.0358882 5.32293 0.107665 5.46512C0.178087 5.53488 0.270177 5.57244 0.367685 5.57244C0.465193 5.57244 0.557283 5.53488 0.627705 5.46512L0.979816 5.11366C0.931062 5.80585 1.01503 6.50878 1.22358 7.1661C1.49173 8.00854 1.94947 8.75707 2.58598 9.38756C3.11415 9.91341 3.72899 10.3185 4.41696 10.5976C5.08055 10.8659 5.78207 11 6.49983 11C7.21759 11 7.91911 10.8632 8.5827 10.5976C9.27067 10.3212 9.88551 9.91341 10.4137 9.38756C10.7793 9.02537 11.0908 8.61488 11.34 8.16951C11.3915 8.07829 11.4023 7.97097 11.3725 7.87171C11.34 7.77244 11.2696 7.68927 11.1748 7.64366Z" fill="#6F6F6F"/>
</svg>
