<svg width="69" height="51" viewBox="0 0 69 51" fill="none" xmlns="http://www.w3.org/2000/svg">
<path d="M31.8781 2.56589C30.1795 2.88381 28.8352 4.49611 28.9078 6.12204C28.926 6.43541 28.9442 6.50354 29.0396 6.608C29.2848 6.87142 28.9714 6.85779 34.3988 6.85779C39.8261 6.85779 39.5127 6.87142 39.758 6.608C39.8533 6.50354 39.8715 6.43541 39.8897 6.12204C39.9532 4.6914 38.8723 3.1881 37.4371 2.70668C37.2509 2.6431 36.9694 2.57043 36.8059 2.54772C36.3562 2.47505 32.2823 2.48868 31.8781 2.56589Z" fill="#999999"/>
<path d="M26.746 3.8331C26.0057 4.0193 25.388 4.6506 25.2291 5.39544C25.1564 5.73606 25.1564 23.7848 25.2291 24.1254C25.3017 24.4615 25.5106 24.8611 25.7514 25.1155C25.9875 25.3653 26.4553 25.6287 26.805 25.7014C27.1457 25.774 41.6518 25.774 41.9925 25.7014C42.7645 25.5379 43.4049 24.8929 43.5684 24.1254C43.6411 23.7802 43.6411 5.73606 43.5684 5.39544C43.4458 4.82318 43.0461 4.29635 42.542 4.03293C42.1423 3.82401 41.8698 3.76951 41.2113 3.76951H40.6708L40.8298 4.1056C41.0977 4.68693 41.2158 5.20923 41.2431 5.90865C41.2658 6.46728 41.2567 6.55811 41.1659 6.83061C41.0569 7.1667 40.7662 7.58908 40.5164 7.77983C40.421 7.84795 40.2121 7.97058 40.0395 8.05233L39.7352 8.19766H34.3987H29.0623L28.758 8.05233C28.5854 7.97058 28.3765 7.84795 28.2811 7.77983C28.0313 7.58908 27.7406 7.1667 27.6316 6.83061C27.5408 6.55811 27.5317 6.46728 27.5544 5.90865C27.5817 5.20923 27.6997 4.68693 27.9677 4.1056L28.1267 3.76951L27.5499 3.77405C27.2319 3.77405 26.8732 3.8013 26.746 3.8331ZM38.8405 10.9227C39.1312 11.0998 39.1675 11.2588 39.1675 12.3806C39.1675 13.2389 39.1584 13.3979 39.0858 13.5342C38.7996 14.1064 37.9231 13.9747 37.8186 13.3434L37.7914 13.1617L36.6741 14.2745C35.466 15.478 35.3979 15.528 35.0482 15.4326C34.912 15.3963 34.6531 15.1646 33.7765 14.2926L32.6729 13.1981L31.6192 14.2472C30.4747 15.3826 30.3975 15.4371 30.0523 15.3418C29.8253 15.2782 29.5982 15.0465 29.5573 14.8331C29.4937 14.4788 29.5391 14.4198 30.9834 12.9755C32.4413 11.5176 32.4685 11.4995 32.8409 11.5812C32.9772 11.613 33.2043 11.8174 34.1126 12.7257L35.2163 13.8294L36.011 13.0346C36.4471 12.5986 36.8058 12.2261 36.8058 12.208C36.8058 12.1853 36.7559 12.1716 36.6923 12.1716C36.4243 12.1716 36.1518 11.9264 36.0973 11.6403C36.0383 11.3178 36.2518 10.9499 36.5606 10.8546C36.6333 10.8318 37.1419 10.8182 37.6915 10.8228C38.5953 10.8318 38.7043 10.8409 38.8405 10.9227ZM31.9099 16.8996C32.1733 17.0858 32.2687 17.4945 32.1143 17.7806C32.0779 17.8533 31.6692 18.2893 31.2105 18.7435C30.5156 19.4293 30.3476 19.5701 30.2068 19.5973C29.8661 19.6609 29.7435 19.6019 29.2575 19.1295C28.6262 18.5164 28.5218 18.2802 28.7216 17.8942C28.8261 17.6898 29.085 17.5308 29.312 17.5308C29.4892 17.5308 29.6981 17.6353 29.8934 17.817L30.0387 17.9578L30.5746 17.4309C30.8653 17.1357 31.1787 16.8678 31.265 16.8269C31.4603 16.7406 31.7282 16.7724 31.9099 16.8996ZM39.8079 17.6353C40.2212 17.9124 40.2121 18.4574 39.7852 18.7753C39.6626 18.8706 39.6172 18.8706 36.6923 18.8706C33.7674 18.8706 33.722 18.8706 33.5994 18.7753C33.1725 18.4574 33.1634 17.9124 33.5767 17.6353L33.7311 17.5308H36.6923H39.6535L39.8079 17.6353ZM31.9235 20.819C32.1688 20.978 32.2641 21.4095 32.1143 21.6865C32.0779 21.7592 31.6692 22.1952 31.2105 22.6493C30.3158 23.535 30.2567 23.5758 29.8707 23.5032C29.7299 23.4805 29.6027 23.3806 29.1894 22.9627C28.7807 22.5494 28.6762 22.4223 28.6535 22.2815C28.5581 21.7819 29.0168 21.3322 29.4846 21.473C29.58 21.5003 29.7435 21.6002 29.848 21.691L30.0433 21.8545L30.6019 21.3095C30.9607 20.9553 31.2059 20.7509 31.2922 20.7327C31.3649 20.7146 31.4466 20.6964 31.4694 20.6919C31.5511 20.6692 31.81 20.7464 31.9235 20.819ZM39.7307 21.5003C40.2257 21.7092 40.2348 22.4677 39.7398 22.7038C39.5536 22.7992 39.4809 22.7992 36.6923 22.7992C33.931 22.7992 33.831 22.7947 33.6494 22.7084C33.2724 22.5267 33.1543 22.0498 33.3996 21.7092C33.5949 21.4322 33.5131 21.4412 36.6832 21.4367C39.054 21.4367 39.6081 21.4503 39.7307 21.5003Z" fill="#999999"/>
<path d="M16.3558 38.3162H19.4447C19.8435 38.3162 20.2139 38.3814 20.5558 38.5116C20.9058 38.6418 21.2069 38.829 21.4592 39.0732C21.7116 39.3093 21.9069 39.5901 22.0453 39.9157C22.1918 40.2412 22.2651 40.5994 22.2651 40.9901C22.2651 41.2912 22.2121 41.5761 22.1063 41.8447C22.0087 42.1133 21.8703 42.3575 21.6912 42.5773C21.5121 42.7889 21.3005 42.9721 21.0563 43.1267C20.8203 43.2814 20.5639 43.3953 20.2871 43.4686L20.2749 43.5296L22.668 46.9848V47.0581H21.0563L18.7488 43.6517H17.7354V47.0581H16.3558V38.3162ZM19.4081 42.3575C19.6116 42.3575 19.7988 42.325 19.9697 42.2599C20.1488 42.1866 20.3034 42.0889 20.4337 41.9668C20.5639 41.8447 20.6656 41.7023 20.7389 41.5395C20.8203 41.3686 20.861 41.1814 20.861 40.9779C20.861 40.8151 20.8284 40.6523 20.7633 40.4895C20.7063 40.3267 20.6168 40.1802 20.4947 40.05C20.3808 39.9197 20.2342 39.8139 20.0552 39.7325C19.8842 39.6511 19.6848 39.6104 19.4569 39.6104H17.7354V42.3575H19.4081ZM28.8931 45.6296C28.6408 46.0936 28.2826 46.4802 27.8187 46.7895C27.3547 47.0988 26.7849 47.2535 26.1094 47.2535C25.6617 47.2535 25.2466 47.1761 24.864 47.0215C24.4896 46.8587 24.164 46.6348 23.8873 46.35C23.6105 46.0651 23.3948 45.7314 23.2402 45.3488C23.0855 44.9581 23.0082 44.5308 23.0082 44.0668C23.0082 43.6354 23.0815 43.2285 23.228 42.8459C23.3745 42.4552 23.578 42.1174 23.8384 41.8325C24.107 41.5395 24.4286 41.3075 24.803 41.1366C25.1774 40.9657 25.5925 40.8802 26.0483 40.8802C26.5123 40.8802 26.9233 40.9575 27.2815 41.1122C27.6477 41.2668 27.957 41.4825 28.2094 41.7593C28.4617 42.036 28.653 42.3697 28.7832 42.7604C28.9216 43.1511 28.9908 43.5785 28.9908 44.0424C28.9908 44.0831 28.9908 44.1197 28.9908 44.1523C28.9826 44.193 28.9786 44.2296 28.9786 44.2622C28.9704 44.2947 28.9663 44.3273 28.9663 44.3598H24.3634C24.3879 44.6447 24.457 44.893 24.571 45.1046C24.6849 45.3162 24.8233 45.4912 24.9861 45.6296C25.157 45.768 25.3442 45.8697 25.5477 45.9348C25.7512 46 25.9506 46.0325 26.146 46.0325C26.5367 46.0325 26.8582 45.9389 27.1105 45.7517C27.3629 45.5645 27.5704 45.3325 27.7332 45.0558L28.8931 45.6296ZM27.6355 43.3221C27.6192 43.2 27.5786 43.0657 27.5134 42.9192C27.4565 42.7645 27.3629 42.6261 27.2326 42.504C27.1105 42.3738 26.9477 42.2639 26.7442 42.1744C26.5489 42.0849 26.3088 42.0401 26.0239 42.0401C25.6332 42.0401 25.2954 42.1581 25.0105 42.3942C24.7338 42.6221 24.5466 42.9314 24.4489 43.3221H27.6355ZM29.9663 41.0755H31.2482V41.8447H31.3215C31.4843 41.5843 31.7325 41.3604 32.0663 41.1732C32.4 40.9779 32.7988 40.8802 33.2628 40.8802C33.6453 40.8802 34.0075 40.9616 34.3494 41.1244C34.6994 41.279 35.0046 41.4988 35.2651 41.7837C35.5256 42.0686 35.7331 42.4064 35.8878 42.7971C36.0424 43.1796 36.1198 43.6029 36.1198 44.0668C36.1198 44.5308 36.0424 44.9581 35.8878 45.3488C35.7331 45.7314 35.5256 46.0651 35.2651 46.35C35.0046 46.6348 34.6994 46.8587 34.3494 47.0215C34.0075 47.1761 33.6453 47.2535 33.2628 47.2535C32.7988 47.2535 32.4 47.1598 32.0663 46.9726C31.7325 46.7773 31.4843 46.5494 31.3215 46.2889H31.2482L31.3215 47.1192V49.6953H29.9663V41.0755ZM33.0064 45.9959C33.2343 45.9959 33.4541 45.9511 33.6657 45.8616C33.8854 45.7721 34.0727 45.6459 34.2273 45.4831C34.3901 45.3122 34.5203 45.1087 34.618 44.8726C34.7157 44.6366 34.7645 44.368 34.7645 44.0668C34.7645 43.7657 34.7157 43.4971 34.618 43.261C34.5203 43.025 34.3901 42.8255 34.2273 42.6628C34.0727 42.4918 33.8854 42.3616 33.6657 42.2721C33.4541 42.1825 33.2343 42.1378 33.0064 42.1378C32.7703 42.1378 32.5465 42.1825 32.3349 42.2721C32.1232 42.3616 31.936 42.4878 31.7732 42.6505C31.6186 42.8133 31.4924 43.0168 31.3948 43.261C31.2971 43.4971 31.2482 43.7657 31.2482 44.0668C31.2482 44.368 31.2971 44.6407 31.3948 44.8848C31.4924 45.1209 31.6186 45.3203 31.7732 45.4831C31.936 45.6459 32.1232 45.7721 32.3349 45.8616C32.5465 45.9511 32.7703 45.9959 33.0064 45.9959ZM39.9289 40.8802C40.3847 40.8802 40.8039 40.9616 41.1864 41.1244C41.569 41.279 41.8986 41.4988 42.1754 41.7837C42.4521 42.0686 42.6678 42.4064 42.8225 42.7971C42.9771 43.1878 43.0544 43.611 43.0544 44.0668C43.0544 44.5226 42.9771 44.9459 42.8225 45.3366C42.6678 45.7273 42.4521 46.0651 42.1754 46.35C41.8986 46.6348 41.569 46.8587 41.1864 47.0215C40.8039 47.1761 40.3847 47.2535 39.9289 47.2535C39.473 47.2535 39.0539 47.1761 38.6713 47.0215C38.2887 46.8587 37.9591 46.6348 37.6824 46.35C37.4056 46.0651 37.1899 45.7273 37.0353 45.3366C36.8806 44.9459 36.8033 44.5226 36.8033 44.0668C36.8033 43.611 36.8806 43.1878 37.0353 42.7971C37.1899 42.4064 37.4056 42.0686 37.6824 41.7837C37.9591 41.4988 38.2887 41.279 38.6713 41.1244C39.0539 40.9616 39.473 40.8802 39.9289 40.8802ZM39.9289 45.9959C40.1568 45.9959 40.3765 45.9511 40.5882 45.8616C40.7998 45.7721 40.987 45.6459 41.1498 45.4831C41.3207 45.3203 41.455 45.1209 41.5527 44.8848C41.6504 44.6407 41.6992 44.368 41.6992 44.0668C41.6992 43.7657 41.6504 43.4971 41.5527 43.261C41.455 43.0168 41.3207 42.8133 41.1498 42.6505C40.987 42.4878 40.7998 42.3616 40.5882 42.2721C40.3765 42.1825 40.1568 42.1378 39.9289 42.1378C39.701 42.1378 39.4812 42.1825 39.2696 42.2721C39.0579 42.3616 38.8667 42.4878 38.6957 42.6505C38.5329 42.8133 38.4027 43.0168 38.305 43.261C38.2074 43.4971 38.1585 43.7657 38.1585 44.0668C38.1585 44.368 38.2074 44.6407 38.305 44.8848C38.4027 45.1209 38.5329 45.3203 38.6957 45.4831C38.8667 45.6459 39.0579 45.7721 39.2696 45.8616C39.4812 45.9511 39.701 45.9959 39.9289 45.9959ZM45.2472 41.979H45.3204C45.4832 41.6372 45.7274 41.3726 46.053 41.1854C46.3867 40.9982 46.753 40.9046 47.1518 40.9046C47.282 40.9046 47.3756 40.9087 47.4326 40.9168C47.4977 40.925 47.5629 40.9372 47.628 40.9535V42.3209C47.5384 42.2883 47.4489 42.268 47.3594 42.2599C47.278 42.2436 47.1681 42.2354 47.0297 42.2354C46.5169 42.2354 46.1018 42.3942 45.7844 42.7116C45.4751 43.0209 45.3204 43.4319 45.3204 43.9447V47.0581H43.9652V41.0755H45.2472V41.979ZM49.4594 42.2721H48.4094V41.0755H49.4594V39.2442H50.8146V41.0755H52.2919V42.2721H50.8146V44.9337C50.8146 45.0802 50.8309 45.2145 50.8634 45.3366C50.896 45.4587 50.9448 45.5604 51.0099 45.6418C51.1483 45.7965 51.3233 45.8738 51.5349 45.8738C51.6652 45.8738 51.7669 45.8657 51.8402 45.8494C51.9134 45.825 51.9908 45.7924 52.0722 45.7517L52.4873 46.9482C52.3163 47.0133 52.1373 47.0622 51.9501 47.0947C51.7629 47.1354 51.5512 47.1558 51.3152 47.1558C51.0303 47.1558 50.778 47.111 50.5582 47.0215C50.3384 46.9319 50.1472 46.8098 49.9844 46.6552C49.6344 46.3052 49.4594 45.829 49.4594 45.2267V42.2721Z" fill="#999999"/>
</svg>
