<svg width="17" height="28" viewBox="0 0 17 28" fill="none" xmlns="http://www.w3.org/2000/svg">
<path d="M6.65535 22.2603L6.65499 22.2597L1.80002 13.8309C1.79997 13.8308 1.79991 13.8307 1.79986 13.8306C0.94667 12.3439 2.01981 10.5 3.72663 10.5H13.4036C15.1103 10.5 16.1835 12.3438 15.3304 13.8305C15.3303 13.8306 15.3303 13.8308 15.3302 13.8309L10.4752 22.2597L10.4748 22.2603C9.62177 23.7463 7.50842 23.7463 6.65535 22.2603Z" stroke="white"/>
<path d="M6.54729 10.4008C6.52195 10.3847 6.50775 10.3722 6.50024 10.3641V0.635864C6.50775 0.627842 6.52195 0.615312 6.54729 0.599207C6.6266 0.548799 6.77004 0.5 6.96178 0.5H10.0387C10.2304 0.5 10.3739 0.548799 10.4532 0.599207C10.4785 0.615312 10.4927 0.627841 10.5002 0.635864V10.3641C10.4927 10.3722 10.4785 10.3847 10.4532 10.4008C10.3739 10.4512 10.2304 10.5 10.0387 10.5H6.96178C6.77004 10.5 6.6266 10.4512 6.54729 10.4008ZM6.49279 0.645992C6.49257 0.645948 6.4932 0.644467 6.49529 0.641683C6.49404 0.644644 6.493 0.646036 6.49279 0.645992ZM10.5077 0.645992C10.5075 0.646036 10.5064 0.644644 10.5052 0.641683C10.5073 0.644467 10.5079 0.645948 10.5077 0.645992ZM10.5077 10.354C10.5079 10.3541 10.5073 10.3555 10.5052 10.3583C10.5064 10.3554 10.5075 10.354 10.5077 10.354ZM6.49529 10.3583C6.4932 10.3555 6.49257 10.3541 6.49279 10.354C6.493 10.354 6.49404 10.3554 6.49529 10.3583Z" stroke="white"/>
<mask id="path-3-inside-1_638_3819" fill="white">
<path d="M14.1517 27.3203H3.19347C1.7099 27.3203 0.529785 26.1402 0.529785 24.6566C0.529785 24.3869 0.765808 24.1509 1.03555 24.1509C1.30529 24.1509 1.54131 24.3869 1.54131 24.6566C1.54131 25.567 2.2831 26.3088 3.19347 26.3088H14.1517C15.0621 26.3088 15.8038 25.567 15.8038 24.6566C15.8038 24.3869 16.0399 24.1509 16.3096 24.1509C16.5793 24.1509 16.8154 24.3869 16.8154 24.6566C16.8154 26.1402 15.6015 27.3203 14.1517 27.3203Z"/>
</mask>
<path d="M14.1517 27.3203H3.19347C1.7099 27.3203 0.529785 26.1402 0.529785 24.6566C0.529785 24.3869 0.765808 24.1509 1.03555 24.1509C1.30529 24.1509 1.54131 24.3869 1.54131 24.6566C1.54131 25.567 2.2831 26.3088 3.19347 26.3088H14.1517C15.0621 26.3088 15.8038 25.567 15.8038 24.6566C15.8038 24.3869 16.0399 24.1509 16.3096 24.1509C16.5793 24.1509 16.8154 24.3869 16.8154 24.6566C16.8154 26.1402 15.6015 27.3203 14.1517 27.3203Z" fill="#288CDE"/>
<path d="M14.1517 24.6022H3.19347V30.0385H14.1517V24.6022ZM3.19347 24.6022C3.18592 24.6022 3.19099 24.6013 3.20211 24.6059C3.21164 24.6099 3.22027 24.6158 3.2273 24.6228C3.23434 24.6298 3.24021 24.6385 3.2442 24.648C3.24887 24.6591 3.24792 24.6642 3.24792 24.6566H-2.18835C-2.18835 27.6414 0.208714 30.0385 3.19347 30.0385V24.6022ZM3.24792 24.6566C3.24792 25.3216 2.96191 25.8662 2.60353 26.2246C2.24515 26.583 1.70048 26.869 1.03555 26.869V21.4327C-0.735378 21.4327 -2.18835 22.8857 -2.18835 24.6566H3.24792ZM1.03555 26.869C0.370613 26.869 -0.174053 26.583 -0.532431 26.2246C-0.890809 25.8662 -1.17683 25.3216 -1.17683 24.6566H4.25945C4.25945 22.8857 2.80648 21.4327 1.03555 21.4327V26.869ZM-1.17683 24.6566C-1.17683 27.0682 0.781913 29.0269 3.19347 29.0269V23.5907C3.78429 23.5907 4.25945 24.0658 4.25945 24.6566H-1.17683ZM3.19347 29.0269H14.1517V23.5907H3.19347V29.0269ZM14.1517 29.0269C16.5633 29.0269 18.522 27.0682 18.522 24.6566H13.0857C13.0857 24.0658 13.5609 23.5907 14.1517 23.5907V29.0269ZM18.522 24.6566C18.522 25.3216 18.236 25.8662 17.8776 26.2246C17.5192 26.583 16.9745 26.869 16.3096 26.869V21.4327C14.5387 21.4327 13.0857 22.8857 13.0857 24.6566H18.522ZM16.3096 26.869C15.6447 26.869 15.1 26.583 14.7416 26.2246C14.3833 25.8662 14.0972 25.3216 14.0972 24.6566H19.5335C19.5335 22.8857 18.0805 21.4327 16.3096 21.4327V26.869ZM14.0972 24.6566C14.0972 24.6567 14.0972 24.6564 14.0973 24.6559C14.0973 24.6554 14.0973 24.6546 14.0974 24.6537C14.0976 24.6519 14.098 24.6495 14.0985 24.6468C14.0997 24.6411 14.1015 24.6355 14.1036 24.6305C14.1078 24.6207 14.112 24.616 14.1136 24.6144C14.1151 24.613 14.1179 24.6105 14.1244 24.6078C14.1325 24.6044 14.1429 24.6022 14.1517 24.6022V30.0385C17.0803 30.0385 19.5335 27.6637 19.5335 24.6566H14.0972Z" fill="white" mask="url(#path-3-inside-1_638_3819)"/>
</svg>
