<svg width="29" height="28" viewBox="0 0 29 28" fill="none" xmlns="http://www.w3.org/2000/svg">
<path fill-rule="evenodd" clip-rule="evenodd" d="M8.71892 3.25244L8.67294 3.25244C7.51479 3.25243 6.58084 3.25242 5.83149 3.32865C5.058 3.40733 4.3872 3.57423 3.79379 3.97073C3.32842 4.28169 2.92884 4.68126 2.61789 5.14664C2.22139 5.74004 2.05449 6.41084 1.9758 7.18433C1.90502 7.88017 1.89997 8.73519 1.89962 9.78109L1.8996 9.78763L1.89962 9.79363L1.8996 10.0258L1.8996 10.0718V17.4594L1.8996 17.5054C1.89958 18.6635 1.89957 19.5975 1.9758 20.3468C2.05449 21.1203 2.22139 21.7911 2.61789 22.3845C2.92884 22.8499 3.32842 23.2495 3.79379 23.5604C4.3872 23.9569 5.058 24.1238 5.83149 24.2025C6.58083 24.2787 7.51476 24.2787 8.67288 24.2787H8.67291H8.67294H8.67297H8.71893H19.5162H19.5622H19.5622H19.5622H19.5622C20.7204 24.2787 21.6543 24.2787 22.4036 24.2025C23.1771 24.1238 23.8479 23.9569 24.4413 23.5604C24.9067 23.2495 25.3063 22.8499 25.6172 22.3845C26.0137 21.7911 26.1806 21.1203 26.2593 20.3468C26.3356 19.5975 26.3355 18.6636 26.3355 17.5055V17.5055V17.5055V17.5054V17.4594V13.7656C26.3355 13.2948 25.9539 12.9132 25.4831 12.9132C25.0123 12.9132 24.6307 13.2948 24.6307 13.7656V17.4594C24.6307 18.6743 24.6297 19.5213 24.5632 20.1743C24.4983 20.813 24.3779 21.1708 24.1997 21.4374C24.0132 21.7166 23.7734 21.9563 23.4942 22.1429C23.2276 22.321 22.8698 22.4415 22.2311 22.5064C21.5782 22.5728 20.7311 22.5739 19.5162 22.5739H8.71893C7.504 22.5739 6.65697 22.5728 6.00403 22.5064C5.36533 22.4415 5.00754 22.321 4.74095 22.1429C4.46172 21.9563 4.22198 21.7166 4.0354 21.4374C3.85727 21.1708 3.73686 20.813 3.67188 20.1743C3.60546 19.5213 3.60443 18.6743 3.60443 17.4594V10.64H16.3907C16.8615 10.64 17.2431 10.2584 17.2431 9.78763C17.2431 9.31686 16.8615 8.93522 16.3907 8.93522H3.60747C3.61298 8.29373 3.62845 7.78381 3.67188 7.35687C3.73686 6.71818 3.85727 6.36039 4.0354 6.09379C4.22198 5.81457 4.46172 5.57482 4.74095 5.38825C5.00754 5.21012 5.36533 5.0897 6.00403 5.02473C6.65697 4.95831 7.504 4.95727 8.71892 4.95727H16.3907C16.8615 4.95727 17.2431 4.57563 17.2431 4.10486C17.2431 3.63408 16.8615 3.25244 16.3907 3.25244H8.71892ZM6.44582 18.8801C6.44582 18.4093 6.82746 18.0277 7.29823 18.0277H11.8445C12.3152 18.0277 12.6969 18.4093 12.6969 18.8801C12.6969 19.3509 12.3152 19.7325 11.8445 19.7325H7.29823C6.82746 19.7325 6.44582 19.3509 6.44582 18.8801ZM15.2541 18.0277C14.7833 18.0277 14.4017 18.4093 14.4017 18.8801C14.4017 19.3509 14.7833 19.7325 15.2541 19.7325H17.5272C17.998 19.7325 18.3796 19.3509 18.3796 18.8801C18.3796 18.4093 17.998 18.0277 17.5272 18.0277H15.2541Z" fill="#49B6F4"/>
<path d="M21.7893 3.8208V9.50358" stroke="#49B6F4" stroke-width="1.70483" stroke-linecap="round"/>
<path d="M24.6307 8.36694L21.7893 11.2083" stroke="#49B6F4" stroke-width="1.70483" stroke-linecap="round"/>
<path d="M18.9479 8.36694L21.7893 11.2083" stroke="#49B6F4" stroke-width="1.70483" stroke-linecap="round"/>
</svg>
