<svg width="72" height="98" viewBox="0 0 72 98" fill="none" xmlns="http://www.w3.org/2000/svg">
<g filter="url(#filter0_dd_157_1303)">
<rect x="8" y="6" width="56" height="56" rx="12" fill="white"/>
<path fill-rule="evenodd" clip-rule="evenodd" d="M31 24.5H30.9595H30.9595C29.9405 24.5 29.1188 24.5 28.4595 24.5671C27.7789 24.6363 27.1887 24.7831 26.6666 25.132C26.2571 25.4056 25.9056 25.7571 25.632 26.1666C25.2831 26.6887 25.1363 27.2789 25.0671 27.9595C25.0048 28.5717 25.0003 29.324 25 30.2442L25 30.25L25 30.2554L25 30.4595V30.4595V30.5V37V37.0405V37.0405C25 38.0595 25 38.8812 25.0671 39.5405C25.1363 40.2211 25.2831 40.8113 25.632 41.3334C25.9056 41.7429 26.2571 42.0944 26.6666 42.368C27.1887 42.7169 27.7789 42.8637 28.4595 42.933C29.1188 43 29.9405 43 30.9595 43H30.9595H30.9596H30.9596H31H40.5H40.5404H40.5404H40.5405H40.5405C41.5595 43 42.3812 43 43.0405 42.933C43.7211 42.8637 44.3113 42.7169 44.8334 42.368C45.2429 42.0944 45.5944 41.7429 45.868 41.3334C46.2169 40.8113 46.3637 40.2211 46.433 39.5405C46.5 38.8812 46.5 38.0595 46.5 37.0405V37.0405V37.0404V37.0404V37V33.75C46.5 33.3358 46.1642 33 45.75 33C45.3358 33 45 33.3358 45 33.75V37C45 38.069 44.9991 38.8142 44.9407 39.3887C44.8835 39.9507 44.7775 40.2655 44.6208 40.5C44.4566 40.7457 44.2457 40.9566 44 41.1208C43.7655 41.2775 43.4507 41.3835 42.8887 41.4407C42.3142 41.4991 41.569 41.5 40.5 41.5H31C29.931 41.5 29.1858 41.4991 28.6113 41.4407C28.0493 41.3835 27.7345 41.2775 27.5 41.1208C27.2543 40.9566 27.0434 40.7457 26.8792 40.5C26.7225 40.2655 26.6165 39.9507 26.5593 39.3887C26.5009 38.8142 26.5 38.069 26.5 37V31H37.75C38.1642 31 38.5 30.6642 38.5 30.25C38.5 29.8358 38.1642 29.5 37.75 29.5H26.5027C26.5075 28.9356 26.5211 28.4869 26.5593 28.1113C26.6165 27.5493 26.7225 27.2345 26.8792 27C27.0434 26.7543 27.2543 26.5434 27.5 26.3792C27.7345 26.2225 28.0493 26.1165 28.6113 26.0593C29.1858 26.0009 29.931 26 31 26H37.75C38.1642 26 38.5 25.6642 38.5 25.25C38.5 24.8358 38.1642 24.5 37.75 24.5H31ZM29 38.25C29 37.8358 29.3358 37.5 29.75 37.5H33.75C34.1642 37.5 34.5 37.8358 34.5 38.25C34.5 38.6642 34.1642 39 33.75 39H29.75C29.3358 39 29 38.6642 29 38.25ZM36.75 37.5C36.3358 37.5 36 37.8358 36 38.25C36 38.6642 36.3358 39 36.75 39H38.75C39.1642 39 39.5 38.6642 39.5 38.25C39.5 37.8358 39.1642 37.5 38.75 37.5H36.75Z" fill="#49B6F4"/>
<path d="M42.5 25V30" stroke="#49B6F4" stroke-width="1.5" stroke-linecap="round"/>
<path d="M45 29L42.5 31.5" stroke="#49B6F4" stroke-width="1.5" stroke-linecap="round"/>
<path d="M40 29L42.5 31.5" stroke="#49B6F4" stroke-width="1.5" stroke-linecap="round"/>
</g>
<path d="M16.2098 81V73.3794H18.9818C19.4933 73.3794 19.9434 73.4749 20.3321 73.6658C20.7208 73.8499 21.0242 74.1227 21.2424 74.4841C21.4675 74.8387 21.58 75.2649 21.58 75.7628C21.58 76.2878 21.447 76.7379 21.1811 77.113C20.9219 77.488 20.5707 77.7608 20.1275 77.9313L21.8869 81H20.5162L18.6443 77.6756L19.4319 78.1359H17.4168V81H16.2098ZM17.4168 77.0618H19.0023C19.2819 77.0618 19.524 77.0073 19.7285 76.8982C19.9331 76.7891 20.09 76.639 20.1991 76.4481C20.315 76.2503 20.373 76.0185 20.373 75.7525C20.373 75.4866 20.315 75.2581 20.1991 75.0672C20.09 74.8694 19.9331 74.7194 19.7285 74.6171C19.524 74.508 19.2819 74.4534 19.0023 74.4534H17.4168V77.0618ZM25.0786 81.1227C24.5262 81.1227 24.0352 80.9966 23.6056 80.7443C23.1828 80.4851 22.852 80.1374 22.6134 79.7009C22.3747 79.2577 22.2553 78.7633 22.2553 78.2177C22.2553 77.6585 22.3747 77.1641 22.6134 76.7345C22.8589 76.3049 23.1862 75.9673 23.5953 75.7218C24.0045 75.4695 24.4682 75.3434 24.9865 75.3434C25.4025 75.3434 25.7741 75.415 26.1015 75.5582C26.4288 75.7014 26.705 75.8991 26.93 76.1515C27.155 76.397 27.3255 76.68 27.4414 77.0005C27.5642 77.321 27.6256 77.6619 27.6256 78.0234C27.6256 78.112 27.6222 78.2041 27.6153 78.2995C27.6085 78.395 27.5949 78.4837 27.5744 78.5655H23.1657V77.6449H26.9198L26.3674 78.0643C26.4356 77.7301 26.4117 77.4335 26.2958 77.1744C26.1867 76.9084 26.0162 76.7004 25.7844 76.5504C25.5593 76.3935 25.2934 76.3151 24.9865 76.3151C24.6796 76.3151 24.4068 76.3935 24.1682 76.5504C23.9295 76.7004 23.7454 76.9186 23.6158 77.205C23.4862 77.4846 23.4351 77.8256 23.4624 78.2279C23.4283 78.603 23.4794 78.9303 23.6158 79.2099C23.759 79.4895 23.9568 79.7077 24.2091 79.8646C24.4682 80.0214 24.7615 80.0998 25.0888 80.0998C25.4229 80.0998 25.7059 80.0248 25.9378 79.8748C26.1765 79.7248 26.364 79.5304 26.5004 79.2918L27.4414 79.7521C27.3323 80.0112 27.1619 80.2465 26.93 80.4579C26.705 80.6624 26.4322 80.8261 26.1117 80.9489C25.798 81.0648 25.4536 81.1227 25.0786 81.1227ZM33.1112 83.0458V79.8748L33.2953 80.0896C33.1044 80.4238 32.8316 80.6795 32.477 80.8568C32.1224 81.0341 31.7337 81.1227 31.3109 81.1227C30.779 81.1227 30.3016 80.9966 29.8788 80.7443C29.4628 80.4851 29.1321 80.1374 28.8866 79.7009C28.6479 79.2645 28.5286 78.7735 28.5286 78.2279C28.5286 77.6824 28.6513 77.1914 28.8968 76.755C29.1423 76.3185 29.4731 75.9742 29.8891 75.7218C30.305 75.4695 30.7756 75.3434 31.3007 75.3434C31.7439 75.3434 32.136 75.432 32.477 75.6093C32.818 75.7866 33.0873 76.0321 33.2851 76.3458L33.1623 76.6118V75.4661H34.2568V83.0458H33.1112ZM31.4234 80.0487C31.7439 80.0487 32.0303 79.9703 32.2826 79.8134C32.5418 79.6566 32.7429 79.4418 32.8862 79.169C33.0362 78.8894 33.1112 78.5757 33.1112 78.2279C33.1112 77.8802 33.0362 77.5699 32.8862 77.2971C32.7429 77.0243 32.5418 76.8095 32.2826 76.6527C32.0303 76.4958 31.7439 76.4174 31.4234 76.4174C31.1029 76.4174 30.8131 76.4958 30.5539 76.6527C30.2948 76.8095 30.0936 77.0243 29.9504 77.2971C29.8072 77.5699 29.7356 77.8802 29.7356 78.2279C29.7356 78.5757 29.8072 78.8894 29.9504 79.169C30.0936 79.4418 30.2914 79.6566 30.5437 79.8134C30.8028 79.9703 31.0961 80.0487 31.4234 80.0487ZM37.5805 81.1227C37.1645 81.1227 36.7996 81.0307 36.486 80.8466C36.1723 80.6556 35.9268 80.3931 35.7495 80.0589C35.579 79.718 35.4937 79.3259 35.4937 78.8826V75.4661H36.6496V78.7803C36.6496 79.0326 36.7008 79.2543 36.8031 79.4452C36.9053 79.6361 37.0486 79.7862 37.2327 79.8953C37.4168 79.9976 37.6282 80.0487 37.8669 80.0487C38.1124 80.0487 38.3272 79.9941 38.5113 79.885C38.6954 79.7759 38.8386 79.6225 38.9409 79.4247C39.05 79.227 39.1046 78.9951 39.1046 78.7292V75.4661H40.2502V81H39.1557V79.9157L39.2785 80.0589C39.1489 80.3999 38.9341 80.6624 38.634 80.8466C38.334 81.0307 37.9828 81.1227 37.5805 81.1227ZM44.198 81.1227C43.6456 81.1227 43.1546 80.9966 42.725 80.7443C42.3022 80.4851 41.9715 80.1374 41.7328 79.7009C41.4941 79.2577 41.3748 78.7633 41.3748 78.2177C41.3748 77.6585 41.4941 77.1641 41.7328 76.7345C41.9783 76.3049 42.3056 75.9673 42.7148 75.7218C43.1239 75.4695 43.5877 75.3434 44.1059 75.3434C44.5219 75.3434 44.8936 75.415 45.2209 75.5582C45.5482 75.7014 45.8244 75.8991 46.0494 76.1515C46.2745 76.397 46.4449 76.68 46.5609 77.0005C46.6836 77.321 46.745 77.6619 46.745 78.0234C46.745 78.112 46.7416 78.2041 46.7348 78.2995C46.728 78.395 46.7143 78.4837 46.6939 78.5655H42.2852V77.6449H46.0392L45.4868 78.0643C45.555 77.7301 45.5312 77.4335 45.4152 77.1744C45.3061 76.9084 45.1356 76.7004 44.9038 76.5504C44.6787 76.3935 44.4128 76.3151 44.1059 76.3151C43.799 76.3151 43.5263 76.3935 43.2876 76.5504C43.0489 76.7004 42.8648 76.9186 42.7352 77.205C42.6057 77.4846 42.5545 77.8256 42.5818 78.2279C42.5477 78.603 42.5988 78.9303 42.7352 79.2099C42.8784 79.4895 43.0762 79.7077 43.3285 79.8646C43.5876 80.0214 43.8809 80.0998 44.2082 80.0998C44.5424 80.0998 44.8254 80.0248 45.0572 79.8748C45.2959 79.7248 45.4834 79.5304 45.6198 79.2918L46.5609 79.7521C46.4518 80.0112 46.2813 80.2465 46.0494 80.4579C45.8244 80.6624 45.5516 80.8261 45.2311 80.9489C44.9174 81.0648 44.573 81.1227 44.198 81.1227ZM49.9189 81.1227C49.3529 81.1227 48.855 80.983 48.4254 80.7034C48.0026 80.4238 47.706 80.0487 47.5355 79.5782L48.4254 79.1588C48.5755 79.4725 48.78 79.7214 49.0392 79.9055C49.3051 80.0896 49.5984 80.1817 49.9189 80.1817C50.1916 80.1817 50.4133 80.1203 50.5837 79.9976C50.7542 79.8748 50.8395 79.7077 50.8395 79.4963C50.8395 79.36 50.802 79.2508 50.727 79.169C50.6519 79.0804 50.5565 79.0088 50.4405 78.9542C50.3314 78.8996 50.2189 78.8587 50.103 78.8315L49.2335 78.586C48.7562 78.4496 48.3982 78.245 48.1595 77.9722C47.9276 77.6926 47.8117 77.3687 47.8117 77.0005C47.8117 76.6663 47.8969 76.3765 48.0674 76.131C48.2379 75.8787 48.4732 75.6843 48.7732 75.5479C49.0733 75.4116 49.4108 75.3434 49.7859 75.3434C50.2905 75.3434 50.7406 75.4695 51.1361 75.7218C51.5316 75.9673 51.8112 76.3117 51.9749 76.755L51.085 77.1744C50.9759 76.9084 50.802 76.697 50.5633 76.5402C50.3314 76.3833 50.0689 76.3049 49.7757 76.3049C49.5233 76.3049 49.3222 76.3663 49.1721 76.489C49.0221 76.6049 48.9471 76.7584 48.9471 76.9493C48.9471 77.0789 48.9812 77.188 49.0494 77.2766C49.1176 77.3585 49.2062 77.4267 49.3154 77.4812C49.4245 77.529 49.537 77.5699 49.6529 77.604L50.5531 77.8699C51.01 77.9995 51.3612 78.2041 51.6066 78.4837C51.8521 78.7564 51.9749 79.0838 51.9749 79.4657C51.9749 79.793 51.8862 80.0828 51.7089 80.3351C51.5385 80.5806 51.2998 80.775 50.9929 80.9182C50.686 81.0546 50.328 81.1227 49.9189 81.1227ZM55.501 81.0614C54.9214 81.0614 54.4713 80.8977 54.1508 80.5704C53.8303 80.2431 53.67 79.7827 53.67 79.1895V76.5095H52.6983V75.4661H52.8517C53.1108 75.4661 53.312 75.3911 53.4552 75.2411C53.5984 75.0911 53.67 74.8865 53.67 74.6273V74.1977H54.8259V75.4661H56.0841V76.5095H54.8259V79.1383C54.8259 79.3293 54.8566 79.4929 54.918 79.6293C54.9793 79.7589 55.0782 79.8612 55.2146 79.9362C55.351 80.0044 55.5283 80.0385 55.7465 80.0385C55.8011 80.0385 55.8624 80.0351 55.9306 80.0282C55.9988 80.0214 56.0636 80.0146 56.125 80.0078V81C56.0295 81.0136 55.9238 81.0273 55.8079 81.0409C55.692 81.0546 55.5897 81.0614 55.501 81.0614ZM19.9308 95V87.3794H21.056L23.9201 91.3482H23.3575L26.1705 87.3794H27.2956V95H26.0989V88.8012L26.5489 88.924L23.6746 92.8519H23.5518L20.7389 88.924L21.1378 88.8012V95H19.9308ZM31.4284 95.1227C30.8965 95.1227 30.4089 94.9966 29.9657 94.7443C29.5292 94.492 29.1814 94.1476 28.9223 93.7111C28.6632 93.2747 28.5336 92.7803 28.5336 92.2279C28.5336 91.6688 28.6632 91.1744 28.9223 90.7447C29.1814 90.3083 29.5292 89.9673 29.9657 89.7218C30.4021 89.4695 30.8897 89.3434 31.4284 89.3434C31.9739 89.3434 32.4615 89.4695 32.8911 89.7218C33.3276 89.9673 33.672 90.3083 33.9243 90.7447C34.1834 91.1744 34.313 91.6688 34.313 92.2279C34.313 92.7871 34.1834 93.2849 33.9243 93.7214C33.6651 94.1578 33.3174 94.5022 32.8809 94.7545C32.4445 95 31.9603 95.1227 31.4284 95.1227ZM31.4284 94.0487C31.7557 94.0487 32.0455 93.9703 32.2979 93.8134C32.5502 93.6566 32.7479 93.4418 32.8911 93.169C33.0412 92.8894 33.1162 92.5757 33.1162 92.2279C33.1162 91.8802 33.0412 91.5699 32.8911 91.2971C32.7479 91.0243 32.5502 90.8095 32.2979 90.6527C32.0455 90.4958 31.7557 90.4174 31.4284 90.4174C31.1079 90.4174 30.8181 90.4958 30.5589 90.6527C30.3066 90.8095 30.1054 91.0243 29.9554 91.2971C29.8122 91.5699 29.7406 91.8802 29.7406 92.2279C29.7406 92.5757 29.8122 92.8894 29.9554 93.169C30.1054 93.4418 30.3066 93.6566 30.5589 93.8134C30.8181 93.9703 31.1079 94.0487 31.4284 94.0487ZM35.4414 95V89.4661H36.5462V90.5504L36.4132 90.4072C36.5496 90.0594 36.7678 89.7969 37.0679 89.6195C37.3679 89.4354 37.7157 89.3434 38.1112 89.3434C38.5204 89.3434 38.8818 89.432 39.1955 89.6093C39.5092 89.7866 39.7547 90.0321 39.932 90.3458C40.1093 90.6595 40.1979 91.0209 40.1979 91.4301V95H39.0523V91.737C39.0523 91.4574 39.0011 91.2221 38.8988 91.0312C38.7966 90.8334 38.6499 90.6834 38.459 90.5811C38.2749 90.472 38.0635 90.4174 37.8248 90.4174C37.5861 90.4174 37.3713 90.472 37.1804 90.5811C36.9962 90.6834 36.853 90.8334 36.7508 91.0312C36.6485 91.2289 36.5973 91.4642 36.5973 91.737V95H35.4414ZM44.0332 95.1227C43.4808 95.1227 42.9898 94.9966 42.5602 94.7443C42.1374 94.4851 41.8066 94.1374 41.568 93.7009C41.3293 93.2577 41.21 92.7633 41.21 92.2177C41.21 91.6585 41.3293 91.1641 41.568 90.7345C41.8135 90.3049 42.1408 89.9673 42.55 89.7218C42.9591 89.4695 43.4228 89.3434 43.9411 89.3434C44.3571 89.3434 44.7287 89.415 45.0561 89.5582C45.3834 89.7014 45.6596 89.8991 45.8846 90.1515C46.1096 90.397 46.2801 90.68 46.3961 91.0005C46.5188 91.321 46.5802 91.6619 46.5802 92.0234C46.5802 92.112 46.5768 92.2041 46.5699 92.2995C46.5631 92.395 46.5495 92.4837 46.529 92.5655H42.1203V91.6449H45.8744L45.322 92.0643C45.3902 91.7301 45.3663 91.4335 45.2504 91.1744C45.1413 90.9084 44.9708 90.7004 44.739 90.5504C44.5139 90.3935 44.248 90.3151 43.9411 90.3151C43.6342 90.3151 43.3615 90.3935 43.1228 90.5504C42.8841 90.7004 42.7 90.9186 42.5704 91.205C42.4408 91.4846 42.3897 91.8256 42.417 92.2279C42.3829 92.603 42.434 92.9303 42.5704 93.2099C42.7136 93.4895 42.9114 93.7077 43.1637 93.8646C43.4228 94.0214 43.7161 94.0998 44.0434 94.0998C44.3775 94.0998 44.6605 94.0248 44.8924 93.8748C45.1311 93.7248 45.3186 93.5304 45.455 93.2918L46.3961 93.7521C46.2869 94.0112 46.1165 94.2465 45.8846 94.4579C45.6596 94.6624 45.3868 94.8261 45.0663 94.9489C44.7526 95.0648 44.4082 95.1227 44.0332 95.1227ZM48.1992 97.2606C48.0628 97.2606 47.9265 97.247 47.7901 97.2197C47.6605 97.1992 47.5412 97.1651 47.4321 97.1174V96.1252C47.5139 96.1456 47.6128 96.1627 47.7287 96.1763C47.8446 96.1968 47.9571 96.207 48.0663 96.207C48.3868 96.207 48.622 96.1354 48.7721 95.9922C48.9289 95.8558 49.0687 95.641 49.1914 95.3478L49.5597 94.509L49.5392 95.4808L47.1456 89.4661H48.3834L50.153 94.0794H49.7336L51.493 89.4661H52.7409L50.2962 95.6035C50.1666 95.9308 50.0029 96.2173 49.8052 96.4627C49.6142 96.7151 49.3858 96.9094 49.1198 97.0458C48.8607 97.189 48.5538 97.2606 48.1992 97.2606Z" fill="#F8F8F8"/>
<defs>
<filter id="filter0_dd_157_1303" x="0" y="0" width="72" height="72" filterUnits="userSpaceOnUse" color-interpolation-filters="sRGB">
<feFlood flood-opacity="0" result="BackgroundImageFix"/>
<feColorMatrix in="SourceAlpha" type="matrix" values="0 0 0 0 0 0 0 0 0 0 0 0 0 0 0 0 0 0 127 0" result="hardAlpha"/>
<feOffset dy="1"/>
<feGaussianBlur stdDeviation="1"/>
<feColorMatrix type="matrix" values="0 0 0 0 0 0 0 0 0 0 0 0 0 0 0 0 0 0 0.3 0"/>
<feBlend mode="normal" in2="BackgroundImageFix" result="effect1_dropShadow_157_1303"/>
<feColorMatrix in="SourceAlpha" type="matrix" values="0 0 0 0 0 0 0 0 0 0 0 0 0 0 0 0 0 0 127 0" result="hardAlpha"/>
<feMorphology radius="2" operator="dilate" in="SourceAlpha" result="effect2_dropShadow_157_1303"/>
<feOffset dy="2"/>
<feGaussianBlur stdDeviation="3"/>
<feColorMatrix type="matrix" values="0 0 0 0 0 0 0 0 0 0 0 0 0 0 0 0 0 0 0.15 0"/>
<feBlend mode="normal" in2="effect1_dropShadow_157_1303" result="effect2_dropShadow_157_1303"/>
<feBlend mode="normal" in="SourceGraphic" in2="effect2_dropShadow_157_1303" result="shape"/>
</filter>
</defs>
</svg>
