<svg width="26" height="26" viewBox="0 0 26 26" fill="none" xmlns="http://www.w3.org/2000/svg">
<path d="M3.30272 0.755312C3.11986 0.793811 2.75893 0.923744 2.50869 1.04887C2.13332 1.23174 1.98414 1.33761 1.66171 1.66003C1.33928 1.98246 1.23341 2.13164 1.05054 2.50701C0.689617 3.24811 0.679993 3.33473 0.679993 6.19808C0.679993 7.71878 0.699242 8.75825 0.728116 8.86412C0.891736 9.45123 1.52697 9.75922 2.18626 9.57635C2.41244 9.51379 2.67712 9.28761 2.81186 9.03256C2.91774 8.84006 2.91774 8.79675 2.9418 6.23658L2.96586 3.63791L3.08617 3.43098C3.15835 3.30105 3.28829 3.17111 3.42303 3.09411L3.63959 2.96418L6.2142 2.94012C8.69256 2.91606 8.79843 2.91125 9.00536 2.815C9.91008 2.39632 9.81865 0.991117 8.8658 0.726438C8.75993 0.697564 7.72046 0.678314 6.16607 0.683126C4.16414 0.683126 3.5674 0.702376 3.30272 0.755312Z" fill="#49B6F4"/>
<path d="M17.1371 0.720893C16.6414 0.874888 16.3671 1.25025 16.3671 1.77961C16.3671 2.25122 16.5692 2.59771 16.9639 2.80945C17.1564 2.91533 17.1997 2.91533 19.7598 2.93939L22.3585 2.96345L22.5654 3.08376C22.6954 3.15594 22.8253 3.28588 22.9023 3.42062L23.0322 3.63718L23.0563 6.23585C23.0804 8.79602 23.0804 8.83933 23.1862 9.03183C23.6578 9.90767 25.0101 9.8018 25.27 8.86339C25.2989 8.75752 25.3181 7.71805 25.3181 6.19735C25.3181 3.33881 25.3085 3.24738 24.9524 2.5159C24.5 1.59193 23.6867 0.966323 22.6617 0.75458C22.3489 0.687206 21.8965 0.677582 19.7743 0.682394C18.3883 0.682394 17.2045 0.701644 17.1371 0.720893Z" fill="#49B6F4"/>
<path d="M5.84906 5.23197C5.73839 5.27046 5.56999 5.38113 5.47857 5.47736C5.15619 5.79493 5.15619 5.80936 5.15619 8.48462C5.15619 10.058 5.17544 10.9578 5.20912 11.0925C5.27648 11.3572 5.493 11.6218 5.74802 11.7613C5.95011 11.8672 5.95492 11.8672 8.52432 11.8672C11.0697 11.8672 11.0985 11.8672 11.291 11.7613C11.5123 11.6459 11.6519 11.5015 11.777 11.2657C11.8636 11.107 11.8684 10.9434 11.8684 8.52311C11.8684 5.95371 11.8684 5.9489 11.7625 5.74681C11.623 5.49179 11.3584 5.27527 11.0937 5.20791C10.959 5.17423 10.064 5.15498 8.46658 5.15979C6.47457 5.15979 6.01266 5.17423 5.84906 5.23197ZM9.63099 8.52311V9.62979H8.52432H7.41765V8.52311V7.41644H8.52432H9.63099V8.52311Z" fill="#49B6F4"/>
<path d="M14.8333 5.22715C14.5879 5.30414 14.381 5.48698 14.2366 5.75643C14.1308 5.9489 14.1308 5.97777 14.1308 8.52311C14.1308 11.0685 14.1308 11.0973 14.2366 11.2898C14.3521 11.5111 14.4965 11.6507 14.7322 11.7758C14.891 11.8624 15.0546 11.8672 17.4748 11.8672C20.0442 11.8672 20.0491 11.8672 20.2511 11.7613C20.5062 11.6218 20.7227 11.3572 20.79 11.0925C20.8237 10.9578 20.843 10.0628 20.843 8.50868C20.843 5.84304 20.8382 5.80936 20.5206 5.48217C20.203 5.15979 20.1742 5.15498 17.4556 5.15979C15.5598 5.15979 15.0017 5.17423 14.8333 5.22715ZM18.5815 8.52311V9.62979H17.4748H16.3682V8.52311V7.41644H17.4748H18.5815V8.52311Z" fill="#49B6F4"/>
<path d="M5.99822 14.1488C5.79132 14.2018 5.63254 14.2884 5.45451 14.4568C5.16581 14.7359 5.15619 14.8177 5.15619 17.5025C5.15619 20.197 5.15619 20.1826 5.48338 20.5194C5.79132 20.837 5.83463 20.8418 8.50989 20.8418C10.064 20.8418 10.959 20.8226 11.0937 20.7889C11.3584 20.7215 11.623 20.505 11.7625 20.25C11.8684 20.0479 11.8684 20.0431 11.8684 17.4737C11.8684 15.0534 11.8636 14.8898 11.777 14.731C11.6519 14.4953 11.5123 14.3509 11.291 14.2354C11.1033 14.1296 11.06 14.1296 8.62055 14.12C7.25887 14.1152 6.08002 14.1296 5.99822 14.1488ZM9.63099 17.4737V18.5803H8.52432H7.41765V17.4737V16.367H8.52432H9.63099V17.4737Z" fill="#49B6F4"/>
<path d="M14.9487 14.148C14.6119 14.2346 14.3858 14.4174 14.2222 14.7302C14.15 14.8649 14.1307 15.0429 14.1163 15.6252C14.0922 16.6019 14.1404 16.8473 14.4387 17.1408C14.6985 17.4055 14.9631 17.4969 15.3673 17.4584C15.8629 17.4151 16.2045 17.1264 16.32 16.65C16.3537 16.5105 16.3681 16.1352 16.3585 15.6636C16.3441 14.8553 16.3104 14.7206 16.0602 14.4511C15.8341 14.2009 15.3 14.0566 14.9487 14.148Z" fill="#49B6F4"/>
<path d="M18.3168 14.1476C17.8116 14.2775 17.4748 14.7105 17.4748 15.235C17.4748 15.7162 17.7924 16.1685 18.2158 16.2936C18.5093 16.3802 19.7363 16.3898 20.0586 16.308C20.2126 16.2695 20.3521 16.1877 20.5109 16.0337C20.6986 15.8509 20.7467 15.7643 20.7996 15.5285C20.9199 14.9848 20.7178 14.5085 20.2607 14.2486C20.0634 14.1332 20.0057 14.1283 19.2551 14.1187C18.8172 14.1139 18.3986 14.1283 18.3168 14.1476Z" fill="#49B6F4"/>
<path d="M1.25266 16.4963C0.978359 16.6407 0.809926 16.838 0.728116 17.1316C0.699242 17.2374 0.679993 18.2769 0.679993 19.7976C0.679993 22.661 0.689617 22.7476 1.05054 23.4887C1.23341 23.8641 1.33928 24.0132 1.66171 24.3357C1.98414 24.6581 2.13332 24.764 2.50869 24.9468C3.24979 25.3078 3.33641 25.3174 6.19976 25.3174C7.72046 25.3174 8.75993 25.2981 8.8658 25.2693C9.45291 25.1056 9.7609 24.4704 9.57803 23.8111C9.51547 23.5849 9.28929 23.3203 9.03424 23.1855C8.84174 23.0796 8.79843 23.0796 6.23826 23.0556L3.63959 23.0315L3.43266 22.9112C3.30272 22.839 3.17279 22.7091 3.09579 22.5743L2.96586 22.3578L2.9418 19.7591C2.91774 17.1989 2.91774 17.1556 2.81186 16.9631C2.5135 16.4001 1.83977 16.2028 1.25266 16.4963Z" fill="#49B6F4"/>
<path d="M23.761 16.4386C23.5348 16.5204 23.3231 16.7129 23.1883 16.968C23.0824 17.1556 23.0824 17.2134 23.0584 19.7591L23.0343 22.3578L22.9044 22.5743C22.8274 22.7091 22.6975 22.839 22.5675 22.9112L22.3606 23.0315L19.7619 23.0556C17.2018 23.0796 17.1584 23.0796 16.9659 23.1855C16.0901 23.6571 16.196 25.0094 17.1344 25.2693C17.2403 25.2981 18.2797 25.3174 19.8004 25.3174C21.889 25.3174 22.351 25.3029 22.6638 25.2404C23.6888 25.0286 24.5021 24.403 24.9545 23.4791C25.3106 22.7476 25.3202 22.6562 25.3202 19.7976C25.3202 18.2769 25.3009 17.2374 25.2721 17.1316C25.1903 16.838 25.0218 16.6407 24.7475 16.4963C24.4492 16.3472 24.0786 16.3231 23.761 16.4386Z" fill="#49B6F4"/>
<path d="M16.022 18.6486C15.5216 18.7834 15.2617 19.149 15.2617 19.7024C15.2617 20.2124 15.4205 20.5059 15.8151 20.7128C16.0027 20.8139 16.0701 20.8187 17.9226 20.8331C20.1504 20.8475 20.2177 20.8379 20.5449 20.4867C21.0357 19.9526 20.8962 19.0865 20.261 18.7256L20.0493 18.6053L18.1487 18.5957C16.7149 18.5861 16.1904 18.6005 16.022 18.6486Z" fill="#49B6F4"/>
</svg>
