<svg width="25" height="25" viewBox="0 0 25 25" fill="none" xmlns="http://www.w3.org/2000/svg">
<path fill-rule="evenodd" clip-rule="evenodd" d="M3.28125 13.3853C3.28125 10.5951 5.54314 8.33325 8.33333 8.33325H13.5417C15.7566 8.33325 17.5521 10.1288 17.5521 12.3437V17.552C17.5521 20.3422 15.2902 22.6041 12.5 22.6041H8.33333C5.54314 22.6041 3.28125 20.3422 3.28125 17.552V13.3853ZM8.33333 10.1041C6.52115 10.1041 5.05208 11.5732 5.05208 13.3853V17.552C5.05208 19.3642 6.52115 20.8333 8.33333 20.8333H12.5C14.3122 20.8333 15.7812 19.3642 15.7812 17.552V12.3437C15.7812 11.1068 14.7786 10.1041 13.5417 10.1041H8.33333Z" fill="#343739"/>
<path fill-rule="evenodd" clip-rule="evenodd" d="M17.7082 3.125C19.9231 3.125 21.7186 4.92053 21.7186 7.13542V7.13542H19.9478V7.13542C19.9478 5.89853 18.9451 4.89583 17.7082 4.89583H15.6248C14.388 4.89583 13.3853 5.89853 13.3853 7.13542V8.33333H13.5417V10.1042H12.4999H11.6144V9.21875V7.13542C11.6144 4.92053 13.41 3.125 15.6248 3.125H17.7082Z" fill="#343739"/>
<path d="M12.5 15.4688C12.5 16.6194 11.5673 17.5522 10.4167 17.5522C9.26608 17.5522 8.33334 16.6194 8.33334 15.4688C8.33334 14.3182 9.26608 13.3855 10.4167 13.3855C11.5673 13.3855 12.5 14.3182 12.5 15.4688Z" fill="#343739"/>
</svg>
