<svg width="72" height="98" viewBox="0 0 72 98" fill="none" xmlns="http://www.w3.org/2000/svg">
<g filter="url(#filter0_dd_157_1299)">
<rect x="8" y="6" width="56" height="56" rx="12" fill="white"/>
<path d="M45.25 34C45.25 35.8295 44.7075 37.6179 43.6911 39.139C42.6747 40.6602 41.23 41.8458 39.5398 42.5459C37.8496 43.246 35.9897 43.4292 34.1954 43.0723C32.4011 42.7154 30.7529 41.8344 29.4593 40.5407C28.1656 39.2471 27.2846 37.5989 26.9277 35.8046C26.5708 34.0103 26.754 32.1504 27.4541 30.4602C28.1542 28.77 29.3398 27.3253 30.861 26.3089C32.3821 25.2925 34.1705 24.75 36 24.75" stroke="#49B6F4" stroke-width="1.5" stroke-linecap="round"/>
<path d="M41.5 31.5L41.5 26.5" stroke="#49B6F4" stroke-width="1.5" stroke-linecap="round"/>
<path d="M39 27.5L41.5 25" stroke="#49B6F4" stroke-width="1.5" stroke-linecap="round"/>
<path d="M44 27.5L41.5 25" stroke="#49B6F4" stroke-width="1.5" stroke-linecap="round"/>
<path d="M36.0011 31V38" stroke="#49B6F4" stroke-width="1.16667" stroke-linecap="round" stroke-linejoin="round"/>
<path d="M34.0566 35.8611C34.0566 36.6156 34.64 37.2222 35.3555 37.2222H36.8177C37.44 37.2222 37.9455 36.6933 37.9455 36.0322C37.9455 35.3245 37.6344 35.0678 37.1755 34.9045L34.8344 34.0878C34.3755 33.9245 34.0644 33.6756 34.0644 32.96C34.0644 32.3067 34.57 31.77 35.1922 31.77H36.6544C37.37 31.77 37.9533 32.3767 37.9533 33.1311" stroke="#49B6F4" stroke-width="1.16667" stroke-linecap="round" stroke-linejoin="round"/>
</g>
<path d="M25.6922 81.1227C25.2149 81.1227 24.7716 81.0341 24.3624 80.8568C23.9533 80.6727 23.6055 80.4238 23.3191 80.1101C23.0327 79.7964 22.8213 79.435 22.6849 79.0258L23.7078 78.5962C23.8919 79.0667 24.1613 79.4281 24.5159 79.6805C24.8705 79.9328 25.2796 80.0589 25.7434 80.0589C26.0161 80.0589 26.2548 80.018 26.4594 79.9362C26.664 79.8475 26.8208 79.7248 26.9299 79.5679C27.0458 79.4111 27.1038 79.2304 27.1038 79.0258C27.1038 78.7462 27.0254 78.5246 26.8685 78.3609C26.7117 78.1973 26.4798 78.0677 26.173 77.9722L24.7409 77.5221C24.1681 77.3448 23.7317 77.0755 23.4316 76.7141C23.1316 76.3458 22.9815 75.9162 22.9815 75.4252C22.9815 74.9956 23.0872 74.6205 23.2986 74.3C23.51 73.9727 23.7998 73.717 24.1681 73.5328C24.5432 73.3487 24.9694 73.2567 25.4467 73.2567C25.9036 73.2567 26.3196 73.3385 26.6947 73.5021C27.0697 73.659 27.3902 73.8772 27.6562 74.1568C27.929 74.4364 28.1267 74.7603 28.2495 75.1286L27.247 75.5684C27.097 75.1661 26.8617 74.8558 26.5412 74.6376C26.2275 74.4193 25.8627 74.3102 25.4467 74.3102C25.1944 74.3102 24.9728 74.3546 24.7818 74.4432C24.5909 74.525 24.4409 74.6478 24.3318 74.8115C24.2295 74.9683 24.1783 75.1524 24.1783 75.3638C24.1783 75.6093 24.2567 75.8275 24.4136 76.0185C24.5704 76.2094 24.8091 76.3526 25.1296 76.4481L26.4594 76.8675C27.0663 77.0516 27.5232 77.3176 27.8301 77.6653C28.1369 78.0063 28.2904 78.4325 28.2904 78.944C28.2904 79.3668 28.1779 79.7418 27.9528 80.0692C27.7346 80.3965 27.4311 80.6556 27.0424 80.8466C26.6537 81.0307 26.2037 81.1227 25.6922 81.1227ZM32.131 81.1227C31.5786 81.1227 31.0876 80.9966 30.658 80.7443C30.2352 80.4851 29.9045 80.1374 29.6658 79.7009C29.4271 79.2577 29.3078 78.7633 29.3078 78.2177C29.3078 77.6585 29.4271 77.1641 29.6658 76.7345C29.9113 76.3049 30.2386 75.9673 30.6478 75.7218C31.0569 75.4695 31.5206 75.3434 32.0389 75.3434C32.4549 75.3434 32.8265 75.415 33.1539 75.5582C33.4812 75.7014 33.7574 75.8991 33.9824 76.1515C34.2074 76.397 34.3779 76.68 34.4939 77.0005C34.6166 77.321 34.678 77.6619 34.678 78.0234C34.678 78.112 34.6746 78.2041 34.6678 78.2995C34.6609 78.395 34.6473 78.4837 34.6268 78.5655H30.2181V77.6449H33.9722L33.4198 78.0643C33.488 77.7301 33.4641 77.4335 33.3482 77.1744C33.2391 76.9084 33.0686 76.7004 32.8368 76.5504C32.6117 76.3935 32.3458 76.3151 32.0389 76.3151C31.732 76.3151 31.4593 76.3935 31.2206 76.5504C30.9819 76.7004 30.7978 76.9186 30.6682 77.205C30.5386 77.4846 30.4875 77.8256 30.5148 78.2279C30.4807 78.603 30.5318 78.9303 30.6682 79.2099C30.8114 79.4895 31.0092 79.7077 31.2615 79.8646C31.5206 80.0214 31.8139 80.0998 32.1412 80.0998C32.4753 80.0998 32.7583 80.0248 32.9902 79.8748C33.2289 79.7248 33.4164 79.5304 33.5528 79.2918L34.4939 79.7521C34.3848 80.0112 34.2143 80.2465 33.9824 80.4579C33.7574 80.6624 33.4846 80.8261 33.1641 80.9489C32.8504 81.0648 32.506 81.1227 32.131 81.1227ZM35.806 81V75.4661H36.9108V76.5504L36.7778 76.4072C36.9142 76.0594 37.1324 75.7969 37.4325 75.6195C37.7325 75.4354 38.0803 75.3434 38.4758 75.3434C38.885 75.3434 39.2464 75.432 39.5601 75.6093C39.8738 75.7866 40.1193 76.0321 40.2966 76.3458C40.4739 76.6595 40.5625 77.0209 40.5625 77.4301V81H39.4169V77.737C39.4169 77.4574 39.3657 77.2221 39.2634 77.0312C39.1612 76.8334 39.0145 76.6834 38.8236 76.5811C38.6395 76.472 38.4281 76.4174 38.1894 76.4174C37.9507 76.4174 37.7359 76.472 37.545 76.5811C37.3609 76.6834 37.2177 76.8334 37.1154 77.0312C37.0131 77.2289 36.9619 77.4642 36.9619 77.737V81H35.806ZM44.3568 81.1227C43.8249 81.1227 43.3476 80.9966 42.9248 80.7443C42.5088 80.4851 42.1781 80.1374 41.9326 79.7009C41.6939 79.2645 41.5746 78.7735 41.5746 78.2279C41.5746 77.6824 41.6973 77.1914 41.9428 76.755C42.1883 76.3185 42.519 75.9742 42.935 75.7218C43.351 75.4695 43.8215 75.3434 44.3466 75.3434C44.7899 75.3434 45.182 75.432 45.523 75.6093C45.8639 75.7866 46.1333 76.0321 46.331 76.3458L46.1572 76.6118V73.2567H47.3028V81H46.2083V79.8748L46.3413 80.0896C46.1503 80.4238 45.8776 80.6795 45.523 80.8568C45.1683 81.0341 44.7796 81.1227 44.3568 81.1227ZM44.4694 80.0487C44.7899 80.0487 45.0763 79.9703 45.3286 79.8134C45.5877 79.6566 45.7889 79.4418 45.9321 79.169C46.0821 78.8894 46.1572 78.5757 46.1572 78.2279C46.1572 77.8802 46.0821 77.5699 45.9321 77.2971C45.7889 77.0243 45.5877 76.8095 45.3286 76.6527C45.0763 76.4958 44.7899 76.4174 44.4694 76.4174C44.1489 76.4174 43.859 76.4958 43.5999 76.6527C43.3408 76.8095 43.1396 77.0243 42.9964 77.2971C42.8532 77.5699 42.7816 77.8802 42.7816 78.2279C42.7816 78.5757 42.8532 78.8894 42.9964 79.169C43.1396 79.4418 43.3374 79.6566 43.5897 79.8134C43.8488 79.9703 44.142 80.0487 44.4694 80.0487ZM19.9308 95V87.3794H21.056L23.9201 91.3482H23.3575L26.1705 87.3794H27.2956V95H26.0989V88.8012L26.5489 88.924L23.6746 92.8519H23.5518L20.7389 88.924L21.1378 88.8012V95H19.9308ZM31.4284 95.1227C30.8965 95.1227 30.4089 94.9966 29.9657 94.7443C29.5292 94.492 29.1814 94.1476 28.9223 93.7111C28.6632 93.2747 28.5336 92.7803 28.5336 92.2279C28.5336 91.6688 28.6632 91.1744 28.9223 90.7447C29.1814 90.3083 29.5292 89.9673 29.9657 89.7218C30.4021 89.4695 30.8897 89.3434 31.4284 89.3434C31.9739 89.3434 32.4615 89.4695 32.8911 89.7218C33.3276 89.9673 33.672 90.3083 33.9243 90.7447C34.1834 91.1744 34.313 91.6688 34.313 92.2279C34.313 92.7871 34.1834 93.2849 33.9243 93.7214C33.6651 94.1578 33.3174 94.5022 32.8809 94.7545C32.4445 95 31.9603 95.1227 31.4284 95.1227ZM31.4284 94.0487C31.7557 94.0487 32.0455 93.9703 32.2979 93.8134C32.5502 93.6566 32.7479 93.4418 32.8911 93.169C33.0412 92.8894 33.1162 92.5757 33.1162 92.2279C33.1162 91.8802 33.0412 91.5699 32.8911 91.2971C32.7479 91.0243 32.5502 90.8095 32.2979 90.6527C32.0455 90.4958 31.7557 90.4174 31.4284 90.4174C31.1079 90.4174 30.8181 90.4958 30.5589 90.6527C30.3066 90.8095 30.1054 91.0243 29.9554 91.2971C29.8122 91.5699 29.7406 91.8802 29.7406 92.2279C29.7406 92.5757 29.8122 92.8894 29.9554 93.169C30.1054 93.4418 30.3066 93.6566 30.5589 93.8134C30.8181 93.9703 31.1079 94.0487 31.4284 94.0487ZM35.4414 95V89.4661H36.5462V90.5504L36.4132 90.4072C36.5496 90.0594 36.7678 89.7969 37.0679 89.6195C37.3679 89.4354 37.7157 89.3434 38.1112 89.3434C38.5204 89.3434 38.8818 89.432 39.1955 89.6093C39.5092 89.7866 39.7547 90.0321 39.932 90.3458C40.1093 90.6595 40.1979 91.0209 40.1979 91.4301V95H39.0523V91.737C39.0523 91.4574 39.0011 91.2221 38.8988 91.0312C38.7966 90.8334 38.6499 90.6834 38.459 90.5811C38.2749 90.472 38.0635 90.4174 37.8248 90.4174C37.5861 90.4174 37.3713 90.472 37.1804 90.5811C36.9962 90.6834 36.853 90.8334 36.7508 91.0312C36.6485 91.2289 36.5973 91.4642 36.5973 91.737V95H35.4414ZM44.0332 95.1227C43.4808 95.1227 42.9898 94.9966 42.5602 94.7443C42.1374 94.4851 41.8066 94.1374 41.568 93.7009C41.3293 93.2577 41.21 92.7633 41.21 92.2177C41.21 91.6585 41.3293 91.1641 41.568 90.7345C41.8135 90.3049 42.1408 89.9673 42.55 89.7218C42.9591 89.4695 43.4228 89.3434 43.9411 89.3434C44.3571 89.3434 44.7287 89.415 45.0561 89.5582C45.3834 89.7014 45.6596 89.8991 45.8846 90.1515C46.1096 90.397 46.2801 90.68 46.3961 91.0005C46.5188 91.321 46.5802 91.6619 46.5802 92.0234C46.5802 92.112 46.5768 92.2041 46.5699 92.2995C46.5631 92.395 46.5495 92.4837 46.529 92.5655H42.1203V91.6449H45.8744L45.322 92.0643C45.3902 91.7301 45.3663 91.4335 45.2504 91.1744C45.1413 90.9084 44.9708 90.7004 44.739 90.5504C44.5139 90.3935 44.248 90.3151 43.9411 90.3151C43.6342 90.3151 43.3615 90.3935 43.1228 90.5504C42.8841 90.7004 42.7 90.9186 42.5704 91.205C42.4408 91.4846 42.3897 91.8256 42.417 92.2279C42.3829 92.603 42.434 92.9303 42.5704 93.2099C42.7136 93.4895 42.9114 93.7077 43.1637 93.8646C43.4228 94.0214 43.7161 94.0998 44.0434 94.0998C44.3775 94.0998 44.6605 94.0248 44.8924 93.8748C45.1311 93.7248 45.3186 93.5304 45.455 93.2918L46.3961 93.7521C46.2869 94.0112 46.1165 94.2465 45.8846 94.4579C45.6596 94.6624 45.3868 94.8261 45.0663 94.9489C44.7526 95.0648 44.4082 95.1227 44.0332 95.1227ZM48.1992 97.2606C48.0628 97.2606 47.9265 97.247 47.7901 97.2197C47.6605 97.1992 47.5412 97.1651 47.4321 97.1174V96.1252C47.5139 96.1456 47.6128 96.1627 47.7287 96.1763C47.8446 96.1968 47.9571 96.207 48.0663 96.207C48.3868 96.207 48.622 96.1354 48.7721 95.9922C48.9289 95.8558 49.0687 95.641 49.1914 95.3478L49.5597 94.509L49.5392 95.4808L47.1456 89.4661H48.3834L50.153 94.0794H49.7336L51.493 89.4661H52.7409L50.2962 95.6035C50.1666 95.9308 50.0029 96.2173 49.8052 96.4627C49.6142 96.7151 49.3858 96.9094 49.1198 97.0458C48.8607 97.189 48.5538 97.2606 48.1992 97.2606Z" fill="#F8F8F8"/>
<defs>
<filter id="filter0_dd_157_1299" x="0" y="0" width="72" height="72" filterUnits="userSpaceOnUse" color-interpolation-filters="sRGB">
<feFlood flood-opacity="0" result="BackgroundImageFix"/>
<feColorMatrix in="SourceAlpha" type="matrix" values="0 0 0 0 0 0 0 0 0 0 0 0 0 0 0 0 0 0 127 0" result="hardAlpha"/>
<feOffset dy="1"/>
<feGaussianBlur stdDeviation="1"/>
<feColorMatrix type="matrix" values="0 0 0 0 0 0 0 0 0 0 0 0 0 0 0 0 0 0 0.3 0"/>
<feBlend mode="normal" in2="BackgroundImageFix" result="effect1_dropShadow_157_1299"/>
<feColorMatrix in="SourceAlpha" type="matrix" values="0 0 0 0 0 0 0 0 0 0 0 0 0 0 0 0 0 0 127 0" result="hardAlpha"/>
<feMorphology radius="2" operator="dilate" in="SourceAlpha" result="effect2_dropShadow_157_1299"/>
<feOffset dy="2"/>
<feGaussianBlur stdDeviation="3"/>
<feColorMatrix type="matrix" values="0 0 0 0 0 0 0 0 0 0 0 0 0 0 0 0 0 0 0.15 0"/>
<feBlend mode="normal" in2="effect1_dropShadow_157_1299" result="effect2_dropShadow_157_1299"/>
<feBlend mode="normal" in="SourceGraphic" in2="effect2_dropShadow_157_1299" result="shape"/>
</filter>
</defs>
</svg>
