<svg width="20" height="20" viewBox="0 0 20 20" fill="none" xmlns="http://www.w3.org/2000/svg">
<path d="M8.53906 0.454123C5.37518 0.871389 2.66066 2.8064 1.25296 5.64472C0.615598 6.92862 0.322137 8.10705 0.276283 9.57894C0.244186 10.5373 0.326722 11.3122 0.542233 12.1697C1.77569 17.076 6.66824 20.1619 11.6204 19.1623C15.5363 18.369 18.5167 15.2235 19.1312 11.2297C19.2366 10.5464 19.2412 9.20753 19.1358 8.52431C18.5488 4.69097 15.8022 1.62338 12.1156 0.68339C10.9922 0.394512 9.63954 0.311977 8.53906 0.454123ZM7.70453 4.57634C8.02092 4.70473 8.19516 5.05322 8.12638 5.41546C8.10345 5.55302 7.99799 5.69058 7.60824 6.08033L7.12678 6.57555L10.7538 6.58472C14.3349 6.59847 14.3808 6.59847 14.5046 6.69477C14.7476 6.87359 14.821 7.02032 14.821 7.3092C14.821 7.59808 14.7476 7.74481 14.5046 7.92364C14.3808 8.01993 14.3349 8.01993 10.7538 8.03368L7.12678 8.04285L7.60824 8.53807C8.13096 9.06538 8.19516 9.18919 8.12638 9.54226C8.08511 9.77153 7.80999 10.0421 7.58072 10.0833C7.20014 10.1567 7.1176 10.0971 5.87039 8.85446C4.22884 7.21291 4.23343 7.41008 5.82454 5.80062C7.12219 4.4938 7.27809 4.39293 7.70453 4.57634ZM12.487 9.7807C12.7897 10.0008 14.743 12 14.7935 12.1376C14.8668 12.3347 14.8531 12.5686 14.7568 12.7566C14.6421 12.9721 12.5237 15.0813 12.3541 15.1455C11.7717 15.3656 11.1986 14.875 11.3545 14.2927C11.3911 14.1643 11.5241 13.9946 11.8634 13.6599C12.1156 13.4077 12.322 13.1876 12.322 13.1693C12.322 13.1463 10.7125 13.1326 8.7454 13.1326C4.77908 13.1326 5.01752 13.1509 4.76991 12.8299C4.66903 12.697 4.64611 12.6144 4.64611 12.4173C4.64611 12.1421 4.73323 11.9862 4.98542 11.812L5.13674 11.7111H8.72706C10.7033 11.7111 12.322 11.6974 12.322 11.6744C12.322 11.6561 12.134 11.4543 11.9047 11.2297C11.2765 10.6106 11.1756 10.2713 11.5104 9.89074C11.6846 9.69357 11.7763 9.65231 12.0744 9.65231C12.2624 9.64772 12.3449 9.67523 12.487 9.7807Z" fill="#49B6F4"/>
</svg>
