<svg width="28" height="28" viewBox="0 0 28 28" fill="none" xmlns="http://www.w3.org/2000/svg">
<path d="M24.1518 13.6387C24.1518 15.718 23.5352 17.7506 22.38 19.4795C21.2248 21.2083 19.5828 22.5558 17.6618 23.3516C15.7408 24.1473 13.627 24.3555 11.5876 23.9498C9.54826 23.5442 7.675 22.5429 6.20471 21.0726C4.73443 19.6023 3.73315 17.729 3.32749 15.6897C2.92184 13.6503 3.13004 11.5365 3.92575 9.61548C4.72147 7.69446 6.06896 6.05253 7.79784 4.89733C9.52671 3.74213 11.5593 3.12555 13.6386 3.12555" stroke="#49B6F4" stroke-width="1.70483" stroke-linecap="round"/>
<path d="M19.8898 10.7973L19.8898 5.11453" stroke="#49B6F4" stroke-width="1.70483" stroke-linecap="round"/>
<path d="M17.0484 6.25104L19.8898 3.40965" stroke="#49B6F4" stroke-width="1.70483" stroke-linecap="round"/>
<path d="M22.7311 6.25104L19.8897 3.40965" stroke="#49B6F4" stroke-width="1.70483" stroke-linecap="round"/>
<path d="M13.6399 10.229V18.1849" stroke="#49B6F4" stroke-width="1.32598" stroke-linecap="round" stroke-linejoin="round"/>
<path d="M11.4299 15.754C11.4299 16.6114 12.0929 17.3009 12.9062 17.3009H14.5681C15.2753 17.3009 15.8499 16.6998 15.8499 15.9484C15.8499 15.144 15.4963 14.8523 14.9747 14.6667L12.3139 13.7385C11.7924 13.5528 11.4388 13.27 11.4388 12.4567C11.4388 11.7141 12.0134 11.1042 12.7205 11.1042H14.3824C15.1957 11.1042 15.8587 11.7937 15.8587 12.6512" stroke="#49B6F4" stroke-width="1.32598" stroke-linecap="round" stroke-linejoin="round"/>
</svg>
