<svg width="32" height="32" viewBox="0 0 32 32" fill="none" xmlns="http://www.w3.org/2000/svg">
<path d="M4.2054 16.6004L4.18408 16.5622L4.15644 16.5282L1.86565 13.7144L1.67979 13.3811L1.5762 13.1953C1.08913 12.3217 1.41365 11.1793 2.28724 10.6922C2.57104 10.534 2.82152 10.4807 3.13611 10.4209L23.5762 9.35845L23.5858 9.35795L23.5954 9.35708C24.4454 9.28003 25.2783 9.70903 25.6983 10.4623C26.1131 11.2063 26.0563 12.153 25.5666 12.9505L13.8735 29.6754C13.6599 29.9058 13.3952 30.1449 13.1952 30.2563C12.3216 30.7434 11.1792 30.4189 10.6922 29.5453L10.5886 29.3595L10.4027 29.0262L9.2134 25.5982L9.19905 25.5569L9.17773 25.5186L9.08936 25.3601C8.77111 24.571 8.60186 24.0618 8.61756 23.5682L8.61883 23.5281L8.61372 23.4884C8.55802 23.056 8.68353 22.6142 8.9582 22.2757L8.98345 22.2446L9.00342 22.2099C9.10916 22.0259 9.28757 21.8488 9.54742 21.6466C9.67549 21.5469 9.8139 21.4482 9.96479 21.341L9.98976 21.3233C10.1217 21.2297 10.2625 21.1298 10.4019 21.0246L10.5571 20.9381L10.5758 20.9277L10.5935 20.9157L16.7709 16.7425C17.0393 16.584 17.2013 16.3186 17.2728 16.0671C17.3461 15.8089 17.3459 15.488 17.189 15.2067C17.0321 14.9253 16.7593 14.7565 16.5011 14.6831C16.2496 14.6116 15.9387 14.61 15.6627 14.7549L8.86523 17.8159L8.84573 17.8247L8.82705 17.8351L8.67183 17.9217C8.50905 17.9849 8.35008 18.0522 8.20106 18.1152L8.17286 18.1271C8.00242 18.1992 7.84564 18.265 7.69354 18.3215C7.39646 18.432 7.15882 18.4905 6.95232 18.4887C6.49449 18.4237 5.99135 18.2816 5.56574 18.0972C5.07785 17.7554 4.72678 17.3259 4.29163 16.7551L4.2054 16.6004Z" stroke="white"/>
</svg>
