<svg width="27" height="27" viewBox="0 0 27 27" fill="none" xmlns="http://www.w3.org/2000/svg">
<path d="M1.11865 4.92009C1.11865 2.64074 2.96643 0.792969 5.24577 0.792969H21.7542C24.0336 0.792969 25.8814 2.64074 25.8814 4.92009V21.4286C25.8814 23.7079 24.0336 25.5557 21.7542 25.5557H5.24577C2.96643 25.5557 1.11865 23.7079 1.11865 21.4286V4.92009Z" fill="#49B6F4"/>
<path d="M1.11865 4.92009C1.11865 2.64074 2.96643 0.792969 5.24577 0.792969H21.7542C24.0336 0.792969 25.8814 2.64074 25.8814 4.92009V21.4286C25.8814 23.7079 24.0336 25.5557 21.7542 25.5557H5.24577C2.96643 25.5557 1.11865 23.7079 1.11865 21.4286V4.92009Z" stroke="#F9F5FE" stroke-width="0.936441"/>
<path d="M14.8756 13.1743C14.8756 10.895 16.7234 9.04722 19.0028 9.04722H25.8813V17.3015H19.0028C16.7234 17.3015 14.8756 15.4537 14.8756 13.1743Z" stroke="#F9F5FE" stroke-width="0.936441"/>
</svg>
