<svg width="17" height="17" viewBox="0 0 17 17" fill="none" xmlns="http://www.w3.org/2000/svg">
<path fill-rule="evenodd" clip-rule="evenodd" d="M15.2024 0.764308C15.7603 0.575754 16.2923 1.10791 16.1039 1.66577L11.5776 15.8755C11.368 16.4959 10.5019 16.5272 10.2481 15.9233L7.52007 9.72828C7.44795 9.55671 7.31151 9.42026 7.13993 9.34814L0.94495 6.6201C0.341026 6.36629 0.372204 5.50019 0.992758 5.29058L15.2024 0.764308ZM3.22843 6.03647L14.2963 2.57176L10.8315 13.6396L8.83131 9.17699C8.82317 9.15733 8.81456 9.13791 8.80572 9.1186L10.4814 7.443L9.4756 6.4372L7.81781 8.09487C7.77629 8.07405 7.73406 8.05462 7.69091 8.03659L3.22843 6.03647Z" fill="#49B6F4"/>
<path d="M1.41725 14.4657L5.10464 10.7783L6.11044 11.7841L2.42306 15.4715L1.41725 14.4657Z" fill="#49B6F4"/>
<path d="M2.53451 9.43652L1.41725 10.5539L2.42306 11.5597L3.54041 10.4423L2.53451 9.43652Z" fill="#49B6F4"/>
</svg>
