<svg width="192" height="198" viewBox="0 0 192 198" fill="none" xmlns="http://www.w3.org/2000/svg">
<g filter="url(#filter0_d_470_2618)">
<path d="M130.037 189.522H8.9512C6.21708 189.522 4 187.306 4 184.571V41.996C4 39.2619 6.2164 37.0448 8.9512 37.0448H130.037C132.771 37.0448 134.988 39.2612 134.988 41.996V184.571C134.989 187.305 132.772 189.522 130.037 189.522Z" fill="#53AEE2"/>
<path opacity="0.6" d="M130.037 189.522H8.9512C6.21708 189.522 4 187.306 4 184.571V41.996C4 39.2619 6.2164 37.0448 8.9512 37.0448H130.037C132.771 37.0448 134.988 39.2612 134.988 41.996V184.571C134.989 187.305 132.772 189.522 130.037 189.522Z" fill="white"/>
<path d="M112.588 106.97H26.4007C25.7495 106.97 25.2217 107.498 25.2217 108.149V120.952C25.2217 121.603 25.7495 122.131 26.4007 122.131H112.588C113.239 122.131 113.767 121.603 113.767 120.952V108.149C113.767 107.498 113.239 106.97 112.588 106.97Z" fill="white"/>
<g opacity="0.4">
<path d="M33.1389 116.025V116.423H30.0664V112.078H33.0455V112.475H30.5259V114.021H32.7728V114.411H30.5259V116.025H33.1389Z" fill="#263238"/>
<path d="M33.7603 114.549H35.3865V114.933H33.7603V114.549Z" fill="#263238"/>
<path d="M41.7601 114.53V116.423H41.3195V114.573C41.3195 113.884 40.9717 113.531 40.3822 113.531C39.7122 113.531 39.2899 113.966 39.2899 114.71V116.423H38.8493V114.573C38.8493 113.884 38.5015 113.531 37.9059 113.531C37.242 113.531 36.8136 113.966 36.8136 114.71V116.423H36.373V113.158H36.7954V113.754C37.0248 113.363 37.4471 113.134 37.9932 113.134C38.5333 113.134 38.9549 113.363 39.1539 113.823C39.3901 113.401 39.8557 113.134 40.4451 113.134C41.239 113.134 41.7601 113.593 41.7601 114.53Z" fill="#263238"/>
<path d="M45.4221 114.399V116.423H44.9998V115.914C44.8015 116.249 44.4164 116.454 43.8763 116.454C43.138 116.454 42.6846 116.069 42.6846 115.504C42.6846 115.002 43.0074 114.58 43.9447 114.58H44.9808V114.381C44.9808 113.823 44.6641 113.519 44.0564 113.519C43.6341 113.519 43.2368 113.668 42.9702 113.903L42.7719 113.574C43.1008 113.295 43.5847 113.134 44.0997 113.134C44.9443 113.134 45.4221 113.555 45.4221 114.399ZM44.9815 115.442V114.908H43.9576C43.3241 114.908 43.1197 115.157 43.1197 115.492C43.1197 115.871 43.4236 116.106 43.9454 116.106C44.4414 116.106 44.8076 115.871 44.9815 115.442Z" fill="#263238"/>
<path d="M46.521 112.128C46.521 111.961 46.6638 111.818 46.8438 111.818C47.0238 111.818 47.1666 111.955 47.1666 112.122C47.1666 112.302 47.0299 112.445 46.8438 112.445C46.6638 112.444 46.521 112.301 46.521 112.128ZM46.6198 113.158H47.0604V116.423H46.6198V113.158Z" fill="#263238"/>
<path d="M48.29 111.818H48.7306V116.423H48.29V111.818Z" fill="#263238"/>
</g>
<path d="M112.588 127.681H26.4007C25.7495 127.681 25.2217 128.209 25.2217 128.86V141.663C25.2217 142.315 25.7495 142.842 26.4007 142.842H112.588C113.239 142.842 113.767 142.315 113.767 141.663V128.86C113.767 128.209 113.239 127.681 112.588 127.681Z" fill="white"/>
<g opacity="0.4">
<path d="M33.4688 134.302C33.4688 135.227 32.7988 135.785 31.6936 135.785H30.5269V137.156H30.0674V132.812H31.6936C32.7988 132.813 33.4688 133.371 33.4688 134.302ZM33.0093 134.302C33.0093 133.607 32.5504 133.21 31.6815 133.21H30.5269V135.382H31.6815C32.5504 135.382 33.0093 134.985 33.0093 134.302Z" fill="#263238"/>
<path d="M36.8015 135.134V137.157H36.3792V136.648C36.1802 136.983 35.7958 137.188 35.2557 137.188C34.5174 137.188 34.064 136.804 34.064 136.239C34.064 135.736 34.3868 135.314 35.3241 135.314H36.3602V135.115C36.3602 134.557 36.0435 134.253 35.4358 134.253C35.0141 134.253 34.6169 134.402 34.3496 134.637L34.1513 134.309C34.4802 134.03 34.9641 133.869 35.4791 133.869C36.323 133.868 36.8015 134.29 36.8015 135.134ZM36.3609 136.176V135.643H35.337C34.7035 135.643 34.4991 135.891 34.4991 136.226C34.4991 136.604 34.803 136.84 35.3248 136.84C35.8208 136.84 36.187 136.604 36.3609 136.176Z" fill="#263238"/>
<path d="M37.5469 136.785L37.7452 136.437C38.0057 136.642 38.447 136.803 38.9058 136.803C39.5264 136.803 39.7809 136.591 39.7809 136.269C39.7809 135.419 37.6646 136.089 37.6646 134.798C37.6646 134.264 38.1242 133.867 38.9559 133.867C39.3775 133.867 39.837 133.985 40.1104 134.171L39.9182 134.525C39.6327 134.327 39.2916 134.246 38.9566 134.246C38.3664 134.246 38.1066 134.476 38.1066 134.786C38.1066 135.667 40.2228 135.003 40.2228 136.257C40.2228 136.822 39.7267 137.188 38.876 137.188C38.3353 137.188 37.8135 137.014 37.5469 136.785Z" fill="#263238"/>
<path d="M40.5815 136.785L40.7805 136.437C41.0411 136.642 41.4823 136.803 41.9412 136.803C42.5618 136.803 42.8169 136.591 42.8169 136.269C42.8169 135.419 40.7007 136.089 40.7007 134.798C40.7007 134.264 41.1602 133.867 41.9919 133.867C42.4142 133.867 42.8731 133.985 43.1465 134.171L42.9543 134.525C42.6687 134.327 42.3276 134.246 41.9926 134.246C41.4025 134.246 41.1426 134.476 41.1426 134.786C41.1426 135.667 43.2588 135.003 43.2588 136.257C43.2588 136.822 42.7627 137.188 41.9121 137.188C41.37 137.188 40.8482 137.014 40.5815 136.785Z" fill="#263238"/>
<path d="M48.7988 133.893L47.5637 137.157H47.1481L46.1174 134.482L45.0874 137.157H44.6719L43.4429 133.893H43.8645L44.8884 136.667L45.9374 133.893H46.3164L47.3586 136.667L48.3954 133.893H48.7988Z" fill="#263238"/>
<path d="M49.041 135.525C49.041 134.556 49.7482 133.868 50.7045 133.868C51.6608 133.868 52.3619 134.557 52.3619 135.525C52.3619 136.493 51.6608 137.188 50.7045 137.188C49.7489 137.188 49.041 136.493 49.041 135.525ZM51.9152 135.525C51.9152 134.761 51.4002 134.252 50.7052 134.252C50.0101 134.252 49.489 134.761 49.489 135.525C49.489 136.288 50.0108 136.797 50.7052 136.797C51.3995 136.797 51.9152 136.288 51.9152 135.525Z" fill="#263238"/>
<path d="M54.9063 133.868V134.296C54.869 134.296 54.8318 134.29 54.8007 134.29C54.1178 134.29 53.7023 134.725 53.7023 135.494V137.157H53.2617V133.893H53.684V134.532C53.8884 134.097 54.3046 133.868 54.9063 133.868Z" fill="#263238"/>
<path d="M58.6493 132.552V137.157H58.227V136.511C57.9604 136.952 57.5076 137.188 56.9676 137.188C56.0363 137.188 55.3413 136.511 55.3413 135.525C55.3413 134.538 56.0363 133.868 56.9676 133.868C57.4887 133.868 57.936 134.091 58.2087 134.514V132.552H58.6493V132.552ZM58.2155 135.525C58.2155 134.761 57.6944 134.252 57.0048 134.252C56.3098 134.252 55.7886 134.761 55.7886 135.525C55.7886 136.288 56.3098 136.797 57.0048 136.797C57.6937 136.797 58.2155 136.288 58.2155 135.525Z" fill="#263238"/>
</g>
<path opacity="0.2" d="M113.767 158.306H25.2217V173.468H113.767V158.306Z" fill="black"/>
<g opacity="0.5">
<path d="M46.7558 151.338H45.3103L44.999 152.031H44.7134L45.8997 149.436H46.1704L47.3568 152.031H47.0678L46.7558 151.338ZM46.6564 151.116L46.0337 149.722L45.4111 151.116H46.6564Z" fill="black"/>
<path d="M47.7329 149.281H47.9962V152.031H47.7329V149.281Z" fill="black"/>
<path d="M49.7131 150.067V150.323C49.6908 150.323 49.6685 150.319 49.6502 150.319C49.2421 150.319 48.9937 150.578 48.9937 151.039V152.032H48.7305V150.082H48.9822V150.463C49.1054 150.204 49.3531 150.067 49.7131 150.067Z" fill="black"/>
<path d="M51.8679 151.138H50.2369C50.2667 151.546 50.578 151.817 51.0043 151.817C51.2419 151.817 51.453 151.732 51.6012 151.561L51.7495 151.732C51.5755 151.939 51.3048 152.05 50.9969 152.05C50.3892 152.05 49.9736 151.635 49.9736 151.057C49.9736 150.479 50.3777 150.067 50.9265 150.067C51.4754 150.067 51.8719 150.471 51.8719 151.057C51.8719 151.079 51.8679 151.108 51.8679 151.138ZM50.2369 150.942H51.6195C51.5864 150.56 51.3082 150.293 50.9265 150.293C50.5482 150.293 50.27 150.56 50.2369 150.942Z" fill="black"/>
<path d="M53.827 150.823V152.031H53.5752V151.728C53.4568 151.928 53.2267 152.05 52.9038 152.05C52.4626 152.05 52.1919 151.82 52.1919 151.483C52.1919 151.183 52.3848 150.931 52.9445 150.931H53.5637V150.813C53.5637 150.479 53.3749 150.297 53.0115 150.297C52.759 150.297 52.5222 150.386 52.3624 150.527L52.244 150.33C52.4403 150.164 52.7299 150.067 53.0372 150.067C53.5414 150.067 53.827 150.319 53.827 150.823ZM53.5637 151.446V151.127H52.9519C52.5736 151.127 52.4511 151.275 52.4511 151.476C52.4511 151.702 52.6331 151.843 52.9445 151.843C53.2409 151.843 53.4595 151.702 53.5637 151.446Z" fill="black"/>
<path d="M56.3305 149.281V152.031H56.0787V151.646C55.919 151.91 55.6483 152.05 55.3261 152.05C54.7705 152.05 54.355 151.646 54.355 151.057C54.355 150.467 54.7705 150.067 55.3261 150.067C55.6374 150.067 55.9041 150.2 56.0679 150.452V149.281H56.3305ZM56.0712 151.057C56.0712 150.601 55.7599 150.297 55.3485 150.297C54.9329 150.297 54.6216 150.601 54.6216 151.057C54.6216 151.513 54.9329 151.817 55.3485 151.817C55.7599 151.817 56.0712 151.513 56.0712 151.057Z" fill="black"/>
<path d="M58.7054 150.082L57.7308 152.266C57.5677 152.647 57.36 152.77 57.0818 152.77C56.9005 152.77 56.7259 152.711 56.6074 152.592L56.7299 152.396C56.826 152.492 56.9444 152.544 57.0859 152.544C57.2598 152.544 57.3789 152.463 57.4899 152.218L57.5752 152.029L56.7035 150.082H56.9776L57.7119 151.74L58.4455 150.082H58.7054V150.082Z" fill="black"/>
<path d="M61.5215 150.823V152.031H61.269V151.728C61.1506 151.928 60.9205 152.05 60.5977 152.05C60.1564 152.05 59.8857 151.82 59.8857 151.483C59.8857 151.183 60.0786 150.931 60.6383 150.931H61.2575V150.813C61.2575 150.479 61.0687 150.297 60.7053 150.297C60.4529 150.297 60.216 150.386 60.057 150.527L59.9385 150.33C60.1348 150.164 60.4244 150.067 60.7317 150.067C61.2359 150.067 61.5215 150.319 61.5215 150.823ZM61.2582 151.446V151.127H60.6464C60.2681 151.127 60.1456 151.275 60.1456 151.476C60.1456 151.702 60.3277 151.843 60.639 151.843C60.9354 151.843 61.154 151.702 61.2582 151.446Z" fill="black"/>
<path d="M66.428 150.9V152.031H66.1647V150.926C66.1647 150.515 65.9569 150.304 65.605 150.304C65.2044 150.304 64.9526 150.563 64.9526 151.008V152.031H64.6894V150.926C64.6894 150.515 64.4816 150.304 64.1256 150.304C63.729 150.304 63.4732 150.563 63.4732 151.008V152.031H63.21V150.081H63.4617V150.437C63.5991 150.203 63.8509 150.066 64.1771 150.066C64.4999 150.066 64.7516 150.203 64.8701 150.478C65.0108 150.225 65.289 150.066 65.6409 150.066C66.1167 150.067 66.428 150.341 66.428 150.9Z" fill="black"/>
<path d="M68.8508 151.138H67.2198C67.2489 151.546 67.5609 151.817 67.9872 151.817C68.2241 151.817 68.4359 151.732 68.5842 151.561L68.7324 151.732C68.5584 151.939 68.2877 152.05 67.9798 152.05C67.3721 152.05 66.9565 151.635 66.9565 151.057C66.9565 150.479 67.3606 150.067 67.9094 150.067C68.4583 150.067 68.8549 150.471 68.8549 151.057C68.8542 151.079 68.8508 151.108 68.8508 151.138ZM67.2198 150.942H68.6024C68.5693 150.56 68.2911 150.293 67.9094 150.293C67.5311 150.293 67.253 150.56 67.2198 150.942Z" fill="black"/>
<path d="M72.6121 150.9V152.031H72.3488V150.926C72.3488 150.515 72.141 150.304 71.7891 150.304C71.3885 150.304 71.1367 150.563 71.1367 151.008V152.031H70.8734V150.926C70.8734 150.515 70.6657 150.304 70.3097 150.304C69.9131 150.304 69.6573 150.563 69.6573 151.008V152.031H69.394V150.081H69.6458V150.437C69.7832 150.203 70.0349 150.066 70.3611 150.066C70.684 150.066 70.9357 150.203 71.0541 150.478C71.1949 150.225 71.4731 150.066 71.825 150.066C72.3007 150.067 72.6121 150.341 72.6121 150.9Z" fill="black"/>
<path d="M75.3065 151.057C75.3065 151.646 74.8917 152.05 74.3354 152.05C74.0125 152.05 73.7418 151.91 73.5828 151.646V152.031H73.3311V149.281H73.5943V150.452C73.7574 150.2 74.0247 150.067 74.336 150.067C74.891 150.067 75.3065 150.467 75.3065 151.057ZM75.0433 151.057C75.0433 150.601 74.7279 150.297 74.3164 150.297C73.9009 150.297 73.5896 150.601 73.5896 151.057C73.5896 151.513 73.9009 151.817 74.3164 151.817C74.7279 151.817 75.0433 151.513 75.0433 151.057Z" fill="black"/>
<path d="M77.5437 151.138H75.9127C75.9425 151.546 76.2538 151.817 76.6801 151.817C76.9177 151.817 77.1288 151.732 77.277 151.561L77.4252 151.732C77.2513 151.939 76.9806 152.05 76.6727 152.05C76.065 152.05 75.6494 151.635 75.6494 151.057C75.6494 150.479 76.0534 150.067 76.6023 150.067C77.1512 150.067 77.5477 150.471 77.5477 151.057C77.5471 151.079 77.5437 151.108 77.5437 151.138ZM75.9127 150.942H77.2953C77.2621 150.56 76.984 150.293 76.6023 150.293C76.224 150.293 75.9458 150.56 75.9127 150.942Z" fill="black"/>
<path d="M79.0681 150.067V150.323C79.0458 150.323 79.0234 150.319 79.0052 150.319C78.5978 150.319 78.3487 150.578 78.3487 151.039V152.032H78.0854V150.082H78.3379V150.463C78.4604 150.204 78.7081 150.067 79.0681 150.067Z" fill="black"/>
<path d="M80.774 150.101C80.774 149.833 80.5554 149.648 80.1771 149.648C79.8624 149.648 79.6323 149.751 79.4692 149.948L79.2729 149.799C79.4733 149.555 79.7812 149.414 80.1961 149.414C80.7151 149.414 81.0488 149.663 81.0488 150.059C81.0488 150.693 80.3707 150.722 80.3707 151.253H80.0959C80.0959 150.641 80.774 150.586 80.774 150.101ZM80.0404 151.857C80.0404 151.75 80.1257 151.669 80.2333 151.669C80.3449 151.669 80.4295 151.75 80.4295 151.857C80.4295 151.961 80.3443 152.05 80.2333 152.05C80.1257 152.05 80.0404 151.961 80.0404 151.857Z" fill="black"/>
<path d="M82.6079 149.437H83.2089V151.543H84.5096V152.032H82.6079V149.437Z" fill="black"/>
<path d="M84.6445 151.035C84.6445 150.434 85.1081 150.007 85.7422 150.007C86.3764 150.007 86.8359 150.434 86.8359 151.035C86.8359 151.635 86.3764 152.062 85.7422 152.062C85.1074 152.061 84.6445 151.635 84.6445 151.035ZM86.2498 151.035C86.2498 150.689 86.0312 150.482 85.7416 150.482C85.4526 150.482 85.2299 150.69 85.2299 151.035C85.2299 151.38 85.4526 151.587 85.7416 151.587C86.0312 151.587 86.2498 151.38 86.2498 151.035Z" fill="black"/>
<path d="M89.2808 150.037V151.698C89.2808 152.439 88.8808 152.781 88.1614 152.781C87.7831 152.781 87.4163 152.688 87.1828 152.507L87.4129 152.092C87.5834 152.228 87.8616 152.318 88.1167 152.318C88.5248 152.318 88.7028 152.132 88.7028 151.772V151.687C88.5505 151.854 88.3319 151.935 88.0727 151.935C87.5205 151.935 87.0752 151.554 87.0752 150.972C87.0752 150.39 87.5198 150.007 88.0727 150.007C88.3509 150.007 88.581 150.101 88.7326 150.293V150.037H89.2808ZM88.7096 150.972C88.7096 150.679 88.491 150.482 88.1871 150.482C87.8833 150.482 87.6606 150.679 87.6606 150.972C87.6606 151.265 87.8833 151.461 88.1871 151.461C88.491 151.461 88.7096 151.265 88.7096 150.972Z" fill="black"/>
<path d="M90.7993 149.437C90.7993 149.255 90.9435 149.114 91.1587 149.114C91.3739 149.114 91.518 149.247 91.518 149.426C91.518 149.618 91.3739 149.759 91.1587 149.759C90.9441 149.759 90.7993 149.618 90.7993 149.437ZM90.8697 150.037H91.4476V152.031H90.8697V150.037Z" fill="black"/>
<path d="M94.0255 150.89V152.032H93.4476V150.979C93.4476 150.656 93.2994 150.509 93.0435 150.509C92.7654 150.509 92.5658 150.679 92.5658 151.046V152.032H91.9878V150.038H92.54V150.272C92.6957 150.101 92.9292 150.008 93.1999 150.008C93.6696 150.007 94.0255 150.282 94.0255 150.89Z" fill="black"/>
</g>
<path d="M113.767 157.379H25.2217V172.54H113.767V157.379Z" fill="#53AEE2"/>
<path d="M58.0616 167.315L56.9422 165.721C56.838 165.728 56.727 165.735 56.616 165.735H55.3335V167.315H54.5918V162.125H56.616C57.9655 162.125 58.7809 162.807 58.7809 163.934C58.7809 164.735 58.3661 165.313 57.6393 165.573L58.8696 167.315H58.0616ZM58.0392 163.933C58.0392 163.191 57.5425 162.769 56.5937 162.769H55.3335V165.104H56.5937C57.5425 165.105 58.0392 164.675 58.0392 163.933Z" fill="white"/>
<path d="M63.4187 165.587H60.2305C60.3198 166.277 60.8755 166.736 61.6544 166.736C62.1139 166.736 62.4997 166.58 62.7887 166.262L63.1819 166.721C62.8259 167.137 62.2845 167.359 61.6321 167.359C60.3638 167.359 59.5186 166.522 59.5186 165.349C59.5186 164.185 60.3564 163.348 61.4913 163.348C62.6256 163.348 63.4336 164.163 63.4336 165.372C63.4329 165.431 63.4255 165.52 63.4187 165.587ZM60.2298 165.075H62.7508C62.677 164.415 62.1796 163.948 61.4906 163.948C60.8085 163.948 60.3043 164.408 60.2298 165.075Z" fill="white"/>
<path d="M68.1822 163.385V166.781C68.1822 168.167 67.4777 168.798 66.1431 168.798C65.4237 168.798 64.6976 168.597 64.2678 168.211L64.6089 167.663C64.9723 167.974 65.5428 168.174 66.1215 168.174C67.0486 168.174 67.4709 167.744 67.4709 166.855V166.543C67.1299 166.951 66.6182 167.151 66.0545 167.151C64.9202 167.151 64.0601 166.379 64.0601 165.246C64.0601 164.112 64.9202 163.348 66.0545 163.348C66.6406 163.348 67.1738 163.562 67.5075 163.992V163.385H68.1822ZM67.4845 165.246C67.4845 164.482 66.9207 163.97 66.135 163.97C65.3419 163.97 64.7781 164.482 64.7781 165.246C64.7781 166.002 65.3419 166.529 66.135 166.529C66.9214 166.528 67.4845 166.002 67.4845 165.246Z" fill="white"/>
<path d="M69.416 162.169C69.416 161.909 69.6238 161.702 69.8979 161.702C70.172 161.702 70.3797 161.902 70.3797 162.154C70.3797 162.422 70.1794 162.629 69.8979 162.629C69.6238 162.629 69.416 162.429 69.416 162.169ZM69.5419 163.385H70.2539V167.315H69.5419V163.385Z" fill="white"/>
<path d="M71.1157 166.899L71.4121 166.335C71.7458 166.573 72.2798 166.744 72.7914 166.744C73.4512 166.744 73.726 166.543 73.726 166.21C73.726 165.327 71.2423 166.091 71.2423 164.527C71.2423 163.823 71.8723 163.348 72.8807 163.348C73.3923 163.348 73.9703 163.482 74.3114 163.704L74.0075 164.267C73.6515 164.037 73.2584 163.956 72.8733 163.956C72.2507 163.956 71.9461 164.186 71.9461 164.497C71.9461 165.424 74.4379 164.668 74.4379 166.195C74.4379 166.907 73.7855 167.359 72.7399 167.359C72.0869 167.359 71.4419 167.158 71.1157 166.899Z" fill="white"/>
<path d="M77.5383 167.085C77.3231 167.27 76.9969 167.359 76.6782 167.359C75.885 167.359 75.4329 166.921 75.4329 166.128V163.971H74.7656V163.385H75.4329V162.525H76.1449V163.385H77.2717V163.971H76.1449V166.099C76.1449 166.522 76.3675 166.76 76.76 166.76C76.9678 166.76 77.1675 166.693 77.3163 166.574L77.5383 167.085Z" fill="white"/>
<path d="M81.8045 165.587H78.6156C78.7049 166.277 79.2605 166.736 80.0395 166.736C80.499 166.736 80.8848 166.58 81.1737 166.262L81.5669 166.721C81.211 167.137 80.6696 167.359 80.0172 167.359C78.7489 167.359 77.9043 166.522 77.9043 165.349C77.9043 164.185 78.7421 163.348 79.8771 163.348C81.0113 163.348 81.8194 164.163 81.8194 165.372C81.8187 165.431 81.8112 165.52 81.8045 165.587ZM78.6156 165.075H81.1365C81.0627 164.415 80.5653 163.948 79.8764 163.948C79.1942 163.948 78.69 164.408 78.6156 165.075Z" fill="white"/>
<path d="M84.9211 163.348V164.037C84.8623 164.03 84.8101 164.03 84.758 164.03C83.9947 164.03 83.5196 164.497 83.5196 165.357V167.315H82.8076V163.385H83.4898V164.045C83.7422 163.585 84.2315 163.348 84.9211 163.348Z" fill="white"/>
<g opacity="0.6">
<path d="M53.9951 53.8176L54.2956 53.1842C54.7179 53.5659 55.44 53.842 56.1709 53.842C57.1529 53.842 57.5752 53.4603 57.5752 52.9656C57.5752 51.5776 54.1339 52.4547 54.1339 50.3438C54.1339 49.4674 54.8153 48.7209 56.309 48.7209C56.9742 48.7209 57.6645 48.8996 58.1355 49.2245L57.8676 49.8742C57.3728 49.5574 56.8125 49.4112 56.309 49.4112C55.3432 49.4112 54.9297 49.8173 54.9297 50.312C54.9297 51.7001 58.3711 50.8318 58.3711 52.9176C58.3711 53.7858 57.6733 54.533 56.1716 54.533C55.3019 54.5323 54.4499 54.2399 53.9951 53.8176Z" fill="#263238"/>
<path d="M59.3062 48.8346C59.3062 48.5504 59.5329 48.323 59.8334 48.323C60.1338 48.323 60.3612 48.5423 60.3612 48.8184C60.3612 49.1107 60.142 49.3381 59.8334 49.3381C59.5329 49.3375 59.3062 49.1182 59.3062 48.8346ZM59.4442 50.1651H60.2232V54.4673H59.4442V50.1651Z" fill="#263238"/>
<path d="M65.8251 50.1652V53.8827C65.8251 55.4007 65.0543 56.091 63.5932 56.091C62.8054 56.091 62.0102 55.8717 61.5392 55.4494L61.9128 54.8484C62.3107 55.1895 62.9354 55.4088 63.5688 55.4088C64.5833 55.4088 65.0462 54.9384 65.0462 53.9639V53.6228C64.6733 54.0695 64.1129 54.2888 63.4957 54.2888C62.2539 54.2888 61.3125 53.4441 61.3125 52.2023C61.3125 50.9604 62.2539 50.1246 63.4957 50.1246C64.1366 50.1246 64.7213 50.3601 65.0868 50.8305V50.1652H65.8251ZM65.0624 52.203C65.0624 51.3672 64.4459 50.8068 63.5851 50.8068C62.7168 50.8068 62.0996 51.3672 62.0996 52.203C62.0996 53.0306 62.7168 53.6072 63.5851 53.6072C64.4459 53.6066 65.0624 53.0306 65.0624 52.203Z" fill="#263238"/>
<path d="M71.3962 51.9918V54.4674H70.6172V52.0812C70.6172 51.2366 70.1956 50.8231 69.4566 50.8231C68.6282 50.8231 68.0929 51.3184 68.0929 52.2517V54.4674H67.314V50.1652H68.0611V50.8149C68.3778 50.3771 68.9294 50.1246 69.6109 50.1246C70.6579 50.1246 71.3962 50.7256 71.3962 51.9918Z" fill="#263238"/>
<path d="M79.0382 50.1652V54.4674H78.2999V53.8177C77.9831 54.2644 77.4478 54.5155 76.8387 54.5155C75.7268 54.5155 74.9878 53.907 74.9878 52.6401V50.1646H75.7667V52.5508C75.7667 53.3954 76.189 53.817 76.9274 53.817C77.7388 53.817 78.2586 53.3135 78.2586 52.3884V50.1646L79.0382 50.1652Z" fill="#263238"/>
<path d="M84.9827 52.3166C84.9827 53.6397 84.0657 54.5161 82.8076 54.5161C82.1991 54.5161 81.6631 54.2806 81.3058 53.8183V56.0422H80.5269V50.1659H81.274V50.8474C81.6232 50.3682 82.1748 50.1252 82.8082 50.1252C84.065 50.1246 84.9827 51.0017 84.9827 52.3166ZM84.1949 52.3166C84.1949 51.4077 83.5703 50.8067 82.7426 50.8067C81.923 50.8067 81.2977 51.4077 81.2977 52.3166C81.2977 53.2336 81.9223 53.8346 82.7426 53.8346C83.5703 53.8339 84.1949 53.2336 84.1949 52.3166Z" fill="#263238"/>
</g>
<path d="M112.588 86.259H26.4007C25.7495 86.259 25.2217 86.7869 25.2217 87.438V100.242C25.2217 100.893 25.7495 101.421 26.4007 101.421H112.588C113.239 101.421 113.767 100.893 113.767 100.242V87.438C113.767 86.7869 113.239 86.259 112.588 86.259Z" fill="white"/>
<g opacity="0.4">
<path d="M30.0674 91.3679H30.5269V95.3148H32.9599V95.7121H30.0681V91.3679H30.0674Z" fill="#263238"/>
<path d="M36.1062 93.6891V95.712H35.6838V95.203C35.4856 95.538 35.1005 95.7431 34.5604 95.7431C33.8221 95.7431 33.3687 95.3587 33.3687 94.7936C33.3687 94.2915 33.6915 93.8692 34.6288 93.8692H35.6649V93.6709C35.6649 93.1125 35.3482 92.808 34.7404 92.808C34.3181 92.808 33.9209 92.9575 33.6542 93.1931L33.4553 92.8642C33.7842 92.5847 34.2681 92.4236 34.7831 92.4236C35.6284 92.4222 36.1062 92.8445 36.1062 93.6891ZM35.6656 94.732V94.1981H34.6416C34.0082 94.1981 33.8038 94.4464 33.8038 94.7814C33.8038 95.1597 34.1077 95.3953 34.6295 95.3953C35.1255 95.3953 35.4917 95.1591 35.6656 94.732Z" fill="#263238"/>
<path d="M36.8511 95.3398L37.05 94.9919C37.3106 95.197 37.7518 95.358 38.2107 95.358C38.8313 95.358 39.0864 95.1469 39.0864 94.8241C39.0864 93.9741 36.9702 94.644 36.9702 93.3535C36.9702 92.8195 37.4297 92.4222 38.2614 92.4222C38.6831 92.4222 39.1426 92.5407 39.4153 92.7261L39.2231 93.0801C38.9375 92.8811 38.5964 92.8006 38.2614 92.8006C37.6713 92.8006 37.4114 93.03 37.4114 93.3406C37.4114 94.2217 39.5277 93.5579 39.5277 94.8119C39.5277 95.3763 39.0316 95.7424 38.1809 95.7424C37.6395 95.7431 37.1177 95.5692 36.8511 95.3398Z" fill="#263238"/>
<path d="M42.0585 95.5136C41.8845 95.6686 41.624 95.743 41.3695 95.743C40.755 95.743 40.4139 95.3952 40.4139 94.7935V92.8201H39.8306V92.4479H40.4139V91.7339H40.8545V92.4479H41.8473V92.8201H40.8545V94.7692C40.8545 95.1536 41.0528 95.3647 41.4189 95.3647C41.5989 95.3647 41.779 95.3092 41.9028 95.1976L42.0585 95.5136Z" fill="#263238"/>
<path d="M48.209 91.3679V95.7121H47.83L45.0376 92.1868V95.7121H44.5781V91.3679H44.9571L47.7562 94.8932V91.3679H48.209Z" fill="#263238"/>
<path d="M51.9946 93.6891V95.712H51.573V95.203C51.3741 95.538 50.9896 95.7431 50.4496 95.7431C49.7112 95.7431 49.2578 95.3587 49.2578 94.7936C49.2578 94.2915 49.5806 93.8692 50.5179 93.8692H51.5541V93.6709C51.5541 93.1125 51.2373 92.808 50.6296 92.808C50.2073 92.808 49.8107 92.9575 49.5434 93.1931L49.3451 92.8642C49.674 92.5847 50.1579 92.4236 50.6729 92.4236C51.5168 92.4222 51.9946 92.8445 51.9946 93.6891ZM51.5541 94.732V94.1981H50.5301C49.8967 94.1981 49.6923 94.4464 49.6923 94.7814C49.6923 95.1597 49.9962 95.3953 50.5179 95.3953C51.014 95.3953 51.3801 95.1591 51.5541 94.732Z" fill="#263238"/>
<path d="M58.5799 93.819V95.7119H58.1393V93.863C58.1393 93.1734 57.7915 92.8201 57.202 92.8201C56.532 92.8201 56.1097 93.2553 56.1097 93.999V95.7119H55.6691V93.863C55.6691 93.1734 55.3213 92.8201 54.7257 92.8201C54.0618 92.8201 53.6334 93.2553 53.6334 93.999V95.7119H53.1929V92.4479H53.6145V93.0434C53.8439 92.653 54.2662 92.4229 54.8124 92.4229C55.3524 92.4229 55.774 92.653 55.973 93.1125C56.2092 92.6902 56.6748 92.4229 57.2643 92.4229C58.0588 92.4222 58.5799 92.8817 58.5799 93.819Z" fill="#263238"/>
<path d="M62.633 94.2163H59.9023C59.9524 94.8991 60.4735 95.3526 61.1868 95.3526C61.5841 95.3526 61.938 95.2098 62.1864 94.9242L62.4347 95.2098C62.1431 95.5569 61.6896 95.7431 61.1753 95.7431C60.1574 95.7431 59.4624 95.048 59.4624 94.0802C59.4624 93.1118 60.1385 92.4229 61.0575 92.4229C61.9759 92.4229 62.6398 93.0996 62.6398 94.0802C62.6398 94.1168 62.633 94.1669 62.633 94.2163ZM59.9023 93.8867H62.2175C62.1613 93.2478 61.6964 92.8012 61.0569 92.8012C60.4241 92.8012 59.9585 93.2478 59.9023 93.8867Z" fill="#263238"/>
</g>
<path d="M112.588 65.548H26.4007C25.7495 65.548 25.2217 66.0758 25.2217 66.727V79.5305C25.2217 80.1816 25.7495 80.7095 26.4007 80.7095H112.588C113.239 80.7095 113.767 80.1816 113.767 79.5305V66.727C113.767 66.0758 113.239 65.548 112.588 65.548Z" fill="white"/>
<g opacity="0.4">
<path d="M30.5259 71.0533V72.7601H32.7728V73.1574H30.5259V75.0009H30.0664V70.6567H33.0455V71.054L30.5259 71.0533Z" fill="#263238"/>
<path d="M33.7417 70.7062C33.7417 70.5384 33.8845 70.3962 34.0645 70.3962C34.2445 70.3962 34.3873 70.5329 34.3873 70.7008C34.3873 70.8808 34.2506 71.0236 34.0645 71.0236C33.8838 71.0222 33.7417 70.8795 33.7417 70.7062ZM33.8405 71.7362H34.2811V75.0009H33.8405V71.7362Z" fill="#263238"/>
<path d="M37.1548 71.7112V72.1396C37.1176 72.1396 37.0803 72.1335 37.0492 72.1335C36.3664 72.1335 35.9508 72.568 35.9508 73.3374V75.0009H35.5103V71.7362H35.9326V72.3758C36.1369 71.9413 36.5531 71.7112 37.1548 71.7112Z" fill="#263238"/>
<path d="M37.521 74.628L37.7193 74.2802C37.9798 74.4852 38.4211 74.6463 38.8799 74.6463C39.5005 74.6463 39.755 74.4358 39.755 74.113C39.755 73.263 37.6387 73.933 37.6387 72.6424C37.6387 72.1091 38.0983 71.7112 38.93 71.7112C39.3523 71.7112 39.8112 71.8289 40.0846 72.015L39.8924 72.369C39.6068 72.1707 39.2657 72.0895 38.9307 72.0895C38.3406 72.0895 38.0807 72.3189 38.0807 72.6295C38.0807 73.5107 40.1969 72.8468 40.1969 74.1002C40.1969 74.6652 39.7008 75.0314 38.8501 75.0314C38.3101 75.032 37.7883 74.8581 37.521 74.628Z" fill="#263238"/>
<path d="M42.7284 74.8019C42.5545 74.9569 42.2939 75.0314 42.0394 75.0314C41.4249 75.0314 41.0839 74.6835 41.0839 74.0819V72.1084H40.5005V71.7362H41.0839V71.0222H41.5244V71.7362H42.5172V72.1084H41.5244V74.0568C41.5244 74.4419 41.7234 74.6524 42.0895 74.6524C42.2695 74.6524 42.4496 74.5962 42.5734 74.4852L42.7284 74.8019Z" fill="#263238"/>
<path d="M48.8789 70.6561V75.0003H48.4999L45.7076 71.475V75.0003H45.248V70.6561H45.627L48.4261 74.1814V70.6561H48.8789Z" fill="#263238"/>
<path d="M52.6652 72.9773V75.0009H52.2429V74.4919C52.044 74.8269 51.6596 75.032 51.1195 75.032C50.3812 75.032 49.9277 74.6469 49.9277 74.0825C49.9277 73.5797 50.2505 73.158 51.1879 73.158H52.224V72.9591C52.224 72.4007 51.9073 72.0962 51.2995 72.0962C50.8772 72.0962 50.48 72.2451 50.2133 72.4813L50.015 72.1524C50.3439 71.8729 50.8278 71.7118 51.3428 71.7118C52.1868 71.7111 52.6652 72.1334 52.6652 72.9773ZM52.224 74.0202V73.4863H51.2001C50.5666 73.4863 50.3622 73.7346 50.3622 74.0696C50.3622 74.4479 50.6661 74.6841 51.1879 74.6841C51.6846 74.6841 52.0507 74.4479 52.224 74.0202Z" fill="#263238"/>
<path d="M59.2498 73.108V75.0009H58.8093V73.1513C58.8093 72.4624 58.4614 72.1091 57.8719 72.1091C57.2019 72.1091 56.7796 72.5436 56.7796 73.288V75.0009H56.3391V73.1513C56.3391 72.4624 55.9912 72.1091 55.3957 72.1091C54.7318 72.1091 54.3034 72.5436 54.3034 73.288V75.0009H53.8628V71.7362H54.2851V72.3318C54.5145 71.9406 54.9368 71.7112 55.483 71.7112C56.023 71.7112 56.4446 71.9406 56.6436 72.4001C56.8798 71.9778 57.3454 71.7112 57.9349 71.7112C58.7287 71.7112 59.2498 72.1707 59.2498 73.108Z" fill="#263238"/>
<path d="M63.3035 73.5053H60.5727C60.6228 74.1881 61.1439 74.6409 61.8572 74.6409C62.2545 74.6409 62.6084 74.4981 62.8568 74.2125L63.1052 74.4981C62.8135 74.8453 62.36 75.0321 61.8457 75.0321C60.8279 75.0321 60.1328 74.337 60.1328 73.3686C60.1328 72.4001 60.8089 71.7112 61.7279 71.7112C62.6463 71.7112 63.3102 72.3879 63.3102 73.3686C63.3095 73.4058 63.3035 73.4552 63.3035 73.5053ZM60.5727 73.1757H62.8879C62.8317 72.5368 62.3668 72.0895 61.7273 72.0895C61.0938 72.0902 60.6282 72.5368 60.5727 73.1757Z" fill="#263238"/>
</g>
<path d="M181.922 0.825928H162.48C159.174 0.825928 156.494 3.50658 156.494 6.81257V23.733C156.494 27.039 159.174 29.7196 162.48 29.7196H168.157L166.784 35.062L172.183 29.7196H181.922C185.228 29.7196 187.909 27.0396 187.909 23.733V6.81257C187.909 3.50658 185.229 0.825928 181.922 0.825928Z" fill="#53AEE2"/>
<path opacity="0.7" d="M181.922 0.825928H162.48C159.174 0.825928 156.494 3.50658 156.494 6.81257V23.733C156.494 27.039 159.174 29.7196 162.48 29.7196H168.157L166.784 35.062L172.183 29.7196H181.922C185.228 29.7196 187.909 27.0396 187.909 23.733V6.81257C187.909 3.50658 185.229 0.825928 181.922 0.825928Z" fill="white"/>
<path d="M179.022 22.0239C182.79 18.2557 182.79 12.1462 179.022 8.37791C175.254 4.60967 169.144 4.60969 165.376 8.37793C161.607 12.1462 161.607 18.2557 165.376 22.0239C169.144 25.7922 175.253 25.7922 179.022 22.0239Z" fill="#53AEE2"/>
<path d="M171.188 19.51C170.927 19.51 170.68 19.3957 170.512 19.1974L166.726 14.7368C166.409 14.3633 166.455 13.8043 166.828 13.4869C167.201 13.1708 167.761 13.2155 168.078 13.589L171.188 17.253L176.323 11.2028C176.641 10.8285 177.2 10.7839 177.573 11.1006C177.947 11.4173 177.993 11.977 177.675 12.3506L171.864 19.1981C171.696 19.3957 171.449 19.51 171.188 19.51Z" fill="white"/>
</g>
<defs>
<filter id="filter0_d_470_2618" x="0" y="0.825928" width="191.909" height="196.696" filterUnits="userSpaceOnUse" color-interpolation-filters="sRGB">
<feFlood flood-opacity="0" result="BackgroundImageFix"/>
<feColorMatrix in="SourceAlpha" type="matrix" values="0 0 0 0 0 0 0 0 0 0 0 0 0 0 0 0 0 0 127 0" result="hardAlpha"/>
<feOffset dy="4"/>
<feGaussianBlur stdDeviation="2"/>
<feComposite in2="hardAlpha" operator="out"/>
<feColorMatrix type="matrix" values="0 0 0 0 0 0 0 0 0 0 0 0 0 0 0 0 0 0 0.25 0"/>
<feBlend mode="normal" in2="BackgroundImageFix" result="effect1_dropShadow_470_2618"/>
<feBlend mode="normal" in="SourceGraphic" in2="effect1_dropShadow_470_2618" result="shape"/>
</filter>
</defs>
</svg>
