<svg width="43" height="45" viewBox="0 0 43 45" fill="none" xmlns="http://www.w3.org/2000/svg">
<path d="M8.98729 42.6895C8.47649 42.6895 8.0175 42.6007 7.61034 42.423C7.21058 42.238 6.89596 41.9863 6.66647 41.6679C6.43698 41.3422 6.31853 40.9684 6.31113 40.5464H7.38826C7.42527 40.9091 7.57333 41.2164 7.83243 41.4681C8.09894 41.7124 8.48389 41.8345 8.98729 41.8345C9.46848 41.8345 9.84603 41.7161 10.1199 41.4792C10.4013 41.2349 10.5419 40.9239 10.5419 40.5464C10.5419 40.2503 10.4605 40.0097 10.2976 39.8246C10.1347 39.6395 9.93116 39.4989 9.68687 39.4026C9.44257 39.3064 9.11314 39.2028 8.69858 39.0917C8.18777 38.9585 7.77691 38.8252 7.46599 38.692C7.16247 38.5587 6.89966 38.3514 6.67757 38.0701C6.46289 37.7814 6.35554 37.3964 6.35554 36.9153C6.35554 36.4933 6.46289 36.1194 6.67757 35.7937C6.89226 35.468 7.19208 35.2163 7.57703 35.0386C7.96939 34.8609 8.41726 34.7721 8.92066 34.7721C9.64615 34.7721 10.2384 34.9535 10.6974 35.3162C11.1638 35.679 11.4266 36.1602 11.4858 36.7598H10.3753C10.3383 36.4637 10.1829 36.2046 9.90896 35.9825C9.63505 35.753 9.2723 35.6382 8.82072 35.6382C8.39876 35.6382 8.05452 35.7493 7.78801 35.9714C7.52151 36.1861 7.38826 36.4896 7.38826 36.8819C7.38826 37.1633 7.46599 37.3927 7.62145 37.5704C7.78431 37.7481 7.98049 37.885 8.20998 37.9813C8.44688 38.0701 8.77631 38.1738 9.19827 38.2922C9.70908 38.4329 10.1199 38.5735 10.4309 38.7142C10.7418 38.8474 11.0083 39.0584 11.2304 39.3471C11.4525 39.6284 11.5635 40.0134 11.5635 40.502C11.5635 40.8795 11.4636 41.2349 11.2637 41.568C11.0638 41.9011 10.7677 42.1713 10.3753 42.3786C9.98299 42.5859 9.5203 42.6895 8.98729 42.6895ZM14.7273 37.3594V40.9462C14.7273 41.2423 14.7902 41.4533 14.9161 41.5791C15.0419 41.6976 15.2603 41.7568 15.5713 41.7568H16.3152V42.6118H15.4047C14.8421 42.6118 14.4201 42.4823 14.1388 42.2232C13.8575 41.9641 13.7168 41.5384 13.7168 40.9462V37.3594H12.9284V36.5266H13.7168V34.9942H14.7273V36.5266H16.3152V37.3594H14.7273ZM17.6062 39.547C17.6062 38.9252 17.7321 38.381 17.9838 37.9147C18.2355 37.4409 18.5797 37.0744 19.0165 36.8153C19.4607 36.5562 19.953 36.4267 20.4934 36.4267C21.0264 36.4267 21.4891 36.5414 21.8814 36.7709C22.2738 37.0004 22.5662 37.2891 22.7587 37.637V36.5266H23.7803V42.6118H22.7587V41.4792C22.5588 41.8345 22.259 42.1306 21.8592 42.3675C21.4669 42.597 21.0079 42.7118 20.4823 42.7118C19.9418 42.7118 19.4533 42.5785 19.0165 42.312C18.5797 42.0455 18.2355 41.6716 17.9838 41.1905C17.7321 40.7093 17.6062 40.1614 17.6062 39.547ZM22.7587 39.5581C22.7587 39.0991 22.6661 38.6994 22.4811 38.3588C22.296 38.0183 22.0443 37.7592 21.726 37.5815C21.415 37.3964 21.0708 37.3039 20.6932 37.3039C20.3157 37.3039 19.9715 37.3927 19.6605 37.5704C19.3496 37.7481 19.1016 38.0072 18.9165 38.3477C18.7315 38.6883 18.6389 39.088 18.6389 39.547C18.6389 40.0134 18.7315 40.4205 18.9165 40.7685C19.1016 41.109 19.3496 41.3718 19.6605 41.5569C19.9715 41.7346 20.3157 41.8234 20.6932 41.8234C21.0708 41.8234 21.415 41.7346 21.726 41.5569C22.0443 41.3718 22.296 41.109 22.4811 40.7685C22.6661 40.4205 22.7587 40.0171 22.7587 39.5581ZM27.1647 37.3594V40.9462C27.1647 41.2423 27.2276 41.4533 27.3535 41.5791C27.4793 41.6976 27.6977 41.7568 28.0086 41.7568H28.7526V42.6118H27.8421C27.2794 42.6118 26.8575 42.4823 26.5762 42.2232C26.2948 41.9641 26.1542 41.5384 26.1542 40.9462V37.3594H25.3658V36.5266H26.1542V34.9942H27.1647V36.5266H28.7526V37.3594H27.1647ZM32.5754 42.7118C32.109 42.7118 31.6907 42.634 31.3206 42.4786C30.9505 42.3157 30.658 42.0936 30.4433 41.8123C30.2287 41.5236 30.1102 41.1942 30.088 40.824H31.1318C31.1614 41.1275 31.3021 41.3755 31.5538 41.568C31.8129 41.7605 32.1497 41.8567 32.5643 41.8567C32.9492 41.8567 33.2528 41.7716 33.4749 41.6013C33.6969 41.431 33.808 41.2164 33.808 40.9573C33.808 40.6908 33.6895 40.4946 33.4526 40.3687C33.2158 40.2355 32.8493 40.1059 32.3533 39.9801C31.9017 39.8616 31.5316 39.7432 31.2429 39.6247C30.9616 39.4989 30.7173 39.3175 30.51 39.0806C30.3101 38.8363 30.2102 38.518 30.2102 38.1256C30.2102 37.8147 30.3027 37.5297 30.4878 37.2706C30.6728 37.0115 30.9356 36.8079 31.2762 36.6599C31.6167 36.5044 32.0054 36.4267 32.4421 36.4267C33.1158 36.4267 33.6599 36.5969 34.0745 36.9375C34.4891 37.278 34.7111 37.7444 34.7408 38.3366H33.7303C33.708 38.0183 33.5785 37.7629 33.3416 37.5704C33.1121 37.3779 32.8012 37.2817 32.4088 37.2817C32.0461 37.2817 31.7574 37.3594 31.5427 37.5149C31.328 37.6704 31.2207 37.8739 31.2207 38.1256C31.2207 38.3255 31.2836 38.4921 31.4094 38.6253C31.5427 38.7512 31.7056 38.8548 31.898 38.9363C32.0979 39.0103 32.3718 39.0954 32.7198 39.1917C33.1565 39.3101 33.5119 39.4286 33.7858 39.547C34.0597 39.658 34.2929 39.8283 34.4854 40.0578C34.6852 40.2873 34.7889 40.5871 34.7963 40.9573C34.7963 41.2904 34.7037 41.5902 34.5187 41.8567C34.3336 42.1232 34.0708 42.3342 33.7303 42.4897C33.3971 42.6377 33.0122 42.7118 32.5754 42.7118Z" fill="black"/>
<path d="M29.0335 12.5499C28.7492 17.292 24.8134 21.0499 19.9999 21.0499C15.0017 21.0499 10.9499 16.9981 10.9499 11.9999C10.9499 7.1864 14.7078 3.25062 19.4499 2.96634V11.9999V12.5499H19.9999H29.0335ZM22.9499 9.04996V3.44134C25.5748 4.34596 27.6538 6.42506 28.5584 9.04996H22.9499Z" stroke="black" stroke-width="1.1"/>
</svg>
