<svg width="68" height="68" viewBox="0 0 68 68" fill="none" xmlns="http://www.w3.org/2000/svg">
<rect x="0.276611" y="0.0996094" width="66.9693" height="66.9693" rx="33.4847" fill="white"/>
<mask id="mask0_102_1401" style="mask-type:alpha" maskUnits="userSpaceOnUse" x="3" y="3" width="61" height="61">
<rect x="3.62305" y="3.44922" width="60.2724" height="60.2724" fill="#D9D9D9"/>
</mask>
<g mask="url(#mask0_102_1401)">
<path d="M30.2431 38.1056L24.8437 32.7062C24.3833 32.2458 23.7973 32.0156 23.0858 32.0156C22.3742 32.0156 21.7882 32.2458 21.3278 32.7062C20.8674 33.1666 20.6372 33.7526 20.6372 34.4642C20.6372 35.1757 20.8674 35.7617 21.3278 36.2221L28.4852 43.3794C28.9874 43.8817 29.5734 44.1329 30.2431 44.1329C30.9128 44.1329 31.4988 43.8817 32.0011 43.3794L46.1902 29.1903C46.6506 28.7299 46.8808 28.1439 46.8808 27.4324C46.8808 26.7208 46.6506 26.1348 46.1902 25.6744C45.7298 25.214 45.1438 24.9838 44.4322 24.9838C43.7207 24.9838 43.1347 25.214 42.6743 25.6744L30.2431 38.1056ZM33.759 58.6987C30.285 58.6987 27.0202 58.0395 23.9647 56.721C20.9093 55.4025 18.2514 53.6132 15.9912 51.353C13.731 49.0928 11.9417 46.4349 10.6232 43.3794C9.30474 40.324 8.64551 37.0592 8.64551 33.5852C8.64551 30.1111 9.30474 26.8464 10.6232 23.7909C11.9417 20.7354 13.731 18.0776 15.9912 15.8174C18.2514 13.5572 20.9093 11.7678 23.9647 10.4494C27.0202 9.13091 30.285 8.47168 33.759 8.47168C37.233 8.47168 40.4978 9.13091 43.5533 10.4494C46.6088 11.7678 49.2666 13.5572 51.5268 15.8174C53.787 18.0776 55.5764 20.7354 56.8948 23.7909C58.2133 26.8464 58.8725 30.1111 58.8725 33.5852C58.8725 37.0592 58.2133 40.324 56.8948 43.3794C55.5764 46.4349 53.787 49.0928 51.5268 51.353C49.2666 53.6132 46.6088 55.4025 43.5533 56.721C40.4978 58.0395 37.233 58.6987 33.759 58.6987Z" fill="#03B961"/>
</g>
</svg>
