<svg width="24" height="24" viewBox="0 0 24 24" fill="none" xmlns="http://www.w3.org/2000/svg">
<path d="M4 10C4 7.79086 5.79086 6 8 6H16C18.2091 6 20 7.79086 20 10V14C20 16.2091 18.2091 18 16 18H4V10Z" fill="#CCEDFA"/>
<path fill-rule="evenodd" clip-rule="evenodd" d="M3.14999 9.9999C3.14999 7.32132 5.32141 5.1499 7.99999 5.1499H16C18.6786 5.1499 20.85 7.32132 20.85 9.9999V13.9999C20.85 16.6785 18.6786 18.8499 16 18.8499H3.14999V9.9999ZM7.99999 6.8499C6.2603 6.8499 4.84999 8.26021 4.84999 9.9999V17.1499H16C17.7397 17.1499 19.15 15.7396 19.15 13.9999V9.9999C19.15 8.26021 17.7397 6.8499 16 6.8499H7.99999Z" fill="#3CA2F7"/>
<path fill-rule="evenodd" clip-rule="evenodd" d="M12.0001 11.1499C12.4695 11.1499 12.8501 11.5305 12.8501 11.9999L12.8501 14.9999C12.8501 15.4693 12.4695 15.8499 12.0001 15.8499C11.5307 15.8499 11.1501 15.4693 11.1501 14.9999L11.1501 11.9999C11.1501 11.5305 11.5307 11.1499 12.0001 11.1499Z" fill="#3CA2F7"/>
<path d="M13 9C13 9.55228 12.5523 10 12 10C11.4477 10 11 9.55228 11 9C11 8.44772 11.4477 8 12 8C12.5523 8 13 8.44772 13 9Z" fill="black"/>
</svg>
