<svg width="44" height="44" viewBox="0 0 44 44" fill="none" xmlns="http://www.w3.org/2000/svg">
<circle cx="22" cy="21.9998" r="21.513" fill="#3CA2F7"/>
<path fill-rule="evenodd" clip-rule="evenodd" d="M26.5419 14.47C26.6599 14.1508 26.894 13.9332 27.1637 13.9326C27.1641 13.9326 27.1645 13.9326 27.1648 13.9326C27.2919 13.9326 27.419 13.9907 27.5245 14.1068L27.5798 14.1759L27.7877 14.4701L31.6882 19.9891C31.9174 20.3134 31.9174 20.8392 31.6882 21.1635C31.4766 21.4629 31.1437 21.4859 30.9135 21.2326L30.8582 21.1635L27.8691 16.9346V29.0589C27.8691 29.6158 27.5538 30.0673 27.1648 30.0673C26.8036 30.0673 26.5059 29.678 26.4653 29.1765L26.4605 29.0589V16.9346L23.4714 21.1635C23.2599 21.4629 22.927 21.4859 22.6967 21.2326L22.6414 21.1635C22.4298 20.8642 22.4136 20.3931 22.5926 20.0673L22.6414 19.9891L26.5419 14.47ZM17.5347 14.8234C17.4941 14.3219 17.1964 13.9326 16.8352 13.9326C16.4462 13.9326 16.1309 14.3841 16.1309 14.941V27.0652L13.1418 22.8363L13.0865 22.7672C12.8563 22.5139 12.5234 22.5369 12.3118 22.8363C12.0826 23.1606 12.0826 23.6864 12.3118 24.0107L16.2122 29.5297C16.3303 29.8494 16.565 30.0673 16.8352 30.0673C17.1054 30.0673 17.3401 29.8494 17.4582 29.5296L21.3586 24.0107L21.4074 23.9325C21.5864 23.6067 21.5701 23.1356 21.3586 22.8363L21.3033 22.7672C21.073 22.5139 20.7401 22.5369 20.5285 22.8363L17.5395 27.0652V14.941L17.5347 14.8234ZM27.7877 14.4701C27.6696 14.1504 27.435 13.9326 27.1648 13.9326L27.7877 14.4701Z" fill="white"/>
</svg>
