<svg width="69" height="72" viewBox="0 0 69 72" fill="none" xmlns="http://www.w3.org/2000/svg">
<rect x="0.5" y="0.5" width="68" height="71" rx="13.5" fill="#3CA2F7"/>
<rect x="0.5" y="0.5" width="68" height="71" rx="13.5" stroke="white"/>
<path d="M51.8629 21.2558C51.4923 21.2558 51.1237 21.12 50.8289 20.8399C46.31 16.5705 40.5115 14.2193 34.5 14.2193C28.4885 14.2193 22.69 16.5705 18.1711 20.842C17.5425 21.434 16.572 21.3852 16.0008 20.738C15.4295 20.0887 15.4745 19.0807 16.1011 18.4887C21.1891 13.6825 27.7228 11.0364 34.5 11.0364C41.2773 11.0364 47.8109 13.6825 52.8989 18.4887C53.5255 19.0807 53.5705 20.0866 52.9993 20.738C52.6962 21.0818 52.2806 21.2558 51.8629 21.2558Z" fill="white"/>
<path d="M54.4633 31.6556C53.9698 31.6556 53.4825 31.4094 53.1877 30.9511C48.9248 24.373 41.9387 20.4452 34.5001 20.4452C27.0615 20.4452 20.0754 24.373 15.8125 30.9511C15.3395 31.6832 14.3833 31.8784 13.681 31.3861C12.9767 30.8959 12.7883 29.9071 13.2613 29.1771C18.0954 21.7184 26.0357 17.2644 34.5001 17.2644C42.9645 17.2644 50.9047 21.7184 55.7389 29.1792C56.2119 29.9092 56.0255 30.898 55.3192 31.3882C55.0571 31.5686 54.7602 31.6556 54.4633 31.6556Z" fill="white"/>
<path d="M29.6492 61.9634C29.254 61.9634 28.8589 61.8064 28.5579 61.4923C28.2221 61.1422 20.3535 52.8177 20.3535 44.8031C20.3535 36.485 26.6987 29.718 34.4998 29.718C42.3008 29.718 48.646 36.485 48.646 44.8031C48.646 45.6816 47.958 46.3945 47.1104 46.3945C46.2627 46.3945 45.5747 45.6816 45.5747 44.8031C45.5747 38.2398 40.6075 32.901 34.4998 32.901C28.392 32.901 23.4248 38.2398 23.4248 44.8031C23.4248 51.5233 30.6668 59.1751 30.7405 59.2515C31.3384 59.8754 31.3343 60.8833 30.7303 61.5029C30.4314 61.8106 30.0403 61.9634 29.6492 61.9634Z" fill="white"/>
<path d="M39.3506 61.9636C35.6569 61.9636 27.0942 54.681 26.2649 46.5708C25.9722 43.7041 26.8526 40.7715 28.6175 38.7259C30.1532 36.9477 32.2273 35.961 34.457 35.9483H34.5C36.6745 35.9483 38.7302 36.8331 40.2945 38.4437C41.9284 40.1264 42.8272 42.3863 42.8272 44.8054V45.843C42.8272 48.4 44.7478 50.4795 47.1106 50.4795C49.4735 50.4795 51.3961 48.4 51.3961 45.843V45.4802C51.3961 35.5706 44.4694 27.3267 35.6262 26.7156C31.0152 26.391 26.5925 28.0418 23.1793 31.3479C19.6372 34.7812 17.606 39.6872 17.606 44.8054C17.606 49.0153 18.982 53.1171 21.4799 56.3552C22.0082 57.0427 21.9017 58.0422 21.2383 58.5918C20.577 59.1414 19.6105 59.0289 19.0782 58.3414C16.1482 54.5409 14.5327 49.7326 14.5327 44.8032C14.5327 38.8066 16.9201 33.0539 21.0786 29.0222C25.1183 25.105 30.3559 23.1571 35.8268 23.5369C46.2773 24.2605 54.4653 33.8985 54.4653 45.478V45.8409C54.4653 50.1527 51.1647 53.6603 47.1086 53.6603C43.0525 53.6603 39.7539 50.1527 39.7539 45.8409V44.8032C39.7539 43.2372 39.1765 41.7816 38.1282 40.6994C37.1454 39.6851 35.8575 39.1291 34.5 39.1291C34.4898 39.1291 34.4816 39.1291 34.4714 39.1291C32.7412 39.1376 31.5762 40.0691 30.9046 40.8479C29.7068 42.2335 29.113 44.2494 29.3157 46.2356C29.9935 52.8519 37.3297 58.7827 39.3485 58.7827C40.1962 58.7827 40.8842 59.4957 40.8842 60.3742C40.8842 61.2527 40.1982 61.9636 39.3506 61.9636Z" fill="white"/>
<path d="M45.049 58.8506C39.5534 58.8506 32.8438 51.8905 32.8438 43.7655C32.8438 42.8871 33.5317 42.1741 34.3794 42.1741C35.2271 42.1741 35.915 42.8871 35.915 43.7655C35.915 50.0635 41.0235 55.6676 45.049 55.6676C45.8966 55.6676 46.5846 56.3806 46.5846 57.2591C46.5846 58.1376 45.8966 58.8506 45.049 58.8506Z" fill="white"/>
</svg>
