<svg width="18" height="21" viewBox="0 0 18 21" fill="none" xmlns="http://www.w3.org/2000/svg">
<path d="M13.581 17.2683L12.9295 16.9262L12.3142 17.3299L9.86721 18.9358C9.31215 19.3 8.59876 19.3188 8.02529 18.9843L5.12984 17.2953L4.5 16.9279L3.87016 17.2953L1.25 18.8237V3C1.25 2.0335 2.0335 1.25 3 1.25H15C15.9665 1.25 16.75 2.0335 16.75 3V18.932L13.581 17.2683ZM0.874031 19.043C0.874173 19.0429 0.874313 19.0429 0.874454 19.0428L0.874031 19.043ZM17.1162 19.1242L17.1156 19.1239L17.1162 19.1242Z" stroke="#49B6F4" stroke-width="2.5"/>
<line x1="8.25" y1="6.75" x2="11.75" y2="6.75" stroke="#49B6F4" stroke-width="2.5" stroke-linecap="round"/>
<line x1="5.25" y1="11.75" x2="11.75" y2="11.75" stroke="#49B6F4" stroke-width="2.5" stroke-linecap="round"/>
</svg>
