<svg width="266" height="236" viewBox="0 0 266 236" fill="none" xmlns="http://www.w3.org/2000/svg">
<path d="M133 217.957C202.397 217.957 258.654 214.683 258.654 210.643C258.654 206.604 202.397 203.329 133 203.329C63.603 203.329 7.3457 206.604 7.3457 210.643C7.3457 214.683 63.603 217.957 133 217.957Z" fill="#F5F5F5"/>
<path d="M126.528 145.972H41.9023C39.1 145.972 36.8279 143.708 36.8279 140.914V22.7599C36.8279 19.9668 39.1 17.7021 41.9023 17.7021H126.528C129.331 17.7021 131.603 19.9668 131.603 22.7599V140.914C131.603 143.708 129.331 145.972 126.528 145.972Z" fill="#449ACB"/>
<path opacity="0.6" d="M126.528 145.972H41.9023C39.1 145.972 36.8279 143.708 36.8279 140.914V22.7599C36.8279 19.9668 39.1 17.7021 41.9023 17.7021H126.528C129.331 17.7021 131.603 19.9668 131.603 22.7599V140.914C131.603 143.708 129.331 145.972 126.528 145.972Z" fill="white"/>
<path d="M96.9431 52.0963C96.9431 56.0431 95.135 59.57 92.2964 61.9019C90.0995 63.6976 87.2868 64.7828 84.215 64.7828C81.1496 64.7828 78.337 63.7041 76.14 61.9019C73.3014 59.5764 71.4868 56.0496 71.4868 52.0963C71.4868 45.0943 77.1899 39.4164 84.215 39.4164C91.2466 39.4164 96.9431 45.0943 96.9431 52.0963Z" fill="#449ACB"/>
<path opacity="0.7" d="M96.9431 52.0963C96.9431 56.0431 95.135 59.57 92.2964 61.9019C90.0995 63.6976 87.2868 64.7828 84.215 64.7828C81.1496 64.7828 78.337 63.7041 76.14 61.9019C73.3014 59.5764 71.4868 56.0496 71.4868 52.0963C71.4868 45.0943 77.1899 39.4164 84.215 39.4164C91.2466 39.4164 96.9431 45.0943 96.9431 52.0963Z" fill="#8CC0DD"/>
<path d="M84.2156 55.4475C86.7329 55.4475 88.7735 53.4135 88.7735 50.9045C88.7735 48.3955 86.7329 46.3616 84.2156 46.3616C81.6984 46.3616 79.6577 48.3955 79.6577 50.9045C79.6577 53.4135 81.6984 55.4475 84.2156 55.4475Z" fill="white"/>
<path d="M92.2963 61.9018C90.0994 63.6976 87.2867 64.7828 84.2149 64.7828C81.1495 64.7828 78.3369 63.704 76.1399 61.9018C77.3323 58.4202 79.7885 55.8493 82.7373 55.1969C83.2168 55.0935 83.7094 55.0354 84.2149 55.0354C84.7204 55.0354 85.2129 55.0935 85.6925 55.1969C88.6477 55.8493 91.0974 58.4202 92.2963 61.9018Z" fill="white"/>
<path d="M79.228 101.26C79.02 101.26 78.82 101.227 78.628 101.16C78.4387 101.091 78.292 101.003 78.188 100.896L78.304 100.668C78.4027 100.764 78.5347 100.846 78.7 100.912C78.868 100.976 79.044 101.008 79.228 101.008C79.404 101.008 79.5467 100.987 79.656 100.944C79.768 100.899 79.8493 100.839 79.9 100.764C79.9533 100.69 79.98 100.607 79.98 100.516C79.98 100.407 79.948 100.319 79.884 100.252C79.8227 100.186 79.7413 100.134 79.64 100.096C79.5387 100.056 79.4267 100.022 79.304 99.9922C79.1813 99.9629 79.0587 99.9322 78.936 99.9002C78.8133 99.8655 78.7 99.8202 78.596 99.7642C78.4947 99.7082 78.412 99.6349 78.348 99.5442C78.2867 99.4509 78.256 99.3295 78.256 99.1802C78.256 99.0415 78.292 98.9149 78.364 98.8002C78.4387 98.6829 78.552 98.5895 78.704 98.5202C78.856 98.4482 79.0507 98.4122 79.288 98.4122C79.4453 98.4122 79.6013 98.4349 79.756 98.4802C79.9107 98.5229 80.044 98.5829 80.156 98.6602L80.056 98.8962C79.936 98.8162 79.808 98.7575 79.672 98.7202C79.5387 98.6829 79.4093 98.6642 79.284 98.6642C79.116 98.6642 78.9773 98.6869 78.868 98.7322C78.7587 98.7775 78.6773 98.8389 78.624 98.9162C78.5733 98.9909 78.548 99.0762 78.548 99.1722C78.548 99.2815 78.5787 99.3695 78.64 99.4362C78.704 99.5029 78.7867 99.5549 78.888 99.5922C78.992 99.6295 79.1053 99.6629 79.228 99.6922C79.3507 99.7215 79.472 99.7535 79.592 99.7882C79.7147 99.8229 79.8267 99.8682 79.928 99.9242C80.032 99.9775 80.1147 100.05 80.176 100.14C80.24 100.231 80.272 100.35 80.272 100.496C80.272 100.632 80.2347 100.759 80.16 100.876C80.0853 100.991 79.9707 101.084 79.816 101.156C79.664 101.226 79.468 101.26 79.228 101.26ZM80.8569 101.236V99.1362H81.1409V101.236H80.8569ZM81.0009 98.6722C80.9423 98.6722 80.8929 98.6522 80.8529 98.6122C80.8129 98.5722 80.7929 98.5242 80.7929 98.4682C80.7929 98.4122 80.8129 98.3655 80.8529 98.3282C80.8929 98.2882 80.9423 98.2682 81.0009 98.2682C81.0596 98.2682 81.1089 98.2869 81.1489 98.3242C81.1889 98.3615 81.2089 98.4082 81.2089 98.4642C81.2089 98.5229 81.1889 98.5722 81.1489 98.6122C81.1116 98.6522 81.0623 98.6722 81.0009 98.6722ZM82.8272 102.032C82.6352 102.032 82.4512 102.004 82.2752 101.948C82.0992 101.892 81.9565 101.812 81.8472 101.708L81.9912 101.492C82.0898 101.58 82.2112 101.65 82.3552 101.7C82.5018 101.754 82.6565 101.78 82.8192 101.78C83.0858 101.78 83.2818 101.718 83.4072 101.592C83.5325 101.47 83.5952 101.278 83.5952 101.016V100.492L83.6352 100.132L83.6072 99.7722V99.1362H83.8792V100.98C83.8792 101.343 83.7898 101.608 83.6112 101.776C83.4352 101.947 83.1738 102.032 82.8272 102.032ZM82.7752 101.156C82.5752 101.156 82.3952 101.114 82.2352 101.028C82.0752 100.94 81.9485 100.819 81.8552 100.664C81.7645 100.51 81.7192 100.332 81.7192 100.132C81.7192 99.9322 81.7645 99.7562 81.8552 99.6042C81.9485 99.4495 82.0752 99.3295 82.2352 99.2442C82.3952 99.1589 82.5752 99.1162 82.7752 99.1162C82.9618 99.1162 83.1298 99.1549 83.2792 99.2322C83.4285 99.3095 83.5472 99.4242 83.6352 99.5762C83.7232 99.7282 83.7672 99.9135 83.7672 100.132C83.7672 100.351 83.7232 100.536 83.6352 100.688C83.5472 100.84 83.4285 100.956 83.2792 101.036C83.1298 101.116 82.9618 101.156 82.7752 101.156ZM82.8032 100.904C82.9578 100.904 83.0952 100.872 83.2152 100.808C83.3352 100.742 83.4298 100.651 83.4992 100.536C83.5685 100.419 83.6032 100.284 83.6032 100.132C83.6032 99.9802 83.5685 99.8469 83.4992 99.7322C83.4298 99.6175 83.3352 99.5282 83.2152 99.4642C83.0952 99.3975 82.9578 99.3642 82.8032 99.3642C82.6512 99.3642 82.5138 99.3975 82.3912 99.4642C82.2712 99.5282 82.1765 99.6175 82.1072 99.7322C82.0405 99.8469 82.0072 99.9802 82.0072 100.132C82.0072 100.284 82.0405 100.419 82.1072 100.536C82.1765 100.651 82.2712 100.742 82.3912 100.808C82.5138 100.872 82.6512 100.904 82.8032 100.904ZM85.7414 99.1162C85.9121 99.1162 86.0614 99.1495 86.1894 99.2162C86.3201 99.2802 86.4214 99.3789 86.4934 99.5122C86.5681 99.6455 86.6054 99.8135 86.6054 100.016V101.236H86.3214V100.044C86.3214 99.8229 86.2654 99.6562 86.1534 99.5442C86.0441 99.4295 85.8894 99.3722 85.6894 99.3722C85.5401 99.3722 85.4094 99.4029 85.2974 99.4642C85.1881 99.5229 85.1028 99.6095 85.0414 99.7242C84.9828 99.8362 84.9534 99.9722 84.9534 100.132V101.236H84.6694V99.1362H84.9414V99.7122L84.8974 99.6042C84.9641 99.4522 85.0708 99.3335 85.2174 99.2482C85.3641 99.1602 85.5388 99.1162 85.7414 99.1162ZM89.2874 101.256C89.1088 101.256 88.9528 101.223 88.8194 101.156C88.6861 101.09 88.5821 100.99 88.5074 100.856C88.4354 100.723 88.3994 100.556 88.3994 100.356V99.1362H88.6834V100.324C88.6834 100.548 88.7381 100.718 88.8474 100.832C88.9594 100.944 89.1154 101 89.3154 101C89.4621 101 89.5888 100.971 89.6954 100.912C89.8048 100.851 89.8874 100.763 89.9434 100.648C90.0021 100.534 90.0314 100.396 90.0314 100.236V99.1362H90.3154V101.236H90.0434V100.66L90.0874 100.764C90.0208 100.919 89.9168 101.04 89.7754 101.128C89.6368 101.214 89.4741 101.256 89.2874 101.256ZM92.1909 101.256C92.0096 101.256 91.8456 101.215 91.6989 101.132C91.5523 101.047 91.4349 100.926 91.3469 100.768C91.2616 100.608 91.2189 100.414 91.2189 100.184C91.2189 99.9549 91.2616 99.7615 91.3469 99.6042C91.4323 99.4442 91.5483 99.3229 91.6949 99.2402C91.8416 99.1575 92.0069 99.1162 92.1909 99.1162C92.3909 99.1162 92.5696 99.1615 92.7269 99.2522C92.8869 99.3402 93.0123 99.4655 93.1029 99.6282C93.1936 99.7882 93.2389 99.9735 93.2389 100.184C93.2389 100.398 93.1936 100.584 93.1029 100.744C93.0123 100.904 92.8869 101.03 92.7269 101.12C92.5696 101.211 92.3909 101.256 92.1909 101.256ZM91.1069 102.012V99.1362H91.3789V99.7682L91.3509 100.188L91.3909 100.612V102.012H91.1069ZM92.1709 101.004C92.3203 101.004 92.4536 100.971 92.5709 100.904C92.6883 100.835 92.7816 100.739 92.8509 100.616C92.9203 100.491 92.9549 100.347 92.9549 100.184C92.9549 100.022 92.9203 99.8789 92.8509 99.7562C92.7816 99.6335 92.6883 99.5375 92.5709 99.4682C92.4536 99.3989 92.3203 99.3642 92.1709 99.3642C92.0216 99.3642 91.8869 99.3989 91.7669 99.4682C91.6496 99.5375 91.5563 99.6335 91.4869 99.7562C91.4203 99.8789 91.3869 100.022 91.3869 100.184C91.3869 100.347 91.4203 100.491 91.4869 100.616C91.5563 100.739 91.6496 100.835 91.7669 100.904C91.8869 100.971 92.0216 101.004 92.1709 101.004ZM95.9368 99.1162C96.1074 99.1162 96.2568 99.1495 96.3848 99.2162C96.5154 99.2802 96.6168 99.3789 96.6888 99.5122C96.7634 99.6455 96.8008 99.8135 96.8008 100.016V101.236H96.5168V100.044C96.5168 99.8229 96.4608 99.6562 96.3488 99.5442C96.2394 99.4295 96.0848 99.3722 95.8848 99.3722C95.7354 99.3722 95.6048 99.4029 95.4928 99.4642C95.3834 99.5229 95.2981 99.6095 95.2368 99.7242C95.1781 99.8362 95.1488 99.9722 95.1488 100.132V101.236H94.8648V99.1362H95.1368V99.7122L95.0928 99.6042C95.1594 99.4522 95.2661 99.3335 95.4128 99.2482C95.5594 99.1602 95.7341 99.1162 95.9368 99.1162ZM98.4239 101.256C98.2212 101.256 98.0385 101.211 97.8759 101.12C97.7159 101.027 97.5892 100.9 97.4959 100.74C97.4025 100.578 97.3559 100.392 97.3559 100.184C97.3559 99.9735 97.4025 99.7882 97.4959 99.6282C97.5892 99.4682 97.7159 99.3429 97.8759 99.2522C98.0359 99.1615 98.2185 99.1162 98.4239 99.1162C98.6319 99.1162 98.8159 99.1615 98.9759 99.2522C99.1385 99.3429 99.2652 99.4682 99.3559 99.6282C99.4492 99.7882 99.4959 99.9735 99.4959 100.184C99.4959 100.392 99.4492 100.578 99.3559 100.74C99.2652 100.9 99.1385 101.027 98.9759 101.12C98.8132 101.211 98.6292 101.256 98.4239 101.256ZM98.4239 101.004C98.5759 101.004 98.7105 100.971 98.8279 100.904C98.9452 100.835 99.0372 100.739 99.1039 100.616C99.1732 100.491 99.2079 100.347 99.2079 100.184C99.2079 100.019 99.1732 99.8749 99.1039 99.7522C99.0372 99.6295 98.9452 99.5349 98.8279 99.4682C98.7105 99.3989 98.5772 99.3642 98.4279 99.3642C98.2785 99.3642 98.1452 99.3989 98.0279 99.4682C97.9105 99.5349 97.8172 99.6295 97.7479 99.7522C97.6785 99.8749 97.6439 100.019 97.6439 100.184C97.6439 100.347 97.6785 100.491 97.7479 100.616C97.8172 100.739 97.9105 100.835 98.0279 100.904C98.1452 100.971 98.2772 101.004 98.4239 101.004ZM100.445 101.236L99.6531 99.1362H99.9251L100.645 101.084H100.521L101.261 99.1362H101.505L102.237 101.084H102.113L102.845 99.1362H103.105L102.309 101.236H102.041L101.337 99.4042H101.421L100.713 101.236H100.445Z" fill="black"/>
<path d="M109.776 116.136H58.4973C55.5719 116.136 53.2 113.772 53.2 110.856C53.2 107.94 55.5719 105.576 58.4973 105.576H109.776C112.701 105.576 115.073 107.94 115.073 110.856C115.073 113.772 112.702 116.136 109.776 116.136Z" fill="#449ACB"/>
<g opacity="0.5">
<path d="M75.72 123.895H77.2V124.151H75.72V123.895ZM75.752 125.339H75.456V122.539H77.376V122.795H75.752V125.339ZM78.7129 125.359C78.5103 125.359 78.3276 125.314 78.1649 125.223C78.0049 125.13 77.8783 125.003 77.7849 124.843C77.6916 124.68 77.6449 124.495 77.6449 124.287C77.6449 124.076 77.6916 123.891 77.7849 123.731C77.8783 123.571 78.0049 123.446 78.1649 123.355C78.3249 123.264 78.5076 123.219 78.7129 123.219C78.9209 123.219 79.1049 123.264 79.2649 123.355C79.4276 123.446 79.5543 123.571 79.6449 123.731C79.7383 123.891 79.7849 124.076 79.7849 124.287C79.7849 124.495 79.7383 124.68 79.6449 124.843C79.5543 125.003 79.4276 125.13 79.2649 125.223C79.1023 125.314 78.9183 125.359 78.7129 125.359ZM78.7129 125.107C78.8649 125.107 78.9996 125.074 79.1169 125.007C79.2343 124.938 79.3263 124.842 79.3929 124.719C79.4623 124.594 79.4969 124.45 79.4969 124.287C79.4969 124.122 79.4623 123.978 79.3929 123.855C79.3263 123.732 79.2343 123.638 79.1169 123.571C78.9996 123.502 78.8663 123.467 78.7169 123.467C78.5676 123.467 78.4343 123.502 78.3169 123.571C78.1996 123.638 78.1063 123.732 78.0369 123.855C77.9676 123.978 77.9329 124.122 77.9329 124.287C77.9329 124.45 77.9676 124.594 78.0369 124.719C78.1063 124.842 78.1996 124.938 78.3169 125.007C78.4343 125.074 78.5663 125.107 78.7129 125.107ZM80.3648 125.339V123.239H80.6368V123.811L80.6088 123.711C80.6674 123.551 80.7661 123.43 80.9048 123.347C81.0434 123.262 81.2154 123.219 81.4208 123.219V123.495C81.4101 123.495 81.3994 123.495 81.3888 123.495C81.3781 123.492 81.3674 123.491 81.3568 123.491C81.1354 123.491 80.9621 123.559 80.8368 123.695C80.7114 123.828 80.6488 124.019 80.6488 124.267V125.339H80.3648ZM82.8154 126.135C82.6234 126.135 82.4394 126.107 82.2634 126.051C82.0874 125.995 81.9448 125.915 81.8354 125.811L81.9794 125.595C82.0781 125.683 82.1994 125.752 82.3434 125.803C82.4901 125.856 82.6448 125.883 82.8074 125.883C83.0741 125.883 83.2701 125.82 83.3954 125.695C83.5208 125.572 83.5834 125.38 83.5834 125.119V124.595L83.6234 124.235L83.5954 123.875V123.239H83.8674V125.083C83.8674 125.446 83.7781 125.711 83.5994 125.879C83.4234 126.05 83.1621 126.135 82.8154 126.135ZM82.7634 125.259C82.5634 125.259 82.3834 125.216 82.2234 125.131C82.0634 125.043 81.9368 124.922 81.8434 124.767C81.7528 124.612 81.7074 124.435 81.7074 124.235C81.7074 124.035 81.7528 123.859 81.8434 123.707C81.9368 123.552 82.0634 123.432 82.2234 123.347C82.3834 123.262 82.5634 123.219 82.7634 123.219C82.9501 123.219 83.1181 123.258 83.2674 123.335C83.4168 123.412 83.5354 123.527 83.6234 123.679C83.7114 123.831 83.7554 124.016 83.7554 124.235C83.7554 124.454 83.7114 124.639 83.6234 124.791C83.5354 124.943 83.4168 125.059 83.2674 125.139C83.1181 125.219 82.9501 125.259 82.7634 125.259ZM82.7914 125.007C82.9461 125.007 83.0834 124.975 83.2034 124.911C83.3234 124.844 83.4181 124.754 83.4874 124.639C83.5568 124.522 83.5914 124.387 83.5914 124.235C83.5914 124.083 83.5568 123.95 83.4874 123.835C83.4181 123.72 83.3234 123.631 83.2034 123.567C83.0834 123.5 82.9461 123.467 82.7914 123.467C82.6394 123.467 82.5021 123.5 82.3794 123.567C82.2594 123.631 82.1648 123.72 82.0954 123.835C82.0288 123.95 81.9954 124.083 81.9954 124.235C81.9954 124.387 82.0288 124.522 82.0954 124.639C82.1648 124.754 82.2594 124.844 82.3794 124.911C82.5021 124.975 82.6394 125.007 82.7914 125.007ZM85.5137 125.359C85.3111 125.359 85.1284 125.314 84.9657 125.223C84.8057 125.13 84.6791 125.003 84.5857 124.843C84.4924 124.68 84.4457 124.495 84.4457 124.287C84.4457 124.076 84.4924 123.891 84.5857 123.731C84.6791 123.571 84.8057 123.446 84.9657 123.355C85.1257 123.264 85.3084 123.219 85.5137 123.219C85.7217 123.219 85.9057 123.264 86.0657 123.355C86.2284 123.446 86.3551 123.571 86.4457 123.731C86.5391 123.891 86.5857 124.076 86.5857 124.287C86.5857 124.495 86.5391 124.68 86.4457 124.843C86.3551 125.003 86.2284 125.13 86.0657 125.223C85.9031 125.314 85.7191 125.359 85.5137 125.359ZM85.5137 125.107C85.6657 125.107 85.8004 125.074 85.9177 125.007C86.0351 124.938 86.1271 124.842 86.1937 124.719C86.2631 124.594 86.2977 124.45 86.2977 124.287C86.2977 124.122 86.2631 123.978 86.1937 123.855C86.1271 123.732 86.0351 123.638 85.9177 123.571C85.8004 123.502 85.6671 123.467 85.5177 123.467C85.3684 123.467 85.2351 123.502 85.1177 123.571C85.0004 123.638 84.9071 123.732 84.8377 123.855C84.7684 123.978 84.7337 124.122 84.7337 124.287C84.7337 124.45 84.7684 124.594 84.8377 124.719C84.9071 124.842 85.0004 124.938 85.1177 125.007C85.2351 125.074 85.3671 125.107 85.5137 125.107ZM87.8295 125.359C87.6322 125.359 87.4802 125.306 87.3735 125.199C87.2669 125.092 87.2135 124.942 87.2135 124.747V122.775H87.4975V124.731C87.4975 124.854 87.5282 124.948 87.5895 125.015C87.6535 125.082 87.7442 125.115 87.8615 125.115C87.9869 125.115 88.0909 125.079 88.1735 125.007L88.2735 125.211C88.2175 125.262 88.1495 125.299 88.0695 125.323C87.9922 125.347 87.9122 125.359 87.8295 125.359ZM86.8375 123.475V123.239H88.1375V123.475H86.8375ZM89.8974 125.339V122.539H90.9454C91.1827 122.539 91.3867 122.578 91.5574 122.655C91.7281 122.73 91.8587 122.839 91.9494 122.983C92.0427 123.124 92.0894 123.296 92.0894 123.499C92.0894 123.696 92.0427 123.867 91.9494 124.011C91.8587 124.152 91.7281 124.262 91.5574 124.339C91.3867 124.416 91.1827 124.455 90.9454 124.455H90.0614L90.1934 124.315V125.339H89.8974ZM90.1934 124.339L90.0614 124.195H90.9374C91.2174 124.195 91.4294 124.135 91.5734 124.015C91.7201 123.892 91.7934 123.72 91.7934 123.499C91.7934 123.275 91.7201 123.102 91.5734 122.979C91.4294 122.856 91.2174 122.795 90.9374 122.795H90.0614L90.1934 122.655V124.339ZM93.9659 125.339V124.875L93.9539 124.799V124.023C93.9539 123.844 93.9032 123.707 93.8019 123.611C93.7032 123.515 93.5552 123.467 93.3579 123.467C93.2219 123.467 93.0926 123.49 92.9699 123.535C92.8472 123.58 92.7432 123.64 92.6579 123.715L92.5299 123.503C92.6366 123.412 92.7646 123.343 92.9139 123.295C93.0632 123.244 93.2206 123.219 93.3859 123.219C93.6579 123.219 93.8672 123.287 94.0139 123.423C94.1632 123.556 94.2379 123.76 94.2379 124.035V125.339H93.9659ZM93.2419 125.359C93.0846 125.359 92.9472 125.334 92.8299 125.283C92.7152 125.23 92.6272 125.158 92.5659 125.067C92.5046 124.974 92.4739 124.867 92.4739 124.747C92.4739 124.638 92.4992 124.539 92.5499 124.451C92.6032 124.36 92.6886 124.288 92.8059 124.235C92.9259 124.179 93.0859 124.151 93.2859 124.151H94.0099V124.363H93.2939C93.0912 124.363 92.9499 124.399 92.8699 124.471C92.7926 124.543 92.7539 124.632 92.7539 124.739C92.7539 124.859 92.8006 124.955 92.8939 125.027C92.9872 125.099 93.1179 125.135 93.2859 125.135C93.4459 125.135 93.5832 125.099 93.6979 125.027C93.8152 124.952 93.9006 124.846 93.9539 124.707L94.0179 124.903C93.9646 125.042 93.8712 125.152 93.7379 125.235C93.6072 125.318 93.4419 125.359 93.2419 125.359ZM95.5733 125.359C95.3999 125.359 95.2359 125.335 95.0813 125.287C94.9266 125.236 94.8053 125.174 94.7173 125.099L94.8453 124.875C94.9306 124.939 95.0399 124.995 95.1733 125.043C95.3066 125.088 95.4466 125.111 95.5933 125.111C95.7933 125.111 95.9373 125.08 96.0253 125.019C96.1133 124.955 96.1573 124.871 96.1573 124.767C96.1573 124.69 96.1319 124.63 96.0813 124.587C96.0333 124.542 95.9693 124.508 95.8893 124.487C95.8093 124.463 95.7199 124.443 95.6213 124.427C95.5226 124.411 95.4239 124.392 95.3253 124.371C95.2293 124.35 95.1413 124.319 95.0613 124.279C94.9813 124.236 94.9159 124.179 94.8653 124.107C94.8173 124.035 94.7933 123.939 94.7933 123.819C94.7933 123.704 94.8253 123.602 94.8893 123.511C94.9533 123.42 95.0466 123.35 95.1693 123.299C95.2946 123.246 95.4466 123.219 95.6253 123.219C95.7613 123.219 95.8973 123.238 96.0333 123.275C96.1693 123.31 96.2813 123.356 96.3693 123.415L96.2453 123.643C96.1519 123.579 96.0519 123.534 95.9453 123.507C95.8386 123.478 95.7319 123.463 95.6253 123.463C95.4359 123.463 95.2959 123.496 95.2053 123.563C95.1173 123.627 95.0733 123.71 95.0733 123.811C95.0733 123.891 95.0973 123.954 95.1453 123.999C95.1959 124.044 95.2613 124.08 95.3413 124.107C95.4239 124.131 95.5133 124.151 95.6093 124.167C95.7079 124.183 95.8053 124.203 95.9013 124.227C95.9999 124.248 96.0893 124.279 96.1693 124.319C96.2519 124.356 96.3173 124.411 96.3653 124.483C96.4159 124.552 96.4413 124.644 96.4413 124.759C96.4413 124.882 96.4066 124.988 96.3373 125.079C96.2706 125.167 96.1719 125.236 96.0413 125.287C95.9133 125.335 95.7573 125.359 95.5733 125.359ZM97.5264 125.359C97.3531 125.359 97.1891 125.335 97.0344 125.287C96.8797 125.236 96.7584 125.174 96.6704 125.099L96.7984 124.875C96.8837 124.939 96.9931 124.995 97.1264 125.043C97.2597 125.088 97.3997 125.111 97.5464 125.111C97.7464 125.111 97.8904 125.08 97.9784 125.019C98.0664 124.955 98.1104 124.871 98.1104 124.767C98.1104 124.69 98.0851 124.63 98.0344 124.587C97.9864 124.542 97.9224 124.508 97.8424 124.487C97.7624 124.463 97.6731 124.443 97.5744 124.427C97.4757 124.411 97.3771 124.392 97.2784 124.371C97.1824 124.35 97.0944 124.319 97.0144 124.279C96.9344 124.236 96.8691 124.179 96.8184 124.107C96.7704 124.035 96.7464 123.939 96.7464 123.819C96.7464 123.704 96.7784 123.602 96.8424 123.511C96.9064 123.42 96.9997 123.35 97.1224 123.299C97.2477 123.246 97.3997 123.219 97.5784 123.219C97.7144 123.219 97.8504 123.238 97.9864 123.275C98.1224 123.31 98.2344 123.356 98.3224 123.415L98.1984 123.643C98.1051 123.579 98.0051 123.534 97.8984 123.507C97.7917 123.478 97.6851 123.463 97.5784 123.463C97.3891 123.463 97.2491 123.496 97.1584 123.563C97.0704 123.627 97.0264 123.71 97.0264 123.811C97.0264 123.891 97.0504 123.954 97.0984 123.999C97.1491 124.044 97.2144 124.08 97.2944 124.107C97.3771 124.131 97.4664 124.151 97.5624 124.167C97.6611 124.183 97.7584 124.203 97.8544 124.227C97.9531 124.248 98.0424 124.279 98.1224 124.319C98.2051 124.356 98.2704 124.411 98.3184 124.483C98.3691 124.552 98.3944 124.644 98.3944 124.759C98.3944 124.882 98.3597 124.988 98.2904 125.079C98.2237 125.167 98.1251 125.236 97.9944 125.287C97.8664 125.335 97.7104 125.359 97.5264 125.359ZM99.3045 125.339L98.5125 123.239H98.7845L99.5045 125.187H99.3805L100.12 123.239H100.364L101.096 125.187H100.972L101.704 123.239H101.964L101.168 125.339H100.9L100.196 123.507H100.28L99.5725 125.339H99.3045ZM103.19 125.359C102.987 125.359 102.804 125.314 102.642 125.223C102.482 125.13 102.355 125.003 102.262 124.843C102.168 124.68 102.122 124.495 102.122 124.287C102.122 124.076 102.168 123.891 102.262 123.731C102.355 123.571 102.482 123.446 102.642 123.355C102.802 123.264 102.984 123.219 103.19 123.219C103.398 123.219 103.582 123.264 103.742 123.355C103.904 123.446 104.031 123.571 104.122 123.731C104.215 123.891 104.262 124.076 104.262 124.287C104.262 124.495 104.215 124.68 104.122 124.843C104.031 125.003 103.904 125.13 103.742 125.223C103.579 125.314 103.395 125.359 103.19 125.359ZM103.19 125.107C103.342 125.107 103.476 125.074 103.594 125.007C103.711 124.938 103.803 124.842 103.87 124.719C103.939 124.594 103.974 124.45 103.974 124.287C103.974 124.122 103.939 123.978 103.87 123.855C103.803 123.732 103.711 123.638 103.594 123.571C103.476 123.502 103.343 123.467 103.194 123.467C103.044 123.467 102.911 123.502 102.794 123.571C102.676 123.638 102.583 123.732 102.514 123.855C102.444 123.978 102.41 124.122 102.41 124.287C102.41 124.45 102.444 124.594 102.514 124.719C102.583 124.842 102.676 124.938 102.794 125.007C102.911 125.074 103.043 125.107 103.19 125.107ZM104.841 125.339V123.239H105.113V123.811L105.085 123.711C105.144 123.551 105.243 123.43 105.381 123.347C105.52 123.262 105.692 123.219 105.897 123.219V123.495C105.887 123.495 105.876 123.495 105.865 123.495C105.855 123.492 105.844 123.491 105.833 123.491C105.612 123.491 105.439 123.559 105.313 123.695C105.188 123.828 105.125 124.019 105.125 124.267V125.339H104.841ZM107.232 125.359C107.032 125.359 106.852 125.314 106.692 125.223C106.535 125.132 106.411 125.007 106.32 124.847C106.229 124.684 106.184 124.498 106.184 124.287C106.184 124.074 106.229 123.887 106.32 123.727C106.411 123.567 106.535 123.443 106.692 123.355C106.852 123.264 107.032 123.219 107.232 123.219C107.416 123.219 107.58 123.26 107.724 123.343C107.871 123.426 107.987 123.547 108.072 123.707C108.16 123.864 108.204 124.058 108.204 124.287C108.204 124.514 108.161 124.707 108.076 124.867C107.991 125.027 107.875 125.15 107.728 125.235C107.584 125.318 107.419 125.359 107.232 125.359ZM107.252 125.107C107.401 125.107 107.535 125.074 107.652 125.007C107.772 124.938 107.865 124.842 107.932 124.719C108.001 124.594 108.036 124.45 108.036 124.287C108.036 124.122 108.001 123.978 107.932 123.855C107.865 123.732 107.772 123.638 107.652 123.571C107.535 123.502 107.401 123.467 107.252 123.467C107.105 123.467 106.973 123.502 106.856 123.571C106.739 123.638 106.645 123.732 106.576 123.855C106.507 123.978 106.472 124.122 106.472 124.287C106.472 124.45 106.507 124.594 106.576 124.719C106.645 124.842 106.739 124.938 106.856 125.007C106.973 125.074 107.105 125.107 107.252 125.107ZM108.044 125.339V124.707L108.072 124.283L108.032 123.859V122.371H108.316V125.339H108.044ZM109.651 124.499C109.651 124.387 109.668 124.291 109.703 124.211C109.74 124.131 109.786 124.06 109.839 123.999C109.895 123.938 109.954 123.88 110.015 123.827C110.079 123.774 110.139 123.72 110.195 123.667C110.251 123.611 110.296 123.551 110.331 123.487C110.366 123.42 110.383 123.343 110.383 123.255C110.383 123.111 110.327 122.994 110.215 122.903C110.103 122.812 109.944 122.767 109.739 122.767C109.568 122.767 109.42 122.795 109.295 122.851C109.17 122.904 109.063 122.984 108.975 123.091L108.763 122.931C108.87 122.798 109.007 122.695 109.175 122.623C109.343 122.551 109.538 122.515 109.759 122.515C109.946 122.515 110.107 122.543 110.243 122.599C110.382 122.655 110.488 122.735 110.563 122.839C110.64 122.943 110.679 123.067 110.679 123.211C110.679 123.326 110.66 123.424 110.623 123.507C110.588 123.587 110.543 123.659 110.487 123.723C110.434 123.784 110.375 123.843 110.311 123.899C110.25 123.952 110.191 124.007 110.135 124.063C110.079 124.119 110.034 124.182 109.999 124.251C109.964 124.32 109.947 124.403 109.947 124.499H109.651ZM109.799 125.359C109.743 125.359 109.694 125.339 109.651 125.299C109.611 125.256 109.591 125.207 109.591 125.151C109.591 125.092 109.611 125.044 109.651 125.007C109.694 124.967 109.743 124.947 109.799 124.947C109.86 124.947 109.911 124.967 109.951 125.007C109.991 125.044 110.011 125.092 110.011 125.151C110.011 125.207 109.991 125.256 109.951 125.299C109.911 125.339 109.86 125.359 109.799 125.359Z" fill="black"/>
</g>
<path d="M77.1348 111.204H78.3312V111.672H76.5544V108.134H77.1348V111.204ZM80.0332 111.718C79.7685 111.718 79.5292 111.659 79.3154 111.54C79.1016 111.418 78.9336 111.248 78.8114 111.031C78.6892 110.81 78.6281 110.556 78.6281 110.267C78.6281 109.982 78.6909 109.729 78.8165 109.508C78.9421 109.288 79.1135 109.118 79.3307 108.999C79.5479 108.881 79.7906 108.821 80.0587 108.821C80.3268 108.821 80.5695 108.881 80.7867 108.999C81.0039 109.118 81.1753 109.288 81.3009 109.508C81.4264 109.729 81.4892 109.982 81.4892 110.267C81.4892 110.552 81.4247 110.805 81.2958 111.026C81.1668 111.246 80.9903 111.418 80.7663 111.54C80.5457 111.659 80.3013 111.718 80.0332 111.718ZM80.0332 111.214C80.1826 111.214 80.3217 111.178 80.4507 111.107C80.583 111.036 80.69 110.929 80.7714 110.786C80.8529 110.644 80.8936 110.471 80.8936 110.267C80.8936 110.063 80.8546 109.892 80.7765 109.753C80.6984 109.61 80.5949 109.503 80.466 109.432C80.337 109.361 80.1978 109.325 80.0485 109.325C79.8992 109.325 79.76 109.361 79.631 109.432C79.5055 109.503 79.4053 109.61 79.3307 109.753C79.256 109.892 79.2187 110.063 79.2187 110.267C79.2187 110.569 79.295 110.803 79.4478 110.97C79.6039 111.132 79.799 111.214 80.0332 111.214ZM83.1931 108.821C83.4103 108.821 83.6021 108.865 83.7684 108.954C83.9381 109.038 84.0705 109.145 84.1655 109.274V108.867H84.7509V111.718C84.7509 111.976 84.6966 112.205 84.588 112.405C84.4794 112.609 84.3216 112.768 84.1146 112.884C83.9109 112.999 83.6666 113.057 83.3815 113.057C83.0014 113.057 82.6857 112.967 82.4346 112.787C82.1834 112.611 82.0409 112.37 82.0069 112.064H82.5822C82.6263 112.21 82.7197 112.327 82.8622 112.415C83.0082 112.507 83.1813 112.553 83.3815 112.553C83.6157 112.553 83.804 112.482 83.9466 112.339C84.0925 112.196 84.1655 111.989 84.1655 111.718V111.25C84.0671 111.382 83.933 111.494 83.7633 111.586C83.597 111.674 83.4069 111.718 83.1931 111.718C82.9488 111.718 82.7248 111.657 82.5211 111.535C82.3209 111.409 82.1614 111.236 82.0426 111.015C81.9272 110.791 81.8695 110.539 81.8695 110.257C81.8695 109.975 81.9272 109.726 82.0426 109.508C82.1614 109.291 82.3209 109.123 82.5211 109.004C82.7248 108.882 82.9488 108.821 83.1931 108.821ZM84.1655 110.267C84.1655 110.074 84.1248 109.906 84.0433 109.763C83.9653 109.62 83.8617 109.512 83.7328 109.437C83.6038 109.363 83.4646 109.325 83.3153 109.325C83.166 109.325 83.0268 109.363 82.8979 109.437C82.7689 109.508 82.6637 109.615 82.5822 109.758C82.5042 109.897 82.4651 110.063 82.4651 110.257C82.4651 110.45 82.5042 110.62 82.5822 110.766C82.6637 110.912 82.7689 111.024 82.8979 111.102C83.0302 111.177 83.1694 111.214 83.3153 111.214C83.4646 111.214 83.6038 111.177 83.7328 111.102C83.8617 111.027 83.9653 110.919 84.0433 110.776C84.1248 110.63 84.1655 110.46 84.1655 110.267ZM85.8085 108.495C85.7033 108.495 85.6151 108.46 85.5438 108.388C85.4725 108.317 85.4369 108.229 85.4369 108.124C85.4369 108.019 85.4725 107.93 85.5438 107.859C85.6151 107.788 85.7033 107.752 85.8085 107.752C85.9103 107.752 85.9969 107.788 86.0681 107.859C86.1394 107.93 86.1751 108.019 86.1751 108.124C86.1751 108.229 86.1394 108.317 86.0681 108.388C85.9969 108.46 85.9103 108.495 85.8085 108.495ZM86.0936 108.867V111.672H85.5132V108.867H86.0936ZM88.2708 108.821C88.4914 108.821 88.6883 108.867 88.8614 108.959C89.0379 109.05 89.1753 109.186 89.2737 109.366C89.3722 109.546 89.4214 109.763 89.4214 110.018V111.672H88.8461V110.104C88.8461 109.853 88.7833 109.661 88.6577 109.529C88.5322 109.393 88.3608 109.325 88.1436 109.325C87.9263 109.325 87.7533 109.393 87.6243 109.529C87.4987 109.661 87.4359 109.853 87.4359 110.104V111.672H86.8556V108.867H87.4359V109.188C87.531 109.072 87.6514 108.982 87.7974 108.918C87.9467 108.853 88.1045 108.821 88.2708 108.821Z" fill="white"/>
<path d="M109.854 80.4767H58.5752C55.6498 80.4767 53.2778 78.1125 53.2778 75.1967C53.2778 72.2809 55.6498 69.9167 58.5752 69.9167H109.854C112.779 69.9167 115.151 72.2809 115.151 75.1967C115.151 78.1125 112.78 80.4767 109.854 80.4767Z" fill="white"/>
<path d="M109.854 95.4524H58.5752C55.6498 95.4524 53.2778 93.0883 53.2778 90.1724C53.2778 87.2566 55.6498 84.8925 58.5752 84.8925H109.854C112.779 84.8925 115.151 87.2566 115.151 90.1724C115.151 93.0883 112.78 95.4524 109.854 95.4524Z" fill="white"/>
<g opacity="0.5">
<path d="M58.4768 75.9285V73.2239H58.7125L60.5786 75.573H60.455V73.2239H60.7371V75.9285H60.5014L58.6391 73.5794H58.7627V75.9285H58.4768ZM62.833 75.9285V75.4803L62.8214 75.4069V74.6573C62.8214 74.4848 62.7725 74.3521 62.6746 74.2594C62.5793 74.1666 62.4363 74.1203 62.2457 74.1203C62.1144 74.1203 61.9894 74.1422 61.8709 74.186C61.7525 74.2298 61.652 74.2877 61.5696 74.3598L61.4459 74.1551C61.549 74.0675 61.6726 74.0005 61.8169 73.9541C61.9611 73.9052 62.1131 73.8807 62.2728 73.8807C62.5355 73.8807 62.7377 73.9464 62.8794 74.0778C63.0236 74.2066 63.0957 74.4036 63.0957 74.6689V75.9285H62.833ZM62.1337 75.9478C61.9817 75.9478 61.8491 75.9233 61.7357 75.8744C61.625 75.8229 61.54 75.7533 61.4807 75.6657C61.4215 75.5756 61.3919 75.4726 61.3919 75.3566C61.3919 75.251 61.4163 75.1557 61.4653 75.0707C61.5168 74.9832 61.5992 74.9136 61.7125 74.8621C61.8284 74.808 61.983 74.781 62.1762 74.781H62.8755V74.9857H62.1839C61.9881 74.9857 61.8516 75.0205 61.7744 75.0901C61.6997 75.1596 61.6623 75.2459 61.6623 75.3489C61.6623 75.4648 61.7074 75.5576 61.7975 75.6271C61.8877 75.6966 62.0139 75.7314 62.1762 75.7314C62.3307 75.7314 62.4634 75.6966 62.5741 75.6271C62.6875 75.555 62.7699 75.452 62.8214 75.318L62.8832 75.5073C62.8317 75.6413 62.7416 75.7482 62.6128 75.828C62.4866 75.9079 62.3269 75.9478 62.1337 75.9478ZM66.3753 73.8807C66.5402 73.8807 66.6831 73.9129 66.8042 73.9773C66.9278 74.0391 67.0231 74.1345 67.0901 74.2632C67.1597 74.392 67.1944 74.5543 67.1944 74.7501V75.9285H66.9201V74.7771C66.9201 74.5633 66.8686 74.4023 66.7656 74.2941C66.6651 74.1834 66.5222 74.128 66.3367 74.128C66.1976 74.128 66.0766 74.1576 65.9735 74.2169C65.8731 74.2735 65.7945 74.3573 65.7378 74.468C65.6838 74.5762 65.6567 74.7076 65.6567 74.8621V75.9285H65.3824V74.7771C65.3824 74.5633 65.3309 74.4023 65.2278 74.2941C65.1248 74.1834 64.9806 74.128 64.7951 74.128C64.6586 74.128 64.5388 74.1576 64.4358 74.2169C64.3328 74.2735 64.2529 74.3573 64.1963 74.468C64.1422 74.5762 64.1151 74.7076 64.1151 74.8621V75.9285H63.8408V73.9001H64.1035V74.4487L64.061 74.3521C64.1228 74.2053 64.222 74.0907 64.3585 74.0082C64.4976 73.9232 64.6612 73.8807 64.8492 73.8807C65.0475 73.8807 65.2163 73.931 65.3553 74.0314C65.4944 74.1293 65.5846 74.2774 65.6258 74.4757L65.5176 74.4332C65.5769 74.2684 65.6812 74.1357 65.8306 74.0353C65.9825 73.9323 66.1641 73.8807 66.3753 73.8807ZM68.8 75.9478C68.5887 75.9478 68.4033 75.904 68.2436 75.8164C68.0839 75.7263 67.959 75.6039 67.8688 75.4494C67.7787 75.2923 67.7336 75.1132 67.7336 74.9123C67.7336 74.7114 67.7761 74.5337 67.8611 74.3791C67.9487 74.2246 68.0672 74.1035 68.2165 74.016C68.3685 73.9258 68.5385 73.8807 68.7265 73.8807C68.9172 73.8807 69.0859 73.9245 69.2327 74.0121C69.3821 74.0971 69.4993 74.2182 69.5843 74.3753C69.6693 74.5298 69.7118 74.7088 69.7118 74.9123C69.7118 74.9252 69.7105 74.9394 69.7079 74.9548C69.7079 74.9677 69.7079 74.9819 69.7079 74.9973H67.9422V74.7926H69.5611L69.4529 74.8737C69.4529 74.7269 69.4207 74.5968 69.3563 74.4835C69.2945 74.3676 69.2095 74.2774 69.1013 74.213C68.9931 74.1486 68.8682 74.1164 68.7265 74.1164C68.5875 74.1164 68.4625 74.1486 68.3518 74.213C68.241 74.2774 68.1547 74.3676 68.0929 74.4835C68.0311 74.5994 68.0002 74.732 68.0002 74.8814V74.9239C68.0002 75.0785 68.0337 75.215 68.1006 75.3335C68.1702 75.4494 68.2655 75.5408 68.3865 75.6078C68.5102 75.6722 68.6506 75.7044 68.8077 75.7044C68.9313 75.7044 69.0459 75.6825 69.1515 75.6387C69.2597 75.5949 69.3525 75.5279 69.4297 75.4378L69.5843 75.6155C69.4941 75.7237 69.3808 75.8061 69.2443 75.8628C69.1103 75.9195 68.9622 75.9478 68.8 75.9478ZM71.8774 76.7012C71.6121 76.7012 71.37 76.6574 71.151 76.5698C70.9321 76.4848 70.7428 76.3638 70.5831 76.2066C70.426 76.0521 70.3036 75.8679 70.216 75.6541C70.131 75.4378 70.0885 75.2021 70.0885 74.9471C70.0885 74.6895 70.131 74.4551 70.216 74.2439C70.3036 74.0301 70.4272 73.846 70.5869 73.6914C70.7492 73.5343 70.9411 73.4132 71.1626 73.3282C71.3841 73.2432 71.6276 73.2007 71.8929 73.2007C72.1556 73.2007 72.3951 73.242 72.6115 73.3244C72.8304 73.4068 73.0197 73.524 73.1794 73.676C73.3391 73.8254 73.4615 74.0044 73.5465 74.213C73.6341 74.4216 73.6779 74.6522 73.6779 74.9046C73.6779 75.121 73.6521 75.3077 73.6006 75.4648C73.5516 75.6194 73.4795 75.7391 73.3842 75.8241C73.2889 75.9066 73.1743 75.9478 73.0404 75.9478C72.909 75.9478 72.8034 75.9079 72.7235 75.828C72.6437 75.7482 72.6038 75.6361 72.6038 75.4919V75.1866L72.6347 74.9394L72.596 74.553V73.9696H72.8472V75.4339C72.8472 75.5421 72.8704 75.6181 72.9167 75.6619C72.9631 75.7057 73.0197 75.7276 73.0867 75.7276C73.1666 75.7276 73.2361 75.6954 73.2954 75.631C73.3546 75.5666 73.3997 75.4738 73.4306 75.3528C73.4641 75.2291 73.4808 75.081 73.4808 74.9085C73.4808 74.6818 73.4422 74.4757 73.3649 74.2903C73.2876 74.1048 73.1782 73.9451 73.0365 73.8112C72.8948 73.6773 72.7274 73.5755 72.5342 73.506C72.341 73.4338 72.1272 73.3978 71.8929 73.3978C71.6585 73.3978 71.4434 73.4351 71.2476 73.5098C71.0519 73.5845 70.8832 73.6914 70.7415 73.8305C70.6024 73.967 70.4942 74.1306 70.4169 74.3212C70.3397 74.5092 70.301 74.7179 70.301 74.9471C70.301 75.1763 70.3384 75.3863 70.4131 75.5769C70.4904 75.7675 70.5985 75.931 70.7376 76.0676C70.8767 76.2066 71.0429 76.3135 71.236 76.3882C71.4292 76.4655 71.643 76.5041 71.8774 76.5041C71.9933 76.5041 72.1169 76.49 72.2483 76.4616C72.3822 76.4333 72.5059 76.3908 72.6192 76.3341L72.6849 76.5235C72.569 76.5827 72.4376 76.6265 72.2908 76.6548C72.144 76.6857 72.0062 76.7012 71.8774 76.7012ZM71.831 75.9478C71.6482 75.9478 71.4846 75.9053 71.3404 75.8203C71.1961 75.7327 71.0815 75.6142 70.9965 75.4648C70.9141 75.3129 70.8729 75.1403 70.8729 74.9471C70.8729 74.7539 70.9141 74.5826 70.9965 74.4332C71.0815 74.2838 71.1961 74.1666 71.3404 74.0816C71.4846 73.9966 71.6482 73.9541 71.831 73.9541C72.0088 73.9541 72.1659 73.9941 72.3024 74.0739C72.4415 74.1538 72.5497 74.2684 72.6269 74.4178C72.7068 74.5646 72.7467 74.741 72.7467 74.9471C72.7467 75.1532 72.7068 75.3309 72.6269 75.4803C72.5497 75.6297 72.4428 75.7456 72.3063 75.828C72.1697 75.9079 72.0113 75.9478 71.831 75.9478ZM71.8658 75.7237C72.0049 75.7237 72.1298 75.6915 72.2406 75.6271C72.3539 75.5627 72.4415 75.4726 72.5033 75.3566C72.5677 75.2382 72.5999 75.1016 72.5999 74.9471C72.5999 74.79 72.5677 74.6548 72.5033 74.5414C72.4415 74.4255 72.3539 74.3366 72.2406 74.2748C72.1298 74.2104 72.0049 74.1782 71.8658 74.1782C71.7216 74.1782 71.5941 74.2104 71.4833 74.2748C71.3726 74.3366 71.285 74.4255 71.2206 74.5414C71.1588 74.6573 71.1279 74.7926 71.1279 74.9471C71.1279 75.1016 71.1588 75.2369 71.2206 75.3528C71.285 75.4687 71.3726 75.5601 71.4833 75.6271C71.5941 75.6915 71.7216 75.7237 71.8658 75.7237ZM76.7966 73.8807C76.9614 73.8807 77.1044 73.9129 77.2255 73.9773C77.3491 74.0391 77.4444 74.1345 77.5114 74.2632C77.5809 74.392 77.6157 74.5543 77.6157 74.7501V75.9285H77.3414V74.7771C77.3414 74.5633 77.2899 74.4023 77.1868 74.2941C77.0864 74.1834 76.9434 74.128 76.758 74.128C76.6189 74.128 76.4978 74.1576 76.3948 74.2169C76.2943 74.2735 76.2158 74.3573 76.1591 74.468C76.105 74.5762 76.078 74.7076 76.078 74.8621V75.9285H75.8036V74.7771C75.8036 74.5633 75.7521 74.4023 75.6491 74.2941C75.5461 74.1834 75.4018 74.128 75.2164 74.128C75.0799 74.128 74.9601 74.1576 74.857 74.2169C74.754 74.2735 74.6742 74.3573 74.6175 74.468C74.5634 74.5762 74.5364 74.7076 74.5364 74.8621V75.9285H74.262V73.9001H74.5248V74.4487L74.4823 74.3521C74.5441 74.2053 74.6433 74.0907 74.7798 74.0082C74.9189 73.9232 75.0824 73.8807 75.2705 73.8807C75.4688 73.8807 75.6375 73.931 75.7766 74.0314C75.9157 74.1293 76.0058 74.2774 76.047 74.4757L75.9389 74.4332C75.9981 74.2684 76.1024 74.1357 76.2518 74.0353C76.4038 73.9323 76.5854 73.8807 76.7966 73.8807ZM79.6308 75.9285V75.4803L79.6192 75.4069V74.6573C79.6192 74.4848 79.5702 74.3521 79.4723 74.2594C79.377 74.1666 79.2341 74.1203 79.0435 74.1203C78.9121 74.1203 78.7872 74.1422 78.6687 74.186C78.5502 74.2298 78.4498 74.2877 78.3673 74.3598L78.2437 74.1551C78.3467 74.0675 78.4704 74.0005 78.6146 73.9541C78.7589 73.9052 78.9108 73.8807 79.0705 73.8807C79.3333 73.8807 79.5355 73.9464 79.6771 74.0778C79.8214 74.2066 79.8935 74.4036 79.8935 74.6689V75.9285H79.6308ZM78.9314 75.9478C78.7795 75.9478 78.6468 75.9233 78.5335 75.8744C78.4227 75.8229 78.3377 75.7533 78.2785 75.6657C78.2192 75.5756 78.1896 75.4726 78.1896 75.3566C78.1896 75.251 78.2141 75.1557 78.263 75.0707C78.3145 74.9832 78.397 74.9136 78.5103 74.8621C78.6262 74.808 78.7808 74.781 78.9739 74.781H79.6733V74.9857H78.9817C78.7859 74.9857 78.6494 75.0205 78.5721 75.0901C78.4974 75.1596 78.4601 75.2459 78.4601 75.3489C78.4601 75.4648 78.5051 75.5576 78.5953 75.6271C78.6855 75.6966 78.8117 75.7314 78.9739 75.7314C79.1285 75.7314 79.2611 75.6966 79.3719 75.6271C79.4852 75.555 79.5676 75.452 79.6192 75.318L79.681 75.5073C79.6295 75.6413 79.5393 75.7482 79.4105 75.828C79.2843 75.9079 79.1246 75.9478 78.9314 75.9478ZM80.6386 75.9285V73.9001H80.9129V75.9285H80.6386ZM80.7776 73.4519C80.721 73.4519 80.6733 73.4326 80.6347 73.3939C80.5961 73.3553 80.5767 73.3089 80.5767 73.2548C80.5767 73.2007 80.5961 73.1557 80.6347 73.1196C80.6733 73.081 80.721 73.0616 80.7776 73.0616C80.8343 73.0616 80.882 73.0797 80.9206 73.1157C80.9592 73.1518 80.9786 73.1969 80.9786 73.251C80.9786 73.3076 80.9592 73.3553 80.9206 73.3939C80.8845 73.4326 80.8369 73.4519 80.7776 73.4519ZM81.6762 75.9285V73.0616H81.9505V75.9285H81.6762ZM82.7408 75.9478C82.6841 75.9478 82.6352 75.9272 82.594 75.886C82.5553 75.8448 82.536 75.7945 82.536 75.7353C82.536 75.6735 82.5553 75.6232 82.594 75.5846C82.6352 75.546 82.6841 75.5266 82.7408 75.5266C82.7975 75.5266 82.8451 75.546 82.8838 75.5846C82.925 75.6232 82.9456 75.6735 82.9456 75.7353C82.9456 75.7945 82.925 75.8448 82.8838 75.886C82.8451 75.9272 82.7975 75.9478 82.7408 75.9478ZM84.3182 75.9478C84.1173 75.9478 83.937 75.904 83.7773 75.8164C83.6202 75.7263 83.4965 75.6039 83.4064 75.4494C83.3162 75.2923 83.2711 75.1132 83.2711 74.9123C83.2711 74.7088 83.3162 74.5298 83.4064 74.3753C83.4965 74.2207 83.6202 74.0997 83.7773 74.0121C83.937 73.9245 84.1173 73.8807 84.3182 73.8807C84.4908 73.8807 84.6466 73.9142 84.7857 73.9812C84.9248 74.0482 85.0342 74.1486 85.1141 74.2826L84.9093 74.4216C84.8398 74.3186 84.7535 74.2426 84.6505 74.1937C84.5474 74.1448 84.4354 74.1203 84.3143 74.1203C84.1701 74.1203 84.04 74.1538 83.9241 74.2207C83.8082 74.2851 83.7167 74.3766 83.6498 74.4951C83.5828 74.6135 83.5493 74.7526 83.5493 74.9123C83.5493 75.072 83.5828 75.2111 83.6498 75.3296C83.7167 75.4481 83.8082 75.5408 83.9241 75.6078C84.04 75.6722 84.1701 75.7044 84.3143 75.7044C84.4354 75.7044 84.5474 75.6799 84.6505 75.631C84.7535 75.582 84.8398 75.5073 84.9093 75.4069L85.1141 75.546C85.0342 75.6773 84.9248 75.7778 84.7857 75.8473C84.6466 75.9143 84.4908 75.9478 84.3182 75.9478ZM86.4458 75.9478C86.2501 75.9478 86.0736 75.904 85.9165 75.8164C85.762 75.7263 85.6396 75.6039 85.5495 75.4494C85.4593 75.2923 85.4143 75.1132 85.4143 74.9123C85.4143 74.7088 85.4593 74.5298 85.5495 74.3753C85.6396 74.2207 85.762 74.0997 85.9165 74.0121C86.0711 73.9245 86.2475 73.8807 86.4458 73.8807C86.6468 73.8807 86.8245 73.9245 86.979 74.0121C87.1361 74.0997 87.2585 74.2207 87.3461 74.3753C87.4362 74.5298 87.4813 74.7088 87.4813 74.9123C87.4813 75.1132 87.4362 75.2923 87.3461 75.4494C87.2585 75.6039 87.1361 75.7263 86.979 75.8164C86.8219 75.904 86.6442 75.9478 86.4458 75.9478ZM86.4458 75.7044C86.5927 75.7044 86.7227 75.6722 86.8361 75.6078C86.9494 75.5408 87.0383 75.4481 87.1027 75.3296C87.1696 75.2085 87.2031 75.0695 87.2031 74.9123C87.2031 74.7526 87.1696 74.6135 87.1027 74.4951C87.0383 74.3766 86.9494 74.2851 86.8361 74.2207C86.7227 74.1538 86.594 74.1203 86.4497 74.1203C86.3055 74.1203 86.1767 74.1538 86.0633 74.2207C85.95 74.2851 85.8599 74.3766 85.7929 74.4951C85.7259 74.6135 85.6924 74.7526 85.6924 74.9123C85.6924 75.0695 85.7259 75.2085 85.7929 75.3296C85.8599 75.4481 85.95 75.5408 86.0633 75.6078C86.1767 75.6722 86.3042 75.7044 86.4458 75.7044ZM90.5759 73.8807C90.7407 73.8807 90.8837 73.9129 91.0048 73.9773C91.1284 74.0391 91.2237 74.1345 91.2907 74.2632C91.3602 74.392 91.395 74.5543 91.395 74.7501V75.9285H91.1207V74.7771C91.1207 74.5633 91.0691 74.4023 90.9661 74.2941C90.8657 74.1834 90.7227 74.128 90.5373 74.128C90.3982 74.128 90.2771 74.1576 90.1741 74.2169C90.0736 74.2735 89.9951 74.3573 89.9384 74.468C89.8843 74.5762 89.8573 74.7076 89.8573 74.8621V75.9285H89.5829V74.7771C89.5829 74.5633 89.5314 74.4023 89.4284 74.2941C89.3254 74.1834 89.1811 74.128 88.9957 74.128C88.8591 74.128 88.7394 74.1576 88.6363 74.2169C88.5333 74.2735 88.4535 74.3573 88.3968 74.468C88.3427 74.5762 88.3157 74.7076 88.3157 74.8621V75.9285H88.0413V73.9001H88.3041V74.4487L88.2616 74.3521C88.3234 74.2053 88.4226 74.0907 88.5591 74.0082C88.6982 73.9232 88.8617 73.8807 89.0498 73.8807C89.2481 73.8807 89.4168 73.931 89.5559 74.0314C89.695 74.1293 89.7851 74.2774 89.8263 74.4757L89.7182 74.4332C89.7774 74.2684 89.8817 74.1357 90.0311 74.0353C90.1831 73.9323 90.3647 73.8807 90.5759 73.8807Z" fill="black"/>
</g>
<path d="M60.1565 88.7148L59.3527 89.1691V89.0759L60.1565 89.5302L60.0225 89.7749L59.2304 89.3147L59.2944 89.2856V90.1767H59.0265L59.0323 89.2856L59.0906 89.3147L58.3043 89.7749L58.1645 89.5302L58.9741 89.0759V89.1691L58.1645 88.7148L58.3043 88.4702L59.0906 88.9303L59.0323 88.9594L59.0265 88.0683H59.2944V88.9594L59.2304 88.9303L60.0225 88.4702L60.1565 88.7148ZM62.5169 88.7148L61.7132 89.1691V89.0759L62.5169 89.5302L62.383 89.7749L61.5908 89.3147L61.6549 89.2856V90.1767H61.387L61.3928 89.2856L61.4511 89.3147L60.6648 89.7749L60.525 89.5302L61.3346 89.0759V89.1691L60.525 88.7148L60.6648 88.4702L61.4511 88.9303L61.3928 88.9594L61.387 88.0683H61.6549V88.9594L61.5908 88.9303L62.383 88.4702L62.5169 88.7148ZM64.8774 88.7148L64.0736 89.1691V89.0759L64.8774 89.5302L64.7434 89.7749L63.9513 89.3147L64.0154 89.2856V90.1767H63.7475L63.7533 89.2856L63.8115 89.3147L63.0252 89.7749L62.8855 89.5302L63.695 89.0759V89.1691L62.8855 88.7148L63.0252 88.4702L63.8115 88.9303L63.7533 88.9594L63.7475 88.0683H64.0154V88.9594L63.9513 88.9303L64.7434 88.4702L64.8774 88.7148ZM67.2379 88.7148L66.4341 89.1691V89.0759L67.2379 89.5302L67.1039 89.7749L66.3118 89.3147L66.3759 89.2856V90.1767H66.1079L66.1138 89.2856L66.172 89.3147L65.3857 89.7749L65.2459 89.5302L66.0555 89.0759V89.1691L65.2459 88.7148L65.3857 88.4702L66.172 88.9303L66.1138 88.9594L66.1079 88.0683H66.3759V88.9594L66.3118 88.9303L67.1039 88.4702L67.2379 88.7148ZM69.5983 88.7148L68.7946 89.1691V89.0759L69.5983 89.5302L69.4644 89.7749L68.6723 89.3147L68.7363 89.2856V90.1767H68.4684L68.4742 89.2856L68.5325 89.3147L67.7462 89.7749L67.6064 89.5302L68.416 89.0759V89.1691L67.6064 88.7148L67.7462 88.4702L68.5325 88.9303L68.4742 88.9594L68.4684 88.0683H68.7363V88.9594L68.6723 88.9303L69.4644 88.4702L69.5983 88.7148ZM71.9588 88.7148L71.155 89.1691V89.0759L71.9588 89.5302L71.8248 89.7749L71.0327 89.3147L71.0968 89.2856V90.1767H70.8289L70.8347 89.2856L70.8929 89.3147L70.1067 89.7749L69.9669 89.5302L70.7765 89.0759V89.1691L69.9669 88.7148L70.1067 88.4702L70.8929 88.9303L70.8347 88.9594L70.8289 88.0683H71.0968V88.9594L71.0327 88.9303L71.8248 88.4702L71.9588 88.7148ZM74.3193 88.7148L73.5155 89.1691V89.0759L74.3193 89.5302L74.1853 89.7749L73.3932 89.3147L73.4573 89.2856V90.1767H73.1893L73.1952 89.2856L73.2534 89.3147L72.4671 89.7749L72.3273 89.5302L73.1369 89.0759V89.1691L72.3273 88.7148L72.4671 88.4702L73.2534 88.9303L73.1952 88.9594L73.1893 88.0683H73.4573V88.9594L73.3932 88.9303L74.1853 88.4702L74.3193 88.7148Z" fill="black"/>
<path opacity="0.2" d="M104.263 72.7169V77.6765H111.313V72.7169H104.263ZM110.163 73.2576L107.789 74.8699L105.414 73.2576H110.163ZM104.806 77.1359V73.4979L107.788 75.5236L110.77 73.4979V77.1359H104.806Z" fill="black"/>
<g opacity="0.2">
<path d="M109.454 89.3508V88.7482C109.454 87.9898 108.835 87.3729 108.074 87.3729H107.323C106.562 87.3729 105.943 87.9898 105.943 88.7482V89.3508H104.809V93.4733H110.768V89.3508H109.454ZM106.486 88.7475C106.486 88.2869 106.861 87.9129 107.323 87.9129H108.074C108.537 87.9129 108.912 88.2869 108.912 88.7475V89.3502H106.486V88.7475ZM110.225 92.932H105.351V89.8908H110.225V92.932Z" fill="black"/>
<path d="M107.632 91.5768V92.0664H107.945V91.5768C108.034 91.5231 108.097 91.4295 108.097 91.3177C108.097 91.1478 107.959 91.0103 107.789 91.0103C107.618 91.0103 107.48 91.1478 107.48 91.3177C107.48 91.4295 107.542 91.5231 107.632 91.5768Z" fill="black"/>
</g>
<path d="M198.882 35.8585H180.264C177.098 35.8585 174.531 38.4171 174.531 41.5726V57.7226C174.531 60.8781 177.098 63.4367 180.264 63.4367H187.627L189.573 68.5358L191.519 63.4367H198.883C202.048 63.4367 204.615 60.8787 204.615 57.7226V41.5726C204.615 38.4171 202.048 35.8585 198.882 35.8585Z" fill="#449ACB"/>
<path opacity="0.7" d="M198.882 35.8585H180.264C177.098 35.8585 174.531 38.4171 174.531 41.5726V57.7226C174.531 60.8781 177.098 63.4367 180.264 63.4367H187.627L189.573 68.5358L191.519 63.4367H198.883C202.048 63.4367 204.615 60.8787 204.615 57.7226V41.5726C204.615 38.4171 202.048 35.8585 198.882 35.8585Z" fill="white"/>
<path d="M196.104 56.091C199.713 52.4943 199.713 46.6629 196.104 43.0663C192.496 39.4696 186.645 39.4696 183.037 43.0663C179.428 46.6629 179.428 52.4943 183.037 56.091C186.645 59.6876 192.496 59.6876 196.104 56.091Z" fill="#449ACB"/>
<path d="M188.603 53.6919C188.353 53.6919 188.117 53.5827 187.956 53.3935L184.33 49.136C184.027 48.7794 184.071 48.2459 184.428 47.9429C184.785 47.6413 185.321 47.6839 185.625 48.0405L188.603 51.5376L193.521 45.7629C193.824 45.4057 194.36 45.363 194.718 45.6653C195.075 45.9676 195.119 46.5018 194.815 46.8584L189.25 53.3941C189.089 53.5827 188.852 53.6919 188.603 53.6919Z" fill="white"/>
<path d="M224.176 210.973H228.455L219.707 161.755H215.427L224.176 210.973Z" fill="#263238"/>
<path d="M130.104 210.973H134.384L125.636 161.755H121.356L130.104 210.973Z" fill="#263238"/>
<path opacity="0.3" d="M224.176 210.973H228.455L219.707 161.755H215.427L224.176 210.973Z" fill="white"/>
<path opacity="0.3" d="M130.104 210.973H134.384L125.636 161.755H121.356L130.104 210.973Z" fill="white"/>
<path d="M92.8758 190.684L221.941 190.684V186.364L92.8758 186.364V190.684Z" fill="#263238"/>
<path opacity="0.5" d="M92.8758 190.684L221.941 190.684V186.364L92.8758 186.364V190.684Z" fill="white"/>
<path d="M184.712 210.973H180.432L189.181 161.755H193.461L184.712 210.973Z" fill="#263238"/>
<path d="M90.6412 210.973H86.3613L95.1097 161.755H99.3895L90.6412 210.973Z" fill="#263238"/>
<path opacity="0.3" d="M184.712 210.973H180.432L189.181 161.755H193.461L184.712 210.973Z" fill="white"/>
<path opacity="0.3" d="M90.6412 210.973H86.3613L95.1097 161.755H99.3895L90.6412 210.973Z" fill="white"/>
<path d="M129.449 159.843H133.708L140.837 120.343H136.577L129.449 159.843Z" fill="#263238"/>
<path opacity="0.3" d="M129.449 159.843H133.708L140.837 120.343H136.577L129.449 159.843Z" fill="white"/>
<path d="M214.013 159.843H218.272L225.4 120.343H221.142L214.013 159.843Z" fill="#263238"/>
<path d="M171.731 159.843H175.99L183.119 120.343H178.86L171.731 159.843Z" fill="#263238"/>
<path opacity="0.3" d="M214.013 159.843H218.272L225.4 120.343H221.142L214.013 159.843Z" fill="white"/>
<path opacity="0.3" d="M171.731 159.843H175.99L183.119 120.343H178.86L171.731 159.843Z" fill="white"/>
<path d="M122.094 123.041H233.931L235.266 115.648H123.428L122.094 123.041Z" fill="#263238"/>
<path d="M119.68 136.414H231.519L232.852 129.021H121.015L119.68 136.414Z" fill="#263238"/>
<path d="M117.267 149.786H229.105L230.44 142.393H118.601L117.267 149.786Z" fill="#263238"/>
<path d="M85.4676 163.792L227.998 163.792V158.678L85.4676 158.678V163.792Z" fill="#263238"/>
<path opacity="0.5" d="M122.094 123.041H233.931L235.266 115.648H123.428L122.094 123.041Z" fill="white"/>
<path opacity="0.5" d="M119.68 136.414H231.519L232.852 129.021H121.015L119.68 136.414Z" fill="white"/>
<path opacity="0.5" d="M117.267 149.786H229.105L230.44 142.393H118.601L117.267 149.786Z" fill="white"/>
<path opacity="0.5" d="M85.4676 163.792L227.998 163.792V158.678L85.4676 158.678V163.792Z" fill="white"/>
<path opacity="0.2" d="M85.4676 163.792H193.003V158.678H85.4676V163.792Z" fill="white"/>
<path d="M181.984 105.978C180.167 107.981 178.315 109.824 176.292 111.623C175.279 112.516 174.239 113.395 173.093 114.236C172.521 114.658 171.924 115.075 171.255 115.485C170.917 115.687 170.558 115.887 170.148 116.086C169.732 116.281 169.277 116.485 168.609 116.651C168.259 116.73 167.854 116.808 167.274 116.786C167.123 116.777 166.95 116.759 166.818 116.737L166.582 116.685C166.427 116.648 166.263 116.609 166.12 116.566C165.581 116.389 165.12 116.181 164.736 115.969C163.956 115.536 163.341 115.077 162.757 114.614C161.6 113.691 160.638 112.705 159.702 111.714C157.857 109.708 156.253 107.621 154.771 105.37C154.282 104.626 154.49 103.628 155.236 103.14C155.85 102.738 156.638 102.808 157.17 103.26L157.205 103.29C159.133 104.931 161.1 106.6 163.048 108.116C164.015 108.878 165.013 109.591 165.957 110.183C166.426 110.472 166.899 110.722 167.278 110.868C167.471 110.952 167.615 110.979 167.695 110.994C167.707 110.992 167.703 110.983 167.707 110.982L167.708 110.981C167.656 110.97 167.564 110.957 167.493 110.955C167.237 110.941 167.155 110.964 167.118 110.964C167.076 110.961 167.217 110.9 167.375 110.797C167.54 110.695 167.736 110.561 167.941 110.411C168.356 110.113 168.801 109.759 169.245 109.381C170.132 108.617 171.037 107.784 171.927 106.923C173.703 105.206 175.502 103.377 177.225 101.605L177.258 101.571C178.502 100.292 180.552 100.259 181.835 101.499C183.091 102.71 183.146 104.694 181.984 105.978Z" fill="#E9B376"/>
<path d="M180.339 100.193V109.449C180.339 109.449 178.375 111.077 175.964 112.873C174.759 113.771 173.444 114.707 172.212 115.502C170.339 116.716 168.654 117.608 167.799 117.556C165.245 117.401 159.704 113.454 159.704 113.454L163.347 107.408C163.347 107.408 167.533 109.96 167.799 110.134C168.064 110.302 176.845 100.251 180.339 100.193Z" fill="#449ACB"/>
<path opacity="0.2" d="M175.964 112.873C174.759 113.771 173.443 114.707 172.212 115.502C172.504 110.192 175.012 108.151 175.012 108.151C175.79 109.637 176.042 111.297 175.964 112.873Z" fill="black"/>
<path d="M183.883 75.8522C179.412 79.4895 179.937 89.9532 184.964 96.8203C184.964 96.8203 195.696 97.7169 201.656 95.0569C207.616 92.3969 201.028 75.4536 194.728 74.1197C188.426 72.7858 183.883 75.8522 183.883 75.8522Z" fill="#263238"/>
<path d="M184.143 86.728C182.505 83.9084 180.877 76.3088 187.693 73.9608C196.202 71.0288 200.016 76.4367 200.751 81.7974C201.486 87.1575 198.456 91.2108 192.833 90.8078C187.209 90.4041 185.277 88.6781 184.143 86.728Z" fill="#263238"/>
<path d="M175.011 108.153C174.178 112.071 175.637 121.309 175.876 128.271L195.914 130.573C195.919 128.388 196.324 125.221 197.63 120.191C198.381 117.245 199.452 113.657 200.923 109.252C201.14 108.597 201.365 107.93 201.602 107.239C202.657 104.162 200.837 101.056 197.691 100.566C196.851 100.432 195.956 100.315 195.043 100.226C191.474 99.8634 188.542 99.5934 185.353 99.7135C184.296 99.7484 183.196 99.8272 182.142 99.915C178.351 100.233 175.788 104.481 175.011 108.153Z" fill="#263238"/>
<path d="M194.939 89.3149C193.93 92.3774 192.591 98.0152 194.506 100.195C194.506 100.195 191.577 99.5972 185.103 103.129C183.426 100.438 184.819 99.6818 184.819 99.6818C188.401 99.0423 188.641 96.4766 188.345 94.0401L194.939 89.3149Z" fill="#EBB376"/>
<path opacity="0.2" d="M192.25 91.243L188.347 94.0381C188.419 94.6149 188.458 95.1982 188.426 95.7615C189.779 95.6413 191.789 94.2906 192.107 92.918C192.266 92.2326 192.322 91.5699 192.25 91.243Z" fill="black"/>
<path d="M196.277 82.1637C196.346 87.2751 196.484 89.4371 194.103 92.2411C190.52 96.4592 184.206 95.4257 182.606 90.4376C181.166 85.9483 181.295 78.3435 186.14 75.9458C190.913 73.5835 196.208 77.0529 196.277 82.1637Z" fill="#FFB573"/>
<path d="M191.929 77.3836C190.507 79.1594 193.747 84.7539 196.296 85.7073C201.256 84.0776 196.173 72.0836 191.929 77.3836Z" fill="#263238"/>
<path d="M185.857 75.0027C183.971 75.8295 182.201 79.3622 181.971 80.6818C184.774 80.8918 191.998 77.6607 191.998 77.6607C191.998 77.6607 197.089 78.5954 194.35 76.3029C191.611 74.0105 185.857 75.0027 185.857 75.0027Z" fill="#263238"/>
<path d="M187.75 84.2436C187.781 84.6577 187.586 85.0104 187.314 85.0304C187.043 85.0504 186.797 84.7313 186.766 84.3173C186.735 83.9032 186.93 83.5505 187.201 83.5305C187.473 83.5098 187.719 83.8296 187.75 84.2436Z" fill="#263238"/>
<path d="M183.052 84.5944C183.083 85.0084 182.888 85.3611 182.616 85.3812C182.345 85.4012 182.099 85.0821 182.068 84.668C182.037 84.254 182.232 83.9013 182.503 83.8813C182.775 83.8612 183.021 84.1803 183.052 84.5944Z" fill="#263238"/>
<path d="M182.625 83.8954L181.605 83.6829C181.605 83.6829 182.176 84.4218 182.625 83.8954Z" fill="#263238"/>
<path d="M185.044 85.1117C185.044 85.1117 184.473 86.9481 183.761 87.8667C184.348 88.3363 185.264 88.0333 185.264 88.0333L185.044 85.1117Z" fill="#ED893E"/>
<path d="M187.652 89.4861C187.463 89.53 187.26 89.5617 187.043 89.5778C186.976 89.583 186.917 89.5326 186.912 89.4654C186.907 89.3982 186.963 89.3395 187.025 89.3349C188.854 89.198 189.606 87.8648 189.613 87.8518C189.645 87.7931 189.719 87.7711 189.779 87.8041C189.838 87.8363 189.86 87.9106 189.827 87.9701C189.798 88.0217 189.166 89.1366 187.652 89.4861Z" fill="#263238"/>
<path d="M198.011 86.726C197.723 87.7459 196.989 88.5378 196.22 88.9512C195.063 89.5733 194.197 88.6115 194.276 87.3725C194.348 86.2576 195.037 84.5905 196.314 84.4794C197.572 84.3695 198.34 85.5594 198.011 86.726Z" fill="#FFB573"/>
<path d="M190.051 83.0279C189.951 83.0512 189.843 83.0092 189.786 82.9162C189.201 81.9499 187.748 81.8349 187.733 81.8342C187.599 81.8246 187.497 81.7076 187.507 81.5733C187.516 81.4389 187.632 81.3375 187.768 81.3472C187.838 81.3524 189.491 81.4835 190.206 82.6636C190.276 82.7793 190.238 82.9291 190.123 82.9989C190.1 83.0131 190.076 83.0228 190.051 83.0279Z" fill="#263238"/>
<path d="M181.966 82.4162C181.884 82.4349 181.795 82.4117 181.733 82.3471C181.64 82.2495 181.643 82.0952 181.74 82.0021C182.717 81.0687 183.822 81.311 183.868 81.322C183.999 81.3523 184.082 81.4841 184.05 81.6152C184.02 81.7457 183.889 81.8277 183.758 81.798C183.721 81.7903 182.859 81.6094 182.078 82.3548C182.047 82.3858 182.007 82.4065 181.966 82.4162Z" fill="#263238"/>
<path d="M187.323 83.5441L186.303 83.3315C186.303 83.3315 186.874 84.0712 187.323 83.5441Z" fill="#263238"/>
<path d="M169.111 102.414L169.596 103.928C169.779 104.497 170.226 104.943 170.797 105.125L173.465 105.977C174.532 106.318 175.698 106.123 176.594 105.453L177.149 105.038C176.516 102.473 173.936 100.166 173.936 100.166L173.274 99.4273C172.683 98.7697 171.731 98.6935 171.086 99.2536L169.6 100.542C169.086 100.987 168.892 101.732 169.111 102.414Z" fill="#EBB376"/>
<path d="M151.169 103.8L151.654 105.314C151.837 105.883 152.284 106.329 152.855 106.511L155.523 107.363C156.59 107.704 157.756 107.509 158.652 106.839L159.207 106.424C158.574 103.859 155.994 101.553 155.994 101.553L155.331 100.814C154.742 100.156 153.789 100.08 153.143 100.64L151.657 101.928C151.144 102.374 150.95 103.118 151.169 103.8Z" fill="#EBB376"/>
<path opacity="0.2" d="M189.901 111.913C191.19 115.698 194.48 118.522 197.629 120.191C198.381 117.244 199.451 113.657 200.923 109.252C198.947 106.497 196.178 104.541 192.657 105.07C192.657 105.07 188.596 108.08 189.901 111.913Z" fill="black"/>
<path d="M118.788 187.012L122.169 188.373C122.169 188.373 150.916 145.155 153.576 146.779C163.213 152.663 183.024 163.179 192.4 156.811C201.775 150.449 196.211 133.654 196.211 133.654C196.211 133.654 177.977 127.275 175.725 131.219C175.287 131.981 174.668 133.525 174.175 134.852C173.704 136.102 173.342 137.158 173.342 137.158C173.342 137.158 173.336 137.156 173.331 137.149C172.779 136.888 154.905 128.319 146.488 131.849C137.937 135.44 118.788 187.012 118.788 187.012Z" fill="#EBB376"/>
<path d="M181.118 159.118C181.118 159.118 172.076 159.707 159.692 155.513C159.692 155.513 156.639 189.93 154.59 208.607L150.436 208.025C150.436 208.025 143.38 157.038 144.776 150.822C146.172 144.606 153.72 144.198 153.72 144.198C153.72 144.198 168.172 154.767 181.118 159.118Z" fill="#EBB376"/>
<path d="M181.118 159.118C180.916 159.078 172.076 159.447 163.034 156.89L164.21 151.994C168.769 154.985 175.114 156.81 181.118 159.118Z" fill="#449ACB"/>
<path opacity="0.4" d="M181.118 159.118C180.916 159.078 172.076 159.447 163.034 156.89L164.21 151.994C168.769 154.985 175.114 156.81 181.118 159.118Z" fill="white"/>
<path d="M163.447 151.484L162.363 156.933L164.013 157.494L165.28 152.682L163.447 151.484Z" fill="#449ACB"/>
<path opacity="0.6" d="M163.447 151.484L162.363 156.933L164.013 157.494L165.28 152.682L163.447 151.484Z" fill="white"/>
<path opacity="0.2" d="M146.276 172.498C145.623 158.953 145.342 151.931 147.578 149.129C149.813 146.328 153.313 145.823 153.313 145.823C156.214 153.155 168.883 157.731 169.214 157.853C169.22 157.855 169.22 157.855 169.22 157.855C173.947 158.833 180.946 159.085 181.117 159.118C173.946 157.642 168.768 154.985 164.209 151.993C157.903 147.852 153.718 144.2 153.718 144.2C153.718 144.2 146.17 144.608 144.774 150.824C144.205 153.365 145.049 163.394 146.241 174.366C146.29 173.672 146.3 173.047 146.276 172.498Z" fill="black"/>
<path d="M115.409 184.173C115.346 184.045 115.318 183.835 115.538 183.564C115.644 183.433 115.792 183.358 115.977 183.342C116.326 183.31 116.78 183.505 117.198 183.749C116.88 183.332 116.637 182.889 116.747 182.61C116.819 182.428 117.001 182.335 117.289 182.332C117.56 182.329 117.788 182.427 117.968 182.622C118.536 183.236 118.415 184.638 118.409 184.704C118.407 184.726 118.4 184.749 118.387 184.769C118.381 184.78 118.372 184.79 118.363 184.799C118.349 184.813 118.333 184.823 118.315 184.83H118.315C118.298 184.837 118.28 184.84 118.261 184.84C118.012 184.844 117.166 184.842 116.453 184.701C115.965 184.605 115.539 184.443 115.409 184.173ZM116.003 183.641C115.902 183.65 115.826 183.687 115.771 183.753C115.626 183.932 115.666 184.015 115.679 184.042C115.83 184.355 116.913 184.507 117.826 184.536C117.305 184.14 116.477 183.598 116.003 183.641ZM117.292 182.633C117.206 182.633 117.057 182.646 117.027 182.72C116.933 182.959 117.488 183.702 118.122 184.346C118.124 183.916 118.075 183.182 117.747 182.826C117.657 182.729 117.553 182.669 117.431 182.645C117.387 182.636 117.34 182.632 117.292 182.633Z" fill="#263238"/>
<path d="M146.383 205.076C146.272 204.987 146.156 204.809 146.237 204.471C146.278 204.307 146.378 204.176 146.538 204.082C146.839 203.905 147.333 203.887 147.816 203.927C147.35 203.685 146.939 203.39 146.918 203.092C146.904 202.897 147.029 202.734 147.288 202.609C147.53 202.49 147.779 202.481 148.026 202.579C148.804 202.891 149.299 204.21 149.321 204.27C149.329 204.292 149.333 204.316 149.329 204.34C149.328 204.351 149.325 204.362 149.322 204.373C149.322 204.373 149.322 204.373 149.322 204.373C149.314 204.393 149.303 204.412 149.288 204.426C149.278 204.437 149.265 204.446 149.252 204.454C149.25 204.455 149.248 204.456 149.246 204.457C148.944 204.605 147.666 205.206 146.87 205.206C146.669 205.207 146.499 205.169 146.383 205.076ZM146.691 204.341C146.603 204.393 146.55 204.459 146.53 204.541C146.476 204.765 146.548 204.823 146.571 204.842C146.842 205.058 147.885 204.732 148.723 204.368C148.081 204.234 147.1 204.099 146.691 204.341ZM147.419 202.879C147.342 202.916 147.213 202.992 147.218 203.071C147.236 203.327 148.057 203.76 148.907 204.07C148.724 203.681 148.363 203.038 147.913 202.859C147.837 202.828 147.762 202.813 147.688 202.813C147.599 202.813 147.51 202.835 147.419 202.879Z" fill="#263238"/>
<path d="M124.303 186.918C124.487 186.493 119.149 184.439 119.149 184.439C119.149 184.439 114.462 186.207 111.027 185.509C107.592 184.811 108.466 187.461 111.93 189.053C115.394 190.646 118.037 191.861 120.499 192.992C122.959 194.123 122.388 191.326 124.303 186.918Z" fill="#263238"/>
<path d="M155.598 203.745C155.582 203.282 149.876 203.714 149.876 203.714C149.876 203.714 146.405 207.317 143.002 208.159C139.599 209 141.531 211.017 145.345 210.972C149.159 210.926 152.07 210.892 154.78 210.859C157.49 210.827 155.769 208.546 155.598 203.745Z" fill="#263238"/>
<path d="M196.21 133.654C196.21 133.654 177.976 127.275 175.723 131.218C175.286 131.981 174.667 133.524 174.174 134.852C173.703 136.102 173.341 137.157 173.341 137.157C173.341 137.157 173.335 137.156 173.33 137.149C173.307 137.138 171.834 136.465 171.834 136.465L165.724 154.637C175.436 160.006 189.168 160.63 194.792 156.811C204.167 150.45 196.21 133.654 196.21 133.654Z" fill="#449ACB"/>
<g opacity="0.4">
<path d="M196.21 133.654C196.21 133.654 177.976 127.275 175.723 131.218C175.286 131.981 174.667 133.524 174.174 134.852C173.703 136.102 173.341 137.157 173.341 137.157C173.341 137.157 173.335 137.156 173.33 137.149C173.307 137.138 171.834 136.465 171.834 136.465L165.724 154.637C175.436 160.006 189.168 160.63 194.792 156.811C204.167 150.45 196.21 133.654 196.21 133.654Z" fill="white"/>
</g>
<path opacity="0.3" d="M173.341 137.157L183.862 141.606C183.862 141.606 178.461 137.067 174.174 134.852C173.703 136.102 173.341 137.157 173.341 137.157Z" fill="black"/>
<path d="M175.464 131.718L175.832 127.232L196.21 129.932L196.48 134.262L175.464 131.718Z" fill="#449ACB"/>
<path opacity="0.4" d="M175.464 131.718L175.832 127.232L196.21 129.932L196.48 134.262L175.464 131.718Z" fill="white"/>
<path d="M175.873 127.671L176.937 127.826L176.606 131.321L175.725 131.218L175.873 127.671Z" fill="#263238"/>
<path d="M177.948 127.969L189.438 129.635L189.14 132.813L177.624 131.444L177.948 127.969Z" fill="#263238"/>
<path d="M196.21 133.653L190.156 132.936L190.449 129.784H190.455L195.919 130.572L196.21 133.653Z" fill="#263238"/>
<path opacity="0.2" d="M175.873 127.671L176.937 127.826L176.606 131.321L175.725 131.218L175.873 127.671Z" fill="black"/>
<path opacity="0.2" d="M177.948 127.969L189.438 129.635L189.14 132.813L177.624 131.444L177.948 127.969Z" fill="black"/>
<path opacity="0.2" d="M196.21 133.653L190.156 132.936L190.449 129.784H190.455L195.919 130.572L196.21 133.653Z" fill="black"/>
<path d="M180.682 131.867L183.954 132.299C184.287 132.343 184.592 132.11 184.636 131.778L184.927 129.594C184.971 129.263 184.737 128.959 184.404 128.915L181.131 128.483C180.799 128.439 180.494 128.672 180.45 129.003L180.159 131.187C180.115 131.519 180.349 131.823 180.682 131.867Z" stroke="white" stroke-miterlimit="10" stroke-linecap="round" stroke-linejoin="round"/>
<path d="M183.031 130.391L184.185 130.573" stroke="white" stroke-miterlimit="10" stroke-linecap="round" stroke-linejoin="round"/>
<path d="M170.961 135.209L172.661 136.102L166.899 155.621L164.481 155.143L170.961 135.209Z" fill="#449ACB"/>
<path opacity="0.6" d="M170.961 135.209L172.661 136.102L166.899 155.621L164.481 155.143L170.961 135.209Z" fill="white"/>
<path d="M169.602 115.502H155.324C154.774 115.502 154.289 115.055 154.241 114.504L152.254 95.6162C152.206 95.0653 152.613 94.6189 153.163 94.6189H167.442C167.992 94.6189 168.477 95.0653 168.525 95.6162L170.513 114.504C170.56 115.055 170.153 115.502 169.602 115.502Z" fill="#263238"/>
<path opacity="0.6" d="M169.602 115.502H155.324C154.774 115.502 154.289 115.055 154.241 114.504L152.254 95.6162C152.206 95.0653 152.613 94.6189 153.163 94.6189H167.442C167.992 94.6189 168.477 95.0653 168.525 95.6162L170.513 114.504C170.56 115.055 170.153 115.502 169.602 115.502Z" fill="white"/>
<path opacity="0.2" d="M169.006 115.502H155.324C154.774 115.502 154.289 115.055 154.241 114.504L152.254 95.6162C152.206 95.0653 152.613 94.6189 153.163 94.6189H166.845C167.395 94.6189 167.88 95.0653 167.928 95.6162L169.916 114.504C169.963 115.055 169.556 115.502 169.006 115.502Z" fill="white"/>
<path d="M160.681 103.516C159.829 103.516 159.198 104.207 159.272 105.061C159.346 105.913 160.097 106.605 160.949 106.605C161.801 106.605 162.431 105.914 162.357 105.061C161.505 105.061 160.754 104.369 160.681 103.516Z" fill="#263238"/>
<path opacity="0.3" d="M163.77 96.1188H156.229C155.861 96.1188 155.509 95.894 155.344 95.551L154.892 94.6189H164.847L164.557 95.551C164.451 95.894 164.139 96.1188 163.77 96.1188Z" fill="black"/>
<path d="M200.176 139.35H197.525C197.525 139.35 194.214 129.441 192.282 121.044C191.706 118.57 191.258 116.225 191.045 114.307C190.727 111.458 191.083 108.926 191.686 106.827C192.879 102.699 195.043 100.225 195.043 100.225L194.505 100.193C199.521 100.141 202.23 101.872 202.567 104.986C202.911 108.093 197.357 126.573 197.098 129.041C196.845 131.515 200.176 139.35 200.176 139.35Z" fill="#449ACB"/>
<path d="M183.055 99.8433C183.055 99.8433 177.751 108.175 176.331 111.719C174.909 115.263 175.725 125.398 175.725 125.398C175.725 125.398 173.009 113.199 174.757 107.151C176.504 101.104 179.522 99.8607 183.055 99.8433Z" fill="#449ACB"/>
<path d="M201.232 107.354C199.612 109.775 197.921 111.95 195.884 114.081C194.86 115.139 193.78 116.168 192.412 117.139C191.718 117.62 190.97 118.107 189.909 118.494C189.374 118.682 188.742 118.852 187.953 118.876C187.549 118.879 187.125 118.853 186.669 118.736C186.46 118.69 186.194 118.594 186.027 118.527L185.688 118.372C184.8 117.948 184.106 117.471 183.471 116.975C182.837 116.479 182.269 115.97 181.735 115.451C180.666 114.413 179.73 113.328 178.841 112.227C177.069 110.011 175.548 107.717 174.164 105.263C173.728 104.488 174.004 103.508 174.781 103.074C175.434 102.708 176.234 102.844 176.731 103.358L176.764 103.393C178.596 105.285 180.5 107.188 182.399 108.945C183.35 109.825 184.323 110.662 185.292 111.405C186.238 112.144 187.283 112.794 188.013 113.054L188.141 113.099C188.133 113.087 188.027 113.054 187.983 113.039C187.857 113.008 187.775 112.988 187.708 112.989C187.598 112.978 187.629 112.974 187.725 112.919C187.925 112.809 188.325 112.551 188.713 112.226C189.51 111.568 190.356 110.679 191.171 109.758C192.789 107.9 194.404 105.779 195.86 103.755L195.91 103.685C196.952 102.237 198.974 101.905 200.426 102.943C201.847 103.959 202.193 105.914 201.232 107.354Z" fill="#E9B376"/>
<path opacity="0.2" d="M200.526 109.746C200.526 109.746 195.86 117.679 192.282 121.044C191.706 118.57 191.258 116.225 191.045 114.307C190.727 111.458 191.083 108.926 191.686 106.827C193.17 105.612 194.635 104.404 195.38 103.791C197.221 102.26 200.526 109.746 200.526 109.746Z" fill="black"/>
<path d="M200.86 102.406C203.302 103.718 202.563 107.236 199.361 111.41C196.16 115.584 190.366 121.221 187.323 120.191C184.281 119.162 180.836 115.129 180.836 115.129L183.055 108.876C183.055 108.876 187.421 112.177 188.329 112.007C189.238 111.836 193.68 106.106 194.963 104.329C196.245 102.551 198.211 100.983 200.86 102.406Z" fill="#449ACB"/>
<path d="M155.316 102.775L155.223 104.014C155.173 104.677 154.669 105.218 154.01 105.315L152.32 105.565L152.719 101.017L154.131 101.267C154.857 101.39 155.37 102.043 155.316 102.775Z" fill="#FFB573"/>
</svg>
