<svg width="304" height="244" viewBox="0 0 304 244" fill="none" xmlns="http://www.w3.org/2000/svg">
<path d="M172.927 17.7642C162.81 26.8842 157.617 38.874 151.908 50.3104C146.199 61.7469 139.231 73.4631 126.974 80.522C118.28 85.5258 104.843 83.1789 95.4555 87.21C80.3467 93.7277 74.3579 99.2544 70.7099 113.086C66.3688 129.545 99.3953 171.515 131.175 181.316C150.631 187.317 177.846 184.314 192.954 172.445C208.063 160.577 205.595 137.394 208.154 120.23C209.978 107.876 209.018 95.041 214.082 83.3248C218.569 72.9402 227.525 64.1607 231.55 53.6423C236.901 39.6583 232.158 21.0413 218.302 11.2829C204.671 1.70692 183.913 7.89027 172.927 17.7642Z" fill="#2C8AC0"/>
<g opacity="0.9">
<path d="M172.927 17.7642C162.81 26.8842 157.617 38.874 151.908 50.3104C146.199 61.7469 139.231 73.4631 126.974 80.522C118.28 85.5258 104.843 83.1789 95.4555 87.21C80.3467 93.7277 74.3579 99.2544 70.7099 113.086C66.3688 129.545 99.3953 171.515 131.175 181.316C150.631 187.317 177.846 184.314 192.954 172.445C208.063 160.577 205.595 137.394 208.154 120.23C209.978 107.876 209.018 95.041 214.082 83.3248C218.569 72.9402 227.525 64.1607 231.55 53.6423C236.901 39.6583 232.158 21.0413 218.302 11.2829C204.671 1.70692 183.913 7.89027 172.927 17.7642Z" fill="white"/>
<path d="M152.504 184.636C145.255 184.687 138.039 183.663 131.091 181.596C116.657 177.151 100.241 165.295 87.1686 149.889C74.8992 135.424 68.3206 120.948 70.4121 113.007C73.9507 99.5888 79.5321 93.7337 95.3401 86.9241C99.742 85.0272 105.068 84.4921 110.26 84.0179C116.146 83.4585 122.226 82.8749 126.822 80.2301C138.909 73.2806 145.92 61.6739 151.635 50.1766C152.243 48.8937 152.906 47.6109 153.544 46.3158C158.536 36.1562 163.698 25.6438 172.72 17.5392C184.333 7.10591 205.121 1.65215 218.46 11.0397C231.8 20.4272 237.539 38.7949 231.836 53.7577C229.72 59.3027 226.188 64.4342 222.777 69.3955C219.688 73.8886 216.496 78.5155 214.368 83.4525C210.927 91.4112 210.276 100.069 209.644 108.435C209.346 112.332 209.036 116.339 208.465 120.285C207.893 124.231 207.571 128.359 207.249 132.767C206.166 147.153 204.938 163.459 193.179 172.695C185.981 178.343 175.547 182.319 163.783 183.888C160.044 184.386 156.276 184.636 152.504 184.636ZM172.927 17.7641L173.128 17.9952C164.19 26.0269 159.052 36.4784 154.085 46.5712C153.477 47.8602 152.82 49.1491 152.176 50.432C146.394 62.0205 139.353 73.7123 127.126 80.753C122.414 83.4646 116.267 84.0544 110.321 84.6198C105.196 85.1062 99.9001 85.617 95.5772 87.4774C79.9942 94.1958 74.4796 99.9536 71.0019 113.153C68.959 120.911 75.4829 135.175 87.6307 149.487C100.63 164.809 116.942 176.598 131.267 181.012C151.513 187.25 178.527 183.377 192.766 172.196C204.318 163.125 205.479 147.663 206.61 132.676C206.939 128.262 207.255 124.085 207.826 120.151C208.398 116.218 208.708 112.247 209 108.35C209.638 99.9293 210.295 91.2227 213.772 83.1667C215.925 78.1994 219.135 73.5238 222.236 69.0125C225.628 64.0755 229.137 58.9744 231.234 53.5024C236.858 38.7888 231.234 20.7312 218.095 11.4957C204.956 2.26015 184.558 7.67135 173.103 17.9526L172.927 17.7641Z" fill="white"/>
</g>
<path opacity="0.1" d="M157.995 44.6195L135.049 130.445H142.764L165.455 44.6195H157.995Z" fill="white"/>
<path opacity="0.1" d="M169.906 44.6195L146.96 130.445H162.269L184.96 44.6195H169.906Z" fill="white"/>
<path d="M252.509 122.054L257.373 53.168C257.418 52.6388 257.352 52.1059 257.178 51.6039C257.004 51.1019 256.727 50.6421 256.364 50.254C256.001 49.866 255.561 49.5585 255.072 49.3514C254.582 49.1443 254.055 49.0423 253.524 49.0519L133.298 49.1552C132.18 49.1707 131.107 49.601 130.288 50.3627C129.469 51.1244 128.962 52.1632 128.866 53.2775L124.032 122.17C123.988 122.7 124.055 123.233 124.23 123.735C124.404 124.237 124.682 124.696 125.045 125.084C125.409 125.472 125.849 125.78 126.339 125.987C126.828 126.194 127.356 126.296 127.887 126.286L248.064 126.183C249.186 126.172 250.263 125.742 251.085 124.979C251.907 124.215 252.415 123.172 252.509 122.054Z" fill="#263238"/>
<path d="M250.964 120.553L255.828 51.6662C255.874 51.1367 255.809 50.6035 255.635 50.1011C255.462 49.5987 255.185 49.1384 254.822 48.7502C254.459 48.3619 254.018 48.0545 253.528 47.8477C253.039 47.6409 252.511 47.5395 251.98 47.5501L131.754 47.6534C130.636 47.6676 129.563 48.0977 128.745 48.8598C127.926 49.6219 127.421 50.6614 127.327 51.7757L122.463 120.668C122.418 121.197 122.485 121.73 122.659 122.232C122.832 122.734 123.11 123.194 123.472 123.582C123.835 123.97 124.275 124.278 124.765 124.485C125.254 124.692 125.781 124.794 126.312 124.784L246.532 124.681C247.652 124.667 248.726 124.236 249.545 123.473C250.365 122.71 250.871 121.669 250.964 120.553Z" fill="#2C8AC0"/>
<path opacity="0.6" d="M247.778 121.574C247.531 121.801 247.208 121.927 246.873 121.927L126.647 122.03C126.454 122.028 126.263 121.987 126.087 121.909C125.91 121.831 125.751 121.718 125.619 121.577C125.487 121.437 125.386 121.27 125.32 121.089C125.254 120.908 125.225 120.715 125.236 120.522L130.1 51.6358C130.119 51.3014 130.267 50.9873 130.514 50.7603C130.759 50.5307 131.083 50.4044 131.419 50.4077L251.645 50.3043C251.838 50.3065 252.029 50.3477 252.205 50.4255C252.382 50.5033 252.541 50.616 252.673 50.7569C252.805 50.8978 252.906 51.064 252.972 51.2453C253.038 51.4267 253.067 51.6195 253.056 51.8122L248.192 120.699C248.17 121.032 248.022 121.345 247.778 121.574Z" fill="white"/>
<path d="M207.79 83.7017H165.589C165.217 83.7079 164.86 83.8487 164.584 84.098C164.308 84.3472 164.131 84.6882 164.087 85.0575L163.437 91.2287C163.416 91.4002 163.432 91.5742 163.484 91.739C163.535 91.9038 163.622 92.0557 163.737 92.1846C163.852 92.3134 163.993 92.4163 164.151 92.4863C164.309 92.5563 164.48 92.5919 164.653 92.5907H206.854C207.227 92.5832 207.585 92.4413 207.862 92.1911C208.139 91.9409 208.316 91.5992 208.362 91.2287L209.006 85.0575C209.026 84.8865 209.009 84.7132 208.957 84.5491C208.905 84.3851 208.818 84.2339 208.703 84.1058C208.588 83.9776 208.448 83.8753 208.29 83.8056C208.133 83.736 207.962 83.7005 207.79 83.7017Z" fill="white"/>
<path d="M170.611 108.903H164.026C163.653 108.911 163.295 109.053 163.018 109.303C162.741 109.553 162.564 109.895 162.518 110.265L161.874 116.436C161.854 116.608 161.871 116.781 161.923 116.945C161.975 117.109 162.062 117.26 162.176 117.388C162.291 117.516 162.432 117.619 162.59 117.688C162.747 117.758 162.918 117.793 163.09 117.792H169.674C170.047 117.785 170.404 117.644 170.681 117.395C170.958 117.146 171.136 116.806 171.182 116.436L171.827 110.265C171.847 110.094 171.831 109.92 171.78 109.755C171.728 109.59 171.642 109.438 171.527 109.309C171.412 109.181 171.27 109.078 171.112 109.008C170.955 108.938 170.783 108.902 170.611 108.903Z" fill="white"/>
<path d="M181.98 108.903H175.396C175.023 108.911 174.665 109.053 174.388 109.303C174.111 109.553 173.933 109.895 173.888 110.265L173.243 116.436C173.224 116.608 173.24 116.781 173.293 116.945C173.345 117.109 173.431 117.26 173.546 117.388C173.661 117.516 173.802 117.619 173.959 117.688C174.117 117.758 174.287 117.793 174.459 117.792H181.044C181.416 117.785 181.774 117.644 182.05 117.395C182.327 117.146 182.505 116.806 182.552 116.436L183.196 110.265C183.217 110.094 183.201 109.92 183.149 109.755C183.098 109.59 183.011 109.438 182.896 109.309C182.781 109.181 182.64 109.078 182.482 109.008C182.324 108.938 182.153 108.902 181.98 108.903Z" fill="white"/>
<path d="M193.344 108.903H186.765C186.392 108.911 186.034 109.053 185.757 109.303C185.48 109.553 185.303 109.895 185.258 110.265L184.613 116.436C184.593 116.608 184.61 116.781 184.662 116.945C184.714 117.109 184.801 117.26 184.916 117.388C185.031 117.516 185.172 117.619 185.329 117.688C185.486 117.758 185.657 117.793 185.829 117.792H192.414C192.786 117.785 193.143 117.644 193.42 117.395C193.697 117.146 193.875 116.806 193.922 116.436L194.56 110.265C194.581 110.094 194.565 109.92 194.513 109.755C194.461 109.59 194.375 109.438 194.26 109.309C194.145 109.181 194.004 109.078 193.846 109.008C193.688 108.938 193.517 108.902 193.344 108.903Z" fill="white"/>
<path d="M204.72 108.903H198.135C197.762 108.911 197.404 109.053 197.127 109.303C196.85 109.553 196.672 109.895 196.627 110.265L195.983 116.436C195.963 116.608 195.98 116.781 196.032 116.945C196.084 117.109 196.17 117.26 196.285 117.388C196.4 117.516 196.541 117.619 196.699 117.688C196.856 117.758 197.027 117.793 197.199 117.792H203.783C204.156 117.785 204.513 117.644 204.79 117.395C205.066 117.146 205.245 116.806 205.291 116.436L205.936 110.265C205.956 110.094 205.94 109.92 205.889 109.755C205.837 109.59 205.751 109.438 205.635 109.309C205.52 109.181 205.379 109.078 205.221 109.008C205.063 108.938 204.892 108.902 204.72 108.903Z" fill="white"/>
<path d="M197.278 105.006H170.884C170.546 105.014 170.211 104.949 169.9 104.815C169.59 104.681 169.312 104.482 169.085 104.231C168.859 103.98 168.69 103.683 168.589 103.36C168.488 103.037 168.458 102.697 168.501 102.361L168.817 99.3212C168.905 98.6174 169.243 97.9687 169.77 97.4941C170.297 97.0195 170.978 96.7508 171.687 96.7372H198.08C198.418 96.7301 198.754 96.7961 199.065 96.9305C199.375 97.065 199.653 97.2649 199.879 97.5165C200.106 97.7681 200.275 98.0656 200.376 98.3885C200.477 98.7115 200.506 99.0525 200.464 99.3881L200.147 102.428C200.058 103.131 199.719 103.778 199.193 104.251C198.666 104.725 197.986 104.993 197.278 105.006ZM171.687 97.3513C171.127 97.3642 170.59 97.5774 170.174 97.9523C169.758 98.3271 169.49 98.8387 169.419 99.3942L169.103 102.434C169.069 102.685 169.091 102.94 169.166 103.182C169.24 103.424 169.367 103.646 169.536 103.834C169.706 104.022 169.914 104.171 170.147 104.271C170.38 104.37 170.631 104.418 170.884 104.41H197.278C197.837 104.399 198.374 104.187 198.79 103.813C199.206 103.439 199.474 102.928 199.545 102.373L199.862 99.3334C199.895 99.0825 199.874 98.8273 199.799 98.5855C199.724 98.3437 199.598 98.1211 199.428 97.9331C199.259 97.7452 199.05 97.5963 198.818 97.4969C198.585 97.3974 198.333 97.3498 198.08 97.3574L171.687 97.3513Z" fill="#2C8AC0"/>
<path d="M209.31 70.8486H167.109C166.737 70.8576 166.381 71.0001 166.105 71.2501C165.829 71.5002 165.653 71.8411 165.607 72.2106L164.957 78.3818C164.937 78.5528 164.954 78.7261 165.006 78.8901C165.058 79.0542 165.145 79.2053 165.259 79.3335C165.374 79.4617 165.515 79.564 165.673 79.6336C165.83 79.7033 166.001 79.7387 166.173 79.7376H208.368C208.74 79.7303 209.097 79.5893 209.374 79.3404C209.651 79.0914 209.829 78.7511 209.876 78.3818L210.52 72.2106C210.541 72.0396 210.525 71.8661 210.474 71.7018C210.422 71.5374 210.337 71.3858 210.222 71.257C210.108 71.1283 209.967 71.0253 209.81 70.9549C209.653 70.8845 209.483 70.8483 209.31 70.8486Z" fill="white"/>
<path d="M170.72 88.1462C170.746 87.9556 170.73 87.7618 170.673 87.578C170.617 87.3942 170.521 87.2248 170.393 87.0815C170.264 86.9382 170.107 86.8244 169.93 86.7479C169.754 86.6714 169.563 86.6341 169.371 86.6384C168.958 86.6482 168.562 86.8057 168.255 87.0823C167.948 87.359 167.751 87.7365 167.699 88.1462C167.675 88.3367 167.693 88.53 167.75 88.7131C167.808 88.8961 167.905 89.0646 168.033 89.2071C168.162 89.3495 168.32 89.4626 168.496 89.5387C168.672 89.6148 168.863 89.6521 169.054 89.648C169.466 89.6395 169.861 89.4831 170.167 89.2073C170.473 88.9316 170.669 88.5549 170.72 88.1462Z" fill="#263238"/>
<path d="M175.366 88.1462C175.39 87.9553 175.373 87.7613 175.316 87.5775C175.259 87.3937 175.162 87.2245 175.034 87.0813C174.905 86.9381 174.747 86.8245 174.57 86.748C174.393 86.6716 174.202 86.6342 174.01 86.6384C173.597 86.6471 173.202 86.8044 172.896 87.0814C172.589 87.3584 172.394 87.7364 172.344 88.1462C172.319 88.3364 172.336 88.5296 172.393 88.7126C172.45 88.8957 172.546 89.0643 172.674 89.2069C172.802 89.3495 172.96 89.4627 173.136 89.5388C173.312 89.615 173.502 89.6522 173.694 89.648C174.106 89.6397 174.502 89.4834 174.809 89.2078C175.116 88.9321 175.313 88.5554 175.366 88.1462Z" fill="#263238"/>
<path d="M180.005 88.1462C180.029 87.9553 180.012 87.7613 179.955 87.5775C179.898 87.3937 179.801 87.2245 179.673 87.0813C179.544 86.9381 179.386 86.8245 179.209 86.748C179.032 86.6716 178.841 86.6342 178.649 86.6384C178.236 86.6471 177.84 86.8044 177.534 87.0814C177.228 87.3584 177.032 87.7364 176.983 88.1462C176.959 88.3367 176.977 88.53 177.035 88.7131C177.092 88.8961 177.189 89.0646 177.317 89.207C177.446 89.3495 177.604 89.4626 177.78 89.5387C177.956 89.6148 178.147 89.6521 178.339 89.648C178.75 89.6395 179.145 89.483 179.451 89.2073C179.757 88.9315 179.954 88.5549 180.005 88.1462Z" fill="#263238"/>
<path d="M184.644 88.1462C184.669 87.9556 184.653 87.7618 184.596 87.578C184.54 87.3942 184.444 87.2248 184.316 87.0815C184.188 86.9382 184.03 86.8244 183.853 86.7479C183.677 86.6714 183.486 86.6341 183.294 86.6384C182.881 86.6471 182.485 86.8044 182.179 87.0814C181.873 87.3584 181.678 87.7365 181.628 88.1462C181.603 88.3387 181.62 88.5344 181.679 88.7194C181.738 88.9044 181.836 89.0743 181.968 89.217C182.1 89.3596 182.261 89.4717 182.441 89.5451C182.621 89.6185 182.814 89.6516 183.008 89.6419C183.414 89.6265 183.8 89.4677 184.1 89.1939C184.399 88.92 184.592 88.5488 184.644 88.1462Z" fill="#263238"/>
<path d="M189.38 88.1462C189.404 87.9553 189.387 87.7613 189.33 87.5775C189.273 87.3937 189.177 87.2245 189.048 87.0813C188.919 86.9381 188.761 86.8245 188.584 86.748C188.408 86.6716 188.217 86.6342 188.024 86.6384C187.611 86.6471 187.216 86.8044 186.91 87.0814C186.604 87.3584 186.408 87.7364 186.358 88.1462C186.334 88.3364 186.35 88.5296 186.407 88.7126C186.464 88.8957 186.56 89.0643 186.688 89.2069C186.817 89.3495 186.974 89.4627 187.15 89.5388C187.326 89.615 187.516 89.6522 187.708 89.648C188.12 89.6397 188.516 89.4834 188.823 89.2078C189.13 88.9321 189.328 88.5554 189.38 88.1462Z" fill="#263238"/>
<path d="M172.24 75.2931C172.266 75.1028 172.25 74.9092 172.193 74.7257C172.137 74.5422 172.041 74.3732 171.913 74.2303C171.784 74.0875 171.626 73.9743 171.45 73.8985C171.273 73.8227 171.083 73.7861 170.891 73.7914C170.479 73.7999 170.084 73.9563 169.778 74.2321C169.472 74.5078 169.276 74.8845 169.225 75.2931C169.199 75.4835 169.215 75.6771 169.272 75.8606C169.328 76.0441 169.424 76.2131 169.553 76.356C169.681 76.4988 169.839 76.612 170.015 76.6878C170.192 76.7636 170.383 76.8001 170.574 76.7949C170.987 76.7877 171.382 76.6317 171.688 76.3557C171.995 76.0797 172.191 75.7023 172.24 75.2931Z" fill="#263238"/>
<path d="M176.885 75.2931C176.909 75.1026 176.891 74.9093 176.834 74.7262C176.776 74.5432 176.679 74.3747 176.551 74.2323C176.422 74.0898 176.264 73.9767 176.088 73.9006C175.912 73.8245 175.721 73.7872 175.53 73.7913C175.122 73.8055 174.733 73.9645 174.432 74.2398C174.131 74.515 173.938 74.8884 173.888 75.2931C173.863 75.4832 173.88 75.6764 173.937 75.8595C173.994 76.0425 174.09 76.2111 174.218 76.3537C174.346 76.4963 174.504 76.6095 174.68 76.6857C174.856 76.7618 175.046 76.799 175.238 76.7948C175.646 76.782 176.037 76.6237 176.339 76.3483C176.641 76.073 176.835 75.6987 176.885 75.2931Z" fill="#263238"/>
<path d="M181.524 75.2931C181.549 75.103 181.532 74.9098 181.475 74.7267C181.418 74.5436 181.322 74.3751 181.194 74.2325C181.066 74.0899 180.909 73.9766 180.733 73.9005C180.557 73.8244 180.366 73.7871 180.175 73.7913C179.762 73.7997 179.367 73.9559 179.06 74.2315C178.753 74.5072 178.555 74.8839 178.503 75.2931C178.478 75.4838 178.495 75.6775 178.552 75.861C178.61 76.0445 178.706 76.2134 178.835 76.3561C178.964 76.4988 179.122 76.6119 179.299 76.6876C179.475 76.7634 179.666 76.8 179.859 76.7949C180.271 76.7876 180.666 76.6316 180.972 76.3556C181.279 76.0796 181.475 75.7023 181.524 75.2931Z" fill="#263238"/>
<path d="M186.164 75.2931C186.189 75.1028 186.173 74.9092 186.117 74.7257C186.06 74.5422 185.964 74.3732 185.836 74.2303C185.708 74.0875 185.55 73.9743 185.373 73.8985C185.197 73.8227 185.006 73.7861 184.814 73.7914C184.402 73.7999 184.007 73.9563 183.701 74.2321C183.396 74.5078 183.199 74.8845 183.148 75.2931C183.122 75.4835 183.138 75.6771 183.195 75.8606C183.252 76.0441 183.348 76.2131 183.476 76.356C183.604 76.4988 183.762 76.612 183.939 76.6878C184.115 76.7636 184.306 76.8001 184.498 76.7949C184.91 76.7877 185.306 76.6317 185.612 76.3557C185.918 76.0797 186.114 75.7023 186.164 75.2931Z" fill="#263238"/>
<path d="M190.809 75.2931C190.832 75.1026 190.815 74.9093 190.757 74.7262C190.699 74.5432 190.603 74.3747 190.474 74.2323C190.345 74.0898 190.188 73.9767 190.011 73.9006C189.835 73.8245 189.645 73.7872 189.453 73.7913C189.041 73.7998 188.646 73.9563 188.34 74.232C188.034 74.5078 187.838 74.8844 187.787 75.2931C187.762 75.4837 187.779 75.6775 187.837 75.861C187.894 76.0445 187.99 76.2134 188.119 76.3561C188.248 76.4988 188.406 76.6119 188.583 76.6876C188.76 76.7634 188.951 76.7999 189.143 76.7948C189.555 76.7876 189.95 76.6316 190.257 76.3556C190.563 76.0796 190.759 75.7022 190.809 75.2931Z" fill="#263238"/>
<path d="M195.448 75.2931C195.472 75.103 195.456 74.9098 195.399 74.7267C195.342 74.5436 195.246 74.3751 195.118 74.2325C194.989 74.0899 194.832 73.9766 194.656 73.9005C194.48 73.8244 194.29 73.7871 194.098 73.7913C193.686 73.7997 193.29 73.9559 192.983 74.2315C192.676 74.5072 192.478 74.8839 192.426 75.2931C192.401 75.4838 192.418 75.6775 192.476 75.861C192.533 76.0445 192.629 76.2134 192.758 76.3561C192.887 76.4988 193.045 76.6119 193.222 76.6876C193.399 76.7634 193.59 76.8 193.782 76.7949C194.194 76.7876 194.59 76.6316 194.896 76.3556C195.202 76.0796 195.398 75.7023 195.448 75.2931Z" fill="#263238"/>
<path d="M191.52 57.2417L191.192 60.3607C191.169 60.4964 191.1 60.6202 190.997 60.7119C190.895 60.8036 190.764 60.8577 190.626 60.8653C190.562 60.8677 190.497 60.8559 190.437 60.8307C190.378 60.8055 190.324 60.7675 190.281 60.7194C190.237 60.6713 190.205 60.6142 190.186 60.5523C190.167 60.4903 190.161 60.4249 190.17 60.3607L190.499 57.2417C190.527 57.0107 190.506 56.7763 190.436 56.5542C190.367 56.3322 190.25 56.1277 190.094 55.9547C189.939 55.7818 189.748 55.6443 189.534 55.5516C189.321 55.4589 189.09 55.4133 188.857 55.4177H187.732C187.232 55.4296 186.753 55.6201 186.382 55.9547C186.011 56.2893 185.771 56.7458 185.708 57.2417L185.422 60.1357H184.4L184.686 57.2417C184.783 56.4679 185.155 55.7549 185.734 55.2334C186.314 54.7119 187.062 54.4168 187.842 54.4023H188.96C189.323 54.3931 189.684 54.4627 190.018 54.6061C190.351 54.7495 190.65 54.9635 190.893 55.2332C191.136 55.5029 191.318 55.8221 191.427 56.1688C191.535 56.5155 191.567 56.8815 191.52 57.2417Z" fill="#2C8AC0"/>
<path d="M191.52 60.2451L190.882 66.3251C190.857 66.5138 190.766 66.6875 190.624 66.8146C190.482 66.9418 190.3 67.014 190.11 67.0182H184.03C183.942 67.0191 183.855 67.001 183.775 66.9653C183.695 66.9296 183.624 66.877 183.566 66.8112C183.509 66.7454 183.466 66.6679 183.441 66.584C183.416 66.5001 183.409 66.4118 183.422 66.3251L184.06 60.2451C184.072 60.1201 184.113 59.9998 184.181 59.8941C184.249 59.7883 184.341 59.7002 184.449 59.6371C184.565 59.5691 184.697 59.5334 184.832 59.5337H190.912C191.036 59.5324 191.159 59.5661 191.265 59.631C191.362 59.6975 191.438 59.791 191.484 59.9C191.529 60.0091 191.542 60.129 191.52 60.2451Z" fill="#2C8AC0"/>
<path d="M224.273 47.538C224.193 47.538 224.115 47.5059 224.058 47.4489C224.001 47.3919 223.969 47.3146 223.969 47.234C223.969 47.1533 224.001 47.076 224.058 47.019C224.115 46.962 224.193 46.93 224.273 46.93L239.133 46.8448C239.213 46.8448 239.291 46.8769 239.348 46.9339C239.405 46.9909 239.437 47.0682 239.437 47.1488C239.437 47.2295 239.405 47.3068 239.348 47.3638C239.291 47.4208 239.213 47.4528 239.133 47.4528L224.279 47.538H224.273Z" fill="#263238"/>
<path d="M241.984 47.4345C241.904 47.4345 241.826 47.4025 241.769 47.3455C241.712 47.2885 241.68 47.2112 241.68 47.1305C241.68 47.0499 241.712 46.9726 241.769 46.9156C241.826 46.8586 241.904 46.8265 241.984 46.8265H247.237C247.318 46.8265 247.395 46.8586 247.452 46.9156C247.509 46.9726 247.541 47.0499 247.541 47.1305C247.541 47.2112 247.509 47.2885 247.452 47.3455C247.395 47.4025 247.318 47.4345 247.237 47.4345H241.984Z" fill="#263238"/>
<g opacity="0.3">
<path d="M142.941 50.3894H159.965L142.655 122.03H128.933C128.537 122.022 128.148 121.925 127.795 121.746C127.442 121.566 127.134 121.309 126.894 120.994C126.654 120.679 126.489 120.314 126.41 119.926C126.332 119.537 126.342 119.137 126.44 118.753L142.941 50.3894Z" fill="white"/>
<path d="M167.504 50.3894H174.721L157.43 122.03H150.213L167.504 50.3894Z" fill="white"/>
</g>
<path d="M52.6832 28.0272H56.1367C55.3276 28.0157 54.5251 28.174 53.781 28.4917C53.0369 28.8095 52.3677 29.2798 51.8166 29.8722C51.2654 30.4646 50.8446 31.1659 50.5813 31.931C50.3179 32.6961 50.2179 33.5078 50.2877 34.314L57.6141 139.072C57.753 140.769 58.5187 142.352 59.762 143.515C61.0052 144.677 62.6368 145.335 64.3386 145.359H60.8912C59.1888 145.335 57.5565 144.677 56.3122 143.515C55.068 142.353 54.301 140.769 54.1607 139.072L46.816 34.314C46.7461 33.5063 46.8466 32.6929 47.111 31.9266C47.3754 31.1602 47.7979 30.458 48.351 29.8653C48.9041 29.2726 49.5756 28.8028 50.3219 28.4861C51.0682 28.1695 51.8727 28.0131 52.6832 28.0272Z" fill="#2C8AC0"/>
<path d="M52.6832 28.0272H56.1367C55.3276 28.0157 54.5251 28.1739 53.781 28.4917C53.0369 28.8095 52.3677 29.2797 51.8166 29.8721C51.2654 30.4645 50.8446 31.1659 50.5813 31.9309C50.3179 32.696 50.2179 33.5078 50.2877 34.3139L57.6141 139.072C57.753 140.769 58.5187 142.352 59.762 143.515C61.0052 144.677 62.6368 145.334 64.3386 145.359H60.8912C57.4195 145.359 53.9175 142.544 53.6743 139.072L46.3479 34.3139C46.1047 30.8422 49.2115 28.0272 52.6832 28.0272Z" fill="#263238"/>
<path d="M61.9187 145.365H104.175C104.986 145.38 105.791 145.224 106.538 144.908C107.285 144.592 107.957 144.122 108.511 143.529C109.065 142.937 109.488 142.234 109.753 141.467C110.017 140.7 110.118 139.887 110.048 139.078L102.697 34.3139C102.56 32.6155 101.794 31.0295 100.549 29.8657C99.3044 28.702 97.6705 28.0443 95.9667 28.0211H53.7168C52.9072 28.0095 52.1041 28.1679 51.3596 28.486C50.615 28.8042 49.9455 29.275 49.3942 29.8681C48.843 30.4611 48.4223 31.1632 48.1594 31.9291C47.8965 32.6949 47.7971 33.5073 47.8678 34.3139L55.1638 139.072C55.3031 140.774 56.0729 142.363 57.3224 143.527C58.5719 144.691 60.2111 145.347 61.9187 145.365Z" fill="#2C8AC0"/>
<g opacity="0.6">
<path d="M95.8576 30.0579C97.0414 30.0766 98.1759 30.5352 99.0402 31.3444C99.9044 32.1536 100.437 33.2555 100.533 34.4355L107.86 139.194C107.909 139.729 107.846 140.268 107.673 140.776C107.5 141.284 107.221 141.75 106.855 142.143C106.49 142.537 106.045 142.848 105.551 143.057C105.056 143.267 104.523 143.37 103.987 143.359H61.7367C60.5522 143.34 59.417 142.882 58.5517 142.073C57.6865 141.264 57.153 140.162 57.055 138.981L49.759 34.2227C49.7096 33.6907 49.7725 33.1542 49.9437 32.6481C50.115 32.1419 50.3907 31.6775 50.753 31.2847C51.1153 30.892 51.5562 30.5799 52.0469 30.3685C52.5376 30.1572 53.0673 30.0513 53.6016 30.0579H95.8576Z" fill="white"/>
</g>
<g opacity="0.3">
<path d="M83.9044 143.347H67.0688L80.9677 30.0579H94.5322C95.118 30.0557 95.6978 30.1745 96.2356 30.4067C96.7733 30.639 97.2573 30.9797 97.6573 31.4077L83.9044 143.347Z" fill="white"/>
<path d="M64.0468 143.347H60.2529L74.1518 30.0458H77.9457L64.0468 143.347Z" fill="white"/>
</g>
<path d="M93.3404 79.8531H62.7337C62.6531 79.8531 62.5757 79.8211 62.5187 79.7641C62.4617 79.7071 62.4297 79.6297 62.4297 79.5491C62.4297 79.4685 62.4617 79.3912 62.5187 79.3342C62.5757 79.2772 62.6531 79.2451 62.7337 79.2451H93.3404C93.4205 79.2467 93.497 79.2792 93.5536 79.3359C93.6103 79.3926 93.6429 79.469 93.6444 79.5491C93.6444 79.6297 93.6124 79.7071 93.5554 79.7641C93.4984 79.8211 93.421 79.8531 93.3404 79.8531Z" fill="white"/>
<path d="M90.6529 84.3828H66.6795C66.5989 84.3828 66.5215 84.3507 66.4645 84.2937C66.4075 84.2367 66.3755 84.1594 66.3755 84.0788C66.3755 83.9982 66.4075 83.9208 66.4645 83.8638C66.5215 83.8068 66.5989 83.7748 66.6795 83.7748H90.6529C90.7336 83.7748 90.8109 83.8068 90.8679 83.8638C90.9249 83.9208 90.9569 83.9982 90.9569 84.0788C90.9569 84.1594 90.9249 84.2367 90.8679 84.2937C90.8109 84.3507 90.7336 84.3828 90.6529 84.3828Z" fill="white"/>
<path d="M63.6454 58.6826L63.688 59.8986H62.9036L62.8611 58.6826L61.4688 56.4999H62.3017L63.2624 58.0077L64.1135 56.4999H64.8857L63.6454 58.6826Z" fill="#2C8AC0"/>
<path d="M64.9161 58.184C64.9058 57.945 64.9465 57.7065 65.0355 57.4845C65.1245 57.2624 65.2598 57.0619 65.4324 56.8962C65.605 56.7306 65.8108 56.6036 66.0363 56.5237C66.2618 56.4438 66.5017 56.4129 66.7401 56.4329C66.9812 56.4207 67.2223 56.4564 67.4495 56.538C67.6766 56.6197 67.8853 56.7456 68.0635 56.9084C68.2416 57.0713 68.3857 57.2679 68.4873 57.4869C68.5889 57.7058 68.646 57.9428 68.6553 58.184C68.6666 58.4235 68.6265 58.6626 68.5379 58.8854C68.4493 59.1082 68.3141 59.3095 68.1415 59.4758C67.9688 59.6422 67.7626 59.7697 67.5366 59.85C67.3107 59.9302 67.0702 59.9613 66.8313 59.9411C66.5898 59.9533 66.3482 59.9174 66.1206 59.8354C65.8931 59.7534 65.6841 59.627 65.5059 59.4635C65.3277 59.3 65.1837 59.1026 65.0825 58.883C64.9812 58.6633 64.9247 58.4257 64.9161 58.184ZM67.8345 58.184C67.8354 58.0401 67.8074 57.8975 67.7521 57.7646C67.6969 57.6317 67.6156 57.5112 67.513 57.4103C67.4104 57.3094 67.2886 57.2301 67.1548 57.1771C67.021 57.1241 66.8779 57.0985 66.734 57.1017C66.5931 57.0958 66.4524 57.1202 66.3217 57.1734C66.191 57.2265 66.0732 57.3072 65.9764 57.4098C65.8795 57.5124 65.8058 57.6346 65.7603 57.7682C65.7148 57.9018 65.6985 58.0436 65.7126 58.184C65.7109 58.3284 65.7384 58.4717 65.7932 58.6053C65.8481 58.7389 65.9293 58.86 66.032 58.9616C66.1347 59.0632 66.2567 59.143 66.3909 59.1964C66.5251 59.2498 66.6687 59.2756 66.8131 59.2723C66.9541 59.2763 67.0944 59.2504 67.2246 59.1962C67.3549 59.142 67.4721 59.0608 67.5687 58.958C67.6652 58.8551 67.7388 58.7329 67.7847 58.5995C67.8305 58.4661 67.8475 58.3245 67.8345 58.184Z" fill="#2C8AC0"/>
<path d="M69.1965 58.3907L69.1357 56.4877H69.9201L69.9809 58.3603C69.9809 59.0048 70.297 59.2723 70.7713 59.2723C71.2455 59.2723 71.513 59.0048 71.4948 58.3603L71.4279 56.4877H72.2001L72.2669 58.3907C72.2989 58.5953 72.2834 58.8044 72.2216 59.002C72.1597 59.1996 72.0533 59.3803 71.9105 59.5302C71.7677 59.6801 71.5923 59.7951 71.3979 59.8663C71.2035 59.9376 70.9954 59.9632 70.7895 59.9411C70.5792 59.9599 70.3674 59.9331 70.1685 59.8624C69.9696 59.7917 69.7883 59.6789 69.637 59.5317C69.4857 59.3845 69.3681 59.2063 69.292 59.0094C69.216 58.8124 69.1834 58.6014 69.1965 58.3907Z" fill="#2C8AC0"/>
<path d="M75.2585 59.8864L74.5715 58.9379H73.848L73.8844 59.8864H73.1001L72.9785 56.4877H74.4499C75.3558 56.4877 75.9395 56.9619 75.9638 57.7037C75.9835 57.9296 75.9296 58.1559 75.8102 58.3488C75.6907 58.5416 75.5122 58.6907 75.3011 58.7737L76.1036 59.8681L75.2585 59.8864ZM74.4256 57.1321H73.8176L73.8601 58.3117H74.4681C74.9484 58.3117 75.1795 58.0928 75.1673 57.7037C75.1552 57.3146 74.9059 57.1321 74.4256 57.1321Z" fill="#2C8AC0"/>
<path d="M77.7631 58.184C77.7505 57.9486 77.7881 57.7133 77.8732 57.4935C77.9583 57.2738 78.089 57.0745 78.2568 56.909C78.4246 56.7435 78.6256 56.6155 78.8466 56.5335C79.0675 56.4514 79.3033 56.4171 79.5385 56.433C79.8047 56.4247 80.0694 56.4749 80.3142 56.5799C80.5589 56.685 80.7777 56.8423 80.9551 57.041L80.4687 57.503C80.3611 57.378 80.2276 57.278 80.0775 57.2097C79.9274 57.1415 79.7642 57.1067 79.5993 57.1078C79.4568 57.1003 79.3144 57.1235 79.1817 57.1757C79.0489 57.228 78.9289 57.3081 78.8298 57.4107C78.7307 57.5133 78.6547 57.6359 78.6071 57.7704C78.5594 57.9048 78.5411 58.048 78.5535 58.1901C78.5526 58.3364 78.5813 58.4813 78.638 58.6162C78.6946 58.7511 78.7781 58.873 78.8832 58.9748C78.9883 59.0765 79.113 59.1558 79.2496 59.208C79.3863 59.2602 79.5321 59.2841 79.6783 59.2784C79.8398 59.2817 79.9998 59.2471 80.1455 59.1775C80.2912 59.1078 80.4186 59.0049 80.5173 58.8771L81.0342 59.3392C80.8688 59.5411 80.6582 59.7013 80.4196 59.8069C80.1809 59.9125 79.9207 59.9606 79.6601 59.9472C79.4195 59.957 79.1794 59.919 78.9536 59.8355C78.7277 59.752 78.5207 59.6246 78.3444 59.4607C78.168 59.2968 78.0259 59.0996 77.9261 58.8805C77.8263 58.6613 77.7709 58.4246 77.7631 58.184Z" fill="#2C8AC0"/>
<path d="M81.2412 58.184C81.2313 57.9478 81.2713 57.7121 81.3585 57.4923C81.4457 57.2725 81.5782 57.0736 81.7474 56.9084C81.9166 56.7432 82.1187 56.6155 82.3405 56.5336C82.5623 56.4517 82.7989 56.4174 83.0348 56.433C83.2759 56.4207 83.517 56.4564 83.7442 56.5381C83.9713 56.6197 84.18 56.7456 84.3582 56.9085C84.5363 57.0713 84.6804 57.268 84.782 57.4869C84.8836 57.7059 84.9407 57.9428 84.95 58.184C84.9608 58.4208 84.9215 58.6571 84.8347 58.8776C84.7479 59.0981 84.6155 59.2979 84.4462 59.4637C84.2769 59.6295 84.0745 59.7578 83.8523 59.8401C83.63 59.9223 83.3929 59.9568 83.1564 59.9411C82.9149 59.9534 82.6733 59.9175 82.4457 59.8355C82.2182 59.7535 82.0092 59.627 81.831 59.4635C81.6528 59.3 81.5088 59.1027 81.4076 58.883C81.3063 58.6633 81.2498 58.4257 81.2412 58.184ZM84.1535 58.184C84.1552 58.0404 84.128 57.8979 84.0734 57.7651C84.0188 57.6322 83.9381 57.5117 83.836 57.4107C83.7338 57.3097 83.6124 57.2303 83.479 57.1772C83.3455 57.1242 83.2027 57.0985 83.0591 57.1018C82.9182 57.0958 82.7775 57.1203 82.6468 57.1734C82.5161 57.2266 82.3983 57.3072 82.3015 57.4098C82.2046 57.5124 82.1309 57.6347 82.0854 57.7682C82.0399 57.9018 82.0236 58.0436 82.0377 58.184C82.0352 58.3281 82.0619 58.4713 82.116 58.6049C82.1702 58.7384 82.2509 58.8597 82.3531 58.9613C82.4553 59.0629 82.577 59.1429 82.7108 59.1963C82.8447 59.2498 82.988 59.2756 83.1321 59.2723C83.2734 59.2774 83.4141 59.2521 83.5448 59.1983C83.6756 59.1444 83.7932 59.0632 83.89 58.9601C83.9867 58.8571 84.0603 58.7345 84.1058 58.6006C84.1512 58.4667 84.1675 58.3247 84.1535 58.184Z" fill="#2C8AC0"/>
<path d="M85.4849 56.4877H87.0231C87.2627 56.4643 87.5046 56.4903 87.7337 56.5643C87.9628 56.6382 88.1743 56.7584 88.355 56.9175C88.5357 57.0765 88.6818 57.271 88.7843 57.4889C88.8867 57.7068 88.9433 57.9434 88.9505 58.184C88.9639 58.4217 88.9249 58.6595 88.8363 58.8805C88.7476 59.1014 88.6114 59.3002 88.4374 59.4626C88.2633 59.6251 88.0556 59.7472 87.8291 59.8205C87.6025 59.8937 87.3627 59.9162 87.1265 59.8864H85.5821L85.4849 56.4877ZM87.0839 59.242C87.2273 59.2568 87.3722 59.2398 87.5083 59.1922C87.6444 59.1445 87.7682 59.0674 87.871 58.9663C87.9739 58.8653 88.0531 58.7427 88.103 58.6075C88.153 58.4723 88.1725 58.3277 88.1601 58.184C88.1598 58.0376 88.1291 57.8928 88.0699 57.7589C88.0108 57.6249 87.9245 57.5047 87.8164 57.4058C87.7084 57.3069 87.5811 57.2316 87.4424 57.1845C87.3038 57.1374 87.1568 57.1196 87.0109 57.1322H86.2935L86.3665 59.242H87.0839Z" fill="#2C8AC0"/>
<path d="M92.2096 59.2419V59.8499H89.583L89.4614 56.4512H92.0272V57.0592H90.2883V57.7948H91.863V58.4028H90.2883V59.1872L92.2096 59.2419Z" fill="#2C8AC0"/>
<path d="M69.5429 72.5024V73.8643H63.165V72.7882L66.5577 69.5111C67.3845 68.7024 67.5244 68.1978 67.5183 67.6871C67.5183 66.8967 66.9468 66.4346 65.8828 66.4346C65.4987 66.4152 65.1154 66.4872 64.7645 66.6447C64.4136 66.8022 64.1051 67.0406 63.8642 67.3405L62.7212 66.4711C63.1142 65.9904 63.6156 65.6097 64.1842 65.3603C64.7528 65.1108 65.3724 64.9998 65.9922 65.0362C67.877 65.0362 69.1113 65.9907 69.1356 67.529C69.1356 68.368 68.9289 69.1402 67.7493 70.2711L65.4693 72.4781L69.5429 72.5024Z" fill="#263238"/>
<path d="M76.6082 71.2622C76.6082 72.7214 75.5503 73.986 73.2217 73.986C72.0488 74.0069 70.8994 73.6557 69.9385 72.9828L70.6134 71.7303C71.346 72.2957 72.2477 72.5977 73.173 72.5876C74.3222 72.5876 74.997 72.0769 74.997 71.2743C74.997 70.4717 74.389 69.9793 73.0879 69.9793H72.2975V68.8788L74.1762 66.538H70.2303V65.1882H76.1522V66.2705L74.085 68.7754C75.7449 68.97 76.6082 69.955 76.6082 71.2622Z" fill="#263238"/>
<path d="M84.7188 71.4019C84.7188 73.0131 83.3629 74.0163 81.2045 74.0163C79.0461 74.0163 77.6477 73.0131 77.6234 71.4019C77.6051 70.9589 77.7253 70.5213 77.9672 70.1497C78.2091 69.7782 78.5607 69.4912 78.9732 69.3286C78.6365 69.158 78.3541 68.897 78.1576 68.5748C77.961 68.2526 77.8582 67.882 77.8605 67.5046C77.8605 66.015 79.1252 65.0726 81.0464 65.0726C82.9677 65.0726 84.3114 66.0029 84.3357 67.5046C84.3545 67.8799 84.2633 68.2524 84.0732 68.5765C83.8831 68.9006 83.6024 69.162 83.2656 69.3286C83.6884 69.4877 84.0533 69.7708 84.3126 70.1407C84.5719 70.5106 84.7134 70.9502 84.7188 71.4019ZM83.0893 71.3533C83.0893 70.496 82.3232 69.961 81.1316 69.961C79.9399 69.961 79.2285 70.496 79.2467 71.3533C79.265 72.2106 79.9885 72.7517 81.1802 72.7517C82.3719 72.7517 83.1076 72.2045 83.0893 71.3229V71.3533ZM79.4413 67.5837C79.4413 68.3254 80.0493 68.7997 81.1012 68.7997C82.153 68.7997 82.7549 68.3254 82.7367 67.5837C82.7184 66.8419 82.0496 66.3677 81.0525 66.3677C80.0554 66.3677 79.4413 66.769 79.4535 67.5533L79.4413 67.5837Z" fill="#263238"/>
<path d="M92.8053 71.4019C92.8053 73.0131 91.4495 74.0163 89.2911 74.0163C87.1327 74.0163 85.7282 72.9827 85.7282 71.4019C85.7109 70.9591 85.8314 70.5219 86.0732 70.1505C86.3149 69.7791 86.666 69.492 87.078 69.3286C86.7411 69.1589 86.4588 68.8978 86.2631 68.5753C86.0674 68.2528 85.9664 67.8818 85.9714 67.5046C85.941 66.015 87.23 65.0726 89.1512 65.0726C91.0725 65.0726 92.4162 66.0029 92.4405 67.5046C92.4593 67.8799 92.3681 68.2524 92.178 68.5765C91.9879 68.9006 91.7072 69.162 91.3704 69.3286C91.7898 69.4907 92.1508 69.775 92.4067 70.1446C92.6625 70.5143 92.8014 70.9523 92.8053 71.4019ZM91.1759 71.3533C91.1759 70.496 90.4098 69.961 89.2181 69.961C88.0264 69.961 87.3151 70.496 87.3333 71.3533C87.3516 72.2106 88.0751 72.7517 89.2668 72.7517C90.4584 72.7517 91.2002 72.2045 91.2002 71.3229L91.1759 71.3533ZM87.5279 67.5837C87.5279 68.3254 88.1663 68.7997 89.1877 68.7997C90.2092 68.7997 90.8415 68.3254 90.8293 67.5837C90.8172 66.8419 90.1362 66.3677 89.1452 66.3677C88.1541 66.3677 87.5522 66.769 87.5522 67.5533L87.5279 67.5837Z" fill="#263238"/>
<path d="M47.7221 58.2144C47.6445 58.2145 47.5698 58.185 47.5133 58.1319C47.4568 58.0788 47.4227 58.006 47.4181 57.9286L46.3419 43.2333C46.3369 43.1536 46.3634 43.0751 46.4157 43.0148C46.4681 42.9545 46.542 42.9173 46.6216 42.911C46.7019 42.9059 46.7811 42.9322 46.8423 42.9844C46.9036 43.0366 46.9422 43.1106 46.9499 43.1907L48.0322 57.8861C48.0355 57.926 48.0309 57.9662 48.0186 58.0044C48.0063 58.0425 47.9866 58.0779 47.9606 58.1084C47.9346 58.1389 47.9029 58.164 47.8671 58.1822C47.8314 58.2004 47.7924 58.2113 47.7525 58.2144H47.7221Z" fill="#2C8AC0"/>
<path d="M46.4391 40.6979C46.3625 40.6981 46.2887 40.6695 46.2323 40.6176C46.176 40.5658 46.1413 40.4945 46.1351 40.4182L45.8494 36.5392C45.8466 36.4992 45.8517 36.4592 45.8644 36.4212C45.8771 36.3833 45.8971 36.3482 45.9234 36.318C45.9764 36.257 46.0515 36.2195 46.1321 36.2139C46.2127 36.2082 46.2923 36.2349 46.3533 36.2879C46.4143 36.3409 46.4517 36.416 46.4574 36.4966L46.7431 40.3756C46.7482 40.4553 46.7217 40.5338 46.6693 40.5941C46.617 40.6544 46.543 40.6917 46.4635 40.6979H46.4391Z" fill="#2C8AC0"/>
<path d="M75.0091 22.2087C74.9285 22.2087 74.8511 22.1766 74.7941 22.1196C74.7371 22.0626 74.7051 21.9853 74.7051 21.9047V12.961C74.7051 12.8804 74.7371 12.803 74.7941 12.746C74.8511 12.689 74.9285 12.657 75.0091 12.657C75.0897 12.657 75.167 12.689 75.224 12.746C75.281 12.803 75.3131 12.8804 75.3131 12.961V21.9047C75.3131 21.9853 75.281 22.0626 75.224 22.1196C75.167 22.1766 75.0897 22.2087 75.0091 22.2087Z" fill="#2C8AC0"/>
<path d="M67.9258 24.1056C67.8728 24.1053 67.8207 24.0911 67.7749 24.0644C67.729 24.0377 67.6909 23.9995 67.6644 23.9536L63.1895 16.2077C63.1492 16.1375 63.1384 16.0542 63.1595 15.9761C63.1806 15.898 63.2318 15.8315 63.302 15.7912C63.3721 15.7509 63.4554 15.7401 63.5335 15.7612C63.6116 15.7823 63.6781 15.8335 63.7185 15.9037L68.1873 23.6496C68.2078 23.6837 68.2213 23.7217 68.2269 23.7612C68.2326 23.8007 68.2302 23.8409 68.22 23.8795C68.2098 23.918 68.192 23.9541 68.1675 23.9857C68.1431 24.0172 68.1126 24.0435 68.0778 24.063C68.0313 24.0891 67.9792 24.1037 67.9258 24.1056Z" fill="#2C8AC0"/>
<path d="M82.0801 24.1056C82.0272 24.1058 81.9751 24.0933 81.9281 24.0691C81.8587 24.0273 81.8083 23.9601 81.7879 23.8816C81.7674 23.8032 81.7785 23.7199 81.8187 23.6496L86.2875 15.9037C86.3278 15.8335 86.3943 15.7823 86.4724 15.7612C86.5505 15.7401 86.6338 15.7509 86.7039 15.7912C86.7741 15.8315 86.8253 15.898 86.8464 15.9761C86.8675 16.0542 86.8567 16.1375 86.8164 16.2077L82.3537 23.9779C82.3232 24.0212 82.2819 24.0557 82.2339 24.0781C82.1859 24.1005 82.1329 24.11 82.0801 24.1056Z" fill="#2C8AC0"/>
<path d="M152 237.826C203.915 237.826 246 234.916 246 231.326C246 227.736 203.915 224.826 152 224.826C100.085 224.826 58 227.736 58 231.326C58 234.916 100.085 237.826 152 237.826Z" fill="#F5F5F5"/>
<path d="M104.886 221.699C105 221.655 105.101 221.583 105.179 221.489C105.258 221.396 105.312 221.284 105.336 221.164C105.359 221.092 105.362 221.015 105.345 220.941C105.328 220.867 105.291 220.8 105.239 220.745C104.771 220.259 102.868 220.605 102.655 220.648C102.63 220.65 102.607 220.66 102.588 220.676C102.569 220.693 102.557 220.715 102.551 220.739C102.547 220.763 102.549 220.787 102.557 220.81C102.566 220.832 102.581 220.852 102.6 220.867C102.979 221.144 103.387 221.38 103.816 221.572C104.147 221.738 104.525 221.784 104.886 221.699ZM105.056 220.915C105.079 220.94 105.094 220.971 105.1 221.004C105.107 221.038 105.104 221.072 105.093 221.104C105.079 221.183 105.045 221.258 104.994 221.321C104.943 221.384 104.876 221.432 104.801 221.462C104.454 221.59 103.792 221.353 102.977 220.854C103.767 220.721 104.807 220.654 105.056 220.915Z" fill="#2C8AC0"/>
<path d="M102.691 220.891C103.299 220.818 104.613 220.131 104.728 219.535C104.748 219.438 104.734 219.336 104.687 219.249C104.641 219.161 104.565 219.092 104.473 219.055C104.387 219.007 104.292 218.979 104.195 218.972C104.097 218.964 103.999 218.978 103.907 219.012C103.178 219.261 102.582 220.66 102.558 220.721C102.549 220.74 102.544 220.76 102.544 220.781C102.544 220.802 102.549 220.823 102.558 220.842C102.572 220.861 102.591 220.876 102.612 220.885L102.691 220.891ZM104.345 219.274C104.491 219.353 104.497 219.432 104.485 219.486C104.412 219.851 103.518 220.417 102.892 220.593C103.117 220.137 103.555 219.377 103.993 219.243C104.09 219.203 104.199 219.203 104.297 219.243L104.345 219.274Z" fill="#2C8AC0"/>
<path d="M96.9214 218.441L101.871 220.441L106.193 209.004L101.238 207.004L96.9214 218.441Z" fill="#FFB573"/>
<path d="M102.497 220.034L96.9396 217.79C96.8449 217.749 96.7385 217.743 96.64 217.774C96.5416 217.806 96.4579 217.872 96.4046 217.96L93.9726 222.034C93.9151 222.139 93.8807 222.254 93.8716 222.374C93.8625 222.493 93.8789 222.612 93.9198 222.725C93.9606 222.837 94.025 222.939 94.1085 223.024C94.1921 223.11 94.2929 223.176 94.4042 223.22C96.362 223.973 97.3409 224.235 99.785 225.226C101.293 225.834 103.433 226.874 105.5 227.719C107.567 228.564 108.54 226.582 107.744 226.047C104.211 223.657 104.096 222.277 103.214 220.672C103.057 220.382 102.803 220.156 102.497 220.034Z" fill="#263238"/>
<path d="M106.126 214.616L97.5293 211.139L98.3197 207.989L107.543 211.364L106.126 214.616Z" fill="#2C8AC0"/>
<path d="M114.736 82.2426C112.991 87.2951 107.829 99.1875 103.847 94.2323C103.13 93.3571 102.544 92.3822 102.108 91.3383C100.424 87.1735 100.004 80.4247 99.7913 78.9472L98.4354 74.3203C98.4115 74.2415 98.3992 74.1595 98.3989 74.0771V71.4323C98.3989 70.3623 99.2623 69.7239 100.43 69.8211C100.43 69.8211 102.314 69.6023 102.314 70.7271L102.679 74.6973C102.868 76.0775 102.321 77.9987 102.643 79.2634C103.859 84.024 105.531 84.2429 106.583 89.1555C108.048 85.6109 110.668 79.4762 110.668 79.4762C112.407 79.6951 115.307 80.5827 114.736 82.2426Z" fill="#FFB573"/>
<path d="M108.498 96.0442C108.224 96.4707 107.851 96.8246 107.411 97.0752C106.97 97.3259 106.476 97.4659 105.969 97.4832C105.463 97.5006 104.96 97.3947 104.503 97.1748C104.047 96.9548 103.65 96.6274 103.348 96.2205C102.627 95.2628 102.061 94.198 101.67 93.065C100.089 87.8787 99.1103 84.6685 98.9766 79.2512C99.5368 78.6851 100.245 78.2875 101.02 78.1037C101.794 77.9199 102.605 77.9573 103.36 78.2115L105.95 86.985C105.95 86.985 111.222 73.8826 113.356 73.4144C115.867 72.8611 116.913 75.1046 117.977 77.865C118.743 79.847 111.933 90.7485 108.498 96.0442Z" fill="#2C8AC0"/>
<path d="M129.796 60.2998C129.188 63.3398 127.862 69.9792 129.99 72.0099C129.99 72.0099 129.157 75.0924 123.509 75.0924C117.289 75.0924 120.536 72.0099 120.536 72.0099C123.929 71.2012 123.837 68.6841 123.248 66.319L129.796 60.2998Z" fill="#FFB573"/>
<path d="M120.293 53.1619C120.329 53.1676 120.366 53.1676 120.402 53.1619C120.459 53.1309 120.501 53.0796 120.52 53.0184C120.539 52.9573 120.534 52.8911 120.506 52.8336C120.343 52.4843 120.099 52.1796 119.793 51.9455C119.486 51.7115 119.128 51.5552 118.749 51.4899C118.717 51.4857 118.685 51.4879 118.654 51.4964C118.623 51.5049 118.595 51.5195 118.57 51.5393C118.545 51.5592 118.524 51.5839 118.509 51.612C118.493 51.6401 118.484 51.6709 118.481 51.7027C118.477 51.7343 118.479 51.7665 118.488 51.7973C118.496 51.828 118.511 51.8568 118.531 51.8817C118.55 51.9067 118.575 51.9274 118.603 51.9426C118.631 51.9578 118.662 51.9672 118.694 51.9702C118.993 52.0286 119.274 52.1571 119.514 52.3452C119.754 52.5334 119.946 52.7758 120.074 53.0525C120.098 53.0884 120.13 53.1175 120.169 53.1367C120.207 53.1559 120.25 53.1646 120.293 53.1619Z" fill="#263238"/>
<path d="M118.438 55.7885C117.957 56.6775 117.356 57.4958 116.651 58.2205C116.842 58.3954 117.068 58.5268 117.315 58.6055C117.562 58.6843 117.823 58.7085 118.08 58.6765L118.438 55.7885Z" fill="#ED893E"/>
<path d="M118.925 54.9008C119.016 55.302 118.87 55.679 118.609 55.7337C118.347 55.7884 118.055 55.5088 117.97 55.1257C117.885 54.7427 118.025 54.3475 118.292 54.2867C118.56 54.2259 118.84 54.4934 118.925 54.9008Z" fill="#263238"/>
<path d="M118.414 54.2685L117.38 54.1956C117.38 54.1956 118.043 54.8461 118.414 54.2685Z" fill="#263238"/>
<path opacity="0.2" d="M114.517 79.6524C115.593 78.6614 116.341 78.9593 116.815 79.7436C117.307 82.0176 114.383 86.7843 113.234 88.59L114.517 79.6524Z" fill="black"/>
<path d="M139.414 82.65C139.275 85.1549 139.037 88.3104 138.654 92.2807C138.253 96.4698 137.682 101.559 136.897 107.742C128.635 107.742 119.983 107.614 115.964 107.614C116.304 99.4004 116.426 91.0768 112.741 74.7338C112.695 74.5312 112.69 74.3214 112.727 74.1168C112.763 73.9122 112.841 73.717 112.954 73.5429C113.067 73.3688 113.215 73.2192 113.387 73.1032C113.559 72.9871 113.753 72.9069 113.957 72.8673C116.359 72.4318 118.786 72.1455 121.223 72.01C124.37 71.7848 127.53 71.7848 130.677 72.01C134.733 72.3808 139.341 73.3233 139.341 73.3233C139.341 73.3233 139.84 74.8311 139.414 82.65Z" fill="#2C8AC0"/>
<path opacity="0.2" d="M139.415 82.6499C139.275 85.1549 139.038 88.3104 138.655 92.2806C136.429 89.7027 134.326 80.8259 135.007 77.792C136.665 79.0188 138.124 80.4956 139.33 82.1696C139.367 82.328 139.395 82.4884 139.415 82.6499Z" fill="black"/>
<path d="M160.871 93.7763L165.127 91.3929L165.917 95.728C165.917 95.728 162.33 97.1081 160.445 96.1414L160.871 93.7763Z" fill="#FFB573"/>
<path d="M167.942 91.8855L168.24 93.3021C168.283 93.5193 168.262 93.7446 168.179 93.95C168.096 94.1554 167.954 94.3318 167.771 94.4573L165.899 95.7219L165.108 91.3869L166.574 91.0221C166.72 90.9854 166.873 90.9788 167.022 91.0027C167.172 91.0267 167.314 91.0806 167.442 91.1613C167.57 91.242 167.68 91.3478 167.766 91.4722C167.852 91.5967 167.912 91.7373 167.942 91.8855Z" fill="#FFB573"/>
<path d="M135.341 78.3453C136.697 81.1056 141.67 91.5328 143.853 93.9405L144.284 94.3904L144.497 94.6153C144.57 94.6883 144.631 94.7552 144.747 94.8585C145.139 95.2312 145.571 95.5595 146.036 95.8374C146.865 96.3164 147.757 96.6766 148.686 96.9075C150.316 97.2855 151.989 97.4429 153.66 97.3757C156.774 97.2511 159.859 96.7281 162.841 95.8192L162.336 93.2899C160.932 93.4115 159.46 93.4966 158.037 93.5209C156.628 93.5625 155.216 93.5178 153.812 93.3872C152.51 93.2937 151.223 93.0426 149.981 92.6393C149.48 92.4707 149.005 92.2311 148.571 91.928C148.405 91.8113 148.252 91.6767 148.115 91.5267C148.067 91.477 148.022 91.4242 147.981 91.3686L147.823 91.1801L147.501 90.8032C145.823 88.6995 141.39 78.5581 140.059 76.0227L135.341 78.3453Z" fill="#FFB573"/>
<path d="M160.804 98.0931C157.3 99.9554 153.201 100.353 149.404 99.1997C145.782 98.035 142.727 95.5584 140.837 92.2563C138.642 89.0279 132.799 79.8957 133.541 77.5367C134.411 74.7155 136.259 72.9645 139.348 73.7245C141.518 74.2474 145.659 84.7901 147.665 89.0035C148.449 90.177 149.957 92.0435 151.641 92.6151C154.614 93.6426 156.803 93.2231 159.916 92.7549C160.488 93.0954 160.445 93.6243 160.731 94.2141C161.038 94.8124 161.204 95.4729 161.216 96.1452C161.229 96.8174 161.088 97.4837 160.804 98.0931Z" fill="#2C8AC0"/>
<path d="M132.86 55.4298C131.93 60.4276 131.644 62.5617 128.774 64.8356C124.47 68.2525 118.53 66.0151 117.952 60.8349C117.429 56.1716 119.04 48.7783 124.22 47.386C125.361 47.073 126.563 47.0568 127.712 47.3391C128.86 47.6213 129.918 48.1926 130.783 48.9986C131.649 49.8046 132.294 50.8186 132.658 51.9442C133.021 53.0698 133.091 54.2697 132.86 55.4298Z" fill="#FFB573"/>
<path d="M150.602 83.0998C149.647 84.1882 149.349 84.8205 148.018 85.4102C146.686 86 143.804 85.4832 142.886 84.3584C143.184 85.2339 144.923 86.7904 145.835 86.9302C144.806 87.4947 143.615 87.6915 142.459 87.4881C141.302 87.2847 140.25 86.6933 139.475 85.8115C139.602 86.3599 139.868 86.8664 140.247 87.2826C140.626 87.6989 141.106 88.0109 141.64 88.1888C129.99 88.4928 134.897 83.0086 127.601 75.208C119.527 66.5744 121.278 59.4365 121.278 59.4365C121.297 57.6587 120.74 55.9224 119.691 54.4874C118.524 52.9917 118.864 50.9731 119.235 49.8422C119.776 48.1824 121.424 47.5987 123.005 47.5014C123.284 45.8659 126.653 46.1638 127.06 46.4374C127.467 46.711 127.516 46.6563 127.887 46.4374C128.708 45.9085 130.775 45.3613 132.988 47.1488C134.338 48.2432 135.785 50.1888 135.833 54.3718C135.882 58.7069 133.809 63.8566 140.983 70.4413C145.209 74.3082 143.184 82.6438 150.602 83.0998Z" fill="#263238"/>
<path d="M120.317 55.8068C119.752 56.6084 119.517 57.5968 119.66 58.5671C119.867 59.85 121.114 59.9351 122.019 59.1143C122.925 58.2935 123.716 56.81 123.047 55.746C122.378 54.682 121.022 54.834 120.317 55.8068Z" fill="#FFB573"/>
<path d="M131.602 107.736C131.602 107.736 129.115 142.641 126.318 165.66C125.477 172.568 123.371 179.263 120.104 185.408L106.4 211.284L99.3716 208.518C99.3716 208.518 104.236 183.924 113.714 170.512C113.714 170.512 106.625 130.427 115.903 107.614L131.602 107.736Z" fill="#263238"/>
<path opacity="0.2" d="M122.044 116.193C122.044 116.193 124.135 132.001 125.278 141.407C120.992 135.753 117.666 127.861 122.044 116.193Z" fill="black"/>
<path d="M149.349 224.977C149.431 224.886 149.487 224.775 149.513 224.656C149.539 224.536 149.532 224.412 149.495 224.296C149.481 224.221 149.447 224.152 149.397 224.095C149.346 224.038 149.282 223.996 149.209 223.973C148.559 223.755 147.045 224.94 146.875 225.074C146.856 225.09 146.842 225.111 146.834 225.135C146.827 225.158 146.826 225.184 146.832 225.208C146.84 225.23 146.853 225.25 146.872 225.265C146.89 225.28 146.912 225.29 146.935 225.293C147.408 225.365 147.887 225.383 148.364 225.348C148.726 225.341 149.074 225.21 149.349 224.977ZM149.124 224.211C149.157 224.22 149.186 224.239 149.207 224.265C149.229 224.291 149.242 224.323 149.246 224.356C149.273 224.432 149.279 224.514 149.264 224.593C149.249 224.672 149.213 224.746 149.161 224.806C148.918 225.08 148.224 225.177 147.276 225.08C147.896 224.618 148.784 224.089 149.124 224.211Z" fill="#2C8AC0"/>
<path d="M147.026 225.275C147.507 224.94 148.364 223.718 148.182 223.14C148.153 223.044 148.092 222.961 148.009 222.905C147.926 222.848 147.826 222.822 147.726 222.83C147.629 222.828 147.533 222.846 147.443 222.884C147.354 222.921 147.274 222.978 147.209 223.049C146.68 223.609 146.82 225.116 146.826 225.183C146.829 225.205 146.838 225.225 146.851 225.243C146.863 225.261 146.88 225.276 146.899 225.287C146.921 225.292 146.944 225.292 146.966 225.287C146.987 225.289 147.008 225.285 147.026 225.275ZM147.72 223.08C147.884 223.08 147.926 223.153 147.945 223.207C148.048 223.566 147.531 224.472 147.063 224.916C146.992 224.33 147.107 223.737 147.391 223.22C147.46 223.143 147.556 223.095 147.659 223.086L147.72 223.08Z" fill="#2C8AC0"/>
<path d="M140.764 225.767L146.09 225.256L144.461 213.157L139.135 213.674L140.764 225.767Z" fill="#FFB573"/>
<path d="M146.449 224.618L140.466 225.195C140.364 225.203 140.267 225.248 140.195 225.322C140.124 225.396 140.081 225.494 140.077 225.597L139.858 230.321C139.858 230.441 139.884 230.559 139.933 230.669C139.982 230.778 140.054 230.876 140.143 230.956C140.233 231.036 140.338 231.096 140.453 231.132C140.567 231.168 140.688 231.18 140.807 231.166C142.886 230.935 143.847 230.716 146.51 230.461C148.127 230.303 150.511 230.242 152.748 230.029C154.985 229.816 154.882 227.627 153.964 227.518C149.708 227.038 148.924 225.883 147.404 224.855C147.123 224.667 146.785 224.584 146.449 224.618Z" fill="#263238"/>
<path d="M136.867 107.73C136.867 107.73 143.683 149.384 144.99 174.057L145.239 218.258L139.725 219.334C139.725 219.334 131.742 191.135 130.817 174.835C128.385 131.594 114.298 131.521 122.774 107.651L136.867 107.73Z" fill="#263238"/>
<path d="M147.069 218.441L137.943 219.687L137.013 216.185L146.771 214.914L147.069 218.441Z" fill="#2C8AC0"/>
<path d="M97.8881 63.0419H98.2346C98.1522 63.0418 98.0705 63.0584 97.9947 63.0909C97.9189 63.1233 97.8505 63.1708 97.7936 63.2306C97.7367 63.2903 97.6926 63.3609 97.6639 63.4383C97.6352 63.5156 97.6225 63.5979 97.6266 63.6803L98.186 74.2656C98.2025 74.4317 98.28 74.5858 98.4036 74.698C98.5271 74.8103 98.6878 74.8729 98.8548 74.8736H98.4961C98.3295 74.8715 98.1695 74.8085 98.0462 74.6965C97.923 74.5845 97.8451 74.4312 97.8273 74.2656L97.2801 63.6803C97.2759 63.5979 97.2886 63.5156 97.3173 63.4383C97.346 63.3609 97.3901 63.2903 97.447 63.2306C97.5039 63.1708 97.5723 63.1233 97.6481 63.0909C97.724 63.0584 97.8056 63.0418 97.8881 63.0419Z" fill="#2C8AC0"/>
<path opacity="0.1" d="M97.8881 63.0419H98.2346C98.1522 63.0418 98.0705 63.0584 97.9947 63.0909C97.9189 63.1233 97.8505 63.1708 97.7936 63.2306C97.7367 63.2903 97.6926 63.3609 97.6639 63.4383C97.6352 63.5156 97.6225 63.5979 97.6266 63.6803L98.186 74.2656C98.2025 74.4317 98.28 74.5858 98.4036 74.698C98.5271 74.8103 98.6878 74.8729 98.8548 74.8736H98.4961C98.3295 74.8715 98.1695 74.8085 98.0462 74.6965C97.923 74.5845 97.8451 74.4312 97.8273 74.2656L97.2801 63.6803C97.2759 63.5979 97.2886 63.5156 97.3173 63.4383C97.346 63.3609 97.3901 63.2903 97.447 63.2306C97.5039 63.1708 97.5723 63.1233 97.6481 63.0909C97.724 63.0584 97.8056 63.0418 97.8881 63.0419Z" fill="white"/>
<path d="M98.5871 74.9039H102.843C103.004 74.9039 103.159 74.8399 103.273 74.7259C103.387 74.6118 103.451 74.4572 103.451 74.2959L102.898 63.7107C102.887 63.5396 102.812 63.3789 102.688 63.2606C102.564 63.1422 102.4 63.075 102.229 63.0723H97.973C97.8906 63.0722 97.8089 63.0888 97.7331 63.1213C97.6573 63.1537 97.5889 63.2012 97.532 63.261C97.4751 63.3207 97.431 63.3913 97.4023 63.4686C97.3736 63.546 97.3609 63.6283 97.365 63.7107L97.9183 74.2959C97.9361 74.4615 98.014 74.6149 98.1373 74.7269C98.2605 74.8389 98.4205 74.9019 98.5871 74.9039Z" fill="#2C8AC0"/>
<path opacity="0.4" d="M98.5871 74.9039H102.843C103.004 74.9039 103.159 74.8399 103.273 74.7259C103.387 74.6118 103.451 74.4572 103.451 74.2959L102.898 63.7107C102.887 63.5396 102.812 63.3789 102.688 63.2606C102.564 63.1422 102.4 63.075 102.229 63.0723H97.973C97.8906 63.0722 97.8089 63.0888 97.7331 63.1213C97.6573 63.1537 97.5889 63.2012 97.532 63.261C97.4751 63.3207 97.431 63.3913 97.4023 63.4686C97.3736 63.546 97.3609 63.6283 97.365 63.7107L97.9183 74.2959C97.9361 74.4615 98.014 74.6149 98.1373 74.7269C98.2605 74.8389 98.4205 74.9019 98.5871 74.9039Z" fill="white"/>
<path d="M103.196 74.0467C103.199 74.0998 103.192 74.153 103.174 74.2031C103.156 74.2533 103.129 74.2993 103.093 74.3385C103.016 74.413 102.914 74.4544 102.807 74.454H98.6664C98.5506 74.4527 98.4397 74.4073 98.3561 74.3271C98.2726 74.2469 98.2226 74.138 98.2165 74.0223L97.6754 63.7532C97.6714 63.701 97.6786 63.6485 97.6964 63.5993C97.7142 63.55 97.7423 63.5051 97.7787 63.4675C97.8152 63.4284 97.8595 63.3974 97.9087 63.3764C97.9579 63.3555 98.011 63.3451 98.0645 63.3459H102.205C102.321 63.3472 102.432 63.3926 102.515 63.4728C102.599 63.553 102.649 63.6619 102.655 63.7776L102.691 64.5132L103.196 74.0467Z" fill="#263238"/>
<g opacity="0.1">
<path d="M102.691 64.5133L101.317 74.4419H99.6694L101.226 63.3337H102.205C102.321 63.3351 102.432 63.3805 102.515 63.4607C102.599 63.5408 102.649 63.6498 102.655 63.7654L102.691 64.5133Z" fill="white"/>
<path d="M99.0735 74.4541H98.7026L100.259 63.3459H100.63L99.0735 74.4541Z" fill="white"/>
</g>
<path d="M114.62 108.915C111.525 115.017 109.861 121.743 109.756 128.584C120.092 136.604 129.717 127.21 141.549 128.797C141.135 123.453 139.317 113.597 137.165 108.66C129.328 108.995 122.008 108.21 114.62 108.915Z" fill="#2C8AC0"/>
<path d="M115.696 106.745C115.696 106.745 114.863 108.891 115.088 108.891H136.8C136.989 108.891 137.141 108.8 137.153 108.678L137.341 106.854C137.341 106.727 137.189 106.617 136.989 106.617H116.037C115.974 106.609 115.91 106.616 115.85 106.638C115.791 106.66 115.738 106.697 115.696 106.745Z" fill="white"/>
<path d="M118.755 109.098H118.195C118.08 109.098 117.995 109.037 118.001 108.964L118.268 106.532C118.268 106.459 118.372 106.405 118.481 106.405H119.047C119.156 106.405 119.241 106.459 119.235 106.532L118.974 108.964C118.957 109.007 118.926 109.044 118.887 109.068C118.847 109.092 118.801 109.103 118.755 109.098Z" fill="#2C8AC0"/>
<path d="M132.35 109.098H131.79C131.681 109.098 131.596 109.037 131.602 108.964L131.863 106.532C131.863 106.459 131.967 106.405 132.082 106.405H132.642C132.751 106.405 132.836 106.459 132.83 106.532L132.569 108.964C132.544 109.013 132.465 109.098 132.35 109.098Z" fill="#2C8AC0"/>
</svg>
