<svg width="88" height="77" viewBox="0 0 88 77" fill="none" xmlns="http://www.w3.org/2000/svg">
<g filter="url(#filter0_d_157_1396)">
<rect x="20" y="3" width="48" height="48" rx="12" fill="#E3F3FC"/>
</g>
<rect x="37" y="19" width="14" height="19" fill="white"/>
<path d="M42.5 36H44L50 27H45.5V21H44L38 30H42.5V36ZM44 42C40.575 42 37.719 40.825 35.432 38.475C33.145 36.125 32.001 33.2 32 29.7C32 27.2 32.994 24.4815 34.982 21.5445C36.97 18.6075 39.976 15.426 44 12C48.025 15.425 51.0315 18.6065 53.0195 21.5445C55.0075 24.4825 56.001 27.201 56 29.7C56 33.2 54.8565 36.125 52.5695 38.475C50.2825 40.825 47.426 42 44 42Z" fill="#159EEC"/>
<path d="M29.4369 74L26.9289 65.06H28.1649L30.2649 72.932H29.9769L32.1609 65.06H33.3969L35.5689 72.932H35.2689L37.3809 65.06H38.6169L36.1089 74H34.8009L32.6169 66.164H32.9289L30.7449 74H29.4369ZM41.0295 74.144C40.6055 74.144 40.2295 74.068 39.9015 73.916C39.5815 73.756 39.3295 73.54 39.1455 73.268C38.9615 72.988 38.8695 72.668 38.8695 72.308C38.8695 71.964 38.9415 71.656 39.0855 71.384C39.2375 71.104 39.4695 70.868 39.7815 70.676C40.1015 70.484 40.5015 70.348 40.9815 70.268L43.3815 69.872V70.808L41.2335 71.168C40.8175 71.24 40.5135 71.372 40.3215 71.564C40.1375 71.756 40.0455 71.992 40.0455 72.272C40.0455 72.536 40.1495 72.756 40.3575 72.932C40.5735 73.108 40.8415 73.196 41.1615 73.196C41.5695 73.196 41.9215 73.112 42.2175 72.944C42.5215 72.768 42.7575 72.532 42.9255 72.236C43.1015 71.94 43.1895 71.612 43.1895 71.252V69.608C43.1895 69.256 43.0575 68.972 42.7935 68.756C42.5375 68.532 42.1975 68.42 41.7735 68.42C41.4055 68.42 41.0775 68.516 40.7895 68.708C40.5095 68.892 40.3015 69.14 40.1655 69.452L39.1935 68.948C39.3135 68.652 39.5055 68.388 39.7695 68.156C40.0335 67.916 40.3415 67.728 40.6935 67.592C41.0455 67.456 41.4135 67.388 41.7975 67.388C42.2935 67.388 42.7295 67.484 43.1055 67.676C43.4815 67.86 43.7735 68.12 43.9815 68.456C44.1975 68.784 44.3055 69.168 44.3055 69.608V74H43.2135V72.776L43.4175 72.848C43.2815 73.104 43.0975 73.328 42.8655 73.52C42.6335 73.712 42.3615 73.864 42.0495 73.976C41.7375 74.088 41.3975 74.144 41.0295 74.144ZM48.5467 74.072C47.9147 74.072 47.4267 73.892 47.0827 73.532C46.7467 73.172 46.5787 72.664 46.5787 72.008V68.6H45.4027V67.532H45.6427C45.9307 67.532 46.1587 67.444 46.3267 67.268C46.4947 67.092 46.5787 66.86 46.5787 66.572V66.044H47.6947V67.532H49.1467V68.6H47.6947V71.972C47.6947 72.188 47.7267 72.376 47.7907 72.536C47.8627 72.696 47.9787 72.824 48.1387 72.92C48.2987 73.008 48.5107 73.052 48.7747 73.052C48.8307 73.052 48.8987 73.048 48.9787 73.04C49.0667 73.032 49.1467 73.024 49.2187 73.016V74C49.1147 74.024 48.9987 74.04 48.8707 74.048C48.7427 74.064 48.6347 74.072 48.5467 74.072ZM53.4767 74.144C52.8527 74.144 52.2967 73.996 51.8087 73.7C51.3207 73.404 50.9367 73 50.6567 72.488C50.3767 71.968 50.2367 71.388 50.2367 70.748C50.2367 70.1 50.3727 69.524 50.6447 69.02C50.9247 68.516 51.3007 68.12 51.7727 67.832C52.2527 67.536 52.7887 67.388 53.3807 67.388C53.8607 67.388 54.2847 67.476 54.6527 67.652C55.0287 67.82 55.3447 68.052 55.6007 68.348C55.8647 68.636 56.0647 68.968 56.2007 69.344C56.3447 69.712 56.4167 70.096 56.4167 70.496C56.4167 70.584 56.4087 70.684 56.3927 70.796C56.3847 70.9 56.3727 71 56.3567 71.096H51.0527V70.136H55.7087L55.1807 70.568C55.2527 70.152 55.2127 69.78 55.0607 69.452C54.9087 69.124 54.6847 68.864 54.3887 68.672C54.0927 68.48 53.7567 68.384 53.3807 68.384C53.0047 68.384 52.6607 68.48 52.3487 68.672C52.0367 68.864 51.7927 69.14 51.6167 69.5C51.4487 69.852 51.3807 70.272 51.4127 70.76C51.3807 71.232 51.4527 71.648 51.6287 72.008C51.8127 72.36 52.0687 72.636 52.3967 72.836C52.7327 73.028 53.0967 73.124 53.4887 73.124C53.9207 73.124 54.2847 73.024 54.5807 72.824C54.8767 72.624 55.1167 72.368 55.3007 72.056L56.2367 72.536C56.1087 72.832 55.9087 73.104 55.6367 73.352C55.3727 73.592 55.0567 73.784 54.6887 73.928C54.3287 74.072 53.9247 74.144 53.4767 74.144ZM57.8718 74V67.532H58.9638V68.72L58.8438 68.552C58.9958 68.184 59.2278 67.912 59.5398 67.736C59.8518 67.552 60.2318 67.46 60.6798 67.46H61.0758V68.516H60.5118C60.0558 68.516 59.6878 68.66 59.4078 68.948C59.1278 69.228 58.9878 69.628 58.9878 70.148V74H57.8718Z" fill="#0C192C"/>
<defs>
<filter id="filter0_d_157_1396" x="15" y="0" width="58" height="58" filterUnits="userSpaceOnUse" color-interpolation-filters="sRGB">
<feFlood flood-opacity="0" result="BackgroundImageFix"/>
<feColorMatrix in="SourceAlpha" type="matrix" values="0 0 0 0 0 0 0 0 0 0 0 0 0 0 0 0 0 0 127 0" result="hardAlpha"/>
<feOffset dy="2"/>
<feGaussianBlur stdDeviation="2.5"/>
<feComposite in2="hardAlpha" operator="out"/>
<feColorMatrix type="matrix" values="0 0 0 0 0 0 0 0 0 0 0 0 0 0 0 0 0 0 0.05 0"/>
<feBlend mode="normal" in2="BackgroundImageFix" result="effect1_dropShadow_157_1396"/>
<feBlend mode="normal" in="SourceGraphic" in2="effect1_dropShadow_157_1396" result="shape"/>
</filter>
</defs>
</svg>
