<svg width="32" height="32" viewBox="0 0 32 32" fill="none" xmlns="http://www.w3.org/2000/svg">
<rect x="9" y="8" width="14" height="19" fill="white"/>
<path d="M14.5 25H16L22 16H17.5V10H16L10 19H14.5V25ZM16 31C12.575 31 9.719 29.825 7.432 27.475C5.145 25.125 4.001 22.2 4 18.7C4 16.2 4.994 13.4815 6.982 10.5445C8.97 7.6075 11.976 4.426 16 1C20.025 4.425 23.0315 7.6065 25.0195 10.5445C27.0075 13.4825 28.001 16.201 28 18.7C28 22.2 26.8565 25.125 24.5695 27.475C22.2825 29.825 19.426 31 16 31Z" fill="#159EEC"/>
</svg>
