<svg width="21" height="20" viewBox="0 0 21 20" fill="none" xmlns="http://www.w3.org/2000/svg">
<path d="M15.5465 10.4007C15.352 10.21 15.3482 9.89349 15.5427 9.69898L17.3429 7.87208H8.76144C8.48684 7.87208 8.26562 7.65087 8.26562 7.37626C8.26562 7.10166 8.48684 6.88045 8.76144 6.88045H17.3391L15.5389 5.05355C15.3482 4.85904 15.3482 4.54629 15.5427 4.35178C15.7372 4.16108 16.05 4.16108 16.2445 4.35559L18.8761 7.02538C18.9181 7.07114 18.9562 7.12073 18.9791 7.18175C19.0058 7.24277 19.0172 7.30761 19.0172 7.37245C19.0172 7.50212 18.9676 7.62417 18.8761 7.71952L16.2445 10.3893C16.0538 10.5876 15.741 10.5914 15.5465 10.4007Z" fill="#FD9101"/>
<path d="M5.40895 15.6641C5.60346 15.4734 5.60728 15.1568 5.41276 14.9623L3.61638 13.1354H12.194C12.4686 13.1354 12.6898 12.9142 12.6898 12.6396C12.6898 12.365 12.4686 12.1438 12.194 12.1438H3.61638L5.41658 10.3169C5.60728 10.1223 5.60728 9.8096 5.41276 9.61508C5.21825 9.42439 4.90551 9.42439 4.71099 9.6189L2.07935 12.2887C2.0374 12.3345 1.99926 12.384 1.97637 12.4451C1.94967 12.5061 1.93823 12.5709 1.93823 12.6358C1.93823 12.7654 1.98781 12.8875 2.07935 12.9828L4.71099 15.6526C4.90169 15.8509 5.21444 15.8548 5.40895 15.6641Z" fill="#FD9101"/>
</svg>
